<svg width="24px" height="24px" viewBox="0 0 24 24" xmlns="http://www.w3.org/2000/svg" data-license="CC-BY 4.0" data-source="Keyteq">
  <g stroke="none" stroke-width="1" fill="none" fill-rule="evenodd">
    <g transform="translate(4.000000, 2.000000)" fill="currentColor" fill-rule="nonzero">
      <path d="M10,0 L16,6 L16,18 C16,19.1045695 15.1045695,20 14,20 L2,20 C0.8954305,20 0,19.1045695 0,18 L0,2 C0,0.8954305 0.8954305,0 2,0 L10,0 Z M14,18 L14,7 L9,7 L9,2 L2,2 L2,18 L14,18 Z M9,9 C10.7915556,9.36209651 12.104,10.8287702 12.104,12.5624444 C12.104,14.2961186 10.7915556,15.7627924 9,16.1248889 L9,15.2864993 C10.2915556,14.9435033 11.2084444,13.8576202 11.2084444,12.5624444 C11.2084444,11.2672687 10.2915556,10.1813856 9,9.83838956 L9,9 Z M10.104,12.792 C10.104,13.5835556 9.66666667,14.2502222 9,14.5835556 L9,11 C9.66666667,11.3333333 10.104,12 10.104,12.7915556 L10.104,12.792 Z M4,11.2293333 L5.77066667,11.2293333 L8,9 L8,16.1248889 L5.77066667,13.8955556 L4,13.8955556 L4,11.2288889 L4,11.2293333 Z" id="Combined-Shape"></path>
    </g>
  </g>
</svg>
