<svg xmlns="http://www.w3.org/2000/svg" fill="currentColor" data-license="NDLA" data-source="NDLA" viewBox="0 0 165 180">
  <path d="M1.4 77.6A37 37 0 0 1 7 64.3c2.5-3.5 5.8-6 9-8.5 3.6-2.8 7.2-5.8 10.6-8.9 3.3-2.9 6.6-6 9.1-9.7 2.4-3.6 4.1-7.7 6-11.6A48.2 48.2 0 0 1 60 4.7c16.8-9.3 40.4-3.4 56.4 5.2 10.6 5.6 21 11.9 29.8 20.8 8.8 9 15.9 20.8 18.1 34.4 3.4 21-5.2 42.3-4.8 63.7.2 8 1.6 16 0 23.8a32.5 32.5 0 0 1-11.7 19 40.9 40.9 0 0 1-19 7.7 91 91 0 0 1-31.8-1.8 147.6 147.6 0 0 1-55-22c-22.2-15.2-48.4-44.3-40.5-78Z"/>
</svg>
