<svg xmlns="http://www.w3.org/2000/svg" data-license="Apache License 2.0" data-source="Knowit" viewBox="0 0 24 24">
  <path stroke="currentColor" fill="none" stroke-linecap="round" stroke-linejoin="round" stroke-width="1.5" d="M12 19.3H4.8a2 2 0 0 1-2-2V7c0-1.2.9-2 2-2h1"/>
  <path stroke="currentColor" fill="none" stroke-linecap="round" stroke-linejoin="round" stroke-width="1.5" d="M12 5v14.3a6.5 6.5 0 0 0-5.2-3 1 1 0 0 1-1-1V3.9c0-.6.5-1 1-1a8.2 8.2 0 0 1 5.1 2Zm9.3 2v10.2c0 1.2-1 2.1-2.1 2.1H12V5h7.2c1.1 0 2 1 2 2ZM15 8h3.2M15 12.1h3.2M15 16.3h3.2"/>
</svg>