<svg width="24" height="24" viewBox="0 0 24 24" fill="none" xmlns="http://www.w3.org/2000/svg" data-license="Apache License 2.0" data-source="Knowit">
<path d="M6.86011 4.81012V2.75012" stroke="white" stroke-width="1.5" stroke-linecap="round" stroke-linejoin="round"/>
<path d="M17.1399 4.81012V2.75012" stroke="white" stroke-width="1.5" stroke-linecap="round" stroke-linejoin="round"/>
<path d="M18.05 3.78015H5.95C4.18 3.78015 2.75 5.21015 2.75 6.98015V18.0602C2.75 19.8302 4.18 21.2601 5.95 21.2601H18.06C19.83 21.2601 21.26 19.8302 21.26 18.0602V6.98015C21.25 5.21015 19.82 3.78015 18.05 3.78015Z" stroke="white" stroke-width="1.5" stroke-linecap="round" stroke-linejoin="round"/>
<path d="M2.75 7.90015H21.25" stroke="white" stroke-width="1.5" stroke-linecap="round" stroke-linejoin="round"/>
<path d="M18 12.0001C18.5523 12.0001 19 11.5524 19 11.0001C19 10.4478 18.5523 10.0001 18 10.0001C17.4477 10.0001 17 10.4478 17 11.0001C17 11.5524 17.4477 12.0001 18 12.0001Z" fill="white"/>
<path d="M14 12.0001C14.5523 12.0001 15 11.5524 15 11.0001C15 10.4478 14.5523 10.0001 14 10.0001C13.4477 10.0001 13 10.4478 13 11.0001C13 11.5524 13.4477 12.0001 14 12.0001Z" fill="white"/>
<path d="M10 12.0001C10.5523 12.0001 11 11.5524 11 11.0001C11 10.4478 10.5523 10.0001 10 10.0001C9.44772 10.0001 9 10.4478 9 11.0001C9 11.5524 9.44772 12.0001 10 12.0001Z" fill="white"/>
<path d="M6 12.0001C6.55228 12.0001 7 11.5524 7 11.0001C7 10.4478 6.55228 10.0001 6 10.0001C5.44772 10.0001 5 10.4478 5 11.0001C5 11.5524 5.44772 12.0001 6 12.0001Z" fill="white"/>
<path d="M18 15.4901C18.5523 15.4901 19 15.0424 19 14.4901C19 13.9378 18.5523 13.4901 18 13.4901C17.4477 13.4901 17 13.9378 17 14.4901C17 15.0424 17.4477 15.4901 18 15.4901Z" fill="white"/>
<path d="M14 15.4901C14.5523 15.4901 15 15.0424 15 14.4901C15 13.9378 14.5523 13.4901 14 13.4901C13.4477 13.4901 13 13.9378 13 14.4901C13 15.0424 13.4477 15.4901 14 15.4901Z" fill="white"/>
<path d="M10 15.4901C10.5523 15.4901 11 15.0424 11 14.4901C11 13.9378 10.5523 13.4901 10 13.4901C9.44772 13.4901 9 13.9378 9 14.4901C9 15.0424 9.44772 15.4901 10 15.4901Z" fill="white"/>
<path d="M6 15.4901C6.55228 15.4901 7 15.0424 7 14.4901C7 13.9378 6.55228 13.4901 6 13.4901C5.44772 13.4901 5 13.9378 5 14.4901C5 15.0424 5.44772 15.4901 6 15.4901Z" fill="white"/>
<path d="M14 18.9701C14.5523 18.9701 15 18.5224 15 17.9701C15 17.4178 14.5523 16.9701 14 16.9701C13.4477 16.9701 13 17.4178 13 17.9701C13 18.5224 13.4477 18.9701 14 18.9701Z" fill="white"/>
<path d="M10 18.9701C10.5523 18.9701 11 18.5224 11 17.9701C11 17.4178 10.5523 16.9701 10 16.9701C9.44772 16.9701 9 17.4178 9 17.9701C9 18.5224 9.44772 18.9701 10 18.9701Z" fill="white"/>
<path d="M6 18.9701C6.55228 18.9701 7 18.5224 7 17.9701C7 17.4178 6.55228 16.9701 6 16.9701C5.44772 16.9701 5 17.4178 5 17.9701C5 18.5224 5.44772 18.9701 6 18.9701Z" fill="white"/>
</svg>
