<svg xmlns="http://www.w3.org/2000/svg" data-license="Apache License 2.0" data-source="Knowit" viewBox="0 0 24 24">
  <path stroke="currentColor" fill="none" stroke-linecap="round" stroke-linejoin="round" stroke-width="1.5" d="M6.9 4.8v-2m10.2 2v-2m.9 1H6A3.2 3.2 0 0 0 2.6 7v11c0 1.8 1.5 3.3 3.3 3.3h12c1.8 0 3.3-1.5 3.3-3.2V7c0-1.8-1.5-3.2-3.3-3.2ZM2.8 7.9h18.4"/>
  <path fill="currentColor" d="M18 12a1 1 0 1 0 0-2 1 1 0 0 0 0 2Zm-4 0a1 1 0 1 0 0-2 1 1 0 0 0 0 2Zm-4 0a1 1 0 1 0 0-2 1 1 0 0 0 0 2Zm-4 0a1 1 0 1 0 0-2 1 1 0 0 0 0 2Zm12 3.5a1 1 0 1 0 0-2 1 1 0 0 0 0 2Zm-4 0a1 1 0 1 0 0-2 1 1 0 0 0 0 2Zm-4 0a1 1 0 1 0 0-2 1 1 0 0 0 0 2Zm-4 0a1 1 0 1 0 0-2 1 1 0 0 0 0 2Zm8 3.5a1 1 0 1 0 0-2 1 1 0 0 0 0 2Zm-4 0a1 1 0 1 0 0-2 1 1 0 0 0 0 2Zm-4 0a1 1 0 1 0 0-2 1 1 0 0 0 0 2Z"/>
</svg>
