<svg xmlns="http://www.w3.org/2000/svg" data-license="CC-BY 4.0" data-source="Netlife" viewBox="0 0 78 77">
  <circle cx="38.5" cy="38.9" r="38.3" fill="#FFF"/>
  <g fill="none">
    <path fill="#DA788D" d="M39 76.5a38.3 38.3 0 0 0 38.5-38.2A38.3 38.3 0 0 0 39.1 0 38.3 38.3 0 0 0 .6 38.3a38.3 38.3 0 0 0 38.5 38.2"/>
    <path fill="#FFF" d="M58.3 63V20.8L48.2 10.7H19.8V63z"/>
    <path fill="gray" d="M48.2 20.8h10.1L48.2 10.7z"/>
    <path fill="#CCC" d="M58.3 20.8H48.2l10.1 10.1z"/>
    <path fill="#DA788D" d="M27.1 21.5h11.8v-1H27.1z"/>
    <path fill="#B3B3B3" d="M27.1 26.2H51v-1H27.1zm0 3H51v-1H27.1zm0 3H51v-1H27.1zm0 3H51v-1H27.1z"/>
    <path fill="#DA788D" d="M27.1 58.5h23.7V39.3H27.1z"/>
    <path fill="#FFF" d="m44.3 48.9-8.6 4.3v-8.6z"/>
  </g>
</svg>
