<svg xmlns="http://www.w3.org/2000/svg" data-license="CC-BY 4.0" data-source="Keyteq" viewBox="0 0 315 292">
  <g fill="#507AA4" fill-rule="evenodd">
    <path d="M43.8 142.8v-19.2h87.5v19.2H43.8Zm152-96V66h-152V46.8h152Zm0 38.4v19.2h-152V85.2h152Z"/>
    <path fill-rule="nonzero" d="M0 189.6V.6h47.4v19H18.6v151h28.8v19zM237.3.7v122.8h-18.6V19.7H190V.7z"/>
    <path d="M257.5 195.3a39.6 39.6 0 0 1-73.4 19.7c-3.5-6-5.2-12.6-5.2-19.7a39.6 39.6 0 0 1 39.2-39.4 38 38 0 0 1 19.7 5.3c6 3.6 10.8 8.4 14.4 14.4a38 38 0 0 1 5.3 19.7Zm0 53v-7l-2.5-2.4a51.8 51.8 0 0 1-16.9 10 58.3 58.3 0 0 1-69-24.2 55.7 55.7 0 0 1-7.8-28.7 56.3 56.3 0 0 1 56.8-57 55.7 55.7 0 0 1 49 28.3 57.7 57.7 0 0 1 4 48.4c-2.2 6.4-5.5 12-9.8 17l2.3 2.5h6.9l43.6 43.4-13.2 13.2-43.4-43.4Z"/>
  </g>
</svg>
