<svg width="120" height="120" viewBox="0 0 120 120" fill="none" xmlns="http://www.w3.org/2000/svg" data-license="CC-BY 4.0" data-source="Labs AS">
  <path fill-rule="evenodd" clip-rule="evenodd" d="M68.6046 63.1795C69.7864 55.5586 78.2576 55.0321 79.6334 50.5322C80.3671 48.1322 79.3563 46.0736 76.8064 45.294C74.7564 44.6673 72.8007 45.1628 70.8615 46.3195L68.5635 42.3912C71.493 40.4986 74.9933 39.6005 78.6433 40.7164C84.0432 42.3673 87.0218 46.3943 85.3556 51.8442C83.4143 58.1942 74.9265 58.0595 73.6545 64.7234L68.6046 63.1795ZM65.1769 70.2778C65.8648 68.0278 67.9692 66.867 70.0692 67.509C72.1692 68.1511 73.3147 70.3055 72.6268 72.5555C71.9389 74.8054 69.7845 75.951 67.6845 75.3089C65.5846 74.6669 64.489 72.5278 65.1769 70.2778Z" fill="#638B98"/>
  <path fill-rule="evenodd" clip-rule="evenodd" d="M47.7164 72.1638C44.1799 63.039 53.1552 57.0857 51.812 51.2677C51.0956 48.1647 48.6787 46.5438 45.3818 47.305C42.7314 47.9169 40.8966 49.7023 39.4994 52.2037L34.4816 49.3448C36.5002 45.4062 39.777 42.1984 44.4961 41.1089C51.4777 39.4971 57.3061 42.0327 58.9329 49.079C60.8283 57.2889 51.4153 62.5261 54.2455 70.6564L47.7164 72.1638ZM48.4533 82.1392C47.7817 79.2302 49.3578 76.6193 52.0729 75.9925C54.788 75.3656 57.4138 77.0064 58.0854 79.9154C58.757 82.8245 57.1162 85.4503 54.4012 86.0771C51.6861 86.7039 49.1249 85.0482 48.4533 82.1392Z" fill="#638B98"/>
</svg>
