<svg xmlns="http://www.w3.org/2000/svg" data-license="Apache License 2.0" data-name="LinkedIn" data-source="Material Design Icons" viewBox="0 0 24 24">
  <path fill="currentColor" d="M19 3a2 2 0 0 1 2 2v14a2 2 0 0 1-2 2H5a2 2 0 0 1-2-2V5a2 2 0 0 1 2-2h14m-.5 15.5v-5.3a3.3 3.3 0 0 0-3.3-3.3c-.8 0-1.8.6-2.3 1.3v-1h-2.8v8.3H13v-5c0-.7.6-1.3 1.4-1.3a1.4 1.4 0 0 1 1.4 1.4v4.9h2.8M6.9 8.5A1.7 1.7 0 0 0 8.6 7c0-1-.8-1.7-1.7-1.7A1.7 1.7 0 0 0 5.2 7c0 1 .8 1.7 1.7 1.7m1.4 9.9v-8.4H5.5v8.4h2.8Z"/>
</svg>
