<svg viewBox="0 0 24 24" fill="currentColor" xmlns="http://www.w3.org/2000/svg" data-license="Apache License 2.0" data-source="RemixIcon">
<path d="M8.46547 19.4838L14.9654 19.5137C17.4507 19.5252 19.4746 17.5198 19.4861 15.0345C19.4976 12.5493 17.4921 10.5253 15.0069 10.5138L8.00696 10.4816C6.62628 10.4752 5.51215 9.35075 5.51851 7.97006C5.52488 6.58938 6.64933 5.47525 8.03001 5.48162L14.7007 5.51237C15.1071 6.67946 16.2145 7.51937 17.5207 7.52539C19.1775 7.53303 20.5269 6.19614 20.5345 4.53925C20.5421 2.88237 19.2052 1.53309 17.5484 1.52545C16.2421 1.51943 15.1271 2.3491 14.7099 3.51239L8.03923 3.48164C5.55396 3.47018 3.52999 5.47557 3.51854 7.96084C3.50708 10.4461 5.51247 12.4701 7.99774 12.4815L14.9977 12.5138C16.3784 12.5202 17.4925 13.6446 17.4861 15.0253C17.4798 16.406 16.3553 17.5201 14.9746 17.5138L8.47469 17.4838L8.48852 14.4838L3.47013 18.4607L8.45163 22.4837L8.46547 19.4838ZM16.5345 4.52081C16.5371 3.96852 16.9869 3.52289 17.5391 3.52543C18.0914 3.52798 18.5371 3.97774 18.5345 4.53003C18.532 5.08233 18.0822 5.52796 17.5299 5.52541C16.9776 5.52287 16.532 5.07311 16.5345 4.52081Z" fill="currentColor"/>
</svg>
