<svg viewBox="0 0 24 24" fill="currentColor" xmlns="http://www.w3.org/2000/svg" data-license="Apache License 2.0" data-source="RemixIcon">
<path d="M9.9077 20.0413L16.4076 20.0713C18.8929 20.0828 20.9169 18.0773 20.9283 15.5921C20.9398 13.1068 18.9344 11.0828 16.4491 11.0714L9.44919 11.0391C8.06851 11.0328 6.95438 9.90831 6.96074 8.52762C6.96711 7.14693 8.09156 6.03281 9.47224 6.03917L16.1429 6.06993C16.5493 7.23701 17.6567 8.07693 18.9629 8.08295C20.6198 8.09059 21.9691 6.75369 21.9767 5.09681C21.9844 3.43993 20.6474 2.09065 18.9906 2.08301C17.6844 2.07699 16.5693 2.90666 16.1521 4.06995L9.48146 4.03919C6.99619 4.02774 4.97222 6.03313 4.96077 8.5184C4.94931 11.0037 6.9547 13.0276 9.43997 13.0391L16.4399 13.0714C17.8206 13.0777 18.9347 14.2022 18.9283 15.5829C18.922 16.9636 17.7975 18.0777 16.4168 18.0713L9.91692 18.0413L9.93075 15.0414L4.91236 19.0183L9.89387 23.0413L9.9077 20.0413Z" fill="currentColor"/>
</svg>
