<svg xmlns="http://www.w3.org/2000/svg" xml:space="preserve" data-license="Apache License 2.0" data-source="Material Design" viewBox="0 0 256 256">
  <defs>
    <clipPath id="a" clipPathUnits="userSpaceOnUse">
      <path d="M0 192h192V0H0Z"/>
    </clipPath>
  </defs>
  <g clip-path="url(#a)" transform="matrix(1.3333333,0,0,-1.3333333,0,256)">
    <path d="M78 69.8v52.4L124 96Zm102.3 68.8a22 22 0 0 1-15.5 15.7C151 158 96 158 96 158s-55 0-68.8-3.7a22 22 0 0 1-15.5-15.7C8 124.8 8 96 8 96s0-28.8 3.7-42.6a22 22 0 0 1 15.5-15.7C41 34 96 34 96 34s55 0 68.8 3.7a22 22 0 0 1 15.5 15.7C184 67.2 184 96 184 96s0 28.8-3.7 42.6"/>
  </g>
</svg>
