<?xml version="1.0" encoding="UTF-8" standalone="no"?>
<svg
   xmlns:dc="http://purl.org/dc/elements/1.1/"
   xmlns:cc="http://creativecommons.org/ns#"
   xmlns:rdf="http://www.w3.org/1999/02/22-rdf-syntax-ns#"
   xmlns:svg="http://www.w3.org/2000/svg"
   xmlns="http://www.w3.org/2000/svg"
   data-license="Apache License 2.0"
   data-source="Material Design"
   viewBox="0 0 256 256"
   height="256"
   width="256"
   xml:space="preserve"
   id="svg2"
   version="1.1"><defs
     id="defs6"><clipPath
       id="clipPath18"
       clipPathUnits="userSpaceOnUse"><path
         id="path16"
         d="M 0,192 H 192 V 0 H 0 Z" /></clipPath></defs><g
     transform="matrix(1.3333333,0,0,-1.3333333,0,256)"
     id="g10"><g
       id="g12"><g
         clip-path="url(#clipPath18)"
         id="g14"><g
           transform="translate(78,69.8311)"
           id="g20"><path
             id="path22"
             d="M 0,0 V 52.338 L 46,26.168 Z M 102.322,68.806 C 100.298,76.428 94.334,82.43 86.762,84.467 73.037,88.169 18,88.169 18,88.169 c 0,0 -55.037,0 -68.762,-3.702 C -58.334,82.43 -64.298,76.428 -66.322,68.806 -70,54.992 -70,26.169 -70,26.169 c 0,0 0,-28.822 3.678,-42.637 2.024,-7.622 7.988,-13.624 15.56,-15.662 13.725,-3.701 68.762,-3.701 68.762,-3.701 0,0 55.037,0 68.762,3.701 7.572,2.038 13.536,8.04 15.56,15.662 C 106,-2.653 106,26.169 106,26.169 c 0,0 0,28.823 -3.678,42.637" /></g></g></g></g></svg>
