<svg viewBox="0 0 20 20" fill="currentColor" xmlns="http://www.w3.org/2000/svg" data-license="Apache License 2.0" data-source="NDLA">
<path d="M10 20C4.47715 20 0 15.5228 0 10C0 4.47715 4.47715 0 10 0C15.5228 0 20 4.47715 20 10C20 15.5228 15.5228 20 10 20ZM10 18C14.4183 18 18 14.4183 18 10C18 5.58172 14.4183 2 10 2C5.58172 2 2 5.58172 2 10C2 14.4183 5.58172 18 10 18Z"/>
<path fill-rule="evenodd" clip-rule="evenodd" d="M10.0024 4C9.12004 4 8.4048 4.72072 8.4048 5.60977C8.4048 6.49882 9.12004 7.21954 10.0024 7.21954C10.8847 7.21954 11.5999 6.49882 11.5999 5.60977C11.5999 4.72072 10.8847 4 10.0024 4ZM14.4999 8.06394C14.5071 7.39965 13.9106 6.80746 13.1999 6.94667C12.8501 7.01517 12.5284 7.09074 12.2207 7.16302C11.4684 7.33974 10.7997 7.4968 10.0101 7.48275L9.98987 7.48227C9.20021 7.49633 8.5316 7.33927 7.77926 7.16254C7.47156 7.09026 7.14986 7.01469 6.80014 6.94619C6.08939 6.80698 5.49282 7.39918 5.50007 8.06347C5.50559 8.5705 5.86104 9.04338 6.37843 9.14881C7.00096 9.31909 7.62586 9.47738 8.25214 9.63285C8.23195 10.3044 8.19445 10.9781 8.07869 11.6407C7.94628 12.2992 7.70696 12.9258 7.45599 13.5829C7.34296 13.8789 7.22758 14.1811 7.11853 14.4951C6.8994 15.1224 7.27475 15.8743 7.98207 15.9864C8.51503 16.0709 9.01414 15.7397 9.18122 15.2505L9.1818 15.2488L9.99992 12.8213L10.8182 15.2493L10.8188 15.251C10.9858 15.7402 11.485 16.0714 12.0179 15.9868C12.7252 15.8747 13.1006 15.1229 12.8815 14.4956C12.7724 14.1816 12.657 13.8794 12.5441 13.5835C12.2931 12.9264 12.0537 12.2996 11.9213 11.6412C11.8055 10.9786 11.768 10.3049 11.7478 9.63332C12.3741 9.47785 12.999 9.31956 13.6216 9.14928C14.1389 9.04385 14.4944 8.57098 14.4999 8.06394Z"/>
</svg>
