<?xml version="1.0" encoding="utf-8"?>
<svg version="1.1" xmlns="http://www.w3.org/2000/svg" xmlns:xlink="http://www.w3.org/1999/xlink" x="0px" y="0px"
	 viewBox="0 0 48 48" style="enable-background:new 0 0 48 48;" xml:space="preserve" width="24" height="24" data-license="Apache License 2.0" data-source="Material Design">
<g>
	<path d="M21,47.8c-2.8-0.4-5.2-1.3-7.7-2.5s-4.5-2.9-6.2-5.1s-3-4.6-3.8-7.4l3.4-0.9c1.4,4.7,4.2,8.2,8.3,10.5
		c4.2,2.3,8.6,2.8,13.3,1.6c4.7-1.3,8.2-4.2,10.5-8.3c2.3-4.2,2.8-8.6,1.6-13.3c-1.3-4.7-4.2-8.2-8.3-10.5s-8.6-2.8-13.3-1.6l-1,0.3
		l5.3,2.9l-1.7,3l-10.6-5.8L16.7,0l3,1.6l-3.1,5.7l1.3-0.3c2.8-0.8,5.6-0.9,8.4-0.6c2.7,0.3,5.3,1.2,7.7,2.4s4.4,3,6.1,5.1
		c1.7,2.2,3,4.6,3.8,7.4c0.8,2.8,0.9,5.6,0.6,8.3c-0.3,2.7-1.3,5.2-2.5,7.7c-1.3,2.4-2.9,4.5-5.1,6.2s-4.6,3-7.4,3.8
		S23.8,48.2,21,47.8z"/>
	<g>
		<path d="M15.4,31.8v-1.9h2.8v-6h-2.3v-1.5c0.5-0.1,0.9-0.2,1.2-0.2c0.3-0.1,0.7-0.2,0.9-0.3c0.3-0.1,0.5-0.3,0.8-0.4h1.8v8.4H23
			v1.9H15.4z"/>
		<path d="M28.5,31.9c-0.6,0-1.1-0.1-1.6-0.2c-0.5-0.1-0.9-0.3-1.3-0.5c-0.4-0.2-0.7-0.5-1-0.7l1.1-1.5c0.2,0.2,0.5,0.4,0.7,0.5
			c0.3,0.2,0.5,0.3,0.8,0.4s0.6,0.1,0.9,0.1c0.4,0,0.7-0.1,1-0.2s0.5-0.3,0.7-0.5s0.3-0.5,0.3-0.9c0-0.5-0.2-0.9-0.5-1.2
			c-0.3-0.3-0.8-0.4-1.3-0.4c-0.3,0-0.6,0-0.9,0.1c-0.2,0.1-0.5,0.2-0.9,0.4l-1.1-0.7l0.3-5.2h6.4v2h-4.3l-0.2,1.9
			c0.3-0.1,0.5-0.1,0.7-0.2c0.2,0,0.4-0.1,0.7-0.1c0.6,0,1.2,0.1,1.8,0.3c0.5,0.2,1,0.6,1.3,1.1s0.5,1.1,0.5,1.8
			c0,0.8-0.2,1.4-0.6,2c-0.4,0.5-0.9,1-1.5,1.2C29.9,31.8,29.2,31.9,28.5,31.9z"/>
	</g>
</g>
</svg>
