<svg width="20" height="20" viewBox="0 0 20 20" data-license="Apache License 2.0" data-source="Sopra Steria" xmlns="http://www.w3.org/2000/svg" fill="none" xmlns="http://www.w3.org/2000/svg">
<path d="M13.75 2.5C12.3 2.5 10.9083 3.175 10 4.24167C9.09166 3.175 7.7 2.5 6.25 2.5C3.68333 2.5 1.66666 4.51667 1.66666 7.08333C1.66666 10.2333 4.5 12.8 8.79166 16.7L10 17.7917L11.2083 16.6917C15.5 12.8 18.3333 10.2333 18.3333 7.08333C18.3333 4.51667 16.3167 2.5 13.75 2.5ZM10.0833 15.4583L10 15.5417L9.91666 15.4583C5.95 11.8667 3.33333 9.49167 3.33333 7.08333C3.33333 5.41667 4.58333 4.16667 6.25 4.16667C7.53333 4.16667 8.78333 4.99167 9.225 6.13333H10.7833C11.2167 4.99167 12.4667 4.16667 13.75 4.16667C15.4167 4.16667 16.6667 5.41667 16.6667 7.08333C16.6667 9.49167 14.05 11.8667 10.0833 15.4583Z" fill="#20588F"/>
</svg>
