<svg viewBox="0 0 18 15" fill="none" xmlns="http://www.w3.org/2000/svg">
  <path fill="currentColor" d="M9.81602 0.501796L5.77643 4.54138C5.50664 4.81117 5.35352 5.18305 5.35352 5.5695V12.8539C5.35352 13.656 6.00977 14.3122 6.81185 14.3122H13.3744C13.9577 14.3122 14.4827 13.9622 14.716 13.4299L17.0931 7.88096C17.7056 6.43721 16.6483 4.83305 15.0806 4.83305H10.9608L11.6535 1.49346C11.7264 1.12888 11.6171 0.757004 11.3546 0.494505C10.9243 0.0715879 10.2389 0.0715879 9.81602 0.501796ZM2.43685 14.3122C3.23893 14.3122 3.89518 13.656 3.89518 12.8539V7.02055C3.89518 6.21846 3.23893 5.56221 2.43685 5.56221C1.63477 5.56221 0.978516 6.21846 0.978516 7.02055V12.8539C0.978516 13.656 1.63477 14.3122 2.43685 14.3122Z" fill="#444444"/>
</svg>
