<svg viewBox="0 0 18 18" fill="none" xmlns="http://www.w3.org/2000/svg">
  <path fill="currentColor" d="M15.5618 6.08317H10.9608L11.6535 2.75088L11.6754 2.51755C11.6754 2.21859 11.5514 1.9415 11.3546 1.74463L10.5816 0.979004L5.78372 5.78421C5.51393 6.04671 5.35352 6.4113 5.35352 6.81234V14.104C5.35352 14.9061 6.00977 15.5623 6.81185 15.5623H13.3743C13.9796 15.5623 14.4973 15.1978 14.716 14.6728L16.9181 9.53213C16.9837 9.36442 17.0202 9.18942 17.0202 8.99984V7.5415C17.0202 6.73942 16.3639 6.08317 15.5618 6.08317ZM15.5618 8.99984L13.3743 14.104H6.81185V6.81234L9.97643 3.64775L9.16706 7.5415H15.5618V8.99984ZM0.978516 6.81234H3.89518V15.5623H0.978516V6.81234Z" fill="#444444"/>
</svg>