<?xml version="1.0" encoding="UTF-8"?>
<svg width="4000px" height="320px" viewBox="0 0 4000 320" version="1.1" xmlns="http://www.w3.org/2000/svg" xmlns:xlink="http://www.w3.org/1999/xlink">
    <!-- Generator: Sketch 52.3 (67297) - http://www.bohemiancoding.com/sketch -->
    <title>1P matematikk</title>
    <desc>Created with Sketch.</desc>
    <g id="1P-matematikk" stroke="none" stroke-width="1" fill="none" fill-rule="evenodd">
        <g transform="translate(-4.000000, 27.000000)" id="Path" stroke="#FFFFFF">
            <path d="M1160.9,208.9 C1160.9,208.9 1207.6,208.8 1209,208.4 C1210.4,207.9 1258.4,209.2 1258.4,209.2 C1258.4,209.2 1300.6,208.2 1304.2,208.2 C1307.8,208.2 1348.7,208.6 1351.4,209 C1354.1,209.4 1431.7,208.4 1437.6,208.8 C1443.5,209.2 1512.9,209.6 1517.4,209.6 C1521.9,209.6 1549.6,209.5 1551.9,209.5 C1554.2,209.5 1576.4,207.6 1578.7,208.5 C1581,209.4 1610.5,208.9 1614.1,209.3 C1617.7,209.7 1660.8,208.8 1664.9,209.2 C1669,209.6 1710.3,210 1713.4,210 C1716.6,210 1776.4,208.1 1781.9,208.5 C1787.4,208.9 1884.5,208.4 1884.5,208.4"></path>
            <path d="M1130,258.8 C1131.4,258.3 1188.1,258.3 1188.1,258.3 C1188.1,258.3 1236.2,257.3 1240.3,257.8 C1244.4,258.2 1306.1,257.2 1309.7,258.1 C1313.3,259 1336.9,255.8 1338.7,256.7 C1340.5,257.6 1460.3,260.1 1464.4,259.6 C1468.5,259.1 1664.9,259.2 1668.5,259.2 C1672.1,259.2 1727.9,260.5 1731.6,260.9 C1735.3,261.3 1880.4,258.2 1883.5,259.1"></path>
            <path d="M423.6,210.1 C423.6,210.1 458.4,208.8 459.7,208.3 C461.1,207.8 509.1,209.1 509.1,209.1 C509.1,209.1 551.3,208.1 554.9,208.1 C558.5,208.1 599.4,208.5 602.1,208.9 C604.8,209.3 682.4,208.3 688.3,208.7 C694.2,209.1 763.6,209.5 768.1,209.5 C772.6,209.5 800.3,209.4 802.6,209.4 C804.9,209.4 827.1,207.5 829.4,208.4 C831.7,209.3 861.2,208.8 864.8,209.2 C868.4,209.6 911.5,208.7 915.6,209.1 C919.7,209.5 961,209.9 964.1,209.9 C967.3,209.9 1027.1,208 1032.6,208.4 C1038,208.8 1161.6,208.8 1161.6,208.8"></path>
            <path d="M419.5,259.3 C420.9,258.8 438.9,258.3 438.9,258.3 C438.9,258.3 487,257.3 491.1,257.8 C495.2,258.2 556.9,257.2 560.5,258.1 C564.1,259 587.7,255.8 589.5,256.7 C591.3,257.6 711.1,260.1 715.2,259.6 C719.3,259.1 915.7,259.2 919.3,259.2 C922.9,259.2 978.7,260.5 982.4,260.9 C986.1,261.3 1126.9,257.6 1130,258.5"></path>
            <path d="M460,209.7 L460,226.1"></path>
            <path d="M506.7,209.6 L506.7,225.5"></path>
            <path d="M553.9,208.6 L554.4,225"></path>
            <path d="M602,208.6 L603.4,224.4"></path>
            <path d="M651,208.9 L650.5,224.3"></path>
            <path d="M699.5,209.7 C699.5,209.7 698.6,223.3 698.6,225.6"></path>
            <path d="M747.1,209.2 C747.1,209.2 746.2,224.2 746.2,226"></path>
            <path d="M794.3,210 C794.3,210 793.9,224.1 793.9,225.4"></path>
            <path d="M844.7,209 C844.7,213.1 844.7,225.8 844.7,225.8"></path>
            <path d="M892.3,210.3 C892.3,210.3 891.9,223 891.9,225.7"></path>
            <path d="M940.4,210.2 C940.4,210.2 941.3,223.4 940.9,224.7"></path>
            <path d="M988.9,211 C988.9,211 988,223.7 988,225.5"></path>
            <path d="M1037.4,210 C1037.4,210 1037,223.2 1037,225"></path>
            <path d="M449.6,244.2 L450.1,257.8"></path>
            <path d="M468.2,245.1 C468.7,246.5 468.7,256 468.7,256"></path>
            <path d="M486.4,245.5 L487.7,256.4"></path>
            <path d="M506.8,245.5 L506.8,257.7"></path>
            <path d="M524.9,245.9 L525.9,256.8"></path>
            <path d="M543.1,246.3 L542.6,256.3"></path>
            <path d="M563.5,245.8 L564,256.7"></path>
            <path d="M580.7,245.3 L581.2,258"></path>
            <path d="M600.7,244.8 L600.2,256.2"></path>
            <path d="M619.7,244.4 L620.2,257.1"></path>
            <path d="M636.5,245.2 L637.4,256.6"></path>
            <path d="M656.9,247 C656.9,248.4 657.8,257.4 657.8,257.4"></path>
            <path d="M676.4,245.6 C676,249.2 676.4,256.9 676.4,256.9"></path>
            <path d="M694.6,246 L694.1,256.9"></path>
            <path d="M714.5,246.4 L715,257.3"></path>
            <path d="M730.9,246.9 L732.3,258.2"></path>
            <path d="M749.9,244.6 C749.9,246.4 750.8,259.1 750.8,259.1"></path>
            <path d="M770.3,245 C770.8,246.4 770.8,257.7 770.8,257.7"></path>
            <path d="M789.4,245.4 L789,256.7"></path>
            <path d="M806.2,245.8 C807.1,247.2 807.1,257.6 807.1,257.6"></path>
            <path d="M825.2,245.3 C826.1,248 826.1,257.5 826.1,257.5"></path>
            <polyline points="846.1 245.8 846.1 245.8 846.1 258.5"></polyline>
            <path d="M863.8,246.2 C863.3,247.6 863.8,258.9 863.8,258.9"></path>
            <path d="M881.5,246.1 C881.5,247.9 881.5,259.3 881.5,259.3"></path>
            <path d="M900.5,247.5 L901.9,257.4"></path>
            <path d="M919.6,246.5 L920,257.9"></path>
            <path d="M939.1,245.6 C939.1,247 939.6,257.8 939.6,257.8"></path>
            <path d="M956.3,247.4 L957.2,259.6"></path>
            <path d="M975.8,246.9 L975.8,258.2"></path>
            <path d="M994.9,246.4 C994.9,248.7 995.4,258.2 995.4,258.2"></path>
            <path d="M1014.4,247.3 C1014,250.5 1014.4,258.2 1014.4,258.2"></path>
            <path d="M1032.5,247.7 C1032.5,249.1 1032.5,258.1 1032.5,258.1"></path>
            <path d="M1052,248.1 L1053,259.4"></path>
            <path d="M1069.7,247.6 C1068.8,249 1069.3,259.8 1069.3,259.8"></path>
            <path d="M1087,247.1 C1087.5,248.5 1087.4,257.7 1087.4,257.7"></path>
            <path d="M1060.6,209.1 L1060.6,219"></path>
            <path d="M1012,210.1 L1012.1,220"></path>
            <path d="M964.9,210.2 L965.3,219.2"></path>
            <path d="M915.4,210.2 L915.9,219.3"></path>
            <path d="M868.2,209 L868.3,217.6"></path>
            <path d="M822,210 L822.4,218.1"></path>
            <path d="M771.6,209.6 L771.2,220"></path>
            <path d="M723.1,209.2 L723.1,218.3"></path>
            <path d="M675,209.8 L675,218.4"></path>
            <path d="M625.6,208.5 L626,218.5"></path>
            <path d="M577.5,209.5 L577.5,216.3"></path>
            <path d="M530.3,209.1 L529.9,216.9"></path>
            <path d="M483.6,208.8 L483.6,217.4"></path>
            <path d="M435,208.9 L434.1,217.5"></path>
            <path d="M1089.4,208.4 C1089.4,208.4 1089.7,222.3 1089.7,224.2"></path>
            <path d="M1152.2,209 C1152.2,209 1152.4,222.9 1152.4,224.8"></path>
            <path d="M1104.9,246.2 C1104.9,247.6 1104.9,256.6 1104.9,256.6"></path>
            <path d="M1124.4,246.6 L1125.3,258"></path>
            <path d="M1142.1,246.1 C1141.2,247.5 1141.7,258.3 1141.7,258.3"></path>
            <path d="M1159.3,245.7 C1159.8,247.1 1159.7,256.3 1159.7,256.3"></path>
            <path d="M1179.3,246.6 C1179.8,248 1179.7,257.2 1179.7,257.2"></path>
            <path d="M1.9,209.6 C7.8,210 82.1,209.6 86.6,209.6 C91.1,209.6 118.8,209.5 121.1,209.5 C123.4,209.5 145.6,207.6 147.9,208.5 C150.2,209.4 179.7,208.9 183.3,209.3 C186.9,209.7 230,208.8 234.1,209.2 C238.2,209.6 279.5,210 282.6,210 C285.8,210 345.6,208.1 351.1,208.5 C356.5,208.9 425.5,209.1 425.5,209.1"></path>
            <path d="M0.5,260.6 C4.6,260.1 234.1,259.2 237.7,259.2 C241.3,259.2 297.1,260.5 300.8,260.9 C304.5,261.3 417.3,257.7 420.5,258.6"></path>
            <path d="M17.9,209.7 C17.9,209.7 17,223.3 17,225.6"></path>
            <path d="M65.6,209.2 C65.6,209.2 64.7,224.2 64.7,226"></path>
            <path d="M112.8,210 C112.8,210 112.4,224.1 112.4,225.4"></path>
            <path d="M163.1,209 C163.1,213.1 163.1,225.8 163.1,225.8"></path>
            <path d="M210.7,210.3 C210.7,210.3 210.3,223 210.3,225.7"></path>
            <path d="M258.8,210.2 C258.8,210.2 259.7,223.4 259.3,224.7"></path>
            <path d="M307.4,211 C307.4,211 306.5,223.7 306.5,225.5"></path>
            <path d="M355.9,210 C355.9,210 355.5,223.2 355.5,225"></path>
            <path d="M13,246 L12.6,256.9"></path>
            <path d="M49.3,246.9 L50.7,258.2"></path>
            <path d="M68.4,244.6 C68.4,246.4 69.3,259.1 69.3,259.1"></path>
            <path d="M88.8,245 C89.3,246.4 89.3,257.7 89.3,257.7"></path>
            <path d="M107.8,245.4 L107.4,256.7"></path>
            <path d="M124.6,245.8 C125.5,247.2 125.5,257.6 125.5,257.6"></path>
            <path d="M143.7,245.3 C144.6,248 144.6,257.5 144.6,257.5"></path>
            <polyline points="164.5 245.7 164.5 245.7 164.6 258.4"></polyline>
            <path d="M182.2,246.2 C181.7,247.6 182.2,258.9 182.2,258.9"></path>
            <path d="M199.9,246.1 C199.9,247.9 199.9,259.3 199.9,259.3"></path>
            <path d="M219,247.4 L220.3,257.4"></path>
            <path d="M238,246.5 L238.5,257.8"></path>
            <path d="M257.5,245.6 C257.5,247 258,257.8 258,257.8"></path>
            <path d="M274.8,247.3 L275.7,259.6"></path>
            <path d="M294.3,246.9 L294.3,258.2"></path>
            <path d="M313.3,246.4 C313.3,248.7 313.8,258.2 313.8,258.2"></path>
            <path d="M332.8,247.2 C332.4,250.4 332.8,258.1 332.8,258.1"></path>
            <path d="M351,247.7 C351,249.1 351,258.1 351,258.1"></path>
            <path d="M370.5,248.1 L371.4,259.4"></path>
            <path d="M388.2,247.6 C387.3,249 387.8,259.8 387.8,259.8"></path>
            <path d="M405.4,247.1 C405.9,248.5 405.8,257.7 405.8,257.7"></path>
            <path d="M379,209.1 L379,219"></path>
            <path d="M330.5,210 L330.5,220"></path>
            <path d="M283.3,210.1 L283.8,219.2"></path>
            <path d="M233.9,210.2 L234.3,219.3"></path>
            <path d="M186.7,209 L186.7,217.6"></path>
            <path d="M140.4,209.9 L140.9,218.1"></path>
            <path d="M90.1,209.6 L89.6,220"></path>
            <path d="M41.5,209.2 L41.5,218.3"></path>
            <path d="M407.9,208.4 C407.9,208.4 408.2,222.3 408.2,224.2"></path>
            <path d="M428.1,244.8 L428.6,258.4"></path>
            <path d="M31.5,247.5 L31.1,258.4"></path>
            <path d="M1209.2,209.7 L1209.2,226.1"></path>
            <path d="M1255.9,209.6 L1255.9,225.5"></path>
            <path d="M1303.1,208.6 L1303.6,225"></path>
            <path d="M1351.2,208.6 L1352.6,224.4"></path>
            <path d="M1400.2,208.9 L1399.7,224.3"></path>
            <path d="M1448.7,209.7 C1448.7,209.7 1447.8,223.3 1447.8,225.6"></path>
            <path d="M1496.3,209.2 C1496.3,209.2 1495.4,224.2 1495.4,226"></path>
            <path d="M1543.5,210 C1543.5,210 1543.1,224.1 1543.1,225.4"></path>
            <path d="M1593.9,209 C1593.9,213.1 1593.9,225.8 1593.9,225.8"></path>
            <path d="M1641.5,210.3 C1641.5,210.3 1641.1,223 1641.1,225.7"></path>
            <path d="M1689.6,210.2 C1689.6,210.2 1690.5,223.4 1690.1,224.7"></path>
            <path d="M1738.1,211 C1738.1,211 1737.2,223.7 1737.2,225.5"></path>
            <path d="M1786.7,210 C1786.7,210 1786.3,223.2 1786.3,225"></path>
            <path d="M1882.4,209.4 C1882.9,211.7 1882.9,227.5 1882.9,227.5"></path>
            <path d="M1198.8,244.2 L1199.3,257.8"></path>
            <path d="M1217.4,245.1 C1217.9,246.5 1217.9,256 1217.9,256"></path>
            <path d="M1235.6,245.5 L1237,256.4"></path>
            <path d="M1256,245.5 L1256,257.7"></path>
            <path d="M1274.1,245.9 L1275.1,256.8"></path>
            <path d="M1292.3,246.3 L1291.8,256.3"></path>
            <path d="M1312.7,245.8 L1313.2,256.7"></path>
            <path d="M1329.9,245.3 L1330.4,258"></path>
            <path d="M1349.9,244.8 L1349.5,256.2"></path>
            <path d="M1368.9,244.4 L1369.4,257.1"></path>
            <path d="M1385.7,245.2 L1386.6,256.6"></path>
            <path d="M1406.1,247 C1406.1,248.4 1407,257.4 1407,257.4"></path>
            <path d="M1425.6,245.6 C1425.2,249.2 1425.6,256.9 1425.6,256.9"></path>
            <path d="M1443.8,246 L1443.4,256.9"></path>
            <path d="M1463.7,246.5 L1464.2,257.3"></path>
            <path d="M1480.1,246.9 L1481.5,258.2"></path>
            <path d="M1499.1,244.6 C1499.1,246.4 1500,259.1 1500,259.1"></path>
            <path d="M1519.5,245 C1520,246.4 1520,257.7 1520,257.7"></path>
            <path d="M1538.6,245.4 L1538.2,256.8"></path>
            <path d="M1555.4,245.8 C1556.3,247.2 1556.3,257.6 1556.3,257.6"></path>
            <path d="M1574.4,245.3 C1575.3,248 1575.3,257.5 1575.3,257.5"></path>
            <polyline points="1595.3 245.8 1595.3 245.8 1595.3 258.5"></polyline>
            <path d="M1613,246.2 C1612.5,247.6 1613,258.9 1613,258.9"></path>
            <path d="M1630.7,246.1 C1630.7,247.9 1630.7,259.3 1630.7,259.3"></path>
            <path d="M1649.7,247.5 L1651.1,257.4"></path>
            <path d="M1668.8,246.5 L1669.3,257.9"></path>
            <path d="M1688.3,245.6 C1688.3,247 1688.8,257.8 1688.8,257.8"></path>
            <path d="M1705.5,247.4 L1706.5,259.6"></path>
            <path d="M1725,246.9 L1725.1,258.2"></path>
            <path d="M1744.1,246.4 C1744.1,248.7 1744.6,258.2 1744.6,258.2"></path>
            <path d="M1763.6,247.3 C1763.2,250.5 1763.6,258.2 1763.6,258.2"></path>
            <path d="M1781.7,247.7 C1781.7,249.1 1781.7,258.1 1781.7,258.1"></path>
            <path d="M1801.2,248.1 L1802.2,259.4"></path>
            <path d="M1818.9,247.6 C1818,249 1818.5,259.8 1818.5,259.8"></path>
            <path d="M1836.2,247.1 C1836.7,248.5 1836.6,257.7 1836.6,257.7"></path>
            <path d="M1857,246.6 C1856.5,248.4 1856.6,258.4 1856.6,258.4"></path>
            <path d="M1876.5,246.1 C1876.5,249.3 1876.5,257.4 1876.5,257.4"></path>
            <path d="M1857.4,209.4 L1857.4,219"></path>
            <path d="M1809.8,209.1 L1809.8,219.1"></path>
            <path d="M1761.3,210.1 L1761.3,220.1"></path>
            <path d="M1714.1,210.2 L1714.5,219.2"></path>
            <path d="M1664.6,210.2 L1665.1,219.3"></path>
            <path d="M1617.5,209 L1617.5,217.6"></path>
            <path d="M1571.2,210 L1571.7,218.1"></path>
            <path d="M1520.8,209.6 L1520.4,220"></path>
            <path d="M1472.3,209.2 L1472.3,218.3"></path>
            <path d="M1424.2,209.8 L1424.2,218.4"></path>
            <path d="M1374.8,208.5 L1375.2,218.5"></path>
            <path d="M1326.7,209.5 L1326.7,216.3"></path>
            <path d="M1279.5,209.1 L1279.1,216.9"></path>
            <path d="M1232.8,208.8 L1232.8,217.4"></path>
            <path d="M1184.2,208.9 L1184,220.4"></path>
            <path d="M1882.6,208.7 L1925.5,208.8 C1925.5,208.8 1972.2,208.7 1973.6,208.3 C1975,207.8 2023,209.1 2023,209.1 C2023,209.1 2065.2,208.1 2068.8,208.1 C2072.4,208.1 2113.3,208.5 2116,208.9 C2118.7,209.3 2196.3,208.3 2202.2,208.7 C2208.1,209.1 2277.5,209.5 2282,209.5 C2286.5,209.5 2314.2,209.4 2316.5,209.4 C2318.8,209.4 2341,207.5 2343.3,208.4 C2345.6,209.3 2375.1,208.8 2378.7,209.2 C2382.3,209.6 2425.4,208.7 2429.5,209.1 C2433.6,209.5 2474.9,209.9 2478,209.9 C2481.1,209.9 2541,208 2546.5,208.4 C2551.9,208.8 2600,208.8 2600,208.8"></path>
            <path d="M1884,259.1 C1885.4,258.6 1952.7,258.3 1952.7,258.3 C1952.7,258.3 2000.8,257.3 2004.9,257.8 C2009,258.2 2070.7,257.2 2074.3,258.1 C2077.9,259 2101.5,255.8 2103.3,256.7 C2105.1,257.6 2224.9,260.1 2229,259.6 C2233.1,259.1 2429.5,259.2 2433.1,259.2 C2436.7,259.2 2492.5,260.5 2496.2,260.9 C2499.8,261.3 2598.7,258.4 2601.9,259.3"></path>
            <path d="M1925.5,209.8 L1925.5,226.1"></path>
            <path d="M1972.2,209.7 L1972.2,225.6"></path>
            <path d="M2019.4,208.7 L2019.8,225"></path>
            <path d="M2067.4,208.6 L2068.8,224.5"></path>
            <path d="M2116.4,209 L2116,224.4"></path>
            <path d="M2165,209.8 C2165,209.8 2164.1,223.4 2164.1,225.7"></path>
            <path d="M2212.6,209.2 C2212.6,209.2 2211.7,224.2 2211.7,226"></path>
            <path d="M2259.8,210.1 C2259.8,210.1 2259.4,224.2 2259.4,225.5"></path>
            <path d="M2310.1,209.1 C2310.1,213.2 2310.1,225.9 2310.1,225.9"></path>
            <path d="M2357.8,210.3 C2357.8,210.3 2357.4,223 2357.4,225.7"></path>
            <path d="M2405.8,210.2 C2405.8,210.2 2406.7,223.4 2406.3,224.7"></path>
            <path d="M2454.4,211.1 C2454.4,211.1 2453.5,223.8 2453.5,225.6"></path>
            <path d="M2502.9,210.1 C2502.9,210.1 2502.5,223.3 2502.5,225.1"></path>
            <path d="M2550.1,209.1 L2549.2,227.2"></path>
            <path d="M2598.6,209.4 C2599.1,211.7 2599.1,227.5 2599.1,227.5"></path>
            <path d="M1915.1,244.3 L1915.6,257.9"></path>
            <path d="M1933.7,245.1 C1934.2,246.5 1934.2,256 1934.2,256"></path>
            <path d="M1951.8,245.6 L1953.2,256.4"></path>
            <path d="M1972.2,245.5 L1972.3,257.8"></path>
            <path d="M1990.4,245.9 L1991.3,256.8"></path>
            <path d="M2008.5,246.4 L2008.1,256.3"></path>
            <path d="M2029,245.9 L2029.4,256.8"></path>
            <path d="M2046.2,245.4 L2046.7,258.1"></path>
            <path d="M2066.1,244.9 L2065.7,256.2"></path>
            <path d="M2085.2,244.4 L2085.7,257.1"></path>
            <path d="M2102,245.3 L2102.9,256.6"></path>
            <path d="M2122.4,247.1 C2122.4,248.5 2123.3,257.5 2123.3,257.5"></path>
            <path d="M2141.9,245.7 C2141.5,249.3 2141.9,257 2141.9,257"></path>
            <path d="M2160,246.1 L2159.6,257"></path>
            <path d="M2180,246.5 L2180.5,257.4"></path>
            <path d="M2196.3,246.9 L2197.7,258.3"></path>
            <path d="M2215.4,244.6 C2215.4,246.4 2216.3,259.1 2216.3,259.1"></path>
            <path d="M2235.8,245 C2236.3,246.4 2236.3,257.7 2236.3,257.7"></path>
            <path d="M2254.9,245.4 L2254.4,256.8"></path>
            <path d="M2271.6,245.9 C2272.5,247.3 2272.5,257.7 2272.5,257.7"></path>
            <path d="M2290.7,245.4 C2291.6,248.1 2291.6,257.6 2291.6,257.6"></path>
            <polyline points="2311.6 245.8 2311.6 245.8 2311.6 258.5"></polyline>
            <path d="M2329.2,246.2 C2328.7,247.6 2329.2,258.9 2329.2,258.9"></path>
            <path d="M2346.9,246.2 C2346.9,248 2346.9,259.4 2346.9,259.4"></path>
            <path d="M2366,247.5 L2367.4,257.5"></path>
            <path d="M2385,246.6 L2385.5,257.9"></path>
            <path d="M2404.5,245.6 C2404.5,247 2405,257.8 2405,257.8"></path>
            <path d="M2421.8,247.4 L2422.7,259.7"></path>
            <path d="M2441.3,246.9 L2441.3,258.3"></path>
            <path d="M2460.3,246.4 C2460.3,248.7 2460.8,258.2 2460.8,258.2"></path>
            <path d="M2479.9,247.3 C2479.5,250.5 2479.9,258.2 2479.9,258.2"></path>
            <path d="M2498,247.7 C2498,249.1 2498,258.1 2498,258.1"></path>
            <path d="M2517.5,248.1 L2518.4,259.5"></path>
            <path d="M2535.2,247.7 C2534.3,249.1 2534.8,259.9 2534.8,259.9"></path>
            <path d="M2552.4,247.2 C2552.9,248.6 2552.9,259.9 2552.9,259.9"></path>
            <path d="M2573.3,246.7 C2572.8,248.5 2572.9,258.5 2572.9,258.5"></path>
            <path d="M2592.8,246.2 C2592.8,249.4 2592.8,257.5 2592.8,257.5"></path>
            <path d="M2573.7,209.5 L2573.7,219"></path>
            <path d="M2526,209.1 L2526.1,219.1"></path>
            <path d="M2477.5,210.1 L2477.5,220.1"></path>
            <path d="M2430.3,210.2 L2430.8,219.3"></path>
            <path d="M2380.9,210.3 L2381.4,219.4"></path>
            <path d="M2333.7,209 L2333.7,217.6"></path>
            <path d="M2287.4,210 L2287.9,218.2"></path>
            <path d="M2237.1,209.6 L2236.7,220.1"></path>
            <path d="M2188.6,209.3 L2188.6,218.4"></path>
            <path d="M2140.5,209.8 L2140.5,218.4"></path>
            <path d="M2091,208.6 L2091.5,218.5"></path>
            <path d="M2042.9,209.6 L2043,216.4"></path>
            <path d="M1995.8,209.2 L1995.3,216.9"></path>
            <path d="M1949,208.8 L1949.1,217.4"></path>
            <path d="M1903,209.4 C1902.3,212.1 1902.3,218.9 1902.3,218.9"></path>
            <path d="M1894.2,257 L1893.5,244.8"></path>
            <path d="M2598.4,208.8 L2648.5,209.4 C2648.5,209.4 2695.2,209.3 2696.6,208.9 C2698,208.4 2746,209.7 2746,209.7 C2746,209.7 2788.2,208.7 2791.8,208.7 C2795.4,208.7 2836.3,209.1 2839,209.5 C2841.7,209.9 2919.3,208.9 2925.2,209.3 C2931.1,209.7 3000.5,210.1 3005,210.1 C3009.5,210.1 3037.2,210 3039.5,210 C3041.8,210 3062.6,209.2 3066.1,209.6 C3069.3,209.9 3098,209.4 3101.7,209.9 C3105.3,210.3 3148.4,209.4 3152.5,209.8 C3156.6,210.2 3197.9,210.6 3201,210.6 C3204.1,210.6 3264,208.7 3269.5,209.1 C3274.9,209.5 3323,209.5 3323,209.5"></path>
            <path d="M2601.9,259.8 C2603.3,259.3 2675.8,258.8 2675.8,258.8 C2675.8,258.8 2723.9,257.8 2728,258.3 C2732.1,258.7 2793.8,257.7 2797.4,258.6 C2801,259.5 2824.6,256.3 2826.4,257.2 C2828.2,258.1 2948,260.6 2952.1,260.1 C2956.2,259.6 3152.6,259.7 3156.2,259.7 C3159.8,259.7 3215.6,261 3219.3,261.4 C3222.9,261.8 3321.8,258.9 3325,259.8"></path>
            <path d="M2648.5,210.3 L2648.6,226.6"></path>
            <path d="M2695.2,210.2 L2695.3,226"></path>
            <path d="M2742.4,209.2 L2742.9,225.5"></path>
            <path d="M2790.5,209.1 L2791.9,225"></path>
            <path d="M2839.5,209.4 L2839.1,224.9"></path>
            <path d="M2888,210.3 C2888,210.3 2887.1,223.9 2887.1,226.2"></path>
            <path d="M2935.7,209.7 C2935.7,209.7 2934.8,224.7 2934.8,226.5"></path>
            <path d="M2982.8,210.5 C2982.8,210.5 2982.4,224.6 2982.4,225.9"></path>
            <path d="M3033.2,209.5 C3033.2,213.6 3033.2,226.3 3033.2,226.3"></path>
            <path d="M3080.8,210.8 C3080.8,210.8 3080.4,223.5 3080.4,226.2"></path>
            <path d="M3128.9,210.7 C3128.9,210.7 3129.8,223.9 3129.4,225.2"></path>
            <path d="M3177.4,211.5 C3177.4,211.5 3176.5,224.2 3176.5,226"></path>
            <path d="M3226,210.5 C3226,210.5 3225.6,223.7 3225.6,225.5"></path>
            <path d="M3273.2,209.6 L3272.3,227.7"></path>
            <path d="M3321.7,209.9 C3322.2,212.2 3322.2,228 3322.2,228"></path>
            <path d="M2638.2,244.7 L2638.6,258.4"></path>
            <path d="M2656.8,245.6 C2657.3,247 2657.3,256.5 2657.3,256.5"></path>
            <path d="M2674.9,246 L2676.3,256.9"></path>
            <path d="M2695.3,246 L2695.3,258.2"></path>
            <path d="M2713.5,246.4 L2714.4,257.3"></path>
            <path d="M2731.6,246.8 L2731.2,256.8"></path>
            <path d="M2752,246.3 L2752.5,257.2"></path>
            <path d="M2769.3,245.9 L2769.7,258.6"></path>
            <path d="M2789.2,245.4 L2788.8,256.7"></path>
            <path d="M2808.3,244.9 L2808.7,257.6"></path>
            <path d="M2825.1,245.8 L2826,257.1"></path>
            <path d="M2845.5,247.5 C2845.5,248.9 2846.4,257.9 2846.4,257.9"></path>
            <path d="M2865,246.1 C2864.6,249.7 2865,257.4 2865,257.4"></path>
            <path d="M2883.1,246.6 L2882.7,257.4"></path>
            <path d="M2903.1,247 L2903.5,257.9"></path>
            <path d="M2919.4,247.4 L2920.8,258.7"></path>
            <path d="M2938.5,245.1 C2938.5,246.9 2939.4,259.6 2939.4,259.6"></path>
            <path d="M2958.9,245.5 C2959.4,246.9 2959.4,258.2 2959.4,258.2"></path>
            <path d="M2977.9,245.9 L2977.5,257.3"></path>
            <path d="M2994.7,246.4 C2995.6,247.8 2995.6,258.2 2995.6,258.2"></path>
            <path d="M3013.8,245.9 C3014.7,248.6 3014.7,258.1 3014.7,258.1"></path>
            <polyline points="3034.6 246.3 3034.6 246.3 3034.6 259"></polyline>
            <path d="M3052.3,246.7 C3051.8,248.1 3052.3,259.4 3052.3,259.4"></path>
            <path d="M3070,246.7 C3070,248.5 3070,259.9 3070,259.9"></path>
            <path d="M3089.1,248 L3090.4,258"></path>
            <path d="M3108.1,247.1 L3108.6,258.4"></path>
            <path d="M3127.6,246.1 C3127.6,247.5 3128.1,258.3 3128.1,258.3"></path>
            <path d="M3144.9,247.9 L3145.8,260.1"></path>
            <path d="M3164.4,247.4 L3164.4,258.7"></path>
            <path d="M3183.4,246.9 C3183.4,249.2 3183.9,258.7 3183.9,258.7"></path>
            <path d="M3202.9,247.8 C3202.5,251 3202.9,258.7 3202.9,258.7"></path>
            <path d="M3221.1,248.2 C3221.1,249.6 3221.1,258.6 3221.1,258.6"></path>
            <path d="M3240.6,248.6 L3241.5,260"></path>
            <path d="M3258.3,248.1 C3257.4,249.5 3257.9,260.3 3257.9,260.3"></path>
            <path d="M3275.5,247.7 C3276,249.1 3276,260.4 3276,260.4"></path>
            <path d="M3296.4,247.2 C3295.9,249 3296,259 3296,259"></path>
            <path d="M3315.9,247.4 C3315.9,250.6 3315.9,258.7 3315.9,258.7"></path>
            <path d="M3296.7,210 L3296.8,219.5"></path>
            <path d="M3249.1,209.6 L3249.1,219.6"></path>
            <path d="M3200.6,210.6 L3200.6,220.6"></path>
            <path d="M3153.4,210.7 L3153.9,219.8"></path>
            <path d="M3104,210.8 L3104.4,219.8"></path>
            <path d="M3056.8,209.5 L3056.8,218.1"></path>
            <path d="M3010.5,210.5 L3011,218.7"></path>
            <path d="M2960.2,210.1 L2959.7,220.6"></path>
            <path d="M2911.6,209.8 L2911.6,218.8"></path>
            <path d="M2863.5,210.3 L2863.6,218.9"></path>
            <path d="M2814.1,209 L2814.6,219"></path>
            <path d="M2766,210 L2766,216.8"></path>
            <path d="M2718.8,209.7 L2718.4,217.4"></path>
            <path d="M2672.1,209.3 L2672.1,217.9"></path>
            <path d="M2627,210.7 L2626.1,219.4"></path>
            <path d="M2615.9,246.8 C2615.9,250 2615.9,258.1 2615.9,258.1"></path>
            <path d="M3323,209.5 C3325.7,209.9 3410.6,211.4 3416.4,211.8 C3422.3,212.2 3491.7,212.6 3496.2,212.6 C3500.7,212.6 3528.4,212.5 3530.7,212.5 C3533,212.5 3553.2,211.9 3557.5,211.5 C3559.9,211.3 3589.3,211.9 3592.9,212.3 C3596.5,212.7 3639.6,211.8 3643.7,212.2 C3647.8,212.6 3689.1,213 3692.2,213 C3695.4,213 3857.1,211.8 3862.6,212.2"></path>
            <path d="M3324.8,259.8 C3328.4,260.7 3354.7,257.7 3356.5,258.6 C3358.3,259.5 3478.1,262 3482.2,261.5 C3486.3,261 3682.7,261.1 3686.3,261.1 C3689.9,261.1 3873.7,261.5 3877.4,261.9"></path>
            <path d="M3369.6,211 L3369.1,226.4"></path>
            <path d="M3418.1,211.8 C3418.1,211.8 3417.2,225.4 3417.2,227.7"></path>
            <path d="M3465.7,211.9 C3465.7,211.9 3464.8,226.9 3464.8,228.7"></path>
            <path d="M3512.9,212.1 C3512.9,212.1 3512.5,226.2 3512.5,227.5"></path>
            <path d="M3563.2,211.1 C3563.2,215.2 3563.2,227.9 3563.2,227.9"></path>
            <path d="M3610.9,212.3 C3610.9,212.3 3610.5,225 3610.5,227.7"></path>
            <path d="M3659,212.2 C3659,212.2 3659.9,225.4 3659.5,226.7"></path>
            <path d="M3706.6,227.6 C3706.6,225.8 3707.5,213.1 3707.5,213.1"></path>
            <path d="M3756,212.4 C3756,212.4 3755.6,225.6 3755.6,227.4"></path>
            <path d="M3375.5,249.1 C3375.5,250.5 3376.4,259.5 3376.4,259.5"></path>
            <path d="M3395,247.7 C3394.6,251.3 3395,259 3395,259"></path>
            <path d="M3413.2,248.8 L3412.7,259.6"></path>
            <path d="M3433.1,249.2 L3433.6,260.1"></path>
            <path d="M3449.5,248.9 L3450.8,260.3"></path>
            <path d="M3468.5,246.6 C3468.5,248.4 3469.4,261.1 3469.4,261.1"></path>
            <path d="M3488.9,247.7 C3489.4,249.1 3489.4,260.4 3489.4,260.4"></path>
            <path d="M3508,248.8 L3507.5,260.2"></path>
            <path d="M3524.8,248.6 C3525.7,250 3525.7,260.4 3525.7,260.4"></path>
            <path d="M3543.8,248.1 C3544.7,250.8 3544.7,260.3 3544.7,260.3"></path>
            <polyline points="3564.7 247.8 3564.7 247.8 3564.7 260.5"></polyline>
            <path d="M3582.4,248.2 C3581.9,249.6 3582.4,260.9 3582.4,260.9"></path>
            <path d="M3600.1,248.2 C3600.1,250 3600.1,261.4 3600.1,261.4"></path>
            <path d="M3619.1,249.5 L3620.5,259.5"></path>
            <path d="M3638.2,248.6 L3638.6,259.9"></path>
            <path d="M3657.7,247.6 C3657.7,249 3658.2,259.8 3658.2,259.8"></path>
            <path d="M3674.9,249.4 L3675.8,261.7"></path>
            <path d="M3694.4,248.9 L3694.4,260.3"></path>
            <path d="M3713.5,248.4 C3713.5,250.7 3714,260.2 3714,260.2"></path>
            <path d="M3733,251.3 C3732.6,254.5 3733,262.2 3733,262.2"></path>
            <path d="M3751.3,252.2 C3751.3,253.5 3751.1,261 3751.1,261"></path>
            <path d="M3974.2,214.3 L3974.3,221.3"></path>
            <path d="M3730.6,212.1 L3730.7,222.1"></path>
            <path d="M3683.5,212.2 L3683.9,221.3"></path>
            <path d="M3634,212.3 L3634.5,221.4"></path>
            <path d="M3586.8,211.7 L3586.9,220.3"></path>
            <path d="M3540.6,212 L3541,220.2"></path>
            <path d="M3490.2,212.3 L3489.8,222.8"></path>
            <path d="M3441.7,212 L3441.7,221"></path>
            <path d="M3393.6,211.8 L3393.6,220.4"></path>
            <path d="M3952.7,213.3 C3952.7,213.3 3957.1,213.3 3958.9,213.3 C3960.8,213.3 3983,213.9 3983,213.9"></path>
            <path d="M3880.7,213 C3882.6,213 3921.7,214 3921.7,214"></path>
            <path d="M3346.4,210.2 L3346.4,219.7"></path>
            <path d="M3335,248.5 C3335,249.9 3335.9,258.9 3335.9,258.9"></path>
            <path d="M3354.5,247.1 C3354.1,250.7 3354.5,258.4 3354.5,258.4"></path>
            <path d="M1834.7,209.4 C1834.7,209.4 1835,223.3 1835,225.2"></path>
            <path d="M3808.7,227.3 C3808.7,225.5 3808.9,212.3 3808.9,212.3"></path>
            <path d="M3773.3,250.8 C3773.3,252.2 3773.8,263 3773.8,263"></path>
            <path d="M3795.5,250.6 L3796.5,262.9"></path>
            <path d="M3815.1,251.1 L3815.1,262.5"></path>
            <path d="M3834.1,250.7 C3834.1,253 3834.6,262.5 3834.6,262.5"></path>
            <path d="M3853.6,251.6 C3853.1,254.8 3853.6,262.5 3853.6,262.5"></path>
            <path d="M3833,213.4 L3833,223.4"></path>
            <path d="M3782.8,213.4 L3783.3,222.5"></path>
            <path d="M3854,227.7 C3853.7,224.5 3854.3,212.5 3854.2,212.7"></path>
            <path d="M3914,213.7 L3914,223.7"></path>
            <path d="M1120.9,210 L1120.6,221.5"></path>
            <path d="M4000.3,17.7 C3995.8,18.7 3938,59.4 3932.5,61.4 C3927,63.4 3906.2,63.4 3906.2,63.4"></path>
            <path d="M3893.2,62.499979 C3893.2,62.499979 3871,62.4 3855.3,76 C3839.7,89.6 3837.1,93.7 3837.1,93.7 C3837.1,93.7 3849.3,116.8 3853.3,122.4"></path>
            <path d="M3870.8,150 C3874.8,151 3892.1,155.8 3897.2,152.7 C3902.3,149.6 3902.2,148.2 3899.2,145.6 C3896.2,143.1 3885.1,140 3880.5,139 C3876,138 3876,138 3876,138"></path>
            <path d="M3837.1,96.2 C3837.1,96.2 3831,99.2 3832.6,102.8 C3834.2,106.4 3846.2,126 3848.2,127"></path>
            <path d="M3872,86.6 L3865.9,96.7 C3865.9,96.7 3862.9,97.2 3860.3,95.2"></path>
            <path d="M3865.9,96.7 C3865.9,96.7 3868.5,110.3 3869,111.3"></path>
            <path d="M3867.4,103.3 C3867.4,103.3 3875,102.8 3876.5,102.3"></path>
            <path d="M3905.3,86.1 C3903.3,86.6 3887.6,99.2 3887.1,102.8 C3886.6,106.3 3860.4,113.9 3857.3,118.4 C3854.3,122.9 3845.2,129.5 3848.2,134 C3851.2,138.5 3862.3,139 3871.9,135.5 C3881.5,132 3897.6,124.9 3901.7,123.4 C3905.7,121.9 3911.8,118.4 3912.8,115.8"></path>
            <path d="M3899.2,125.5 C3899.2,125.5 3913.3,130 3935.5,117.9"></path>
            <path d="M3888.1,129 C3889.6,129 3899.7,143.1 3931.5,127.5 C3963.3,111.9 3975.4,97.2 3975.4,97.2 L4000.3,90.7"></path>
            <path d="M3915,11.8 C3915,13.3 3872.9,109.8 3872.9,109.8"></path>
            <path d="M3926.4,16 C3925.4,17.5 3890.6,98.2 3890.6,98.2"></path>
            <path d="M3859.3,139.1 L3841.6,184 L3837.6,205.2 C3837.6,205.2 3849.2,194.6 3850.7,191.1 C3852.2,187.6 3878.3,133.7 3878.3,133.7"></path>
            <path d="M3840.1,197 C3840.1,197 3841.8,195.4 3843.7,197.9"></path>
            <path d="M3922.6,11.4 C3923.5,11.5 3928.2,14.4 3926.3,15.6 C3924.3,16.8 3920.9,16.5 3918.3,15.1 C3915.7,13.6 3910.5,10 3922.6,11.4 Z"></path>
            <path d="M3933,275.7 C3931,272.4 3928,270.2 3925.2,270.2 C3888,269.8 3865.4,255.7 3864.6,255.1 C3856,248.2 3862.6,243.9 3864.6,243.1 C3867.3,241.9 3871.6,240.9 3875.7,242.1 C3882.3,244.1 3893.3,245.8 3895.3,247 C3897.3,248.2 3914.6,250.2 3917.5,250.5 C3920.4,250.8 3925.6,251.9 3926.4,251.1 C3927.2,250.3 3922.7,245.9 3920.9,245.3 C3919.2,244.7 3904.8,240.7 3901.6,240.1 C3898.4,239.5 3889.1,235.3 3881.1,232 C3873.2,228.7 3869.1,230.3 3862.1,224.5 C3858,221.1 3859.2,214.8 3862.4,212.7 C3865.6,210.6 3869.3,211 3869.3,211"></path>
            <path d="M3869.1,210.9 C3873.4,211.2 3879,212.8 3881.2,213.5 C3883.6,214.2 3898.2,220.4 3901.4,220.7 C3904.6,221 3918.1,227 3922.1,227.9 C3926.1,228.8 3936.2,232.2 3937.1,230.8 C3938,229.4 3926.7,217.8 3925.3,216.7 C3923.9,215.5 3897.4,197.1 3895.6,193.9 C3893.9,190.7 3888.4,185.5 3890.4,181.2 C3892.4,176.9 3895.9,173.4 3900.8,176.3 C3905.7,179.2 3927.6,192.1 3930.8,195 C3934,197.9 3948.1,209.1 3955,215.5 C3961.9,221.9 3969.1,223.9 3973.2,223.9 C3973.2,223.9 3983,223 3983.6,218.1 C3984.2,213.2 3984.2,204.6 3983,199.4 C3981.8,194.2 3980.4,191.9 3980.4,189.3 C3980.4,186.7 3978.4,173.2 3982.4,168 C3986.4,162.8 3989.9,160.8 3993.9,164.3 C3997.9,167.8 3999.9,179.7 4001,182"></path>
            <path d="M3805.5,207 C3805.5,191.5 3805,0 3805,0 L3865.7,69"></path>
            <path d="M3922.2,131.7 C3924.2,132.2 3981,197 3981,197"></path>
        </g>
    </g>
</svg>