<?xml version="1.0" encoding="UTF-8"?>
<svg width="4000px" height="320px" viewBox="0 0 4000 320" version="1.1" xmlns="http://www.w3.org/2000/svg" xmlns:xlink="http://www.w3.org/1999/xlink">
    <!-- Generator: Sketch 52.3 (67297) - http://www.bohemiancoding.com/sketch -->
    <title>1T matematikk</title>
    <desc>Created with Sketch.</desc>
    <g id="1T-matematikk" stroke="none" stroke-width="1" fill="none" fill-rule="evenodd">
        <g id="1T-matte" transform="translate(-122.000000, 0.000000)" stroke="#FFFFFF">
            <path d="M0,262.5 L4122,261.5" id="Path"></path>
            <path d="M3976.1,2.33058017e-12 L3975,328" id="Path"></path>
            <path d="M4017,261 L4017,275" id="Path"></path>
            <path d="M4088,261 L4088,275" id="Path"></path>
            <path d="M3861,262 L3861,276" id="Path"></path>
            <path d="M3932,262 L3932,275" id="Path"></path>
            <path d="M3962,299 L3974.1,299.1" id="Path"></path>
            <path d="M3964,220 L3976.1,220.1" id="Path"></path>
            <path d="M3964,174 L3976.1,174.1" id="Path"></path>
            <path d="M3964,126 L3976.1,126.1" id="Path"></path>
            <path d="M3964,80 L3976.1,80.1" id="Path"></path>
            <path d="M3963,34 L3975.1,34.1" id="Path"></path>
            <path d="M3716,261 L3716,275" id="Path"></path>
            <path d="M3787,261 L3787,275" id="Path"></path>
            <path d="M3560,261 L3560,275" id="Path"></path>
            <path d="M3632,262 L3632,275" id="Path"></path>
            <path d="M3417,262 L3417,276" id="Path"></path>
            <path d="M3488,262 L3488,276" id="Path"></path>
            <path d="M3261,262 L3261,276" id="Path"></path>
            <path d="M3334,262 L3334,275" id="Path"></path>
            <path d="M3118,262 L3118,276" id="Path"></path>
            <path d="M3189,262 L3189,276" id="Path"></path>
            <path d="M2962,263 L2962,277" id="Path"></path>
            <path d="M3037,263 L3037,276" id="Path"></path>
            <path d="M2819,263 L2819,277" id="Path"></path>
            <path d="M2890,263 L2890,277" id="Path"></path>
            <path d="M2663,262 L2663,276" id="Path"></path>
            <path d="M2738,263 L2738,276" id="Path"></path>
            <path d="M2520,261 L2520,275" id="Path"></path>
            <path d="M2591,261 L2591,275" id="Path"></path>
            <path d="M2364,262 L2364,276" id="Path"></path>
            <path d="M2441,262 L2441,275" id="Path"></path>
            <path d="M2224,262 L2224,276" id="Path"></path>
            <path d="M2295,262 L2295,276" id="Path"></path>
            <path d="M2068,263 L2068,277" id="Path"></path>
            <path d="M2145,263 L2145,276" id="Path"></path>
            <path d="M1932,263 L1932,277" id="Path"></path>
            <path d="M2003,263 L2003,277" id="Path"></path>
            <path d="M1776,264 L1776,278" id="Path"></path>
            <path d="M1853,264 L1853,277" id="Path"></path>
            <path d="M1633,264 L1633,278" id="Path"></path>
            <path d="M1708,264 L1708,277" id="Path"></path>
            <path d="M1490,264 L1490,278" id="Path"></path>
            <path d="M1561,264 L1561,278" id="Path"></path>
            <path d="M1334,263 L1334,277" id="Path"></path>
            <path d="M1409,264 L1409,277" id="Path"></path>
            <path d="M1191,263 L1191,277" id="Path"></path>
            <path d="M1262,265 L1262,279" id="Path"></path>
            <path d="M1035,264 L1035,278" id="Path"></path>
            <path d="M1112,264 L1112,277" id="Path"></path>
            <path d="M895,264 L895,278" id="Path"></path>
            <path d="M966,264 L966,278" id="Path"></path>
            <path d="M744,264 L744,278" id="Path"></path>
            <path d="M816,265 L816,278" id="Path"></path>
            <path d="M603,264 L603,278" id="Path"></path>
            <path d="M674,264 L674,278" id="Path"></path>
            <path d="M447,264 L447,278" id="Path"></path>
            <path d="M524,264 L524,277" id="Path"></path>
            <path d="M297,263 L297,277" id="Path"></path>
            <path d="M369,263 L369,276" id="Path"></path>
            <path d="M156,263 L156,277" id="Path"></path>
            <path d="M227,263 L227,277" id="Path"></path>
            <path d="M3840.5,327.5 C3842.5,323.5 3850.5,181.5 3920.5,214.5 C3957.5,238.5 3982,308.5 4015.5,308.5 C4051.5,308.5 4094.24009,224.925781 4108.00953,1.8189894e-12" id="Path"></path>
        </g>
    </g>
</svg>