<?xml version="1.0" encoding="UTF-8"?>
<svg width="4000px" height="320px" viewBox="0 0 4000 320" version="1.1" xmlns="http://www.w3.org/2000/svg" xmlns:xlink="http://www.w3.org/1999/xlink">
    <!-- Generator: Sketch 54.1 (76490) - https://sketchapp.com -->
    <title>Biologi 1</title>
    <desc>Created with Sketch.</desc>
    <g id="Biologi-1" stroke="none" stroke-width="1" fill="none" fill-rule="evenodd">
        <g id="Group" transform="translate(-8.000000, 26.933338)" stroke="#FFFFFF">
            <path d="M3912.6,105.166662 C3913.4,105.966662 3914,115.766662 3916.5,115.466662 C3919,115.166662 3926.3,110.966662 3926.3,110.966662 C3926.3,110.966662 3942.2,122.666662 3953.1,119.666662 C3964,116.566662 3984.8,100.966662 3985.5,87.5666617 C3989.1,20.0666617 3957.6,4.66666173 3957.6,4.66666173 C3955.9,3.56666173 3904.9,-13.7333383 3885.6,26.1666617 C3868.9,60.6666617 3899,86.9666617 3899,86.9666617" id="Path"></path>
            <path d="M3982.3,53.1666617 C3982.3,51.7666617 3975.3,33.0666617 3971.4,37.8666617 C3967.5,42.6666617 3970,52.9666617 3963.9,50.9666617 C3957.8,48.9666617 3945.8,14.9666617 3961.7,6.56666173" id="Path"></path>
            <path d="M3959.7,49.2666617 L3903.3,87.2666617 C3903.3,87.2666617 3893.5,82.7666617 3891.9,88.6666617 C3890.2,94.5666617 3915.7,112.066662 3914.5,101.766662 C3913.4,91.9666617 3903.9,86.4666617 3902.8,86.9666617" id="Path"></path>
            <path d="M3985.1,57.6666617 C3985.1,57.6666617 3993.2,62.6666617 3994.9,62.3666617" id="Path"></path>
            <path d="M3980.9,98.9666617 C3982,98.6666617 3994.3,106.466662 3995.4,110.666662" id="Path"></path>
            <path d="M3891.5,115.066662 C3891.5,115.066662 3890.3,114.966662 3888.6,114.866662 C3883.5,114.566662 3873.4,114.066662 3873.1,114.466662 L3874.8,132.366662" id="Path"></path>
            <path d="M3888.7,132.166662 L3888.6,114.866662" id="Path"></path>
            <polyline id="Path" points="3897.7 132.966662 3869.8 133.666662 3870.1 195.466662"></polyline>
            <path d="M3893.8,134.266662 L3894.7,151.766662" id="Path"></path>
            <path d="M3894.5,173.666662 L3895.4,195.066662" id="Path"></path>
            <path d="M3899,153.766662 C3898.4,152.866662 3888.4,151.566662 3887.7,161.166662 C3887,170.866662 3898.1,179.066662 3902.6,170.866662 C3907.1,162.666662 3902.2,154.266662 3895.2,156.366662" id="Path"></path>
            <path d="M3896.6,159.566662 C3896.6,159.566662 3890.5,166.466662 3895.1,166.266662 C3899.7,166.066662 3902,160.066662 3896.6,159.566662 Z" id="Path"></path>
            <path d="M3865.3,194.866662 C3865.3,194.866662 3867.7,195.066662 3872.6,195.166662 C3878.1,195.366662 3886.7,195.566662 3898.4,195.566662" id="Path"></path>
            <path d="M3876.5,196.966662 C3876.5,196.966662 3876.3,203.466662 3877.2,204.066662 C3878.1,204.666662 3885.2,205.166662 3885.9,204.466662 C3886.6,203.766662 3888.5,196.866662 3888.5,196.866662" id="Path"></path>
            <path d="M3860.7,225.566662 C3860.7,225.566662 3906.1,225.966662 3906.7,226.466662 C3907.3,226.966662 3908.4,229.466662 3900.7,229.266662 C3893.1,229.066662 3892.7,232.966662 3893.4,233.766662 C3894.1,234.466662 3899.4,234.666662 3899,235.966662 C3898.6,237.266662 3868.7,237.066662 3868.7,237.066662 C3868.7,237.066662 3870.9,231.866662 3872.2,231.266662 C3873.5,230.666662 3859,230.166662 3859,230.166662 L3860.1,224.166662" id="Path"></path>
            <path d="M3856.6,256.066662 C3856.6,256.066662 3910.7,256.666662 3916.9,255.466662 C3923,254.366662 3954.5,255.066662 3954.5,255.066662 C3954.5,255.066662 3954.1,265.266662 3952.6,265.866662 C3951.1,266.466662 3870.2,265.166662 3867.4,265.266662 C3864.6,265.466662 3855.9,267.866662 3855.3,265.666662 C3854.7,263.566662 3856.6,256.066662 3856.6,256.066662 Z" id="Path"></path>
            <path d="M3892.7,238.066662 C3892.7,238.666662 3892,255.766662 3892,255.766662" id="Path"></path>
            <path d="M3894.7,151.766662 C3923.2,146.166662 3991.8,196.466662 3893.6,254.466662" id="Path"></path>
            <path d="M3870.7,237.866662 L3870.5,255.166662" id="Path"></path>
            <path d="M4004.6,262.166662 L3953.8,261.666662" id="Path"></path>
            <path d="M3850.3,262.166662 C3850.3,262.166662 3569.8,264.466662 3541.4,264.466662 C3521.2,264.466662 3275.2,260.566662 3236.7,262.266662 C3198.2,263.966662 2496.6,265.566662 2478.2,263.966662 C2459.8,262.366662 1406.6,263.966662 1384.8,265.666662 C1363,267.266662 0,255.466662 0,255.466662" id="Path"></path>
        </g>
    </g>
</svg>