<?xml version="1.0" encoding="UTF-8"?>
<svg width="4000px" height="320px" viewBox="0 0 4000 320" version="1.1" xmlns="http://www.w3.org/2000/svg" xmlns:xlink="http://www.w3.org/1999/xlink">
    <!-- Generator: Sketch 51.2 (57519) - http://www.bohemiancoding.com/sketch -->
    <title>Bronnfag</title>
    <desc>Created with Sketch.</desc>
    <defs></defs>
    <g id="Bronnfag" stroke="none" stroke-width="1" fill="none" fill-rule="evenodd">
        <g id="Group" transform="translate(-77.000000, 173.000000)" stroke="#FFFFFF">
            <path d="M2336.5,94.5 C2338.5,99 2350.2,104 2360.5,94.5 C2368.8,100.1 2370.6,103.7 2387.5,94.5 C2396.5,102.5 2401.7,101.9 2414.5,94.5 C2420.5,102.5 2432.5,102.3 2442.5,94.5 C2446.5,100.5 2458,103.7 2468.5,94.5 C2472.5,98.5 2477.3,104.6 2495.5,94.5 C2499.5,98.5 2508.5,103.5 2520.5,94.5 C2525.5,98.5 2534.8,103.7 2548.5,94.5 C2551.5,99.5 2564.9,102.3 2574.5,94.5 C2579.5,99.5 2584.1,103.7 2601.1,94.8 C2606.5,99.5 2614.8,101.1 2628.5,94.7 C2630.5,97.5 2640.4,103.8 2652.7,94.6 C2656.5,98.5 2667.3,103.7 2680.5,94.5 C2683.4,97.5 2692.9,106.4 2707.5,94.5 C2716.7,99.5 2724.9,101.4 2734.5,94.5 C2736.5,97.5 2747.8,105.5 2760.5,94.5 C2762.5,99.5 2776.9,102.8 2785.5,94.5 C2788.8,99.5 2803.9,104.6 2813.5,94.5 C2818,100.6 2831.2,101.4 2838.5,94.5 C2842.3,99.7 2860.5,100.5 2864.3,94.6 C2867.5,97.5 2878.5,104.6 2891.7,94.9 C2897.5,99.4 2910.9,100.3 2918.2,94.8 C2923.5,98.5 2933.3,101.6 2944.7,95.1 C2949.5,101.4 2968.5,100.5 2972.1,95 C2973.5,97.4 2985.4,105.4 2999.5,94.4 C3003.5,98.4 3015.5,101.8 3025.5,94.4 C3031.9,99 3042.9,100.8 3052.5,94.4 C3059,101.1 3069.8,101.7 3078.5,94.4 C3083.4,99.2 3093.5,103.7 3106.5,94.4 C3110.5,99.4 3124.3,101.7 3132.5,94.4 C3135.5,98.4 3146.5,107.4 3158.6,95.1 C3163.5,101.4 3179.6,100.5 3186,95 C3188.5,97.4 3201.6,103.2 3210.7,94.9 C3219.4,98.1 3227.7,102.7 3239.6,94.4 C3242.8,96.2 3251,104.5 3265.6,94.4 C3270.6,101 3281.1,101.9 3290.7,95 C3293.6,97.4 3309.9,104.5 3317.6,95.4 C3319.9,100.4 3333,102.7 3343.3,95.3 C3349.6,98.4 3362.5,103 3371.6,94.3 C3377.8,100.4 3388.2,101.6 3396.3,94.7 C3400.6,98.5 3413.5,102.7 3422.6,94.5 C3430.8,98.6 3437.4,104.6 3450.6,94.5 C3454.6,98.5 3465.1,102.3 3475.6,94.5 C3482.9,98.6 3495.4,101.8 3503.6,94.5 C3508.6,98.5 3517.8,101.1 3528.3,94.6 C3535.6,99.5 3548.3,100.9 3555.6,94.5 C3560,99.4 3574.3,101.4 3581.6,94.5 C3586.6,100.5 3604.9,101.4 3612.6,94.5 C3616.6,99.5 3632.6,102.5 3637.6,94.5 C3640.6,102.5 3657.6,100 3662.6,94.5 C3665.6,99.5 3682.2,101.4 3688.6,94.5 C3694.6,98.5 3709.8,100.9 3716.6,94.5 C3722.9,101.2 3735.5,102.3 3744.6,94.5 C3749.4,101.7 3759.3,102.5 3770.6,94.5 C3778.6,99.5 3791.7,100.9 3797.6,94.5 C3803.1,99.5 3815.8,101.8 3822.6,94.5 C3827.6,101.5 3844.6,98.8 3849.6,94.2 C3853.6,98.5 3868.8,102.3 3875.6,94.5 C3880.6,99.5 3898.1,101 3903.6,95.5 C3905.6,97.5 3916.6,105.5 3930.6,94.5 C3937.5,100.4 3951.5,98.3 3955.6,95.5 C3959.6,99.5 3970.9,101.5 3979.6,95.5 C3985.6,99.6 4001.4,103.3 4009.6,95.5 C4014.7,102.3 4034.7,100.6 4036.6,95.5 C4040.7,99.6 4048.1,103.3 4063.6,95.5 C4069,100 4069,100 4077,100" id="Shape"></path>
            <path d="M478.5,95 C478.5,95 481.7,103.2 502.3,94.9 C508.6,99.5 512.7,103.7 529.6,94.5 C539.2,99.5 543.5,102.1 556.3,94.7 C563.6,99.2 573.6,102.3 583.6,94.5 C588.6,98.1 599.1,103.7 609.6,94.5 C614.6,99.5 623.6,103.5 638.1,94.4 C640.6,97.5 651.6,102.5 662.3,94.8 C665.6,97.6 676,103.8 689.6,94.6 C693.6,99.6 707,102.4 716.6,94.6 C722.6,98.6 728.5,101.5 743.6,94.6 C747.6,98.6 755.9,101.1 769.6,94.6 C773.6,98.6 782.3,103.8 794.6,94.6 C797.4,97.5 808.4,103.8 821.6,94.6 C826.6,97.6 833.6,106.6 848.6,94.6 C856.6,101.6 867,102.2 876.6,95.3 C879.6,98.6 889.9,105.6 902.6,94.6 C906.1,97.9 919,102.9 927.6,94.6 C931.6,101.6 945,104.7 954.6,94.6 C960.6,101.6 973.5,102.2 980.8,95.4 C983.6,99.6 1001.6,101.6 1006.6,94.6 C1010.6,98.6 1020.4,104.3 1033.6,94.6 C1040.6,102.6 1054.3,100.1 1061.6,94.6 C1066.6,99.6 1075.2,101 1086.6,94.6 C1091.6,101.6 1110,100.1 1113.6,94.6 C1116.6,97.6 1127,105.7 1141.2,94.7 C1146.6,98.6 1157.2,102.4 1167.2,95.1 C1173.6,100.7 1183.8,102.4 1195.1,95 C1201.6,99.7 1212,102.2 1220.7,94.9 C1225.6,100.7 1239.6,100.7 1248.6,94.7 C1253.6,98.7 1266.4,102 1274.6,94.7 C1279.6,98.7 1291.1,103 1301.6,94.7 C1304.6,99.7 1320.2,101.2 1326.6,95.7 C1329.6,99.7 1343.5,103 1352.6,94.7 C1359.6,99.7 1370.1,103 1382,94.7 C1385.2,96.5 1392,104.8 1406.6,94.7 C1410.6,99.3 1423,101.6 1432.6,94.7 C1435.6,98.7 1452.9,104 1460.6,94.9 C1464.6,99.7 1478,101.6 1486.6,94.7 C1490.6,98.7 1503.5,103.4 1512.6,94.7 C1517.6,99.8 1531,101.4 1538.3,95.9 C1541.6,99.7 1555.7,103.6 1564.8,95.3 C1573,99.4 1579.4,104.8 1592.6,94.7 C1596.1,101.1 1607.3,102.5 1617.8,94.7 C1623.6,101.7 1636.4,102.1 1644.6,94.7 C1650,101.8 1659,103.8 1670.6,94.7 C1677.6,102.7 1690.9,101.2 1698.2,94.8 C1703.6,102.7 1717.3,101.6 1724.6,94.7 C1731.6,100.7 1744.9,101.6 1752.6,94.7 C1758.3,101.8 1774.6,99.7 1777.6,94.7 C1781.6,101.7 1800.1,99.9 1805.1,94.4 C1809.6,101.7 1825.2,101.6 1831.6,94.7 C1836.6,101.7 1849.8,101.1 1856.6,94.7 C1863.6,101.7 1876.5,102.5 1885.6,94.7 C1893.7,100.5 1902.5,100.7 1911.6,94.7 C1919,101.6 1933.7,101.1 1939.6,94.7 C1944.6,102.7 1958.2,102.4 1965.1,95.1 C1969.6,103.7 1985.6,101.7 1990.6,95.7 C1993.6,101 2010.8,102.5 2017.6,94.7 C2022.1,100 2036.6,102.7 2043.7,95.2 C2047.6,98.7 2059.6,105.7 2071.6,94.7 C2079.6,101.7 2092.6,100.7 2097.6,95 C2101.6,101.7 2114.1,101.3 2122.7,95.4 C2127.6,101.8 2141.4,102.6 2149.6,94.8 C2154.7,101.6 2175.6,100.8 2178.6,94.8 C2181.6,99.8 2193.6,102.8 2204.6,94.8 C2210.6,102.8 2226.6,99.8 2230.6,94.8 C2234.2,98.7 2249,103.5 2258.6,94.8 C2261.3,99.7 2274.9,103.5 2284.5,95.2 C2290.6,100.8 2305.6,101.2 2310.6,94.8 C2315.4,99.5 2328.9,102.1 2336.6,94.8" id="Shape"></path>
            <path d="M160.1,95.3 C164.6,100.6 179.1,103.3 186.2,95.8 C190.1,99.3 202.1,106.3 214.1,95.3 C222.1,102.3 235.1,101.3 240.1,95.6 C244.1,102.3 256.6,101.9 265.2,96 C270.1,102.4 283.9,103.2 292.1,95.4 C297.2,102.2 318.1,101.4 321.1,95.4 C324.1,100.4 336.1,103.4 347.1,95.4 C353.1,103.4 369.1,100.4 373.1,95.4 C376.7,99.3 391.5,104.1 401.1,95.4 C403.8,100.3 417.4,104.1 427,95.8 C433.1,101.4 448.1,101.8 453.1,95.4 C457.9,100.1 471.4,102.7 479.1,95.4" id="Shape"></path>
            <path d="M0,98.5419651 C7.98613368,95.0131119 3.65436888,96.5204547 4.97989349,95 C9.47989349,100.3 23.9798935,103 31.0798935,95.5 C34.9798935,99 46.9798935,106 58.9798935,95 C66.9798935,102 79.9798935,101 84.9798935,95.3 C88.9798935,102 101.479893,101.6 110.079893,95.7 C114.979893,102.1 128.779893,102.9 136.979893,95.1 C142.079893,101.9 157.364746,101.5 160.364746,95.5" id="Shape"></path>
            <path d="M3921.7,131.1 L3921.7,77.6 C3921.7,77.6 3955.3,76.7 3958.8,76.2 C3962.3,75.8 3973.5,74.9 3977.4,75.8 C3981.3,76.7 3995.2,75.4 3997.8,75.8 C4000.4,76.2 4003.9,77.1 4004.7,77.1 C4005.6,77.1 4009,75.8 4009,75.8 C4009,75.8 4007.3,84.5 4007.7,88.4 C4008.1,92.3 4009.4,106.2 4009,114 C4008.6,121.8 4008.4,187.6 4008.4,187.6 L4001.4,187.6 C4001.4,187.6 4004.2,111.8 4002.9,106.2 C4001.6,100.6 3999.4,91 4000.3,88 C4001.2,85 4001.2,83.7 4001.2,83.7 C4001.2,83.7 3978.2,85.9 3976.9,84.6 C3975.6,83.3 3977,92.2 3977.5,94.4 C3978,96.6 3976.3,111.4 3976.7,116.2 C3977.1,121 3975.2,143.9 3974.7,149.5 C3974.3,155.1 3974.4,183.7 3974.4,185.7 C3972.4,185.7 3965.4,185.7 3963.4,185.7 C3963.4,182.7 3962.8,111.7 3963.2,108.7 C3963.6,105.7 3962,88.7 3962,86.1 C3962,83.5 3960.4,84.9 3960.4,84.9 C3960.4,84.9 3952.7,86.9 3950.5,86.5 C3948.3,86.1 3933.5,85.3 3933.5,85.3 L3932.4,185.7 L3920.4,185.7 L3921.7,131.1 Z" id="Shape"></path>
            <path d="M3952.7,58.2 C3952.7,58.2 3952.2,69.3 3952.7,72.4 C3953.2,75.5 3958.2,73.6 3959.7,74.2 C3961.2,74.8 3984.8,74.8 3985.3,74.2 C3985.8,73.6 3986.3,58.8 3985.8,58.2 C3985.3,57.6 3974.3,56.4 3968.8,57 C3963.2,57.6 3954.2,58.8 3952.7,58.2 Z" id="Shape"></path>
            <path d="M3954.8,60.6 C3954.9,60.6 3955.4,60.6 3956.1,60.7 C3958.2,60.9 3962.2,61.2 3962.6,61.6 C3963.1,62.1 3962.6,63.5 3962.6,63.5 L3955.8,63 L3956.3,61.5" id="Shape"></path>
            <path d="M3967.1,61.6 C3967.6,61.6 3972.9,61.6 3972.9,61.6 L3972.9,63.5 L3967.6,64 L3967.1,61.6 Z" id="Shape"></path>
            <path d="M3976.1,61.6 C3976.1,61.6 3975.6,64 3976.1,64 C3976.6,64 3981.9,64.5 3981.9,64.5 L3981.4,61.6 L3976.1,61.6 Z" id="Shape"></path>
            <path d="M3977,68.6 L3981.9,68.6 C3981.9,68.6 3982.4,72.5 3981.9,72 C3981.4,71.5 3977,71.5 3977,71.5 L3977,68.6 Z" id="Shape"></path>
            <path d="M3967.6,68.4 C3967.6,68.4 3965.2,70.3 3965.7,70.8 C3966.2,71.3 3972.5,71.8 3972.5,71.3 C3972.5,70.8 3973,68.4 3973,68.4 C3973,68.4 3970.1,68.9 3969.6,68.9 C3969.1,68.8 3967.6,68.4 3967.6,68.4 Z" id="Shape"></path>
            <path d="M3956.4,68.4 L3956.9,70.8 C3956.9,70.8 3961.3,71.8 3961.3,71.3 C3961.3,70.8 3962.3,69.4 3961.8,68.9 C3961.3,68.4 3956.4,68.4 3956.4,68.4 Z" id="Shape"></path>
            <path d="M3927.2,76.7 C3930,75.1 3935.2,71.9 3935.2,71.9" id="Shape"></path>
            <path d="M3920.8,76.7 C3921.6,76.9 3907.2,70.6 3907.9,71.1" id="Shape"></path>
            <path d="M3904.1,68.9 L3904.1,71.3 C3904.1,71.3 3912,70.5 3913.2,71.3 C3914.4,72.1 3923.9,72.5 3926.7,72.1 C3929.5,71.7 3938.6,71.7 3938.6,71.7 L3938.6,69.3 L3904.1,68.9 Z" id="Shape"></path>
            <path d="M3924.4,77.2 C3924.4,75.6 3924.1,75.3 3924.1,72.3" id="Shape"></path>
            <path d="M3965,57 C3965,57 3961,56.5 3960.6,57 C3960.1,57.5 3962.6,39.2 3963.6,36.7 C3964.6,34.2 3964.1,30.3 3964.1,30.3 L3977.9,30.3 C3977.9,30.3 3977.4,32.3 3977.4,34.3 C3977.4,36.3 3979.4,49.1 3979.4,51.6 C3979.4,54.1 3979.4,56.5 3979.4,56.5 L3975.9,56 C3975.9,56 3976.4,51.1 3975.9,48.1 C3975.4,45.1 3974.9,36.7 3974.9,34.8 C3974.9,32.9 3974.4,31.8 3974.4,31.8 L3971.4,32.3 L3971.4,56 L3968.9,57 C3968.9,57 3968.9,32.8 3968.9,32.3 C3968.9,31.8 3965.9,32.8 3965.9,32.8 C3965.9,32.8 3964.4,38.2 3964.9,40.2 C3965.4,42.2 3965.9,45.1 3965.4,47.1 C3965,49.1 3965,57 3965,57 Z" id="Shape"></path>
            <path d="M3970,0 C3970.4,0.4 3970.4,1.7 3970,4.1 C3969.6,6.6 3966.7,16.5 3967.1,18.6 C3967.5,20.7 3970.4,18.2 3972.1,18.6 C3973.8,19 3977.1,19 3977.1,19 C3977.1,19 3973.8,16.5 3973.8,13.2 C3973.8,9.9 3974.2,9.5 3973.8,7.4 C3973.4,5.3 3973,2.9 3973.4,2 C3973.8,1.2 3969.3,1.6 3969.3,1.6" id="Shape"></path>
            <path d="M3959.3,22.1 C3959.7,22.9 3958.1,26.2 3958.1,26.2 C3958.1,26.2 3969.7,26.6 3971.5,27.2 C3973.3,27.8 3982.9,27 3982.9,27 C3982.9,27 3982.1,24.9 3981.7,24.1 C3981.3,23.3 3981.1,22 3981.1,22 C3981.1,22 3971.4,23.2 3968.9,22.8 C3966.3,22.6 3959.3,22.1 3959.3,22.1 Z" id="Shape"></path>
            <path d="M3892.3,15.9 C3892.3,15.9 3890.3,15.9 3890.3,17.4 C3890.3,18.9 3895.4,19.4 3895.4,19.4" id="Shape"></path>
            <path d="M3879,15.4 C3879,15.4 3888.7,13.4 3892.3,15.4 C3895.9,17.4 3895.4,19.5 3894.8,20 C3894.2,20.5 3884.1,20 3883.1,19.5 C3882.1,19 3879,17 3879,16.4" id="Shape"></path>
            <path d="M3879,16.9 C3878.6,16.5 3867.1,16.4 3864,16.4 C3863.5,16.4 3863.2,16.4 3863.2,16.4 C3863.2,16.4 3863.7,12.8 3861.2,14.4 C3858.7,15.9 3857.6,19 3860.2,19 C3862.7,19 3864.8,14.9 3864.8,14.4" id="Shape"></path>
            <path d="M3885.1,13.8 C3883.6,13.8 3868.3,8.7 3867.8,7.2 C3867.4,6.1 3877.4,9.7 3882.6,11.7 C3884.4,12.4 3885.6,12.8 3885.6,12.8 L3889.2,12.3 L3905,11.8 C3905,11.8 3902.5,13.8 3896.8,13.8 C3891.1,13.8 3886.6,14.3 3886.6,14.3 L3875.9,6.7" id="Shape"></path>
            <path d="M3892.8,22.5 C3892.3,22.5 3882.6,21.5 3881.6,21.5" id="Shape"></path>
            <path d="M3886.2,19.4 C3886.7,19.4 3886.2,21.9 3886.2,21.9" id="Shape"></path>
            <path d="M3997.5,74.9 L4001.2,42 L4003.5,42.9 C4003.5,42.9 4003.5,50.7 4004.9,56.2 C4006.3,61.7 4005.8,76.3 4005.8,76.3" id="Shape"></path>
            <path d="M4004.8,55.7 C4004.8,55.7 4028.1,44.7 4032.2,42.4 C4035.7,40.4 4044.4,36.8 4046.7,35.8 C4046.8,35.8 4046.9,35.9 4046.8,35.9 L4034.1,45.6 L4005.3,62.5" id="Shape"></path>
            <polyline id="Shape" points="4035.9 40.2 4029.5 48.4 4018.1 49.7 4012.2 58.4 4005.3 55.2"></polyline>
            <path d="M4006.2,61.2 C4007.1,60.3 4011.7,52.1 4011.7,52.1 L4022.2,52.6 L4026.8,45.3 L4038.2,42.1" id="Shape"></path>
            <path d="M4045.1,37.5 C4044.4,38.8 4045.1,74.7 4045.1,74.7" id="Shape"></path>
            <path d="M4045.1,74.7 C4045.1,74.7 4047.8,77.1 4046.4,79.5 C4045.1,81.9 4039.1,81.9 4041.1,76.3" id="Shape"></path>
            <path d="M4002.8,42.7 C4002.8,42.7 4043,37.2 4046.2,35.8" id="Shape"></path>
        </g>
    </g>
</svg>