<?xml version="1.0" encoding="UTF-8"?>
<svg width="4000px" height="320px" viewBox="0 0 4000 320" version="1.1" xmlns="http://www.w3.org/2000/svg" xmlns:xlink="http://www.w3.org/1999/xlink">
    <!-- Generator: Sketch 50.2 (55047) - http://www.bohemiancoding.com/sketch -->
    <title>Bronnfag</title>
    <desc>Created with Sketch.</desc>
    <defs>
        <rect id="path-1" x="0" y="0" width="4000" height="320"></rect>
    </defs>
    <g id="Bronnfag" stroke="none" stroke-width="1" fill="none" fill-rule="evenodd">
        <g id="Kinesisk">
            <mask id="mask-2" fill="white">
                <use xlink:href="#path-1"></use>
            </mask>
            <g id="Mask"></g>
            <g id="brønnfag-01-(1)" mask="url(#mask-2)">
                <g transform="translate(-77.000000, 65.000000)">
                    <g id="Layer_35" transform="translate(57.000000, 0.000000)"></g>
                    <g id="Layer_2" transform="translate(0.000000, 202.000000)">
                        <path d="M2336.5,0.5 C2338.5,5 2350.2,10 2360.5,0.5 C2368.8,6.1 2370.6,9.7 2387.5,0.5 C2396.5,8.5 2401.7,7.9 2414.5,0.5 C2420.5,8.5 2432.5,8.3 2442.5,0.5 C2446.5,6.5 2458,9.7 2468.5,0.5 C2472.5,4.5 2477.3,10.6 2495.5,0.5 C2499.5,4.5 2508.5,9.5 2520.5,0.5 C2525.5,4.5 2534.8,9.7 2548.5,0.5 C2551.5,5.5 2564.9,8.3 2574.5,0.5 C2579.5,5.5 2584.1,9.7 2601.1,0.8 C2606.5,5.5 2614.8,7.1 2628.5,0.7 C2630.5,3.5 2640.4,9.8 2652.7,0.6 C2656.5,4.5 2667.3,9.7 2680.5,0.5 C2683.4,3.5 2692.9,12.4 2707.5,0.5 C2716.7,5.5 2724.9,7.4 2734.5,0.5 C2736.5,3.5 2747.8,11.5 2760.5,0.5 C2762.5,5.5 2776.9,8.8 2785.5,0.5 C2788.8,5.5 2803.9,10.6 2813.5,0.5 C2818,6.6 2831.2,7.4 2838.5,0.5 C2842.3,5.7 2860.5,6.5 2864.3,0.6 C2867.5,3.5 2878.5,10.6 2891.7,0.9 C2897.5,5.4 2910.9,6.3 2918.2,0.8 C2923.5,4.5 2933.3,7.6 2944.7,1.1 C2949.5,7.4 2968.5,6.5 2972.1,1 C2973.5,3.4 2985.4,11.4 2999.5,0.4 C3003.5,4.4 3015.5,7.8 3025.5,0.4 C3031.9,5 3042.9,6.8 3052.5,0.4 C3059,7.1 3069.8,7.7 3078.5,0.4 C3083.4,5.2 3093.5,9.7 3106.5,0.4 C3110.5,5.4 3124.3,7.7 3132.5,0.4 C3135.5,4.4 3146.5,13.4 3158.6,1.1 C3163.5,7.4 3179.6,6.5 3186,1 C3188.5,3.4 3201.6,9.2 3210.7,0.9 C3219.4,4.1 3227.7,8.7 3239.6,0.4 C3242.8,2.2 3251,10.5 3265.6,0.4 C3270.6,7 3281.1,7.9 3290.7,1 C3293.6,3.4 3309.9,10.5 3317.6,1.4 C3319.9,6.4 3333,8.7 3343.3,1.3 C3349.6,4.4 3362.5,9 3371.6,0.3 C3377.8,6.4 3388.2,7.6 3396.3,0.7 C3400.6,4.5 3413.5,8.7 3422.6,0.5 C3430.8,4.6 3437.4,10.6 3450.6,0.5 C3454.6,4.5 3465.1,8.3 3475.6,0.5 C3482.9,4.6 3495.4,7.8 3503.6,0.5 C3508.6,4.5 3517.8,7.1 3528.3,0.6 C3535.6,5.5 3548.3,6.9 3555.6,0.5 C3560,5.4 3574.3,7.4 3581.6,0.5 C3586.6,6.5 3604.9,7.4 3612.6,0.5 C3616.6,5.5 3632.6,8.5 3637.6,0.5 C3640.6,8.5 3657.6,6 3662.6,0.5 C3665.6,5.5 3682.2,7.4 3688.6,0.5 C3694.6,4.5 3709.8,6.9 3716.6,0.5 C3722.9,7.2 3735.5,8.3 3744.6,0.5 C3749.4,7.7 3759.3,8.5 3770.6,0.5 C3778.6,5.5 3791.7,6.9 3797.6,0.5 C3803.1,5.5 3815.8,7.8 3822.6,0.5 C3827.6,7.5 3844.6,4.8 3849.6,0.2 C3853.6,4.5 3868.8,8.3 3875.6,0.5 C3880.6,5.5 3898.1,7 3903.6,1.5 C3905.6,3.5 3916.6,11.5 3930.6,0.5 C3937.5,6.4 3951.5,4.3 3955.6,1.5 C3959.6,5.5 3970.9,7.5 3979.6,1.5 C3985.6,5.6 4001.4,9.3 4009.6,1.5 C4014.7,8.3 4034.7,6.6 4036.6,1.5 C4040.7,5.6 4048.1,9.3 4063.6,1.5 C4069,6 4069,6 4077,6" id="Shape" stroke="#FFFFFF"></path>
                        <path d="M478.5,1 C478.5,1 481.7,9.2 502.3,0.9 C508.6,5.5 512.7,9.7 529.6,0.5 C539.2,5.5 543.5,8.1 556.3,0.7 C563.6,5.2 573.6,8.3 583.6,0.5 C588.6,4.1 599.1,9.7 609.6,0.5 C614.6,5.5 623.6,9.5 638.1,0.4 C640.6,3.5 651.6,8.5 662.3,0.8 C665.6,3.6 676,9.8 689.6,0.6 C693.6,5.6 707,8.4 716.6,0.6 C722.6,4.6 728.5,7.5 743.6,0.6 C747.6,4.6 755.9,7.1 769.6,0.6 C773.6,4.6 782.3,9.8 794.6,0.6 C797.4,3.5 808.4,9.8 821.6,0.6 C826.6,3.6 833.6,12.6 848.6,0.6 C856.6,7.6 867,8.2 876.6,1.3 C879.6,4.6 889.9,11.6 902.6,0.6 C906.1,3.9 919,8.9 927.6,0.6 C931.6,7.6 945,10.7 954.6,0.6 C960.6,7.6 973.5,8.2 980.8,1.4 C983.6,5.6 1001.6,7.6 1006.6,0.6 C1010.6,4.6 1020.4,10.3 1033.6,0.6 C1040.6,8.6 1054.3,6.1 1061.6,0.6 C1066.6,5.6 1075.2,7 1086.6,0.6 C1091.6,7.6 1110,6.1 1113.6,0.6 C1116.6,3.6 1127,11.7 1141.2,0.7 C1146.6,4.6 1157.2,8.4 1167.2,1.1 C1173.6,6.7 1183.8,8.4 1195.1,1 C1201.6,5.7 1212,8.2 1220.7,0.9 C1225.6,6.7 1239.6,6.7 1248.6,0.7 C1253.6,4.7 1266.4,8 1274.6,0.7 C1279.6,4.7 1291.1,9 1301.6,0.7 C1304.6,5.7 1320.2,7.2 1326.6,1.7 C1329.6,5.7 1343.5,9 1352.6,0.7 C1359.6,5.7 1370.1,9 1382,0.7 C1385.2,2.5 1392,10.8 1406.6,0.7 C1410.6,5.3 1423,7.6 1432.6,0.7 C1435.6,4.7 1452.9,10 1460.6,0.9 C1464.6,5.7 1478,7.6 1486.6,0.7 C1490.6,4.7 1503.5,9.4 1512.6,0.7 C1517.6,5.8 1531,7.4 1538.3,1.9 C1541.6,5.7 1555.7,9.6 1564.8,1.3 C1573,5.4 1579.4,10.8 1592.6,0.7 C1596.1,7.1 1607.3,8.5 1617.8,0.7 C1623.6,7.7 1636.4,8.1 1644.6,0.7 C1650,7.8 1659,9.8 1670.6,0.7 C1677.6,8.7 1690.9,7.2 1698.2,0.8 C1703.6,8.7 1717.3,7.6 1724.6,0.7 C1731.6,6.7 1744.9,7.6 1752.6,0.7 C1758.3,7.8 1774.6,5.7 1777.6,0.7 C1781.6,7.7 1800.1,5.9 1805.1,0.4 C1809.6,7.7 1825.2,7.6 1831.6,0.7 C1836.6,7.7 1849.8,7.1 1856.6,0.7 C1863.6,7.7 1876.5,8.5 1885.6,0.7 C1893.7,6.5 1902.5,6.7 1911.6,0.7 C1919,7.6 1933.7,7.1 1939.6,0.7 C1944.6,8.7 1958.2,8.4 1965.1,1.1 C1969.6,9.7 1985.6,7.7 1990.6,1.7 C1993.6,7 2010.8,8.5 2017.6,0.7 C2022.1,6 2036.6,8.7 2043.7,1.2 C2047.6,4.7 2059.6,11.7 2071.6,0.7 C2079.6,7.7 2092.6,6.7 2097.6,1 C2101.6,7.7 2114.1,7.3 2122.7,1.4 C2127.6,7.8 2141.4,8.6 2149.6,0.8 C2154.7,7.6 2175.6,6.8 2178.6,0.8 C2181.6,5.8 2193.6,8.8 2204.6,0.8 C2210.6,8.8 2226.6,5.8 2230.6,0.8 C2234.2,4.7 2249,9.5 2258.6,0.8 C2261.3,5.7 2274.9,9.5 2284.5,1.2 C2290.6,6.8 2305.6,7.2 2310.6,0.8 C2315.4,5.5 2328.9,8.1 2336.6,0.8" id="Shape" stroke="#FFFFFF"></path>
                        <path d="M160.1,1.3 C164.6,6.6 179.1,9.3 186.2,1.8 C190.1,5.3 202.1,12.3 214.1,1.3 C222.1,8.3 235.1,7.3 240.1,1.6 C244.1,8.3 256.6,7.9 265.2,2 C270.1,8.4 283.9,9.2 292.1,1.4 C297.2,8.2 318.1,7.4 321.1,1.4 C324.1,6.4 336.1,9.4 347.1,1.4 C353.1,9.4 369.1,6.4 373.1,1.4 C376.7,5.3 391.5,10.1 401.1,1.4 C403.8,6.3 417.4,10.1 427,1.8 C433.1,7.4 448.1,7.8 453.1,1.4 C457.9,6.1 471.4,8.7 479.1,1.4" id="Shape" stroke="#FFFFFF"></path>
                        <path d="M0,4.54196512 C7.98613368,1.01311191 3.65436888,2.5204547 4.97989349,1 C9.47989349,6.3 23.9798935,9 31.0798935,1.5 C34.9798935,5 46.9798935,12 58.9798935,1 C66.9798935,8 79.9798935,7 84.9798935,1.3 C88.9798935,8 101.479893,7.6 110.079893,1.7 C114.979893,8.1 128.779893,8.9 136.979893,1.1 C142.079893,7.9 157.364746,7.5 160.364746,1.5" id="Shape" stroke="#FFFFFF"></path>
                    </g>
                    <g id="Layer_4" transform="translate(3920.000000, 183.000000)">
                        <path d="M1.7,56.1 L1.7,2.6 C1.7,2.6 35.3,1.7 38.8,1.2 C42.3,0.8 53.5,-0.1 57.4,0.8 C61.3,1.7 75.2,0.4 77.8,0.8 C80.4,1.2 83.9,2.1 84.7,2.1 C85.6,2.1 89,0.8 89,0.8 C89,0.8 87.3,9.5 87.7,13.4 C88.1,17.3 89.4,31.2 89,39 C88.6,46.8 88.4,112.6 88.4,112.6 L81.4,112.6 C81.4,112.6 84.2,36.8 82.9,31.2 C81.6,25.6 79.4,16 80.3,13 C81.2,10 81.2,8.7 81.2,8.7 C81.2,8.7 58.2,10.9 56.9,9.6 C55.6,8.3 57,17.2 57.5,19.4 C58,21.6 56.3,36.4 56.7,41.2 C57.1,46 55.2,68.9 54.7,74.5 C54.3,80.1 54.4,108.7 54.4,110.7 C52.4,110.7 45.4,110.7 43.4,110.7 C43.4,107.7 42.8,36.7 43.2,33.7 C43.6,30.7 42,13.7 42,11.1 C42,8.5 40.4,9.9 40.4,9.9 C40.4,9.9 32.7,11.9 30.5,11.5 C28.3,11.1 13.5,10.3 13.5,10.3 L12.4,110.7 L0.4,110.7 L1.7,56.1 Z" id="Shape" stroke="#FFFFFF"></path>
                    </g>
                    <g id="Layer_5" transform="translate(3952.000000, 164.000000)">
                        <path d="M0.7,2.2 C0.7,2.2 0.2,13.3 0.7,16.4 C1.2,19.5 6.2,17.6 7.7,18.2 C9.2,18.8 32.8,18.8 33.3,18.2 C33.8,17.6 34.3,2.8 33.8,2.2 C33.3,1.6 22.3,0.4 16.8,1 C11.2,1.6 2.2,2.8 0.7,2.2 Z" id="Shape" stroke="#FFFFFF"></path>
                        <g id="Layer_6" transform="translate(2.000000, 4.000000)" stroke="#FFFFFF">
                            <path d="M0.8,0.6 C0.9,0.6 1.4,0.6 2.1,0.7 C4.2,0.9 8.2,1.2 8.6,1.6 C9.1,2.1 8.6,3.5 8.6,3.5 L1.8,3 L2.3,1.5" id="Shape"></path>
                            <g id="Layer_7" transform="translate(13.000000, 1.000000)">
                                <path d="M0.1,0.6 C0.6,0.6 5.9,0.6 5.9,0.6 L5.9,2.5 L0.6,3 L0.1,0.6 Z" id="Shape"></path>
                            </g>
                        </g>
                        <g id="Layer_8" transform="translate(23.000000, 5.000000)" stroke="#FFFFFF">
                            <path d="M1.1,0.6 C1.1,0.6 0.6,3 1.1,3 C1.6,3 6.9,3.5 6.9,3.5 L6.4,0.6 L1.1,0.6 Z" id="Shape"></path>
                            <g id="Layer_13" transform="translate(2.000000, 7.000000)">
                                <path d="M0,0.6 L4.9,0.6 C4.9,0.6 5.4,4.5 4.9,4 C4.4,3.5 0,3.5 0,3.5 L0,0.6 Z" id="Shape"></path>
                            </g>
                        </g>
                        <g id="Layer_11" transform="translate(13.000000, 12.000000)" stroke="#FFFFFF">
                            <path d="M2.6,0.4 C2.6,0.4 0.2,2.3 0.7,2.8 C1.2,3.3 7.5,3.8 7.5,3.3 C7.5,2.8 8,0.4 8,0.4 C8,0.4 5.1,0.9 4.6,0.9 C4.1,0.8 2.6,0.4 2.6,0.4 Z" id="Shape"></path>
                        </g>
                        <g id="Layer_10" transform="translate(4.000000, 12.000000)" stroke="#FFFFFF">
                            <path d="M0.4,0.4 L0.9,2.8 C0.9,2.8 5.3,3.8 5.3,3.3 C5.3,2.8 6.3,1.4 5.8,0.9 C5.3,0.4 0.4,0.4 0.4,0.4 Z" id="Shape"></path>
                        </g>
                    </g>
                    <g id="Layer_17" transform="translate(3904.000000, 176.000000)">
                        <path d="M23.2,8.7 C26,7.1 31.2,3.9 31.2,3.9" id="Shape" stroke="#FFFFFF"></path>
                        <g id="Layer_14" transform="translate(3.000000, 3.000000)" stroke="#FFFFFF">
                            <path d="M13.8,5.7 C14.6,5.9 0.2,-0.4 0.9,0.1" id="Shape"></path>
                        </g>
                        <g id="Layer_15" stroke="#FFFFFF">
                            <path d="M0.1,0.9 L0.1,3.3 C0.1,3.3 8,2.5 9.2,3.3 C10.4,4.1 19.9,4.5 22.7,4.1 C25.5,3.7 34.6,3.7 34.6,3.7 L34.6,1.3 L0.1,0.9 Z" id="Shape"></path>
                        </g>
                        <g id="Layer_16" transform="translate(20.000000, 4.000000)" stroke="#FFFFFF">
                            <path d="M0.4,5.2 C0.4,3.6 0.1,3.3 0.1,0.3" id="Shape"></path>
                        </g>
                    </g>
                    <g id="Layer_18" transform="translate(3960.000000, 138.000000)">
                        <path d="M5,27 C5,27 1,26.5 0.6,27 C0.1,27.5 2.6,9.2 3.6,6.7 C4.6,4.2 4.1,0.3 4.1,0.3 L17.9,0.3 C17.9,0.3 17.4,2.3 17.4,4.3 C17.4,6.3 19.4,19.1 19.4,21.6 C19.4,24.1 19.4,26.5 19.4,26.5 L15.9,26 C15.9,26 16.4,21.1 15.9,18.1 C15.4,15.1 14.9,6.7 14.9,4.8 C14.9,2.9 14.4,1.8 14.4,1.8 L11.4,2.3 L11.4,26 L8.9,27 C8.9,27 8.9,2.8 8.9,2.3 C8.9,1.8 5.9,2.8 5.9,2.8 C5.9,2.8 4.4,8.2 4.9,10.2 C5.4,12.2 5.9,15.1 5.4,17.1 C5,19.1 5,27 5,27 Z" id="Shape" stroke="#FFFFFF"></path>
                    </g>
                    <g id="Layer_19" transform="translate(3967.000000, 108.000000)">
                        <path d="M3,0 C3.4,0.4 3.4,1.7 3,4.1 C2.6,6.6 -0.3,16.5 0.1,18.6 C0.5,20.7 3.4,18.2 5.1,18.6 C6.8,19 10.1,19 10.1,19 C10.1,19 6.8,16.5 6.8,13.2 C6.8,9.9 7.2,9.5 6.8,7.4 C6.4,5.3 6,2.9 6.4,2 C6.8,1.2 2.3,1.6 2.3,1.6" id="Shape" stroke="#FFFFFF"></path>
                    </g>
                    <g id="Layer_20" transform="translate(3958.000000, 130.000000)">
                        <path d="M1.3,0.1 C1.7,0.9 0.1,4.2 0.1,4.2 C0.1,4.2 11.7,4.6 13.5,5.2 C15.3,5.8 24.9,5 24.9,5 C24.9,5 24.1,2.9 23.7,2.1 C23.3,1.3 23.1,0 23.1,0 C23.1,0 13.4,1.2 10.9,0.8 C8.3,0.6 1.3,0.1 1.3,0.1 Z" id="Shape" stroke="#FFFFFF"></path>
                    </g>
                    <g id="Layer_26" transform="translate(3858.000000, 114.000000)">
                        <path d="M34.3,9.9 C34.3,9.9 32.3,9.9 32.3,11.4 C32.3,12.9 37.4,13.4 37.4,13.4" id="Shape" stroke="#FFFFFF"></path>
                        <g id="Layer_21" transform="translate(21.000000, 8.000000)" stroke="#FFFFFF">
                            <path d="M0,1.4 C0,1.4 9.7,-0.6 13.3,1.4 C16.9,3.4 16.4,5.5 15.8,6 C15.2,6.5 5.1,6 4.1,5.5 C3.1,5 4.54747351e-13,3 4.54747351e-13,2.4" id="Shape"></path>
                        </g>
                        <g id="Layer_22" transform="translate(0.000000, 7.000000)" stroke="#FFFFFF">
                            <path d="M21,3.9 C20.6,3.5 9.1,3.4 6,3.4 C5.5,3.4 5.2,3.4 5.2,3.4 C5.2,3.4 5.7,-0.2 3.2,1.4 C0.7,2.9 -0.4,6 2.2,6 C4.7,6 6.8,1.9 6.8,1.4" id="Shape"></path>
                        </g>
                        <g id="Layer_23" transform="translate(9.000000, 0.000000)" stroke="#FFFFFF">
                            <path d="M18.1,7.8 C16.6,7.8 1.3,2.7 0.8,1.2 C0.4,0.1 10.4,3.7 15.6,5.7 C17.4,6.4 18.6,6.8 18.6,6.8 L22.2,6.3 L38,5.8 C38,5.8 35.5,7.8 29.8,7.8 C24.1,7.8 19.6,8.3 19.6,8.3 L8.9,0.7" id="Shape"></path>
                        </g>
                        <g id="Layer_24" transform="translate(23.000000, 15.000000)" stroke="#FFFFFF">
                            <path d="M11.8,1.5 C11.3,1.5 1.6,0.5 0.6,0.5" id="Shape"></path>
                        </g>
                        <g id="Layer_25" transform="translate(28.000000, 13.000000)" stroke="#FFFFFF">
                            <path d="M0.2,0.4 C0.7,0.4 0.2,2.9 0.2,2.9" id="Shape"></path>
                        </g>
                    </g>
                    <g id="Layer_27" transform="translate(3997.000000, 143.000000)">
                        <path d="M0.5,39.9 L4.2,7 L6.5,7.9 C6.5,7.9 6.5,15.7 7.9,21.2 C9.3,26.7 8.8,41.3 8.8,41.3" id="Shape" stroke="#FFFFFF"></path>
                        <g id="Layer_28" transform="translate(7.000000, 0.000000)" stroke="#FFFFFF">
                            <path d="M0.8,20.7 C0.8,20.7 24.1,9.7 28.2,7.4 C31.7,5.4 40.4,1.8 42.7,0.8 C42.8,0.8 42.9,0.9 42.8,0.9 L30.1,10.6 L1.3,27.5" id="Shape"></path>
                        </g>
                        <g id="Layer_29" transform="translate(8.000000, 5.000000)" stroke="#FFFFFF">
                            <polyline id="Shape" points="30.9 0.2 24.5 8.4 13.1 9.7 7.2 18.4 0.3 15.2"></polyline>
                        </g>
                        <g id="Layer_30" transform="translate(9.000000, 7.000000)" stroke="#FFFFFF">
                            <path d="M0.2,19.2 C1.1,18.3 5.7,10.1 5.7,10.1 L16.2,10.6 L20.8,3.3 L32.2,0.1" id="Shape"></path>
                        </g>
                        <g id="Layer_31" transform="translate(47.000000, 2.000000)" stroke="#FFFFFF">
                            <path d="M1.1,0.5 C0.4,1.8 1.1,37.7 1.1,37.7" id="Shape"></path>
                        </g>
                        <g id="Layer_32" transform="translate(43.000000, 39.000000)" stroke="#FFFFFF">
                            <path d="M5.1,0.7 C5.1,0.7 7.8,3.1 6.4,5.5 C5.1,7.9 -0.9,7.9 1.1,2.3" id="Shape"></path>
                        </g>
                        <g id="Layer_33" transform="translate(5.000000, 0.000000)" stroke="#FFFFFF">
                            <path d="M0.8,7.7 C0.8,7.7 41,2.2 44.2,0.8" id="Shape"></path>
                        </g>
                    </g>
                </g>
            </g>
        </g>
    </g>
</svg>