<?xml version="1.0" encoding="UTF-8" standalone="no"?>
<svg width="485px" height="178px" viewBox="0 0 485 178" version="1.1" xmlns="http://www.w3.org/2000/svg" xmlns:xlink="http://www.w3.org/1999/xlink">
    <!-- Generator: Sketch 50.2 (55047) - http://www.bohemiancoding.com/sketch -->
    <title>brønnfag-01 (1)</title>
    <desc>Created with Sketch.</desc>
    <defs></defs>
    <g id="brønnfag" stroke="none" stroke-width="1" fill="none" fill-rule="evenodd">
        <g id="illustrasjon-test-mobil" transform="translate(0.000000, -153.000000)" stroke="#FFFFFF" stroke-width="0.5">
            <g id="brønnfag-01-(1)" transform="translate(0.000000, 153.000000)">
                <g id="Layer_2" transform="translate(0.000000, 89.188100)">
                    <path d="M0,1.81190019 C1.22318159,1.31449793 2.0615693,0.866961142 2.51516315,0.469289827 C6.64491363,5.06833013 20.0666027,6.94548944 26.9182342,0.469289827 C31.6111324,6.10076775 48.7871401,6.94548944 56.0142035,0.469289827 C59.7685221,5.1621881 74.7857965,7.97792706 79.4786948,0.469289827 C82.2944338,7.97792706 98.2502879,5.63147793 102.943186,0.469289827 C105.758925,5.1621881 121.339347,6.94548944 127.346257,0.469289827 C132.977735,4.22360845 147.244146,6.47619962 153.626488,0.469289827 C159.539539,6.75777351 171.365643,7.79021113 179.906718,0.469289827 C184.4119,7.22706334 193.703839,7.97792706 204.309789,0.469289827 C211.818426,5.1621881 224.11382,6.47619962 229.65144,0.469289827 C234.813628,5.1621881 246.733589,7.32092131 253.115931,0.469289827 C257.808829,7.03934741 273.764683,4.50518234 278.457582,0.187715931 C282.2119,4.22360845 296.478311,7.79021113 302.860653,0.469289827 C307.553551,5.1621881 323.978695,6.57005758 329.140883,1.40786948 C331.018042,3.28502879 341.342418,10.793666 354.482534,0.469289827 C360.958733,6.00690979 374.098848,4.03589251 377.947025,1.40786948 C381.701344,5.1621881 392.307294,7.03934741 400.472937,1.40786948 C406.104415,5.25604607 420.933973,8.72879079 428.630326,1.40786948 C433.417083,7.79021113 452.188676,6.19462572 453.971977,1.40786948 C457.820154,5.25604607 464.765643,8.72879079 479.313628,1.40786948 C482.129367,5.1621881 487.385413,6.47619962 490.576583,6.10076775" id="Shape"></path>
                </g>
                <g id="Layer_4" transform="translate(344.533589, 71.355086)">
                    <path d="M1.59558541,52.6543186 L1.59558541,2.4403071 C1.59558541,2.4403071 33.1318618,1.59558541 36.4168906,1.12629559 C39.7019194,0.750863724 50.2140115,-0.0938579655 53.8744722,0.750863724 C57.5349328,1.59558541 70.58119,0.375431862 73.0214971,0.750863724 C75.4618042,1.12629559 78.746833,1.97101727 79.4976967,1.97101727 C80.3424184,1.97101727 83.5335893,0.750863724 83.5335893,0.750863724 C83.5335893,0.750863724 81.9380038,8.91650672 82.3134357,12.5769674 C82.6888676,16.237428 83.9090211,29.2836852 83.5335893,36.6046065 C83.1581574,43.9255278 82.9704415,105.684069 82.9704415,105.684069 L76.4003839,105.684069 C76.4003839,105.684069 79.0284069,34.5397313 77.8082534,29.2836852 C76.5880998,24.0276392 74.5232246,15.0172745 75.3679463,12.2015355 C76.2126679,9.38579655 76.2126679,8.16564299 76.2126679,8.16564299 C76.2126679,8.16564299 54.6253359,10.2305182 53.4051823,9.01036468 C52.1850288,7.79021113 53.4990403,16.1435701 53.9683301,18.2084453 C54.43762,20.2733205 52.8420345,34.1642994 53.2174664,38.6694818 C53.5928983,43.1746641 51.8095969,64.6681382 51.3403071,69.9241843 C50.9648752,75.1802303 51.0587332,102.023608 51.0587332,103.900768 C49.1815739,103.900768 42.6115163,103.900768 40.734357,103.900768 C40.734357,101.085029 40.1712092,34.4458733 40.5466411,31.6301344 C40.9220729,28.8143954 39.4203455,12.8585413 39.4203455,10.4182342 C39.4203455,7.97792706 37.918618,9.29193858 37.918618,9.29193858 C37.918618,9.29193858 30.6915547,11.1690979 28.6266795,10.793666 C26.5618042,10.4182342 12.6708253,9.66737044 12.6708253,9.66737044 L11.6383877,103.900768 L0.375431862,103.900768 L1.59558541,52.6543186 Z" id="Shape"></path>
                </g>
                <g id="Layer_5" transform="translate(374.568138, 53.522073)">
                    <path d="M0.657005758,2.06487524 C0.657005758,2.06487524 0.187715931,12.4831094 0.657005758,15.3927063 C1.12629559,18.3023033 5.81919386,16.5190019 7.22706334,17.0821497 C8.63493282,17.6452975 30.7854127,17.6452975 31.2547025,17.0821497 C31.7239923,16.5190019 32.1932821,2.62802303 31.7239923,2.06487524 C31.2547025,1.50172745 20.9303263,0.375431862 15.7681382,0.938579655 C10.5120921,1.50172745 2.06487524,2.62802303 0.657005758,2.06487524 Z" id="Shape"></path>
                    <g id="Layer_6" transform="translate(1.877159, 3.754319)">
                        <path d="M0.750863724,0.563147793 C0.844721689,0.563147793 1.31401152,0.563147793 1.97101727,0.657005758 C3.94203455,0.844721689 7.69635317,1.12629559 8.07178503,1.50172745 C8.54107486,1.97101727 8.07178503,3.28502879 8.07178503,3.28502879 L1.68944338,2.81573896 L2.15873321,1.40786948" id="Shape"></path>
                        <g id="Layer_7" transform="translate(12.201536, 0.938580)">
                            <path d="M0.0938579655,0.563147793 C0.563147793,0.563147793 5.53761996,0.563147793 5.53761996,0.563147793 L5.53761996,2.34644914 L0.563147793,2.81573896 L0.0938579655,0.563147793 Z" id="Shape"></path>
                        </g>
                    </g>
                    <g id="Layer_8" transform="translate(21.587332, 4.692898)">
                        <path d="M1.03243762,0.563147793 C1.03243762,0.563147793 0.563147793,2.81573896 1.03243762,2.81573896 C1.50172745,2.81573896 6.47619962,3.28502879 6.47619962,3.28502879 L6.00690979,0.563147793 L1.03243762,0.563147793 Z" id="Shape"></path>
                        <g id="Layer_13" transform="translate(1.877159, 6.570058)">
                            <path d="M0,0.563147793 L4.59904031,0.563147793 C4.59904031,0.563147793 5.06833013,4.22360845 4.59904031,3.75431862 C4.12975048,3.28502879 0,3.28502879 0,3.28502879 L0,0.563147793 Z" id="Shape"></path>
                        </g>
                    </g>
                    <g id="Layer_11" transform="translate(12.201536, 11.262956)">
                        <path d="M2.4403071,0.375431862 C2.4403071,0.375431862 0.187715931,2.15873321 0.657005758,2.62802303 C1.12629559,3.09731286 7.03934741,3.56660269 7.03934741,3.09731286 C7.03934741,2.62802303 7.50863724,0.375431862 7.50863724,0.375431862 C7.50863724,0.375431862 4.78675624,0.844721689 4.31746641,0.844721689 C3.84817658,0.750863724 2.4403071,0.375431862 2.4403071,0.375431862 Z" id="Shape"></path>
                    </g>
                    <g id="Layer_10" transform="translate(3.754319, 11.262956)">
                        <path d="M0.375431862,0.375431862 L0.844721689,2.62802303 C0.844721689,2.62802303 4.97447217,3.56660269 4.97447217,3.09731286 C4.97447217,2.62802303 5.91305182,1.31401152 5.443762,0.844721689 C4.97447217,0.375431862 0.375431862,0.375431862 0.375431862,0.375431862 Z" id="Shape"></path>
                    </g>
                </g>
                <g id="Layer_17" transform="translate(329.516315, 64.785029)">
                    <path d="M21.775048,8.16564299 C24.403071,6.66391555 29.2836852,3.66046065 29.2836852,3.66046065" id="Shape"></path>
                    <g id="Layer_14" transform="translate(2.815739, 2.815739)">
                        <path d="M12.9523992,5.34990403 C13.703263,5.53761996 0.187715931,-0.375431862 0.844721689,0.0938579655" id="Shape"></path>
                    </g>
                    <g id="Layer_15">
                        <path d="M0.0938579655,0.844721689 L0.0938579655,3.09731286 C0.0938579655,3.09731286 7.50863724,2.34644914 8.63493282,3.09731286 C9.76122841,3.84817658 18.6777351,4.22360845 21.3057582,3.84817658 C23.9337812,3.47274472 32.474856,3.47274472 32.474856,3.47274472 L32.474856,1.22015355 L0.0938579655,0.844721689 Z" id="Shape"></path>
                    </g>
                    <g id="Layer_16" transform="translate(18.771593, 3.754319)">
                        <path d="M0.375431862,4.8806142 C0.375431862,3.37888676 0.0938579655,3.09731286 0.0938579655,0.281573896" id="Shape"></path>
                    </g>
                </g>
                <g id="Layer_18" transform="translate(382.076775, 29.119002)">
                    <path d="M4.69289827,25.3416507 C4.69289827,25.3416507 0.938579655,24.8723608 0.563147793,25.3416507 C0.0938579655,25.8109405 2.4403071,8.63493282 3.37888676,6.28848369 C4.31746641,3.94203455 3.84817658,0.281573896 3.84817658,0.281573896 L16.8005758,0.281573896 C16.8005758,0.281573896 16.331286,2.15873321 16.331286,4.03589251 C16.331286,5.91305182 18.2084453,17.9268714 18.2084453,20.2733205 C18.2084453,22.6197697 18.2084453,24.8723608 18.2084453,24.8723608 L14.9234165,24.403071 C14.9234165,24.403071 15.3927063,19.8040307 14.9234165,16.9882917 C14.4541267,14.1725528 13.9848369,6.28848369 13.9848369,4.50518234 C13.9848369,2.721881 13.515547,1.68944338 13.515547,1.68944338 L10.6998081,2.15873321 L10.6998081,24.403071 L8.35335893,25.3416507 C8.35335893,25.3416507 8.35335893,2.62802303 8.35335893,2.15873321 C8.35335893,1.68944338 5.53761996,2.62802303 5.53761996,2.62802303 C5.53761996,2.62802303 4.12975048,7.69635317 4.59904031,9.57351248 C5.06833013,11.4506718 5.53761996,14.1725528 5.06833013,16.0497121 C4.69289827,17.9268714 4.69289827,25.3416507 4.69289827,25.3416507 Z" id="Shape"></path>
                </g>
                <g id="Layer_19" transform="translate(388.646833, 0.961612)">
                    <path d="M2.81573896,0 C3.19117083,0.375431862 3.19117083,1.59558541 2.81573896,3.84817658 C2.4403071,6.19462572 -0.281573896,15.4865643 0.0938579655,17.4575816 C0.469289827,19.4285988 3.19117083,17.0821497 4.78675624,17.4575816 C6.38234165,17.8330134 9.47965451,17.8330134 9.47965451,17.8330134 C9.47965451,17.8330134 6.38234165,15.4865643 6.38234165,12.3892514 C6.38234165,9.29193858 6.75777351,8.91650672 6.38234165,6.94548944 C6.00690979,4.97447217 5.63147793,2.721881 6.00690979,1.87715931 C6.38234165,1.12629559 2.15873321,1.50172745 2.15873321,1.50172745" id="Shape"></path>
                </g>
                <g id="Layer_20" transform="translate(380.199616, 21.610365)">
                    <path d="M1.22015355,0.0938579655 C1.59558541,0.844721689 0.0938579655,3.94203455 0.0938579655,3.94203455 C0.0938579655,3.94203455 10.981382,4.31746641 12.6708253,4.8806142 C14.3602687,5.443762 23.3706334,4.69289827 23.3706334,4.69289827 C23.3706334,4.69289827 22.6197697,2.721881 22.2443378,1.97101727 C21.868906,1.22015355 21.68119,0 21.68119,0 C21.68119,0 12.5769674,1.12629559 10.2305182,0.750863724 C7.79021113,0.563147793 1.22015355,0.0938579655 1.22015355,0.0938579655 Z" id="Shape"></path>
                </g>
                <g id="Layer_26" transform="translate(286.341651, 6.593090)">
                    <path d="M32.1932821,9.29193858 C32.1932821,9.29193858 30.3161228,9.29193858 30.3161228,10.6998081 C30.3161228,12.1076775 35.1028791,12.5769674 35.1028791,12.5769674" id="Shape"></path>
                    <g id="Layer_21" transform="translate(19.710173, 7.508637)">
                        <path d="M0,1.31401152 C0,1.31401152 9.10422265,-0.563147793 12.4831094,1.31401152 C15.8619962,3.19117083 15.3927063,5.1621881 14.8295585,5.63147793 C14.2664107,6.10076775 4.78675624,5.63147793 3.84817658,5.1621881 C2.90959693,4.69289827 4.26816611e-13,2.81573896 4.26816611e-13,2.25259117" id="Shape"></path>
                    </g>
                    <g id="Layer_22" transform="translate(0.000000, 6.570058)">
                        <path d="M19.7101727,3.66046065 C19.3347409,3.28502879 8.54107486,3.19117083 5.63147793,3.19117083 C5.1621881,3.19117083 4.8806142,3.19117083 4.8806142,3.19117083 C4.8806142,3.19117083 5.34990403,-0.187715931 3.00345489,1.31401152 C0.657005758,2.721881 -0.375431862,5.63147793 2.06487524,5.63147793 C4.41132438,5.63147793 6.38234165,1.78330134 6.38234165,1.31401152" id="Shape"></path>
                    </g>
                    <g id="Layer_23" transform="translate(8.447217, 0.000000)">
                        <path d="M16.9882917,7.32092131 C15.5804223,7.32092131 1.22015355,2.53416507 0.750863724,1.12629559 C0.375431862,0.0938579655 9.76122841,3.47274472 14.6418426,5.34990403 C16.331286,6.00690979 17.4575816,6.38234165 17.4575816,6.38234165 L20.8364683,5.91305182 L35.6660269,5.443762 C35.6660269,5.443762 33.3195777,7.32092131 27.9696737,7.32092131 C22.6197697,7.32092131 18.3961612,7.79021113 18.3961612,7.79021113 L8.35335893,0.657005758" id="Shape"></path>
                    </g>
                    <g id="Layer_24" transform="translate(21.587332, 14.078695)">
                        <path d="M11.0752399,1.40786948 C10.6059501,1.40786948 1.50172745,0.469289827 0.563147793,0.469289827" id="Shape"></path>
                    </g>
                    <g id="Layer_25" transform="translate(26.280230, 12.201536)">
                        <path d="M0.187715931,0.375431862 C0.657005758,0.375431862 0.187715931,2.721881 0.187715931,2.721881" id="Shape"></path>
                    </g>
                </g>
                <g id="Layer_27" transform="translate(416.804223, 33.811900)">
                    <path d="M0.469289827,37.4493282 L3.94203455,6.57005758 L6.10076775,7.41477927 C6.10076775,7.41477927 6.10076775,14.7357006 7.41477927,19.8978887 C8.72879079,25.0600768 8.25950096,38.7633397 8.25950096,38.7633397" id="Shape"></path>
                    <g id="Layer_28" transform="translate(6.570058, 0.000000)">
                        <path d="M0.750863724,19.4285988 C0.750863724,19.4285988 22.6197697,9.10422265 26.4679463,6.94548944 C29.752975,5.06833013 37.918618,1.68944338 40.0773512,0.750863724 C40.1712092,0.750863724 40.2650672,0.844721689 40.1712092,0.844721689 L28.2512476,9.94894434 L1.22015355,25.8109405" id="Shape"></path>
                    </g>
                    <g id="Layer_29" transform="translate(7.508637, 4.692898)">
                        <polyline id="Shape" points="29.0021113 0.187715931 22.9952015 7.8840691 12.2953935 9.10422265 6.75777351 17.2698656 0.281573896 14.2664107"></polyline>
                    </g>
                    <g id="Layer_30" transform="translate(8.447217, 6.570058)">
                        <path d="M0.187715931,18.0207294 C1.03243762,17.1760077 5.34990403,9.47965451 5.34990403,9.47965451 L15.2049904,9.94894434 L19.5224568,3.09731286 L30.2222649,0.0938579655" id="Shape"></path>
                    </g>
                    <g id="Layer_31" transform="translate(44.113244, 1.877159)">
                        <path d="M1.03243762,0.469289827 C0.375431862,1.68944338 1.03243762,35.384453 1.03243762,35.384453" id="Shape"></path>
                    </g>
                    <g id="Layer_32" transform="translate(40.358925, 36.604607)">
                        <path d="M4.78675624,0.657005758 C4.78675624,0.657005758 7.32092131,2.90959693 6.00690979,5.1621881 C4.78675624,7.41477927 -0.844721689,7.41477927 1.03243762,2.15873321" id="Shape"></path>
                    </g>
                    <g id="Layer_33" transform="translate(4.692898, 0.000000)">
                        <path d="M0.750863724,7.22706334 C0.750863724,7.22706334 38.4817658,2.06487524 41.4852207,0.750863724" id="Shape"></path>
                    </g>
                </g>
            </g>
        </g>
    </g>
</svg>