<?xml version="1.0" encoding="UTF-8" standalone="no"?>
<svg width="3922px" height="189px" viewBox="0 0 3922 189" version="1.1" 
    xmlns="http://www.w3.org/2000/svg" 
    xmlns:xlink="http://www.w3.org/1999/xlink">
    <!-- Generator: Sketch 50.2 (55047) - http://www.bohemiancoding.com/sketch -->
    <title>brønnfag-01 (1)</title>
    <desc>Created with Sketch.</desc>
    <defs></defs>
    <g id="brønnfag" stroke="none" stroke-width="1" fill="none" fill-rule="evenodd">
        <g id="header-illutrasjon-test" transform="translate(0.000000, -256.000000)">
            <g id="brønnfag-01-(1)" transform="translate(-98.000000, 60.000000)">
                <g id="Layer_35" transform="translate(0.000000, 88.000000)"></g>
                <g id="Layer_2" transform="translate(98.000000, 290.000000)" stroke="#FFFFFF">
                    <path d="M2181.5,0.5 C2183.5,5 2195.2,10 2205.5,0.5 C2213.8,6.1 2215.6,9.7 2232.5,0.5 C2241.5,8.5 2246.7,7.9 2259.5,0.5 C2265.5,8.5 2277.5,8.3 2287.5,0.5 C2291.5,6.5 2303,9.7 2313.5,0.5 C2317.5,4.5 2322.3,10.6 2340.5,0.5 C2344.5,4.5 2353.5,9.5 2365.5,0.5 C2370.5,4.5 2379.8,9.7 2393.5,0.5 C2396.5,5.5 2409.9,8.3 2419.5,0.5 C2424.5,5.5 2429.1,9.7 2446.1,0.8 C2451.5,5.5 2459.8,7.1 2473.5,0.7 C2475.5,3.5 2485.4,9.8 2497.7,0.6 C2501.5,4.5 2512.3,9.7 2525.5,0.5 C2528.4,3.5 2537.9,12.4 2552.5,0.5 C2561.7,5.5 2569.9,7.4 2579.5,0.5 C2581.5,3.5 2592.8,11.5 2605.5,0.5 C2607.5,5.5 2621.9,8.8 2630.5,0.5 C2633.8,5.5 2648.9,10.6 2658.5,0.5 C2663,6.6 2676.2,7.4 2683.5,0.5 C2687.3,5.7 2705.5,6.5 2709.3,0.6 C2712.5,3.5 2723.5,10.6 2736.7,0.9 C2742.5,5.4 2755.9,6.3 2763.2,0.8 C2768.5,4.5 2778.3,7.6 2789.7,1.1 C2794.5,7.4 2813.5,6.5 2817.1,1 C2818.5,3.4 2830.4,11.4 2844.5,0.4 C2848.5,4.4 2860.5,7.8 2870.5,0.4 C2876.9,5 2887.9,6.8 2897.5,0.4 C2904,7.1 2914.8,7.7 2923.5,0.4 C2928.4,5.2 2938.5,9.7 2951.5,0.4 C2955.5,5.4 2969.3,7.7 2977.5,0.4 C2980.5,4.4 2991.5,13.4 3003.6,1.1 C3008.5,7.4 3024.6,6.5 3031,1 C3033.5,3.4 3046.6,9.2 3055.7,0.9 C3064.4,4.1 3072.7,8.7 3084.6,0.4 C3087.8,2.2 3096,10.5 3110.6,0.4 C3115.6,7 3126.1,7.9 3135.7,1 C3138.6,3.4 3154.9,10.5 3162.6,1.4 C3164.9,6.4 3178,8.7 3188.3,1.3 C3194.6,4.4 3207.5,9 3216.6,0.3 C3222.8,6.4 3233.2,7.6 3241.3,0.7 C3245.6,4.5 3258.5,8.7 3267.6,0.5 C3275.8,4.6 3282.4,10.6 3295.6,0.5 C3299.6,4.5 3310.1,8.3 3320.6,0.5 C3327.9,4.6 3340.4,7.8 3348.6,0.5 C3353.6,4.5 3362.8,7.1 3373.3,0.6 C3380.6,5.5 3393.3,6.9 3400.6,0.5 C3405,5.4 3419.3,7.4 3426.6,0.5 C3431.6,6.5 3449.9,7.4 3457.6,0.5 C3461.6,5.5 3477.6,8.5 3482.6,0.5 C3485.6,8.5 3502.6,6 3507.6,0.5 C3510.6,5.5 3527.2,7.4 3533.6,0.5 C3539.6,4.5 3554.8,6.9 3561.6,0.5 C3567.9,7.2 3580.5,8.3 3589.6,0.5 C3594.4,7.7 3604.3,8.5 3615.6,0.5 C3623.6,5.5 3636.7,6.9 3642.6,0.5 C3648.1,5.5 3660.8,7.8 3667.6,0.5 C3672.6,7.5 3689.6,4.8 3694.6,0.2 C3698.6,4.5 3713.8,8.3 3720.6,0.5 C3725.6,5.5 3743.1,7 3748.6,1.5 C3750.6,3.5 3761.6,11.5 3775.6,0.5 C3782.5,6.4 3796.5,4.3 3800.6,1.5 C3804.6,5.5 3815.9,7.5 3824.6,1.5 C3830.6,5.6 3846.4,9.3 3854.6,1.5 C3859.7,8.3 3879.7,6.6 3881.6,1.5 C3885.7,5.6 3893.1,9.3 3908.6,1.5 C3914,6 3914,6 3922,6" id="Shape"></path>
                    <path d="M323.5,1 C323.5,1 326.7,9.2 347.3,0.9 C353.6,5.5 357.7,9.7 374.6,0.5 C384.2,5.5 388.5,8.1 401.3,0.7 C408.6,5.2 418.6,8.3 428.6,0.5 C433.6,4.1 444.1,9.7 454.6,0.5 C459.6,5.5 468.6,9.5 483.1,0.4 C485.6,3.5 496.6,8.5 507.3,0.8 C510.6,3.6 521,9.8 534.6,0.6 C538.6,5.6 552,8.4 561.6,0.6 C567.6,4.6 573.5,7.5 588.6,0.6 C592.6,4.6 600.9,7.1 614.6,0.6 C618.6,4.6 627.3,9.8 639.6,0.6 C642.4,3.5 653.4,9.8 666.6,0.6 C671.6,3.6 678.6,12.6 693.6,0.6 C701.6,7.6 712,8.2 721.6,1.3 C724.6,4.6 734.9,11.6 747.6,0.6 C751.1,3.9 764,8.9 772.6,0.6 C776.6,7.6 790,10.7 799.6,0.6 C805.6,7.6 818.5,8.2 825.8,1.4 C828.6,5.6 846.6,7.6 851.6,0.6 C855.6,4.6 865.4,10.3 878.6,0.6 C885.6,8.6 899.3,6.1 906.6,0.6 C911.6,5.6 920.2,7 931.6,0.6 C936.6,7.6 955,6.1 958.6,0.6 C961.6,3.6 972,11.7 986.2,0.7 C991.6,4.6 1002.2,8.4 1012.2,1.1 C1018.6,6.7 1028.8,8.4 1040.1,1 C1046.6,5.7 1057,8.2 1065.7,0.9 C1070.6,6.7 1084.6,6.7 1093.6,0.7 C1098.6,4.7 1111.4,8 1119.6,0.7 C1124.6,4.7 1136.1,9 1146.6,0.7 C1149.6,5.7 1165.2,7.2 1171.6,1.7 C1174.6,5.7 1188.5,9 1197.6,0.7 C1204.6,5.7 1215.1,9 1227,0.7 C1230.2,2.5 1237,10.8 1251.6,0.7 C1255.6,5.3 1268,7.6 1277.6,0.7 C1280.6,4.7 1297.9,10 1305.6,0.9 C1309.6,5.7 1323,7.6 1331.6,0.7 C1335.6,4.7 1348.5,9.4 1357.6,0.7 C1362.6,5.8 1376,7.4 1383.3,1.9 C1386.6,5.7 1400.7,9.6 1409.8,1.3 C1418,5.4 1424.4,10.8 1437.6,0.7 C1441.1,7.1 1452.3,8.5 1462.8,0.7 C1468.6,7.7 1481.4,8.1 1489.6,0.7 C1495,7.8 1504,9.8 1515.6,0.7 C1522.6,8.7 1535.9,7.2 1543.2,0.8 C1548.6,8.7 1562.3,7.6 1569.6,0.7 C1576.6,6.7 1589.9,7.6 1597.6,0.7 C1603.3,7.8 1619.6,5.7 1622.6,0.7 C1626.6,7.7 1645.1,5.9 1650.1,0.4 C1654.6,7.7 1670.2,7.6 1676.6,0.7 C1681.6,7.7 1694.8,7.1 1701.6,0.7 C1708.6,7.7 1721.5,8.5 1730.6,0.7 C1738.7,6.5 1747.5,6.7 1756.6,0.7 C1764,7.6 1778.7,7.1 1784.6,0.7 C1789.6,8.7 1803.2,8.4 1810.1,1.1 C1814.6,9.7 1830.6,7.7 1835.6,1.7 C1838.6,7 1855.8,8.5 1862.6,0.7 C1867.1,6 1881.6,8.7 1888.7,1.2 C1892.6,4.7 1904.6,11.7 1916.6,0.7 C1924.6,7.7 1937.6,6.7 1942.6,1 C1946.6,7.7 1959.1,7.3 1967.7,1.4 C1972.6,7.8 1986.4,8.6 1994.6,0.8 C1999.7,7.6 2020.6,6.8 2023.6,0.8 C2026.6,5.8 2038.6,8.8 2049.6,0.8 C2055.6,8.8 2071.6,5.8 2075.6,0.8 C2079.2,4.7 2094,9.5 2103.6,0.8 C2106.3,5.7 2119.9,9.5 2129.5,1.2 C2135.6,6.8 2150.6,7.2 2155.6,0.8 C2160.4,5.5 2173.9,8.1 2181.6,0.8" id="Shape"></path>
                    <path d="M0.120106508,4.84196512 C8.10624018,1.31311191 3.77447539,2.8204547 5.1,1.3 C9.6,6.6 24.1,9.3 31.2,1.8 C35.1,5.3 47.1,12.3 59.1,1.3 C67.1,8.3 80.1,7.3 85.1,1.6 C89.1,8.3 101.6,7.9 110.2,2 C115.1,8.4 128.9,9.2 137.1,1.4 C142.2,8.2 163.1,7.4 166.1,1.4 C169.1,6.4 181.1,9.4 192.1,1.4 C198.1,9.4 214.1,6.4 218.1,1.4 C221.7,5.3 236.5,10.1 246.1,1.4 C248.8,6.3 262.4,10.1 272,1.8 C278.1,7.4 293.1,7.8 298.1,1.4 C302.9,6.1 316.4,8.7 324.1,1.4" id="Shape"></path>
                </g>
                <g id="Layer_4" transform="translate(3863.000000, 271.000000)" stroke="#FFFFFF">
                    <path d="M1.7,56.1 L1.7,2.6 C1.7,2.6 35.3,1.7 38.8,1.2 C42.3,0.8 53.5,-0.1 57.4,0.8 C61.3,1.7 75.2,0.4 77.8,0.8 C80.4,1.2 83.9,2.1 84.7,2.1 C85.6,2.1 89,0.8 89,0.8 C89,0.8 87.3,9.5 87.7,13.4 C88.1,17.3 89.4,31.2 89,39 C88.6,46.8 88.4,112.6 88.4,112.6 L81.4,112.6 C81.4,112.6 84.2,36.8 82.9,31.2 C81.6,25.6 79.4,16 80.3,13 C81.2,10 81.2,8.7 81.2,8.7 C81.2,8.7 58.2,10.9 56.9,9.6 C55.6,8.3 57,17.2 57.5,19.4 C58,21.6 56.3,36.4 56.7,41.2 C57.1,46 55.2,68.9 54.7,74.5 C54.3,80.1 54.4,108.7 54.4,110.7 C52.4,110.7 45.4,110.7 43.4,110.7 C43.4,107.7 42.8,36.7 43.2,33.7 C43.6,30.7 42,13.7 42,11.1 C42,8.5 40.4,9.9 40.4,9.9 C40.4,9.9 32.7,11.9 30.5,11.5 C28.3,11.1 13.5,10.3 13.5,10.3 L12.4,110.7 L0.4,110.7 L1.7,56.1 Z" id="Shape"></path>
                </g>
                <g id="Layer_5" transform="translate(3895.000000, 252.000000)" stroke="#FFFFFF">
                    <path d="M0.7,2.2 C0.7,2.2 0.2,13.3 0.7,16.4 C1.2,19.5 6.2,17.6 7.7,18.2 C9.2,18.8 32.8,18.8 33.3,18.2 C33.8,17.6 34.3,2.8 33.8,2.2 C33.3,1.6 22.3,0.4 16.8,1 C11.2,1.6 2.2,2.8 0.7,2.2 Z" id="Shape"></path>
                    <g id="Layer_6" transform="translate(2.000000, 4.000000)">
                        <path d="M0.8,0.6 C0.9,0.6 1.4,0.6 2.1,0.7 C4.2,0.9 8.2,1.2 8.6,1.6 C9.1,2.1 8.6,3.5 8.6,3.5 L1.8,3 L2.3,1.5" id="Shape"></path>
                        <g id="Layer_7" transform="translate(13.000000, 1.000000)">
                            <path d="M0.1,0.6 C0.6,0.6 5.9,0.6 5.9,0.6 L5.9,2.5 L0.6,3 L0.1,0.6 Z" id="Shape"></path>
                        </g>
                    </g>
                    <g id="Layer_8" transform="translate(23.000000, 5.000000)">
                        <path d="M1.1,0.6 C1.1,0.6 0.6,3 1.1,3 C1.6,3 6.9,3.5 6.9,3.5 L6.4,0.6 L1.1,0.6 Z" id="Shape"></path>
                        <g id="Layer_13" transform="translate(2.000000, 7.000000)">
                            <path d="M0,0.6 L4.9,0.6 C4.9,0.6 5.4,4.5 4.9,4 C4.4,3.5 0,3.5 0,3.5 L0,0.6 Z" id="Shape"></path>
                        </g>
                    </g>
                    <g id="Layer_11" transform="translate(13.000000, 12.000000)">
                        <path d="M2.6,0.4 C2.6,0.4 0.2,2.3 0.7,2.8 C1.2,3.3 7.5,3.8 7.5,3.3 C7.5,2.8 8,0.4 8,0.4 C8,0.4 5.1,0.9 4.6,0.9 C4.1,0.8 2.6,0.4 2.6,0.4 Z" id="Shape"></path>
                    </g>
                    <g id="Layer_10" transform="translate(4.000000, 12.000000)">
                        <path d="M0.4,0.4 L0.9,2.8 C0.9,2.8 5.3,3.8 5.3,3.3 C5.3,2.8 6.3,1.4 5.8,0.9 C5.3,0.4 0.4,0.4 0.4,0.4 Z" id="Shape"></path>
                    </g>
                </g>
                <g id="Layer_17" transform="translate(3847.000000, 264.000000)" stroke="#FFFFFF">
                    <path d="M23.2,8.7 C26,7.1 31.2,3.9 31.2,3.9" id="Shape"></path>
                    <g id="Layer_14" transform="translate(3.000000, 3.000000)">
                        <path d="M13.8,5.7 C14.6,5.9 0.2,-0.4 0.9,0.1" id="Shape"></path>
                    </g>
                    <g id="Layer_15">
                        <path d="M0.1,0.9 L0.1,3.3 C0.1,3.3 8,2.5 9.2,3.3 C10.4,4.1 19.9,4.5 22.7,4.1 C25.5,3.7 34.6,3.7 34.6,3.7 L34.6,1.3 L0.1,0.9 Z" id="Shape"></path>
                    </g>
                    <g id="Layer_16" transform="translate(20.000000, 4.000000)">
                        <path d="M0.4,5.2 C0.4,3.6 0.1,3.3 0.1,0.3" id="Shape"></path>
                    </g>
                </g>
                <g id="Layer_18" transform="translate(3903.000000, 226.000000)" stroke="#FFFFFF">
                    <path d="M5,27 C5,27 1,26.5 0.6,27 C0.1,27.5 2.6,9.2 3.6,6.7 C4.6,4.2 4.1,0.3 4.1,0.3 L17.9,0.3 C17.9,0.3 17.4,2.3 17.4,4.3 C17.4,6.3 19.4,19.1 19.4,21.6 C19.4,24.1 19.4,26.5 19.4,26.5 L15.9,26 C15.9,26 16.4,21.1 15.9,18.1 C15.4,15.1 14.9,6.7 14.9,4.8 C14.9,2.9 14.4,1.8 14.4,1.8 L11.4,2.3 L11.4,26 L8.9,27 C8.9,27 8.9,2.8 8.9,2.3 C8.9,1.8 5.9,2.8 5.9,2.8 C5.9,2.8 4.4,8.2 4.9,10.2 C5.4,12.2 5.9,15.1 5.4,17.1 C5,19.1 5,27 5,27 Z" id="Shape"></path>
                </g>
                <g id="Layer_19" transform="translate(3910.000000, 196.000000)" stroke="#FFFFFF">
                    <path d="M3,0 C3.4,0.4 3.4,1.7 3,4.1 C2.6,6.6 -0.3,16.5 0.1,18.6 C0.5,20.7 3.4,18.2 5.1,18.6 C6.8,19 10.1,19 10.1,19 C10.1,19 6.8,16.5 6.8,13.2 C6.8,9.9 7.2,9.5 6.8,7.4 C6.4,5.3 6,2.9 6.4,2 C6.8,1.2 2.3,1.6 2.3,1.6" id="Shape"></path>
                </g>
                <g id="Layer_20" transform="translate(3901.000000, 218.000000)" stroke="#FFFFFF">
                    <path d="M1.3,0.1 C1.7,0.9 0.1,4.2 0.1,4.2 C0.1,4.2 11.7,4.6 13.5,5.2 C15.3,5.8 24.9,5 24.9,5 C24.9,5 24.1,2.9 23.7,2.1 C23.3,1.3 23.1,0 23.1,0 C23.1,0 13.4,1.2 10.9,0.8 C8.3,0.6 1.3,0.1 1.3,0.1 Z" id="Shape"></path>
                </g>
                <g id="Layer_26" transform="translate(3801.000000, 202.000000)" stroke="#FFFFFF">
                    <path d="M34.3,9.9 C34.3,9.9 32.3,9.9 32.3,11.4 C32.3,12.9 37.4,13.4 37.4,13.4" id="Shape"></path>
                    <g id="Layer_21" transform="translate(21.000000, 8.000000)">
                        <path d="M0,1.4 C0,1.4 9.7,-0.6 13.3,1.4 C16.9,3.4 16.4,5.5 15.8,6 C15.2,6.5 5.1,6 4.1,5.5 C3.1,5 4.54747351e-13,3 4.54747351e-13,2.4" id="Shape"></path>
                    </g>
                    <g id="Layer_22" transform="translate(0.000000, 7.000000)">
                        <path d="M21,3.9 C20.6,3.5 9.1,3.4 6,3.4 C5.5,3.4 5.2,3.4 5.2,3.4 C5.2,3.4 5.7,-0.2 3.2,1.4 C0.7,2.9 -0.4,6 2.2,6 C4.7,6 6.8,1.9 6.8,1.4" id="Shape"></path>
                    </g>
                    <g id="Layer_23" transform="translate(9.000000, 0.000000)">
                        <path d="M18.1,7.8 C16.6,7.8 1.3,2.7 0.8,1.2 C0.4,0.1 10.4,3.7 15.6,5.7 C17.4,6.4 18.6,6.8 18.6,6.8 L22.2,6.3 L38,5.8 C38,5.8 35.5,7.8 29.8,7.8 C24.1,7.8 19.6,8.3 19.6,8.3 L8.9,0.7" id="Shape"></path>
                    </g>
                    <g id="Layer_24" transform="translate(23.000000, 15.000000)">
                        <path d="M11.8,1.5 C11.3,1.5 1.6,0.5 0.6,0.5" id="Shape"></path>
                    </g>
                    <g id="Layer_25" transform="translate(28.000000, 13.000000)">
                        <path d="M0.2,0.4 C0.7,0.4 0.2,2.9 0.2,2.9" id="Shape"></path>
                    </g>
                </g>
                <g id="Layer_27" transform="translate(3940.000000, 231.000000)" stroke="#FFFFFF">
                    <path d="M0.5,39.9 L4.2,7 L6.5,7.9 C6.5,7.9 6.5,15.7 7.9,21.2 C9.3,26.7 8.8,41.3 8.8,41.3" id="Shape"></path>
                    <g id="Layer_28" transform="translate(7.000000, 0.000000)">
                        <path d="M0.8,20.7 C0.8,20.7 24.1,9.7 28.2,7.4 C31.7,5.4 40.4,1.8 42.7,0.8 C42.8,0.8 42.9,0.9 42.8,0.9 L30.1,10.6 L1.3,27.5" id="Shape"></path>
                    </g>
                    <g id="Layer_29" transform="translate(8.000000, 5.000000)">
                        <polyline id="Shape" points="30.9 0.2 24.5 8.4 13.1 9.7 7.2 18.4 0.3 15.2"></polyline>
                    </g>
                    <g id="Layer_30" transform="translate(9.000000, 7.000000)">
                        <path d="M0.2,19.2 C1.1,18.3 5.7,10.1 5.7,10.1 L16.2,10.6 L20.8,3.3 L32.2,0.1" id="Shape"></path>
                    </g>
                    <g id="Layer_31" transform="translate(47.000000, 2.000000)">
                        <path d="M1.1,0.5 C0.4,1.8 1.1,37.7 1.1,37.7" id="Shape"></path>
                    </g>
                    <g id="Layer_32" transform="translate(43.000000, 39.000000)">
                        <path d="M5.1,0.7 C5.1,0.7 7.8,3.1 6.4,5.5 C5.1,7.9 -0.9,7.9 1.1,2.3" id="Shape"></path>
                    </g>
                    <g id="Layer_33" transform="translate(5.000000, 0.000000)">
                        <path d="M0.8,7.7 C0.8,7.7 41,2.2 44.2,0.8" id="Shape"></path>
                    </g>
                </g>
            </g>
        </g>
    </g>
</svg>