<?xml version="1.0" encoding="UTF-8"?>
<svg width="4000px" height="320px" viewBox="0 0 4000 320" version="1.1" xmlns="http://www.w3.org/2000/svg" xmlns:xlink="http://www.w3.org/1999/xlink">
    <!-- Generator: Sketch 51.2 (57519) - http://www.bohemiancoding.com/sketch -->
    <title>Bygg-anlegg</title>
    <desc>Created with Sketch.</desc>
    <defs></defs>
    <g id="Bygg-anlegg" stroke="none" stroke-width="1" fill="none" fill-rule="evenodd">
        <g id="Group" transform="translate(-22.000000, 80.000000)" stroke="#FFFFFF">
            <path d="M3817.5,53.5 C3817.5,53.5 3817,122.7 3816.5,126.5" id="Shape"></path>
            <path d="M3816.5,126.5 L3816.5,131.5 C3816.5,131.5 3809.9,143.1 3817.4,144.4 C3824.9,145.6 3821.2,139 3821.2,139" id="Shape"></path>
            <path d="M3652.6,191 C3652.6,191 3653.2,203.9 3653.1,205.1 C3653,206.3 3653.3,215 3653.3,215.3 C3653.3,215.6 3659.2,215.4 3659.3,216.4 C3659.4,217.4 3654.1,217 3653.1,216.4" id="Shape"></path>
            <path d="M3655.6,191.2 C3656.1,192.2 3659.3,198.4 3658.9,199.6 C3658.5,200.8 3647,209.4 3645.9,210.3 C3644.8,211.2 3648,211.3 3647.3,214.2 C3646.5,217.1 3645.2,217.5 3644.9,215.5 C3644.6,213.5 3645,211.1 3645,211.1" id="Shape"></path>
            <path d="M3650.9,163.9 C3650.9,163.9 3644,166.9 3641.7,171.8 C3639.1,177.5 3639.3,177 3637.9,181.8 C3637.9,181.8 3639.2,183.1 3638.7,184 C3638.2,184.9 3636.8,185.7 3636.5,184.8 C3636.1,183.8 3637.3,182.3 3637.3,182.3" id="Shape"></path>
            <path d="M3666.1,164.4 C3666.2,164.9 3667.1,167.3 3665.2,168.5 C3663.3,169.8 3657.3,167.1 3656,166.7" id="Shape"></path>
            <path d="M3654.2,159.1 C3653.7,159.1 3629.8,162.3 3629.7,162.2 L3631.1,168.3 C3631.1,168.3 3650.3,165.1 3651.1,164.9" id="Shape"></path>
            <path d="M3656.3,164.1 C3656.3,164.1 3679.2,161.7 3681.3,161.6 C3683.3,161.5 3685,161.2 3685,161.2 L3683.2,155 C3683.2,155 3674.3,156.7 3671.7,157 C3669.1,157.3 3654,159 3654,159" id="Shape"></path>
            <path d="M3654.7,158.7 L3627.6,154.1 L3627.2,160.3 C3627.2,160.3 3636.1,160.9 3636.9,161.2" id="Shape"></path>
            <path d="M3661.2,163.8 C3680.3,166.3 3684.8,166.8 3686,166.8 C3686.9,166.8 3688.2,161.4 3688.2,161.4 L3684.5,160.8" id="Shape"></path>
            <path d="M3643.9,191.5 L3639.8,192.4 C3639.8,192.4 3639.9,186.8 3641.4,184.8 L3638.2,184.7" id="Shape"></path>
            <path d="M3643.8,191.7 C3645.3,191.2 3641.8,184 3642.3,184.9" id="Shape"></path>
            <path d="M3639.7,192.5 C3639.2,192.2 3630.3,192.7 3629.8,192.5 C3629.4,192.3 3629.7,186.3 3629.9,185 C3629.9,185 3636,184.7 3636.8,184.6" id="Shape"></path>
            <path d="M3664,149.1 C3664,149.1 3653.1,149.3 3650.3,148.2" id="Shape"></path>
            <path d="M3650.7,148.1 C3650.7,148.1 3652.9,143.4 3656.2,143 C3659.5,142.6 3660.5,146.9 3661.1,148.9" id="Shape"></path>
            <path d="M3523.8,195.2 C3523.8,195.2 3529.4,198.5 3528.2,205 C3527,211.5 3526.3,217.5 3526.3,217.9 C3526.3,218.3 3534.1,216.6 3533.9,218.3 C3533.7,220 3528.7,221.2 3527.4,219.1" id="Shape"></path>
            <path d="M3522,196.8 C3522,196.8 3521.4,203.2 3519.7,205.1 C3518,207 3510.4,210.9 3508.9,211.3 C3507.4,211.7 3507,208.8 3507.4,211.7 C3507.8,214.6 3507,218.3 3509.5,217.1 C3512,215.9 3511.5,214.2 3510.3,212.9" id="Shape"></path>
            <path d="M3543.7,190 C3543.7,190 3545.2,190.2 3546.6,190.2 C3548,190.2 3546.8,188.3 3545.3,187.7 C3544.3,187.3 3543.1,188.1 3542.5,188.6 C3542.2,188.9 3542,189 3542,189 C3542,189 3530.4,186.9 3529.1,182.3 C3527.8,177.7 3526.8,172.9 3526.8,172.9" id="Shape"></path>
            <path d="M3575.7,215.2 C3575.1,214.8 3569.1,207.7 3547.9,204.6 C3547.1,204.5 3545.2,190.1 3545.2,190.1" id="Shape"></path>
            <path d="M3585.2,200.7 C3583.7,200.7 3571.1,199.7 3567.8,199.7 C3564.5,199.7 3555.1,197.2 3551.4,197.4 L3553.9,205.3" id="Shape"></path>
            <path d="M3571.5,211.2 C3571.5,211.2 3581.9,204.1 3583.6,200.8" id="Shape"></path>
            <path d="M3579.4,199.4 C3579.4,199.4 3578.8,191.1 3565.9,193.4 C3559.7,194.2 3557.6,198 3557.6,198" id="Shape"></path>
            <path d="M3551.8,205.4 C3551.8,205.4 3552.8,214.8 3553.1,214.3 C3553.5,213.7 3559.3,208.5 3561.6,208.3" id="Shape"></path>
            <path d="M3578.8,215.4 C3578.8,215.4 3580.9,211 3582.5,213.5 C3584.1,216 3583.5,219.7 3580.8,219.7 C3578.1,219.7 3575.8,218.5 3575.8,217 C3575.8,215.5 3577,213.1 3577.9,213" id="Shape"></path>
            <path d="M3432.7,168.3 C3432.7,168.3 3426.7,170.8 3424.1,175.5 C3421.5,180.2 3419.5,185.1 3419.5,185.1 C3419.5,185.1 3420.5,186.5 3419.9,187.4 C3419.3,188.2 3418,188.9 3417.8,188 C3417.6,187 3418.8,185.6 3418.8,185.6" id="Shape"></path>
            <path d="M3435.2,165.7 C3434.2,165.7 3421.4,182.8 3432.6,195.7 C3433.8,196.5 3435,195.3 3435.1,195.2 C3435.2,195.1 3433,186.9 3437.8,167.9 C3437.9,165.7 3435.1,165.6 3435.1,165.6" id="Shape"></path>
            <path d="M3435.3,195.5 C3435.3,195.5 3444.3,205.7 3445.2,208.4 C3446.1,211.1 3445.5,217.6 3445.6,218.8 C3445.7,219.9 3451.7,217.2 3453.2,218.9 C3454.7,220.6 3453.2,222.2 3451.7,221.6 C3449.2,220.6 3448.1,220.9 3448.1,220.9" id="Shape"></path>
            <path d="M3432.3,195.5 C3432.3,195.5 3426.2,213 3416.3,212.8 C3416,213.6 3420.6,216.1 3419.6,217.1 C3418.6,218.1 3416.1,218.6 3415.3,217 C3414.5,215.4 3413.4,214.3 3414.4,213.1" id="Shape"></path>
            <path d="M3435.8,168.9 C3435.8,168.9 3440.4,183.8 3441.8,185.6 C3443.2,187.4 3446.9,186.4 3448.1,185.4 C3448.5,185.1 3448.9,184.7 3449.3,184.2 C3450.2,183.2 3451.1,182.1 3451.9,182.3 C3453,182.6 3453.7,183.6 3452.8,184.2 C3452,184.8 3449.5,184.9 3449.5,184.9" id="Shape"></path>
            <path d="M3439.2,173.4 C3441.6,173.1 3469.3,172.2 3472.9,171.8" id="Shape"></path>
            <path d="M3399.1,175.3 C3400.4,175 3427.8,174.3 3429.7,174.2" id="Shape"></path>
            <path d="M3399.4,186.8 C3399.4,186.8 3427.3,185.4 3428.1,185.6" id="Shape"></path>
            <path d="M3463.3,171.4 L3465.4,183.5" id="Shape"></path>
            <path d="M3453,184.1 C3462.4,184 3475.3,182.1 3475.3,182.1" id="Shape"></path>
            <path d="M3414.6,174.9 L3416,186.5" id="Shape"></path>
            <path d="M3403,175 L3403.5,186.2" id="Shape"></path>
            <path d="M3449.4,173 L3450.5,183.1" id="Shape"></path>
            <path d="M3435,185.3 L3448.9,184.4" id="Shape"></path>
            <path d="M3527.2,161.5 C3527.2,161.5 3531,168 3535.5,163.6 C3537.3,161.1 3536.8,157.3 3535.7,154.6 C3534.6,155 3534.3,155 3533.5,155.3 C3532.8,155.5 3528,156.9 3528,156.9 C3528,156.9 3526.8,157.2 3526.3,157.4 C3526,159 3526.2,161.2 3528.1,164.1" id="Shape"></path>
            <path d="M3534.8,156.7 C3533,155.9 3533,157.2 3533.4,157.7 C3533.8,158.2 3534.4,158.3 3534.6,157.7 C3534.7,157 3536.2,156.4 3536.2,156.4" id="Shape"></path>
            <path d="M3528.5,165.8 C3528.2,166.1 3512.3,183.4 3521.8,196.6 C3522.9,197.5 3524.2,196.3 3524.3,196.2 C3524.4,196.1 3521.4,186.9 3530.9,167.5 C3530.9,165.6 3528.6,165.6 3528.4,165.9" id="Shape"></path>
            <path d="M3651.2,154.9 C3650.9,155 3654.3,162 3659,156.3 C3660.6,154.1 3660.7,151.4 3660.1,149.1 C3658.8,149.5 3653.1,148.7 3651.8,148.9 C3650.2,151.2 3650.6,154.4 3651.2,155.3" id="Shape"></path>
            <path d="M3652.4,161.2 C3651.5,161.4 3641.5,180.5 3653.7,191.8 C3654.9,192.4 3655.9,191.1 3656,191 C3656.1,190.9 3653,183 3655.2,163.1 C3655,160.9 3652.4,161.2 3652.4,161.2" id="Shape"></path>
            <path d="M3654.6,158.8 L3653.8,161.2" id="Shape"></path>
            <path d="M3660.6,151.2 C3660.6,151.2 3656.9,151 3656.3,151.1 C3655.8,151.2 3656.4,152.6 3657.2,152.4 C3658,152.2 3658,152.2 3658,152.2" id="Shape"></path>
            <path d="M3540.1,153.2 L3525.2,157.7 C3525.2,157.7 3522.8,152.9 3528,149.7 C3532.1,147.2 3535.9,150.2 3536.5,154" id="Shape"></path>
            <path d="M3433.2,161.6 C3433.2,161.6 3435.9,167 3440.9,163.5 C3443,161.4 3443.1,157.7 3442.4,155 C3441.3,155.2 3441,155.2 3440.3,155.3 C3439.6,155.4 3434.9,156 3434.9,156 C3434.9,156 3433.7,156.1 3433.2,156.2 C3432.6,157.7 3432,158.7 3433.4,161.8" id="Shape"></path>
            <path d="M3441.3,156.9 C3439.7,155.9 3439.5,157.1 3439.8,157.6 C3440.2,158.1 3440.7,158.4 3440.9,157.8 C3441.1,157.2 3442.6,156.8 3442.6,156.8" id="Shape"></path>
            <path d="M3446.9,154.3 L3432.1,156.3 C3432.1,156.3 3430.6,151.4 3435.9,149.2 C3440.1,147.4 3443.3,150.9 3443.3,154.6" id="Shape"></path>
            <path d="M3373,221 C3373,221 3341,221.5 3334.5,221.5 C3328,221.5 3322,219 3319,219.5 C3316,220 3303,219.5 3298.5,219.5 C3294,219.5 3277.5,220.5 3271,220 C3264.5,219.5 3235.5,219 3232.5,220 C3229.5,221 3223,224 3220.5,222 C3218,220 3213.5,221.5 3206.5,220 C3199.5,218.5 3194,219.5 3183,219 C3172,218.5 3168.5,220.5 3163,221 C3157.5,221.5 3156,221 3146,220.5 C3136,220 3111.5,221.5 3107.5,221 C3103.5,220.5 3101,219 3099.5,219.5 C3098,220 3093.5,221 3093.5,221 C3093.5,221 3086,219 3068,220.5 C3050,222 3030.5,224 3019.5,222 C3008.5,220 2995,217.5 2989,218 C2983,218.5 2965,220.5 2953,221.5 C2941,222.5 2936.5,221 2935,220.5 C2933.5,220 2929,220 2926,220 C2923,220 2917,220 2917,220" id="Shape"></path>
            <path d="M2917.5,220 C2917.5,220 2885.5,220.5 2879,220.5 C2872.5,220.5 2866.5,218 2863.5,218.5 C2860.5,219 2847.5,218.5 2843,218.5 C2838.5,218.5 2822,219.5 2815.5,219 C2809,218.5 2780,218 2777,219 C2774,220 2767.5,223 2765,221 C2762.5,219 2758,220.5 2751,219 C2744,217.5 2738.5,218.5 2727.5,218 C2716.5,217.5 2713,219.5 2707.5,220 C2702,220.5 2700.5,220 2690.5,219.5 C2680.5,219 2656,220.5 2652,220 C2648,219.5 2645.5,218 2644,218.5 C2642.5,219 2638,220 2638,220 C2638,220 2630.5,218 2612.5,219.5 C2594.5,221 2575,223 2564,221 C2553,219 2539.5,216.5 2533.5,217 C2527.5,217.5 2509.5,219.5 2497.5,220.5 C2485.5,221.5 2481,220 2479.5,219.5 C2478,219 2473.5,219 2470.5,219 C2467.5,219 2461.5,219 2461.5,219" id="Shape"></path>
            <path d="M3432.4,157.5 C3432.4,157.5 3430.7,159.3 3428.8,159.4" id="Shape"></path>
            <path d="M3432.5,159.9 C3432.5,159.9 3430.3,162.4 3429.3,163.2" id="Shape"></path>
            <path d="M3529.5,165.7 C3529.6,165.5 3529.9,165 3529.8,164.3" id="Shape"></path>
            <path d="M3436,164.3 C3436,164.3 3436.1,165.3 3435.9,165.6" id="Shape"></path>
            <path d="M3941,26.5 C3941,26.5 3959,30 3963.5,31 C3968,32 3979,32.5 3979.5,34 C3980,35.5 3980.5,49 3980,51.5 C3979.5,54 3980.5,58.5 3979,60 C3977.5,61.5 3951,58.5 3949.5,57 C3948,55.5 3939.5,53 3941,26.5 Z" id="Shape"></path>
            <path d="M3953,59 C3953,59 3953.5,81.5 3954,98.5 C3954.5,115.5 3956,159.5 3955,163 C3954,166.5 3955,178.5 3955,178.5 L3954.8,198.7" id="Shape"></path>
            <path d="M3802.5,30.5 C3804.5,28 3930,9.5 3937.5,7 C3945,4.5 3964,1 3964,1" id="Shape"></path>
            <path d="M3824,31 C3823,32.5 3815,41 3815,41" id="Shape"></path>
            <path d="M3814,30 C3816,32 3828,42 3828,42" id="Shape"></path>
            <path d="M3841.5,32.5 L3834.5,40" id="Shape"></path>
            <path d="M3833,31 C3835,32.5 3841.5,41 3841.5,41" id="Shape"></path>
            <path d="M3858.5,33 L3851.5,41.5" id="Shape"></path>
            <path d="M3849.5,32 L3859,41" id="Shape"></path>
            <path d="M3880.5,31.5 L3871,39.5" id="Shape"></path>
            <path d="M3870.5,32.5 L3880.5,41" id="Shape"></path>
            <path d="M3899,32 C3899,32 3889.5,41 3887,41.5" id="Shape"></path>
            <path d="M3885.5,31 L3896.5,40" id="Shape"></path>
            <path d="M3915.5,31.5 C3913,33 3905.5,39.5 3905.5,39.5" id="Shape"></path>
            <path d="M3906,31 L3916.5,39.5" id="Shape"></path>
            <path d="M3933,29.5 L3927.5,39" id="Shape"></path>
            <path d="M3924,31 L3938.5,39.5 C3938.5,39.5 3856,42 3851.5,41.5 C3847,41 3828,42 3828,42 L3807,43 C3807.5,41.5 3802.5,30.5 3802.5,30.5 C3802.5,30.5 3811,29.5 3814,30 C3817,30.5 3823.5,30 3828,31 C3832.5,32 3927,31 3929.5,30.5 C3932,30 3939,25.5 3941,26.5" id="Shape"></path>
            <path d="M3972,37 L3974,57 C3974,57 3963,57.5 3961.5,41 C3964,34 3972,37 3972,37 Z" id="Shape"></path>
            <polygon id="Shape" points="3944 36 3945 43 3956 43 3956.5 34.5"></polygon>
            <path d="M3976.5,193 C3975.3,192.2 3961,183.6 3956,180.3 C3955.2,179.8 3955.3,178.7 3956.1,178.2 C3961.3,175.2 3975.5,165 3975.5,165 C3975.5,165 3952.5,145.5 3957,144.5 C3961.5,143.5 3977,129.5 3977,129.5 L3954.5,109 L3976.5,87 L3953.5,69.5" id="Shape"></path>
            <path d="M3954,87 L3976.5,87" id="Shape"></path>
            <path d="M3954.5,109 L3976,111.5" id="Shape"></path>
            <path d="M3954.5,126 L3977,129.5" id="Shape"></path>
            <path d="M3957,144.5 L3977,145" id="Shape"></path>
            <path d="M3955,163 L3976.7,165.2" id="Shape"></path>
            <path d="M3960,8.5 C3961.5,9 3970.5,19 3970.5,19" id="Shape"></path>
            <path d="M3957,18.5 L3975.5,32.5 C3975.5,32.5 3966,-0.5 3964,1 C3962,2.5 3955,26.5 3954.5,28" id="Shape"></path>
            <path d="M3963.5,31 C3963.5,31 3961.5,17 3966.5,11" id="Shape"></path>
            <path d="M3977.5,199.5 C3977.5,199.5 3976.5,179.5 3977,176 C3977.5,172.5 3977,129.5 3977,129.5 C3977,129.5 3976.5,97 3976.5,87 C3976.5,77 3979,60 3979,60" id="Shape"></path>
            <path d="M3831,42 C3831,42 3830,46.5 3832,54.5 C3832,54.5 3811.5,51 3809.5,50 C3807.5,49 3809.5,43 3809.5,43" id="Shape"></path>
            <path d="M3829.8,166.3 C3829.9,164.8 3817.3,143.2 3817.3,143.2 L3805.3,166" id="Shape"></path>
            <path d="M3799.5,165.5 C3802,165.5 3839,164.5 3839,164.5 C3839,164.5 3842.5,171.5 3841,171 C3839.5,170.5 3795.5,171 3795.5,171 L3799.5,165.5 Z" id="Shape"></path>
            <polyline id="Shape" points="3841 171 3840.5 177.5 3793.5 177 3795.5 171"></polyline>
            <polyline id="Shape" points="3840.5 177.5 3843.4 177.4 3843.5 182.6 3792.9 183.3 3793.1 177.8"></polyline>
            <path d="M3922.5,198.5 C3923.8,198.3 4006.7,198.8 4007,199 L4008,219.5 C4008,219.5 3922,220 3922,218 C3922,216 3922.5,198.5 3922.5,198.5 Z" id="Shape"></path>
            <path d="M3979.5,34 C3979.5,34 4014.7,34.8 4018.7,34.5" id="Shape"></path>
            <path d="M3980,41.2 C3981.8,41.2 4006,42.4 4008.5,42.2 C4011,42 4017.7,42.4 4018.5,42.2" id="Shape"></path>
            <path d="M3922,215 C3922,215 3906,212 3903,212 C3900,212 3893,218 3889,217 C3885,216 3859,218 3856,217 C3853,216 3842,216 3842,216 L3832,218 C3832,218 3794,218 3789,217 C3784,216 3769,217 3769,217 C3769,217 3760,222 3757,221 C3754,220 3741,220 3741,220 L3691,217 L3653,217 L3646,218" id="Shape"></path>
            <path d="M3647,218 C3647,218 3633,215 3630,215 C3627,215 3620,221 3616,220 C3612,219 3586,221 3583,220 C3580,219 3569,219 3569,219 L3559,221 C3559,221 3521,221 3516,220 C3511,219 3496,220 3496,220 C3496,220 3487,225 3484,224 C3481,223 3468,223 3468,223 L3418,220 L3380,220 L3373,221" id="Shape"></path>
            <path d="M2461.5,219.5 C2461.5,219.5 2448.5,216.5 2445.5,216.5 C2442.5,216.5 2435,220 2431,219 C2427,218 2401,220 2398,219 C2395,218 2384,218 2384,218 L2374,220 C2374,220 2336,220 2331,219 C2326,218 2311,219 2311,219 C2311,219 2302,224 2299,223 C2296,222 2283,222 2283,222 L2233,219 L2195,219 L2188,220" id="Shape"></path>
            <path d="M2189,220 C2189,220 2157,220.5 2150.5,220.5 C2144,220.5 2138,218 2135,218.5 C2132,219 2119,218.5 2114.5,218.5 C2110,218.5 2093.5,219.5 2087,219 C2080.5,218.5 2051.5,218 2048.5,219 C2045.5,220 2039,223 2036.5,221 C2034,219 2029.5,220.5 2022.5,219 C2015.5,217.5 2010,218.5 1999,218 C1988,217.5 1984.5,219.5 1979,220 C1973.5,220.5 1972,220 1962,219.5 C1952,219 1927.5,220.5 1923.5,220 C1919.5,219.5 1917,218 1915.5,218.5 C1914,219 1909.5,220 1909.5,220 C1909.5,220 1902,218 1884,219.5 C1866,221 1846.5,223 1835.5,221 C1824.5,219 1811,216.5 1805,217 C1799,217.5 1781,219.5 1769,220.5 C1757,221.5 1752.5,220 1751,219.5 C1749.5,219 1745,219 1742,219 C1739,219 1733,219 1733,219" id="Shape"></path>
            <path d="M1733.5,219 C1733.5,219 1701.5,219.5 1695,219.5 C1688.5,219.5 1682.5,217 1679.5,217.5 C1676.5,218 1663.5,217.5 1659,217.5 C1654.5,217.5 1638,218.5 1631.5,218 C1625,217.5 1596,217 1593,218 C1590,219 1583.5,222 1581,220 C1578.5,218 1574,219.5 1567,218 C1560,216.5 1554.5,217.5 1543.5,217 C1532.5,216.5 1529,218.5 1523.5,219 C1518,219.5 1516.5,219 1506.5,218.5 C1496.5,218 1472,219.5 1468,219 C1464,218.5 1461.5,217 1460,217.5 C1458.5,218 1454,219 1454,219 C1454,219 1446.5,217 1428.5,218.5 C1410.5,220 1391,222 1380,220 C1369,218 1355.5,215.5 1349.5,216 C1343.5,216.5 1325.5,218.5 1313.5,219.5 C1301.5,220.5 1297,219 1295.5,218.5 C1294,218 1289.5,218 1286.5,218 C1283.5,218 1277.5,218 1277.5,218" id="Shape"></path>
            <path d="M1277.5,218 C1277.5,218 1264,215.5 1261,215.5 C1258,215.5 1251,221.5 1247,220.5 C1243,219.5 1217,221.5 1214,220.5 C1211,219.5 1200,219.5 1200,219.5 L1190,221.5 C1190,221.5 1152,221.5 1147,220.5 C1142,219.5 1127,220.5 1127,220.5 C1127,220.5 1118,225.5 1115,224.5 C1112,223.5 1099,223.5 1099,223.5 L1049,220.5 L1011,220.5 L1004,221.5" id="Shape"></path>
            <path d="M1005,221 C1005,221 973,221.5 966.5,221.5 C960,221.5 954,219 951,219.5 C948,220 935,219.5 930.5,219.5 C926,219.5 909.5,220.5 903,220 C896.5,219.5 867.5,219 864.5,220 C861.5,221 855,224 852.5,222 C850,220 845.5,221.5 838.5,220 C831.5,218.5 826,219.5 815,219 C804,218.5 800.5,220.5 795,221 C789.5,221.5 788,221 778,220.5 C768,220 743.5,221.5 739.5,221 C735.5,220.5 733,219 731.5,219.5 C730,220 725.5,221 725.5,221 C725.5,221 718,219 700,220.5 C682,222 662.5,224 651.5,222 C640.5,220 627,217.5 621,218 C615,218.5 597,220.5 585,221.5 C573,222.5 568.5,221 567,220.5 C565.5,220 561,220 558,220 C555,220 549,220 549,220" id="Shape"></path>
            <path d="M549.5,220 C549.5,220 535.5,217 532.5,217 C529.5,217 522.5,223 518.5,222 C514.5,221 488.5,223 485.5,222 C482.5,221 471.5,221 471.5,221 L461.5,223 C461.5,223 423.5,223 418.5,222 C413.5,221 398.5,222 398.5,222 C398.5,222 388.5,224.5 385.5,223.5 C382.5,222.5 370.5,225 370.5,225 L320.5,222 L282.5,222 L275.5,223" id="Shape"></path>
            <path d="M276.5,223 C276.5,223 261,220 258,220 C255,220 247,222 243,221 C239,220 213,222 210,221 C207,220 196,220 196,220 L186,222 C186,222 148,222 143,221 C138,220 123,221 123,221 C123,221 115,223.5 112,222.5 C109,221.5 92.5,222 92.5,222 L45,221 L7,221 L0,222" id="Shape"></path>
        </g>
    </g>
</svg>