<?xml version="1.0" encoding="UTF-8"?>
<svg width="4000px" height="320px" viewBox="0 0 4000 320" version="1.1" xmlns="http://www.w3.org/2000/svg" xmlns:xlink="http://www.w3.org/1999/xlink">
    <!-- Generator: Sketch 51.2 (57519) - http://www.bohemiancoding.com/sketch -->
    <title>Engelsk</title>
    <desc>Created with Sketch.</desc>
    <defs></defs>
    <g id="Engelsk" stroke="none" stroke-width="1" fill="none" fill-rule="evenodd">
        <g id="Group" transform="translate(-136.000000, 44.000000)">
            <path d="M3985.1,31.6 C3985.1,31.6 3979.4,33 3978.9,36.4 C3978.4,39.8 3983.2,48.1 3989,48.5 C3990.9,48.7 3992.6,48.2 3993.9,47.4 C3996.4,45.9 3997.5,43.2 3996.6,41.4 C3995.2,38.7 3993.6,32.3 3985.1,31.6 Z" id="Shape" stroke="#FFFFFF"></path>
            <path d="M3995.4,49.2 C3995.4,49.2 4010.3,63.8 4027.2,60.4 C4044.1,57 4046,58.1 4046,55.8 C4046,53.5 4044.2,52.4 4043.5,47.3 C4042.8,42.3 4045.1,42.7 4041.7,38.2 C4039.3,34.9 4038.4,30.9 4037.2,28.5 C4036.7,27.5 4036.1,26.8 4035.3,26.6 C4032.6,25.7 4032.6,25.7 4032.6,25.7 C4032.6,25.7 4027.8,35.5 4024.8,38.3 C4021.8,41.1 4014.3,50.9 3996.3,45.7" id="Shape" stroke="#FFFFFF"></path>
            <path d="M4036.8,28.4 C4036.8,28.4 4053,18.6 4052.8,13.1 C4052.6,7.6 4050.5,3.7 4051.7,2.4 C4052.9,1.1 4054.2,1.7 4055.1,4 C4056,6.3 4059,10.4 4058.1,13.4 C4057.2,16.4 4054.2,18.2 4053.5,17.3" id="Shape" stroke="#FFFFFF"></path>
            <path d="M4041,38 C4041,38 4043.6,32.1 4046.6,31.4 C4049.6,30.7 4057.6,36 4065.6,34.4 C4073.6,32.8 4082.1,27.3 4084.1,25 C4086.2,22.7 4089.6,23.2 4087.1,27.1 C4084.6,31 4083.2,32.6 4080.5,32.4 C4077.8,32.2 4076.4,32.4 4076.4,32.4" id="Shape" stroke="#FFFFFF"></path>
            <path d="M3993.9,47.7 C3994.6,47.7 4009.3,66.3 4012.3,67.7 C4015.3,69.1 4016.4,69.5 4017.1,66.8 C4017.8,64.1 4021.7,51.5 4026.9,48.3 C4032.2,45.1 4032.8,43.5 4030.8,44.2 C4028.7,44.9 4026.5,46.5 4026.5,46.5" id="Shape" stroke="#FFFFFF"></path>
            <path d="M4004.3,46.9 C4004.3,46.9 4018.9,44.2 4018.5,40.3 C4018,36.4 4007.5,25.7 4004.6,24.1 C4001.7,22.5 4001.6,22.5 4001.6,22.5" id="Shape" stroke="#FFFFFF"></path>
            <path d="M4005.8,17.9 C4005.8,17.9 4007.1,21.6 4004.5,24.1" id="Shape" stroke="#FFFFFF"></path>
            <path d="M4003.4,22.8 C4003.4,22.8 3990.1,17 3989.5,14.7 C3988.9,12.4 3997.5,7.6 3997.3,0.3 C4004.2,2.4 4014.5,11.3 4014.5,11.3 L4006,22.6" id="Shape" stroke="#FFFFFF"></path>
            <path d="M3990.1,33.7 C3990.1,33.7 3989.8,34.1 3989.3,34.6 C3988.1,36 3985.9,38.6 3986.2,39.6 C3986.7,41 3990.3,36.4 3990.3,36.4" id="Shape" stroke="#FFFFFF"></path>
            <path d="M3978.2,8.7 C3978.4,9.4 3979.1,24.7 3985.1,31.6" id="Shape" stroke="#FFFFFF"></path>
            <path d="M3970.9,4.8 C3971.4,5.5 3970.4,14.6 3971.4,17.4 C3972.3,20.1 3979.3,31.1 3982.3,33.2" id="Shape" stroke="#FFFFFF"></path>
            <path d="M3966.8,17.6 C3966.8,17.6 3968.6,26.5 3972.7,30.2 C3976.8,33.9 3977.3,35.1 3979.6,35.8" id="Shape" stroke="#FFFFFF"></path>
            <path d="M3965.4,30 C3966.3,30 3970.7,36.3 3979.6,39" id="Shape" stroke="#FFFFFF"></path>
            <polyline id="Shape" stroke="#FFFFFF" points="3995.2 4.1 3986.8 0.1 3989.4 14.7"></polyline>
            <path d="M4059.5,125 C4059.5,125 4057.1,124.2 4057,120 C4056.8,115.8 4057.5,115.8 4056.3,111.2 C4055,106.6 4053.6,103.4 4052.9,100.9 C4052.2,98.4 4055.3,100.7 4056.9,103.6 C4058.5,106.5 4060.9,111.1 4061.3,113.7 C4061.7,116.3 4063.7,122.9 4063.5,123.6 C4063.5,123.6 4062.1,124.6 4060.8,126.2 C4059,128.3 4057.3,131.4 4059.2,134.3 C4062.5,139.3 4065.4,139.5 4067.7,137.2 C4070.1,134.9 4072.2,129.7 4071,126.7 C4069.7,123.6 4067.4,122.3 4067.4,122.3 C4067.4,122.3 4068.3,99.6 4063.4,97.3 C4058.5,95 4060.1,98.3 4060.9,99.2 C4061.6,100.2 4065.3,108.2 4065.1,111.2 C4064.9,114.3 4063.3,118.7 4064.4,121.5" id="Shape" stroke="#FFFFFF"></path>
            <path d="M4062.4,137.6 C4061.9,137.6 4056.4,144.2 4057.7,151 C4058.9,157 4060.3,159.4 4065,160.4 C4068.6,161.2 4071.8,161.8 4074.5,155.8 C4076.2,152 4076.8,148.1 4073,141.9 C4070.3,137.5 4065,140.3 4063.8,145.7 C4062.6,150.8 4062,154.3 4063.4,157.5" id="Shape" stroke="#FFFFFF"></path>
            <path d="M4074.2,156.2 C4074.2,156.2 4075.5,159.1 4080.3,151.7 C4085.1,144.3 4085.6,141 4086.6,139.4 C4087.6,137.8 4088,137.9 4087.9,139.5 C4087.8,141.1 4087.3,143.3 4087.7,143.2 C4088.2,143.1 4090.7,140.2 4092.2,138.6 C4093.7,137 4095.3,135.9 4094.5,139.5 C4093.7,143.1 4093,146.4 4090.6,148.6 C4088.2,150.8 4085.6,153.5 4083.3,154.4" id="Shape" stroke="#FFFFFF"></path>
            <path d="M4059.4,157.7 C4059.4,157.7 4057.6,156.8 4055.6,155.9 C4053.6,155 4054.2,156.9 4053.4,157.5 C4052.6,158.2 4051,158.6 4049.1,154.9 C4047.3,151.3 4042.8,143.1 4041.5,143.5 C4040.1,143.9 4038.7,145.1 4040.5,147.9 C4042.3,150.7 4044.1,151.1 4044.4,152.4 C4044.7,153.6 4042.5,152.7 4043.2,154.3 C4043.9,155.9 4044.3,156.1 4045.7,157.1 C4047.1,158.1 4051.2,162 4054.2,160.1 C4057.2,158.2 4057.5,159.6 4057.5,159.6" id="Shape" stroke="#FFFFFF"></path>
            <path d="M4059.2,140.5 C4058.7,140.4 4054.5,141.1 4049,135.6 C4043.6,130.2 4042.7,128.8 4043.2,126.8 C4043.7,124.8 4043.9,124.5 4045.8,128 C4047.7,131.5 4048.2,132.5 4048.2,132.5 C4048.2,132.5 4046.8,129.8 4047.7,129.3 C4048.6,128.8 4049.2,131.8 4050.2,133.3 C4051.2,134.8 4054.5,137.3 4056.2,137.6" id="Shape" stroke="#FFFFFF"></path>
            <path d="M4073.3,139.2 C4073.3,139.2 4081.8,133.4 4083.4,128.1 C4084.9,122.7 4083.7,119.5 4082.7,122 C4081.7,124.5 4080.8,124.5 4080.8,126.7" id="Shape" stroke="#FFFFFF"></path>
            <path d="M4088.1,107.2 C4088.1,107.2 4086.9,121 4084.5,122.1" id="Shape" stroke="#FFFFFF"></path>
            <path d="M4094,85.8 C4094,85.8 4083.1,83.2 4081.7,96.7 C4082.9,110.1 4093,107 4093.6,106.7 C4094.1,106.4 4099.4,104.5 4099.2,95.7 C4098.7,87.9 4095.2,86.9 4094,85.8 Z" id="Shape" stroke="#FFFFFF"></path>
            <path d="M4090.4,84.5 C4090.4,84.5 4088.9,81 4090.8,79.8 C4092.6,78.7 4094,78.7 4094.5,80.1 C4095,81.5 4094.8,84.1 4094.1,85" id="Shape" stroke="#FFFFFF"></path>
            <path d="M4085,93.8 C4085,93.8 4085,93.8 4085,93.8 C4085.4,93.4 4084.9,92.8 4084.6,93.2 C4084.6,93.2 4084.5,93.3 4084.5,93.3 C4084.1,93.6 4084.6,94.2 4085,93.8 Z" id="Shape" fill-rule="nonzero"></path>
            <path d="M4084.4,99.1 C4084.5,99.3 4084.6,99.4 4084.7,99.6 C4084.9,100 4085.6,99.6 4085.3,99.2 C4085.2,99 4085.1,98.9 4085,98.7 C4084.8,98.3 4084.1,98.7 4084.4,99.1 Z" id="Shape" fill-rule="nonzero"></path>
            <path d="M4086.6,103.1 C4086.7,103.6 4087,104 4087.4,104.2 C4087.8,104.5 4088.2,103.8 4087.8,103.6 C4087.5,103.4 4087.4,103.2 4087.3,102.9 C4087.2,102.4 4086.5,102.6 4086.6,103.1 Z" id="Shape" fill-rule="nonzero"></path>
            <path d="M4092.7,103.8 C4093.3,104 4094,103.8 4094.4,103.3 C4094.7,102.9 4094.2,102.4 4093.9,102.8 C4093.6,103.1 4093.3,103.2 4092.9,103.1 C4092.4,102.9 4092.2,103.7 4092.7,103.8 Z" id="Shape" fill-rule="nonzero"></path>
            <path d="M4096.9,97.4 C4097,97.5 4097,97.7 4096.9,97.8 C4096.7,98.2 4097.3,98.6 4097.5,98.2 C4097.7,97.7 4097.7,97.3 4097.3,96.9 C4097.2,96.5 4096.6,97.1 4096.9,97.4 Z" id="Shape" fill-rule="nonzero"></path>
            <path d="M4096,90.6 C4096.1,90.6 4096.2,90.7 4096.3,90.8 C4096.5,91.2 4097.2,90.8 4096.9,90.4 C4096.7,90 4096.4,89.8 4096,89.8 C4095.5,89.8 4095.5,90.5 4096,90.6 Z" id="Shape" fill-rule="nonzero"></path>
            <path d="M4092.4,88 C4091.9,88 4091.3,88 4090.8,88 C4090.3,88 4090.3,88.8 4090.8,88.8 C4091.3,88.8 4091.9,88.8 4092.4,88.8 C4092.9,88.8 4092.9,88 4092.4,88 Z" id="Shape" fill-rule="nonzero"></path>
            <path d="M4087.8,88.8 C4087.3,88.9 4086.9,89.1 4086.6,89.6 C4086.3,90 4087,90.4 4087.2,90 C4087.3,89.8 4087.5,89.6 4087.8,89.6 C4088.2,89.5 4088.2,88.7 4087.8,88.8 Z" id="Shape" fill-rule="nonzero"></path>
            <path d="M3847.5,213.8 L3832.2,218.5" id="Shape" stroke="#FFFFFF"></path>
            <path d="M3851.9,212.5 L3896.7,198.1" id="Shape" stroke="#FFFFFF"></path>
            <path d="M3901.1,196.5 L3915.5,192.1 C3915.5,192.1 3913.7,187 3928.1,188.6 C3929,190.8 3918.8,195.7 3917.7,195.2 C3916.6,194.8 3914.2,195 3915.7,191.9" id="Shape" stroke="#FFFFFF"></path>
            <path d="M3877,183 C3876.6,183.7 3861.7,192.3 3867,199.2 C3872.3,206.1 3878.1,196.3 3878.1,193.2 C3878.1,190.1 3877,183 3877,183 Z" id="Shape" stroke="#FFFFFF"></path>
            <path d="M3866.4,225.2 C3866,224.9 3858.6,222 3861.5,216.9 C3864.4,211.8 3867,216.5 3866.9,217.9 C3867.9,217.5 3869.4,214.1 3871.8,215.6 C3874.2,217.1 3874.5,224.6 3866.2,226" id="Shape" stroke="#FFFFFF"></path>
            <path d="M3844.9,239 C3844.9,239 3842.3,237.7 3841.6,238.3 C3840.9,238.9 3841.5,240.4 3841.2,241.9 C3840.8,243.5 3837.5,246.6 3842.1,246.8 C3846.7,247 3846,245.8 3844.6,242.9" id="Shape" stroke="#FFFFFF"></path>
            <path d="M3880.5,241.5 C3889.7,246.3 3896.2,244.3 3897.3,243.5 C3898.4,242.7 3896.3,240.5 3891.9,241.3 C3887.5,242.1 3885.2,241.4 3885.2,241.4 L3884,240.7 C3884,240.7 3869.4,239.1 3866.2,239.4 C3863,239.6 3843.9,240.7 3843.9,240.7" id="Shape" stroke="#FFFFFF"></path>
            <path d="M3749.4,200.8 C3749.1,199.9 3746.5,194.9 3751,189.2 C3755.4,183.4 3755.4,182.3 3756.9,183.1 C3758.3,183.9 3760.7,184.3 3758.5,185 C3756.3,185.7 3754.4,186.1 3754.4,186.1" id="Shape" stroke="#FFFFFF"></path>
            <path d="M3774.4,194.1 C3774.4,193.5 3778.3,189.4 3774.8,185.7 C3771.4,181.9 3767.4,179.2 3766.4,179.5 C3765.4,179.8 3762.9,179.7 3765.3,180.8 C3767.7,181.9 3768.2,182.1 3769.1,181.9" id="Shape" stroke="#FFFFFF"></path>
            <path d="M3750.4,230.3 C3750.4,230.3 3742,240.6 3744.7,242.3 C3747.5,244 3750.8,233.5 3750.7,231.8" id="Shape" stroke="#FFFFFF"></path>
            <path d="M3776.8,237.8 C3776.8,237.8 3773.9,248.9 3778.9,247.1 C3783.9,245.3 3778.8,241 3778.1,238.6" id="Shape" stroke="#FFFFFF"></path>
            <path d="M3763.7,186.8 C3763.7,186.8 3753.6,191.7 3756.8,197 C3760,202.3 3763,200.9 3764.2,199.7 C3765.4,198.5 3767.3,192.6 3763.7,186.8 Z" id="Shape" stroke="#FFFFFF"></path>
            <path d="M3767.2,214.4 C3767.2,214.4 3766.6,218.3 3764.2,217.4 C3761.8,216.5 3763.3,210.1 3765,206.7 C3768.3,207.3 3774.8,210.9 3774.6,213.2 C3774.5,215.6 3771,217.2 3767.2,214.4 Z" id="Shape" stroke="#FFFFFF"></path>
            <path d="M3765.4,196.9 C3765.7,196.9 3774.3,195 3774.3,195 C3774.3,195 3771,200.2 3774.4,204.3 C3779.4,210.2 3790.2,220.1 3785.7,228.8 C3781.2,237.4 3778.2,238.6 3778.2,238.6 C3778.2,238.6 3772.4,232.3 3764.5,232.3 C3756.5,232.3 3750.8,231.7 3750.8,231.7 C3750.8,231.7 3755.5,219 3756,216.3 C3756.3,214.4 3753.7,209.3 3750.8,205.6 C3747.9,201.9 3749.8,201.3 3749.8,201.3 C3749.8,201.3 3757.2,198.6 3757.6,198.5" id="Shape" stroke="#FFFFFF"></path>
            <path d="M3865.6,195.4 L3857.7,192.7 C3857.7,192.7 3845.2,199.9 3845.1,200.6 C3845,201.3 3847.6,213.8 3848.5,214.5 C3849.4,215.2 3853.5,216.1 3853.9,215.1 C3854.3,214.1 3851.6,213.3 3850.1,213.2 C3848.5,213.1 3848.5,213.1 3848.5,213.1" id="Shape" stroke="#FFFFFF"></path>
            <path d="M3875.7,199.1 L3885.2,203.3 C3885.2,203.3 3892.5,206.6 3893.8,205.7 C3895.1,204.8 3896.8,198.8 3896.8,198.8 C3896.8,198.8 3897.2,196.4 3898.9,196.1 C3900.7,195.8 3901.6,196.5 3900.9,197.5 C3900.2,198.5 3898,198.8 3897.4,199" id="Shape" stroke="#FFFFFF"></path>
            <path d="M3856.5,195 C3856.5,195 3853.1,210.4 3853.2,210.8" id="Shape" stroke="#FFFFFF"></path>
            <path d="M3844.3,240.2 C3844.6,239.8 3850.9,231.3 3852.5,216.2" id="Shape" stroke="#FFFFFF"></path>
            <path d="M3882.3,204.4 C3882.3,204.4 3875.5,207.7 3877.9,216.5 C3880.2,225.3 3882.8,225.1 3884.5,229.2 C3886.2,233.3 3886.3,237.8 3885.1,239.9" id="Shape" stroke="#FFFFFF"></path>
            <path d="M3481.6,208.3 C3481.3,208.3 3471.2,209.7 3469.8,216.8 C3468.4,223.9 3470.5,224 3473,223.4 C3475.5,222.7 3482.6,219 3482.7,209.5 C3481,209.1 3479.7,210.6 3479.7,210.6" id="Shape" stroke="#FFFFFF"></path>
            <path d="M3482.4,208.4 C3482.4,208.4 3488.2,202.2 3490.8,200.6 C3493.3,199 3500.1,194.8 3501.4,196 C3502.7,197.3 3497.2,201.9 3495.7,203 C3495,203.5 3493.2,204.7 3490.9,206 C3488.3,207.5 3485.2,209 3482.7,209.6" id="Shape" stroke="#FFFFFF"></path>
            <path d="M3481.1,218.5 C3481.1,218.5 3502.1,217.7 3508.1,234.3 C3504.7,241.8 3493.8,242.4 3491.7,242.8 C3489.6,243.2 3484.2,244.3 3483.9,243.7 C3483.7,243 3481.6,243.7 3485.5,239 C3489.4,234.3 3488.8,231.1 3486.9,228.8 C3485,226.5 3480.6,222.1 3477.1,221.6" id="Shape" stroke="#FFFFFF"></path>
            <path d="M3483.7,220.7 C3483.9,221.5 3482.7,230.5 3481.6,230.4 C3480.5,230.3 3476.7,225.6 3475.5,225.5 C3474.3,225.4 3472.7,224.7 3473.6,225.9 C3474.5,227.1 3475.9,226.8 3475.9,226.8" id="Shape" stroke="#FFFFFF"></path>
            <path d="M3491.3,220 C3491.6,220 3494.7,217.8 3496.1,218.4 C3497.5,219 3503.1,221.8 3504.2,222.1 C3505.3,222.4 3510.1,224.3 3509,225.4 C3507.9,226.5 3507.3,226.7 3506,224.4" id="Shape" stroke="#FFFFFF"></path>
            <path d="M3505.9,238.4 C3505.9,238.4 3508.5,241.5 3509.8,241.2 C3511.1,241 3517,230.6 3518.9,230.5 C3520.8,230.4 3531.4,236.4 3531.2,239 C3531,241.6 3525,240 3522.9,237.5 C3520.8,235 3519.7,233.3 3519.7,232.9" id="Shape" stroke="#FFFFFF"></path>
            <path d="M3483.3,243 C3483.3,243 3479,248 3478.4,247.8 C3477.8,247.6 3472.9,243.2 3471.6,239.8 C3470.3,236.4 3469.3,234.8 3468.5,238.5 C3467.7,242.2 3471.8,246.5 3475.6,247.1" id="Shape" stroke="#FFFFFF"></path>
            <path d="M3482.3,218.3 C3482.6,218.2 3484.6,212.3 3499.2,213.2 C3513.8,214.1 3512.3,209.4 3517.2,207.5 C3520.3,206.3 3524.2,205.4 3528,206.5" id="Shape" stroke="#FFFFFF"></path>
            <path d="M3539.4,199.6 C3539.4,199.6 3529.3,200 3531.8,210.9 C3536.8,220.5 3545.8,217 3549.7,213.4 C3551.5,210.6 3553.3,197.9 3539.4,199.6 Z" id="Shape" stroke="#FFFFFF"></path>
            <path d="M3540.7,201.6 C3540.7,201.6 3540.7,201.5 3540.7,201.5 C3540.7,201 3539.9,201 3539.9,201.5 C3539.9,201.5 3539.9,201.6 3539.9,201.6 C3539.9,202 3540.7,202 3540.7,201.6 Z" id="Shape" fill-rule="nonzero"></path>
            <path d="M3545,202.4 C3545,202.5 3545,202.6 3545,202.7 C3545,203.2 3545.8,203.2 3545.8,202.7 C3545.8,202.6 3545.8,202.5 3545.8,202.4 C3545.8,201.9 3545,201.9 3545,202.4 Z" id="Shape" fill-rule="nonzero"></path>
            <path d="M3547.8,206.9 C3547.8,207 3547.8,207.1 3547.7,207.2 C3547.5,207.6 3548.1,208 3548.3,207.6 C3548.5,207.3 3548.5,207.1 3548.4,206.8 C3548.4,206.2 3547.7,206.4 3547.8,206.9 Z" id="Shape" fill-rule="nonzero"></path>
            <path d="M3547.4,210.1 C3546.8,210.1 3546.4,210.7 3546.6,211.2 C3546.7,211.7 3547.5,211.5 3547.3,211 C3547.3,210.9 3547.4,210.9 3547.4,210.8 C3547.9,210.9 3547.9,210.1 3547.4,210.1 Z" id="Shape" fill-rule="nonzero"></path>
            <path d="M3541.5,211.3 C3541,211.3 3540.4,211.4 3540.2,212 C3540.1,212.4 3540.3,212.9 3540.7,213 C3541.2,213.1 3541.4,212.4 3540.9,212.3 C3540.8,212.3 3541,212.1 3541.1,212.1 C3541.2,212.1 3541.3,212.1 3541.5,212.1 C3542,212 3542,211.3 3541.5,211.3 Z" id="Shape" fill-rule="nonzero"></path>
            <path d="M3535.4,205.5 C3534.8,205.1 3533.8,205.7 3534,206.5 C3534.2,207.2 3535.3,207.3 3535.6,206.7 C3535.9,206.3 3535.2,205.9 3535,206.3 C3534.8,206.6 3534.6,205.9 3535,206.2 C3535.4,206.5 3535.8,205.8 3535.4,205.5 Z" id="Shape" fill-rule="nonzero"></path>
            <path d="M3540.2,201.1 C3539.3,201.8 3539.8,203.1 3541,202.9 C3541.5,202.8 3541.3,202.1 3540.8,202.2 C3540.6,202.2 3540.3,201.9 3540.6,201.8 C3541,201.4 3540.6,200.8 3540.2,201.1 Z" id="Shape" fill-rule="nonzero"></path>
            <path d="M3531.3,205.4 C3531.3,205.4 3527.5,204.7 3528,206.6 C3528.5,208.6 3530.6,208.9 3531.4,208.6" id="Shape" stroke="#FFFFFF"></path>
            <path d="M3343.1,188.5 C3343.1,188.5 3343.9,189.1 3345.3,189.9 C3347.7,191.3 3351.9,193.2 3357.1,193.6" id="Shape" stroke="#FFFFFF"></path>
            <path d="M3348.5,180.7 C3348.3,181.1 3352.3,186.6 3361.9,185.6 C3363.7,180.8 3349.5,178.4 3348.5,180.7 Z" id="Shape" stroke="#FFFFFF"></path>
            <path d="M3354.3,192.6 C3354.3,192.6 3358.6,187.2 3361.9,185.5" id="Shape" stroke="#FFFFFF"></path>
            <path d="M3346.8,190.4 C3346.8,189.9 3347.9,187.8 3348.4,180.7" id="Shape" stroke="#FFFFFF"></path>
            <path d="M3346,191 C3346,191 3343.5,195.7 3346.1,199.1 C3348.7,202.5 3352.7,199.9 3353.2,198.8 C3353.7,197.8 3355.2,195.4 3354.2,193.1" id="Shape" stroke="#FFFFFF"></path>
            <path d="M3354.9,197.2 C3355.4,197.1 3376.2,217 3371.2,226.4 C3366.2,235.9 3354.2,207.6 3354.7,199.4" id="Shape" stroke="#FFFFFF"></path>
            <path d="M3360.2,200.6 C3360.2,200.6 3369.7,198.8 3373.3,202.5 C3377,206.2 3380.2,208.4 3381,209.9 C3381.8,211.4 3383.6,213.4 3384.2,212 C3384.8,210.6 3385.3,209.5 3384.1,208.6 C3382.8,207.7 3380.3,207.1 3379.9,207" id="Shape" stroke="#FFFFFF"></path>
            <path d="M3354.5,204.6 C3354.5,204.6 3352.5,210.5 3350.7,210.4 C3348.9,210.3 3344.3,204.9 3343.4,204 C3342.5,203.1 3344.3,201.1 3341.9,201.1 C3339.5,201.1 3339.4,201.6 3339.8,202.4" id="Shape" stroke="#FFFFFF"></path>
            <path d="M3336.8,200.5 C3336.3,200.4 3324.7,200.6 3324.8,202.9 C3324.8,203.2 3325,203.4 3325.3,203.5 C3327.6,204.8 3337.2,203.6 3337.8,202.7 C3338.4,201.7 3338.6,200.8 3336.8,200.5 Z" id="Shape" stroke="#FFFFFF"></path>
            <path d="M3325,204.5 C3325,204.5 3327.5,209.3 3328.4,210.7 C3329.3,212.1 3329.3,212.1 3329.3,212.1 C3329.3,212.1 3335.2,212.6 3335.9,211.8 C3336.5,211 3338.3,206.9 3338.3,206.9 C3338.3,206.9 3341.6,204.8 3340.9,203.5 C3340.3,202.2 3339.6,201.6 3338.6,201.9" id="Shape" stroke="#FFFFFF"></path>
            <path d="M3362.2,222.8 C3362.2,222.8 3347.1,221.7 3344.4,222.8 C3341.8,223.9 3336.3,240.3 3337,246.5 C3334.9,244.4 3327.7,241.2 3326.4,242.2 C3325.1,243.2 3325.9,245.1 3328.8,246.2 C3331.7,247.3 3337.4,247.8 3337.4,247.8" id="Shape" stroke="#FFFFFF"></path>
            <path d="M3367.1,224.8 C3367.1,224.8 3368.5,239.2 3372.6,240.6 C3376.8,242 3394.2,236.7 3394.2,236.7 C3394.2,236.7 3394.8,234.6 3395.3,234.8 C3395.8,235.1 3403.1,240.9 3402.2,242.2 C3401.3,243.5 3395.8,240.2 3394.8,238.8" id="Shape" stroke="#FFFFFF"></path>
            <path d="M3345.4,192.8 C3345.4,192.8 3349.8,193.8 3349.9,194.7 C3350,195.6 3347,194.4 3347,194.4" id="Shape" stroke="#FFFFFF"></path>
            <path d="M3630.2,190.2 C3630.2,190.2 3625.3,194.4 3624.7,197.6 C3624.1,200.8 3624.9,203.7 3627,203.3 C3627.8,203.1 3629.3,202.2 3630.8,200.8 C3632.9,198.8 3635,195.9 3634.4,193.6 C3633.4,189.8 3630.9,190 3630.2,190.2 Z" id="Shape" stroke="#FFFFFF"></path>
            <path d="M3631.2,200.7 L3634.6,205.4 C3634.6,205.4 3632,208.2 3634.4,212.6 C3636.8,217 3643.3,221.9 3643.3,221.9 C3643.3,221.9 3641.8,227.6 3638.2,228.9 C3634.6,230.2 3630.4,231 3630.6,231.9 C3630.8,232.8 3634.9,235.1 3637.8,235.5 C3640.6,235.9 3655.2,237.4 3656.9,231.5 C3658.6,225.6 3658.8,222.8 3656,221.5 C3653.2,220.2 3646.9,219.2 3645.4,217.3 C3644.3,215.9 3640.7,209.5 3638.1,206.2 C3637.2,205.1 3636.5,204.4 3636,204.3 C3633.9,203.9 3633.9,203.9 3633.9,203.9" id="Shape" stroke="#FFFFFF"></path>
            <path d="M3638,205.5 C3638,205.5 3659.9,207.2 3661.4,206.8 C3662.9,206.4 3666.1,203.2 3667.1,203.8 C3668,204.4 3666.1,206.3 3665.4,206.6 C3664.6,207 3669.4,208.3 3668.6,209 C3668.2,209.4 3666.9,209.3 3665.9,208.7 C3665.5,208.5 3664.7,209.5 3664.9,209.9" id="Shape" stroke="#FFFFFF"></path>
            <path d="M3633.3,206.7 C3633.3,206.7 3625.8,206.1 3623.1,204.4 C3620.5,202.7 3614.6,199.1 3613.1,196.3 C3612.6,195.3 3611.9,194.1 3611.4,193 C3610.4,191.1 3609.5,189.7 3609.3,190.4 C3609.1,191.5 3610.1,194 3610.1,194 C3610.1,194 3604,192.9 3603.9,193.6 C3603.7,194.2 3607.1,195.2 3608.2,195.6 C3608.3,195.6 3608.3,195.8 3608.2,195.9 C3607.4,196.3 3605.7,197.3 3606.3,198.2 C3607.1,199.3 3610.1,197.8 3610.8,197.1" id="Shape" stroke="#FFFFFF"></path>
            <path d="M3657.4,229.9 C3657.4,229.9 3664.4,233.5 3667,230.5 C3669.6,227.5 3670.8,221.4 3672.1,220.3 C3673.4,219.2 3673.8,218 3675.7,218.4 C3677.6,218.8 3681,220.1 3680.2,221.6 C3679.4,223.1 3674.7,222 3674.3,221.2" id="Shape" stroke="#FFFFFF"></path>
            <path d="M3636.7,235.3 C3636.7,235.3 3629.6,252.4 3628.9,251.4 C3628.2,250.4 3623,242.9 3622.1,244.8 C3621.2,246.7 3624.7,251.2 3626.1,250.9" id="Shape" stroke="#FFFFFF"></path>
            <path d="M3662.9,184.3 C3662.3,184.1 3651.9,180.9 3642.7,184.5 C3633.4,188.1 3630.2,190.2 3630.2,190.2" id="Shape" stroke="#FFFFFF"></path>
            <path d="M3662.3,192.1 C3661.5,191.5 3647.9,187.8 3634.3,193.6" id="Shape" stroke="#FFFFFF"></path>
            <path d="M3668.6,198.1 C3668,197.7 3639.1,194.5 3634.4,196" id="Shape" stroke="#FFFFFF"></path>
            <polygon id="Shape" stroke="#FFFFFF" points="3973.3 121.3 3971.4 118.1 3967.1 122.7 3970.7 124.4"></polygon>
            <path d="M3973.4,121.1 L3976.3,124.3 C3976.3,124.3 3979.3,122.4 3980.7,123.5 C3982,124.6 3993.8,138 3993.8,138 C3993.8,138 3989.2,144.7 3986.4,145.4 C3983.5,146.2 3971.4,132.3 3971.2,130.4 C3971,128.5 3972.5,127 3972,126.2 C3971.4,125.4 3970.3,124.9 3970.3,124.9" id="Shape" stroke="#FFFFFF"></path>
            <path d="M3973.9,121.3 C3973.9,121.3 3979.2,118.5 3978.9,113" id="Shape" stroke="#FFFFFF"></path>
            <path d="M3982.2,97.6 C3982.2,97.6 3974.3,107.4 3976.6,111.1 C3978.9,114.7 3984.5,111.1 3984.5,110.8 C3984.6,110.5 3989.5,100.6 3989.5,100.6 L3981.9,97" id="Shape" stroke="#FFFFFF"></path>
            <path d="M3999.7,180.4 C3999.7,180.4 3999.1,183.1 4000.8,185.8 C4002.5,188.5 4020.6,198.1 4022.4,195.8 C4024.2,193.5 4024.2,193 4023,191.6 C4021.8,190.2 4014.6,179.4 3999.7,180.4 Z" id="Shape" stroke="#FFFFFF"></path>
            <path d="M4021.5,197.6 C4021.9,197.5 4022.5,202.2 4026.6,201.8 C4029.3,201.5 4030.4,199.8 4029.4,197.5 C4027.7,193.7 4025,194.8 4023.4,195.3 C4021.9,195.8 4019.9,201.2 4009.5,201.7 C4007.4,202.3 4006.6,202.4 4006,202.9 C4005.3,203.5 4004.9,204.1 4004.5,203.9 L3996.1,199.6 C3995.9,199.5 3995.5,199.4 3995.7,199.2 C3996.2,198.6 3996.9,196 3996.1,193.2 C3995.1,189.3 3995.5,181.2 4000.1,180.6" id="Shape" stroke="#FFFFFF"></path>
            <path d="M3616.3,253.3 C3616.3,253.3 3622.4,252.8 3620.7,252.3 C3619,251.8 3625.5,253.1 3625.5,253.1 L3627.7,250.7 C3627.7,250.7 3631.6,252.7 3631.1,253.1 C3630.5,253.4 3636.1,251.2 3636.7,251.1 C3637.3,250.9 3638.4,253.1 3639.5,253.3 C3640.6,253.5 3641.7,251.7 3641.7,251.7 L3644.5,253.6 C3644.5,253.6 3647.9,251.9 3647.3,250.9 C3646.7,250 3651.2,253.3 3651.2,253.3 L3654,251.9 L3655.1,253.6 C3655.1,253.6 3659,252 3660.7,251.6 C3662.4,251.2 3661.8,253.3 3662.4,253.5 C3663,253.7 3664.6,251.8 3664.6,251.8 L3667.4,253.4 C3667.4,253.4 3670.2,251.8 3669.1,250.7 C3670.8,250.9 3674.7,253.2 3674.7,253.4 C3674.7,253.6 3678.1,251.8 3678.1,251.8 L3680.9,253.5 C3680.9,253.5 3683.7,252.4 3683.1,251.1 C3684.2,250.9 3685.9,253.3 3685.9,253.3 L3691.5,251.7 L3692.6,253.3 C3692.6,253.3 3696.5,252.2 3696,251.6 C3697.1,251.9 3698.8,253.2 3698.8,253.2 C3698.8,253.2 3703.3,251.6 3701.6,250 C3705,251.1 3706.6,253.5 3706.6,253.5 L3711.1,251.6 C3711.1,251.6 3713.3,253.6 3713.3,253.5 C3713.3,253.3 3717.2,251.3 3717.2,251.3 L3720.6,253.2 C3720.6,253.2 3722.8,250.7 3721.2,249.3 C3725.1,250.2 3727.4,253.6 3727.4,253.6 C3727.4,253.6 3730.8,251.9 3733.6,250.9 C3734.2,251.4 3735.3,253.4 3735.3,253.4 C3735.3,253.4 3739.2,251.5 3741.5,251.8 C3743.7,252.1 3744.9,252.4 3744.9,253.2 C3747.7,251.9 3748.3,250.2 3746,249.6 C3748.2,249 3753.3,252.3 3753.3,252.3 L3758.9,250.7 C3758.9,250.7 3759.5,253.4 3760.6,253.5 C3761.7,253.7 3765.1,251.5 3765.1,251.5 L3768.5,252.8 C3768.5,252.8 3770.2,250.3 3768.5,249.2 C3771.9,250.8 3774.1,252.4 3774.1,252.8 C3774.1,253.3 3780.3,250.9 3780.3,250.9 C3780.3,250.9 3783.1,252.5 3782.5,252.9 C3781.9,253.4 3785.3,252.6 3785.9,251.6 C3786.5,250.7 3790.4,252.9 3790.4,252.9 C3790.4,252.9 3792.6,251 3791,249 C3793.8,250.7 3796,252.8 3796,252.8 C3796,252.8 3799.9,251.1 3799.4,250 C3801.6,251.6 3802.2,252.7 3802.2,252.7 C3802.2,252.7 3806.7,251.4 3808.4,251.1 C3809,251.9 3808.4,253.3 3808.4,253.3 C3808.4,253.3 3812.3,252.4 3812.9,251.7 C3814.6,252 3816.8,253.1 3816.8,253.1 C3816.8,253.1 3819.6,252 3819,251.4 C3820.7,251.7 3822.4,252.7 3822.9,253 C3823.5,253.3 3824.6,251.3 3824,250.2 C3823.4,249.1 3830.2,252.1 3829.6,253 C3829,253.9 3834.1,250.6 3834.1,250.6 L3835.8,253 L3838,251.9 C3838,251.9 3840.8,253 3840.8,253.2 C3840.8,253.4 3843,252.4 3842.5,251.8 C3841.9,251.2 3847.5,253.7 3847.5,253.7 C3847.5,253.7 3850.3,251.3 3849.7,250.5 C3849.1,249.7 3854.2,253.3 3854.2,253.3 L3859.8,250 C3859.8,250 3859.8,252.4 3860.4,252.7 C3861,253 3865.4,251.4 3865.4,251.4 C3865.4,251.4 3867.6,252.8 3867.6,253.4 C3867.6,254 3872.1,253.2 3871.5,250.7 C3874.9,251.2 3877.7,253.2 3877.7,253.2 L3879.4,250.2 L3882.8,252.9 L3887.3,251.5 C3887.3,251.5 3890.7,252.9 3890.7,252.8 C3890.7,252.6 3892.4,250.8 3891.8,250 C3893.5,250.8 3896.8,253 3896.8,253 C3896.8,253 3899,249.7 3900.7,248.7 C3901.3,250 3902.4,252.6 3902.4,252.6 C3902.4,252.6 3905.2,252 3905.8,251 C3907.5,251.6 3908.6,253 3908.6,253 C3908.6,253 3912.5,251.9 3912,251.3 C3913.7,251.8 3913.7,252.9 3913.7,252.9 C3913.7,252.9 3918.2,252.3 3917.1,250.5 C3919.9,250.8 3922.7,252.2 3922.7,252.7 C3922.7,253.2 3927.2,250.5 3927.2,250.5 L3927.8,252.9 C3927.8,252.9 3932.8,251.3 3932.8,250.7 C3932.8,250.1 3935,252.7 3935,252.7 C3935,252.7 3940,250.3 3940,248.8 C3943.4,249.4 3941.1,252.9 3940.6,252.9 C3940,252.9 3943.4,251.2 3943.4,251.2 C3943.4,251.2 3946.2,253.1 3946.2,252.9 C3946.2,252.7 3947.9,251.5 3947.9,251.5 C3947.9,251.5 3951.8,252.3 3952.4,252.8 C3953,253.3 3955.8,251.5 3955.2,250.4 C3957.4,251.2 3958,252.9 3958,252.9 L3961.4,251.8 C3961.4,251.8 3963.1,253.2 3963.1,253.1 C3963.1,252.9 3965.9,251.8 3965.9,251.4 C3965.9,251 3969.8,253.4 3969.8,253.4 C3969.8,253.4 3972.6,251 3972.6,250.4 C3972.6,249.8 3976,253.2 3976,253.2 L3979.9,251.9 L3982.1,252.8 C3982.1,252.8 3985.5,252.3 3984.3,250.8 C3987.1,251.4 3990.5,252.8 3990.5,252.7 C3990.5,252.5 3994.4,249.7 3994.4,249.7 L3995.5,253 L3999.4,251 L4002.2,252.4 C4002.2,252.4 4006.1,251 4004.4,249.4 C4007.8,250 4010,252.7 4010,252.7 C4010,252.7 4013.4,251.1 4014.5,250.7 C4015.1,251.5 4015.1,253.1 4015.1,253.1 L4020.7,251.7 L4021.3,252.8 C4021.3,252.8 4024.1,252.5 4023,250.3 C4025.8,250.9 4026.9,253.1 4026.9,253 C4026.9,252.9 4029.7,250.8 4029.7,250.8 C4029.7,250.8 4031.9,253.2 4031.9,253 C4031.9,252.8 4035.3,251.1 4036.4,250.2 C4038.1,251.3 4037.5,252.9 4037.5,252.9 L4040.9,251.5 L4040.9,253.1 C4040.9,253.1 4044.3,252.2 4044.8,249.5 C4047.6,250.8 4045.4,253.3 4045.9,253.1 C4046.5,252.9 4050.9,250.6 4050.9,250.6 L4052.6,252.8 C4052.6,252.8 4057.1,252.5 4057.1,249.6 C4057.1,246.7 4061.6,252.6 4061.6,252.6 C4061.6,252.6 4064.4,250.6 4065,250.6 C4065.6,250.6 4068.9,253.1 4068.9,253.1 L4073.4,251.8 L4074.5,253.1 C4074.5,253.1 4077.9,252.3 4077.3,251.5 C4076.7,250.7 4081.8,253.1 4081.8,253.1 L4084.6,250.6 L4086.3,253.6 C4086.3,253.6 4090.2,252.5 4090.2,251.7 C4090.2,250.9 4093.6,253.1 4093.6,253.1 C4093.6,253.1 4096.4,251.2 4094.7,249.8 C4093,248.4 4099.2,253.4 4099.2,253.3 C4099.2,253.1 4102,251.1 4102,251.1 L4103.7,253.3 L4107.6,251.7 C4107.6,251.7 4108.2,253.4 4109.3,253.3 C4110.4,253.1 4114.3,253 4113.2,251.9 C4112.1,250.8 4116.6,253.3 4116.6,253.3 L4118.8,251.6 L4121.6,253 L4126.6,250.3 C4126.6,250.3 4126,253.1 4126.6,253 C4127.2,252.8 4131.1,251.4 4131.1,251.4 C4131.1,251.4 4132,252.7 4133.7,253.2" id="Shape" stroke="#FFFFFF"></path>
            <path d="M3102.1,254.4 C3102.1,254.4 3108.2,253.9 3106.5,253.4 C3104.8,252.9 3111.3,254.2 3111.3,254.2 L3113.5,251.8 C3113.5,251.8 3117.4,253.8 3116.9,254.2 C3116.3,254.5 3121.9,252.3 3122.5,252.2 C3123.1,252 3124.2,254.2 3125.3,254.4 C3126.4,254.6 3127.5,252.8 3127.5,252.8 L3130.3,254.7 C3130.3,254.7 3133.7,253 3133.1,252 C3132.5,251.1 3137,254.4 3137,254.4 L3139.8,253 L3140.9,254.7 C3140.9,254.7 3144.8,253.1 3146.5,252.7 C3148.2,252.2 3147.6,254.4 3148.2,254.6 C3148.8,254.8 3150.4,252.9 3150.4,252.9 L3153.2,254.5 C3153.2,254.5 3156,252.9 3154.9,251.8 C3156.6,252 3160.5,254.3 3160.5,254.5 C3160.5,254.7 3163.9,252.9 3163.9,252.9 L3166.7,254.6 C3166.7,254.6 3169.5,253.5 3168.9,252.2 C3170,252 3171.7,254.4 3171.7,254.4 L3177.3,252.8 L3178.4,254.4 C3178.4,254.4 3182.3,253.3 3181.8,252.7 C3182.9,253 3184.6,254.3 3184.6,254.3 C3184.6,254.3 3189.1,252.7 3187.4,251.1 C3190.8,252.2 3192.4,254.6 3192.4,254.6 L3196.9,252.7 C3196.9,252.7 3199.1,254.7 3199.1,254.6 C3199.1,254.4 3203,252.4 3203,252.4 L3206.4,254.3 C3206.4,254.3 3208.6,251.8 3207,250.4 C3210.9,251.3 3213.2,254.7 3213.2,254.7 C3213.2,254.7 3216.6,253 3219.4,252 C3220,252.5 3221.1,254.5 3221.1,254.5 C3221.1,254.5 3225,252.6 3227.3,252.9 C3229.5,253.2 3230.7,253.5 3230.7,254.3 C3233.5,253 3234.1,251.3 3231.8,250.7 C3234,250.1 3239.1,253.4 3239.1,253.4 L3244.7,251.8 C3244.7,251.8 3245.3,254.5 3246.4,254.6 C3247.5,254.8 3250.9,252.6 3250.9,252.6 L3254.3,253.9 C3254.3,253.9 3256,251.4 3254.3,250.3 C3257.7,251.9 3259.9,253.5 3259.9,253.9 C3259.9,254.3 3266.1,252 3266.1,252 C3266.1,252 3268.9,253.6 3268.3,254 C3267.7,254.4 3271.1,253.7 3271.7,252.7 C3272.3,251.8 3276.2,254 3276.2,254 C3276.2,254 3278.4,252.1 3276.8,250.1 C3279.6,251.8 3281.8,253.9 3281.8,253.9 C3281.8,253.9 3285.7,252.2 3285.2,251.1 C3287.4,252.7 3288,253.8 3288,253.8 C3288,253.8 3292.5,252.5 3294.2,252.2 C3294.8,253 3294.2,254.4 3294.2,254.4 C3294.2,254.4 3298.1,253.5 3298.7,252.8 C3300.4,253.1 3302.6,254.2 3302.6,254.2 C3302.6,254.2 3305.4,253.1 3304.8,252.5 C3306.5,252.8 3308.2,253.8 3308.7,254.1 C3309.3,254.4 3310.4,252.4 3309.8,251.3 C3309.2,250.2 3316,253.2 3315.4,254.1 C3314.8,255 3319.9,251.7 3319.9,251.7 L3321.6,254.1 L3323.8,253 C3323.8,253 3326.6,254.1 3326.6,254.3 C3326.6,254.5 3328.8,253.5 3328.3,252.9 C3327.7,252.3 3333.3,254.8 3333.3,254.8 C3333.3,254.8 3336.1,252.4 3335.5,251.6 C3334.9,250.8 3340,254.4 3340,254.4 L3345.6,251.1 C3345.6,251.1 3345.6,253.5 3346.2,253.8 C3346.8,254.1 3351.2,252.5 3351.2,252.5 C3351.2,252.5 3353.4,253.9 3353.4,254.5 C3353.4,255.1 3357.9,254.3 3357.3,251.8 C3360.7,252.3 3363.5,254.3 3363.5,254.3 L3365.2,251.3 L3368.6,254 L3373.1,252.6 C3373.1,252.6 3376.5,254 3376.5,253.9 C3376.5,253.8 3378.2,251.9 3377.6,251.1 C3379.3,251.9 3382.6,254.1 3382.6,254.1 C3382.6,254.1 3384.8,250.8 3386.5,249.8 C3387.1,251.1 3388.2,253.7 3388.2,253.7 C3388.2,253.7 3391,253.1 3391.6,252.1 C3393.3,252.7 3394.4,254.1 3394.4,254.1 C3394.4,254.1 3398.3,253 3397.8,252.4 C3399.5,252.9 3399.5,254 3399.5,254 C3399.5,254 3404,253.4 3402.9,251.6 C3405.7,251.9 3408.5,253.3 3408.5,253.8 C3408.5,254.3 3413,251.6 3413,251.6 L3413.6,254 C3413.6,254 3418.6,252.4 3418.6,251.8 C3418.6,251.2 3420.8,253.8 3420.8,253.8 C3420.8,253.8 3425.8,251.4 3425.8,249.9 C3429.2,250.5 3426.9,254 3426.4,254 C3425.8,254 3429.2,252.3 3429.2,252.3 C3429.2,252.3 3432,254.2 3432,254 C3432,253.8 3433.7,252.6 3433.7,252.6 C3433.7,252.6 3437.6,253.4 3438.2,253.9 C3438.8,254.4 3441.6,252.6 3441,251.5 C3443.2,252.3 3443.8,254 3443.8,254 L3447.2,252.9 C3447.2,252.9 3448.9,254.3 3448.9,254.2 C3448.9,254 3451.7,252.9 3451.7,252.5 C3451.7,252.1 3455.6,254.5 3455.6,254.5 C3455.6,254.5 3458.4,252.1 3458.4,251.5 C3458.4,250.9 3461.8,254.3 3461.8,254.3 L3465.7,253 L3467.9,253.9 C3467.9,253.9 3471.3,253.4 3470.1,251.9 C3472.9,252.5 3476.3,253.9 3476.3,253.8 C3476.3,253.7 3480.2,250.8 3480.2,250.8 L3481.3,254.1 L3485.2,252.1 L3488,253.5 C3488,253.5 3491.9,252.1 3490.2,250.5 C3493.6,251.1 3495.8,253.8 3495.8,253.8 C3495.8,253.8 3499.2,252.2 3500.3,251.8 C3500.9,252.6 3500.9,254.2 3500.9,254.2 L3506.5,252.8 L3507.1,253.9 C3507.1,253.9 3509.9,253.6 3508.8,251.4 C3511.6,252 3512.7,254.2 3512.7,254.1 C3512.7,253.9 3515.5,251.9 3515.5,251.9 C3515.5,251.9 3517.7,254.3 3517.7,254.1 C3517.7,253.9 3521.1,252.2 3522.2,251.3 C3523.9,252.4 3523.3,254 3523.3,254 L3526.7,252.6 L3526.7,254.2 C3526.7,254.2 3530.1,253.3 3530.6,250.6 C3533.4,251.9 3531.2,254.4 3531.7,254.2 C3532.3,254 3536.7,251.7 3536.7,251.7 L3538.4,253.9 C3538.4,253.9 3542.9,253.6 3542.9,250.7 C3542.9,247.9 3547.4,253.7 3547.4,253.7 C3547.4,253.7 3550.2,251.7 3550.8,251.7 C3551.4,251.7 3554.7,254.2 3554.7,254.2 L3559.2,252.9 L3560.3,254.2 C3560.3,254.2 3563.7,253.4 3563.1,252.6 C3562.5,251.8 3567.6,254.2 3567.6,254.2 L3570.4,251.7 L3572.1,254.7 C3572.1,254.7 3576,253.6 3576,252.8 C3576,252 3579.4,254.2 3579.4,254.2 C3579.4,254.2 3582.2,252.3 3580.5,250.9 C3578.8,249.5 3585,254.5 3585,254.4 C3585,254.2 3587.8,252.2 3587.8,252.2 L3589.5,254.4 L3593.4,252.8 C3593.4,252.8 3594,254.5 3595.1,254.4 C3596.2,254.2 3600.1,254.1 3599,253 C3597.9,251.9 3602.4,254.4 3602.4,254.4 L3604.6,252.7 L3607.4,254.1 L3612.4,251.4 C3612.4,251.4 3611.8,254.2 3612.4,254.1 C3613,253.9 3616.9,252.5 3616.9,252.5 C3616.9,252.5 3617.8,253.8 3619.5,254.3" id="Shape" stroke="#FFFFFF"></path>
            <path d="M2584.7,254.5 C2584.7,254.5 2590.8,254 2589.1,253.5 C2587.4,253 2593.9,254.3 2593.9,254.3 L2596.1,251.9 C2596.1,251.9 2600,253.9 2599.5,254.3 C2598.9,254.6 2604.5,252.4 2605.1,252.3 C2605.7,252.1 2606.8,254.3 2607.9,254.5 C2609,254.7 2610.1,252.9 2610.1,252.9 L2612.9,254.8 C2612.9,254.8 2616.3,253.1 2615.7,252.1 C2615.1,251.1 2619.6,254.5 2619.6,254.5 L2622.4,253.1 L2623.5,254.8 C2623.5,254.8 2627.4,253.2 2629.1,252.8 C2630.8,252.4 2630.2,254.5 2630.8,254.7 C2631.4,254.9 2633,253 2633,253 L2635.8,254.6 C2635.8,254.6 2638.6,253 2637.5,251.9 C2639.2,252.1 2643.1,254.4 2643.1,254.6 C2643.1,254.8 2646.5,253 2646.5,253 L2649.3,254.7 C2649.3,254.7 2652.1,253.6 2651.5,252.3 C2652.6,252.1 2654.3,254.5 2654.3,254.5 L2659.9,252.9 L2661,254.5 C2661,254.5 2664.9,253.4 2664.4,252.8 C2665.5,253.1 2667.2,254.4 2667.2,254.4 C2667.2,254.4 2671.7,252.8 2670,251.2 C2673.4,252.3 2675,254.7 2675,254.7 L2679.5,252.8 C2679.5,252.8 2681.7,254.8 2681.7,254.7 C2681.7,254.5 2685.6,252.5 2685.6,252.5 L2689,254.4 C2689,254.4 2691.2,251.9 2689.6,250.5 C2693.5,251.4 2695.8,254.8 2695.8,254.8 C2695.8,254.8 2699.2,253.1 2702,252.1 C2702.6,252.6 2703.7,254.6 2703.7,254.6 C2703.7,254.6 2707.6,252.7 2709.9,253 C2712.1,253.3 2713.3,253.6 2713.3,254.4 C2716.1,253.1 2716.7,251.4 2714.4,250.8 C2716.6,250.2 2721.7,253.5 2721.7,253.5 L2727.3,251.9 C2727.3,251.9 2727.9,254.6 2729,254.7 C2730.1,254.9 2733.5,252.7 2733.5,252.7 L2736.9,254 C2736.9,254 2738.6,251.5 2736.9,250.4 C2740.3,252 2742.5,253.6 2742.5,254 C2742.5,254.4 2748.7,252.1 2748.7,252.1 C2748.7,252.1 2751.5,253.7 2750.9,254.1 C2750.3,254.6 2753.7,253.8 2754.3,252.8 C2754.9,251.9 2758.8,254.1 2758.8,254.1 C2758.8,254.1 2761,252.2 2759.4,250.2 C2762.2,251.9 2764.4,254 2764.4,254 C2764.4,254 2768.3,252.3 2767.8,251.2 C2770,252.8 2770.6,253.9 2770.6,253.9 C2770.6,253.9 2775.1,252.6 2776.8,252.3 C2777.4,253.1 2776.8,254.5 2776.8,254.5 C2776.8,254.5 2780.7,253.6 2781.3,252.9 C2783,253.2 2785.2,254.3 2785.2,254.3 C2785.2,254.3 2788,253.2 2787.4,252.6 C2789.1,252.9 2790.8,253.9 2791.3,254.2 C2791.9,254.5 2793,252.5 2792.4,251.4 C2791.8,250.3 2798.6,253.3 2798,254.2 C2797.4,255.1 2802.5,251.8 2802.5,251.8 L2804.2,254.2 L2806.4,253.1 C2806.4,253.1 2809.2,254.2 2809.2,254.4 C2809.2,254.6 2811.4,253.6 2810.9,253 C2810.3,252.4 2815.9,254.9 2815.9,254.9 C2815.9,254.9 2818.7,252.5 2818.1,251.7 C2817.5,250.9 2822.6,254.5 2822.6,254.5 L2828.2,251.2 C2828.2,251.2 2828.2,253.6 2828.8,253.9 C2829.4,254.2 2833.8,252.6 2833.8,252.6 C2833.8,252.6 2836,254 2836,254.6 C2836,255.2 2840.5,254.4 2839.9,251.9 C2843.3,252.4 2846.1,254.4 2846.1,254.4 L2847.8,251.4 L2851.2,254.1 L2855.7,252.7 C2855.7,252.7 2859.1,254.1 2859.1,254 C2859.1,253.8 2860.8,252 2860.2,251.2 C2861.9,252 2865.2,254.2 2865.2,254.2 C2865.2,254.2 2867.4,250.9 2869.1,249.9 C2869.7,251.2 2870.8,253.8 2870.8,253.8 C2870.8,253.8 2873.6,253.2 2874.2,252.2 C2875.9,252.8 2877,254.2 2877,254.2 C2877,254.2 2880.9,253.1 2880.4,252.5 C2882.1,253 2882.1,254.1 2882.1,254.1 C2882.1,254.1 2886.6,253.5 2885.5,251.7 C2888.3,252 2891.1,253.4 2891.1,253.9 C2891.1,254.4 2895.6,251.7 2895.6,251.7 L2896.2,254.1 C2896.2,254.1 2901.2,252.5 2901.2,251.9 C2901.2,251.3 2903.4,253.9 2903.4,253.9 C2903.4,253.9 2908.4,251.5 2908.4,250 C2911.8,250.6 2909.5,254.1 2909,254.1 C2908.4,254.1 2911.8,252.4 2911.8,252.4 C2911.8,252.4 2914.6,254.3 2914.6,254.1 C2914.6,253.9 2916.3,252.7 2916.3,252.7 C2916.3,252.7 2920.2,253.5 2920.8,254 C2921.4,254.5 2924.2,252.7 2923.6,251.6 C2925.8,252.4 2926.4,254.1 2926.4,254.1 L2929.8,253 C2929.8,253 2931.5,254.4 2931.5,254.3 C2931.5,254.1 2934.3,253 2934.3,252.6 C2934.3,252.1 2938.2,254.6 2938.2,254.6 C2938.2,254.6 2941,252.2 2941,251.6 C2941,251 2944.4,254.4 2944.4,254.4 L2948.3,253.1 L2950.5,254 C2950.5,254 2953.9,253.5 2952.7,252 C2955.5,252.6 2958.9,254 2958.9,253.9 C2958.9,253.7 2962.8,250.9 2962.8,250.9 L2963.9,254.2 L2967.8,252.2 L2970.6,253.6 C2970.6,253.6 2974.5,252.2 2972.8,250.6 C2976.2,251.2 2978.4,253.9 2978.4,253.9 C2978.4,253.9 2981.8,252.3 2982.9,251.9 C2983.5,252.7 2983.5,254.3 2983.5,254.3 L2989.1,252.9 L2989.7,254 C2989.7,254 2992.5,253.7 2991.4,251.5 C2994.2,252.1 2995.3,254.3 2995.3,254.2 C2995.3,254.1 2998.1,252 2998.1,252 C2998.1,252 3000.3,254.4 3000.3,254.2 C3000.3,254 3003.7,252.3 3004.8,251.4 C3006.5,252.5 3005.9,254.1 3005.9,254.1 L3009.3,252.7 L3009.3,254.3 C3009.3,254.3 3012.7,253.4 3013.2,250.7 C3016,252 3013.8,254.5 3014.3,254.3 C3014.9,254.1 3019.3,251.8 3019.3,251.8 L3021,254 C3021,254 3025.5,253.7 3025.5,250.8 C3025.5,248 3030,253.8 3030,253.8 C3030,253.8 3032.8,251.8 3033.4,251.8 C3034,251.8 3037.3,254.3 3037.3,254.3 L3041.8,253 L3042.9,254.3 C3042.9,254.3 3046.3,253.5 3045.7,252.7 C3045.1,251.9 3050.2,254.3 3050.2,254.3 L3053,251.8 L3054.7,254.8 C3054.7,254.8 3058.6,253.7 3058.6,252.9 C3058.6,252.1 3062,254.3 3062,254.3 C3062,254.3 3064.8,252.4 3063.1,251 C3061.4,249.6 3067.6,254.6 3067.6,254.5 C3067.6,254.3 3070.4,252.3 3070.4,252.3 L3072.1,254.5 L3076,252.9 C3076,252.9 3076.6,254.6 3077.7,254.5 C3078.8,254.3 3082.7,254.2 3081.6,253.1 C3080.5,252 3085,254.5 3085,254.5 L3087.2,252.8 L3090,254.2 L3095,251.5 C3095,251.5 3094.4,254.3 3095,254.2 C3095.6,254 3099.5,252.6 3099.5,252.6 C3099.5,252.6 3100.4,253.9 3102.1,254.4" id="Shape" stroke="#FFFFFF"></path>
            <path d="M2066.5,252.6 C2066.5,252.6 2072.6,252.1 2070.9,251.6 C2069.2,251.1 2075.7,252.4 2075.7,252.4 L2078,250 C2078,250 2081.9,252.1 2081.3,252.4 C2080.7,252.7 2086.4,250.5 2086.9,250.4 C2087.5,250.2 2088.6,252.5 2089.7,252.6 C2090.8,252.8 2091.9,251 2091.9,251 L2094.7,252.9 C2094.7,252.9 2098.1,251.2 2097.5,250.2 C2096.9,249.3 2101.4,252.6 2101.4,252.6 L2104.2,251.2 L2105.3,252.9 C2105.3,252.9 2109.2,251.3 2110.9,250.9 C2112.6,250.4 2112,252.6 2112.6,252.8 C2113.2,253 2114.9,251.1 2114.9,251.1 L2117.7,252.7 C2117.7,252.7 2120.5,251.1 2119.4,250 C2121.1,250.2 2125,252.6 2125,252.7 C2125,252.9 2128.4,251.1 2128.4,251.1 L2131.2,252.9 C2131.2,252.9 2134,251.8 2133.5,250.5 C2134.6,250.3 2136.3,252.7 2136.3,252.7 L2141.9,251.2 L2143,252.8 C2143,252.8 2146.9,251.7 2146.4,251.1 C2147.5,251.4 2149.2,252.7 2149.2,252.7 C2149.2,252.7 2153.7,251.1 2152,249.6 C2155.4,250.7 2157,253.1 2157,253.1 L2161.5,251.2 C2161.5,251.2 2163.7,253.3 2163.7,253.1 C2163.7,252.9 2167.6,250.9 2167.6,250.9 L2171,252.8 C2171,252.8 2173.3,250.3 2171.6,248.9 C2175.5,249.9 2177.7,253.2 2177.7,253.2 C2177.7,253.2 2181.1,251.5 2183.9,250.6 C2184.5,251.1 2185.6,253.1 2185.6,253.1 C2185.6,253.1 2189.5,251.2 2191.8,251.6 C2194,251.9 2195.2,252.2 2195.2,253 C2198,251.8 2198.6,250 2196.3,249.4 C2198.5,248.8 2203.6,252.1 2203.6,252.1 L2209.2,250.6 C2209.2,250.6 2209.7,253.3 2210.9,253.4 C2212,253.6 2215.4,251.4 2215.4,251.4 L2218.8,252.7 C2218.8,252.7 2220.5,250.2 2218.8,249.1 C2222.2,250.7 2224.4,252.3 2224.4,252.8 C2224.4,253.3 2230.6,250.9 2230.6,250.9 C2230.6,250.9 2233.4,252.5 2232.8,253 C2232.2,253.5 2235.6,252.7 2236.2,251.8 C2236.8,250.9 2240.7,253.1 2240.7,253.1 C2240.7,253.1 2243,251.2 2241.3,249.2 C2244.1,251 2246.3,253 2246.3,253 C2246.3,253 2250.2,251.3 2249.7,250.2 C2251.9,251.8 2252.5,252.9 2252.5,252.9 C2252.5,252.9 2257,251.7 2258.7,251.4 C2259.3,252.2 2258.7,253.6 2258.7,253.6 C2258.7,253.6 2262.6,252.7 2263.2,252 C2264.9,252.3 2267.1,253.4 2267.1,253.4 C2267.1,253.4 2269.9,252.3 2269.4,251.7 C2271.1,252 2272.8,253 2273.3,253.3 C2273.9,253.6 2275,251.6 2274.4,250.5 C2273.8,249.4 2280.6,252.4 2280,253.4 C2279.4,254.3 2284.5,251.1 2284.5,251.1 L2286.2,253.5 L2288.4,252.4 C2288.4,252.4 2291.2,253.5 2291.2,253.7 C2291.2,253.9 2293.4,252.9 2292.9,252.3 C2292.3,251.7 2297.9,254.2 2297.9,254.2 C2297.9,254.2 2300.7,251.9 2300.2,251.1 C2299.6,250.3 2304.7,254 2304.7,254 L2310.3,250.7 C2310.3,250.7 2310.3,253.1 2310.8,253.4 C2311.3,253.7 2315.8,252.2 2315.8,252.2 C2315.8,252.2 2318,253.6 2318,254.3 C2318,254.9 2322.5,254.2 2321.9,251.6 C2325.3,252.1 2328,254.2 2328,254.2 L2329.7,251.2 L2333,253.9 L2337.5,252.5 C2337.5,252.5 2340.9,253.9 2340.9,253.8 C2340.9,253.6 2342.6,251.8 2342,251 C2343.7,251.8 2347,254 2347,254 C2347,254 2349.3,250.7 2350.9,249.8 C2351.5,251.1 2352.6,253.8 2352.6,253.8 C2352.6,253.8 2355.4,253.2 2356,252.2 C2357.7,252.8 2358.8,254.3 2358.8,254.3 C2358.8,254.3 2362.7,253.2 2362.2,252.6 C2363.9,253.1 2363.9,254.2 2363.9,254.2 C2363.9,254.2 2368.4,253.6 2367.3,251.9 C2370.1,252.2 2372.9,253.7 2372.9,254.1 C2372.9,254.5 2377.4,251.9 2377.4,251.9 L2377.9,254.3 C2377.9,254.3 2383,252.8 2383,252.1 C2383,251.5 2385.2,254.2 2385.2,254.2 C2385.2,254.2 2390.3,251.9 2390.3,250.3 C2393.7,250.9 2391.4,254.4 2390.8,254.4 C2390.2,254.4 2393.6,252.7 2393.6,252.7 C2393.6,252.7 2396.4,254.6 2396.4,254.5 C2396.4,254.3 2398.1,253.1 2398.1,253.1 C2398.1,253.1 2402,253.9 2402.6,254.4 C2403.2,254.9 2406,253.2 2405.4,252.1 C2407.6,252.9 2408.2,254.6 2408.2,254.6 L2411.6,253.5 C2411.6,253.5 2413.3,254.9 2413.3,254.8 C2413.3,254.7 2416.1,253.6 2416.1,253.1 C2416.1,252.6 2420,255.2 2420,255.2 C2420,255.2 2422.8,252.9 2422.8,252.2 C2422.8,251.6 2426.1,255.1 2426.1,255.1 L2430,253.9 L2432.2,254.9 C2432.2,254.9 2435.6,254.4 2434.5,252.9 C2437.3,253.5 2440.7,255 2440.7,254.8 C2440.7,254.6 2444.6,251.8 2444.6,251.8 L2445.7,255.1 L2449.6,253.1 L2452.4,254.5 C2452.4,254.5 2456.3,253.1 2454.7,251.5 C2458.1,252.1 2460.3,254.8 2460.3,254.8 C2460.3,254.8 2463.7,253.2 2464.8,252.8 C2465.4,253.6 2465.3,255.2 2465.3,255.2 L2470.9,253.8 L2471.5,254.9 C2471.5,254.9 2474.3,254.6 2473.2,252.4 C2476,253 2477.1,255.3 2477.1,255.1 C2477.1,254.9 2479.9,252.9 2479.9,252.9 C2479.9,252.9 2482.1,255.3 2482.1,255.1 C2482.1,254.9 2485.5,253.2 2486.6,252.3 C2488.3,253.4 2487.7,255 2487.7,255 L2491.1,253.6 L2491.1,255.2 C2491.1,255.2 2494.5,254.3 2495,251.6 C2497.8,252.9 2495.5,255.4 2496.1,255.2 C2496.7,255 2501.2,252.7 2501.2,252.7 L2502.9,254.9 C2502.9,254.9 2507.4,254.6 2507.4,251.8 C2507.4,249 2511.9,254.8 2511.9,254.8 C2511.9,254.8 2514.7,252.8 2515.3,252.8 C2515.9,252.8 2519.2,255.3 2519.2,255.3 L2523.7,254.1 L2524.8,255.4 C2524.8,255.4 2528.2,254.6 2527.6,253.8 C2527,253 2532.1,255.4 2532.1,255.4 L2534.9,252.9 L2536.6,255.9 C2536.6,255.9 2540.5,254.8 2540.5,254 C2540.5,253.2 2543.9,255.4 2543.9,255.4 C2543.9,255.4 2546.7,253.5 2545,252.1 C2543.3,250.7 2549.5,255.8 2549.5,255.6 C2549.5,255.4 2552.3,253.4 2552.3,253.4 L2554,255.6 L2557.9,254 C2557.9,254 2558.5,255.7 2559.6,255.6 C2560.7,255.4 2564.6,255.3 2563.5,254.2 C2562.4,253.1 2566.9,255.6 2566.9,255.6 L2569.2,253.9 L2572,255.3 L2577.1,252.6 C2577.1,252.6 2576.5,255.4 2577.1,255.3 C2577.7,255.1 2581.6,253.7 2581.6,253.7 C2581.6,253.7 2582.5,255 2584.2,255.5" id="Shape" stroke="#FFFFFF"></path>
            <path d="M1551.3,251.3 C1551.3,251.3 1557.4,250.8 1555.7,250.3 C1554,249.8 1560.5,251.1 1560.5,251.1 L1562.8,248.7 C1562.8,248.7 1566.7,250.8 1566.1,251.1 C1565.5,251.4 1571.2,249.2 1571.7,249.1 C1572.3,248.9 1573.4,251.2 1574.5,251.3 C1575.6,251.4 1576.7,249.7 1576.7,249.7 L1579.5,251.6 C1579.5,251.6 1582.9,249.9 1582.3,248.9 C1581.7,248 1586.2,251.3 1586.2,251.3 L1589,249.9 L1590.1,251.6 C1590.1,251.6 1594,250 1595.7,249.6 C1597.4,249.1 1596.8,251.3 1597.4,251.5 C1598,251.7 1599.7,249.8 1599.7,249.8 L1602.5,251.4 C1602.5,251.4 1605.3,249.8 1604.2,248.7 C1605.9,248.9 1609.8,251.3 1609.8,251.4 C1609.8,251.6 1613.2,249.8 1613.2,249.8 L1616,251.6 C1616,251.6 1618.8,250.5 1618.3,249.2 C1619.4,249 1621.1,251.4 1621.1,251.4 L1626.7,249.9 L1627.8,251.5 C1627.8,251.5 1631.7,250.4 1631.2,249.8 C1632.3,250.1 1634,251.4 1634,251.4 C1634,251.4 1638.5,249.8 1636.8,248.3 C1640.2,249.4 1641.8,251.8 1641.8,251.8 L1646.3,249.9 C1646.3,249.9 1648.5,252 1648.5,251.8 C1648.5,251.6 1652.4,249.6 1652.4,249.6 L1655.8,251.5 C1655.8,251.5 1658.1,249 1656.4,247.6 C1660.3,248.6 1662.5,251.9 1662.5,251.9 C1662.5,251.9 1665.9,250.2 1668.7,249.3 C1669.3,249.8 1670.4,251.8 1670.4,251.8 C1670.4,251.8 1674.3,249.9 1676.6,250.3 C1678.8,250.6 1680,250.9 1680,251.7 C1682.8,250.5 1683.4,248.7 1681.1,248.1 C1683.3,247.5 1688.4,250.8 1688.4,250.8 L1694,249.3 C1694,249.3 1694.5,252 1695.7,252.1 C1696.8,252.3 1700.2,250.1 1700.2,250.1 L1703.6,251.4 C1703.6,251.4 1705.3,248.9 1703.6,247.8 C1707,249.4 1709.2,251 1709.2,251.5 C1709.2,252 1715.4,249.6 1715.4,249.6 C1715.4,249.6 1718.2,251.2 1717.6,251.7 C1717,252.2 1720.4,251.4 1721,250.5 C1721.6,249.6 1725.5,251.8 1725.5,251.8 C1725.5,251.8 1727.8,249.9 1726.1,247.9 C1728.9,249.7 1731.1,251.7 1731.1,251.7 C1731.1,251.7 1735,250 1734.5,248.9 C1736.7,250.5 1737.3,251.6 1737.3,251.6 C1737.3,251.6 1741.8,250.4 1743.5,250.1 C1744.1,250.9 1743.5,252.3 1743.5,252.3 C1743.5,252.3 1747.4,251.4 1748,250.7 C1749.7,251 1751.9,252.1 1751.9,252.1 C1751.9,252.1 1754.7,251 1754.2,250.4 C1755.9,250.7 1757.6,251.7 1758.1,252 C1758.6,252.3 1759.8,250.3 1759.2,249.2 C1758.6,248.1 1765.4,251.1 1764.8,252.1 C1764.2,253.1 1769.3,249.8 1769.3,249.8 L1771,252.2 L1773.2,251.1 C1773.2,251.1 1776,252.2 1776,252.4 C1776,252.6 1778.2,251.6 1777.7,251 C1777.1,250.4 1782.7,252.9 1782.7,252.9 C1782.7,252.9 1785.5,250.6 1785,249.8 C1784.5,249 1789.5,252.7 1789.5,252.7 L1795.1,249.4 C1795.1,249.4 1795.1,251.8 1795.6,252.1 C1796.2,252.4 1800.6,250.9 1800.6,250.9 C1800.6,250.9 1802.8,252.3 1802.8,253 C1802.8,253.7 1807.3,252.9 1806.7,250.3 C1810.1,250.8 1812.8,252.9 1812.8,252.9 L1814.5,249.9 L1817.8,252.6 L1822.3,251.2 C1822.3,251.2 1825.7,252.6 1825.7,252.5 C1825.7,252.3 1827.4,250.5 1826.8,249.7 C1828.5,250.5 1831.8,252.7 1831.8,252.7 C1831.8,252.7 1834.1,249.4 1835.7,248.5 C1836.3,249.8 1837.4,252.5 1837.4,252.5 C1837.4,252.5 1840.2,251.9 1840.8,250.9 C1842.5,251.5 1843.6,253 1843.6,253 C1843.6,253 1847.5,251.9 1847,251.3 C1848.7,251.8 1848.7,252.9 1848.7,252.9 C1848.7,252.9 1853.2,252.3 1852.1,250.6 C1854.9,250.9 1857.7,252.4 1857.7,252.8 C1857.7,253.2 1862.2,250.6 1862.2,250.6 L1862.7,253 C1862.7,253 1867.8,251.5 1867.8,250.8 C1867.8,250.1 1870,252.9 1870,252.9 C1870,252.9 1875.1,250.6 1875.1,249 C1878.5,249.6 1876.2,253.1 1875.6,253.1 C1875,253.1 1878.4,251.4 1878.4,251.4 C1878.4,251.4 1881.2,253.3 1881.2,253.2 C1881.2,253 1882.9,251.8 1882.9,251.8 C1882.9,251.8 1886.8,252.6 1887.4,253.1 C1888,253.6 1890.8,251.9 1890.2,250.8 C1892.4,251.6 1893,253.3 1893,253.3 L1896.4,252.2 C1896.4,252.2 1898.1,253.6 1898.1,253.5 C1898.1,253.3 1900.9,252.3 1900.9,251.8 C1900.9,251.3 1904.8,253.9 1904.8,253.9 C1904.8,253.9 1907.6,251.6 1907.6,250.9 C1907.6,250.2 1910.9,253.8 1910.9,253.8 L1914.8,252.6 L1917,253.6 C1917,253.6 1920.4,253.1 1919.3,251.6 C1922.1,252.2 1925.5,253.7 1925.5,253.5 C1925.5,253.3 1929.4,250.5 1929.4,250.5 L1930.5,253.8 L1934.4,251.8 L1937.2,253.2 C1937.2,253.2 1941.1,251.8 1939.5,250.2 C1942.9,250.8 1945.1,253.5 1945.1,253.5 C1945.1,253.5 1948.5,251.9 1949.6,251.5 C1950.2,252.3 1950.1,253.9 1950.1,253.9 L1955.7,252.5 L1956.3,253.6 C1956.3,253.6 1959.1,253.3 1958,251.1 C1960.8,251.7 1961.9,254 1961.9,253.8 C1961.9,253.6 1964.7,251.6 1964.7,251.6 C1964.7,251.6 1966.9,254 1966.9,253.8 C1966.9,253.6 1970.3,251.9 1971.4,251 C1973.1,252.1 1972.5,253.7 1972.5,253.7 L1975.9,252.3 L1975.9,253.9 C1975.9,253.9 1979.3,253 1979.8,250.3 C1982.6,251.6 1980.3,254.1 1980.9,253.9 C1981.5,253.7 1986,251.4 1986,251.4 L1987.7,253.6 C1987.7,253.6 1992.2,253.3 1992.2,250.5 C1992.2,247.7 1996.7,253.5 1996.7,253.5 C1996.7,253.5 1999.5,251.5 2000.1,251.5 C2000.7,251.5 2004,254 2004,254 L2008.5,252.8 L2009.6,254.1 C2009.6,254.1 2013,253.3 2012.4,252.5 C2011.8,251.7 2016.9,254.1 2016.9,254.1 L2019.7,251.6 L2021.4,254.6 C2021.4,254.6 2025.3,253.5 2025.3,252.7 C2025.3,251.9 2028.7,254.1 2028.7,254.1 C2028.7,254.1 2031.5,252.2 2029.8,250.8 C2028.1,249.4 2034.3,254.5 2034.3,254.3 C2034.3,254.1 2037.1,252.1 2037.1,252.1 L2038.8,254.3 L2042.7,252.7 C2042.7,252.7 2043.3,254.4 2044.4,254.3 C2045.5,254.1 2049.4,254 2048.3,252.9 C2047.2,251.8 2051.7,254.3 2051.7,254.3 L2054,252.6 L2056.8,254 L2061.9,251.3 C2061.9,251.3 2061.3,254.1 2061.9,254 C2062.5,253.8 2066.4,252.4 2066.4,252.4 C2066.4,252.4 2067.3,253.7 2069,254.2" id="Shape" stroke="#FFFFFF"></path>
            <path d="M1036.1,251.2 C1036.1,251.2 1042.2,250.7 1040.5,250.2 C1038.8,249.7 1045.3,251 1045.3,251 L1047.5,248.6 C1047.5,248.6 1051.4,250.6 1050.9,251 C1050.3,251.3 1055.9,249.1 1056.5,249 C1057.1,248.8 1058.2,251 1059.3,251.2 C1060.4,251.4 1061.5,249.6 1061.5,249.6 L1064.3,251.5 C1064.3,251.5 1067.7,249.8 1067.1,248.8 C1066.5,247.9 1071,251.2 1071,251.2 L1073.8,249.8 L1074.9,251.5 C1074.9,251.5 1078.8,249.9 1080.5,249.5 C1082.2,249 1081.6,251.2 1082.2,251.4 C1082.8,251.6 1084.4,249.7 1084.4,249.7 L1087.2,251.3 C1087.2,251.3 1090,249.7 1088.9,248.6 C1090.6,248.8 1094.5,251.1 1094.5,251.3 C1094.5,251.5 1097.9,249.7 1097.9,249.7 L1100.7,251.4 C1100.7,251.4 1103.5,250.3 1102.9,249 C1104,248.8 1105.7,251.2 1105.7,251.2 L1111.3,249.6 L1112.4,251.2 C1112.4,251.2 1116.3,250.1 1115.8,249.5 C1116.9,249.8 1118.6,251.1 1118.6,251.1 C1118.6,251.1 1123.1,249.5 1121.4,247.9 C1124.8,249 1126.4,251.4 1126.4,251.4 L1130.9,249.5 C1130.9,249.5 1133.1,251.5 1133.1,251.4 C1133.1,251.2 1137,249.2 1137,249.2 L1140.4,251.1 C1140.4,251.1 1142.6,248.6 1141,247.2 C1144.9,248.1 1147.2,251.5 1147.2,251.5 C1147.2,251.5 1150.6,249.8 1153.4,248.8 C1154,249.3 1155.1,251.3 1155.1,251.3 C1155.1,251.3 1159,249.4 1161.3,249.7 C1163.5,250 1164.7,250.3 1164.7,251.1 C1167.5,249.8 1168.1,248.1 1165.8,247.5 C1168,246.9 1173.1,250.2 1173.1,250.2 L1178.7,248.6 C1178.7,248.6 1179.3,251.3 1180.4,251.4 C1181.5,251.6 1184.9,249.4 1184.9,249.4 L1188.3,250.7 C1188.3,250.7 1190,248.2 1188.3,247.1 C1191.7,248.7 1193.9,250.3 1193.9,250.7 C1193.9,251.1 1200.1,248.8 1200.1,248.8 C1200.1,248.8 1202.9,250.4 1202.3,250.8 C1201.7,251.2 1205.1,250.5 1205.7,249.5 C1206.3,248.5 1210.2,250.8 1210.2,250.8 C1210.2,250.8 1212.4,248.9 1210.8,246.9 C1213.6,248.6 1215.8,250.7 1215.8,250.7 C1215.8,250.7 1219.7,249 1219.2,247.9 C1221.4,249.5 1222,250.6 1222,250.6 C1222,250.6 1226.5,249.3 1228.2,249 C1228.8,249.8 1228.2,251.2 1228.2,251.2 C1228.2,251.2 1232.1,250.3 1232.7,249.6 C1234.4,249.9 1236.6,251 1236.6,251 C1236.6,251 1239.4,249.9 1238.8,249.3 C1240.5,249.6 1242.2,250.6 1242.7,250.9 C1243.3,251.2 1244.4,249.2 1243.8,248.1 C1243.2,247 1250,250 1249.4,250.9 C1248.8,251.8 1253.9,248.5 1253.9,248.5 L1255.6,250.9 L1257.8,249.8 C1257.8,249.8 1260.6,250.9 1260.6,251.1 C1260.6,251.3 1262.8,250.3 1262.3,249.7 C1261.7,249.1 1267.3,251.6 1267.3,251.6 C1267.3,251.6 1270.1,249.2 1269.5,248.4 C1268.9,247.6 1274,251.2 1274,251.2 L1279.6,247.9 C1279.6,247.9 1279.6,250.3 1280.2,250.6 C1280.8,250.9 1285.2,249.3 1285.2,249.3 C1285.2,249.3 1287.4,250.7 1287.4,251.3 C1287.4,251.9 1291.9,251.1 1291.3,248.6 C1294.7,249.1 1297.5,251.1 1297.5,251.1 L1299.2,248.1 L1302.6,250.8 L1307.1,249.4 C1307.1,249.4 1310.5,250.8 1310.5,250.7 C1310.5,250.5 1312.2,248.7 1311.6,247.9 C1313.3,248.7 1316.6,250.9 1316.6,250.9 C1316.6,250.9 1318.8,247.6 1320.5,246.6 C1321.1,247.9 1322.2,250.5 1322.2,250.5 C1322.2,250.5 1325,249.9 1325.6,248.9 C1327.3,249.5 1328.4,250.9 1328.4,250.9 C1328.4,250.9 1332.3,249.8 1331.8,249.2 C1333.5,249.7 1333.5,250.8 1333.5,250.8 C1333.5,250.8 1338,250.2 1336.9,248.4 C1339.7,248.7 1342.5,250.1 1342.5,250.6 C1342.5,251.1 1347,248.4 1347,248.4 L1347.6,250.8 C1347.6,250.8 1352.6,249.2 1352.6,248.6 C1352.6,248 1354.8,250.6 1354.8,250.6 C1354.8,250.6 1359.8,248.2 1359.8,246.7 C1363.2,247.3 1360.9,250.8 1360.4,250.8 C1359.9,250.8 1363.2,249.1 1363.2,249.1 C1363.2,249.1 1366,251 1366,250.8 C1366,250.6 1367.7,249.4 1367.7,249.4 C1367.7,249.4 1371.6,250.2 1372.2,250.7 C1372.8,251.2 1375.6,249.4 1375,248.3 C1377.2,249.1 1377.8,250.8 1377.8,250.8 L1381.2,249.7 C1381.2,249.7 1382.9,251.1 1382.9,251 C1382.9,250.8 1385.7,249.7 1385.7,249.3 C1385.7,248.8 1389.6,251.3 1389.6,251.3 C1389.6,251.3 1392.4,248.9 1392.4,248.3 C1392.4,247.7 1395.8,251.1 1395.8,251.1 L1399.7,249.8 L1401.9,250.7 C1401.9,250.7 1405.3,250.2 1404.1,248.7 C1406.9,249.3 1410.3,250.7 1410.3,250.6 C1410.3,250.4 1414.2,247.6 1414.2,247.6 L1415.3,250.9 L1419.2,248.9 L1422,250.3 C1422,250.3 1425.9,248.9 1424.2,247.3 C1427.6,247.9 1429.8,250.6 1429.8,250.6 C1429.8,250.6 1433.2,249 1434.3,248.6 C1434.9,249.4 1434.9,251 1434.9,251 L1440.5,249.6 L1441.1,250.7 C1441.1,250.7 1443.9,250.4 1442.8,248.2 C1445.6,248.8 1446.7,251 1446.7,250.9 C1446.7,250.8 1449.5,248.7 1449.5,248.7 C1449.5,248.7 1451.7,251.1 1451.7,250.9 C1451.7,250.7 1455.1,249 1456.2,248.1 C1457.9,249.2 1457.3,250.8 1457.3,250.8 L1460.7,249.4 L1460.7,251 C1460.7,251 1464.1,250.1 1464.6,247.4 C1467.4,248.7 1465.2,251.2 1465.7,251 C1466.2,250.8 1470.7,248.5 1470.7,248.5 L1472.4,250.7 C1472.4,250.7 1476.9,250.4 1476.9,247.5 C1476.9,244.7 1481.4,250.5 1481.4,250.5 C1481.4,250.5 1484.2,248.5 1484.8,248.5 C1485.4,248.5 1488.7,251 1488.7,251 L1493.2,249.7 L1494.3,251 C1494.3,251 1497.7,250.2 1497.1,249.4 C1496.5,248.6 1501.6,251 1501.6,251 L1504.4,248.5 L1506.1,251.5 C1506.1,251.5 1510,250.4 1510,249.6 C1510,248.8 1513.4,251 1513.4,251 C1513.4,251 1516.2,249.1 1514.5,247.7 C1512.8,246.3 1519,251.3 1519,251.2 C1519,251 1521.8,249 1521.8,249 L1523.5,251.2 L1527.4,249.6 C1527.4,249.6 1528,251.3 1529.1,251.2 C1530.2,251 1534.1,250.9 1533,249.8 C1531.9,248.7 1536.4,251.2 1536.4,251.2 L1538.6,249.5 L1541.4,250.9 L1546.4,248.2 C1546.4,248.2 1545.8,251 1546.4,250.9 C1547,250.7 1550.9,249.3 1550.9,249.3 C1550.9,249.3 1551.8,250.6 1553.5,251.1" id="Shape" stroke="#FFFFFF"></path>
            <path d="M517,251.8 C517,251.8 523.1,251.3 521.4,250.8 C519.7,250.3 526.2,251.6 526.2,251.6 L528.4,249.2 C528.4,249.2 532.3,251.2 531.8,251.6 C531.2,251.9 536.8,249.7 537.4,249.6 C538,249.4 539.1,251.6 540.2,251.8 C541.3,252 542.4,250.2 542.4,250.2 L545.2,252.1 C545.2,252.1 548.6,250.4 548,249.4 C547.4,248.5 551.9,251.8 551.9,251.8 L554.7,250.4 L555.8,252.1 C555.8,252.1 559.7,250.5 561.4,250.1 C563.1,249.6 562.5,251.8 563.1,252 C563.7,252.2 565.3,250.3 565.3,250.3 L568.1,251.9 C568.1,251.9 570.9,250.3 569.8,249.2 C571.5,249.4 575.4,251.7 575.4,251.9 C575.4,252.1 578.8,250.3 578.8,250.3 L581.6,252 C581.6,252 584.4,250.9 583.8,249.6 C584.9,249.4 586.6,251.8 586.6,251.8 L592.2,250.2 L593.3,251.8 C593.3,251.8 597.2,250.7 596.7,250.1 C597.8,250.4 599.5,251.7 599.5,251.7 C599.5,251.7 604,250.1 602.3,248.5 C605.7,249.6 607.3,252 607.3,252 L611.8,250.1 C611.8,250.1 614,252.1 614,252 C614,251.9 617.9,249.8 617.9,249.8 L621.3,251.7 C621.3,251.7 623.5,249.2 621.9,247.8 C625.8,248.7 628.1,252.1 628.1,252.1 C628.1,252.1 631.5,250.4 634.3,249.4 C634.9,249.9 636,251.9 636,251.9 C636,251.9 639.9,250 642.2,250.3 C644.5,250.6 645.6,250.9 645.6,251.7 C648.4,250.4 649,248.7 646.7,248.1 C648.9,247.5 654,250.8 654,250.8 L659.6,249.2 C659.6,249.2 660.2,251.9 661.3,252 C662.4,252.2 665.8,250 665.8,250 L669.2,251.3 C669.2,251.3 670.9,248.8 669.2,247.7 C672.6,249.3 674.8,250.9 674.8,251.3 C674.8,251.7 681,249.4 681,249.4 C681,249.4 683.8,251 683.2,251.4 C682.6,251.9 686,251.1 686.6,250.1 C687.2,249.1 691.1,251.4 691.1,251.4 C691.1,251.4 693.3,249.5 691.7,247.5 C694.5,249.2 696.7,251.3 696.7,251.3 C696.7,251.3 700.6,249.6 700.1,248.5 C702.3,250.1 702.9,251.2 702.9,251.2 C702.9,251.2 707.4,249.9 709.1,249.6 C709.7,250.4 709.1,251.8 709.1,251.8 C709.1,251.8 713,250.9 713.6,250.2 C715.3,250.5 717.5,251.6 717.5,251.6 C717.5,251.6 720.3,250.5 719.7,249.9 C721.4,250.2 723.1,251.2 723.6,251.5 C724.2,251.8 725.3,249.8 724.7,248.7 C724.1,247.6 730.9,250.6 730.3,251.5 C729.7,252.4 734.8,249.1 734.8,249.1 L736.5,251.5 L738.7,250.4 C738.7,250.4 741.5,251.5 741.5,251.7 C741.5,251.9 743.7,250.9 743.2,250.3 C742.6,249.7 748.2,252.2 748.2,252.2 C748.2,252.2 751,249.8 750.4,249 C749.8,248.2 754.9,251.8 754.9,251.8 L760.5,248.5 C760.5,248.5 760.5,250.9 761.1,251.2 C761.7,251.5 766.1,249.9 766.1,249.9 C766.1,249.9 768.3,251.3 768.3,251.9 C768.3,252.5 772.8,251.7 772.2,249.2 C775.6,249.7 778.4,251.7 778.4,251.7 L780.1,248.7 L783.5,251.4 L788,250 C788,250 791.4,251.4 791.4,251.3 C791.4,251.1 793.1,249.3 792.5,248.5 C794.2,249.3 797.5,251.5 797.5,251.5 C797.5,251.5 799.7,248.2 801.4,247.2 C802,248.5 803.1,251.1 803.1,251.1 C803.1,251.1 805.9,250.5 806.5,249.5 C808.2,250.1 809.3,251.5 809.3,251.5 C809.3,251.5 813.2,250.4 812.7,249.8 C814.4,250.3 814.4,251.4 814.4,251.4 C814.4,251.4 818.9,250.8 817.8,249 C820.6,249.3 823.4,250.7 823.4,251.2 C823.4,251.7 827.9,249 827.9,249 L828.5,251.4 C828.5,251.4 833.5,249.8 833.5,249.2 C833.5,248.6 835.7,251.2 835.7,251.2 C835.7,251.2 840.7,248.8 840.7,247.3 C844.1,247.9 841.8,251.4 841.3,251.4 C840.7,251.4 844.1,249.7 844.1,249.7 C844.1,249.7 846.9,251.6 846.9,251.4 C846.9,251.2 848.6,250 848.6,250 C848.6,250 852.5,250.8 853.1,251.3 C853.7,251.8 856.5,250 855.9,248.9 C858.1,249.7 858.7,251.4 858.7,251.4 L862.1,250.3 C862.1,250.3 863.8,251.7 863.8,251.6 C863.8,251.5 866.6,250.3 866.6,249.9 C866.6,249.5 870.5,251.9 870.5,251.9 C870.5,251.9 873.3,249.5 873.3,248.9 C873.3,248.3 876.7,251.7 876.7,251.7 L880.6,250.4 L882.8,251.3 C882.8,251.3 886.2,250.8 885,249.3 C887.8,249.9 891.2,251.3 891.2,251.2 C891.2,251 895.1,248.2 895.1,248.2 L896.2,251.5 L900.1,249.5 L902.9,250.9 C902.9,250.9 906.8,249.5 905.1,247.9 C908.5,248.5 910.7,251.2 910.7,251.2 C910.7,251.2 914.1,249.6 915.2,249.2 C915.8,250 915.8,251.6 915.8,251.6 L921.4,250.2 L922,251.3 C922,251.3 924.8,251 923.7,248.8 C926.5,249.4 927.6,251.6 927.6,251.5 C927.6,251.3 930.4,249.3 930.4,249.3 C930.4,249.3 932.6,251.7 932.6,251.5 C932.6,251.3 936,249.6 937.1,248.7 C938.8,249.8 938.2,251.4 938.2,251.4 L941.6,250 L941.6,251.6 C941.6,251.6 945,250.7 945.5,248 C948.3,249.3 946.1,251.8 946.6,251.6 C947.2,251.4 951.6,249.1 951.6,249.1 L953.3,251.3 C953.3,251.3 957.8,251 957.8,248.1 C957.8,245.3 962.3,251.1 962.3,251.1 C962.3,251.1 965.1,249.1 965.7,249.1 C966.3,249.1 969.6,251.6 969.6,251.6 L974.1,250.3 L975.2,251.6 C975.2,251.6 978.6,250.8 978,250 C977.4,249.2 982.5,251.6 982.5,251.6 L985.3,249.1 L987,252.1 C987,252.1 990.9,251 990.9,250.2 C990.9,249.4 994.3,251.6 994.3,251.6 C994.3,251.6 997.1,249.7 995.4,248.3 C993.7,246.9 999.9,251.9 999.9,251.8 C999.9,251.7 1002.7,249.6 1002.7,249.6 L1004.4,251.8 L1008.3,250.2 C1008.3,250.2 1008.9,251.9 1010,251.8 C1011.1,251.7 1015,251.5 1013.9,250.4 C1012.8,249.3 1017.3,251.8 1017.3,251.8 L1019.5,250.1 L1022.3,251.5 L1027.3,248.8 C1027.3,248.8 1026.7,251.6 1027.3,251.5 C1027.9,251.3 1031.8,249.9 1031.8,249.9 C1031.8,249.9 1032.7,251.2 1034.4,251.7" id="Shape" stroke="#FFFFFF"></path>
            <path d="M0.1,252.9 C0.1,252.9 6.2,252.4 4.5,251.9 C2.8,251.4 9.3,252.7 9.3,252.7 L11.5,250.3 C11.5,250.3 15.4,252.3 14.9,252.7 C14.3,253 19.9,250.8 20.5,250.7 C21.1,250.5 22.2,252.7 23.3,252.9 C24.4,253.1 25.5,251.3 25.5,251.3 L28.3,253.2 C28.3,253.2 31.7,251.5 31.1,250.5 C30.5,249.5 35,252.9 35,252.9 L37.8,251.5 L38.9,253.2 C38.9,253.2 42.8,251.6 44.5,251.2 C46.2,250.7 45.6,252.9 46.2,253.1 C46.8,253.3 48.4,251.4 48.4,251.4 L51.2,253 C51.2,253 54,251.4 52.9,250.3 C54.6,250.5 58.5,252.8 58.5,253 C58.5,253.2 61.9,251.4 61.9,251.4 L64.7,253.1 C64.7,253.1 67.5,252 66.9,250.7 C68,250.5 69.7,252.9 69.7,252.9 L75.3,251.3 L76.4,252.9 C76.4,252.9 80.3,251.8 79.8,251.2 C80.9,251.5 82.6,252.8 82.6,252.8 C82.6,252.8 87.1,251.2 85.4,249.6 C88.8,250.7 90.4,253.1 90.4,253.1 L94.9,251.2 C94.9,251.2 97.1,253.2 97.1,253.1 C97.1,253 101,250.9 101,250.9 L104.4,252.8 C104.4,252.8 106.6,250.3 105,248.9 C108.9,249.8 111.2,253.2 111.2,253.2 C111.2,253.2 114.6,251.5 117.4,250.5 C118,251 119.1,253 119.1,253 C119.1,253 123,251.1 125.3,251.4 C127.6,251.7 128.7,252 128.7,252.8 C131.5,251.5 132.1,249.8 129.8,249.2 C132,248.6 137.1,251.9 137.1,251.9 L142.7,250.3 C142.7,250.3 143.3,253 144.4,253.1 C145.5,253.2 148.9,251.1 148.9,251.1 L152.3,252.4 C152.3,252.4 154,249.9 152.3,248.8 C155.7,250.4 157.9,252 157.9,252.4 C157.9,252.8 164.1,250.5 164.1,250.5 C164.1,250.5 166.9,252.1 166.3,252.5 C165.7,253 169.1,252.2 169.7,251.2 C170.3,250.2 174.2,252.5 174.2,252.5 C174.2,252.5 176.4,250.6 174.8,248.6 C177.6,250.3 179.8,252.4 179.8,252.4 C179.8,252.4 183.7,250.7 183.2,249.6 C185.4,251.2 186,252.3 186,252.3 C186,252.3 190.5,251 192.2,250.7 C192.8,251.5 192.2,252.9 192.2,252.9 C192.2,252.9 196.1,252 196.7,251.3 C198.4,251.6 200.6,252.7 200.6,252.7 C200.6,252.7 203.4,251.6 202.8,251 C204.5,251.3 206.2,252.3 206.7,252.6 C207.3,252.9 208.4,250.9 207.8,249.8 C207.2,248.7 214,251.7 213.4,252.6 C212.8,253.5 217.9,250.2 217.9,250.2 L219.6,252.6 L221.8,251.5 C221.8,251.5 224.6,252.6 224.6,252.8 C224.6,253 226.8,252 226.3,251.4 C225.7,250.8 231.3,253.3 231.3,253.3 C231.3,253.3 234.1,250.9 233.5,250.1 C232.9,249.3 238,252.9 238,252.9 L243.6,249.6 C243.6,249.6 243.6,252 244.2,252.3 C244.8,252.6 249.2,251 249.2,251 C249.2,251 251.4,252.4 251.4,253 C251.4,253.6 255.9,252.8 255.3,250.3 C258.7,250.8 261.5,252.8 261.5,252.8 L263.2,249.8 L266.6,252.5 L271.1,251.1 C271.1,251.1 274.5,252.5 274.5,252.4 C274.5,252.2 276.2,250.4 275.6,249.6 C277.3,250.4 280.6,252.6 280.6,252.6 C280.6,252.6 282.8,249.3 284.5,248.3 C285.1,249.6 286.2,252.2 286.2,252.2 C286.2,252.2 289,251.6 289.6,250.6 C291.3,251.2 292.4,252.6 292.4,252.6 C292.4,252.6 296.3,251.5 295.8,250.9 C297.5,251.4 297.5,252.5 297.5,252.5 C297.5,252.5 302,251.9 300.9,250.1 C303.7,250.4 306.5,251.8 306.5,252.3 C306.5,252.8 311,250.1 311,250.1 L311.6,252.5 C311.6,252.5 316.6,250.9 316.6,250.3 C316.6,249.7 318.8,252.3 318.8,252.3 C318.8,252.3 323.8,249.9 323.8,248.4 C327.2,249 324.9,252.5 324.4,252.5 C323.9,252.5 327.2,250.8 327.2,250.8 C327.2,250.8 330,252.7 330,252.5 C330,252.3 331.7,251.1 331.7,251.1 C331.7,251.1 335.6,251.9 336.2,252.4 C336.8,252.9 339.6,251.1 339,250 C341.2,250.8 341.8,252.5 341.8,252.5 L345.2,251.4 C345.2,251.4 346.9,252.8 346.9,252.7 C346.9,252.6 349.7,251.4 349.7,251 C349.7,250.6 353.6,253 353.6,253 C353.6,253 356.4,250.6 356.4,250 C356.4,249.4 359.8,252.8 359.8,252.8 L363.7,251.5 L365.9,252.4 C365.9,252.4 369.3,251.9 368.1,250.4 C370.9,251 374.3,252.4 374.3,252.3 C374.3,252.1 378.2,249.3 378.2,249.3 L379.3,252.6 L383.2,250.6 L386,252 C386,252 389.9,250.6 388.2,249 C391.6,249.6 393.8,252.3 393.8,252.3 C393.8,252.3 397.2,250.7 398.3,250.3 C398.9,251.1 398.9,252.7 398.9,252.7 L404.5,251.3 L405.1,252.4 C405.1,252.4 407.9,252.1 406.8,249.9 C409.6,250.5 410.7,252.7 410.7,252.6 C410.7,252.4 413.5,250.4 413.5,250.4 C413.5,250.4 415.7,252.8 415.7,252.6 C415.7,252.4 419.1,250.7 420.2,249.8 C421.9,250.9 421.3,252.5 421.3,252.5 L424.7,251.1 L424.7,252.7 C424.7,252.7 428.1,251.8 428.6,249.1 C431.4,250.4 429.2,252.9 429.7,252.7 C430.3,252.5 434.7,250.2 434.7,250.2 L436.4,252.4 C436.4,252.4 440.9,252.1 440.9,249.2 C440.9,246.4 445.4,252.2 445.4,252.2 C445.4,252.2 448.2,250.2 448.8,250.2 C449.4,250.2 452.7,252.7 452.7,252.7 L457.2,251.4 L458.3,252.7 C458.3,252.7 461.7,251.9 461.1,251.1 C460.5,250.3 465.6,252.7 465.6,252.7 L468.4,250.2 L470.1,253.2 C470.1,253.2 474,252.1 474,251.3 C474,250.5 477.4,252.7 477.4,252.7 C477.4,252.7 480.2,250.8 478.5,249.4 C476.8,248 483,253 483,252.9 C483,252.8 485.8,250.7 485.8,250.7 L487.5,252.9 L491.4,251.3 C491.4,251.3 492,253 493.1,252.9 C494.2,252.7 498.1,252.6 497,251.5 C495.9,250.4 500.4,252.9 500.4,252.9 L502.6,251.2 L505.4,252.6 L510.4,249.9 C510.4,249.9 509.8,252.7 510.4,252.6 C511,252.4 514.9,251 514.9,251 C514.9,251 515.8,252.3 517.5,252.8" id="Shape" stroke="#FFFFFF"></path>
        </g>
    </g>
</svg>