<?xml version="1.0" encoding="UTF-8"?>
<svg width="4000px" height="320px" viewBox="0 0 4000 320" version="1.1" xmlns="http://www.w3.org/2000/svg" xmlns:xlink="http://www.w3.org/1999/xlink">
    <!-- Generator: Sketch 51.2 (57519) - http://www.bohemiancoding.com/sketch -->
    <title>Helse</title>
    <desc>Created with Sketch.</desc>
    <defs></defs>
    <g id="Helse" stroke="none" stroke-width="1" fill="none" fill-rule="evenodd">
        <g id="helse" transform="translate(0.000000, 127.000000)" stroke="#FFFFFF">
            <path d="M0,102.5 L3792.6,101.26 C3793.42,101.26 3794.14,100.26 3794.37,98.7 C3794.97,94.76 3796.09,87.65 3796.42,87.65 C3797.54,89.54 3798.79,101.43 3800.49,101.52 C3801.53485,101.667067 3802.59515,101.667067 3803.64,101.52 C3808.04,101.27 3807.25,64.97 3809.64,65.72 C3811.94,68.11 3813.12,166.81 3815.88,166.31 C3818.64,165.81 3820.88,90.81 3822.88,92.7 C3823.73,94.34 3823.6,96.36 3825.05,101.52 C3827.94,107.82 3829.69,31.39 3831.53,31.52 C3833.18,31.63 3835.36,92.7 3838.78,101.52 C3840.36,101.27 3841.01,87.15 3842.07,88.16 C3843.13,89.17 3844.3,101.27 3845.88,101.02 C3847.46,100.77 3904.88,101.09 3913.88,101.14 C3914.31526,101.175879 3914.74686,101.036662 3915.07912,100.753209 C3915.41138,100.469755 3915.61686,100.065481 3915.65,99.63 C3915.65,99.63 3916.48,96.77 3917.29,93.58 C3918.47,88.92 3919.07,91.9 3919.46,93.45 C3920.2,96.39 3922.35,101.52 3923.27,101.52 C3928.86,101.52 3928.99,-0.2 3931.27,0.05 C3933.55,0.3 3934.54,152.51 3937.54,152.51 C3941.54,152.51 3942.67,95.03 3943.54,93.51 C3945.12,90.74 3945.27,101.14 3947.37,100.89 C3949.47,100.64 3951.71,61.69 3953.94,62.7 C3956.17,63.71 3958.01,100.26 3959.72,100.51 C3961.43,100.76 3962.35,84.51 3963.53,85.51 C3964.71,86.51 3964.19,100.51 3966.68,100.76 C3969.17,101.01 3997.53,100.51 3997.53,100.51" id="Shape"></path>
        </g>
    </g>
</svg>