<?xml version="1.0" encoding="UTF-8"?>
<svg width="4000px" height="320px" viewBox="0 0 4000 320" version="1.1" xmlns="http://www.w3.org/2000/svg" xmlns:xlink="http://www.w3.org/1999/xlink">
    <!-- Generator: Sketch 51.2 (57519) - http://www.bohemiancoding.com/sketch -->
    <title>Historie</title>
    <desc>Created with Sketch.</desc>
    <defs></defs>
    <g id="Historie" stroke="none" stroke-width="1" fill="none" fill-rule="evenodd">
        <g id="historie" transform="translate(17.000000, 26.000000)">
            <path d="M3965.5,1.5 C3965.5,2.5 3921.5,127.5 3921.5,127.5" id="Shape" stroke="#FFFFFF"></path>
            <path d="M3952.5,9.5 C3953.5,8.5 3962.5,9.5 3962.5,9.5" id="Shape" stroke="#FFFFFF"></path>
            <path d="M3949.5,15.5 L3960.5,15.5" id="Shape" stroke="#FFFFFF"></path>
            <path d="M3947.5,22.5 L3957.5,22.5" id="Shape" stroke="#FFFFFF"></path>
            <path d="M3943.5,29.5 C3945.5,29.5 3955.5,29.5 3955.5,29.5" id="Shape" stroke="#FFFFFF"></path>
            <path d="M3941.5,36.5 L3953.5,36.5" id="Shape" stroke="#FFFFFF"></path>
            <path d="M3938.5,43.5 L3951.5,43.5" id="Shape" stroke="#FFFFFF"></path>
            <path d="M3935.5,51.5 L3947.5,51.5" id="Shape" stroke="#FFFFFF"></path>
            <path d="M3931.5,61.5 L3943.5,61.5" id="Shape" stroke="#FFFFFF"></path>
            <path d="M3927.5,71.5 C3928.5,71.5 3940.5,70.5 3940.5,70.5" id="Shape" stroke="#FFFFFF"></path>
            <path d="M3923.5,81.5 C3924.5,81.5 3937.5,80.5 3937.5,80.5" id="Shape" stroke="#FFFFFF"></path>
            <path d="M3919.5,93.5 C3920.5,93.5 3933.5,91.5 3933.5,91.5" id="Shape" stroke="#FFFFFF"></path>
            <path d="M3914.5,104.5 L3930.5,101.5" id="Shape" stroke="#FFFFFF"></path>
            <path d="M3910.5,116.5 C3911.5,116.5 3926.5,112.5 3926.5,112.5" id="Shape" stroke="#FFFFFF"></path>
            <path d="M3921.5,7.4 C3921.5,7.4 3921.1,7.7 3920.6,8.3 C3919,10 3915.7,13.7 3916.4,16.4 C3917.3,20 3919.4,20 3920.3,19.4 C3921.2,18.8 3923.3,16.4 3923,10.7 C3922.7,5 3918.8,8.3 3918.8,8.3" id="Shape" stroke="#FFFFFF"></path>
            <path d="M3919.1,19.7 C3919.1,19.7 3918.8,37.4 3921.8,39.8 C3924.8,42.2 3927.8,42.5 3928.4,41.9 C3929,41.3 3929.3,41.3 3927.5,38.6 C3925.7,35.9 3923.9,33.2 3923.6,31.4 C3923.3,29.6 3921.2,18.5 3921.2,18.5" id="Shape" stroke="#FFFFFF"></path>
            <path d="M3921.2,19.1 C3921.2,20 3922.1,26.3 3925.4,28.7 C3928.7,31.1 3941.9,30.1 3943.4,29.5" id="Shape" stroke="#FFFFFF"></path>
            <path d="M3918.8,22.7 C3918.5,23 3911,27.5 3907.1,26.6 C3903.2,25.7 3899.9,23.3 3898.4,22.4 C3896.9,21.5 3896.9,19.4 3896.9,18.5 C3896.9,17.6 3896.3,16.1 3895.4,16.7 C3894.5,17.3 3895.7,18.2 3895.7,18.2 L3895.6,19.8" id="Shape" stroke="#FFFFFF"></path>
            <polyline id="Shape" stroke="#FFFFFF" points="3917.3 12.8 3919.7 12.8 3920.9 12.8"></polyline>
            <path d="M3924,41.3 C3924,41.3 3925.2,56.6 3928.3,62.6 C3932.4,70.4 3931.7,69.6 3927.8,70.1 C3926,70.3 3924.6,70.9 3926.2,71.7 C3927.6,72.5 3931.6,71.2 3932.3,70.5" id="Shape" stroke="#FFFFFF"></path>
            <path d="M3928.5,41.3 C3928.5,41.3 3933.5,53.7 3933.5,55.5" id="Shape" stroke="#FFFFFF"></path>
            <path d="M3933.5,55.5 C3933.5,55.5 3935.1,60.6 3936,60.6 C3936.9,60.6 3940.5,57 3940.8,59.1 C3941.1,61.2 3941.1,61.5 3939,61.2" id="Shape" stroke="#FFFFFF"></path>
            <path d="M3944.4,29.3 C3944.4,29.3 3946.8,28.4 3947.4,29.3" id="Shape" stroke="#FFFFFF"></path>
            <path d="M3896.5,6.5 C3894.5,23.5 3896.5,33.5 3896.5,33.5 C3896.5,33.5 3892.5,36.5 3891.5,33.5 C3893.5,18.5 3891.5,16.5 3891.5,6.5 C3892.5,7.5 3895.5,7.5 3896.5,6.5 Z" id="Shape" stroke="#FFFFFF"></path>
            <path d="M3891.4,6.1 C3891.3,5.6 3893.7,2.3 3896.7,5.9" id="Shape" stroke="#FFFFFF"></path>
            <path d="M3882.5,178.5 L3905.5,177.1 C3905.5,177.1 3922.9,179 3922.5,180 C3922.2,181 3923.8,181 3922.2,181 C3920.6,181 3919.9,182 3920.3,183.6 C3920.7,185.2 3920.3,189.4 3920.3,189.4 C3920.3,189.4 3923.5,190.4 3923.5,191 C3923.5,191.6 3920.9,192 3918.4,192 C3915.8,192 3902.6,190.7 3898.1,191 C3893.6,191.3 3865,192.9 3864.3,192 C3863.7,191 3861.5,190.7 3862.4,188.6" id="Shape" stroke="#FFFFFF"></path>
            <path d="M3864.4,191.9 C3864.4,191.9 3858.6,192.5 3857.6,193.2 C3856.6,193.8 3858.6,203.2 3858.9,204.1 C3859.2,205.1 3860.8,205.7 3864.7,205.4 C3868.6,205.1 3889.8,204.8 3893.3,205.1 C3896.8,205.4 3909.1,205.7 3909.1,205.7 L3919.4,205.7 C3919.4,205.7 3919.7,198.6 3918.4,191.9" id="Shape" stroke="#FFFFFF"></path>
            <path d="M3861.8,205.7 C3861.8,205.7 3859.9,209.6 3859.9,210.5 C3859.9,211.4 3860.2,212.4 3859.9,213.1 C3859.6,213.7 3860.2,214.4 3860.2,214.7 C3860.2,215 3864.1,217 3865,217 C3866,217 3876.9,218.3 3880.8,218.6 C3884.7,218.9 3914.9,219.9 3916.8,219.6 C3918.7,219.3 3924.2,214.8 3925.2,213.5 C3926.2,212.2 3925.2,212.2 3924.6,211.2 C3924,210.2 3924,208 3924,207.3 C3924,206.6 3925.3,207 3925.3,206.3 C3925.3,205.7 3924.3,205 3923.7,204.7 C3923.1,204.4 3919.5,205 3919.5,205" id="Shape" stroke="#FFFFFF"></path>
            <path d="M3851.8,217 C3851.8,217 3849.9,218.6 3850.2,223.1 C3850.5,227.6 3851.2,230.2 3853.1,230.8 C3855,231.4 3893.3,240.8 3895.9,240.4 C3898.5,240.1 3929.3,229.1 3929,228.2 C3928.7,227.2 3927.4,226.6 3926.7,226.9 C3926.1,227.2 3924.4,223.7 3924.1,221.4 C3923.8,219.1 3925.4,219.1 3924.7,218.2 C3924,217.3 3921.8,215.9 3921.2,216.3" id="Shape" stroke="#FFFFFF"></path>
            <path d="M3924.2,219.5 C3924.2,219.5 3898.5,225 3897.5,226.3 C3896.5,227.6 3895.2,229.2 3895.6,232.1 C3895.9,235 3896.6,237.2 3897.9,237.2 C3899.2,237.2 3925.6,227.2 3926.2,226.6" id="Shape" stroke="#FFFFFF"></path>
            <path d="M3923.5,221.1 C3922.9,221.1 3902.6,227.2 3901,227.9" id="Shape" stroke="#FFFFFF"></path>
            <path d="M3924.5,223.4 C3923.9,223.4 3906.8,228.5 3903.9,230.2" id="Shape" stroke="#FFFFFF"></path>
            <path d="M3925.1,225.3 C3924.5,225.3 3906.1,230.8 3903.9,232.1" id="Shape" stroke="#FFFFFF"></path>
            <path d="M3923.9,206.7 C3923.3,206.7 3920.4,207 3920.4,207 C3920.4,207 3919.1,213.8 3919.4,214.4 C3919.7,215 3924.5,211.8 3924.5,211.8" id="Shape" stroke="#FFFFFF"></path>
            <path d="M3900.4,177.4 C3899.8,178 3898.5,182.2 3899.8,186.4 C3901.1,190.6 3904.3,189.6 3904.3,189.6 L3920.7,189.6" id="Shape" stroke="#FFFFFF"></path>
            <path d="M3917.1,193.5 C3917.1,193.5 3916.1,195.4 3916.5,199 C3916.8,202.5 3916.8,203.5 3917.5,203.8" id="Shape" stroke="#FFFFFF"></path>
            <path d="M3923.9,208.3 C3923.3,208.3 3921,208.6 3921,208.6" id="Shape" stroke="#FFFFFF"></path>
            <path d="M3923.5,210.2 L3921.6,211.2" id="Shape" stroke="#FFFFFF"></path>
            <path d="M3897.2,179 C3897.2,179 3896.9,188.6 3898.2,190.3" id="Shape" stroke="#FFFFFF"></path>
            <path d="M3919.7,183.2 C3918.4,182.6 3908.1,183.2 3904.6,182.2" id="Shape" stroke="#FFFFFF"></path>
            <path d="M3920,185.1 C3919,185.1 3910.4,186.1 3905.5,185.4" id="Shape" stroke="#FFFFFF"></path>
            <path d="M3920,188.3 C3919,188 3903,186.7 3903,186.7" id="Shape" stroke="#FFFFFF"></path>
            <path d="M3861.5,131.5 C3859.5,132.5 3854.4,136.6 3856,143 C3857.6,149.4 3863.1,147.8 3863.4,147.5 C3863.7,147.2 3870.5,142.4 3870.5,138.8 C3870.5,135.3 3870.2,133 3868.2,132 C3866.3,131.1 3866.5,130.5 3861.5,131.5" id="Shape" stroke="#FFFFFF"></path>
            <path d="M3855.9,137.4 C3855.8,137.2 3858.1,136.9 3862.1,138.8 C3865.5,140.5 3866.6,141.1 3864.7,140.7 C3862.8,140.4 3858.9,140.7 3857,139.7" id="Shape" stroke="#FFFFFF"></path>
            <path d="M3866.8,144.8 C3866.6,144.5 3870.7,153.8 3870.6,157.1" id="Shape" stroke="#FFFFFF"></path>
            <path d="M3883.5,175.5 C3883.5,175.5 3877.2,183.5 3870.4,185.8 C3863.6,188.1 3858.8,189.9 3850.5,190.5 C3848.6,190.8 3849.5,190.9 3849.5,190.9 C3849.5,190.9 3855.9,207 3856.9,208.9 C3857.9,210.8 3858.1,212.8 3857.5,214.4 C3856.9,216 3855.9,215.8 3853.5,216.4 C3850.3,217.2 3849.8,217.8 3848.6,218.8 C3847.2,220 3847,219.1 3848,217.8 C3849,216.5 3853.8,214.6 3854.1,213.6 C3854.4,212.6 3855.4,212 3853.8,209.7 C3852.2,207.4 3851.9,207.4 3850.9,204.6 C3849.9,201.7 3846.9,193.4 3846.4,191.4 C3846,189.7 3846.4,189.3 3847,188.5 C3847.8,187.5 3852.8,187.5 3855,186.6 C3857.3,185.6 3866.3,183.7 3868.5,182.4 C3870.8,181.1 3875.2,180.9 3877.5,177.3" id="Shape" stroke="#FFFFFF"></path>
            <path d="M3871.4,175.8 C3871.4,175.8 3857.9,181.3 3850.8,181.9" id="Shape" stroke="#FFFFFF"></path>
            <path d="M3843.5,193.5 C3843.5,193.5 3843.5,211.2 3842.2,212.8 C3840.9,214.4 3835.8,217.3 3834.2,217.9 C3832.6,218.5 3833.2,216.6 3835.2,215.3 C3837.1,214 3838.4,214.3 3839.7,209.8 C3841,205.3 3840.6,196.4 3840.6,196.4" id="Shape" stroke="#FFFFFF"></path>
            <path d="M3875,143.6 C3875,143.6 3870.8,155.8 3868.9,165.8 C3867.6,168.7 3864.4,170 3862.8,170 C3862.8,170 3857.7,170.3 3855.4,170.6 C3853.1,170.9 3851.5,171.2 3850.3,170 C3849,168.7 3850,169 3849.7,170.3 C3849.4,171.6 3848.7,171.6 3847.4,170.9 C3846.1,170.3 3846.8,173.2 3846.8,173.5 C3846.8,173.8 3847.8,177 3849.1,176.1 C3850.4,175.1 3850.7,173.5 3850.7,173.5 C3850.7,173.5 3860.7,175.1 3865.2,173.8 C3869.7,172.5 3870.3,172.5 3870.7,171.2 C3871.1,169.9 3880.3,148.7 3880,147.1" id="Shape" stroke="#FFFFFF"></path>
            <path d="M3867.9,147.8 C3867.9,147.8 3860.8,158.7 3859.5,161 C3858.2,163.3 3858.9,164.9 3853.4,164.9 C3847.9,164.9 3843.4,164.9 3842.5,164.5" id="Shape" stroke="#FFFFFF"></path>
            <path d="M3820.5,155.5 C3820.2,155.5 3817.1,154.9 3817.1,154.9 C3817.1,154.9 3815.8,156.2 3816.5,156.5 C3817.1,156.8 3819.4,157.1 3819.4,157.1" id="Shape" stroke="#FFFFFF"></path>
            <path d="M3840.6,158.4 C3840.6,158.4 3839.3,158.7 3839.6,159.7 C3839.9,160.7 3844.1,161.3 3844.4,161.3 C3844.7,161.3 3846,160.3 3845.7,160 C3845.4,159.7 3840.6,158.4 3840.6,158.4 Z" id="Shape" stroke="#FFFFFF"></path>
            <path d="M3840.2,156.5 C3839.6,156.5 3837.2,159.6 3838.5,162.5" id="Shape" stroke="#FFFFFF"></path>
            <path d="M3850.5,173.9 C3852.8,186.1 3848.2,186.8 3832.8,205.4 C3817.4,224 3808.4,248.2 3806.8,251.7 C3805.2,255.2 3801.7,257.5 3800.7,256.5 C3799.7,255.5 3796.8,250.7 3795.9,246.9 C3794.9,243 3793.6,232.4 3788.8,231.8 C3784,231.2 3782.7,236.3 3782.7,236.9 C3782.7,237.5 3785,256.5 3779.5,256.2 C3774,255.9 3774.4,251.1 3770.8,239.2 C3767.3,227.3 3760.2,231.2 3760.2,231.2 C3760.2,231.2 3758.6,231.8 3759.2,238.9 C3759.8,246 3759.2,256.6 3757.9,257.2 C3756.6,257.8 3754.4,257.5 3753.7,255.9 C3753.1,254.3 3744.7,234.4 3741.2,234.7 C3737.7,235 3737,239.8 3736.7,242.4 C3736.4,245 3736.7,257.2 3733.5,257.5 C3730.3,257.8 3725.4,254.6 3723.5,249.5" id="Shape" stroke="#FFFFFF"></path>
            <path d="M3793.6,235 C3794.2,231.5 3802.6,220.2 3805.8,213.1 C3809,206 3824.8,191.6 3832.5,181.9 C3840.2,172.3 3820,159.4 3820,159.4 C3820.1,159.4 3818.2,156.4 3821.5,154.5 C3829.5,155.5 3839.6,156.5 3839.6,156.5 C3839.6,156.5 3840.7,156 3842.1,158.3" id="Shape" stroke="#FFFFFF"></path>
            <path d="M3788.1,231.4 L3769.4,230.1 C3769.4,230.1 3767.5,231.4 3767.5,232.4" id="Shape" stroke="#FFFFFF"></path>
            <path d="M3762.4,230.5 C3762.4,230.5 3749.2,228.9 3747.6,229.9 C3746,230.9 3744.7,234.1 3744.7,236.3" id="Shape" stroke="#FFFFFF"></path>
            <path d="M3741.2,234.6 C3741.2,234.6 3717.7,233.6 3715.8,235.2 C3714.8,237.1 3715.2,238.1 3714.5,239.4" id="Shape" stroke="#FFFFFF"></path>
            <path d="M3801,256.5 C3800,256.5 3786.5,253.3 3783.3,251.4" id="Shape" stroke="#FFFFFF"></path>
            <path d="M3779.8,256.5 C3778.8,256.2 3775.9,257.8 3769.2,254.9 C3762.4,252 3759.2,252 3759.2,252" id="Shape" stroke="#FFFFFF"></path>
            <path d="M3754.7,256.8 C3753.7,256.5 3749.2,256.5 3745.4,254.9 C3741.5,253.3 3735.8,251.7 3735.8,251.7" id="Shape" stroke="#FFFFFF"></path>
            <path d="M3839.5,163.5 C3843.4,165.3 3849.4,166.7 3849.6,169.4" id="Shape" stroke="#FFFFFF"></path>
            <path d="M3868.2,173.1 L3867.4,175.5 C3867.4,175.5 3869.4,174.5 3874.4,176.5 C3879.4,178.5 3883.4,175.5 3883.4,175.5 C3883.4,175.5 3885.4,177.5 3885.4,162.5 C3885.4,147.5 3878.4,138.5 3874.4,137.5 C3870.4,136.5 3870.4,136.5 3870.4,136.5" id="Shape" stroke="#FFFFFF"></path>
            <path d="M3849.3,185.7 C3849.3,185.7 3875.5,178.5 3876.5,177.5" id="Shape" stroke="#FFFFFF"></path>
            <path d="M3838.5,162.5 C3838.5,162.5 3839.5,165.5 3841.5,161.5" id="Shape" stroke="#FFFFFF"></path>
            <path d="M3713,239 L3687,238" id="Shape"></path>
            <path d="M3723.5,250.5 C3722.5,246.5 3716.2,238.6 3713.5,239.5 C3711.4,240.2 3707.5,257.5 3700.5,258.5 C3693.5,259.5 3685.4,249.2 3682.5,248.5 C3679.2,247.7 3672.5,257.5 3669.5,260.5 C3660.2,265.3 3624.3,259.3 3616.5,255.5 C3607.3,251 3553.8,261.7 3544.8,260.7 C3535.8,259.7 3509.5,257.5 3505.5,258.5 C3501.5,259.5 3484.5,257.5 3480.5,257.5 C3476.5,257.5 3453.7,256.9 3437.4,257.5 C3430.6,257.8 3408.4,262.9 3403.5,256.5" id="Shape" stroke="#FFFFFF"></path>
            <path d="M3714.5,239.5 C3713.5,239.5 3689,239 3688,239 C3687,239 3684,243 3684,248" id="Shape" stroke="#FFFFFF"></path>
            <path d="M3728.5,256.5 L3706.5,253.5" id="Shape" stroke="#FFFFFF"></path>
            <path d="M3695.5,258.5 C3693.5,257.5 3672.5,256.5 3672.5,256.5" id="Shape" stroke="#FFFFFF"></path>
            <path d="M3683.5,248.5 C3683.5,248.5 3666.5,244.5 3664.5,245.5 C3662.5,246.5 3661.5,250.5 3659.5,251.5 C3657.5,252.5 3634.5,246.5 3628.5,246.5 C3622.5,246.5 3579.5,250.5 3570.5,249.5 C3561.5,248.5 3529,248.3 3519,249.3 C3509,250.3 3491,250.3 3481,249.3 C3471,248.3 3432.3,248.3 3430.3,248.3 C3428.3,248.3 3389.2,250.3 3385.2,249.3" id="Shape" stroke="#FFFFFF"></path>
            <path d="M3391.2,251 L3370.4,247.2 C3370.4,247.2 3366.2,252.2 3361.7,252.5 C3357.2,252.8 3336.2,248.5 3331.7,248.8 C3327.2,249.1 3310.2,247.6 3299.5,250.5 C3288.8,253.4 3256.3,251 3256.3,251 C3256.3,251 3227,248.8 3220.6,249.8 C3214.3,250.8 3187.1,253.6 3178.9,252.8 C3170.7,252 3145.4,251.5 3143.9,251.8 C3142.4,252.1 3101.7,252.1 3095.2,252.1 C3088.7,252.1 3060.4,251.7 3057.6,251.3" id="Shape" stroke="#FFFFFF"></path>
            <path d="M3065.2,254.2 C3065,254 3043.4,248.1 3041,248.2 C3038.6,248.3 3033.6,253.1 3018.6,251.8 C3003.6,250.5 2985.6,248 2974.1,248.3 C2962.6,248.6 2951.1,251.6 2944.8,251.5 C2938.5,251.3 2919.6,252.5 2904.1,251 C2888.6,249.5 2871.6,249.5 2862.8,250.2 C2854,250.9 2845,251.9 2832,251 C2819,250.1 2806.2,250 2791.3,250.7 C2776.5,251.4 2759,251.7 2748.1,250.4 C2737.3,249.1 2724.6,249.1 2720.1,250.1" id="Shape" stroke="#FFFFFF"></path>
            <path d="M3403.3,256.7 C3403.3,256.7 3396.3,250.2 3391.1,251 C3385.9,251.8 3380.1,262 3374.3,261.3 C3368.5,260.6 3370.3,263.1 3363.6,262 C3356.9,260.8 3318.6,257.7 3311.1,259 C3303.6,260.3 3270.4,264 3258.3,262 C3246.1,260 3260,258.7 3226.1,260.3 C3192.3,262 3182.4,263.5 3172.4,262.5 C3162.4,261.5 3154.1,261.8 3152.4,262 C3150.7,262.2 3090.7,263.8 3085.6,263 C3080.4,262.2 3070.8,254.2 3064.6,254.7 C3058.4,255.2 3053.3,256.2 3048.3,258.5 C3043.3,260.8 3039.3,263.7 3025.5,262.2 C3011.7,260.7 2989.3,257.5 2969.7,259.7 C2950,261.9 2923.9,263.2 2906.5,261.4 C2889.2,259.6 2867.8,260.7 2855.8,261.4 C2843.8,262.1 2839.8,263.1 2833.3,262.1 C2826.8,261.1 2814.6,260.6 2806.5,261.3 C2798.3,262 2751.5,263.8 2746.5,262.8 C2741.5,261.8 2729.8,260.3 2719.7,261" id="Shape" stroke="#FFFFFF"></path>
            <path d="M2720.5,249.5 C2720.5,249.5 2665.5,251.5 2646.5,250.5 C2627.5,249.5 2597.5,247.5 2589.5,247.5 C2581.5,247.5 2553.5,247.5 2516.5,249.5 C2479.5,251.5 2456.5,251.5 2453.5,250.5 C2450.5,249.5 2422.5,250.5 2420.5,250.5 C2418.5,250.5 2378.5,247.5 2374.5,247.5 C2370.5,247.5 2337.5,247.5 2325.5,248.5 C2313.5,249.5 2296.5,245.5 2288.5,245.5 C2280.5,245.5 2256.5,248.5 2249.5,248.5 C2242.5,248.5 2227.5,247.5 2219.5,248.5 C2211.5,249.5 2188.5,250.5 2181.5,251.5 C2174.5,252.5 2161.5,251.5 2154.5,253.5 C2147.5,255.5 2026.5,256.5 1999.5,253.5 C1972.5,250.5 1926.5,247.5 1926.5,247.5 C1926.5,247.5 1827.5,247.5 1811.5,248.5 C1795.5,249.5 1712.5,248.5 1705.5,248.5 C1698.5,248.5 1608.5,248.5 1593.5,247.5 C1578.5,246.5 1551.5,242.5 1529.5,243.5 C1507.5,244.5 1458.5,247.5 1454.5,247.5 C1450.5,247.5 1377.5,248.5 1371.5,247.5 C1365.5,246.5 1316.5,243.5 1306.5,244.5" id="Shape" stroke="#FFFFFF"></path>
            <path d="M2730.5,261.5 C2730.5,261.5 2675.5,263.5 2656.5,262.5 C2637.5,261.5 2607.5,259.5 2599.5,259.5 C2591.5,259.5 2563.5,259.5 2526.5,261.5 C2489.5,263.5 2466.5,263.5 2463.5,262.5 C2460.5,261.5 2432.5,262.5 2430.5,262.5 C2428.5,262.5 2388.5,259.5 2384.5,259.5 C2380.5,259.5 2347.5,259.5 2335.5,260.5 C2323.5,261.5 2306.5,257.5 2298.5,257.5 C2290.5,257.5 2266.5,260.5 2259.5,260.5 C2252.5,260.5 2237.5,259.5 2229.5,260.5 C2221.5,261.5 2198.5,262.5 2191.5,263.5 C2184.5,264.5 2171.5,263.5 2164.5,265.5 C2157.5,267.5 2036.5,268.5 2009.5,265.5 C1982.5,262.5 1936.5,259.5 1936.5,259.5 C1936.5,259.5 1837.5,259.5 1821.5,260.5 C1805.5,261.5 1722.5,260.5 1715.5,260.5 C1708.5,260.5 1618.5,260.5 1603.5,259.5 C1588.5,258.5 1561.5,254.5 1539.5,255.5 C1517.5,256.5 1468.5,259.5 1464.5,259.5 C1460.5,259.5 1387.5,260.5 1381.5,259.5 C1375.5,258.5 1308.5,256.5 1298.5,257.5" id="Shape" stroke="#FFFFFF"></path>
            <path d="M1306.5,244.5 C1304.5,244.5 1270.5,243.5 1266.5,243.5 C1262.5,243.5 1229.5,243.5 1217.5,244.5 C1205.5,245.5 1188.5,241.5 1180.5,241.5 C1172.5,241.5 1148.5,244.5 1141.5,244.5 C1134.5,244.5 1119.5,243.5 1111.5,244.5 C1103.5,245.5 1080.5,246.5 1073.5,247.5 C1066.5,248.5 1053.5,247.5 1046.5,249.5 C1039.5,251.5 918.5,252.5 891.5,249.5 C864.5,246.5 818.5,243.5 818.5,243.5 C818.5,243.5 719.5,243.5 703.5,244.5 C687.5,245.5 604.5,244.5 597.5,244.5 C590.5,244.5 500.5,244.5 485.5,243.5 C470.5,242.5 443.5,238.5 421.5,239.5 C399.5,240.5 350.5,243.5 346.5,243.5 C342.5,243.5 269.5,244.5 263.5,243.5 C257.5,242.5 11.5,239.5 1.5,240.5" id="Shape" stroke="#FFFFFF"></path>
            <path d="M1299.5,257.5 C1295.5,257.5 1239.5,255.5 1227.5,256.5 C1215.5,257.5 1198.5,253.5 1190.5,253.5 C1182.5,253.5 1158.5,256.5 1151.5,256.5 C1144.5,256.5 1129.5,255.5 1121.5,256.5 C1113.5,257.5 1090.5,258.5 1083.5,259.5 C1076.5,260.5 1063.5,259.5 1056.5,261.5 C1049.5,263.5 928.5,264.5 901.5,261.5 C874.5,258.5 828.5,255.5 828.5,255.5 C828.5,255.5 729.5,255.5 713.5,256.5 C697.5,257.5 614.5,256.5 607.5,256.5 C600.5,256.5 510.5,256.5 495.5,255.5 C480.5,254.5 453.5,250.5 431.5,251.5 C409.5,252.5 360.5,255.5 356.5,255.5 C352.5,255.5 279.5,256.5 273.5,255.5 C267.5,254.5 10.5,253.5 0.5,254.5" id="Shape" stroke="#FFFFFF"></path>
            <path d="M3954.5,0.5 L3903.5,131.5" id="Shape" stroke="#FFFFFF"></path>
            <path d="M3892.1,17.2 C3892.1,17.2 3892,17.7 3892,19.3 C3892,20.9 3892.9,22.3 3893.4,21.6 C3894.4,20.1 3894,18.4 3892.1,17.2 Z" id="Shape" stroke="#FFFFFF"></path>
        </g>
    </g>
</svg>