<?xml version="1.0" encoding="UTF-8"?>
<svg width="4000px" height="320px" viewBox="0 0 4000 320" version="1.1" xmlns="http://www.w3.org/2000/svg" xmlns:xlink="http://www.w3.org/1999/xlink">
    <!-- Generator: Sketch 51.2 (57519) - http://www.bohemiancoding.com/sketch -->
    <title>IKT service</title>
    <desc>Created with Sketch.</desc>
    <defs></defs>
    <g id="IKT-service" stroke="none" stroke-width="1" fill="none" fill-rule="evenodd">
        <g id="Group" transform="translate(3787.000000, 57.000000)" stroke="#FFFFFF">
            <path d="M11.0575457,106.565117 C11.0575457,106.565117 55.0925147,107.569466 63.59927,106.565117 C72.1060254,105.560768 92.6223177,105.058593 94.6239072,112.59121 C96.6254967,120.123826 96.1250993,194.44564 95.1243046,197.960861 C94.1235098,201.476081 81.1131781,207 75.608807,207 C70.1044359,207 18.5635063,202.48043 14.05993,199.969558 C9.5563536,197.458686 6.55396936,188.419547 7.05436673,175.865186 C7.55476411,163.310826 8.05516148,155.276035 8.05516148,140.210803 C8.05516148,125.14557 5.05277724,113.595559 11.0575457,106.565117 Z" id="Shape"></path>
            <path d="M7.54646502,97.8616041 C7.54646502,97.8616041 3.55362639,98.3596824 2.55541673,101.348152 C1.55720707,104.336621 2.55541673,125.255907 2.55541673,131.730924 C2.55541673,138.205941 -1.43742191,188.511842 0.558997409,196.979172 C2.55541673,205.446501 5.55004571,209.929206 13.0366182,211.921518 C17.2290987,213.017291 34.6977678,214.013447 50.0701965,214.810372 C62.4479963,215.408066 73.4283025,216.00576 74.925617,216.404223 C78.4193508,217.400379 93.8916006,217.400379 98.8826489,214.41191 C103.873697,211.42344 129.328043,194.986859 132.821777,192.496468 C136.315511,190.006076 141.805664,176.059886 142.304769,163.109852 C142.803874,150.159818 143.802084,139.202097 141.805664,135.217471 C139.809245,131.232845 112.857584,104.834699 108.365641,101.84623 C103.873697,98.8577606 89.3996571,95.371213 83.909504,95.8692912 C78.4193508,96.3673694 56.4587383,92.8808218 49.4712707,94.3750565 C42.4838031,95.8692912 9.54288434,98.8577606 7.54646502,97.8616041 Z" id="Shape"></path>
            <path d="M80.4138567,223 C80.4138567,223 89.4820973,226.562534 89.9858884,229.616135 C90.4896796,232.669735 77.3911099,238.268003 68.8266605,236.741203 C60.262211,235.214403 31.5461159,237.250136 33.0574894,232.669735 C34.5688628,228.089334 44.6446856,224.017867 48.6750148,224.017867" id="Shape"></path>
            <path d="M79,227 C77.8452995,225.941176 77.8452995,222.764706 78.2301996,218" id="Shape"></path>
            <path d="M49,228 C49,228 52.3607682,224.595238 50.3692018,215" id="Shape"></path>
            <path d="M128.053849,180 C128.053849,180 132.075388,185.5 128.556541,185 C125.037694,184.5 124.032309,182.5 122.021539,183.5 C120.01077,184.5 118.502692,189.6 118,191" id="Shape"></path>
            <path d="M123,136 C123,136 121.4375,140.307692 122.21875,143" id="Shape"></path>
            <path d="M166,40.2643392 C166,40.2643392 162.5,38.7493766 161.5,39.0523691 C160.5,39.3553616 159.7,40.0623441 158.3,38.8503741 C156.9,37.638404 156.8,37.638404 156.8,37.638404 C156.8,37.638404 161.8,33.3965087 160,28.5486284 C158.2,23.7007481 154.2,24.0037406 154.2,24.0037406 C153.4,24.0037406 141.2,29.255611 141,31.8815461 C140.8,34.5074813 141.5,37.7394015 141,41.4763092 C140.5,45.213217 134,48.7481297 134,48.7481297 C134,48.7481297 137,54 138.2,54 C138.8,54 140.8,51.2730673 142.8,48.5461347 C144.8,45.819202 146.7,42.9912718 147.2,42.8902743 C148.2,42.6882793 151.2,46.1221945 151.7,46.7281796 C152.2,47.3341646 150.5,48.9501247 151.2,50.5660848 C151.9,52.1820449 153.2,53.0910224 153.2,53.0910224" id="Shape"></path>
            <path d="M155,65 C155,65 154.783272,71.6965401 152.832716,70.9404791 C150.882159,70.1844181 149.581789,67.9162352 150.12361,65" id="Shape"></path>
            <path d="M149,57 C149,57 147.169492,52.5957447 143,48" id="Shape"></path>
            <path d="M199,0 C199,0 188.07163,14.7055328 185.289862,18.8787245 C182.508095,23.0519162 174.56019,32.988087 172.175818,34.9753212 C169.791446,36.9625553 158.46568,48.8859603 155.783262,50.674471 C153.100844,52.4629818 146.345124,58.4246842 146.047078,61.6042589 C145.749031,64.7838335 146.841868,65.7774506 150.02103,64.3863867 C152.107356,63.3927696 154.491728,61.5048972 156.478704,59.6170247 C157.571541,58.6234076 158.664378,57.5304289 159.459169,56.6361735 C161.644843,54.1521308 162.936377,52.1648966 166.413586,49.6808539 C169.890795,47.1968112 172.175818,44.21596 172.175818,44.21596" id="Shape"></path>
            <path d="M212,35 C211.799087,35.8028548 194.118721,52.0606641 193.114155,53.5660168 C192.109589,55.0713695 179.251142,69.1213281 175.835616,70.6266808 C172.420091,72.1320335 168,72.8345315 168,70.4259671 C168,68.0174028 168.803653,66.2109795 168.803653,66.2109795 C168.803653,66.2109795 173.625571,59.3867139 176.639269,57.6806475 C179.652968,55.9745811 181.6621,53.8670873 181.6621,53.8670873" id="Shape"></path>
            <path d="M176,50 C176,50 168.032258,57.9100674 166.602151,59.3298231 C165.784946,60.141112 164.763441,61.4594566 163.639785,62.4735678 C162.516129,63.487679 161.290323,64.298968 160.268817,63.8933235 C158.225806,63.0820345 157,63.8933235 157,59.3298231" id="Shape"></path>
            <path d="M169,66.3144688 C169,66.3144688 164.5,70.8712938 162,65" id="Shape"></path>
            <path d="M169.612047,73 C169.612047,73 162.044381,75.0106028 179.702269,92.6033772 C197.360157,110.196152 199.680908,114.217357 202.707974,112.709405 C205.73504,111.201453 212.596391,105.471235 213,104.465934" id="Shape"></path>
            <path d="M190,58 C190,58 195.945946,59.5428571 198.918919,63.3485714 C201.891892,67.1542857 207.837838,71.7828571 209.027027,72.4 C210.216216,73.0171429 212,76 212,76" id="Shape"></path>
            <path d="M213,85.9971501 C211.989754,85.1972641 202.392415,75.9985751 199.058603,73.4989313 C195.724791,70.9992875 192.997126,66 192.997126,66 C192.997126,66 186.935649,68.1996865 185.117206,69.7994585 C183.298763,71.3992305 180.065975,72.5990595 180.065975,75.7986036 C180.065975,78.9981476 179.257778,79.7980336 183.298763,85.7971786 C187.339748,91.7963237 203.301637,103.794614 205.019055,103.994585 C206.736474,104.194557 211.282582,98.7953262 212.292828,97.7954687" id="Shape"></path>
            <path d="M126,53 C126,53 111,61.9375 108,66" id="Shape"></path>
            <path d="M125,58 C125,58 119.892857,65.3096447 118.910714,68.6598985 C117.928571,72.0101523 114.982143,75.9695431 114,78" id="Shape"></path>
            <path d="M133,61 C132.795918,61.7920792 130.142857,67.1386139 129.122449,68.9207921 C128.102041,70.7029703 126.571429,73.3762376 125.857143,75.8514851 C125.142857,78.3267327 123,81 123,81" id="Shape"></path>
        </g>
    </g>
</svg>