<?xml version="1.0" encoding="UTF-8"?>
<svg width="4000px" height="320px" viewBox="0 0 4000 320" version="1.1" xmlns="http://www.w3.org/2000/svg" xmlns:xlink="http://www.w3.org/1999/xlink">
    <!-- Generator: Sketch 50.2 (55047) - http://www.bohemiancoding.com/sketch -->
    <title>Kinesisk</title>
    <desc>Created with Sketch.</desc>
    <defs>
        <rect id="path-1" x="0" y="0" width="4000" height="320"></rect>
    </defs>
    <g id="Kinesisk" stroke="none" stroke-width="1" fill="none" fill-rule="evenodd">
        <g>
            <mask id="mask-2" fill="white">
                <use xlink:href="#path-1"></use>
            </mask>
            <g id="Mask"></g>
            <g id="kinesisk-01" transform="translate(2.000000, 153.000000)">
                <g id="hus1" transform="translate(3848.000000, 43.000000)" stroke="#FFFFFF">
                    <g id="Layer_9" transform="translate(6.818182, 0.000000)">
                        <path d="M3.06818182,27.5934066 C3.06818182,27.5934066 3.75,22.1428571 4.43181818,20.7802198 C2.38636364,20.0989011 0.340909091,19.4175824 0.340909091,19.4175824 C0.340909091,19.4175824 12.6136364,10.5604396 13.9772727,9.1978022 C15.3409091,7.83516484 21.2045455,3.33846154 22.1590909,2.38461538 C23.5227273,1.02197802 24.2045455,0.340659341 24.2045455,0.340659341 C24.2045455,0.340659341 31.5681818,7.6989011 33.0681818,9.1978022 C35.1136364,11.2417582 46.0227273,20.0989011 46.0227273,20.0989011 L41.9318182,20.7802198 L43.2954545,26.9120879" id="Shape"></path>
                    </g>
                    <g id="Layer_10" transform="translate(17.045455, 21.120879)">
                        <path d="M0.340909091,9.1978022 C-0.340909091,8.51648352 1.02272727,1.02197802 1.02272727,0.340659341 C1.02272727,-0.340659341 6.47727273,0.340659341 6.47727273,0.340659341 L6.34090909,6.26813187" id="Shape"></path>
                    </g>
                    <g id="Layer_11" transform="translate(34.772727, 20.439560)">
                        <path d="M0.818181818,6.94945055 C1.02272727,6.47252747 -0.340909091,0.340659341 0.340909091,0.340659341 C1.02272727,0.340659341 5.79545455,0.340659341 5.79545455,0.340659341 L6.47727273,6.67692308" id="Shape"></path>
                    </g>
                    <g id="Layer_12" transform="translate(10.227273, 51.098901)">
                        <path d="M0.340909091,0.340659341 C-0.340909091,1.02197802 1.02272727,7.15384615 1.02272727,7.15384615 L5.79545455,7.15384615 L5.79545455,1.7032967 L0.340909091,0.340659341 Z" id="Shape"></path>
                    </g>
                    <g id="Layer_13" transform="translate(27.272727, 49.736264)">
                        <path d="M0.340909091,1.7032967 L1.02272727,7.83516484 L5.11363636,7.83516484 L5.11363636,1.02197802 C5.11363636,1.02197802 1.70454545,0.340659341 1.02272727,0.340659341 C0.340909091,0.340659341 0.340909091,1.7032967 0.340909091,1.7032967 Z" id="Shape"></path>
                    </g>
                    <g id="Layer_14" transform="translate(45.000000, 49.736264)">
                        <path d="M0.340909091,0.340659341 C0.340909091,1.02197802 1.02272727,7.15384615 1.02272727,7.15384615 L5.79545455,7.15384615 C5.79545455,7.15384615 6.47727273,5.79120879 6.47727273,4.42857143 C6.47727273,3.06593407 5.11363636,0.340659341 5.11363636,0.340659341 L0.340909091,0.340659341 Z" id="Shape"></path>
                    </g>
                    <g id="Layer_8" transform="translate(0.000000, 25.890110)">
                        <path d="M3.40909091,35.4285714 C3.40909091,35.4285714 3.40909091,19.0769231 2.72727273,19.0769231 C2.04545455,19.0769231 0.681818182,18.3956044 0.681818182,18.3956044 C0.681818182,18.3956044 -3.1918912e-14,17.032967 0.681818182,16.3516484 C1.36363636,15.6703297 2.72727273,15.6703297 2.72727273,15.6703297 L2.04545455,6.13186813 L4.09090909,6.13186813 C4.09090909,6.13186813 4.77272727,2.72527473 4.77272727,2.04395604 C4.77272727,1.36263736 13.9772727,1.4989011 14.6590909,1.7032967 C14.6590909,2.38461538 14.6590909,4.42857143 14.6590909,5.10989011 C16.0227273,5.10989011 18.75,5.10989011 18.75,5.10989011 L18.75,1.7032967 C18.75,1.7032967 24.8863636,1.7032967 26.5909091,1.36263736 L26.9318182,5.10989011 L32.3863636,5.10989011 L32.3863636,1.7032967 L41.9318182,1.7032967 L42.6136364,5.10989011 L46.7045455,5.10989011 L46.7045455,1.7032967 C46.7045455,1.7032967 56.5909091,4.21884749e-15 56.5909091,0.681318681 C56.5909091,1.36263736 57.2727273,9.53846154 57.2727273,10.9010989 C57.2727273,12.2637363 57.9545455,15.6703297 57.9545455,15.6703297 L60,17.032967 L59.3181818,19.0769231 L57.9545455,19.7582418 L57.2727273,34.7472527" id="Shape"></path>
                    </g>
                    <g id="Layer_15" transform="translate(2.045455, 40.197802)">
                        <path d="M0.340909091,1.02197802 C0.340909091,1.02197802 9.88636364,1.7032967 10.5681818,1.7032967 C11.25,1.7032967 18.75,1.02197802 20.7954545,1.02197802 C22.8409091,1.02197802 35.7954545,0.340659341 35.7954545,0.340659341 C35.7954545,0.340659341 49.4318182,0.340659341 50.7954545,1.02197802 C52.1590909,1.7032967 54.2045455,0.340659341 55.5681818,1.02197802" id="Shape"></path>
                    </g>
                    <g id="Layer_16" transform="translate(2.045455, 44.285714)">
                        <path d="M0.340909091,0.340659341 C0.340909091,0.340659341 11.25,0.340659341 13.9772727,0.340659341 C16.7045455,0.340659341 31.0227273,0.340659341 31.0227273,0.340659341 C31.0227273,0.340659341 38.5227273,1.02197802 41.25,1.02197802 C43.9772727,1.02197802 55.9090909,1.02197802 55.9090909,1.02197802" id="Shape"></path>
                    </g>
                </g>
                <g id="Layer_17" transform="translate(3905.000000, 0.000000)" stroke="#FFFFFF">
                    <g id="Layer_18" transform="translate(0.000000, 71.000000)">
                        <path d="M0.341666667,24.2355769 L4.44166667,23.5528846 L5.80833333,30.3798077 C5.80833333,30.3798077 7.175,31.0625 7.175,30.3798077 C7.175,29.6971154 6.49166667,22.1875 6.49166667,22.1875 L14.6916667,20.8221154 L16.0583333,26.9663462 C16.0583333,26.9663462 16.7416667,27.6490385 17.425,26.9663462 C18.1083333,26.2836538 16.7416667,19.4567308 16.7416667,19.4567308 L24.2583333,17.4086538 C24.2583333,17.4086538 24.2583333,24.9182692 24.9416667,25.6009615 C25.625,26.2836538 28.3583333,24.2355769 28.3583333,24.2355769 C28.3583333,24.2355769 27.675,20.8221154 27.675,19.4567308 C27.675,18.0913462 26.9916667,16.7259615 26.9916667,16.7259615 L31.775,15.3605769 C31.775,15.3605769 32.4583333,18.0913462 33.1416667,19.4567308 C33.825,20.8221154 34.5083333,23.5528846 34.5083333,23.5528846 L36.5583333,22.8701923 C36.5583333,22.8701923 35.875,20.1394231 35.875,19.4567308 C35.875,18.7740385 35.1916667,15.3605769 35.1916667,14.6778846 C35.1916667,13.9951923 42.025,13.3125 42.025,13.3125 L42.7083333,20.1394231 L45.4416667,20.1394231 L44.7583333,13.3125 L51.5916667,10.5817308 C51.5916667,10.5817308 52.275,16.7259615 52.9583333,17.4086538 C53.6416667,18.0913462 55.6916667,16.7259615 55.6916667,16.7259615 C55.6916667,16.7259615 55.0083333,13.9951923 55.0083333,13.3125 C55.0083333,12.6298077 55.0083333,9.89903846 55.0083333,9.89903846 L60.475,7.85096154 L61.8416667,16.0432692 L63.8916667,15.3605769 L63.8916667,7.16826923 L69.3583333,5.12019231 L70.0416667,12.6298077 L72.775,10.5817308 L72.775,3.75480769 L75.5083333,1.70673077 L76.1916667,7.85096154 L76.875,7.16826923 L76.875,1.02403846 L80.2916667,0.341346154 C80.2916667,0.341346154 81.6583333,13.3125 81.6583333,14.6778846 C81.6583333,16.0432692 79.6083333,22.8701923 80.2916667,26.2836538 C80.975,29.6971154 80.975,45.3990385 80.975,45.3990385 C80.975,45.3990385 69.3583333,48.8125 66.625,49.4951923 C63.8916667,50.1778846 50.225,56.3221154 40.6583333,57.6875 C31.0916667,59.0528846 24.9416667,61.7836538 24.9416667,61.7836538 L9.225,67.2451923 L1.025,70.6586538" id="Shape"></path>
                    </g>
                    <g id="Layer_19" transform="translate(6.833333, 29.355769)">
                        <path d="M71.4083333,41.9855769 L70.725,37.8894231 L67.9916667,36.5240385 L67.3083333,43.3509615 L65.2583333,42.6682692 L64.575,36.5240385 L60.475,35.1586538 C60.475,35.1586538 61.1583333,39.9375 61.1583333,40.6201923 C61.1583333,41.3028846 56.375,40.6201923 56.375,40.6201923 L57.7416667,33.7932692 L51.5916667,31.0625 L51.5916667,37.8894231 L48.175,37.2067308 L47.4916667,31.0625 L44.075,30.3798077 L43.3916667,36.5240385 L41.3416667,35.1586538 L41.3416667,29.0144231 L35.1916667,28.3317308 L34.5083333,34.4759615 C34.5083333,34.4759615 29.725,34.4759615 30.4083333,33.7932692 C31.0916667,33.1105769 31.0916667,26.9663462 31.0916667,26.9663462 L27.675,26.2836538 L26.3083333,33.1105769 L22.8916667,31.7451923 L22.8916667,24.2355769 L18.7916667,22.8701923 L17.425,29.6971154 L14.0083333,28.3317308 L15.375,22.8701923 L9.90833333,21.5048077 L9.90833333,27.6490385 C9.90833333,27.6490385 5.80833333,27.6490385 6.49166667,26.2836538 C7.175,24.9182692 6.49166667,20.8221154 6.49166667,20.8221154 L0.341666667,18.7740385 C0.341666667,18.7740385 0.341666667,20.8221154 0.341666667,21.5048077 C0.341666667,22.1875 0.341666667,23.5528846 0.341666667,23.5528846 L0.341666667,16.0432692 L1.70833333,15.3605769 L2.39166667,17.4086538 C2.39166667,17.4086538 3.75833333,17.4086538 3.75833333,16.7259615 C3.75833333,16.0432692 3.075,11.2644231 3.075,11.2644231 L6.49166667,10.5817308 L7.175,13.9951923 L9.90833333,13.3125 L8.54166667,9.21634615 L10.5916667,9.21634615 C10.5916667,9.21634615 10.5916667,13.3125 11.275,13.3125 C11.9583333,13.3125 11.9583333,13.3125 12.6416667,12.6298077 C13.325,11.9471154 13.325,7.85096154 13.325,7.85096154 L14.6916667,7.85096154 L16.0583333,11.2644231 L17.425,11.2644231 L17.425,5.80288462 L20.1583333,5.12019231 L20.8416667,9.89903846 L23.575,9.89903846 L23.575,4.4375 L25.625,3.07211538 L26.3083333,8.53365385 C26.3083333,8.53365385 27.675,8.53365385 28.3583333,7.85096154 C29.0416667,7.16826923 28.3583333,3.07211538 28.3583333,3.07211538 L30.4083333,2.38942308 L31.775,7.16826923 L33.825,6.48557692 L33.825,1.70673077 L37.925,0.341346154" id="Shape"></path>
                    </g>
                    <g id="Layer_20" transform="translate(6.833333, 52.567308)">
                        <path d="M0.341666667,0.341346154 C0.341666667,0.341346154 0.341666667,4.4375 1.025,9.89903846 C1.70833333,15.3605769 1.70833333,21.5048077 1.70833333,21.5048077 C1.70833333,21.5048077 10.5916667,24.9182692 13.325,25.6009615 C16.0583333,26.2836538 20.8416667,26.9663462 20.8416667,26.9663462 L33.825,31.7451923" id="Shape"></path>
                    </g>
                    <g id="Layer_21" transform="translate(36.216667, 0.000000)">
                        <path d="M8.54166667,29.6971154 L8.54166667,26.9663462 L7.175,26.9663462 L7.175,24.2355769 L9.225,24.2355769 L8.54166667,16.7259615 L9.225,16.7259615 L10.5916667,16.7259615 L12.6416667,16.7259615 C12.6416667,16.7259615 12.6416667,13.9951923 12.6416667,12.6298077 C9.70333333,11.9471154 7.51666667,11.2644231 8.54166667,11.2644231 C8.54166667,11.2644231 15.375,7.16826923 16.7416667,6.48557692 C18.1083333,5.80288462 22.8916667,0.341346154 22.8916667,0.341346154 C22.8916667,0.341346154 31.775,8.53365385 33.825,9.89903846 C35.875,11.2644231 38.6083333,12.6298077 38.6083333,12.6298077 L35.875,12.6298077 L35.875,16.0432692 L38.6083333,16.0432692 L39.2916667,24.2355769 L41.3416667,24.2355769 C41.3416667,24.9182692 41.3416667,24.2355769 41.3416667,26.2836538 C41.3416667,27.2394231 39.975,26.9663462 39.975,26.9663462 L39.975,38.5721154 C39.975,38.5721154 39.2916667,44.7163462 40.6583333,47.4471154 C42.025,50.1778846 40.6583333,55.6394231 40.6583333,55.6394231 C40.6583333,55.6394231 3.075,55.6394231 2.39166667,55.6394231 C1.70833333,55.6394231 0.341666667,55.6394231 0.341666667,55.6394231" id="Shape"></path>
                    </g>
                    <g id="Layer_22" transform="translate(52.616667, 11.605769)">
                        <path d="M0.341666667,0.341346154 L0.341666667,4.4375 C0.341666667,4.4375 2.39166667,5.12019231 2.39166667,4.4375 C2.39166667,3.75480769 2.39166667,0.341346154 2.39166667,0.341346154 L0.341666667,0.341346154 Z" id="Shape"></path>
                    </g>
                    <g id="Layer_23" transform="translate(63.550000, 11.605769)">
                        <polygon id="Shape" points="0.341666667 0.341346154 0.341666667 3.75480769 3.75833333 4.4375 3.075 0.341346154"></polygon>
                    </g>
                </g>
                <g id="Layer_25" transform="translate(3849.000000, 104.000000)" stroke="#FFFFFF">
                    <path d="M55.5681818,0.344262295 C55.5681818,0.344262295 58.9772727,0.344262295 59.6590909,1.03278689 C60.3409091,1.72131148 59.6590909,4.47540984 59.6590909,4.47540984 C59.6590909,4.47540984 57.6136364,5.16393443 56.9318182,4.47540984 C56.25,3.78688525 57.6136364,25.1311475 56.9318182,27.1967213 C56.25,29.2622951 56.25,34.0819672 56.25,34.0819672 L56.25,39.5901639 C56.25,39.5901639 54.2045455,37.5245902 52.1590909,38.2131148 C50.1136364,38.9016393 37.1590909,40.2786885 36.4772727,40.9672131 C35.7954545,41.6557377 33.75,40.9672131 33.75,40.9672131 C33.75,40.9672131 24.2045455,42.3442623 22.1590909,41.6557377 C20.1136364,40.9672131 11.9318182,40.9672131 11.9318182,40.9672131 L3.06818182,40.9672131 C3.06818182,40.9672131 3.75,34.7704918 3.75,33.3934426 C3.75,32.0163934 3.06818182,16.8688525 3.06818182,16.8688525 L3.06818182,3.78688525 L0.340909091,3.78688525 L0.340909091,0.344262295 C0.340909091,0.344262295 10.4318182,0.344262295 11.9318182,0.344262295 C13.9772727,0.344262295 22.8409091,0.344262295 24.2045455,0.344262295 C25.5681818,0.344262295 33.0681818,0.344262295 33.0681818,0.344262295 C33.0681818,0.344262295 38.5227273,0.344262295 39.2045455,0.344262295 C39.8863636,0.344262295 46.0227273,0.344262295 46.7045455,0.344262295 C47.3863636,0.344262295 51.2045455,0.344262295 52.1590909,0.344262295 C52.8409091,0.344262295 55.5681818,0.344262295 55.5681818,0.344262295 Z" id="Shape"></path>
                </g>
                <g id="Layer_26" transform="translate(3851.000000, 107.000000)" stroke="#FFFFFF">
                    <path d="M0.339506173,0.25 L11.2037037,0.75 C11.2037037,0.75 26.8209877,0.25 29.537037,0.25 C31.0308642,0.25 43.7962963,0.75 45.154321,0.75 C46.5123457,0.75 54.6604938,0.75 54.6604938,0.75" id="Shape"></path>
                </g>
                <g id="wall" transform="translate(1216.000000, 92.000000)">
                    <g id="Layer_27_copy" opacity="0.16"></g>
                    <g id="Layer_28" transform="translate(2498.150025, 6.885246)" stroke="#FFFFFF">
                        <path d="M136.436898,0.68852459 C134.384187,0.206557377 127.541814,1.37704918 127.541814,1.37704918 L127.610238,7.84918033 C127.610238,7.84918033 122.820578,9.01967213 122.136341,7.91803279 C121.452103,6.81639344 121.38368,1.99672131 121.38368,1.99672131 L112.488596,2.6852459 L113.241257,8.60655738 L104.346173,9.29508197 L104.961987,2.82295082 L95.382666,2.96065574 L96.1353269,9.98360656 L88.6087177,10.6032787 L87.8560568,4.13114754 L82.3821591,3.64918033 L81.7663457,11.2229508 L72.871262,10.8098361 L72.8028383,3.78688525 L65.2762291,3.8557377 L63.9761784,11.9803279 L54.3968576,12.6688525 L56.3127217,3.99344262 L45.3649265,4.13114754 L46.1175874,12.2557377 L37.906741,12.3934426 C37.906741,12.3934426 38.5225545,4.26885246 37.1540801,4.26885246 C35.7856057,4.26885246 30.3117081,4.33770492 30.3117081,4.33770492 L31.7486062,12.4622951 C31.7486062,12.4622951 26.9589458,12.5311475 26.9589458,11.9803279 C26.9589458,11.4295082 25.5220476,3.8557377 25.5220476,3.8557377 L15.9427268,3.99344262 L18.1322859,14.252459 L10.6056766,13.8393443 L12.5215408,4.61311475 L0.205271161,4.75081967 L1.64216929,9.22622951" id="Shape"></path>
                    </g>
                    <g id="Layer_31" transform="translate(2420.831221, 11.016393)" stroke="#FFFFFF">
                        <path d="M79.0293969,4.47540984 L79.0293969,9.29508197 C79.0293969,9.29508197 74.9239736,9.98360656 74.9239736,9.29508197 C74.9239736,8.60655738 74.9239736,0.344262295 74.9239736,0.344262295 L67.3973644,0.344262295 L66.7131272,9.29508197 L63.2919412,9.29508197 L63.2919412,0.344262295 L53.7126204,0.344262295 L53.0283832,9.29508197 L50.9756716,9.29508197 L50.2914344,1.03278689 L43.4490623,0.344262295 L43.4490623,9.29508197 L40.0278763,9.29508197 L40.0278763,0.344262295 L33.1855043,0.344262295 L33.1855043,9.29508197 L29.7643183,9.29508197 L29.7643183,1.03278689 L22.2377091,1.03278689 L22.2377091,9.29508197 L18.1322859,9.29508197 L16.7638115,0.344262295 L9.23720223,0.344262295 L8.55296503,8.60655738 L5.13177902,8.60655738 L5.81601622,0.344262295 L0.342118601,0.344262295" id="Shape"></path>
                    </g>
                    <g id="Layer_32" transform="translate(2271.667511, 7.573770)" stroke="#FFFFFF">
                        <path d="M149.505829,3.78688525 L148.821591,12.0491803 L146.084643,12.0491803 L145.400405,3.78688525 L139.242271,3.78688525 L139.242271,12.0491803 L135.821085,12.7377049 C135.821085,12.7377049 136.505322,3.78688525 136.505322,3.09836066 C136.505322,2.40983607 128.978713,3.09836066 128.978713,3.09836066 L129.66295,11.3606557 L125.557527,12.0491803 L126.241764,3.78688525 L118.715155,3.09836066 L118.030917,11.3606557 L114.609731,11.3606557 L113.241257,3.78688525 L105.030411,3.09836066 L105.714648,10.6721311 L102.293462,10.6721311 L102.977699,1.03278689 L94.7668525,1.03278689 L94.7668525,11.3606557 L88.6087177,10.6721311 L90.6614293,2.40983607 C90.6614293,2.40983607 85.1875317,1.03278689 84.5032945,1.72131148 C83.8190573,2.40983607 83.1348201,10.6721311 83.1348201,10.6721311 L79.7136341,10.6721311 C79.7136341,10.6721311 79.7136341,2.40983607 79.0293969,2.40983607 C78.3451597,2.40983607 72.1870248,2.40983607 72.1870248,2.40983607 L72.1870248,10.6721311 C72.1870248,10.6721311 67.3973644,11.3606557 68.0816016,10.6721311 C68.7658388,9.98360656 69.450076,2.40983607 68.7658388,2.40983607 C68.0816016,2.40983607 58.5022808,2.40983607 58.5022808,2.40983607 L58.5022808,11.3606557 L55.0810948,11.3606557 L55.0810948,1.72131148 L48.92296,1.72131148 L48.2387228,11.3606557 L42.7648251,10.6721311 L44.8175367,1.03278689 L37.9751647,1.03278689 L37.2909275,11.3606557 L33.8697415,10.6721311 L35.2382159,1.03278689 C35.2382159,1.03278689 27.0273695,1.03278689 27.7116067,1.03278689 C28.3958439,1.03278689 27.7116067,10.6721311 27.7116067,10.6721311 C27.7116067,10.6721311 22.2377091,12.0491803 22.9219463,11.3606557 C23.6061835,10.6721311 24.2904207,1.03278689 24.2904207,1.03278689 L16.0795743,0.344262295 L16.0795743,11.3606557 L11.974151,10.6721311 C11.974151,10.6721311 11.974151,3.09836066 11.974151,2.40983607 C11.974151,1.72131148 3.07906741,1.03278689 3.07906741,1.03278689 L3.07906741,10.6721311 L0.342118601,10.6721311" id="Shape"></path>
                    </g>
                    <g id="Layer_33" transform="translate(1793.385707, 9.639344)" stroke="#FFFFFF">
                        <path d="M478.623923,8.60655738 L477.939686,0.344262295 L469.728839,0.344262295 L470.413077,8.60655738 L466.991891,9.29508197 C466.991891,9.29508197 466.307653,1.72131148 466.991891,1.03278689 C467.676128,0.344262295 461.517993,1.03278689 461.517993,1.03278689 L461.517993,9.29508197 L458.096807,9.29508197 L457.41257,0.344262295 L451.254435,1.03278689 L451.254435,9.29508197 L449.201723,9.29508197 L447.149012,0.344262295 L439.622402,1.03278689 L440.30664,9.29508197 L437.569691,9.29508197 L436.885454,1.03278689 L428.674607,1.03278689 L428.674607,9.29508197 L425.937658,9.29508197 L426.621896,1.03278689 L418.411049,1.03278689 L418.411049,9.29508197 L416.358338,9.98360656 L415.6741,1.03278689 L409.515966,1.72131148 L410.200203,9.98360656 L406.779017,9.98360656 L406.779017,1.72131148 L398.56817,1.72131148 L399.252408,9.98360656 L395.831221,9.98360656 L396.515459,1.72131148 L388.304612,2.40983607 L389.673087,10.6721311 L386.251901,10.6721311 L385.567663,2.40983607 L378.041054,2.40983607 L378.725291,10.6721311 L375.304105,10.6721311 L375.304105,3.09836066 L366.409022,3.78688525 L366.409022,11.3606557 L363.672073,12.0491803 L362.987836,3.78688525 L353.408515,3.78688525 L353.408515,12.0491803 C353.408515,12.0491803 349.303092,12.0491803 349.987329,12.0491803 C350.671566,12.0491803 350.671566,3.78688525 350.671566,3.78688525 L340.408008,4.47540984 L341.092245,12.0491803 L338.355297,12.7377049 L336.986822,4.47540984 L328.775976,4.47540984 L329.460213,13.4262295 L326.723264,13.4262295 L326.723264,5.16393443 L317.143943,5.16393443 L317.82818,13.4262295 L315.091232,14.1147541 L315.091232,5.16393443 L308.24886,5.16393443 L308.24886,14.1147541 L304.143436,14.1147541 L305.511911,5.85245902 L295.93259,5.85245902 L296.616827,14.1147541 L294.564116,14.8032787 L293.879878,6.54098361 L285.669032,6.54098361 L287.037506,14.8032787 L283.61632,14.8032787 L282.932083,5.85245902 L276.773948,6.54098361 L278.142423,14.1147541 C278.142423,14.1147541 274.036999,15.4918033 274.721237,14.8032787 C275.405474,14.1147541 274.721237,7.91803279 274.721237,7.91803279 C274.721237,7.91803279 269.247339,8.60655738 269.247339,7.91803279 C269.247339,7.2295082 269.247339,15.4918033 269.247339,15.4918033 L265.826153,15.4918033 L264.457679,7.91803279 L257.615307,8.60655738 L257.615307,16.1803279 L254.878358,16.1803279 L254.194121,8.60655738 L246.667511,7.91803279 L247.351749,16.1803279 L243.930563,16.8688525 L243.246325,8.60655738 L235.035479,8.60655738 L235.035479,16.8688525 L232.29853,17.557377 L231.614293,8.60655738 L222.034972,9.98360656 L222.034972,17.557377 L219.298023,17.557377 L219.298023,9.98360656 L212.455651,9.98360656 L213.824126,17.557377 L211.771414,18.2459016 L208.350228,9.98360656 L199.455144,9.98360656 L200.139382,18.9344262 L196.033958,18.2459016 L196.718196,10.6721311 L185.7704,10.6721311 L186.454638,18.9344262 L183.033452,19.6229508 L183.033452,11.3606557 L175.506842,11.3606557 L176.19108,20.3114754 L172.769894,20.3114754 L172.085656,12.0491803 L165.243284,12.0491803 L164.559047,20.3114754 L161.137861,21 L160.453624,12.7377049 L150.874303,12.7377049 L151.55854,21.6885246 L148.137354,21 L146.76888,12.7377049 L137.873796,12.7377049 L137.873796,21.6885246 L134.45261,21.6885246 L134.45261,13.4262295 L125.557527,14.1147541 L126.241764,22.3770492 L124.189052,22.3770492 L122.136341,13.4262295 L113.241257,14.1147541 L113.241257,23.0655738 L110.504308,22.3770492 L110.504308,14.1147541 L101.609225,14.1147541 L101.609225,23.0655738 L98.1880385,23.0655738 L98.8722757,14.1147541 L89.2929549,14.1147541 L89.2929549,23.0655738 L87.2402433,23.0655738 L85.8717689,14.8032787 L78.3451597,15.4918033 L77.6609225,23.0655738 L74.9239736,23.0655738 L74.2397364,15.4918033 L66.02889,15.4918033 L65.3446528,23.0655738 L63.2919412,23.0655738 L62.607704,15.4918033 L56.4495692,16.1803279 L55.765332,24.442623 L52.344146,24.442623 L52.344146,16.1803279 L45.5017739,16.1803279 L45.5017739,24.442623 L42.7648251,24.442623 C42.7648251,24.442623 42.0805879,16.1803279 41.3963507,16.1803279 C40.7121135,16.1803279 33.8697415,16.1803279 33.8697415,16.1803279 L33.8697415,24.442623 L31.1327927,25.1311475 L29.7643183,16.1803279 L21.5534719,16.1803279 L21.5534719,24.442623 L18.8165231,24.442623 L18.8165231,16.1803279 L10.6056766,16.1803279 L10.6056766,25.1311475 L7.18449062,24.442623 L7.86872783,16.1803279 L0.342118601,16.1803279 L1.0263558,24.442623" id="Shape"></path>
                    </g>
                    <g id="Layer_34" transform="translate(1611.378611, 26.163934)" stroke="#FFFFFF">
                        <polyline id="Shape" points="183.717689 7.71147541 180.296503 7.98688525 179.749113 0.413114754 172.15408 0.344262295 172.085656 8.60655738 168.66447 8.88196721 167.36442 0.68852459 160.590471 1.23934426 161.206285 9.43278689 158.469336 9.63934426 157.785099 0.757377049 149.642676 2.06557377 150.25849 10.3278689 147.521541 10.5344262 146.153066 1.65245902 137.326406 2.34098361 138.010644 11.2229508 134.521034 10.8098361 135.205271 1.79016393 126.378611 3.16721311 127.747086 12.0491803 123.641662 12.3245902 123.641662 2.6852459 113.309681 2.75409836 114.746579 12.3245902 109.888495 12.0491803 109.888495 3.0295082 100.377598 3.78688525 101.061835 12.7377049 98.324886 12.9442623 97.6406488 3.99344262 90.1140395 3.8557377 90.1140395 12.8754098 87.3770907 13.0819672 87.3770907 4.06229508 79.0978206 4.06229508 79.0978206 13.0131148 76.3608718 13.2196721 75.6766346 4.26885246 66.0973137 4.33770492 65.4130765 13.357377 61.2392296 13.0131148 61.9918905 4.68196721 52.344146 3.99344262 51.7283325 13.7704918 48.170299 12.6 48.9913837 4.95737705 40.0963001 4.95737705 40.0963001 13.9770492 35.9224531 13.5639344 36.6066903 4.5442623 25.7273188 5.3704918 24.9746579 14.3901639 21.5534719 13.9770492 22.9219463 4.88852459 12.6583882 5.02622951 11.974151 14.0459016 7.80030411 13.7016393 9.85301571 4.5442623 0.273694881 4.61311475"></polyline>
                    </g>
                    <g id="Layer_35" transform="translate(8.210846, 8.573770)" stroke="#FFFFFF">
                        <path d="M1603.50988,22.0655738 L1602.82565,31.704918 L1600.0887,31.704918 L1599.40446,22.7540984 L1591.87785,22.7540984 L1591.87785,31.704918 L1588.93563,31.842623 L1589.1409,23.442623 L1580.93006,23.442623 L1580.93006,32.3934426 L1578.19311,31.704918 L1578.19311,23.442623 L1570.6665,23.442623 L1570.6665,32.3934426 L1567.92955,32.3934426 L1567.24531,23.442623 L1558.35023,23.442623 L1557.66599,31.9114754 L1555.61328,23.442623 L1548.77091,24.1311475 L1548.77091,32.3934426 L1546.03396,24.1311475 L1538.50735,24.1311475 L1537.82311,32.3934426 L1535.08616,24.1311475 L1527.55955,24.1311475 L1526.19108,32.3934426 L1523.45413,32.3934426 L1524.13837,23.442623 L1515.92752,24.1311475 L1515.92752,32.3934426 L1513.87481,33.0819672 L1513.87481,24.1311475 L1507.71668,24.1311475 L1507.71668,32.3934426 L1505.52712,32.1868852 L1505.66396,24.1311475 L1498.82159,24.1311475 L1498.82159,32.3934426 L1496.97415,32.2557377 L1496.76888,23.442623 L1488.55803,24.1311475 L1488.55803,32.3934426 L1486.1632,32.0491803 L1486.50532,24.1311475 L1478.97871,24.1311475 L1478.97871,32.3934426 L1476.926,24.1311475 L1470.08363,24.1311475 L1469.94678,32.3934426 L1467.34668,24.1311475 L1459.82007,24.1311475 L1459.13583,32.3934426 L1457.08312,24.1311475 L1448.18804,24.1311475 L1447.5038,32.3934426 L1445.93006,32.1868852 L1446.81956,24.1311475 L1439.97719,24.1311475 L1439.63507,32.2557377 L1437.24024,32.1180328 L1436.55601,24.0622951 L1429.71363,24.7508197 L1430.39787,33.0131148 L1426.97669,33.0131148 L1426.29245,24.7508197 L1420.13431,24.7508197 L1419.45008,33.0131148 L1418.0816,24.0622951 L1409.18652,24.0622951 L1409.87076,33.0131148 L1405.76533,24.0622951 L1398.92296,24.0622951 L1398.23872,33.0131148 L1396.18601,32.3245902 L1396.87025,24.0622951 L1389.34364,24.0622951 L1388.6594,33.0131148 L1387.29093,32.3245902 L1387.29093,23.3737705 L1379.76432,24.0622951 L1379.08008,33.0131148 L1376.34313,33.0131148 L1377.02737,24.0622951 L1369.50076,24.0622951 L1368.81652,33.0131148 L1366.07957,33.0131148 L1367.44805,24.0622951 L1359.2372,24.0622951 L1358.55297,32.3245902 L1356.50025,33.0131148 L1356.50025,24.0622951 L1348.28941,24.0622951 L1348.28941,32.3245902 L1346.37354,31.7737705 L1345.55246,24.0622951 L1339.39432,23.3737705 L1338.71009,32.3245902 L1336.52053,31.9803279 L1336.65737,24.0622951 L1328.44653,24.0622951 L1328.58338,32.1868852 L1325.70958,23.3737705 L1318.18297,23.3737705 L1318.52509,31.9803279 L1316.8145,24.0622951 L1308.60365,24.0622951 L1307.91941,32.3245902 L1307.23517,23.3737705 L1299.02433,24.0622951 L1298.34009,32.3245902 L1296.28738,24.0622951 L1288.07653,23.3737705 L1288.76077,32.3245902 L1286.02382,23.3737705 L1277.81298,23.3737705 L1277.81298,32.3245902 L1275.07603,23.3737705 L1266.86518,23.3737705 L1266.18094,32.3245902 L1264.81247,23.3737705 L1257.28586,23.3737705 L1257.28586,31.6360656 L1255.23315,23.3737705 L1247.70654,23.3737705 L1247.0223,32.3245902 L1244.96959,31.6360656 L1244.96959,23.3737705 L1237.44298,23.3737705 L1237.44298,33.0131148 L1234.70603,32.3245902 L1234.70603,23.3737705 L1226.49518,23.3737705 L1226.49518,31.6360656 L1224.64774,31.4295082 L1224.44247,22.6852459 L1216.91586,22.6852459 L1216.23163,31.6360656 L1214.86315,31.2918033 L1214.17892,21.9967213 L1205.28383,22.6852459 L1204.59959,31.6360656 L1202.54688,21.9967213 L1192.96756,22.6852459 L1192.28332,31.6360656 L1191.59909,23.3737705 L1184.75672,22.6852459 L1183.38824,31.6360656 L1181.33553,22.6852459 L1173.12468,22.6852459 L1171.75621,31.6360656 L1169.7035,22.6852459 L1160.80841,22.6852459 L1160.12418,30.947541 L1158.07146,22.6852459 L1149.86062,21.9967213 L1149.17638,30.947541 L1147.12367,21.9967213 L1138.91282,21.9967213 L1138.22859,30.947541 C1136.17587,30.2590164 1137.54435,21.3081967 1137.54435,21.3081967 L1129.3335,21.3081967 L1128.64927,30.947541 L1126.59655,21.3081967 L1119.06994,21.3081967 L1119.06994,30.947541 L1117.01723,21.9967213 L1108.12215,21.3081967 L1107.9853,30.1213115 L1106.68525,21.3081967 C1106.68525,21.3081967 1099.15864,20.6196721 1099.15864,21.3081967 C1099.15864,21.9967213 1098.4744,30.2590164 1098.4744,30.2590164 L1095.73746,30.2590164 L1095.73746,21.3081967 L1088.21085,21.3081967 L1087.52661,30.2590164 L1085.4739,20.6196721 L1076.57881,21.3081967 L1075.89458,30.2590164 L1074.5261,21.3081967 L1064.26254,20.6196721 L1063.57831,29.5704918 L1061.5256,30.2590164 L1062.20983,20.6196721 L1053.99899,19.9311475 L1053.31475,29.5704918 L1051.39888,29.0196721 L1051.26204,20.6196721 L1043.05119,19.9311475 L1042.36695,29.5704918 L1040.31424,19.9311475 L1032.78763,19.9311475 L1033.47187,29.5704918 L1031.41916,19.9311475 L1023.20831,19.242623 L1023.20831,28.8819672 L1021.1556,19.9311475 L1013.62899,19.9311475 L1012.94475,29.5704918 L1010.89204,28.8819672 L1010.89204,19.242623 L1002.6812,19.242623 L1003.02331,28.4 L999.944247,28.1934426 L999.944247,19.242623 L992.417638,19.242623 L992.417638,28.1934426 L990.364927,19.242623 L982.838317,18.5540984 L982.838317,28.8819672 L980.785606,28.1934426 L980.785606,19.242623 L973.258996,18.5540984 L973.943234,28.1934426 L971.206285,18.5540984 L962.311201,18.5540984 L961.626964,28.1934426 L960.942727,18.5540984 L953.416118,17.8655738 L953.416118,27.504918 L951.226559,27.3672131 L950.679169,17.1770492 L942.468322,17.8655738 L942.468322,27.504918 L940.073492,27.0229508 L941.099848,17.8655738 C941.099848,17.8655738 932.204764,17.1770492 932.889002,17.8655738 C933.573239,18.5540984 932.204764,27.504918 932.204764,27.504918 L929.467816,17.1770492 L918.52002,17.1770492 L917.835783,27.504918 C915.783071,26.8163934 915.783071,17.1770492 915.783071,17.1770492 L907.572225,17.1770492 L907.572225,26.8163934 L904.972124,26.3344262 L906.203751,17.1770492 L898.677141,16.4885246 L898.677141,26.1278689 L895.255955,26.1278689 L894.571718,16.4885246 L885.676635,16.4885246 L885.676635,26.8163934 L882.939686,26.1278689 L882.939686,16.4885246 L875.413077,15.8 L874.728839,26.1278689 L871.307653,26.1278689 L871.991891,15.1114754 L862.41257,15.1114754 L861.728332,26.1278689 L858.991384,16.4885246 L852.833249,15.8 L852.149012,25.4393443 L849.412063,25.4393443 L849.412063,15.1114754 L840.516979,15.1114754 L839.148505,25.4393443 L836.411556,25.4393443 C836.411556,25.4393443 837.78003,16.4885246 837.78003,15.8 C837.78003,15.1114754 827.516472,15.1114754 827.516472,15.1114754 L826.832235,25.4393443 L824.779524,24.7508197 L824.779524,15.8 L815.88444,15.1114754 L815.200203,24.7508197 L813.147491,15.1114754 L804.252408,14.4229508 L804.252408,24.0622951 L801.994425,23.5114754" id="Shape"></path>
                        <path d="M0.189177987,0.619672131 L1.0892024,9.25901639 L3.48960973,9.32786885 L4.18917799,0.37704918 L11.974151,0.583606557 L11.7004562,9.53442623 L14.6426761,9.74098361 L14.6426761,1.34098361 L22.8535226,1.54754098 L22.5798277,10.4983607 L25.3167765,9.87868852 L25.5220476,1.61639344 L33.0486569,1.82295082 L32.774962,10.7737705 L35.5119108,10.842623 L36.4698429,1.89180328 L45.3649265,2.16721311 L45.8438925,10.704918 L47.8966042,10.7737705 L48.1018753,2.30491803 L54.9442473,3.2 L54.7389762,11.4622951 L56.7916878,11.5311475 L57.6811961,3.26885246 L65.2078054,3.47540984 L65.6867714,11.7377049 L67.739483,11.8065574 L68.6289914,3.5442623 L76.1556006,3.75081967 L77.3188039,12.0819672 L80.0557527,12.1508197 L79.6452103,3.2 L87.8560568,4.09508197 L87.6507856,12.357377 L89.7034972,13.1147541 L89.9771921,4.16393443 L96.1353269,4.3704918 L95.9300558,12.6327869 L98.1196148,12.495082 L98.2564622,4.43934426 L105.098834,4.64590164 L104.893563,12.9081967 L106.741004,12.8393443 L107.21997,4.02622951 L115.430816,4.92131148 L115.225545,13.1836066 L117.620375,12.9081967 L117.483528,4.99016393 L125.010137,5.19672131 L124.804866,13.4590164 L126.857577,13.5278689 L127.062848,5.26557377 L133.90522,5.47213115 L133.768373,13.7344262 L136.163203,13.8032787 L136.642169,5.54098361 L144.168779,5.74754098 L144.647745,14.0098361 L146.700456,14.0786885 L146.905727,5.81639344 L155.800811,6.09180328 L156.279777,14.3540984 L157.853523,14.147541 L157.169285,6.09180328 L164.011657,6.29836066 L164.148505,14.4229508 L166.543335,14.3540984 L167.432843,6.36721311 L174.275215,7.26229508 L173.385707,15.5245902 L176.806893,15.5934426 L177.696401,7.33114754 L183.854536,7.53770492 L184.333502,15.8 L185.701977,15.8688525 L185.975672,6.91803279 L194.870755,7.19344262 L193.912823,16.1442623 L195.965535,16.2131148 L198.291941,7.33114754 L205.134313,7.53770492 L205.544856,16.4885246 L207.597567,15.8688525 L207.118601,7.60655738 L214.64521,7.81311475 L215.055753,16.7639344 L216.424227,16.1442623 L216.697922,7.19344262 L224.224531,8.08852459 L224.635073,17.0393443 L227.372022,17.1081967 L226.96148,8.15737705 L234.488089,8.36393443 L234.898632,17.3147541 L237.63558,17.3836066 L236.540801,8.36393443 L244.751647,8.5704918 L245.230613,16.8327869 L247.283325,17.5901639 L247.55702,8.63934426 L255.767866,8.84590164 L255.562595,17.1081967 L257.546883,16.557377 L258.573239,8.9147541 L264.731374,8.43278689 L265.141916,17.3836066 L267.331475,17.1081967 L267.468322,9.19016393 L275.679169,9.39672131 L275.33705,17.5213115 L277.184491,17.5901639 L278.484541,8.77704918 L286.011151,8.98360656 L285.395337,17.5901639 L287.10593,17.6590164 L287.311201,9.74098361 L295.522048,9.94754098 L296.001014,18.2098361 L297.369488,18.2786885 L296.958946,9.32786885 L305.169792,10.2229508 L305.648758,18.4852459 L307.70147,18.5540984 L307.906741,10.2918033 L316.117587,9.80983607 L315.159655,18.7606557 L317.212367,18.8295082 L318.170299,9.87868852 L326.381145,10.0852459 L326.107451,19.0360656 L328.160162,19.104918 L329.118094,10.1540984 L337.328941,10.3606557 L337.739483,19.3114754 L339.792195,19.3803279 L339.381652,10.4295082 L346.908262,10.6360656 L346.70299,18.8983607 L348.755702,18.9672131 L348.960973,10.704918 L356.487582,10.9114754 L356.898125,19.8622951 L358.950836,19.242623 L359.156107,10.9803279 L366.682717,11.1868852 L366.409022,20.8262295 L369.145971,20.2065574 L369.419665,11.2557377 L377.630512,11.4622951 L377.425241,19.7245902 L379.272681,19.5180328 L379.751647,10.7737705 L387.278256,10.9803279 L387.688799,19.9311475 L389.057273,19.6557377 L390.015205,10.3606557 L398.910289,11.3245902 L399.320831,20.2754098 L400.689306,20.3442623 L401.647238,10.704918 L411.226559,11.6688525 L411.637101,20.6196721 L413.689812,20.6885246 L412.526609,12.357377 L419.368981,11.8754098 L420.463761,20.895082 L421.832235,20.9639344 L422.790167,12.0131148 L431.001014,12.2196721 L432.095793,21.2393443 L434.148505,21.3081967 L434.4222,12.357377 L443.317283,12.6327869 L443.796249,20.895082 L445.848961,20.9639344 L446.054232,12.7016393 L454.265079,12.2196721 L454.675621,21.1704918 L456.728332,21.2393443 L457.002027,12.2885246 L465.212874,12.495082 L465.623416,21.4459016 C465.623416,21.4459016 467.676128,22.2032787 467.676128,21.5147541 C467.676128,20.8262295 466.581348,11.8065574 466.581348,11.8065574 L474.792195,12.0131148 L475.202737,21.652459 L476.571211,21.7213115 L477.529143,12.0819672 L485.055753,12.2885246 L484.782058,21.9278689 L486.834769,21.9967213 L487.108464,13.0459016 L496.003548,12.6327869 L495.8667,21.4459016 L498.05626,21.5147541 L497.372022,12.6327869 C497.372022,12.6327869 504.898632,12.1508197 504.898632,12.8393443 C504.898632,13.5278689 505.309174,21.7901639 505.309174,21.7901639 L508.046123,21.8590164 L508.319818,12.9081967 L515.846427,13.1147541 L516.256969,22.0655738 L518.309681,22.1344262 L518.583376,12.495082 L527.478459,13.4590164 L527.889002,22.4098361 L529.257476,22.4786885 L529.531171,13.5278689 L539.794729,13.1147541 L540.205271,22.0655738 L542.257983,22.8229508 L541.84744,13.1836066 L550.058287,12.7016393 L550.468829,22.3409836 L552.453117,21.7901639 L552.795236,13.3901639 L561.006082,12.9081967 L561.416624,22.547541 L563.469336,22.6163934 L563.743031,12.9770492 L571.26964,13.1836066 L570.311708,22.8229508 L572.36442,22.8918033 L572.638115,13.252459 L580.848961,12.7704918 L580.575266,22.4098361 L582.627978,22.4786885 L582.901673,13.5278689 L590.428282,13.7344262 L590.838824,23.3737705 L592.891536,22.7540984 L593.165231,13.1147541 L601.376077,13.3213115 L600.760264,22.4786885 L603.839331,22.3409836 L604.113026,13.3901639 L611.639635,13.5967213 L611.36594,22.547541 L613.418652,22.6163934 L613.692347,13.6655738 L621.218956,13.1836066 L620.945261,23.5114754 L622.997973,22.8918033 L623.271668,13.9409836 L630.798277,13.4590164 L629.840345,23.0983607 L631.893056,23.1672131 L632.850988,13.5278689 L641.746072,13.8032787 L642.156614,23.442623 L643.525089,23.5114754 L643.114546,13.8721311 L650.641156,13.3901639 L650.367461,23.0295082 L652.55702,22.9606557 L653.446528,12.7704918 L661.657375,13.6655738 L661.38368,23.304918 L663.77851,22.8918033 L663.025849,13.6655738 C663.025849,13.6655738 671.920933,13.252459 671.236695,13.8721311 C670.552458,14.5606557 671.647238,23.5114754 671.647238,23.5114754 L673.699949,23.5803279 L674.657881,13.252459 L685.605677,13.5967213 L686.016219,23.9245902 C686.016219,23.9245902 688.068931,24.6819672 688.068931,23.9934426 C688.068931,23.304918 688.342625,13.6655738 688.342625,13.6655738 L696.553472,13.8721311 L696.279777,23.5114754 L698.948302,23.0983607 L697.921946,13.8721311 L705.448555,13.3901639 L705.174861,23.0295082 L708.596047,23.0983607 L709.553979,13.4590164 L718.449062,13.7344262 L718.175367,24.0622951 L720.912316,23.442623 L721.186011,13.8032787 L728.71262,13.3213115 L729.123163,23.6491803 L732.544349,23.7180328 L732.20223,12.7016393 L741.781551,12.9770492 L742.12367,23.9934426 L744.176381,24.0622951 L745.134313,14.4229508 L751.292448,13.9409836 L751.70299,23.5803279 L754.439939,23.6491803 L754.713634,13.3213115 L763.608718,13.5967213 L764.703497,23.9934426 L767.440446,24.0622951 C767.440446,24.0622951 766.345666,15.042623 766.345666,14.3540984 C766.345666,13.6655738 776.609225,13.9409836 776.609225,13.9409836 L777.019767,24.2688525 L779.072478,23.6491803 L779.346173,14.6983607 L788.241257,14.2852459 L788.651799,23.9245902 L790.704511,23.9934426 L790.978206,14.3540984 L799.873289,13.9409836 L799.599595,23.5803279 L801.926001,23.0983607" id="Shape"></path>
                    </g>
                </g>
                <g id="Layer_36" transform="translate(2990.000000, 144.000000)" stroke="#FFFFFF">
                    <path d="M863.657686,0.342857143 C863.657686,0.342857143 769.863708,8.57142857 611.030111,5.14285714 C491.08336,2.53714286 300.893819,8.57142857 0.342313788,23.6571429" id="Shape"></path>
                </g>
                <g id="Layer_37" transform="translate(0.000000, 78.000000)" stroke="#FFFFFF">
                    <path d="M1228.34223,70.3448276 C1246.13844,73.1034483 1603.08925,80.4137931 1603.08925,80.4137931 L2202,89.6551724" id="Shape"></path>
                    <path d="M1230.51546,22.642623 L1229.83122,32.2819672 L1227.09427,32.2819672 L1226.41004,23.3311475 L1218.88343,23.3311475 L1218.88343,32.2819672 L1215.94121,32.4196721 L1216.14648,24.0196721 L1207.93563,24.0196721 L1207.93563,32.9704918 L1205.19868,32.2819672 L1205.19868,24.0196721 L1197.67207,24.0196721 L1197.67207,32.9704918 L1194.93512,32.9704918 L1194.25089,24.0196721 L1185.3558,24.0196721 L1184.67157,32.4885246 L1182.61885,24.0196721 L1175.77648,24.7081967 L1175.77648,32.9704918 L1173.03953,24.7081967 L1165.51292,24.7081967 L1164.82869,32.9704918 L1162.09174,24.7081967 L1154.56513,24.7081967 L1153.19665,32.9704918 L1150.45971,32.9704918 L1151.14394,24.0196721 L1142.9331,24.7081967 L1142.9331,32.9704918 L1140.88039,33.6590164 L1140.88039,24.7081967 L1134.72225,24.7081967 L1134.72225,32.9704918 L1132.53269,32.7639344 L1132.66954,24.7081967 L1125.82717,24.7081967 L1125.82717,32.9704918 L1123.97973,32.8327869 L1123.77446,24.0196721 L1115.56361,24.7081967 L1115.56361,32.9704918 L1113.16878,32.6262295 L1113.5109,24.7081967 L1105.98429,24.7081967 L1105.98429,32.9704918 L1103.93158,24.7081967 L1097.0892,24.7081967 L1096.95236,32.9704918 L1094.35226,24.7081967 L1086.82565,24.7081967 L1086.14141,32.9704918 L1084.0887,24.7081967 L1075.19361,24.7081967 L1074.50938,32.9704918 L1072.93563,32.7639344 L1073.82514,24.7081967 L1066.98277,24.7081967 L1066.64065,32.8327869 L1064.24582,32.695082 L1063.56158,24.6393443 L1056.71921,25.3278689 L1057.40345,33.5901639 L1053.98226,33.5901639 L1053.29802,25.3278689 L1047.13989,25.3278689 L1046.45565,33.5901639 L1045.08718,24.6393443 L1036.19209,24.6393443 L1036.87633,33.5901639 L1032.77091,24.6393443 L1025.92854,24.6393443 L1025.2443,33.5901639 L1023.19159,32.9016393 L1023.87582,24.6393443 L1016.34921,24.6393443 L1015.66498,33.5901639 L1014.2965,32.9016393 L1014.2965,23.9508197 L1006.76989,24.6393443 L1006.08566,33.5901639 L1003.34871,33.5901639 L1004.03294,24.6393443 L996.506336,24.6393443 L995.822098,33.5901639 L993.08515,33.5901639 L994.453624,24.6393443 L986.242777,24.6393443 L985.55854,32.9016393 L983.505829,33.5901639 L983.505829,24.6393443 L975.294982,24.6393443 L975.294982,32.9016393 L973.379118,32.3508197 L972.558033,24.6393443 L966.399899,23.9508197 L965.715661,32.9016393 L963.526102,32.557377 L963.66295,24.6393443 L955.452103,24.6393443 L955.588951,32.7639344 L952.715155,23.9508197 L945.188545,23.9508197 L945.530664,32.557377 L943.820071,24.6393443 L935.609225,24.6393443 L934.924987,32.9016393 L934.24075,23.9508197 L926.029904,24.6393443 L925.345666,32.9016393 L923.292955,24.6393443 L915.082108,23.9508197 L915.766346,32.9016393 L913.029397,23.9508197 L904.81855,23.9508197 L904.81855,32.9016393 L902.081602,23.9508197 L893.870755,23.9508197 L893.186518,32.9016393 L891.818044,23.9508197 L884.291434,23.9508197 L884.291434,32.2131148 L882.238723,23.9508197 L874.712114,23.9508197 L874.027876,32.9016393 L871.975165,32.2131148 L871.975165,23.9508197 L864.448555,23.9508197 L864.448555,33.5901639 L861.711607,32.9016393 L861.711607,23.9508197 L853.50076,23.9508197 L853.50076,32.2131148 L851.65332,32.0065574 L851.448049,23.2622951 L843.921439,23.2622951 L843.237202,32.2131148 L841.868728,31.8688525 L841.184491,22.5737705 L832.289407,23.2622951 L831.60517,32.2131148 L829.552458,22.5737705 L819.973137,23.2622951 L819.2889,32.2131148 L818.604663,23.9508197 L811.762291,23.2622951 L810.393817,32.2131148 L808.341105,23.2622951 L800.130258,23.2622951 L798.761784,32.2131148 L796.709072,23.2622951 L787.813989,23.2622951 L787.129752,31.5245902 L785.07704,23.2622951 L776.866194,22.5737705 L776.181956,31.5245902 L774.129245,22.5737705 L765.918398,22.5737705 L765.234161,31.5245902 C763.18145,30.8360656 764.549924,21.8852459 764.549924,21.8852459 L756.339078,21.8852459 L755.65484,31.5245902 L753.602129,21.8852459 L746.07552,21.8852459 L746.07552,31.5245902 L744.022808,22.5737705 L735.127724,21.8852459 L734.990877,30.6983607 L733.690826,21.8852459 C733.690826,21.8852459 726.164217,21.1967213 726.164217,21.8852459 C726.164217,22.5737705 725.47998,30.8360656 725.47998,30.8360656 L722.743031,30.8360656 L722.743031,21.8852459 L715.216422,21.8852459 L714.532184,30.8360656 L712.479473,21.1967213 L703.584389,21.8852459 L702.900152,30.8360656 L701.531678,21.8852459 L691.26812,21.1967213 L690.583882,30.147541 L688.531171,30.8360656 L689.215408,21.1967213 L681.004562,20.5081967 L680.320324,30.147541 L678.40446,29.5967213 L678.267613,21.1967213 L670.056766,20.5081967 L669.372529,30.147541 L667.319818,20.5081967 L659.793208,20.5081967 L660.477446,30.147541 L658.424734,20.5081967 L650.213887,19.8196721 L650.213887,29.4590164 L648.161176,20.5081967 L640.634567,20.5081967 L639.950329,30.147541 L637.897618,29.4590164 L637.897618,19.8196721 L629.686771,19.8196721 L630.02889,28.9770492 L626.949823,28.7704918 L626.949823,19.8196721 L619.423213,19.8196721 L619.423213,28.7704918 L617.370502,19.8196721 L609.843893,19.1311475 L609.843893,29.4590164 L607.791181,28.7704918 L607.791181,19.8196721 L600.264572,19.1311475 L600.948809,28.7704918 L598.21186,19.1311475 L589.316776,19.1311475 L588.632539,28.7704918 L587.948302,19.1311475 L580.421693,18.442623 L580.421693,28.0819672 L578.232134,27.9442623 L577.684744,17.7540984 L569.473898,18.442623 L569.473898,28.0819672 L567.079067,27.6 L568.105423,18.442623 C568.105423,18.442623 559.21034,17.7540984 559.894577,18.442623 C560.578814,19.1311475 559.21034,28.0819672 559.21034,28.0819672 L556.473391,17.7540984 L545.525596,17.7540984 L544.841358,28.0819672 C542.788647,27.3934426 542.788647,17.7540984 542.788647,17.7540984 L534.5778,17.7540984 L534.5778,27.3934426 L531.977699,26.9114754 L533.209326,17.7540984 L525.682717,17.0655738 L525.682717,26.704918 L522.261531,26.704918 L521.577293,17.0655738 L512.68221,17.0655738 L512.68221,27.3934426 L509.945261,26.704918 L509.945261,17.0655738 L502.418652,16.3770492 L501.734415,26.704918 L498.313229,26.704918 L498.997466,15.6885246 L489.418145,15.6885246 L488.733908,26.704918 L485.996959,17.0655738 L479.838824,16.3770492 L479.154587,26.0163934 L476.417638,26.0163934 L476.417638,15.6885246 L467.522554,15.6885246 L466.15408,26.0163934 L463.417131,26.0163934 C463.417131,26.0163934 464.785606,17.0655738 464.785606,16.3770492 C464.785606,15.6885246 454.522048,15.6885246 454.522048,15.6885246 L453.83781,26.0163934 L451.785099,25.3278689 L451.785099,16.3770492 L442.890015,15.6885246 L442.205778,25.3278689 L440.153066,15.6885246 L431.257983,15 L431.257983,24.6393443 L429,24.0885246 L429,14 L422.400024,12.8500061" id="Shape"></path>
                    <polyline id="Shape" points="0 0 0.410542321 9.63934426 3.14749113 9.70819672 4.10542321 0.757377049 11.6320324 0.963934426 11.3583376 9.9147541 14.3005575 10.1213115 14.3005575 1.72131148 22.511404 1.92786885 22.2377091 10.8786885 24.9746579 10.2590164 25.179929 1.99672131 32.7065383 2.20327869 32.4328434 11.1540984 35.1697922 11.2229508 36.1277243 2.27213115 45.0228079 2.54754098 45.5017739 11.0852459 47.5544856 11.1540984 47.7597567 2.6852459 54.6021287 3.58032787 54.3968576 11.842623 56.4495692 11.9114754 57.3390775 3.64918033 64.8656868 3.8557377 65.3446528 12.1180328 67.3973644 12.1868852 68.2868728 3.92459016 75.813482 4.13114754 76.9766853 12.4622951 79.7136341 12.5311475 79.3030917 3.58032787 87.5139382 4.47540984 87.308667 12.7377049 89.3613786 13.495082 89.6350735 4.5442623 95.7932083 4.75081967 95.5879372 13.0131148 97.7774962 12.8754098 97.9143436 4.81967213 104.756716 5.02622951 104.551445 13.2885246 106.398885 13.2196721 106.877851 4.40655738 115.088697 5.30163934 114.883426 13.5639344 117.278256 13.2885246 117.141409 5.3704918 124.668018 5.57704918 124.462747 13.8393443 126.515459 13.9081967 126.72073 5.64590164 133.563102 5.85245902 133.426254 14.1147541 135.821085 14.1836066 136.300051 5.92131148 143.82666 6.12786885 144.305626 14.3901639 146.358338 14.4590164 146.563609 6.19672131 155.458692 6.47213115 155.937658 14.7344262 157.511404 14.5278689 156.827167 6.47213115 163.669539 6.67868852 163.806386 14.8032787 166.201216 14.7344262 167.090725 6.74754098 173.933097 7.64262295 173.043588 15.904918 176.464774 15.9737705 177.354283 7.71147541 183.512418 7.91803279 183.991384 16.1803279 185.359858 16.2491803 185.633553 7.29836066 194.528637 7.57377049 193.570705 16.5245902 195.623416 16.5934426 197.949823 7.71147541 204.792195 7.91803279 205.202737 16.8688525 207.255449 16.2491803 206.776483 7.98688525 214.303092 8.19344262 214.713634 17.1442623 216.082108 16.5245902 216.355803 7.57377049 223.882413 8.46885246 224.292955 17.4196721 227.029904 17.4885246 226.619361 8.53770492 234.145971 8.7442623 234.556513 17.695082 237.293462 17.7639344 236.198682 8.7442623 244.409529 8.95081967 244.888495 17.2131148 246.941206 17.9704918 247.214901 9.01967213 255.425748 9.22622951 255.220476 17.4885246 257.204764 16.9377049 258.23112 9.29508197 264.389255 8.81311475 264.799797 17.7639344 266.989356 17.4885246 267.126204 9.5704918 275.33705 9.77704918 274.994932 17.9016393 276.842372 17.9704918 278.142423 9.15737705 285.669032 9.36393443 285.053218 17.9704918 286.763811 18.0393443 286.969083 10.1213115 295.179929 10.3278689 295.658895 18.5901639 297.027369 18.6590164 296.616827 9.70819672 304.827674 10.6032787 305.30664 18.8655738 307.359351 18.9344262 307.564622 10.6721311 315.775469 10.1901639 314.817537 19.1409836 316.870248 19.2098361 317.82818 10.2590164 326.039027 10.4655738 325.765332 19.4163934 327.818044 19.4852459 328.775976 10.5344262 336.986822 10.7409836 337.397364 19.6918033 339.450076 19.7606557 339.039534 10.8098361 346.566143 11.0163934 346.360872 19.2786885 348.413583 19.347541 348.618855 11.0852459 356.145464 11.2918033 356.556006 20.242623 358.608718 19.6229508 358.813989 11.3606557 366.340598 11.5672131 366.066903 21.2065574 368.803852 20.5868852 369.077547 11.6360656 377.288393 11.842623 377.083122 20.104918 378.930563 19.8983607 379.409529 11.1540984 386.936138 11.3606557 387.34668 20.3114754 388.715155 20.0360656 389.673087 10.7409836 398.56817 11.704918 398.978713 20.6557377 400.347187 20.7245902 401.305119 11.0852459 410.88444 12.0491803 411.294982 21 413.347694 21.0688525 412.184491 12.7377049 419.026863 12.2557377 420.121642 21.2754098 421.490117 21.3442623 422.448049 12.3934426"></polyline>
                    <path d="M2,48 C13.9671233,50.7586207 254.299988,51.0700073 254.299988,51.0700073" id="Shape"></path>
                    <path d="M254,51 C271.796205,53.7586207 628.747013,61.0689655 628.747013,61.0689655 L1228.30005,70.3103448" id="Shape"></path>
                </g>
            </g>
        </g>
    </g>
</svg>