<?xml version="1.0" encoding="UTF-8"?>
<svg width="4000px" height="320px" viewBox="0 0 4000 320" version="1.1" xmlns="http://www.w3.org/2000/svg" xmlns:xlink="http://www.w3.org/1999/xlink">
    <!-- Generator: Sketch 51.2 (57519) - http://www.bohemiancoding.com/sketch -->
    <title>kinesisk</title>
    <desc>Created with Sketch.</desc>
    <defs></defs>
    <g id="kinesisk" stroke="none" stroke-width="1" fill="none" fill-rule="evenodd">
        <g id="Kinesisk" transform="translate(2.000000, 153.000000)" stroke="#FFFFFF">
            <path d="M3857.88636,70.5934066 C3857.88636,70.5934066 3858.56818,65.1428571 3859.25,63.7802198 C3857.20455,63.0989011 3855.15909,62.4175824 3855.15909,62.4175824 C3855.15909,62.4175824 3867.43182,53.5604396 3868.79545,52.1978022 C3870.15909,50.8351648 3876.02273,46.3384615 3876.97727,45.3846154 C3878.34091,44.021978 3879.02273,43.3406593 3879.02273,43.3406593 C3879.02273,43.3406593 3886.38636,50.6989011 3887.88636,52.1978022 C3889.93182,54.2417582 3900.84091,63.0989011 3900.84091,63.0989011 L3896.75,63.7802198 L3898.11364,69.9120879" id="Shape"></path>
            <path d="M3865.38636,73.3186813 C3864.70455,72.6373626 3866.06818,65.1428571 3866.06818,64.4615385 C3866.06818,63.7802198 3871.52273,64.4615385 3871.52273,64.4615385 L3871.38636,70.389011" id="Shape"></path>
            <path d="M3883.59091,70.389011 C3883.79545,69.9120879 3882.43182,63.7802198 3883.11364,63.7802198 C3883.79545,63.7802198 3888.56818,63.7802198 3888.56818,63.7802198 L3889.25,70.1164835" id="Shape"></path>
            <path d="M3858.56818,94.4395604 C3857.88636,95.1208791 3859.25,101.252747 3859.25,101.252747 L3864.02273,101.252747 L3864.02273,95.8021978 L3858.56818,94.4395604 Z" id="Shape"></path>
            <path d="M3875.61364,94.4395604 L3876.29545,100.571429 L3880.38636,100.571429 L3880.38636,93.7582418 C3880.38636,93.7582418 3876.97727,93.0769231 3876.29545,93.0769231 C3875.61364,93.0769231 3875.61364,94.4395604 3875.61364,94.4395604 Z" id="Shape"></path>
            <path d="M3893.34091,93.0769231 C3893.34091,93.7582418 3894.02273,99.8901099 3894.02273,99.8901099 L3898.79545,99.8901099 C3898.79545,99.8901099 3899.47727,98.5274725 3899.47727,97.1648352 C3899.47727,95.8021978 3898.11364,93.0769231 3898.11364,93.0769231 L3893.34091,93.0769231 Z" id="Shape"></path>
            <path d="M3851.40909,104.318681 C3851.40909,104.318681 3851.40909,87.967033 3850.72727,87.967033 C3850.04545,87.967033 3848.68182,87.2857143 3848.68182,87.2857143 C3848.68182,87.2857143 3848,85.9230769 3848.68182,85.2417582 C3849.36364,84.5604396 3850.72727,84.5604396 3850.72727,84.5604396 L3850.04545,75.021978 L3852.09091,75.021978 C3852.09091,75.021978 3852.77273,71.6153846 3852.77273,70.9340659 C3852.77273,70.2527473 3861.97727,70.389011 3862.65909,70.5934066 C3862.65909,71.2747253 3862.65909,73.3186813 3862.65909,74 C3864.02273,74 3866.75,74 3866.75,74 L3866.75,70.5934066 C3866.75,70.5934066 3872.88636,70.5934066 3874.59091,70.2527473 L3874.93182,74 L3880.38636,74 L3880.38636,70.5934066 L3889.93182,70.5934066 L3890.61364,74 L3894.70455,74 L3894.70455,70.5934066 C3894.70455,70.5934066 3904.59091,68.8901099 3904.59091,69.5714286 C3904.59091,70.2527473 3905.27273,78.4285714 3905.27273,79.7912088 C3905.27273,81.1538462 3905.95455,84.5604396 3905.95455,84.5604396 L3908,85.9230769 L3907.31818,87.967033 L3905.95455,88.6483516 L3905.27273,103.637363" id="Shape"></path>
            <path d="M3850.38636,84.2197802 C3850.38636,84.2197802 3859.93182,84.9010989 3860.61364,84.9010989 C3861.29545,84.9010989 3868.79545,84.2197802 3870.84091,84.2197802 C3872.88636,84.2197802 3885.84091,83.5384615 3885.84091,83.5384615 C3885.84091,83.5384615 3899.47727,83.5384615 3900.84091,84.2197802 C3902.20455,84.9010989 3904.25,83.5384615 3905.61364,84.2197802" id="Shape"></path>
            <path d="M3850.38636,87.6263736 C3850.38636,87.6263736 3861.29545,87.6263736 3864.02273,87.6263736 C3866.75,87.6263736 3881.06818,87.6263736 3881.06818,87.6263736 C3881.06818,87.6263736 3888.56818,88.3076923 3891.29545,88.3076923 C3894.02273,88.3076923 3905.95455,88.3076923 3905.95455,88.3076923" id="Shape"></path>
            <path d="M3905.34167,95.2355769 L3909.44167,94.5528846 L3910.80833,101.379808 C3910.80833,101.379808 3912.175,102.0625 3912.175,101.379808 C3912.175,100.697115 3911.49167,93.1875 3911.49167,93.1875 L3919.69167,91.8221154 L3921.05833,97.9663462 C3921.05833,97.9663462 3921.74167,98.6490385 3922.425,97.9663462 C3923.10833,97.2836538 3921.74167,90.4567308 3921.74167,90.4567308 L3929.25833,88.4086538 C3929.25833,88.4086538 3929.25833,95.9182692 3929.94167,96.6009615 C3930.625,97.2836538 3933.35833,95.2355769 3933.35833,95.2355769 C3933.35833,95.2355769 3932.675,91.8221154 3932.675,90.4567308 C3932.675,89.0913462 3931.99167,87.7259615 3931.99167,87.7259615 L3936.775,86.3605769 C3936.775,86.3605769 3937.45833,89.0913462 3938.14167,90.4567308 C3938.825,91.8221154 3939.50833,94.5528846 3939.50833,94.5528846 L3941.55833,93.8701923 C3941.55833,93.8701923 3940.875,91.1394231 3940.875,90.4567308 C3940.875,89.7740385 3940.19167,86.3605769 3940.19167,85.6778846 C3940.19167,84.9951923 3947.025,84.3125 3947.025,84.3125 L3947.70833,91.1394231 L3950.44167,91.1394231 L3949.75833,84.3125 L3956.59167,81.5817308 C3956.59167,81.5817308 3957.275,87.7259615 3957.95833,88.4086538 C3958.64167,89.0913462 3960.69167,87.7259615 3960.69167,87.7259615 C3960.69167,87.7259615 3960.00833,84.9951923 3960.00833,84.3125 C3960.00833,83.6298077 3960.00833,80.8990385 3960.00833,80.8990385 L3965.475,78.8509615 L3966.84167,87.0432692 L3968.89167,86.3605769 L3968.89167,78.1682692 L3974.35833,76.1201923 L3975.04167,83.6298077 L3977.775,81.5817308 L3977.775,74.7548077 L3980.50833,72.7067308 L3981.19167,78.8509615 L3981.875,78.1682692 L3981.875,72.0240385 L3985.29167,71.3413462 C3985.29167,71.3413462 3986.65833,84.3125 3986.65833,85.6778846 C3986.65833,87.0432692 3984.60833,93.8701923 3985.29167,97.2836538 C3985.975,100.697115 3985.975,116.399038 3985.975,116.399038 C3985.975,116.399038 3974.35833,119.8125 3971.625,120.495192 C3968.89167,121.177885 3955.225,127.322115 3945.65833,128.6875 C3936.09167,130.052885 3929.94167,132.783654 3929.94167,132.783654 L3914.225,138.245192 L3906.025,141.658654" id="Shape"></path>
            <path d="M3983.24167,71.3413462 L3982.55833,67.2451923 L3979.825,65.8798077 L3979.14167,72.7067308 L3977.09167,72.0240385 L3976.40833,65.8798077 L3972.30833,64.5144231 C3972.30833,64.5144231 3972.99167,69.2932692 3972.99167,69.9759615 C3972.99167,70.6586538 3968.20833,69.9759615 3968.20833,69.9759615 L3969.575,63.1490385 L3963.425,60.4182692 L3963.425,67.2451923 L3960.00833,66.5625 L3959.325,60.4182692 L3955.90833,59.7355769 L3955.225,65.8798077 L3953.175,64.5144231 L3953.175,58.3701923 L3947.025,57.6875 L3946.34167,63.8317308 C3946.34167,63.8317308 3941.55833,63.8317308 3942.24167,63.1490385 C3942.925,62.4663462 3942.925,56.3221154 3942.925,56.3221154 L3939.50833,55.6394231 L3938.14167,62.4663462 L3934.725,61.1009615 L3934.725,53.5913462 L3930.625,52.2259615 L3929.25833,59.0528846 L3925.84167,57.6875 L3927.20833,52.2259615 L3921.74167,50.8605769 L3921.74167,57.0048077 C3921.74167,57.0048077 3917.64167,57.0048077 3918.325,55.6394231 C3919.00833,54.2740385 3918.325,50.1778846 3918.325,50.1778846 L3912.175,48.1298077 C3912.175,48.1298077 3912.175,50.1778846 3912.175,50.8605769 C3912.175,51.5432692 3912.175,52.9086538 3912.175,52.9086538 L3912.175,45.3990385 L3913.54167,44.7163462 L3914.225,46.7644231 C3914.225,46.7644231 3915.59167,46.7644231 3915.59167,46.0817308 C3915.59167,45.3990385 3914.90833,40.6201923 3914.90833,40.6201923 L3918.325,39.9375 L3919.00833,43.3509615 L3921.74167,42.6682692 L3920.375,38.5721154 L3922.425,38.5721154 C3922.425,38.5721154 3922.425,42.6682692 3923.10833,42.6682692 C3923.79167,42.6682692 3923.79167,42.6682692 3924.475,41.9855769 C3925.15833,41.3028846 3925.15833,37.2067308 3925.15833,37.2067308 L3926.525,37.2067308 L3927.89167,40.6201923 L3929.25833,40.6201923 L3929.25833,35.1586538 L3931.99167,34.4759615 L3932.675,39.2548077 L3935.40833,39.2548077 L3935.40833,33.7932692 L3937.45833,32.4278846 L3938.14167,37.8894231 C3938.14167,37.8894231 3939.50833,37.8894231 3940.19167,37.2067308 C3940.875,36.5240385 3940.19167,32.4278846 3940.19167,32.4278846 L3942.24167,31.7451923 L3943.60833,36.5240385 L3945.65833,35.8413462 L3945.65833,31.0625 L3949.75833,29.6971154" id="Shape"></path>
            <path d="M3912.175,52.9086538 C3912.175,52.9086538 3912.175,57.0048077 3912.85833,62.4663462 C3913.54167,67.9278846 3913.54167,74.0721154 3913.54167,74.0721154 C3913.54167,74.0721154 3922.425,77.4855769 3925.15833,78.1682692 C3927.89167,78.8509615 3932.675,79.5336538 3932.675,79.5336538 L3945.65833,84.3125" id="Shape"></path>
            <path d="M3949.75833,29.6971154 L3949.75833,26.9663462 L3948.39167,26.9663462 L3948.39167,24.2355769 L3950.44167,24.2355769 L3949.75833,16.7259615 L3950.44167,16.7259615 L3951.80833,16.7259615 L3953.85833,16.7259615 C3953.85833,16.7259615 3953.85833,13.9951923 3953.85833,12.6298077 C3950.92,11.9471154 3948.73333,11.2644231 3949.75833,11.2644231 C3949.75833,11.2644231 3956.59167,7.16826923 3957.95833,6.48557692 C3959.325,5.80288462 3964.10833,0.341346154 3964.10833,0.341346154 C3964.10833,0.341346154 3972.99167,8.53365385 3975.04167,9.89903846 C3977.09167,11.2644231 3979.825,12.6298077 3979.825,12.6298077 L3977.09167,12.6298077 L3977.09167,16.0432692 L3979.825,16.0432692 L3980.50833,24.2355769 L3982.55833,24.2355769 C3982.55833,24.9182692 3982.55833,24.2355769 3982.55833,26.2836538 C3982.55833,27.2394231 3981.19167,26.9663462 3981.19167,26.9663462 L3981.19167,38.5721154 C3981.19167,38.5721154 3980.50833,44.7163462 3981.875,47.4471154 C3983.24167,50.1778846 3981.875,55.6394231 3981.875,55.6394231 C3981.875,55.6394231 3944.29167,55.6394231 3943.60833,55.6394231 C3942.925,55.6394231 3941.55833,55.6394231 3941.55833,55.6394231" id="Shape"></path>
            <path d="M3957.95833,11.9471154 L3957.95833,16.0432692 C3957.95833,16.0432692 3960.00833,16.7259615 3960.00833,16.0432692 C3960.00833,15.3605769 3960.00833,11.9471154 3960.00833,11.9471154 L3957.95833,11.9471154 Z" id="Shape"></path>
            <polygon id="Shape" points="3968.89167 11.9471154 3968.89167 15.3605769 3972.30833 16.0432692 3971.625 11.9471154"></polygon>
            <path d="M3904.56818,104.344262 C3904.56818,104.344262 3907.97727,104.344262 3908.65909,105.032787 C3909.34091,105.721311 3908.65909,108.47541 3908.65909,108.47541 C3908.65909,108.47541 3906.61364,109.163934 3905.93182,108.47541 C3905.25,107.786885 3906.61364,129.131148 3905.93182,131.196721 C3905.25,133.262295 3905.25,138.081967 3905.25,138.081967 L3905.25,143.590164 C3905.25,143.590164 3903.20455,141.52459 3901.15909,142.213115 C3899.11364,142.901639 3886.15909,144.278689 3885.47727,144.967213 C3884.79545,145.655738 3882.75,144.967213 3882.75,144.967213 C3882.75,144.967213 3873.20455,146.344262 3871.15909,145.655738 C3869.11364,144.967213 3860.93182,144.967213 3860.93182,144.967213 L3852.06818,144.967213 C3852.06818,144.967213 3852.75,138.770492 3852.75,137.393443 C3852.75,136.016393 3852.06818,120.868852 3852.06818,120.868852 L3852.06818,107.786885 L3849.34091,107.786885 L3849.34091,104.344262 C3849.34091,104.344262 3859.43182,104.344262 3860.93182,104.344262 C3862.97727,104.344262 3871.84091,104.344262 3873.20455,104.344262 C3874.56818,104.344262 3882.06818,104.344262 3882.06818,104.344262 C3882.06818,104.344262 3887.52273,104.344262 3888.20455,104.344262 C3888.88636,104.344262 3895.02273,104.344262 3895.70455,104.344262 C3896.38636,104.344262 3900.20455,104.344262 3901.15909,104.344262 C3901.84091,104.344262 3904.56818,104.344262 3904.56818,104.344262 Z" id="Shape"></path>
            <path d="M3851.33951,107.25 L3862.2037,107.75 C3862.2037,107.75 3877.82099,107.25 3880.53704,107.25 C3882.03086,107.25 3894.7963,107.75 3896.15432,107.75 C3897.51235,107.75 3905.66049,107.75 3905.66049,107.75" id="Shape"></path>
            <path d="M3850.58692,99.5737705 C3848.53421,99.0918033 3841.69184,100.262295 3841.69184,100.262295 L3841.76026,106.734426 C3841.76026,106.734426 3836.9706,107.904918 3836.28637,106.803279 C3835.60213,105.701639 3835.53371,100.881967 3835.53371,100.881967 L3826.63862,101.570492 L3827.39128,107.491803 L3818.4962,108.180328 L3819.11201,101.708197 L3809.53269,101.845902 L3810.28535,108.868852 L3802.75874,109.488525 L3802.00608,103.016393 L3796.53218,102.534426 L3795.91637,110.108197 L3787.02129,109.695082 L3786.95286,102.672131 L3779.42625,102.740984 L3778.1262,110.865574 L3768.54688,111.554098 L3770.46275,102.878689 L3759.51495,103.016393 L3760.26761,111.140984 L3752.05677,111.278689 C3752.05677,111.278689 3752.67258,103.154098 3751.30411,103.154098 C3749.93563,103.154098 3744.46173,103.222951 3744.46173,103.222951 L3745.89863,111.347541 C3745.89863,111.347541 3741.10897,111.416393 3741.10897,110.865574 C3741.10897,110.314754 3739.67207,102.740984 3739.67207,102.740984 L3730.09275,102.878689 L3732.28231,113.137705 L3724.7557,112.72459 L3726.67157,103.498361 L3714.3553,103.636066 L3715.79219,108.111475" id="Shape"></path>
            <path d="M3715.86062,107.491803 L3715.86062,112.311475 C3715.86062,112.311475 3711.7552,113 3711.7552,112.311475 C3711.7552,111.622951 3711.7552,103.360656 3711.7552,103.360656 L3704.22859,103.360656 L3703.54435,112.311475 L3700.12316,112.311475 L3700.12316,103.360656 L3690.54384,103.360656 L3689.8596,112.311475 L3687.80689,112.311475 L3687.12266,104.04918 L3680.28028,103.360656 L3680.28028,112.311475 L3676.8591,112.311475 L3676.8591,103.360656 L3670.01673,103.360656 L3670.01673,112.311475 L3666.59554,112.311475 L3666.59554,104.04918 L3659.06893,104.04918 L3659.06893,112.311475 L3654.96351,112.311475 L3653.59503,103.360656 L3646.06842,103.360656 L3645.38419,111.622951 L3641.963,111.622951 L3642.64724,103.360656 L3637.17334,103.360656" id="Shape"></path>
            <path d="M3637.17334,103.360656 L3636.4891,111.622951 L3633.75215,111.622951 L3633.06792,103.360656 L3626.90978,103.360656 L3626.90978,111.622951 L3623.4886,112.311475 C3623.4886,112.311475 3624.17283,103.360656 3624.17283,102.672131 C3624.17283,101.983607 3616.64622,102.672131 3616.64622,102.672131 L3617.33046,110.934426 L3613.22504,111.622951 L3613.90928,103.360656 L3606.38267,102.672131 L3605.69843,110.934426 L3602.27724,110.934426 L3600.90877,103.360656 L3592.69792,102.672131 L3593.38216,110.245902 L3589.96097,110.245902 L3590.64521,100.606557 L3582.43436,100.606557 L3582.43436,110.934426 L3576.27623,110.245902 L3578.32894,101.983607 C3578.32894,101.983607 3572.85504,100.606557 3572.17081,101.295082 C3571.48657,101.983607 3570.80233,110.245902 3570.80233,110.245902 L3567.38115,110.245902 C3567.38115,110.245902 3567.38115,101.983607 3566.69691,101.983607 C3566.01267,101.983607 3559.85454,101.983607 3559.85454,101.983607 L3559.85454,110.245902 C3559.85454,110.245902 3555.06488,110.934426 3555.74911,110.245902 C3556.43335,109.557377 3557.11759,101.983607 3556.43335,101.983607 C3555.74911,101.983607 3546.16979,101.983607 3546.16979,101.983607 L3546.16979,110.934426 L3542.74861,110.934426 L3542.74861,101.295082 L3536.59047,101.295082 L3535.90623,110.934426 L3530.43234,110.245902 L3532.48505,100.606557 L3525.64268,100.606557 L3524.95844,110.934426 L3521.53725,110.245902 L3522.90573,100.606557 C3522.90573,100.606557 3514.69488,100.606557 3515.37912,100.606557 C3516.06336,100.606557 3515.37912,110.245902 3515.37912,110.245902 C3515.37912,110.245902 3509.90522,111.622951 3510.58946,110.934426 C3511.27369,110.245902 3511.95793,100.606557 3511.95793,100.606557 L3503.74709,99.9180328 L3503.74709,110.934426 L3499.64166,110.245902 C3499.64166,110.245902 3499.64166,102.672131 3499.64166,101.983607 C3499.64166,101.295082 3490.74658,100.606557 3490.74658,100.606557 L3490.74658,110.245902 L3488.00963,110.245902" id="Shape"></path>
            <path d="M3488.00963,110.245902 L3487.32539,101.983607 L3479.11455,101.983607 L3479.79878,110.245902 L3476.3776,110.934426 C3476.3776,110.934426 3475.69336,103.360656 3476.3776,102.672131 C3477.06183,101.983607 3470.9037,102.672131 3470.9037,102.672131 L3470.9037,110.934426 L3467.48251,110.934426 L3466.79828,101.983607 L3460.64014,102.672131 L3460.64014,110.934426 L3458.58743,110.934426 L3456.53472,101.983607 L3449.00811,102.672131 L3449.69235,110.934426 L3446.9554,110.934426 L3446.27116,102.672131 L3438.06031,102.672131 L3438.06031,110.934426 L3435.32337,110.934426 L3436.0076,102.672131 L3427.79676,102.672131 L3427.79676,110.934426 L3425.74404,111.622951 L3425.05981,102.672131 L3418.90167,103.360656 L3419.58591,111.622951 L3416.16472,111.622951 L3416.16472,103.360656 L3407.95388,103.360656 L3408.63811,111.622951 L3405.21693,111.622951 L3405.90117,103.360656 L3397.69032,104.04918 L3399.05879,112.311475 L3395.63761,112.311475 L3394.95337,104.04918 L3387.42676,104.04918 L3388.111,112.311475 L3384.68981,112.311475 L3384.68981,104.737705 L3375.79473,105.42623 L3375.79473,113 L3373.05778,113.688525 L3372.37354,105.42623 L3362.79422,105.42623 L3362.79422,113.688525 C3362.79422,113.688525 3358.6888,113.688525 3359.37304,113.688525 C3360.05727,113.688525 3360.05727,105.42623 3360.05727,105.42623 L3349.79372,106.114754 L3350.47795,113.688525 L3347.741,114.377049 L3346.37253,106.114754 L3338.16168,106.114754 L3338.84592,115.065574 L3336.10897,115.065574 L3336.10897,106.803279 L3326.52965,106.803279 L3327.21389,115.065574 L3324.47694,115.754098 L3324.47694,106.803279 L3317.63457,106.803279 L3317.63457,115.754098 L3313.52914,115.754098 L3314.89762,107.491803 L3305.3183,107.491803 L3306.00253,115.754098 L3303.94982,116.442623 L3303.26559,108.180328 L3295.05474,108.180328 L3296.42321,116.442623 L3293.00203,116.442623 L3292.31779,107.491803 L3286.15966,108.180328 L3287.52813,115.754098 C3287.52813,115.754098 3283.42271,117.131148 3284.10694,116.442623 C3284.79118,115.754098 3284.10694,109.557377 3284.10694,109.557377 C3284.10694,109.557377 3278.63305,110.245902 3278.63305,109.557377 C3278.63305,108.868852 3278.63305,117.131148 3278.63305,117.131148 L3275.21186,117.131148 L3273.84339,109.557377 L3267.00101,110.245902 L3267.00101,117.819672 L3264.26406,117.819672 L3263.57983,110.245902 L3256.05322,109.557377 L3256.73746,117.819672 L3253.31627,118.508197 L3252.63203,110.245902 L3244.42119,110.245902 L3244.42119,118.508197 L3241.68424,119.196721 L3241,110.245902 L3231.42068,111.622951 L3231.42068,119.196721 L3228.68373,119.196721 L3228.68373,111.622951 L3221.84136,111.622951 L3223.20983,119.196721 L3221.15712,119.885246 L3217.73594,111.622951 L3208.84085,111.622951 L3209.52509,120.57377 L3205.41967,119.885246 L3206.1039,112.311475 L3195.15611,112.311475 L3195.84034,120.57377 L3192.41916,121.262295 L3192.41916,113 L3184.89255,113 L3185.57679,121.95082 L3182.1556,121.95082 L3181.47136,113.688525 L3174.62899,113.688525 L3173.94475,121.95082 L3170.52357,122.639344 L3169.83933,114.377049 L3160.26001,114.377049 L3160.94425,123.327869 L3157.52306,122.639344 L3156.15459,114.377049 L3147.2595,114.377049 L3147.2595,123.327869 L3143.83832,123.327869 L3143.83832,115.065574 L3134.94323,115.754098 L3135.62747,124.016393 L3133.57476,124.016393 L3131.52205,115.065574 L3122.62696,115.754098 L3122.62696,124.704918 L3119.89002,124.016393 L3119.89002,115.754098 L3110.99493,115.754098 L3110.99493,124.704918 L3107.57375,124.704918 L3108.25798,115.754098 L3098.67866,115.754098 L3098.67866,124.704918 L3096.62595,124.704918 L3095.25748,116.442623 L3087.73087,117.131148 L3087.04663,124.704918 L3084.30968,124.704918 L3083.62544,117.131148 L3075.4146,117.131148 L3074.73036,124.704918 L3072.67765,124.704918 L3071.99341,117.131148 L3065.83528,117.819672 L3065.15104,126.081967 L3061.72985,126.081967 L3061.72985,117.819672 L3054.88748,117.819672 L3054.88748,126.081967 L3052.15053,126.081967 C3052.15053,126.081967 3051.46629,117.819672 3050.78206,117.819672 C3050.09782,117.819672 3043.25545,117.819672 3043.25545,117.819672 L3043.25545,126.081967 L3040.5185,126.770492 L3039.15003,117.819672 L3030.93918,117.819672 L3030.93918,126.081967 L3028.20223,126.081967 L3028.20223,117.819672 L3019.99138,117.819672 L3019.99138,126.770492 L3016.5702,126.081967 L3017.25443,117.819672 L3009.72783,117.819672 L3010.41206,126.081967" id="Shape"></path>
            <polyline id="Shape" points="3011.0963 125.87541 3007.67511 126.15082 3007.12772 118.577049 2999.53269 118.508197 2999.46427 126.770492 2996.04308 127.045902 2994.74303 118.852459 2987.96908 119.403279 2988.5849 127.596721 2985.84795 127.803279 2985.16371 118.921311 2977.02129 120.229508 2977.6371 128.491803 2974.90015 128.698361 2973.53168 119.816393 2964.70502 120.504918 2965.38925 129.386885 2961.89965 128.97377 2962.58388 119.954098 2953.75722 121.331148 2955.1257 130.213115 2951.02027 130.488525 2951.02027 120.84918 2940.68829 120.918033 2942.12519 130.488525 2937.26711 130.213115 2937.26711 121.193443 2927.75621 121.95082 2928.44045 130.901639 2925.7035 131.108197 2925.01926 122.157377 2917.49265 122.019672 2917.49265 131.039344 2914.7557 131.245902 2914.7557 122.22623 2906.47643 122.22623 2906.47643 131.177049 2903.73948 131.383607 2903.05525 122.432787 2893.47592 122.501639 2892.79169 131.521311 2888.61784 131.177049 2889.3705 122.845902 2879.72276 122.157377 2879.10694 131.934426 2875.54891 130.763934 2876.36999 123.121311 2867.47491 123.121311 2867.47491 132.140984 2863.30106 131.727869 2863.9853 122.708197 2853.10593 123.534426 2852.35327 132.554098 2848.93208 132.140984 2850.30056 123.052459 2840.037 123.190164 2839.35276 132.209836 2835.17892 131.865574 2837.23163 122.708197 2827.65231 122.777049"></polyline>
            <path d="M2827.72073,122.639344 L2827.03649,132.278689 L2824.29954,132.278689 L2823.61531,123.327869 L2816.0887,123.327869 L2816.0887,132.278689 L2813.14648,132.416393 L2813.35175,124.016393 L2805.1409,124.016393 L2805.1409,132.967213 L2802.40395,132.278689 L2802.40395,124.016393 L2794.87734,124.016393 L2794.87734,132.967213 L2792.1404,132.967213 L2791.45616,124.016393 L2782.56107,124.016393 L2781.87684,132.485246 L2779.82413,124.016393 L2772.98175,124.704918 L2772.98175,132.967213 L2770.2448,124.704918 L2762.7182,124.704918 L2762.03396,132.967213 L2759.29701,124.704918 L2751.7704,124.704918 L2750.40193,132.967213 L2747.66498,132.967213 L2748.34921,124.016393 L2740.13837,124.704918 L2740.13837,132.967213 L2738.08566,133.655738 L2738.08566,124.704918 L2731.92752,124.704918 L2731.92752,132.967213 L2729.73796,132.760656 L2729.87481,124.704918 L2723.03244,124.704918 L2723.03244,132.967213 L2721.185,132.829508 L2720.97973,124.016393 L2712.76888,124.704918 L2712.76888,132.967213 L2710.37405,132.622951 L2710.71617,124.704918 L2703.18956,124.704918 L2703.18956,132.967213 L2701.13685,124.704918 L2694.29448,124.704918 L2694.15763,132.967213 L2691.55753,124.704918 L2684.03092,124.704918 L2683.34668,132.967213 L2681.29397,124.704918 L2672.39888,124.704918 L2671.71465,132.967213 L2670.1409,132.760656 L2671.03041,124.704918 L2664.18804,124.704918 L2663.84592,132.829508 L2661.45109,132.691803 L2660.76685,124.636066 L2653.92448,125.32459 L2654.60872,133.586885 L2651.18753,133.586885 L2650.50329,125.32459 L2644.34516,125.32459 L2643.66092,133.586885 L2642.29245,124.636066 L2633.39736,124.636066 L2634.0816,133.586885 L2629.97618,124.636066 L2623.13381,124.636066 L2622.44957,133.586885 L2620.39686,132.898361 L2621.08109,124.636066 L2613.55449,124.636066 L2612.87025,133.586885 L2611.50177,132.898361 L2611.50177,123.947541 L2603.97516,124.636066 L2603.29093,133.586885 L2600.55398,133.586885 L2601.23822,124.636066 L2593.71161,124.636066 L2593.02737,133.586885 L2590.29042,133.586885 L2591.6589,124.636066 L2583.44805,124.636066 L2582.76381,132.898361 L2580.7111,133.586885 L2580.7111,124.636066 L2572.50025,124.636066 L2572.50025,132.898361 L2570.58439,132.347541 L2569.7633,124.636066 L2563.60517,123.947541 L2562.92093,132.898361 L2560.73137,132.554098 L2560.86822,124.636066 L2552.65737,124.636066 L2552.79422,132.760656 L2549.92043,123.947541 L2542.39382,123.947541 L2542.73594,132.554098 L2541.02534,124.636066 L2532.8145,124.636066 L2532.13026,132.898361 L2531.44602,123.947541 L2523.23517,124.636066 L2522.55094,132.898361 L2520.49823,124.636066 L2512.28738,123.947541 L2512.97162,132.898361 L2510.23467,123.947541 L2502.02382,123.947541 L2502.02382,132.898361 L2499.28687,123.947541 L2491.07603,123.947541 L2490.39179,132.898361 L2489.02331,123.947541 L2481.49671,123.947541 L2481.49671,132.209836 L2479.44399,123.947541 L2471.91738,123.947541 L2471.23315,132.898361 L2469.18044,132.209836 L2469.18044,123.947541 L2461.65383,123.947541 L2461.65383,133.586885 L2458.91688,132.898361 L2458.91688,123.947541 L2450.70603,123.947541 L2450.70603,132.209836 L2448.85859,132.003279 L2448.65332,123.259016 L2441.12671,123.259016 L2440.44247,132.209836 L2439.074,131.865574 L2438.38976,122.570492 L2429.49468,123.259016 L2428.81044,132.209836 L2426.75773,122.570492 L2417.17841,123.259016 L2416.49417,132.209836 L2415.80993,123.947541 L2408.96756,123.259016 L2407.59909,132.209836 L2405.54638,123.259016 L2397.33553,123.259016 L2395.96706,132.209836 L2393.91434,123.259016 L2385.01926,123.259016 L2384.33502,131.521311 L2382.28231,123.259016 L2374.07146,122.570492 L2373.38723,131.521311 L2371.33452,122.570492 L2363.12367,122.570492 L2362.43943,131.521311 C2360.38672,130.832787 2361.7552,121.881967 2361.7552,121.881967 L2353.54435,121.881967 L2352.86011,131.521311 L2350.8074,121.881967 L2343.28079,121.881967 L2343.28079,131.521311 L2341.22808,122.570492 L2332.333,121.881967 L2332.19615,130.695082 L2330.8961,121.881967 C2330.8961,121.881967 2323.36949,121.193443 2323.36949,121.881967 C2323.36949,122.570492 2322.68525,130.832787 2322.68525,130.832787 L2319.9483,130.832787 L2319.9483,121.881967 L2312.42169,121.881967 L2311.73746,130.832787 L2309.68474,121.193443 L2300.78966,121.881967 L2300.10542,130.832787 L2298.73695,121.881967 L2288.47339,121.193443 L2287.78915,130.144262 L2285.73644,130.832787 L2286.42068,121.193443 L2278.20983,120.504918 L2277.5256,130.144262 L2275.60973,129.593443 L2275.47288,121.193443 L2267.26204,120.504918 L2266.5778,130.144262 L2264.52509,120.504918 L2256.99848,120.504918 L2257.68272,130.144262 L2255.63001,120.504918 L2247.41916,119.816393 L2247.41916,129.455738 L2245.36645,120.504918 L2237.83984,120.504918 L2237.1556,130.144262 L2235.10289,129.455738 L2235.10289,119.816393 L2226.89204,119.816393 L2227.23416,128.97377 L2224.15509,128.767213 L2224.15509,119.816393 L2216.62848,119.816393 L2216.62848,128.767213 L2214.57577,119.816393 L2207.04916,119.127869 L2207.04916,129.455738 L2204.99645,128.767213 L2204.99645,119.816393 L2197.46984,119.127869 L2198.15408,128.767213 L2195.41713,119.127869 L2186.52205,119.127869 L2185.83781,128.767213 L2185.15357,119.127869 L2177.62696,118.439344 L2177.62696,128.078689 L2175.4374,127.940984 L2174.89002,117.75082 L2166.67917,118.439344 L2166.67917,128.078689 L2164.28434,127.596721 L2165.31069,118.439344 C2165.31069,118.439344 2156.41561,117.75082 2157.09985,118.439344 C2157.78409,119.127869 2156.41561,128.078689 2156.41561,128.078689 L2153.67866,117.75082 L2142.73087,117.75082 L2142.04663,128.078689 C2139.99392,127.390164 2139.99392,117.75082 2139.99392,117.75082 L2131.78307,117.75082 L2131.78307,127.390164 L2129.18297,126.908197 L2130.4146,117.75082 L2122.88799,117.062295 L2122.88799,126.701639 L2119.4668,126.701639 L2118.78256,117.062295 L2109.88748,117.062295 L2109.88748,127.390164 L2107.15053,126.701639 L2107.15053,117.062295 L2099.62392,116.37377 L2098.93969,126.701639 L2095.5185,126.701639 L2096.20274,115.685246 L2086.62342,115.685246 L2085.93918,126.701639 L2083.20223,117.062295 L2077.0441,116.37377 L2076.35986,126.013115 L2073.62291,126.013115 L2073.62291,115.685246 L2064.72783,115.685246 L2063.35935,126.013115 L2060.6224,126.013115 C2060.6224,126.013115 2061.99088,117.062295 2061.99088,116.37377 C2061.99088,115.685246 2051.72732,115.685246 2051.72732,115.685246 L2051.04308,126.013115 L2048.99037,125.32459 L2048.99037,116.37377 L2040.09529,115.685246 L2039.41105,125.32459 L2037.35834,115.685246 L2028.46325,114.996721 L2028.46325,124.636066 L2026.20527,124.085246" id="Shape"></path>
            <path d="M1224.40002,101.193443 L1225.30005,109.832787 L1227.70046,109.901639 L1228.40002,100.95082 L1236.185,101.157377 L1235.9113,110.108197 L1238.85352,110.314754 L1238.85352,101.914754 L1247.06437,102.121311 L1246.79067,111.072131 L1249.52762,110.452459 L1249.73289,102.190164 L1257.2595,102.396721 L1256.98581,111.347541 L1259.72276,111.416393 L1260.68069,102.465574 L1269.57577,102.740984 L1270.05474,111.278689 L1272.10745,111.347541 L1272.31272,102.878689 L1279.15509,103.77377 L1278.94982,112.036066 L1281.00253,112.104918 L1281.89204,103.842623 L1289.41865,104.04918 L1289.89762,112.311475 L1291.95033,112.380328 L1292.83984,104.118033 L1300.36645,104.32459 L1301.52965,112.655738 L1304.2666,112.72459 L1303.85606,103.77377 L1312.0669,104.668852 L1311.86163,112.931148 L1313.91434,113.688525 L1314.18804,104.737705 L1320.34617,104.944262 L1320.1409,113.206557 L1322.33046,113.068852 L1322.46731,105.013115 L1329.30968,105.219672 L1329.10441,113.481967 L1330.95185,113.413115 L1331.43082,104.6 L1339.64166,105.495082 L1339.43639,113.757377 L1341.83122,113.481967 L1341.69437,105.563934 L1349.22098,105.770492 L1349.01571,114.032787 L1351.06842,114.101639 L1351.27369,105.839344 L1358.11607,106.045902 L1357.97922,114.308197 L1360.37405,114.377049 L1360.85302,106.114754 L1368.37962,106.321311 L1368.85859,114.583607 L1370.9113,114.652459 L1371.11657,106.390164 L1380.01166,106.665574 L1380.49062,114.927869 L1382.06437,114.721311 L1381.38013,106.665574 L1388.2225,106.872131 L1388.35935,114.996721 L1390.75418,114.927869 L1391.64369,106.940984 L1398.48606,107.836066 L1397.59655,116.098361 L1401.01774,116.167213 L1401.90725,107.904918 L1408.06538,108.111475 L1408.54435,116.37377 L1409.91282,116.442623 L1410.18652,107.491803 L1419.0816,107.767213 L1418.12367,116.718033 L1420.17638,116.786885 L1422.50279,107.904918 L1429.34516,108.111475 L1429.7557,117.062295 L1431.80841,116.442623 L1431.32945,108.180328 L1438.85606,108.386885 L1439.2666,117.337705 L1440.63507,116.718033 L1440.90877,107.767213 L1448.43538,108.662295 L1448.84592,117.613115 L1451.58287,117.681967 L1451.17233,108.731148 L1458.69894,108.937705 L1459.10948,117.888525 L1461.84643,117.957377 L1460.75165,108.937705 L1468.96249,109.144262 L1469.44146,117.406557 L1471.49417,118.163934 L1471.76787,109.213115 L1479.97871,109.419672 L1479.77344,117.681967 L1481.75773,117.131148 L1482.78409,109.488525 L1488.94222,109.006557 L1489.35276,117.957377 L1491.54232,117.681967 L1491.67917,109.763934 L1499.89002,109.970492 L1499.5479,118.095082 L1501.39534,118.163934 L1502.69539,109.35082 L1510.222,109.557377 L1509.60618,118.163934 L1511.31678,118.232787 L1511.52205,110.314754 L1519.73289,110.521311 L1520.21186,118.783607 L1521.58033,118.852459 L1521.16979,109.901639 L1529.38064,110.796721 L1529.8596,119.059016 L1531.91232,119.127869 L1532.11759,110.865574 L1540.32843,110.383607 L1539.3705,119.334426 L1541.42321,119.403279 L1542.38115,110.452459 L1550.59199,110.659016 L1550.3183,119.609836 L1552.37101,119.678689 L1553.32894,110.727869 L1561.53979,110.934426 L1561.95033,119.885246 L1564.00304,119.954098 L1563.5925,111.003279 L1571.11911,111.209836 L1570.91384,119.472131 L1572.96655,119.540984 L1573.17182,111.278689 L1580.69843,111.485246 L1581.10897,120.436066 L1583.16168,119.816393 L1583.36695,111.554098 L1590.89356,111.760656 L1590.61987,121.4 L1593.35682,120.780328 L1593.63051,111.829508 L1601.84136,112.036066 L1601.63609,120.298361 L1603.48353,120.091803 L1603.96249,111.347541 L1611.4891,111.554098 L1611.89965,120.504918 L1613.26812,120.229508 L1614.22605,110.934426 L1623.12114,111.898361 L1623.53168,120.84918 L1624.90015,120.918033 L1625.85808,111.278689 L1635.4374,112.242623 L1635.84795,121.193443 L1637.90066,121.262295 L1636.73746,112.931148 L1643.57983,112.44918 L1644.67461,121.468852 L1646.04308,121.537705 L1647.00101,112.586885 L1655.21186,112.793443 L1656.30664,121.813115 L1658.35935,121.881967 L1658.63305,112.931148 L1667.52813,113.206557 L1668.0071,121.468852 L1670.05981,121.537705 L1670.26508,113.27541 L1678.47592,112.793443 L1678.88647,121.744262 L1680.93918,121.813115 L1681.21287,112.862295 L1689.42372,113.068852 L1689.83426,122.019672 C1689.83426,122.019672 1691.88697,122.777049 1691.88697,122.088525 C1691.88697,121.4 1690.79219,112.380328 1690.79219,112.380328 L1699.00304,112.586885 L1699.41358,122.22623 L1700.78206,122.295082 L1701.73999,112.655738 L1709.2666,112.862295 L1708.9929,122.501639 L1711.04562,122.570492 L1711.31931,113.619672 L1720.21439,113.206557 L1720.07755,122.019672 L1722.26711,122.088525 L1721.58287,113.206557 C1721.58287,113.206557 1729.10948,112.72459 1729.10948,113.413115 C1729.10948,114.101639 1729.52002,122.363934 1729.52002,122.363934 L1732.25697,122.432787 L1732.53066,113.481967 L1740.05727,113.688525 L1740.46782,122.639344 L1742.52053,122.708197 L1742.79422,113.068852 L1751.68931,114.032787 L1752.09985,122.983607 L1753.46832,123.052459 L1753.74202,114.101639 L1764.00558,113.688525 L1764.41612,122.639344 L1766.46883,123.396721 L1766.05829,113.757377 L1774.26913,113.27541 L1774.67968,122.914754 L1776.66396,122.363934 L1777.00608,113.963934 L1785.21693,113.481967 L1785.62747,123.121311 L1787.68018,123.190164 L1787.95388,113.55082 L1795.48049,113.757377 L1794.52255,123.396721 L1796.57527,123.465574 L1796.84896,113.82623 L1805.05981,113.344262 L1804.78611,122.983607 L1806.83882,123.052459 L1807.11252,114.101639 L1814.63913,114.308197 L1815.04967,123.947541 L1817.10238,123.327869 L1817.37608,113.688525 L1825.58692,113.895082 L1824.97111,123.052459 L1828.05018,122.914754 L1828.32387,113.963934 L1835.85048,114.170492 L1835.57679,123.121311 L1837.6295,123.190164 L1837.90319,114.239344 L1845.4298,113.757377 L1845.15611,124.085246 L1847.20882,123.465574 L1847.48251,114.514754 L1855.00912,114.032787 L1854.05119,123.672131 L1856.1039,123.740984 L1857.06183,114.101639 L1865.95692,114.377049 L1866.36746,124.016393 L1867.73594,124.085246 L1867.32539,114.445902 L1874.852,113.963934 L1874.57831,123.603279 L1876.76787,123.534426 L1877.65737,113.344262 L1885.86822,114.239344 L1885.59453,123.878689 L1887.98936,123.465574 L1887.2367,114.239344 C1887.2367,114.239344 1896.13178,113.82623 1895.44754,114.445902 C1894.7633,115.134426 1895.85808,124.085246 1895.85808,124.085246 L1897.9108,124.154098 L1898.86873,113.82623 L1909.81652,114.170492 L1910.22707,124.498361 C1910.22707,124.498361 1912.27978,125.255738 1912.27978,124.567213 C1912.27978,123.878689 1912.55347,114.239344 1912.55347,114.239344 L1920.76432,114.445902 L1920.49062,124.085246 L1923.15915,123.672131 L1922.13279,114.445902 L1929.6594,113.963934 L1929.38571,123.603279 L1932.80689,123.672131 L1933.76483,114.032787 L1942.65991,114.308197 L1942.38621,124.636066 L1945.12316,124.016393 L1945.39686,114.377049 L1952.92347,113.895082 L1953.33401,124.222951 L1956.7552,124.291803 L1956.41308,113.27541 L1965.9924,113.55082 L1966.33452,124.567213 L1968.38723,124.636066 L1969.34516,114.996721 L1975.50329,114.514754 L1975.91384,124.154098 L1978.65079,124.222951 L1978.92448,113.895082 L1987.81956,114.170492 L1988.91434,124.567213 L1991.65129,124.636066 C1991.65129,124.636066 1990.55651,115.616393 1990.55651,114.927869 C1990.55651,114.239344 2000.82007,114.514754 2000.82007,114.514754 L2001.23061,124.842623 L2003.28332,124.222951 L2003.55702,115.272131 L2012.4521,114.859016 L2012.86265,124.498361 L2014.91536,124.567213 L2015.18905,114.927869 L2024.08414,114.514754 L2023.81044,124.154098 L2026.13685,123.672131" id="Shape"></path>
            <path d="M3853.65769,144.342857 C3853.65769,144.342857 3759.86371,152.571429 3601.03011,149.142857 C3481.08336,146.537143 3290.89382,152.571429 2990.34231,167.657143" id="Shape"></path>
            <path d="M1228.34223,148.344828 C1246.13844,151.103448 1603.08925,158.413793 1603.08925,158.413793 L2202,167.655172" id="Shape"></path>
            <path d="M1230.51546,100.642623 L1229.83122,110.281967 L1227.09427,110.281967 L1226.41004,101.331148 L1218.88343,101.331148 L1218.88343,110.281967 L1215.94121,110.419672 L1216.14648,102.019672 L1207.93563,102.019672 L1207.93563,110.970492 L1205.19868,110.281967 L1205.19868,102.019672 L1197.67207,102.019672 L1197.67207,110.970492 L1194.93512,110.970492 L1194.25089,102.019672 L1185.3558,102.019672 L1184.67157,110.488525 L1182.61885,102.019672 L1175.77648,102.708197 L1175.77648,110.970492 L1173.03953,102.708197 L1165.51292,102.708197 L1164.82869,110.970492 L1162.09174,102.708197 L1154.56513,102.708197 L1153.19665,110.970492 L1150.45971,110.970492 L1151.14394,102.019672 L1142.9331,102.708197 L1142.9331,110.970492 L1140.88039,111.659016 L1140.88039,102.708197 L1134.72225,102.708197 L1134.72225,110.970492 L1132.53269,110.763934 L1132.66954,102.708197 L1125.82717,102.708197 L1125.82717,110.970492 L1123.97973,110.832787 L1123.77446,102.019672 L1115.56361,102.708197 L1115.56361,110.970492 L1113.16878,110.62623 L1113.5109,102.708197 L1105.98429,102.708197 L1105.98429,110.970492 L1103.93158,102.708197 L1097.0892,102.708197 L1096.95236,110.970492 L1094.35226,102.708197 L1086.82565,102.708197 L1086.14141,110.970492 L1084.0887,102.708197 L1075.19361,102.708197 L1074.50938,110.970492 L1072.93563,110.763934 L1073.82514,102.708197 L1066.98277,102.708197 L1066.64065,110.832787 L1064.24582,110.695082 L1063.56158,102.639344 L1056.71921,103.327869 L1057.40345,111.590164 L1053.98226,111.590164 L1053.29802,103.327869 L1047.13989,103.327869 L1046.45565,111.590164 L1045.08718,102.639344 L1036.19209,102.639344 L1036.87633,111.590164 L1032.77091,102.639344 L1025.92854,102.639344 L1025.2443,111.590164 L1023.19159,110.901639 L1023.87582,102.639344 L1016.34921,102.639344 L1015.66498,111.590164 L1014.2965,110.901639 L1014.2965,101.95082 L1006.76989,102.639344 L1006.08566,111.590164 L1003.34871,111.590164 L1004.03294,102.639344 L996.506336,102.639344 L995.822098,111.590164 L993.08515,111.590164 L994.453624,102.639344 L986.242777,102.639344 L985.55854,110.901639 L983.505829,111.590164 L983.505829,102.639344 L975.294982,102.639344 L975.294982,110.901639 L973.379118,110.35082 L972.558033,102.639344 L966.399899,101.95082 L965.715661,110.901639 L963.526102,110.557377 L963.66295,102.639344 L955.452103,102.639344 L955.588951,110.763934 L952.715155,101.95082 L945.188545,101.95082 L945.530664,110.557377 L943.820071,102.639344 L935.609225,102.639344 L934.924987,110.901639 L934.24075,101.95082 L926.029904,102.639344 L925.345666,110.901639 L923.292955,102.639344 L915.082108,101.95082 L915.766346,110.901639 L913.029397,101.95082 L904.81855,101.95082 L904.81855,110.901639 L902.081602,101.95082 L893.870755,101.95082 L893.186518,110.901639 L891.818044,101.95082 L884.291434,101.95082 L884.291434,110.213115 L882.238723,101.95082 L874.712114,101.95082 L874.027876,110.901639 L871.975165,110.213115 L871.975165,101.95082 L864.448555,101.95082 L864.448555,111.590164 L861.711607,110.901639 L861.711607,101.95082 L853.50076,101.95082 L853.50076,110.213115 L851.65332,110.006557 L851.448049,101.262295 L843.921439,101.262295 L843.237202,110.213115 L841.868728,109.868852 L841.184491,100.57377 L832.289407,101.262295 L831.60517,110.213115 L829.552458,100.57377 L819.973137,101.262295 L819.2889,110.213115 L818.604663,101.95082 L811.762291,101.262295 L810.393817,110.213115 L808.341105,101.262295 L800.130258,101.262295 L798.761784,110.213115 L796.709072,101.262295 L787.813989,101.262295 L787.129752,109.52459 L785.07704,101.262295 L776.866194,100.57377 L776.181956,109.52459 L774.129245,100.57377 L765.918398,100.57377 L765.234161,109.52459 C763.18145,108.836066 764.549924,99.8852459 764.549924,99.8852459 L756.339078,99.8852459 L755.65484,109.52459 L753.602129,99.8852459 L746.07552,99.8852459 L746.07552,109.52459 L744.022808,100.57377 L735.127724,99.8852459 L734.990877,108.698361 L733.690826,99.8852459 C733.690826,99.8852459 726.164217,99.1967213 726.164217,99.8852459 C726.164217,100.57377 725.47998,108.836066 725.47998,108.836066 L722.743031,108.836066 L722.743031,99.8852459 L715.216422,99.8852459 L714.532184,108.836066 L712.479473,99.1967213 L703.584389,99.8852459 L702.900152,108.836066 L701.531678,99.8852459 L691.26812,99.1967213 L690.583882,108.147541 L688.531171,108.836066 L689.215408,99.1967213 L681.004562,98.5081967 L680.320324,108.147541 L678.40446,107.596721 L678.267613,99.1967213 L670.056766,98.5081967 L669.372529,108.147541 L667.319818,98.5081967 L659.793208,98.5081967 L660.477446,108.147541 L658.424734,98.5081967 L650.213887,97.8196721 L650.213887,107.459016 L648.161176,98.5081967 L640.634567,98.5081967 L639.950329,108.147541 L637.897618,107.459016 L637.897618,97.8196721 L629.686771,97.8196721 L630.02889,106.977049 L626.949823,106.770492 L626.949823,97.8196721 L619.423213,97.8196721 L619.423213,106.770492 L617.370502,97.8196721 L609.843893,97.1311475 L609.843893,107.459016 L607.791181,106.770492 L607.791181,97.8196721 L600.264572,97.1311475 L600.948809,106.770492 L598.21186,97.1311475 L589.316776,97.1311475 L588.632539,106.770492 L587.948302,97.1311475 L580.421693,96.442623 L580.421693,106.081967 L578.232134,105.944262 L577.684744,95.7540984 L569.473898,96.442623 L569.473898,106.081967 L567.079067,105.6 L568.105423,96.442623 C568.105423,96.442623 559.21034,95.7540984 559.894577,96.442623 C560.578814,97.1311475 559.21034,106.081967 559.21034,106.081967 L556.473391,95.7540984 L545.525596,95.7540984 L544.841358,106.081967 C542.788647,105.393443 542.788647,95.7540984 542.788647,95.7540984 L534.5778,95.7540984 L534.5778,105.393443 L531.977699,104.911475 L533.209326,95.7540984 L525.682717,95.0655738 L525.682717,104.704918 L522.261531,104.704918 L521.577293,95.0655738 L512.68221,95.0655738 L512.68221,105.393443 L509.945261,104.704918 L509.945261,95.0655738 L502.418652,94.3770492 L501.734415,104.704918 L498.313229,104.704918 L498.997466,93.6885246 L489.418145,93.6885246 L488.733908,104.704918 L485.996959,95.0655738 L479.838824,94.3770492 L479.154587,104.016393 L476.417638,104.016393 L476.417638,93.6885246 L467.522554,93.6885246 L466.15408,104.016393 L463.417131,104.016393 C463.417131,104.016393 464.785606,95.0655738 464.785606,94.3770492 C464.785606,93.6885246 454.522048,93.6885246 454.522048,93.6885246 L453.83781,104.016393 L451.785099,103.327869 L451.785099,94.3770492 L442.890015,93.6885246 L442.205778,103.327869 L440.153066,93.6885246 L431.257983,93 L431.257983,102.639344 L429,102.088525 L429,92 L422.400024,90.8500061" id="Shape"></path>
            <polyline id="Shape" points="0 78 0.410542321 87.6393443 3.14749113 87.7081967 4.10542321 78.757377 11.6320324 78.9639344 11.3583376 87.9147541 14.3005575 88.1213115 14.3005575 79.7213115 22.511404 79.9278689 22.2377091 88.8786885 24.9746579 88.2590164 25.179929 79.9967213 32.7065383 80.2032787 32.4328434 89.1540984 35.1697922 89.2229508 36.1277243 80.2721311 45.0228079 80.547541 45.5017739 89.0852459 47.5544856 89.1540984 47.7597567 80.6852459 54.6021287 81.5803279 54.3968576 89.842623 56.4495692 89.9114754 57.3390775 81.6491803 64.8656868 81.8557377 65.3446528 90.1180328 67.3973644 90.1868852 68.2868728 81.9245902 75.813482 82.1311475 76.9766853 90.4622951 79.7136341 90.5311475 79.3030917 81.5803279 87.5139382 82.4754098 87.308667 90.7377049 89.3613786 91.495082 89.6350735 82.5442623 95.7932083 82.7508197 95.5879372 91.0131148 97.7774962 90.8754098 97.9143436 82.8196721 104.756716 83.0262295 104.551445 91.2885246 106.398885 91.2196721 106.877851 82.4065574 115.088697 83.3016393 114.883426 91.5639344 117.278256 91.2885246 117.141409 83.3704918 124.668018 83.5770492 124.462747 91.8393443 126.515459 91.9081967 126.72073 83.6459016 133.563102 83.852459 133.426254 92.1147541 135.821085 92.1836066 136.300051 83.9213115 143.82666 84.1278689 144.305626 92.3901639 146.358338 92.4590164 146.563609 84.1967213 155.458692 84.4721311 155.937658 92.7344262 157.511404 92.5278689 156.827167 84.4721311 163.669539 84.6786885 163.806386 92.8032787 166.201216 92.7344262 167.090725 84.747541 173.933097 85.642623 173.043588 93.904918 176.464774 93.9737705 177.354283 85.7114754 183.512418 85.9180328 183.991384 94.1803279 185.359858 94.2491803 185.633553 85.2983607 194.528637 85.5737705 193.570705 94.5245902 195.623416 94.5934426 197.949823 85.7114754 204.792195 85.9180328 205.202737 94.8688525 207.255449 94.2491803 206.776483 85.9868852 214.303092 86.1934426 214.713634 95.1442623 216.082108 94.5245902 216.355803 85.5737705 223.882413 86.4688525 224.292955 95.4196721 227.029904 95.4885246 226.619361 86.5377049 234.145971 86.7442623 234.556513 95.695082 237.293462 95.7639344 236.198682 86.7442623 244.409529 86.9508197 244.888495 95.2131148 246.941206 95.9704918 247.214901 87.0196721 255.425748 87.2262295 255.220476 95.4885246 257.204764 94.9377049 258.23112 87.295082 264.389255 86.8131148 264.799797 95.7639344 266.989356 95.4885246 267.126204 87.5704918 275.33705 87.7770492 274.994932 95.9016393 276.842372 95.9704918 278.142423 87.157377 285.669032 87.3639344 285.053218 95.9704918 286.763811 96.0393443 286.969083 88.1213115 295.179929 88.3278689 295.658895 96.5901639 297.027369 96.6590164 296.616827 87.7081967 304.827674 88.6032787 305.30664 96.8655738 307.359351 96.9344262 307.564622 88.6721311 315.775469 88.1901639 314.817537 97.1409836 316.870248 97.2098361 317.82818 88.2590164 326.039027 88.4655738 325.765332 97.4163934 327.818044 97.4852459 328.775976 88.5344262 336.986822 88.7409836 337.397364 97.6918033 339.450076 97.7606557 339.039534 88.8098361 346.566143 89.0163934 346.360872 97.2786885 348.413583 97.347541 348.618855 89.0852459 356.145464 89.2918033 356.556006 98.242623 358.608718 97.6229508 358.813989 89.3606557 366.340598 89.5672131 366.066903 99.2065574 368.803852 98.5868852 369.077547 89.6360656 377.288393 89.842623 377.083122 98.104918 378.930563 97.8983607 379.409529 89.1540984 386.936138 89.3606557 387.34668 98.3114754 388.715155 98.0360656 389.673087 88.7409836 398.56817 89.704918 398.978713 98.6557377 400.347187 98.7245902 401.305119 89.0852459 410.88444 90.0491803 411.294982 99 413.347694 99.0688525 412.184491 90.7377049 419.026863 90.2557377 420.121642 99.2754098 421.490117 99.3442623 422.448049 90.3934426"></polyline>
            <path d="M2,126 C13.9671233,128.758621 254.299988,129.070007 254.299988,129.070007" id="Shape"></path>
            <path d="M254,129 C271.796205,131.758621 628.747013,139.068966 628.747013,139.068966 L1228.30005,148.310345" id="Shape"></path>
        </g>
    </g>
</svg>