<?xml version="1.0" encoding="UTF-8"?>
<svg width="4000px" height="320px" viewBox="0 0 4000 320" version="1.1" xmlns="http://www.w3.org/2000/svg" xmlns:xlink="http://www.w3.org/1999/xlink">
    <!-- Generator: Sketch 52.5 (67469) - http://www.bohemiancoding.com/sketch -->
    <title>Kommunikasjon og Kultur</title>
    <desc>Created with Sketch.</desc>
    <g id="Kommunikasjon-og-Kultur" stroke="none" stroke-width="1" fill="none" fill-rule="evenodd">
        <g id="kom.og-kultur" transform="translate(3697.000000, 53.000000)">
            <path d="M266.2,174.3 C260.2,179.7 262.2,186.7 258.7,181.3 C255.2,175.9 259.5,169 252.6,167.8 C245.6,166.6 241.2,170.4 238,167.3 C234.8,164.2 228.7,157 228.2,165.2 C227.6,173.4 232.4,175 224.5,179.8 C216.6,184.6 220.8,184.9 218.6,191.6 C216.5,198.3 206.3,193.9 213,202.4 C219.7,210.9 215.7,220.1 229.9,218.4 C244.1,216.7 243.5,215.4 246.4,222.7 C249.3,229.9 242.4,231.9 245.6,241.4 C248.9,250.9 253,251.1 253,251.1" id="Path" stroke="#FFFFFF"></path>
            <path d="M171,267.6 C171.6,265.7 170.4,266.3 176,261.9 C181.6,257.4 186.7,251.7 176.5,250.5 C166.3,249.3 154.1,254.8 154.6,246.6 C155.2,238.4 166.2,236.7 153.8,232.7 C141.4,228.7 138.3,235.1 136.1,229.1 C133.8,223.1 141.1,223.4 130.9,219 C120.7,214.7 100.7,201.9 98.7,195 C96.7,188.1 105.8,179.4 97.6,182 C89.4,184.6 78.1,190.4 80.8,178.7 C83.5,167 83.7,156.5 98.7,165.6 C113.7,174.7 115.7,184.7 117.1,170.5 C118.5,156.3 130.9,153.9 138.3,143.7 C145.7,133.5 135.9,128.2 149.9,130.6 C151.7,130.9 152.7,129.5 154.3,129.9" id="Path" stroke="#FFFFFF"></path>
            <path d="M48.4,119.8 C48.4,119.8 59.9,126.6 54.6,136.5 C49.3,146.4 38.7,155.4 46,162 C53.3,168.6 65.4,171.5 65.5,181 C65.6,190.5 72.2,189.5 83,195.1 C93.8,200.7 109.1,208.8 104.1,217.7 C99.1,226.6 80.9,223.7 87,234.1 C93.1,244.5 96,266.1 96,266.1" id="Path" stroke="#FFFFFF"></path>
            <path d="M224.4,225.9 C220.5,226.7 221.9,233.5 221.4,238.6 C220.9,243.7 228.1,243.9 229.9,238.2 C231.7,232.5 232.3,224.2 224.4,225.9 Z" id="Path" stroke="#FFFFFF"></path>
            <path d="M123.3,73.8 C80,81 42.3,111.1 28,155.3 C22.3,173 22.1,191 23.4,208.4 C24.4,221.6 31.9,252 46.9,265" id="Path" stroke="#FFFFFF"></path>
            <path d="M242.6,266.1 C250.6,255.6 257,243.7 261.2,230.4 C273.7,191.7 265.2,151.1 242,120.7" id="Path" stroke="#FFFFFF"></path>
            <rect id="Rectangle" transform="translate(11.160940, 250.112380) rotate(-72.133968) translate(-11.160940, -250.112380) " x="-21.339864" y="249.612368" width="65.0016081" height="1.00002474"></rect>
            <path d="M21.6,219.4 L1.7,281.3 L222.5,352.5 L242.4,290.6 L224.7,284.9 C193.6,311.1 150.8,297.9 107.7,307.6" id="Path"></path>
            <path d="M264.7,87.1 L292.3,97.7 C292.3,97.7 288.7,110.6 286.9,112.1 C285.1,113.6 258,103.7 258,103.7" id="Path" stroke="#FFFFFF"></path>
            <path d="M286.9,112.1 C286.9,112.1 291.5,117.6 296.6,120.8 C301.7,124 300,124 300,124" id="Path" stroke="#FFFFFF"></path>
            <path d="M292.3,97.8 C292.3,97.8 299,98.4 301.3,99 C303.6,99.6 303,100.1 303,100.1" id="Path" stroke="#FFFFFF"></path>
            <path d="M176.9,11 C175.9,11.2 121,33.9 133.7,83.4 C146.4,132.9 194.9,134.7 211.2,129.8 C227.6,124.9 265.1,103 254.2,56.3 C243.3,9.7 199.7,5.7 176.9,11 Z" id="Path" stroke="#FFFFFF"></path>
            <path d="M181.1,1.2 C169.7,3.9 108.4,26.9 125.3,85.3 C142.2,143.7 188.2,143.9 211.8,137.3 C235.4,130.7 276.4,104.7 263.8,50.8 C251.2,-3.1 188.4,-0.5 181.1,1.2 Z" id="Path" stroke="#FFFFFF"></path>
            <path d="M143.5,74.7 C143.5,74.7 145.2,72.6 146.9,70.5 C148.6,68.4 152.5,66.3 152.6,64.6 C152.7,62.9 154.7,61.9 154.3,60.3 C153.9,58.7 155.8,57.7 153.8,56 C151.8,54.3 150.6,54.1 150.9,51.2 C151.3,48.3 152.6,46.9 153.7,47.2 C154.8,47.5 156.6,47.6 156.6,47.6" id="Path" stroke="#FFFFFF"></path>
            <path d="M154.7,47.6 C154.6,47.1 157.7,50.7 157.4,51.9 C157.1,53.1 156.1,55.5 156.1,55.5 C156.1,55.5 160.5,59.9 162,61.2 C163.4,62.5 168.9,64.4 170.1,64.7 C171.3,65 172,65.9 172.6,65.7" id="Path" stroke="#FFFFFF"></path>
            <path d="M152.8,63.1 C152.8,63.1 156.1,66 156,67.7 C155.9,69.4 157.7,74.4 157.6,76.1 C157.5,77.8 156.3,81.9 156.3,84.1 C156.3,86.3 157.2,89.9 157.4,92.7 C157.5,95.4 156.6,96.2 155.3,97.6 C154,99 155.8,99.7 156.2,99 C156.6,98.4 156.8,97.2 157.1,96" id="Path" stroke="#FFFFFF"></path>
            <path d="M158.4,57.7 C158.4,57.7 161.3,62.5 161.4,65.2 C161.5,67.9 163,71.4 164.2,73.9 C165.4,76.4 164.2,78.3 165.8,80.1 C167.4,81.9 170,87.9 171.4,89.2 C172.8,90.5 175.6,90.3 176.7,90.6 C177.9,90.9 179.8,92 177.6,92 C175.4,92 174.1,93.4 173.2,92" id="Path" stroke="#FFFFFF"></path>
            <path d="M164.6,77.6 C164.5,77.1 164.1,77.7 162.5,75.9 C160.9,74.1 160,72.7 159.3,74 C158.5,75.3 157.1,78.4 157.1,78.4" id="Path" stroke="#FFFFFF"></path>
            <path d="M177.2,65 C177.2,65 179.3,63.3 181.5,61.7 C183.7,60.1 188,58.9 188.5,57.2 C189,55.6 191.2,55 191.1,53.4 C191.1,51.8 193.2,51.2 191.6,49.1 C189.9,47 188.8,46.5 189.9,43.7 C191,40.9 192.5,39.9 193.6,40.4 C194.7,40.9 196.3,41.4 196.3,41.4" id="Path" stroke="#FFFFFF"></path>
            <path d="M194.7,40.8 C194.7,40.3 197,44.5 196.4,45.6 C195.9,46.7 194.3,48.9 194.3,48.9 C194.3,48.9 197.7,54.2 198.8,55.8 C199.9,57.4 204.9,60.5 206,61.1 C207.1,61.6 207.7,62.7 208.2,62.7" id="Path" stroke="#FFFFFF"></path>
            <path d="M189.1,55.7 C189.1,55.7 191.8,59.3 191.3,60.9 C190.8,62.5 191.5,67.9 190.9,69.6 C190.4,71.2 188.3,75.1 187.8,77.2 C187.3,79.4 187.4,83.2 186.9,85.9 C186.4,88.6 185.3,89.2 183.7,90.3 C182.1,91.4 183.7,92.5 184.3,91.9 C184.9,91.3 185.4,90.3 185.9,89.2" id="Path" stroke="#FFFFFF"></path>
            <path d="M196,51.6 C196,51.6 197.7,57 197.3,59.7 C196.8,62.4 197.4,66.2 198,68.9 C198.6,71.6 197,73.3 198.1,75.4 C199.2,77.5 200.5,84 201.6,85.6 C202.7,87.2 205.5,87.7 206.6,88.2 C207.7,88.7 209.4,90.3 207.2,89.8 C205,89.3 203.4,90.4 202.8,88.8" id="Path" stroke="#FFFFFF"></path>
            <path d="M197.5,72.7 C197.5,72.2 197,72.7 195.8,70.6 C194.7,68.5 194.1,66.8 193,68 C191.9,69.1 189.8,71.9 189.8,71.9" id="Path" stroke="#FFFFFF"></path>
            <path d="M211,64 C211,64 213.4,62.7 215.7,61.3 C218.1,60 222.5,59.4 223.3,57.9 C224,56.4 226.3,56.1 226.5,54.5 C226.7,52.9 228.9,52.6 227.6,50.3 C226.2,47.9 225.2,47.3 226.7,44.7 C228.1,42.1 229.9,41.3 230.9,42 C231.9,42.7 233.5,43.4 233.5,43.4" id="Path" stroke="#FFFFFF"></path>
            <path d="M231.8,42.6 C231.9,42.1 233.5,46.6 232.8,47.6 C232.1,48.6 230.2,50.6 230.2,50.6 C230.2,50.6 232.8,56.4 233.6,58.1 C234.5,59.8 238.9,63.7 239.9,64.4 C240.9,65.1 241.3,66.2 241.9,66.3" id="Path" stroke="#FFFFFF"></path>
            <path d="M224.2,56.5 C224.2,56.5 226.3,60.4 225.6,62 C224.9,63.5 224.7,69 224,70.5 C223.3,72 220.6,75.5 219.8,77.6 C219,79.7 218.5,83.4 217.6,86.1 C216.7,88.7 215.6,89.1 213.8,90 C212,90.9 213.5,92.1 214.1,91.7 C214.7,91.2 215.4,90.2 216.1,89.2" id="Path" stroke="#FFFFFF"></path>
            <path d="M231.5,53.5 C231.5,53.5 232.4,59.1 231.6,61.7 C230.7,64.3 230.8,68.1 231,70.9 C231.2,73.7 229.4,75.1 230.2,77.3 C231,79.6 231.3,86.2 232.2,87.9 C233.1,89.6 235.7,90.5 236.7,91.2 C237.7,91.9 239.1,93.7 237,92.9 C234.9,92.1 233.2,93 232.8,91.3" id="Path" stroke="#FFFFFF"></path>
            <path d="M230,74.5 C230.1,74 229.5,74.4 228.6,72.1 C227.8,69.8 227.5,68.1 226.2,69.1 C225,70 222.5,72.5 222.5,72.5" id="Path" stroke="#FFFFFF"></path>
        </g>
    </g>
</svg>