<?xml version="1.0" encoding="UTF-8"?>
<svg width="4000px" height="320px" viewBox="0 0 4000 320" version="1.1" xmlns="http://www.w3.org/2000/svg" xmlns:xlink="http://www.w3.org/1999/xlink">
    <!-- Generator: Sketch 51.2 (57519) - http://www.bohemiancoding.com/sketch -->
    <title>Matematikk</title>
    <desc>Created with Sketch.</desc>
    <defs></defs>
    <g id="Matematikk" stroke="none" stroke-width="1" fill="none" fill-rule="evenodd">
        <g transform="translate(29.000000, 83.000000)" id="Shape" stroke="#FFFFFF">
            <path d="M1785.29862,159.679245 C1785.29862,159.679245 1820.75098,159.603774 1821.81379,159.301887 C1822.8766,158.924528 1859.31586,159.90566 1859.31586,159.90566 C1859.31586,159.90566 1891.35204,159.150943 1894.08499,159.150943 C1896.81793,159.150943 1927.86721,159.45283 1929.91692,159.754717 C1931.96663,160.056604 1990.87676,159.301887 1995.35576,159.603774 C1999.83475,159.90566 2052.51984,160.207547 2055.93602,160.207547 C2059.3522,160.207547 2080.38069,160.132075 2082.12674,160.132075 C2083.87279,160.132075 2100.72594,158.698113 2102.47199,159.377358 C2104.21804,160.056604 2126.613,159.679245 2129.34594,159.981132 C2132.07889,160.283019 2164.7983,159.603774 2167.91082,159.90566 C2171.02334,160.207547 2202.37629,160.509434 2204.72966,160.509434 C2207.15894,160.509434 2252.55618,159.075472 2256.73151,159.377358 C2260.90684,159.679245 2334.62042,159.301887 2334.62042,159.301887"></path>
            <path d="M1761.84085,197.339623 C1762.90366,196.962264 1805.94753,196.962264 1805.94753,196.962264 C1805.94753,196.962264 1842.46271,196.207547 1845.57523,196.584906 C1848.68775,196.886792 1895.52737,196.132075 1898.26032,196.811321 C1900.99326,197.490566 1918.90923,195.075472 1920.2757,195.754717 C1921.64218,196.433962 2012.58849,198.320755 2015.70101,197.943396 C2018.81353,197.566038 2167.91082,197.641509 2170.64377,197.641509 C2173.37671,197.641509 2215.73735,198.622642 2218.54621,198.924528 C2221.35507,199.226415 2331.5079,196.886792 2333.86127,197.566038"></path>
            <path d="M1225.57645,160.584906 C1225.57645,160.584906 1251.99491,159.603774 1252.9818,159.226415 C1254.04462,158.849057 1290.48387,159.830189 1290.48387,159.830189 C1290.48387,159.830189 1322.52005,159.075472 1325.253,159.075472 C1327.98594,159.075472 1359.03523,159.377358 1361.08493,159.679245 C1363.13464,159.981132 1422.04477,159.226415 1426.52377,159.528302 C1431.00276,159.830189 1483.68785,160.132075 1487.10403,160.132075 C1490.52021,160.132075 1511.5487,160.056604 1513.29475,160.056604 C1515.0408,160.056604 1531.89395,158.622642 1533.64,159.301887 C1535.38605,159.981132 1557.78101,159.603774 1560.51395,159.90566 C1563.2469,160.207547 1595.96631,159.528302 1599.07883,159.830189 C1602.19135,160.132075 1633.5443,160.433962 1635.89767,160.433962 C1638.32695,160.433962 1683.72419,159 1687.89952,159.301887 C1691.99894,159.603774 1785.83003,159.603774 1785.83003,159.603774"></path>
            <path d="M1222.46393,197.716981 C1223.52674,197.339623 1237.19146,196.962264 1237.19146,196.962264 C1237.19146,196.962264 1273.70663,196.207547 1276.81915,196.584906 C1279.93167,196.886792 1326.7713,196.132075 1329.50424,196.811321 C1332.23719,197.490566 1350.15316,195.075472 1351.51963,195.754717 C1352.8861,196.433962 1443.83241,198.320755 1446.94493,197.943396 C1450.05745,197.566038 1599.15475,197.641509 1601.88769,197.641509 C1604.62064,197.641509 1646.98127,198.622642 1649.79013,198.924528 C1652.59899,199.226415 1759.48748,196.433962 1761.84085,197.113208"></path>
            <path d="M1253.20955,160.283019 L1253.20955,172.660377"></path>
            <path d="M1288.66191,160.207547 L1288.66191,172.207547"></path>
            <path d="M1324.49385,159.45283 L1324.87342,171.830189"></path>
            <path d="M1361.00902,159.45283 L1362.07183,171.377358"></path>
            <path d="M1398.20743,159.679245 L1397.82785,171.301887"></path>
            <path d="M1435.02626,160.283019 C1435.02626,160.283019 1434.34302,170.54717 1434.34302,172.283019"></path>
            <path d="M1471.16186,159.90566 C1471.16186,159.90566 1470.47862,171.226415 1470.47862,172.584906"></path>
            <path d="M1506.99379,160.509434 C1506.99379,160.509434 1506.69013,171.150943 1506.69013,172.132075"></path>
            <path d="M1545.25501,159.754717 C1545.25501,162.849057 1545.25501,172.433962 1545.25501,172.433962"></path>
            <path d="M1581.39061,160.735849 C1581.39061,160.735849 1581.08695,170.320755 1581.08695,172.358491"></path>
            <path d="M1617.90578,160.660377 C1617.90578,160.660377 1618.58902,170.622642 1618.28536,171.603774"></path>
            <path d="M1654.72462,161.264151 C1654.72462,161.264151 1654.04138,170.849057 1654.04138,172.207547"></path>
            <path d="M1691.54345,160.509434 C1691.54345,160.509434 1691.23979,170.471698 1691.23979,171.830189"></path>
            <path d="M1245.31438,186.320755 L1245.69395,196.584906"></path>
            <path d="M1259.43459,187 C1259.81416,188.056604 1259.81416,195.226415 1259.81416,195.226415"></path>
            <path d="M1273.25114,187.301887 L1274.23804,195.528302"></path>
            <path d="M1288.73782,187.301887 L1288.73782,196.509434"></path>
            <path d="M1302.47846,187.603774 L1303.23761,195.830189"></path>
            <path d="M1316.29501,187.90566 L1315.91544,195.45283"></path>
            <path d="M1331.7817,187.528302 L1332.16127,195.754717"></path>
            <path d="M1344.8391,187.150943 L1345.21867,196.735849"></path>
            <path d="M1360.02212,186.773585 L1359.64255,195.377358"></path>
            <path d="M1374.44599,186.471698 L1374.82557,196.056604"></path>
            <path d="M1387.19973,187.075472 L1387.88297,195.679245"></path>
            <path d="M1402.68642,188.433962 C1402.68642,189.490566 1403.36966,196.283019 1403.36966,196.283019"></path>
            <path d="M1417.48987,187.377358 C1417.18621,190.09434 1417.48987,195.90566 1417.48987,195.90566"></path>
            <path d="M1431.30642,187.679245 L1430.92684,195.90566"></path>
            <path d="M1446.41353,187.981132 L1446.7931,196.207547"></path>
            <path d="M1458.86361,188.358491 L1459.92642,196.886792"></path>
            <path d="M1473.28748,186.622642 C1473.28748,187.981132 1473.97072,197.566038 1473.97072,197.566038"></path>
            <path d="M1488.77416,186.924528 C1489.15374,187.981132 1489.15374,196.509434 1489.15374,196.509434"></path>
            <path d="M1503.27395,187.226415 L1502.97029,195.754717"></path>
            <path d="M1516.02769,187.528302 C1516.71093,188.584906 1516.71093,196.433962 1516.71093,196.433962"></path>
            <path d="M1530.45156,187.150943 C1531.1348,189.188679 1531.1348,196.358491 1531.1348,196.358491"></path>
            <polyline points="1546.31782 187.528302 1546.31782 187.528302 1546.31782 197.113208"></polyline>
            <path d="M1559.7548,187.830189 C1559.37523,188.886792 1559.7548,197.415094 1559.7548,197.415094"></path>
            <path d="M1573.19178,187.754717 C1573.19178,189.113208 1573.19178,197.716981 1573.19178,197.716981"></path>
            <path d="M1587.61565,188.811321 L1588.67846,196.283019"></path>
            <path d="M1602.11544,188.056604 L1602.4191,196.660377"></path>
            <path d="M1616.91889,187.377358 C1616.91889,188.433962 1617.29846,196.584906 1617.29846,196.584906"></path>
            <path d="M1629.97629,188.735849 L1630.65952,197.943396"></path>
            <path d="M1644.77973,188.358491 L1644.77973,196.886792"></path>
            <path d="M1659.27952,187.981132 C1659.27952,189.716981 1659.6591,196.886792 1659.6591,196.886792"></path>
            <path d="M1674.08297,188.660377 C1673.77931,191.075472 1674.08297,196.886792 1674.08297,196.886792"></path>
            <path d="M1687.82361,188.962264 C1687.82361,190.018868 1687.82361,196.811321 1687.82361,196.811321"></path>
            <path d="M1702.62706,189.264151 L1703.38621,197.792453"></path>
            <path d="M1716.06403,188.886792 C1715.3808,189.943396 1715.76037,198.09434 1715.76037,198.09434"></path>
            <path d="M1729.19735,188.509434 C1729.57692,189.566038 1729.50101,196.509434 1729.50101,196.509434"></path>
            <path d="M1709.15576,159.830189 L1709.15576,167.301887"></path>
            <path d="M1672.26101,160.584906 L1672.33692,168.056604"></path>
            <path d="M1636.50499,160.660377 L1636.80865,167.45283"></path>
            <path d="M1598.927,160.660377 L1599.30658,167.528302"></path>
            <path d="M1563.09507,159.754717 L1563.17098,166.245283"></path>
            <path d="M1528.02228,160.509434 L1528.32594,166.622642"></path>
            <path d="M1489.76106,160.207547 L1489.4574,168.056604"></path>
            <path d="M1452.94223,159.90566 L1452.94223,166.773585"></path>
            <path d="M1416.42706,160.358491 L1416.42706,166.849057"></path>
            <path d="M1378.92499,159.377358 L1379.22865,166.924528"></path>
            <path d="M1342.40981,160.132075 L1342.40981,165.264151"></path>
            <path d="M1306.57788,159.830189 L1306.27422,165.716981"></path>
            <path d="M1271.12552,159.603774 L1271.12552,166.09434"></path>
            <path d="M1234.23077,159.679245 L1233.54753,166.169811"></path>
            <path d="M1731.01931,159.301887 C1731.01931,159.301887 1731.24706,169.792453 1731.24706,171.226415"></path>
            <path d="M1778.69401,159.754717 C1778.69401,159.754717 1778.84584,170.245283 1778.84584,171.679245"></path>
            <path d="M1742.78615,187.830189 C1742.78615,188.886792 1742.78615,195.679245 1742.78615,195.679245"></path>
            <path d="M1757.5896,188.132075 L1758.27284,196.735849"></path>
            <path d="M1771.02658,187.754717 C1770.34334,188.811321 1770.72292,196.962264 1770.72292,196.962264"></path>
            <path d="M1784.08398,187.45283 C1784.46355,188.509434 1784.38764,195.45283 1784.38764,195.45283"></path>
            <path d="M1799.267,188.132075 C1799.64658,189.188679 1799.57066,196.132075 1799.57066,196.132075"></path>
            <path d="M905.442387,160.207547 C909.921379,160.509434 966.326313,160.207547 969.742493,160.207547 C973.158674,160.207547 994.187162,160.132075 995.93321,160.132075 C997.679257,160.132075 1014.53241,158.698113 1016.27846,159.377358 C1018.02451,160.056604 1040.41947,159.679245 1043.15241,159.981132 C1045.88536,160.283019 1078.60477,159.603774 1081.71729,159.90566 C1084.82981,160.207547 1116.18276,160.509434 1118.53613,160.509434 C1120.96541,160.509434 1166.36265,159.075472 1170.53798,159.377358 C1174.6374,159.679245 1227.01883,159.830189 1227.01883,159.830189"></path>
            <path d="M904.379576,198.698113 C907.492095,198.320755 1081.71729,197.641509 1084.45024,197.641509 C1087.18318,197.641509 1129.54382,198.622642 1132.35268,198.924528 C1135.16154,199.226415 1220.79379,196.509434 1223.22308,197.188679"></path>
            <path d="M917.588806,160.283019 C917.588806,160.283019 916.90557,170.54717 916.90557,172.283019"></path>
            <path d="M953.800318,159.90566 C953.800318,159.90566 953.117082,171.226415 953.117082,172.584906"></path>
            <path d="M989.632255,160.509434 C989.632255,160.509434 989.328594,171.150943 989.328594,172.132075"></path>
            <path d="M1027.81756,159.754717 C1027.81756,162.849057 1027.81756,172.433962 1027.81756,172.433962"></path>
            <path d="M1063.95316,160.735849 C1063.95316,160.735849 1063.6495,170.320755 1063.6495,172.358491"></path>
            <path d="M1100.46833,160.660377 C1100.46833,160.660377 1101.15156,170.622642 1100.8479,171.603774"></path>
            <path d="M1137.36308,161.264151 C1137.36308,161.264151 1136.67984,170.849057 1136.67984,172.207547"></path>
            <path d="M1174.18191,160.509434 C1174.18191,160.509434 1173.87825,170.471698 1173.87825,171.830189"></path>
            <path d="M913.868966,187.679245 L913.565305,195.90566"></path>
            <path d="M941.426154,188.358491 L942.488966,196.886792"></path>
            <path d="M955.925942,186.622642 C955.925942,187.981132 956.609178,197.566038 956.609178,197.566038"></path>
            <path d="M971.412626,186.924528 C971.792202,187.981132 971.792202,196.509434 971.792202,196.509434"></path>
            <path d="M985.836499,187.226415 L985.532838,195.754717"></path>
            <path d="M998.590239,187.528302 C999.273475,188.584906 999.273475,196.433962 999.273475,196.433962"></path>
            <path d="M1013.09003,187.150943 C1013.77326,189.188679 1013.77326,196.358491 1013.77326,196.358491"></path>
            <polyline points="1028.88037 187.45283 1028.88037 187.45283 1028.95629 197.037736"></polyline>
            <path d="M1042.31735,187.830189 C1041.93777,188.886792 1042.31735,197.415094 1042.31735,197.415094"></path>
            <path d="M1055.75432,187.754717 C1055.75432,189.113208 1055.75432,197.716981 1055.75432,197.716981"></path>
            <path d="M1070.25411,188.735849 L1071.24101,196.283019"></path>
            <path d="M1084.67798,188.056604 L1085.05756,196.584906"></path>
            <path d="M1099.48143,187.377358 C1099.48143,188.433962 1099.86101,196.584906 1099.86101,196.584906"></path>
            <path d="M1112.61475,188.660377 L1113.29798,197.943396"></path>
            <path d="M1127.4182,188.358491 L1127.4182,196.886792"></path>
            <path d="M1141.84207,187.981132 C1141.84207,189.716981 1142.22164,196.886792 1142.22164,196.886792"></path>
            <path d="M1156.64552,188.584906 C1156.34186,191 1156.64552,196.811321 1156.64552,196.811321"></path>
            <path d="M1170.46207,188.962264 C1170.46207,190.018868 1170.46207,196.811321 1170.46207,196.811321"></path>
            <path d="M1185.26552,189.264151 L1185.94875,197.792453"></path>
            <path d="M1198.70249,188.886792 C1198.01926,189.943396 1198.39883,198.09434 1198.39883,198.09434"></path>
            <path d="M1211.75989,188.509434 C1212.13947,189.566038 1212.06355,196.509434 1212.06355,196.509434"></path>
            <path d="M1191.7183,159.830189 L1191.7183,167.301887"></path>
            <path d="M1154.89947,160.509434 L1154.89947,168.056604"></path>
            <path d="M1119.06753,160.584906 L1119.44711,167.45283"></path>
            <path d="M1081.56546,160.660377 L1081.86912,167.528302"></path>
            <path d="M1045.73353,159.754717 L1045.73353,166.245283"></path>
            <path d="M1010.58483,160.433962 L1010.9644,166.622642"></path>
            <path d="M972.399523,160.207547 L972.019947,168.056604"></path>
            <path d="M935.504775,159.90566 L935.504775,166.773585"></path>
            <path d="M1213.65777,159.301887 C1213.65777,159.301887 1213.88552,169.792453 1213.88552,171.226415"></path>
            <path d="M1228.99263,186.773585 L1229.3722,197.037736"></path>
            <path d="M927.913263,188.811321 L927.609602,197.037736"></path>
            <path d="M321.576446,160.584906 C321.576446,160.584906 347.994907,159.603774 348.981804,159.226415 C350.044615,158.849057 386.483873,159.830189 386.483873,159.830189 C386.483873,159.830189 418.520053,159.075472 421.252997,159.075472 C423.985942,159.075472 455.035225,159.377358 457.084934,159.679245 C459.134642,159.981132 518.044775,159.226415 522.523767,159.528302 C527.002759,159.830189 579.687851,160.132075 583.104032,160.132075 C586.520212,160.132075 607.5487,160.056604 609.294748,160.056604 C611.040796,160.056604 627.893952,158.622642 629.64,159.301887 C631.386048,159.981132 653.781008,159.603774 656.513952,159.90566 C659.246897,160.207547 691.966313,159.528302 695.078833,159.830189 C698.191353,160.132075 729.544297,160.433962 731.897666,160.433962 C734.32695,160.433962 779.724191,159 783.899523,159.301887 C787.998939,159.603774 915.93,160.2 905.93,160.2"></path>
            <path d="M318.463926,197.716981 C319.526737,197.339623 333.191459,196.962264 333.191459,196.962264 C333.191459,196.962264 369.706631,196.207547 372.819151,196.584906 C375.931671,196.886792 422.7713,196.132075 425.504244,196.811321 C428.237188,197.490566 446.153156,195.075472 447.519629,195.754717 C448.886101,196.433962 539.832414,198.320755 542.944934,197.943396 C546.057454,197.566038 695.154748,197.641509 697.887692,197.641509 C700.620637,197.641509 742.981273,198.622642 745.790133,198.924528 C748.598992,199.226415 855.48748,196.433962 857.840849,197.113208 L904.982422,198.924528"></path>
            <path d="M349.209549,160.283019 L349.209549,172.660377"></path>
            <path d="M384.66191,160.207547 L384.66191,172.207547"></path>
            <path d="M420.493846,159.45283 L420.873422,171.830189"></path>
            <path d="M457.009019,159.45283 L458.07183,171.377358"></path>
            <path d="M494.207427,159.679245 L493.827851,171.301887"></path>
            <path d="M531.02626,160.283019 C531.02626,160.283019 530.343024,170.54717 530.343024,172.283019"></path>
            <path d="M567.161857,159.90566 C567.161857,159.90566 566.478621,171.226415 566.478621,172.584906"></path>
            <path d="M602.993793,160.509434 C602.993793,160.509434 602.690133,171.150943 602.690133,172.132075"></path>
            <path d="M641.255013,159.754717 C641.255013,162.849057 641.255013,172.433962 641.255013,172.433962"></path>
            <path d="M677.39061,160.735849 C677.39061,160.735849 677.08695,170.320755 677.08695,172.358491"></path>
            <path d="M713.905782,160.660377 C713.905782,160.660377 714.589019,170.622642 714.285358,171.603774"></path>
            <path d="M750.724615,161.264151 C750.724615,161.264151 750.041379,170.849057 750.041379,172.207547"></path>
            <path d="M787.543448,160.509434 C787.543448,160.509434 787.239788,170.471698 787.239788,171.830189"></path>
            <path d="M341.314377,186.320755 L341.693952,196.584906"></path>
            <path d="M355.434589,187 C355.814164,188.056604 355.814164,195.226415 355.814164,195.226415"></path>
            <path d="M369.251141,187.301887 L370.238037,195.528302"></path>
            <path d="M384.737825,187.301887 L384.737825,196.509434"></path>
            <path d="M398.478462,187.603774 L399.237613,195.830189"></path>
            <path d="M412.295013,187.90566 L411.915438,195.45283"></path>
            <path d="M427.781698,187.528302 L428.161273,195.754717"></path>
            <path d="M440.839098,187.150943 L441.218674,196.735849"></path>
            <path d="M456.022122,186.773585 L455.642546,195.377358"></path>
            <path d="M470.445995,186.471698 L470.82557,196.056604"></path>
            <path d="M483.199735,187.075472 L483.882971,195.679245"></path>
            <path d="M498.686419,188.433962 C498.686419,189.490566 499.369655,196.283019 499.369655,196.283019"></path>
            <path d="M513.489867,187.377358 C513.186207,190.09434 513.489867,195.90566 513.489867,195.90566"></path>
            <path d="M527.306419,187.679245 L526.926844,195.90566"></path>
            <path d="M542.413528,187.981132 L542.793103,196.207547"></path>
            <path d="M554.863607,188.358491 L555.926419,196.886792"></path>
            <path d="M569.28748,186.622642 C569.28748,187.981132 569.970716,197.566038 569.970716,197.566038"></path>
            <path d="M584.774164,186.924528 C585.15374,187.981132 585.15374,196.509434 585.15374,196.509434"></path>
            <path d="M599.273952,187.226415 L598.970292,195.754717"></path>
            <path d="M612.027692,187.528302 C612.710928,188.584906 612.710928,196.433962 612.710928,196.433962"></path>
            <path d="M626.451565,187.150943 C627.134801,189.188679 627.134801,196.358491 627.134801,196.358491"></path>
            <polyline points="642.317825 187.528302 642.317825 187.528302 642.317825 197.113208"></polyline>
            <path d="M655.754801,187.830189 C655.375225,188.886792 655.754801,197.415094 655.754801,197.415094"></path>
            <path d="M669.191777,187.754717 C669.191777,189.113208 669.191777,197.716981 669.191777,197.716981"></path>
            <path d="M683.61565,188.811321 L684.678462,196.283019"></path>
            <path d="M698.115438,188.056604 L698.419098,196.660377"></path>
            <path d="M712.918886,187.377358 C712.918886,188.433962 713.298462,196.584906 713.298462,196.584906"></path>
            <path d="M725.976286,188.735849 L726.659523,197.943396"></path>
            <path d="M740.779735,188.358491 L740.779735,196.886792"></path>
            <path d="M755.279523,187.981132 C755.279523,189.716981 755.659098,196.886792 755.659098,196.886792"></path>
            <path d="M770.082971,188.660377 C769.77931,191.075472 770.082971,196.886792 770.082971,196.886792"></path>
            <path d="M783.823607,188.962264 C783.823607,190.018868 783.823607,196.811321 783.823607,196.811321"></path>
            <path d="M798.627056,189.264151 L799.386207,197.792453"></path>
            <path d="M812.064032,188.886792 C811.380796,189.943396 811.760371,198.09434 811.760371,198.09434"></path>
            <path d="M825.197347,188.509434 C825.576923,189.566038 825.501008,196.509434 825.501008,196.509434"></path>
            <path d="M805.155756,159.830189 L805.155756,167.301887"></path>
            <path d="M851.155756,159.830189 L851.155756,167.301887"></path>
            <path d="M768.261008,160.584906 L768.336923,168.056604"></path>
            <path d="M898.261008,160.584906 L898.336923,168.056604"></path>
            <path d="M732.504987,160.660377 L732.808647,167.45283"></path>
            <path d="M694.927003,160.660377 L695.306578,167.528302"></path>
            <path d="M659.095066,159.754717 L659.170981,166.245283"></path>
            <path d="M624.022281,160.509434 L624.325942,166.622642"></path>
            <path d="M585.761061,160.207547 L585.457401,168.056604"></path>
            <path d="M548.942228,159.90566 L548.942228,166.773585"></path>
            <path d="M512.427056,160.358491 L512.427056,166.849057"></path>
            <path d="M474.924987,159.377358 L475.228647,166.924528"></path>
            <path d="M438.409814,160.132075 L438.409814,165.264151"></path>
            <path d="M402.577878,159.830189 L402.274218,165.716981"></path>
            <path d="M367.125517,159.603774 L367.125517,166.09434"></path>
            <path d="M330.230769,159.679245 L329.547533,166.169811"></path>
            <path d="M827.01931,159.301887 C827.01931,159.301887 827.247056,169.792453 827.247056,171.226415"></path>
            <path d="M874.694005,159.754717 C874.694005,159.754717 874.845836,170.245283 874.845836,171.679245"></path>
            <path d="M838.786154,187.830189 C838.786154,188.886792 838.786154,195.679245 838.786154,195.679245"></path>
            <path d="M853.589602,188.132075 L854.272838,196.735849"></path>
            <path d="M882.786154,187.830189 C882.786154,188.886792 882.786154,195.679245 882.786154,195.679245"></path>
            <path d="M897.589602,188.132075 L898.272838,196.735849"></path>
            <path d="M867.026578,187.754717 C866.343342,188.811321 866.722918,196.962264 866.722918,196.962264"></path>
            <path d="M1.44238727,160.207547 C5.92137931,160.509434 62.326313,160.207547 65.7424934,160.207547 C69.1586737,160.207547 90.1871618,160.132075 91.9332095,160.132075 C93.6792573,160.132075 110.532414,158.698113 112.278462,159.377358 C114.024509,160.056604 136.419469,159.679245 139.152414,159.981132 C141.885358,160.283019 174.604775,159.603774 177.717294,159.90566 C180.829814,160.207547 212.182759,160.509434 214.536127,160.509434 C216.965411,160.509434 262.362653,159.075472 266.537984,159.377358 C270.637401,159.679245 323.018833,159.830189 323.018833,159.830189"></path>
            <path d="M0.379575597,198.698113 C3.49209549,198.320755 177.717294,197.641509 180.450239,197.641509 C183.183183,197.641509 225.54382,198.622642 228.352679,198.924528 C231.161538,199.226415 316.793793,196.509434 319.223077,197.188679"></path>
            <path d="M13.5888064,160.283019 C13.5888064,160.283019 12.9055703,170.54717 12.9055703,172.283019"></path>
            <path d="M49.8003183,159.90566 C49.8003183,159.90566 49.1170822,171.226415 49.1170822,172.584906"></path>
            <path d="M85.6322546,160.509434 C85.6322546,160.509434 85.3285942,171.150943 85.3285942,172.132075"></path>
            <path d="M123.81756,159.754717 C123.81756,162.849057 123.81756,172.433962 123.81756,172.433962"></path>
            <path d="M159.953156,160.735849 C159.953156,160.735849 159.649496,170.320755 159.649496,172.358491"></path>
            <path d="M196.468329,160.660377 C196.468329,160.660377 197.151565,170.622642 196.847905,171.603774"></path>
            <path d="M233.363077,161.264151 C233.363077,161.264151 232.679841,170.849057 232.679841,172.207547"></path>
            <path d="M270.18191,160.509434 C270.18191,160.509434 269.878249,170.471698 269.878249,171.830189"></path>
            <path d="M9.86896552,187.679245 L9.56530504,195.90566"></path>
            <path d="M37.4261538,188.358491 L38.4889655,196.886792"></path>
            <path d="M51.9259416,186.622642 C51.9259416,187.981132 52.6091777,197.566038 52.6091777,197.566038"></path>
            <path d="M67.412626,186.924528 C67.7922016,187.981132 67.7922016,196.509434 67.7922016,196.509434"></path>
            <path d="M81.8364987,187.226415 L81.5328382,195.754717"></path>
            <path d="M94.5902387,187.528302 C95.2734748,188.584906 95.2734748,196.433962 95.2734748,196.433962"></path>
            <path d="M109.090027,187.150943 C109.773263,189.188679 109.773263,196.358491 109.773263,196.358491"></path>
            <polyline points="124.880371 187.45283 124.880371 187.45283 124.956286 197.037736"></polyline>
            <path d="M138.317347,187.830189 C137.937772,188.886792 138.317347,197.415094 138.317347,197.415094"></path>
            <path d="M151.754324,187.754717 C151.754324,189.113208 151.754324,197.716981 151.754324,197.716981"></path>
            <path d="M166.254111,188.735849 L167.241008,196.283019"></path>
            <path d="M180.677984,188.056604 L181.05756,196.584906"></path>
            <path d="M195.481432,187.377358 C195.481432,188.433962 195.861008,196.584906 195.861008,196.584906"></path>
            <path d="M208.614748,188.660377 L209.297984,197.943396"></path>
            <path d="M223.418196,188.358491 L223.418196,196.886792"></path>
            <path d="M237.842069,187.981132 C237.842069,189.716981 238.221645,196.886792 238.221645,196.886792"></path>
            <path d="M252.645517,188.584906 C252.341857,191 252.645517,196.811321 252.645517,196.811321"></path>
            <path d="M266.462069,188.962264 C266.462069,190.018868 266.462069,196.811321 266.462069,196.811321"></path>
            <path d="M281.265517,189.264151 L281.948753,197.792453"></path>
            <path d="M294.702493,188.886792 C294.019257,189.943396 294.398833,198.09434 294.398833,198.09434"></path>
            <path d="M307.759894,188.509434 C308.139469,189.566038 308.063554,196.509434 308.063554,196.509434"></path>
            <path d="M287.718302,159.830189 L287.718302,167.301887"></path>
            <path d="M250.899469,160.509434 L250.899469,168.056604"></path>
            <path d="M215.067533,160.584906 L215.447109,167.45283"></path>
            <path d="M177.565464,160.660377 L177.869125,167.528302"></path>
            <path d="M141.733528,159.754717 L141.733528,166.245283"></path>
            <path d="M106.584828,160.433962 L106.964403,166.622642"></path>
            <path d="M68.3995225,160.207547 L68.0199469,168.056604"></path>
            <path d="M31.5047745,159.90566 L31.5047745,166.773585"></path>
            <path d="M309.657772,159.301887 C309.657772,159.301887 309.885517,169.792453 309.885517,171.226415"></path>
            <path d="M324.992626,186.773585 L325.372202,197.037736"></path>
            <path d="M23.9132626,188.811321 L23.6096021,197.037736"></path>
            <path d="M1821.67863,160.298182 L1821.67863,172.821818"></path>
            <path d="M1857.11128,160.221818 L1857.11128,172.363636"></path>
            <path d="M1892.92329,159.458182 L1893.30265,171.981818"></path>
            <path d="M1929.41816,159.458182 L1930.48038,171.523636"></path>
            <path d="M1966.59588,159.687273 L1966.21652,171.447273"></path>
            <path d="M2003.39424,160.298182 C2003.39424,160.298182 2002.71138,170.683636 2002.71138,172.44"></path>
            <path d="M2039.50974,159.916364 C2039.50974,159.916364 2038.82689,171.370909 2038.82689,172.745455"></path>
            <path d="M2075.32175,160.527273 C2075.32175,160.527273 2075.01826,171.294545 2075.01826,172.287273"></path>
            <path d="M2113.5617,159.763636 C2113.5617,162.894545 2113.5617,172.592727 2113.5617,172.592727"></path>
            <path d="M2149.6772,160.756364 C2149.6772,160.756364 2149.37371,170.454545 2149.37371,172.516364"></path>
            <path d="M2186.17207,160.68 C2186.17207,160.68 2186.85492,170.76 2186.55143,171.752727"></path>
            <path d="M2222.97043,161.290909 C2222.97043,161.290909 2222.28757,170.989091 2222.28757,172.363636"></path>
            <path d="M2259.84466,160.527273 C2259.84466,160.527273 2259.54117,170.607273 2259.54117,171.981818"></path>
            <path d="M2332.45503,160.069091 C2332.83439,161.825455 2332.83439,173.890909 2332.83439,173.890909"></path>
            <path d="M1813.78785,186.643636 L1814.16721,197.029091"></path>
            <path d="M1827.90021,187.330909 C1828.27957,188.4 1828.27957,195.654545 1828.27957,195.654545"></path>
            <path d="M1841.70908,187.636364 L1842.7713,195.96"></path>
            <path d="M1857.18715,187.636364 L1857.18715,196.952727"></path>
            <path d="M1870.92015,187.941818 L1871.67888,196.265455"></path>
            <path d="M1884.72902,188.247273 L1884.34965,195.883636"></path>
            <path d="M1900.20709,187.865455 L1900.58645,196.189091"></path>
            <path d="M1913.25723,187.483636 L1913.63659,197.181818"></path>
            <path d="M1928.43181,187.101818 L1928.12832,195.807273"></path>
            <path d="M1942.84766,186.796364 L1943.22703,196.494545"></path>
            <path d="M1955.59431,187.407273 L1956.27716,196.112727"></path>
            <path d="M1971.07238,188.781818 C1971.07238,189.850909 1971.75524,196.723636 1971.75524,196.723636"></path>
            <path d="M1985.8676,187.712727 C1985.56411,190.461818 1985.8676,196.341818 1985.8676,196.341818"></path>
            <path d="M1999.67647,188.018182 L1999.37297,196.341818"></path>
            <path d="M2014.77517,188.4 L2015.15454,196.647273"></path>
            <path d="M2027.21833,188.705455 L2028.28055,197.334545"></path>
            <path d="M2041.63418,186.949091 C2041.63418,188.323636 2042.31704,198.021818 2042.31704,198.021818"></path>
            <path d="M2057.11226,187.254545 C2057.49162,188.323636 2057.49162,196.952727 2057.49162,196.952727"></path>
            <path d="M2071.60398,187.56 L2071.30049,196.265455"></path>
            <path d="M2084.35063,187.865455 C2085.03348,188.934545 2085.03348,196.876364 2085.03348,196.876364"></path>
            <path d="M2098.76648,187.483636 C2099.44934,189.545455 2099.44934,196.8 2099.44934,196.8"></path>
            <polyline points="2114.62392 187.865455 2114.62392 187.865455 2114.62392 197.563636"></polyline>
            <path d="M2128.05342,188.170909 C2127.67406,189.24 2128.05342,197.869091 2128.05342,197.869091"></path>
            <path d="M2141.48293,188.094545 C2141.48293,189.469091 2141.48293,198.174545 2141.48293,198.174545"></path>
            <path d="M2155.89878,189.163636 L2156.961,196.723636"></path>
            <path d="M2170.3905,188.4 L2170.76987,197.105455"></path>
            <path d="M2185.18572,187.712727 C2185.18572,188.781818 2185.56508,197.029091 2185.56508,197.029091"></path>
            <path d="M2198.23586,189.087273 L2198.99459,198.403636"></path>
            <path d="M2213.03108,188.705455 L2213.10695,197.334545"></path>
            <path d="M2227.5228,188.323636 C2227.5228,190.08 2227.90216,197.334545 2227.90216,197.334545"></path>
            <path d="M2242.31802,189.010909 C2242.01453,191.454545 2242.31802,197.334545 2242.31802,197.334545"></path>
            <path d="M2256.05101,189.316364 C2256.05101,190.385455 2256.05101,197.258182 2256.05101,197.258182"></path>
            <path d="M2270.84623,189.621818 L2271.60496,198.250909"></path>
            <path d="M2284.27573,189.24 C2283.59288,190.309091 2283.97224,198.556364 2283.97224,198.556364"></path>
            <path d="M2297.40175,188.858182 C2297.78111,189.927273 2297.70524,196.952727 2297.70524,196.952727"></path>
            <path d="M2313.18331,188.476364 C2312.80395,189.850909 2312.87982,197.487273 2312.87982,197.487273"></path>
            <path d="M2327.97853,188.094545 C2327.97853,190.538182 2327.97853,196.723636 2327.97853,196.723636"></path>
            <path d="M2313.4868,160.069091 L2313.4868,167.4"></path>
            <path d="M2277.3713,159.84 L2277.3713,167.476364"></path>
            <path d="M2240.57294,160.603636 L2240.57294,168.24"></path>
            <path d="M2204.76093,160.68 L2205.06442,167.552727"></path>
            <path d="M2167.20384,160.68 L2167.58321,167.629091"></path>
            <path d="M2131.4677,159.763636 L2131.4677,166.330909"></path>
            <path d="M2096.33855,160.527273 L2096.71791,166.712727"></path>
            <path d="M2058.0986,160.221818 L2057.79511,168.163636"></path>
            <path d="M2021.30024,159.916364 L2021.30024,166.865455"></path>
            <path d="M1984.80538,160.374545 L1984.80538,166.941818"></path>
            <path d="M1947.32416,159.381818 L1947.62765,167.018182"></path>
            <path d="M1910.82929,160.145455 L1910.82929,165.338182"></path>
            <path d="M1875.01728,159.84 L1874.71379,165.796364"></path>
            <path d="M1839.58464,159.610909 L1839.58464,166.178182"></path>
            <path d="M1802.71041,159.687273 L1802.55866,168.469091"></path>
            <path d="M2332.60677,159.534545 L2365.15625,159.610909 C2365.15625,159.610909 2400.5889,159.534545 2401.65112,159.229091 C2402.71334,158.847273 2439.13233,159.84 2439.13233,159.84 C2439.13233,159.84 2471.1507,159.076364 2473.88212,159.076364 C2476.61355,159.076364 2507.64557,159.381818 2509.69413,159.687273 C2511.7427,159.992727 2570.62008,159.229091 2575.09658,159.534545 C2579.57308,159.84 2632.22888,160.145455 2635.64316,160.145455 C2639.05744,160.145455 2660.07423,160.069091 2661.81931,160.069091 C2663.56439,160.069091 2680.40817,158.618182 2682.15325,159.305455 C2683.89832,159.992727 2706.28083,159.610909 2709.01226,159.916364 C2711.74368,160.221818 2744.4449,159.534545 2747.55569,159.84 C2750.66648,160.145455 2782.00199,160.450909 2784.35405,160.450909 C2786.70611,160.450909 2832.15398,159 2836.32699,159.305455 C2840.42413,159.610909 2876.91899,159.610909 2876.91899,159.610909"></path>
            <path d="M2333.66899,198.021818 C2334.73122,197.64 2385.79368,197.410909 2385.79368,197.410909 C2385.79368,197.410909 2422.28855,196.647273 2425.39934,197.029091 C2428.51013,197.334545 2475.32371,196.570909 2478.05513,197.258182 C2480.78656,197.945455 2498.69256,195.501818 2500.05828,196.189091 C2501.42399,196.876364 2592.31973,198.785455 2595.43052,198.403636 C2598.54131,198.021818 2747.55569,198.098182 2750.28712,198.098182 C2753.01854,198.098182 2795.35562,199.090909 2798.16292,199.396364 C2800.89434,199.701818 2875.93265,197.487273 2878.36058,198.174545"></path>
            <path d="M2365.15625,160.374545 L2365.15625,172.821818"></path>
            <path d="M2400.5889,160.298182 L2400.5889,172.44"></path>
            <path d="M2436.40091,159.534545 L2436.7044,171.981818"></path>
            <path d="M2472.8199,159.458182 L2473.88212,171.6"></path>
            <path d="M2509.99763,159.763636 L2509.69413,171.523636"></path>
            <path d="M2546.87186,160.374545 C2546.87186,160.374545 2546.189,170.76 2546.189,172.516364"></path>
            <path d="M2582.98736,159.916364 C2582.98736,159.916364 2582.3045,171.370909 2582.3045,172.745455"></path>
            <path d="M2618.79937,160.603636 C2618.79937,160.603636 2618.49588,171.370909 2618.49588,172.363636"></path>
            <path d="M2656.96344,159.84 C2656.96344,162.970909 2656.96344,172.669091 2656.96344,172.669091"></path>
            <path d="M2693.15482,160.756364 C2693.15482,160.756364 2692.85133,170.454545 2692.85133,172.516364"></path>
            <path d="M2729.57381,160.68 C2729.57381,160.68 2730.25667,170.76 2729.95318,171.752727"></path>
            <path d="M2766.44804,161.367273 C2766.44804,161.367273 2765.76519,171.065455 2765.76519,172.44"></path>
            <path d="M2803.2464,160.603636 C2803.2464,160.603636 2802.94291,170.683636 2802.94291,172.058182"></path>
            <path d="M2839.05841,159.84 L2838.37556,173.661818"></path>
            <path d="M2875.85677,160.069091 C2876.23614,161.825455 2876.23614,173.890909 2876.23614,173.890909"></path>
            <path d="M2357.26547,186.72 L2357.64483,197.105455"></path>
            <path d="M2371.37783,187.330909 C2371.75719,188.4 2371.75719,195.654545 2371.75719,195.654545"></path>
            <path d="M2385.11082,187.712727 L2386.17304,195.96"></path>
            <path d="M2400.5889,187.636364 L2400.66477,197.029091"></path>
            <path d="M2414.39777,187.941818 L2415.08062,196.265455"></path>
            <path d="M2428.13076,188.323636 L2427.82727,195.883636"></path>
            <path d="M2443.68471,187.941818 L2443.9882,196.265455"></path>
            <path d="M2456.73485,187.56 L2457.11421,197.258182"></path>
            <path d="M2471.83355,187.178182 L2471.53006,195.807273"></path>
            <path d="M2486.32528,186.796364 L2486.70464,196.494545"></path>
            <path d="M2499.07193,187.483636 L2499.75478,196.112727"></path>
            <path d="M2514.55,188.858182 C2514.55,189.927273 2515.23286,196.8 2515.23286,196.8"></path>
            <path d="M2529.34522,187.789091 C2529.04172,190.538182 2529.34522,196.418182 2529.34522,196.418182"></path>
            <path d="M2543.07821,188.094545 L2542.77472,196.418182"></path>
            <path d="M2558.25279,188.4 L2558.63216,196.723636"></path>
            <path d="M2570.62008,188.705455 L2571.6823,197.410909"></path>
            <path d="M2585.1118,186.949091 C2585.1118,188.323636 2585.79466,198.021818 2585.79466,198.021818"></path>
            <path d="M2600.58987,187.254545 C2600.96924,188.323636 2600.96924,196.952727 2600.96924,196.952727"></path>
            <path d="M2615.0816,187.56 L2614.70223,196.265455"></path>
            <path d="M2627.75237,187.941818 C2628.43523,189.010909 2628.43523,196.952727 2628.43523,196.952727"></path>
            <path d="M2642.2441,187.56 C2642.92696,189.621818 2642.92696,196.876364 2642.92696,196.876364"></path>
            <polyline points="2658.10154 187.865455 2658.10154 187.865455 2658.10154 197.563636"></polyline>
            <path d="M2671.45517,188.170909 C2671.0758,189.24 2671.45517,197.869091 2671.45517,197.869091"></path>
            <path d="M2684.88467,188.170909 C2684.88467,189.545455 2684.88467,198.250909 2684.88467,198.250909"></path>
            <path d="M2699.3764,189.163636 L2700.43862,196.8"></path>
            <path d="M2713.79225,188.476364 L2714.17161,197.105455"></path>
            <path d="M2728.58747,187.712727 C2728.58747,188.781818 2728.96683,197.029091 2728.96683,197.029091"></path>
            <path d="M2741.71348,189.087273 L2742.39633,198.48"></path>
            <path d="M2756.50869,188.705455 L2756.50869,197.410909"></path>
            <path d="M2770.92455,188.323636 C2770.92455,190.08 2771.30391,197.334545 2771.30391,197.334545"></path>
            <path d="M2785.79564,189.010909 C2785.49214,191.454545 2785.79564,197.334545 2785.79564,197.334545"></path>
            <path d="M2799.52863,189.316364 C2799.52863,190.385455 2799.52863,197.258182 2799.52863,197.258182"></path>
            <path d="M2814.32385,189.621818 L2815.0067,198.327273"></path>
            <path d="M2827.75335,189.316364 C2827.0705,190.385455 2827.44986,198.632727 2827.44986,198.632727"></path>
            <path d="M2840.80349,188.934545 C2841.18286,190.003636 2841.18286,198.632727 2841.18286,198.632727"></path>
            <path d="M2856.66093,188.552727 C2856.28156,189.927273 2856.35744,197.563636 2856.35744,197.563636"></path>
            <path d="M2871.45615,188.170909 C2871.45615,190.614545 2871.45615,196.8 2871.45615,196.8"></path>
            <path d="M2856.96442,160.145455 L2856.96442,167.4"></path>
            <path d="M2820.77304,159.84 L2820.84892,167.476364"></path>
            <path d="M2783.97469,160.603636 L2783.97469,168.24"></path>
            <path d="M2748.16267,160.68 L2748.54204,167.629091"></path>
            <path d="M2710.68146,160.756364 L2711.06082,167.705455"></path>
            <path d="M2674.86945,159.763636 L2674.86945,166.330909"></path>
            <path d="M2639.74029,160.527273 L2640.11966,166.789091"></path>
            <path d="M2601.57622,160.221818 L2601.27273,168.24"></path>
            <path d="M2564.77786,159.992727 L2564.77786,166.941818"></path>
            <path d="M2528.283,160.374545 L2528.283,166.941818"></path>
            <path d="M2490.72591,159.458182 L2491.10527,167.018182"></path>
            <path d="M2454.23104,160.221818 L2454.30691,165.414545"></path>
            <path d="M2418.4949,159.916364 L2418.11554,165.796364"></path>
            <path d="M2382.98638,159.610909 L2383.06226,166.178182"></path>
            <path d="M2348.08485,160.069091 C2347.55374,162.130909 2347.55374,167.323636 2347.55374,167.323636"></path>
            <path d="M2341.40803,196.418182 L2340.87692,187.101818"></path>
            <path d="M2875.70503,159.610909 L2913.71735,160.069091 C2913.71735,160.069091 2949.15,159.992727 2950.21222,159.687273 C2951.27444,159.305455 2987.69344,160.298182 2987.69344,160.298182 C2987.69344,160.298182 3019.7118,159.534545 3022.44323,159.534545 C3025.17465,159.534545 3056.20667,159.84 3058.25524,160.145455 C3060.30381,160.450909 3119.18118,159.687273 3123.65768,159.992727 C3128.13418,160.298182 3180.78998,160.603636 3184.20426,160.603636 C3187.61854,160.603636 3208.63534,160.527273 3210.38041,160.527273 C3212.12549,160.527273 3227.90705,159.916364 3230.5626,160.221818 C3232.99054,160.450909 3254.76606,160.069091 3257.57336,160.450909 C3260.30478,160.756364 3293.00601,160.069091 3296.11679,160.374545 C3299.22758,160.68 3330.56309,160.985455 3332.91515,160.985455 C3335.26721,160.985455 3380.71508,159.534545 3384.88809,159.84 C3388.98523,160.145455 3425.4801,160.145455 3425.4801,160.145455"></path>
            <path d="M2878.36058,198.556364 C2879.4228,198.174545 2934.43066,197.792727 2934.43066,197.792727 C2934.43066,197.792727 2970.92552,197.029091 2974.03631,197.410909 C2977.1471,197.716364 3023.96068,196.952727 3026.69211,197.64 C3029.42353,198.327273 3047.32954,195.883636 3048.69525,196.570909 C3050.06096,197.258182 3140.9567,199.167273 3144.06749,198.785455 C3147.17828,198.403636 3296.19267,198.48 3298.92409,198.48 C3301.65552,198.48 3343.9926,199.472727 3346.7999,199.778182 C3349.53132,200.083636 3424.56962,197.869091 3426.99756,198.556364"></path>
            <path d="M2913.71735,160.756364 L2913.79323,173.203636"></path>
            <path d="M2949.15,160.68 L2949.22587,172.745455"></path>
            <path d="M2984.96201,159.916364 L2985.34138,172.363636"></path>
            <path d="M3021.45688,159.84 L3022.5191,171.981818"></path>
            <path d="M3058.6346,160.069091 L3058.33111,171.905455"></path>
            <path d="M3095.43296,160.756364 C3095.43296,160.756364 3094.7501,171.141818 3094.7501,172.898182"></path>
            <path d="M3131.62434,160.298182 C3131.62434,160.298182 3130.94148,171.752727 3130.94148,173.127273"></path>
            <path d="M3167.36047,160.909091 C3167.36047,160.909091 3167.05698,171.676364 3167.05698,172.669091"></path>
            <path d="M3205.60042,160.145455 C3205.60042,163.276364 3205.60042,172.974545 3205.60042,172.974545"></path>
            <path d="M3241.71592,161.138182 C3241.71592,161.138182 3241.41243,170.836364 3241.41243,172.898182"></path>
            <path d="M3278.21079,161.061818 C3278.21079,161.061818 3278.89365,171.141818 3278.59015,172.134545"></path>
            <path d="M3315.00915,161.672727 C3315.00915,161.672727 3314.32629,171.370909 3314.32629,172.745455"></path>
            <path d="M3351.88338,160.909091 C3351.88338,160.909091 3351.57989,170.989091 3351.57989,172.363636"></path>
            <path d="M3387.69539,160.221818 L3387.01253,174.043636"></path>
            <path d="M3424.49375,160.450909 C3424.87311,162.207273 3424.87311,174.272727 3424.87311,174.272727"></path>
            <path d="M2905.90244,187.025455 L2906.20594,197.487273"></path>
            <path d="M2920.0148,187.712727 C2920.39417,188.781818 2920.39417,196.036364 2920.39417,196.036364"></path>
            <path d="M2933.7478,188.018182 L2934.81002,196.341818"></path>
            <path d="M2949.22587,188.018182 L2949.22587,197.334545"></path>
            <path d="M2963.03474,188.323636 L2963.7176,196.647273"></path>
            <path d="M2976.76774,188.629091 L2976.46425,196.265455"></path>
            <path d="M2992.24581,188.247273 L2992.62517,196.570909"></path>
            <path d="M3005.37182,187.941818 L3005.67531,197.64"></path>
            <path d="M3020.47053,187.56 L3020.16704,196.189091"></path>
            <path d="M3034.96226,187.178182 L3035.26575,196.876364"></path>
            <path d="M3047.7089,187.865455 L3048.39176,196.494545"></path>
            <path d="M3063.18698,189.163636 C3063.18698,190.232727 3063.86983,197.105455 3063.86983,197.105455"></path>
            <path d="M3077.98219,188.094545 C3077.6787,190.843636 3077.98219,196.723636 3077.98219,196.723636"></path>
            <path d="M3091.71519,188.476364 L3091.4117,196.723636"></path>
            <path d="M3106.88977,188.781818 L3107.19326,197.105455"></path>
            <path d="M3119.25705,189.087273 L3120.31927,197.716364"></path>
            <path d="M3133.74878,187.330909 C3133.74878,188.705455 3134.43163,198.403636 3134.43163,198.403636"></path>
            <path d="M3149.22685,187.636364 C3149.60622,188.705455 3149.60622,197.334545 3149.60622,197.334545"></path>
            <path d="M3163.6427,187.941818 L3163.33921,196.647273"></path>
            <path d="M3176.38935,188.323636 C3177.07221,189.392727 3177.07221,197.334545 3177.07221,197.334545"></path>
            <path d="M3190.88108,187.941818 C3191.56393,190.003636 3191.56393,197.258182 3191.56393,197.258182"></path>
            <polyline points="3206.66264 188.247273 3206.66264 188.247273 3206.66264 197.945455"></polyline>
            <path d="M3220.09214,188.552727 C3219.71278,189.621818 3220.09214,198.250909 3220.09214,198.250909"></path>
            <path d="M3233.52165,188.552727 C3233.52165,189.927273 3233.52165,198.632727 3233.52165,198.632727"></path>
            <path d="M3248.01337,189.545455 L3248.99972,197.181818"></path>
            <path d="M3262.42922,188.858182 L3262.80859,197.487273"></path>
            <path d="M3277.22444,188.094545 C3277.22444,189.163636 3277.60381,197.410909 3277.60381,197.410909"></path>
            <path d="M3290.35045,189.469091 L3291.03331,198.785455"></path>
            <path d="M3305.14567,189.087273 L3305.14567,197.716364"></path>
            <path d="M3319.56152,188.705455 C3319.56152,190.461818 3319.94089,197.716364 3319.94089,197.716364"></path>
            <path d="M3334.35674,189.392727 C3334.05325,191.836364 3334.35674,197.716364 3334.35674,197.716364"></path>
            <path d="M3348.16561,189.698182 C3348.16561,190.767273 3348.16561,197.64 3348.16561,197.64"></path>
            <path d="M3362.96082,190.003636 L3363.64368,198.709091"></path>
            <path d="M3376.39033,189.621818 C3375.70747,190.690909 3376.08684,198.938182 3376.08684,198.938182"></path>
            <path d="M3389.44047,189.316364 C3389.81983,190.385455 3389.81983,199.014545 3389.81983,199.014545"></path>
            <path d="M3405.29791,188.934545 C3404.91854,190.309091 3404.99441,197.945455 3404.99441,197.945455"></path>
            <path d="M3420.09312,189.087273 C3420.09312,191.530909 3420.09312,197.716364 3420.09312,197.716364"></path>
            <path d="M3405.52552,160.527273 L3405.6014,167.781818"></path>
            <path d="M3369.41002,160.221818 L3369.41002,167.858182"></path>
            <path d="M3332.61166,160.985455 L3332.61166,168.621818"></path>
            <path d="M3296.79965,161.061818 L3297.17902,168.010909"></path>
            <path d="M3259.31844,161.138182 L3259.62193,168.010909"></path>
            <path d="M3223.50642,160.145455 L3223.50642,166.712727"></path>
            <path d="M3188.37727,160.909091 L3188.75663,167.170909"></path>
            <path d="M3150.2132,160.603636 L3149.83383,168.621818"></path>
            <path d="M3113.33897,160.374545 L3113.33897,167.247273"></path>
            <path d="M3076.8441,160.756364 L3076.91997,167.323636"></path>
            <path d="M3039.36288,159.763636 L3039.74225,167.4"></path>
            <path d="M3002.86802,160.527273 L3002.86802,165.72"></path>
            <path d="M2967.05601,160.298182 L2966.75251,166.178182"></path>
            <path d="M2931.62336,159.992727 L2931.62336,166.56"></path>
            <path d="M2897.40468,161.061818 L2896.72182,167.705455"></path>
            <path d="M2888.98279,188.629091 C2888.98279,191.072727 2888.98279,197.258182 2888.98279,197.258182"></path>
            <path d="M3425.4801,160.145455 C3427.52867,160.450909 3491.94476,161.596364 3496.34539,161.901818 C3500.82189,162.207273 3553.47769,162.512727 3556.89197,162.512727 C3560.30625,162.512727 3581.32304,162.436364 3583.06812,162.436364 C3584.8132,162.436364 3600.13953,161.978182 3603.40206,161.672727 C3605.22301,161.52 3627.52964,161.978182 3630.26107,162.283636 C3632.99249,162.589091 3665.69372,161.901818 3668.8045,162.207273 C3671.91529,162.512727 3703.2508,162.818182 3705.60286,162.818182 C3708.0308,162.818182 3830.71728,161.901818 3834.89029,162.207273"></path>
            <path d="M3426.84581,198.556364 C3429.57723,199.243636 3449.53181,196.952727 3450.89752,197.64 C3452.26323,198.327273 3543.15897,200.236364 3546.26976,199.854545 C3549.38055,199.472727 3698.39494,199.549091 3701.12636,199.549091 C3703.85779,199.549091 3843.31219,199.854545 3846.11948,200.16"></path>
            <path d="M3460.83687,161.290909 L3460.45751,173.050909"></path>
            <path d="M3497.63523,161.901818 C3497.63523,161.901818 3496.95237,172.287273 3496.95237,174.043636"></path>
            <path d="M3533.75073,161.978182 C3533.75073,161.978182 3533.06788,173.432727 3533.06788,174.807273"></path>
            <path d="M3569.56274,162.130909 C3569.56274,162.130909 3569.25925,172.898182 3569.25925,173.890909"></path>
            <path d="M3607.72682,161.367273 C3607.72682,164.498182 3607.72682,174.196364 3607.72682,174.196364"></path>
            <path d="M3643.91819,162.283636 C3643.91819,162.283636 3643.6147,171.981818 3643.6147,174.043636"></path>
            <path d="M3680.41306,162.207273 C3680.41306,162.207273 3681.09591,172.287273 3680.79242,173.28"></path>
            <path d="M3716.52856,173.967273 C3716.52856,172.592727 3717.21142,162.894545 3717.21142,162.894545"></path>
            <path d="M3754.00978,162.36 C3754.00978,162.36 3753.70628,172.44 3753.70628,173.814545"></path>
            <path d="M3465.31337,190.385455 C3465.31337,191.454545 3465.99623,198.327273 3465.99623,198.327273"></path>
            <path d="M3480.10859,189.316364 C3479.8051,192.065455 3480.10859,197.945455 3480.10859,197.945455"></path>
            <path d="M3493.91746,190.156364 L3493.53809,198.403636"></path>
            <path d="M3509.01617,190.461818 L3509.39553,198.785455"></path>
            <path d="M3521.45932,190.232727 L3522.44567,198.938182"></path>
            <path d="M3535.87517,188.476364 C3535.87517,189.850909 3536.55803,199.549091 3536.55803,199.549091"></path>
            <path d="M3551.35325,189.316364 C3551.73261,190.385455 3551.73261,199.014545 3551.73261,199.014545"></path>
            <path d="M3565.84497,190.156364 L3565.46561,198.861818"></path>
            <path d="M3578.59162,190.003636 C3579.27448,191.072727 3579.27448,199.014545 3579.27448,199.014545"></path>
            <path d="M3593.00747,189.621818 C3593.69033,191.683636 3593.69033,198.938182 3593.69033,198.938182"></path>
            <polyline points="3608.86491 189.392727 3608.86491 189.392727 3608.86491 199.090909"></polyline>
            <path d="M3622.29441,189.698182 C3621.91505,190.767273 3622.29441,199.396364 3622.29441,199.396364"></path>
            <path d="M3635.72392,189.698182 C3635.72392,191.072727 3635.72392,199.778182 3635.72392,199.778182"></path>
            <path d="M3650.13977,190.690909 L3651.20199,198.327273"></path>
            <path d="M3664.63149,190.003636 L3664.93499,198.632727"></path>
            <path d="M3679.42671,189.24 C3679.42671,190.309091 3679.80608,198.556364 3679.80608,198.556364"></path>
            <path d="M3692.47685,190.614545 L3693.15971,200.007273"></path>
            <path d="M3707.27207,190.232727 L3707.27207,198.938182"></path>
            <path d="M3721.76379,189.850909 C3721.76379,191.607273 3722.14316,198.861818 3722.14316,198.861818"></path>
            <path d="M3736.55901,192.065455 C3736.25552,194.509091 3736.55901,200.389091 3736.55901,200.389091"></path>
            <path d="M3750.44375,192.752727 C3750.44375,193.745455 3750.292,199.472727 3750.292,199.472727"></path>
            <path d="M3919.56446,163.810909 L3919.64033,169.156364"></path>
            <path d="M3734.73806,162.130909 L3734.81393,169.767273"></path>
            <path d="M3699.00192,162.207273 L3699.30541,169.156364"></path>
            <path d="M3661.44483,162.283636 L3661.8242,169.232727"></path>
            <path d="M3625.63282,161.825455 L3625.70869,168.392727"></path>
            <path d="M3590.57954,162.054545 L3590.88303,168.316364"></path>
            <path d="M3552.33959,162.283636 L3552.0361,170.301818"></path>
            <path d="M3515.54124,162.054545 L3515.54124,168.927273"></path>
            <path d="M3479.04637,161.901818 L3479.04637,168.469091"></path>
            <path d="M3903.25178,163.047273 C3903.25178,163.047273 3906.59019,163.047273 3907.9559,163.047273 C3909.39749,163.047273 3926.24127,163.505455 3926.24127,163.505455"></path>
            <path d="M3848.62329,162.818182 C3850.06487,162.818182 3879.73118,163.581818 3879.73118,163.581818"></path>
            <path d="M3443.23436,160.68 L3443.23436,167.934545"></path>
            <path d="M3434.58485,189.927273 C3434.58485,190.996364 3435.2677,197.869091 3435.2677,197.869091"></path>
            <path d="M3449.38006,188.858182 C3449.07657,191.607273 3449.38006,197.487273 3449.38006,197.487273"></path>
            <path d="M2296.26365,160.069091 C2296.26365,160.069091 2296.49127,170.683636 2296.49127,172.134545"></path>
            <path d="M3793.9948,173.738182 C3793.9948,172.363636 3794.14654,162.283636 3794.14654,162.283636"></path>
            <path d="M3767.13579,191.683636 C3767.13579,192.752727 3767.51515,201 3767.51515,201"></path>
            <path d="M3783.97957,191.530909 L3784.7383,200.923636"></path>
            <path d="M3798.85066,191.912727 L3798.85066,200.618182"></path>
            <path d="M3813.26652,191.607273 C3813.26652,193.363636 3813.64588,200.618182 3813.64588,200.618182"></path>
            <path d="M3828.06173,192.294545 C3827.68237,194.738182 3828.06173,200.618182 3828.06173,200.618182"></path>
            <path d="M3812.43191,163.123636 L3812.43191,170.76"></path>
            <path d="M3774.34372,163.123636 L3774.72308,170.072727"></path>
            <path d="M3828.36522,174.043636 C3828.1376,171.6 3828.59284,162.436364 3828.51697,162.589091"></path>
            <path d="M3873.88897,163.352727 L3873.88897,170.989091"></path>
            <path d="M1754.68286,160.527273 L1754.45524,169.309091"></path>
            <path d="M3939.01448,14.3666 C3935.60034,15.1246 3891.74767,45.9752 3887.57484,47.4912 C3883.40201,49.0072 3867.62112,49.0072 3867.62112,49.0072"></path>
            <path d="M3857.75806,48.3249841 C3857.75806,48.3249841 3840.91499,48.2492 3829.00345,58.558 C3817.16779,68.8668 3815.19517,71.9746 3815.19517,71.9746 C3815.19517,71.9746 3824.45127,89.4844 3827.48606,93.7292"></path>
            <path d="M3840.76325,114.65 C3843.79804,115.408 3856.92349,119.0464 3860.79285,116.6966 C3864.6622,114.3468 3864.58633,113.2856 3862.31024,111.3148 C3860.03415,109.4198 3851.61262,107.07 3848.12261,106.312 C3844.70848,105.554 3844.70848,105.554 3844.70848,105.554"></path>
            <path d="M3815.19517,73.8696 C3815.19517,73.8696 3810.56712,76.1436 3811.78104,78.8724 C3812.99495,81.6012 3822.09931,96.458 3823.61671,97.216"></path>
            <path d="M3841.67369,66.5928 L3837.04564,74.2486 C3837.04564,74.2486 3834.76955,74.6276 3832.79694,73.1116"></path>
            <path d="M3837.04564,74.2486 C3837.04564,74.2486 3839.01825,84.5574 3839.3976,85.3154"></path>
            <path d="M3838.18368,79.2514 C3838.18368,79.2514 3843.94978,78.8724 3845.08782,78.4934"></path>
            <path d="M3866.93829,66.2138 C3865.4209,66.5928 3853.50936,76.1436 3853.13001,78.8724 C3852.75066,81.5254 3832.87281,87.2862 3830.52085,90.6972 C3828.24476,94.1082 3821.34062,99.111 3823.61671,102.522 C3825.8928,105.933 3834.31433,106.312 3841.59782,103.659 C3848.88131,101.006 3861.09633,95.6242 3864.20698,94.4872 C3867.24177,93.3502 3871.86982,90.6972 3872.62852,88.7264"></path>
            <path d="M3862.31024,96.079 C3862.31024,96.079 3873.00786,99.49 3889.85093,90.3182"></path>
            <path d="M3853.88871,98.732 C3855.02675,98.732 3862.68959,109.4198 3886.81614,97.595 C3910.9427,85.7702 3920.12293,74.6276 3920.12293,74.6276 L3939.01448,69.7006"></path>
            <path d="M3874.29765,9.8944 C3874.29765,11.0314 3842.35652,84.1784 3842.35652,84.1784"></path>
            <path d="M3882.94679,13.078 C3882.18809,14.215 3855.78545,75.3856 3855.78545,75.3856"></path>
            <path d="M3832.03824,106.3878 L3818.60931,140.422 L3815.57452,156.4916 C3815.57452,156.4916 3824.3754,148.4568 3825.51345,145.8038 C3826.65149,143.1508 3846.45348,102.2946 3846.45348,102.2946"></path>
            <path d="M3817.47126,150.276 C3817.47126,150.276 3818.76105,149.0632 3820.20257,150.9582"></path>
            <path d="M3880.06374,9.5912 C3880.74657,9.667 3884.31244,11.8652 3882.87092,12.7748 C3881.35353,13.6844 3878.77396,13.457 3876.80135,12.3958 C3874.82874,11.2588 3870.88351,8.53 3880.06374,9.5912 Z"></path>
            <path d="M3887.95419,209.9306 C3886.4368,207.4292 3884.16071,205.7616 3882.03635,205.7616 C3853.81284,205.4584 3836.66629,194.7706 3836.05933,194.3158 C3829.53454,189.0856 3834.54194,185.8262 3836.05933,185.2198 C3838.10781,184.3102 3841.37021,183.5522 3844.48087,184.4618 C3849.48827,185.9778 3857.83393,187.2664 3859.35132,188.176 C3860.86872,189.0856 3873.99417,190.6016 3876.19439,190.829 C3878.39461,191.0564 3882.33983,191.8902 3882.94679,191.2838 C3883.55375,190.6774 3880.13961,187.3422 3878.77396,186.8874 C3877.48417,186.4326 3866.55894,183.4006 3864.13111,182.9458 C3861.70328,182.491 3854.6474,179.3074 3848.57783,176.806 C3842.58413,174.3046 3839.47347,175.5174 3834.16259,171.121 C3831.05194,168.5438 3831.96237,163.7684 3834.3902,162.1766 C3836.81803,160.5848 3839.62521,160.888 3839.62521,160.888"></path>
            <path d="M3839.47347,160.8122 C3842.73586,161.0396 3846.98457,162.2524 3848.6537,162.783 C3850.47457,163.3136 3861.55154,168.0132 3863.97937,168.2406 C3866.4072,168.468 3876.64961,173.016 3879.68439,173.6982 C3882.71918,174.3804 3890.38202,176.9576 3891.06485,175.8964 C3891.74767,174.8352 3883.1744,166.0424 3882.11222,165.2086 C3881.05005,164.299 3860.94459,150.3518 3859.57893,147.9262 C3858.28915,145.5006 3854.11632,141.559 3855.63371,138.2996 C3857.1511,135.0402 3859.80654,132.3872 3863.52415,134.5854 C3867.24177,136.7836 3883.85723,146.5618 3886.28506,148.76 C3888.71289,150.9582 3899.41051,159.4478 3904.64552,164.299 C3909.88052,169.1502 3915.34314,170.6662 3918.4538,170.6662 C3918.4538,170.6662 3925.88902,169.984 3926.34424,166.2698 C3926.79946,162.5556 3926.79946,156.0368 3925.88902,152.0952 C3924.97859,148.1536 3923.91641,146.4102 3923.91641,144.4394 C3923.91641,142.4686 3922.39902,132.2356 3925.43381,128.294 C3928.46859,124.3524 3931.12403,122.8364 3934.15882,125.4894 C3937.19361,128.1424 3938.711,137.1626 3939.54557,138.906"></path>
            <path d="M3791.37784,157 C3791.37784,145.243961 3791,0 3791,0 L3836.86989,52.3333333"></path>
            <path d="M3879.56591,99.8884058 C3881.07727,100.267633 3924,149.415459 3924,149.415459"></path>
        </g>
    </g>
</svg>