<?xml version="1.0" encoding="UTF-8"?>
<svg width="4000px" height="320px" viewBox="0 0 4000 320" version="1.1" xmlns="http://www.w3.org/2000/svg" xmlns:xlink="http://www.w3.org/1999/xlink">
    <!-- Generator: Sketch 51.2 (57519) - http://www.bohemiancoding.com/sketch -->
    <title>MIK</title>
    <desc>Created with Sketch.</desc>
    <defs></defs>
    <g id="MIK" stroke="none" stroke-width="1" fill="none" fill-rule="evenodd">
        <g id="MIK-01" transform="translate(3666.000000, 57.000000)" stroke="#FFFFFF">
            <path d="M185.128413,28.448 C186.809385,29.204 188.238211,32.984 187.145579,35.168 C186.052947,37.352 174.874483,40.964 172.521122,32.396 C172.437073,23.744 184.035781,24.752 186.557239,27.272 C189.078697,29.792 190.255377,31.724 190.255377,32.396" id="Shape" stroke-width="0.75"></path>
            <path d="M172.521122,30.212 C171.764685,30.212 152.097311,31.388 155.20711,51.464 C156.635936,54.572 157.980714,54.32 157.980714,54.32 C157.980714,54.32 156.551887,43.4 159.157394,39.536 C161.762901,35.672 168.318692,31.388 172.268976,31.472" id="Shape" stroke-width="0.75"></path>
            <path d="M169.327275,32.144 C169.327275,32.144 174.286143,39.788 185.632704,43.652" id="Shape" stroke-width="0.75"></path>
            <path d="M165.713185,31.892 C165.713185,32.396 160.418123,51.716 168.738935,61.628 C174.45424,66.164 177.059747,63.224 177.059747,63.224 C177.059747,63.224 177.816184,62.636 177.395941,61.628 C176.975698,60.62 174.958532,59.276 170.503956,61.208" id="Shape" stroke-width="0.75"></path>
            <path d="M187.902017,42.56 C187.902017,42.56 175.378775,46.004 164.620553,61.292 C176.471406,64.736 176.471406,60.2 189.078697,74.732 C201.097647,67.928 209.334411,61.208 218.495708,57.932 C216.646639,53.144 204.375543,43.904 187.902017,42.56 Z" id="Shape" stroke-width="0.75"></path>
            <path d="M198.576189,45.416 C198.828335,45.5 199.836918,48.692 202.526474,48.692 C205.216029,48.692 203.198862,45.584 202.778619,45.332 C201.685988,44.66 200.005016,44.24 198.828335,44.576" id="Shape" stroke-width="0.75"></path>
            <path d="M157.980714,54.656 C158.316908,54.656 163.191727,61.46 163.527921,63.476 C163.864116,65.492 160.081929,86.156 163.02363,87.752 C167.22606,87.5 173.697802,87.08 174.790434,88.172 C175.883066,89.18 172.605171,93.128 163.359824,88.592" id="Shape" stroke-width="0.75"></path>
            <path d="M155.543304,52.304 C155.543304,52.304 156.551887,63.644 156.38379,68.348 C156.131644,73.052 154.534721,87.836 154.954964,89.768 C156.38379,89.096 167.562254,88.004 168.570838,91.532 C169.663469,95.144 163.443873,92.876 163.443873,92.876 L154.954964,90.02" id="Shape" stroke-width="0.75"></path>
            <path d="M183.699586,35.252 L182.354809,37.016 C182.354809,37.016 184.035781,37.604 184.540072,36.932 C185.044364,36.26 184.203878,37.1 183.699586,35.252 Z" id="Shape" stroke-width="0.75"></path>
            <path d="M181.766468,31.052 L183.699586,35.252" id="Shape" stroke-width="0.75"></path>
            <path d="M204.459592,62.384 L214.965667,57.68" id="Shape" stroke-width="0.75"></path>
            <path d="M203.030765,60.368 L213.452792,55.664" id="Shape" stroke-width="0.75"></path>
            <path d="M201.433842,59.864 L211.77182,53.144" id="Shape" stroke-width="0.75"></path>
            <path d="M199.332627,57.596 L209.922751,51.296" id="Shape" stroke-width="0.75"></path>
            <path d="M197.651655,56.42 L208.241779,50.12" id="Shape" stroke-width="0.75"></path>
            <path d="M195.298294,55.076 L205.888418,48.776" id="Shape" stroke-width="0.75"></path>
            <path d="M192.272544,53.48 L200.761453,48.272" id="Shape" stroke-width="0.75"></path>
            <path d="M190.003232,52.64 L199.164529,46.592" id="Shape" stroke-width="0.75"></path>
            <path d="M186.893433,51.8 L196.054731,45.752" id="Shape" stroke-width="0.75"></path>
            <path d="M182.8591,50.624 L191.852301,45.08" id="Shape" stroke-width="0.75"></path>
            <path d="M190.255377,72.212 L200.761453,65.072" id="Shape" stroke-width="0.75"></path>
            <path d="M189.582989,70.28 L200.173113,63.14" id="Shape" stroke-width="0.75"></path>
            <path d="M186.725336,68.264 L197.567606,61.376" id="Shape" stroke-width="0.75"></path>
            <path d="M184.70817,66.5 L195.466391,59.696" id="Shape" stroke-width="0.75"></path>
            <path d="M182.438857,65.744 L192.52469,57.932" id="Shape" stroke-width="0.75"></path>
            <path d="M180.253594,63.812 L190.255377,56.84" id="Shape" stroke-width="0.75"></path>
            <path d="M178.320476,61.88 L187.565822,55.412" id="Shape" stroke-width="0.75"></path>
            <path d="M175.462823,60.2 L184.70817,53.732" id="Shape" stroke-width="0.75"></path>
            <path d="M171.596587,60.368 L181.850517,53.06" id="Shape" stroke-width="0.75"></path>
            <path d="M169.915615,58.94 L180.169545,51.632" id="Shape" stroke-width="0.75"></path>
            <path d="M180.160839,135.605691 C180.160839,135.605691 175.041958,135.94065 174.286713,143.393496 C173.447552,150.930081 175.797203,149.506504 176.972028,148.836585 C178.230769,148.250407 182.594406,145.403252 182.594406,143.058537 C182.594406,140.713821 181.587413,135.689431 179.909091,135.605691" id="Shape"></path>
            <path d="M176.972028,148.920325 C176.972028,148.920325 173.783217,156.205691 173.783217,159.471545 C173.783217,162.737398 173.27972,172.2 177.643357,180.908943 C182.006993,189.534146 183.685315,190.706504 185.531469,190.957724 C187.377622,191.208943 187.965035,185.682114 186.706294,181.076423 C185.447552,176.470732 180.916084,163.574797 180.328671,160.225203 C179.741259,156.87561 179.237762,153.274797 178.062937,149.841463 C177.13986,147.329268 176.300699,151.097561 176.804196,153.191057 C177.559441,156.205691 186.202797,166.756911 188.888112,166.254472 C191.573427,165.752033 196.440559,153.274797 195.937063,150.176423 C195.433566,147.078049 194.426573,144.063415 193.167832,144.314634 C191.909091,144.565854 190.146853,145.235772 191.321678,146.24065 C192.496503,147.245528 194.93007,148.166667 194.93007,148.166667" id="Shape"></path>
            <path d="M181.923077,188.780488 C181.923077,188.780488 182.51049,201.173984 178.314685,212.813821 C174.118881,224.453659 170.51049,227.300813 169.923077,229.310569 C169.335664,231.320325 168.076923,231.320325 170.51049,232.241463 C172.86014,233.162602 178.734266,234.08374 179.237762,232.827642 C179.741259,231.571545 175.041958,228.64065 173.447552,228.305691 C171.769231,227.970732 171.769231,227.970732 171.769231,227.970732" id="Shape"></path>
            <path d="M185.447552,191.208943 C185.447552,191.208943 186.958042,193.302439 186.286713,207.286992 C185.531469,221.271545 182.426573,226.295935 182.426573,226.295935 C182.426573,226.295935 181.335664,227.719512 182.426573,229.05935 C183.517483,230.315447 187.545455,231.069106 189.727273,231.069106 C191.909091,231.069106 193.167832,230.315447 191.909091,229.05935 C190.65035,227.803252 186.958042,226.882114 186.118881,226.882114 C185.27972,226.882114 182.846154,227.803252 182.846154,227.803252" id="Shape"></path>
            <path d="M190.818182,145.738211 C190.818182,145.738211 186.286713,145.403252 185.783217,145.821951 C185.783217,145.821951 185.699301,150.343902 186.706294,151.6 C187.713287,152.772358 200.888112,151.43252 201.811189,150.846341 C202.65035,150.260163 203.405594,145.654472 203.153846,144.900813 C202.902098,144.147154 195.265734,145.068293 195.265734,145.068293" id="Shape"></path>
            <path d="M198.622378,145.235772 L198.538462,142.891057 C198.538462,142.137398 197.867133,141.634959 197.195804,141.634959 C197.195804,141.634959 188.132867,141.802439 185.783217,142.137398" id="Shape"></path>
            <path d="M182.678322,142.053659 C182.678322,142.053659 179.237762,142.974797 179.153846,141.718699 C179.06993,140.462602 179.153846,139.373984 179.153846,139.373984" id="Shape"></path>
            <path d="M231.601399,131.502439 C231.601399,131.502439 227.909091,131.16748 226.986014,134.265854 C226.062937,137.364228 227.573427,141.634959 229.167832,143.309756 C230.846154,144.984553 233.615385,146.073171 234.706294,145.152033 C235.797203,144.230894 237.475524,141.634959 236.552448,139.625203 C235.629371,137.615447 234.370629,133.512195 232.86014,133.177236 C231.34965,132.842276 230.258741,132.842276 229.755245,133.930894 C229.167832,135.019512 228.664336,137.447967 229,138.369106" id="Shape"></path>
            <path d="M231.433566,145.152033 C229.587413,145.152033 226.062937,148.585366 225.895105,151.265041 C225.811189,153.107317 225.727273,165.333333 226.314685,169.771545 C226.902098,174.209756 224.384615,184.844715 223.629371,187.60813 C222.874126,190.371545 219.937063,192.96748 220.272727,194.056098 C220.608392,195.144715 221.363636,195.898374 222.286713,194.642276 C223.20979,193.386179 224.132867,189.869106 224.132867,189.869106" id="Shape"></path>
            <path d="M232.020979,145.319512 C232.020979,145.319512 236.972028,164.579675 237.475524,167.929268 C237.979021,171.278862 238.062937,179.904065 236.888112,182.66748 C235.713287,185.430894 235.20979,189.115447 233.531469,187.60813 C231.853147,186.100813 226.818182,172.618699 226.146853,161.230081" id="Shape"></path>
            <path d="M227.993007,148.082927 C227.993007,148.082927 230.174825,156.121951 232.86014,160.895122 C235.461538,165.752033 237.811189,172.45122 238.65035,174.293496" id="Shape"></path>
            <path d="M233.27972,150.008943 C233.27972,150.008943 239.405594,161.230081 241.587413,162.821138 C243.769231,164.495935 244.104895,164.160976 245.195804,163.909756 C246.286713,163.658537 251.825175,160.895122 253.083916,160.727642 C254.342657,160.560163 256.440559,160.308943 257.531469,159.387805 C258.622378,158.382927 260.468531,158.717886 260.72028,157.629268 C260.972028,156.54065 261.811189,154.614634 261.559441,153.609756 C261.307692,152.604878 260.972028,151.934959 260.216783,152.604878 C259.377622,153.274797 258.538462,154.530894 258.454545,155.535772 C258.286713,156.54065 257.111888,159.555285 257.615385,159.387805" id="Shape"></path>
            <path d="M238.230769,173.623577 C238.230769,173.623577 243.937063,185.765854 247.377622,184.426016 C250.818182,183.086179 255.181818,177.810569 256.524476,174.209756 C258.454545,168.934146 257.867133,166.505691 258.454545,163.574797 C259.041958,160.643902 258.622378,160.141463 258.874126,159.471545" id="Shape"></path>
            <path d="M260.132867,152.604878 C260.132867,152.604878 262.902098,145.403252 263.993007,144.565854 C265.083916,143.728455 267.013986,144.565854 267.34965,146.073171 C267.601399,147.580488 267.601399,149.422764 266.258741,150.176423 C264.916084,151.013821 261.559441,153.526016 261.559441,153.526016" id="Shape"></path>
            <path d="M232.440559,185.765854 C232.440559,185.765854 231.097902,191.962602 230.678322,194.977236 C230.258741,197.99187 224.888112,225.458537 224.888112,227.300813 C224.888112,229.143089 232.104895,227.300813 232.104895,229.645528 C232.104895,231.990244 228.496503,233.74878 226.398601,231.822764 C224.300699,229.896748 224.72028,229.896748 224.72028,228.89187" id="Shape"></path>
            <path d="M235.461538,187.943089 C235.461538,187.943089 235.20979,226.882114 237.13986,227.803252 C239.06993,228.80813 245.867133,227.384553 246.118881,229.729268 C246.370629,232.073984 244.188811,232.492683 242.006993,232.073984 C239.825175,231.655285 237.727273,231.236585 236.888112,229.310569" id="Shape"></path>
            <path d="M276.160839,131.334959 C276.160839,131.334959 271.20979,131.502439 269.531469,134.684553 C267.853147,137.866667 267.265734,140.965041 269.111888,142.723577 C270.958042,144.482114 273.307692,146.32439 275.321678,145.570732 C277.335664,144.733333 279.097902,141.969919 278.93007,138.955285 C278.93007,136.02439 278.090909,131.921138 276.160839,131.334959 Z" id="Shape"></path>
            <path d="M268.944056,137.280488 C269.363636,137.113008 272.888112,137.113008 273.643357,137.531707 C274.398601,137.950407 272.72028,138.369106 272.72028,138.369106" id="Shape"></path>
            <path d="M276.496503,145.486992 C276.496503,145.486992 277.335664,148.082927 275.825175,152.437398 C274.314685,156.87561 271.545455,163.993496 271.629371,169.101626 C271.713287,174.209756 271.881119,187.52439 274.062937,188.445528 C276.244755,189.366667 280.692308,187.273171 281.783217,182.834959 C282.874126,178.396748 283.293706,157.545528 282.706294,154.028455 C282.118881,150.511382 279.769231,145.152033 277.755245,144.314634" id="Shape"></path>
            <path d="M281.867133,153.107317 C281.867133,153.107317 288.748252,163.491057 288.832168,165.333333 C289,167.17561 282.370629,172.618699 279.937063,176.721951 C277.503497,180.908943 276.412587,182.081301 276.412587,182.081301" id="Shape"></path>
            <path d="M275.237762,176.386992 C275.237762,176.386992 274.986014,180.573984 277.503497,183.002439" id="Shape"></path>
            <path d="M275.657343,189.282927 C275.825175,189.785366 271.629371,228.97561 270.034965,230.566667 C268.440559,232.157724 263.573427,228.305691 262.734266,229.394309 C261.895105,230.482927 259.797203,232.073984 262.734266,232.911382 C265.671329,233.74878 270.538462,231.822764 270.538462,231.822764" id="Shape"></path>
            <path d="M278.342657,188.361789 C278.342657,188.361789 278.846154,210.804065 279.517483,214.404878 C280.188811,218.005691 281.27972,228.80813 281.699301,229.980488 C282.118881,231.152846 276.328671,230.482927 275.48951,231.739024 C274.65035,232.995122 275.237762,234.334959 278.342657,233.581301 C281.447552,232.911382 283.041958,230.985366 283.041958,230.985366" id="Shape"></path>
            <path d="M274.62268,6.1573913 C274.62268,6.1573913 272.086598,10.5434783 272.086598,12.7365217 C272.086598,14.9295652 270.987629,17.6286957 273.523711,18.7252174 C276.059794,19.8217391 279.525773,19.8217391 280.117526,16.5321739 C280.709278,13.2426087 281.385567,9.44695652 279.948454,7.25391304 C278.51134,5.06086957 277.074227,4.89217391 276.313402,4.89217391 C275.552577,4.89217391 275.721649,5.56695652 274.62268,6.1573913 Z" id="Shape"></path>
            <path d="M272.171134,12.7365217 C272.171134,12.7365217 274.284536,13.4956522 276.397938,12.6521739" id="Shape"></path>
            <path d="M280.03299,16.4478261 C280.03299,16.4478261 292.375258,25.5573913 292.628866,32.0521739 C292.882474,38.5469565 292.290722,47.993913 290.092784,51.873913 C287.894845,55.753913 284.428866,57.3565217 283.498969,56.0913043 C282.569072,54.826087 279.525773,50.44 281.470103,40.9930435 C283.498969,31.546087 283.498969,29.7747826 281.639175,25.0513043 C279.779381,20.3278261 278.764948,18.1347826 278.764948,18.1347826" id="Shape"></path>
            <path d="M285.527835,20.833913 C285.527835,20.833913 300.997938,28.2565217 301.336082,31.04 C301.674227,33.7391304 301.505155,35.426087 298.208247,37.7878261 C294.91134,40.1495652 293.136082,40.9086957 292.54433,40.6556522 C292.037113,40.4869565 291.276289,38.293913 290.346392,40.4869565 C289.416495,42.68 289.247423,43.6078261 290.008247,44.2826087 C290.769072,45.0417391 292.037113,44.7886957 292.037113,44.7886957" id="Shape"></path>
            <path d="M284.428866,56.0913043 C284.936082,57.3565217 283.245361,70.0086957 283.837113,80.8052174 C284.428866,91.5173913 284.682474,93.5417391 284.682474,93.5417391 C284.682474,93.5417391 278.764948,92.1921739 278.849485,94.0478261 C278.934021,95.9034783 283.498969,96.4095652 284.428866,95.566087" id="Shape"></path>
            <path d="M287.556701,55.9226087 C287.556701,57.0191304 295.756701,89.6617391 297.785567,92.2765217 C299.814433,94.8069565 304.125773,92.4452174 305.985567,94.3008696 C307.845361,96.1565217 306.154639,96.8313043 303.787629,96.493913 C301.420619,96.1565217 298.546392,94.6382609 298.546392,94.6382609" id="Shape"></path>
            <path d="M263.294845,4.89217391 C263.294845,4.89217391 255.094845,10.5434783 260.589691,16.8695652 C266.084536,23.1956522 268.958763,14.6765217 268.789691,13.2426087 C268.620619,11.8086957 269.127835,7.59130435 267.183505,6.1573913 C265.154639,4.63913043 263.294845,4.89217391 263.294845,4.89217391 Z" id="Shape"></path>
            <path d="M258.814433,11.5556522 C258.814433,11.5556522 260.420619,13.7486957 263.886598,13.1582609" id="Shape"></path>
            <path d="M264.393814,19.906087 C264.393814,19.906087 271.494845,37.1973913 269.465979,49.8495652 C267.437113,62.586087 261.857732,58.0313043 261.857732,58.0313043 C261.857732,58.0313043 259.659794,58.7904348 259.152577,50.7773913" id="Shape"></path>
            <path d="M262.787629,58.2843478 C262.787629,58.2843478 261.68866,83.5043478 261.519588,86.5408696 C261.350515,89.4930435 261.350515,93.12 259.913402,93.0356522 C258.476289,92.9513043 251.375258,92.1921739 251.459794,94.0478261 C251.54433,95.8191304 258.476289,96.4095652 259.237113,95.2286957" id="Shape"></path>
            <path d="M266.253608,58.6217391 C266.253608,58.6217391 266.084536,90.4208696 268.451546,92.1921739 C270.818557,93.9634783 276.820619,91.8547826 276.820619,93.7947826 C276.820619,95.7347826 274.62268,97.4217391 271.917526,95.9878261" id="Shape"></path>
            <path d="M262.195876,25.0513043 L261.857732,19.8217391 C261.857732,19.8217391 258.983505,18.893913 246.387629,19.6530435 C233.791753,20.4121739 224.915464,14.7608696 225.084536,14.1704348 C225.253608,13.58 244.358763,0.759130435 244.358763,0.759130435 C244.358763,0.759130435 244.527835,5.4826087 244.527835,6.57913043 C244.527835,7.67565217 243.090722,6.57913043 242.668041,7.33826087 C242.329897,8.0973913 242.329897,7.84434783 243.597938,9.53130435 C244.865979,11.2182609 244.527835,12.8208696 245.626804,14.086087 C246.725773,15.3513043 248.501031,15.52 247.824742,11.8930435 C247.063918,8.26608696 244.527835,6.66347826 244.527835,6.66347826" id="Shape"></path>
            <path d="M225.084536,14.086087 C225.084536,14.086087 238.187629,43.5234783 239.624742,45.7165217 C241.061856,47.9095652 242.329897,48.2469565 242.329897,48.2469565 C242.329897,48.2469565 264.562887,50.2713043 266.929897,49.5121739 C266,46.2226087 261.68866,35.5104348 262.195876,31.7147826 C262.364948,30.4495652 259.659794,30.4495652 259.490722,29.6904348 C259.321649,28.9313043 258.560825,28.4252174 258.729897,27.666087 C258.898969,26.9069565 261.096907,27.8347826 260.589691,26.7382609 C260.082474,25.6417391 258.560825,24.0391304 258.560825,23.28 C258.560825,22.5208696 258.898969,22.3521739 260.927835,23.4486957 C262.956701,24.5452174 262.026804,29.4373913 263.463918,31.6304348 C264.901031,33.8234783 275.637113,38.7156522 276.228866,34.4982609 C276.736082,30.2808696 266,20.9182609 266,20.9182609" id="Shape"></path>
            <path d="M247.317526,19.5686957 C247.317526,19.5686957 246.049485,16.2791304 245.71134,13.9173913" id="Shape"></path>
            <path d="M228.550515,19.906087 C228.550515,19.906087 236.919588,22.2678261 239.117526,22.773913" id="Shape"></path>
            <path d="M231.25567,25.0513043 L239.286598,27.16" id="Shape"></path>
            <path d="M232.016495,29.0156522 L241.146392,31.04" id="Shape"></path>
            <path d="M234.383505,33.7391304 L242.245361,35.7634783" id="Shape"></path>
            <path d="M235.820619,38.1252174 L244.358763,40.6556522" id="Shape"></path>
            <path d="M238.610309,43.3547826 L246.218557,45.2104348" id="Shape"></path>
            <polygon id="Shape" points="245.880412 22.6895652 247.65567 28.4252174 256.193814 29.1843478 254.418557 22.4365217"></polygon>
            <path d="M248.078351,32.3052174 L256.193814,33.4017391" id="Shape"></path>
            <path d="M248.416495,34.8356522 L257.123711,36.1008696" id="Shape"></path>
            <path d="M249.346392,38.1252174 L257.884536,39.2217391" id="Shape"></path>
            <path d="M250.614433,41.9208696 L258.983505,42.8486957" id="Shape"></path>
            <path d="M251.121649,45.5478261 L261.350515,46.8130435" id="Shape"></path>
            <path d="M232.016495,14.086087 L240.047423,9.19391304" id="Shape"></path>
            <path d="M234.214433,16.7008696 L240.723711,12.9895652" id="Shape"></path>
            <path d="M237.680412,18.3034783 L243.682474,14.8452174" id="Shape"></path>
            <path d="M41.5559947,189.728 C41.5559947,189.728 39.2871295,190.736 38.6148732,192.164 C37.9426168,193.592 37.5224566,199.556 37.9426168,201.068 C38.362777,202.58 38.5308411,205.604 39.9593858,207.032 C41.3879306,208.46 42.9005073,209.552 44.4971162,208.544 C46.093725,207.536 48.2785581,203.168 47.8583979,199.892 C47.4382377,196.616 47.0180774,193.508 45.6735648,191.996 C44.3290521,190.484 41.8080908,189.896 41.5559947,189.728 Z" id="Shape"></path>
            <path d="M38.1106809,199.556 C38.1106809,199.556 39.5392256,199.976 41.2198665,199.976 C42.9005073,199.976 43.2366355,200.648 44.160988,199.22 C45.1693725,197.792 45.0013084,198.632 45.0013084,196.952" id="Shape"></path>
            <path d="M37.5224566,226.268 C41.8921228,227.36 43.4887316,227.864 46.9340454,226.604 C48.6987183,225.932 48.3625901,225.512 50.5474232,226.016 C52.8162884,226.52 51.2196796,227.948 51.2196796,228.788" id="Shape"></path>
            <path d="M47.5222697,205.268 C47.5222697,205.268 55.8414419,207.116 56.5977303,207.956 C57.3540187,208.796 58.3624032,222.656 58.1943391,224.336 C58.026275,226.016 58.6144993,229.46 57.1019226,230.972 C55.5893458,232.568 53.8246729,232.652 51.7238718,232.148 C49.6230708,231.56 38.6989052,228.788 37.2703605,227.528 C35.8418158,226.268 33.4048865,223.16 30.8839252,223.748 C28.362964,224.336 26.9344192,225.176 28.1948999,226.268 C29.4553805,227.36 31.5561816,227.276 32.0603738,227.108 C32.480534,226.94 30.5477971,228.956 31.4721495,229.376 C32.396502,229.796 33.4889186,229.376 34.329239,228.62" id="Shape"></path>
            <path d="M49.8751669,224.252 C48.8667824,222.992 46.4298531,220.22 45.1693725,218.204 C43.9088919,216.188 41.3038985,209.972 41.3038985,209.552" id="Shape"></path>
            <path d="M49.8751669,224.168 C51.8919359,227.108 62.3119092,231.644 66.8496395,231.98 C71.0512417,232.316 74.7486515,232.568 78.3620294,231.392 C81.639279,230.384 82.4795995,228.956 82.1434713,226.184 C81.8913752,223.328 80.5468625,221.06 78.6141255,220.64 C76.5973565,220.22 68.4462483,220.724 65.0849666,219.212 C61.7236849,217.7 58.4464352,215.264 57.5220828,213.416" id="Shape"></path>
            <path d="M80.7989586,221.816 C81.2191188,221.816 88.8660347,222.488 91.471028,223.16 C93.9919893,223.832 95.5885981,223.832 97.5213351,224.252 C99.4540721,224.672 100.630521,225.092 102.64729,222.572 C104.664059,220.052 104.916155,219.296 105.336315,215.936 C105.756475,212.576 106.596796,202.748 107.016956,199.556 C107.437116,196.28 110.966462,190.232 112.395007,189.224 C113.823551,188.216 114.915968,187.376 112.395007,187.544 C109.874045,187.712 108.865661,187.292 107.016956,188.972 C105.168251,190.652 103.235514,191.408 102.22713,193.928 C101.218745,196.448 99.9582644,197.204 102.22713,197.456 C104.495995,197.708 105.588411,197.288 106.3447,196.028" id="Shape"></path>
            <path d="M14.2455808,213.668 L0.968518024,209.132 C0.968518024,209.552 5.2541522,227.108 5.2541522,227.36 C5.2541522,227.612 15.8421896,231.896 17.0186382,232.148 C18.1110547,232.4 19.8757276,233.66 19.8757276,233.66 C19.8757276,233.66 14.1615487,213.752 13.9934846,213.164" id="Shape"></path>
            <path d="M19.8757276,233.744 C19.8757276,233.744 35.5897196,233.996 36.1779439,233.996 C36.7661682,233.996 21.5563685,223.412 21.3883044,222.992 C21.2202403,222.572 16.598478,222.572 16.598478,222.572 L7.69108144,221.9" id="Shape"></path>
            <path d="M81.471215,230.132 C97.6053672,231.728 107.18502,229.88 110.210174,228.536 C112.226943,227.696 116.176449,227.528 113.571455,221.732 C110.378238,218.372 93.6558611,203.672 94.4961816,199.22 C95.336502,194.768 98.7818158,190.316 97.4373031,189.644 C96.1768224,188.972 94.0760214,191.576 92.3113485,194.516 C90.6307076,197.456 87.8576502,197.876 87.8576502,200.06 C87.8576502,202.16 87.6055541,203 92.1432844,204.932 C96.5969826,206.864 109.453885,222.908 109.705981,224.84 C109.958077,226.772 83.7400801,226.1 82.2275033,226.436" id="Shape"></path>
            <path d="M41.3038985,208.628 L34.4973031,223.412" id="Shape"></path>
        </g>
    </g>
</svg>