<?xml version="1.0" encoding="UTF-8"?>
<svg width="4000px" height="320px" viewBox="0 0 4000 320" version="1.1" xmlns="http://www.w3.org/2000/svg" xmlns:xlink="http://www.w3.org/1999/xlink">
    <!-- Generator: Sketch 51.2 (57519) - http://www.bohemiancoding.com/sketch -->
    <title>Naturbruk</title>
    <desc>Created with Sketch.</desc>
    <defs></defs>
    <g id="Naturbruk" stroke="none" stroke-width="1" fill="none" fill-rule="evenodd">
        <g id="Group" transform="translate(4.000000, 144.000000)" stroke="#FFFFFF">
            <path d="M3870.7,148.6 C3870.7,148.6 3875.9,148.4 3874.4,148.2 C3873.2,148 3876.9,148.4 3878.1,148.5 C3878.3,148.5 3878.6,148.5 3878.8,148.4 L3880,147.8 C3880.3,147.7 3880.6,147.6 3880.9,147.7 C3881.8,147.9 3883.7,148.4 3883.3,148.5 C3882.8,148.6 3887.6,147.8 3888.1,147.7 C3888.6,147.6 3889.5,148.5 3890.5,148.6 C3891.1,148.6 3891.6,148.4 3892,148.2 C3892.3,148.1 3892.6,148 3892.9,148.1 L3894.4,148.6 C3894.6,148.7 3894.9,148.7 3895.1,148.6 C3895.9,148.4 3897.5,147.9 3897.1,147.6 C3896.7,147.3 3899.2,148.1 3900.1,148.4 C3900.3,148.5 3900.6,148.5 3900.8,148.4 L3902.8,147.9 L3903.8,148.6 C3903.8,148.6 3907.1,148 3908.6,147.8 C3910.1,147.6 3909.6,148.5 3910,148.5 C3910.3,148.5 3911.1,148.2 3911.5,148 C3911.8,147.9 3912.1,147.9 3912.4,147.9 L3914.3,148.4 C3914.3,148.4 3915.4,148.1 3915.8,147.8 C3916.1,147.6 3916.4,147.4 3916.8,147.5 C3918.4,147.8 3920.5,148.4 3920.5,148.4 C3920.5,148.4 3922.3,148 3923,147.9 C3923.2,147.8 3923.4,147.9 3923.6,147.9 L3925.4,148.4 C3925.6,148.5 3925.8,148.5 3926,148.4 C3926.4,148.3 3927.2,148.1 3927.5,147.9 C3927.8,147.7 3928.3,147.6 3928.7,147.8 C3929.1,147.9 3929.4,148.1 3929.7,148.3 C3929.9,148.4 3930.2,148.5 3930.5,148.4 L3934.8,147.8 L3935.4,148.2 C3935.7,148.4 3936,148.4 3936.3,148.4 C3937,148.3 3938.1,148.1 3938.5,148 C3938.7,147.9 3939,147.9 3939.3,147.9 C3939.9,148 3940.4,148.2 3940.8,148.3 C3941,148.4 3941.2,148.4 3941.4,148.3 C3942,148.2 3943.3,147.9 3943.7,147.6 C3944,147.4 3944.4,147.3 3944.7,147.4 C3946,147.7 3946.9,148.1 3947.4,148.3 C3947.7,148.4 3947.9,148.5 3948.2,148.4 L3951.2,147.8 C3951.4,147.8 3951.7,147.8 3951.9,147.9 C3952.5,148.1 3953.5,148.5 3953.5,148.5 C3953.5,148.4 3955.7,147.9 3956.5,147.7 C3956.7,147.6 3956.9,147.7 3957.1,147.7 L3959.7,148.4 C3959.7,148.4 3960.4,148.1 3960.6,147.7 C3960.9,147.3 3961.4,147.1 3961.9,147.2 C3963.4,147.6 3964.4,148 3965,148.3 C3965.3,148.4 3965.6,148.5 3965.9,148.4 C3966.7,148.2 3968.5,147.8 3970.2,147.5 C3970.5,147.4 3970.8,147.5 3971.1,147.7 C3971.3,147.8 3971.5,148 3971.6,148.1 C3971.9,148.3 3972.3,148.4 3972.6,148.3 C3973.6,148.1 3975.9,147.7 3977.3,147.8 C3979.2,147.9 3980.2,148 3980.2,148.4 C3981.4,148.2 3982.1,147.9 3982.3,147.6 C3982.6,147.2 3983.2,147.1 3983.7,147.2 C3985.1,147.4 3986.6,147.8 3987.1,148 C3987.3,148 3987.4,148.1 3987.6,148 L3991.3,147.5 C3991.7,147.4 3992.2,147.6 3992.4,147.9 C3992.6,148.2 3993,148.5 3993.5,148.5" id="Shape"></path>
            <path d="M3510.8,149.1 C3510.8,149.1 3514.5,149 3513.4,148.8 C3512.3,148.6 3516.3,149 3516.3,149 L3517.7,148.4 C3517.7,148.4 3520.1,148.9 3519.7,149 C3519.4,149.1 3522.7,148.5 3523.1,148.5 C3523.4,148.5 3524.1,149 3524.8,149.1 C3525.5,149.2 3526.2,148.7 3526.2,148.7 L3527.9,149.2 C3527.9,149.2 3529.9,148.8 3529.6,148.5 C3529.3,148.3 3532,149.1 3532,149.1 L3533.7,148.7 L3534.4,149.1 C3534.4,149.1 3536.8,148.7 3537.8,148.6 C3538.8,148.5 3538.5,149 3538.8,149.1 C3539.1,149.1 3540.2,148.7 3540.2,148.7 L3541.9,149.1 C3541.9,149.1 3543.6,148.7 3542.9,148.4 C3543.9,148.4 3546.3,149 3546.3,149.1 C3546.3,149.2 3548.3,148.7 3548.3,148.7 L3550,149.1 C3550,149.1 3551.7,148.8 3551.4,148.5 C3552.1,148.5 3553.1,149.1 3553.1,149.1 L3556.5,148.7 L3557.2,149.1 C3557.2,149.1 3559.6,148.8 3559.2,148.7 C3559.9,148.8 3560.9,149.1 3560.9,149.1 C3560.9,149.1 3563.6,148.7 3562.6,148.3 C3564.6,148.6 3565.6,149.2 3565.6,149.2 L3568.3,148.7 C3568.3,148.7 3569.7,149.2 3569.7,149.2 C3569.7,149.2 3572.1,148.6 3572.1,148.6 L3574.1,149.1 C3574.1,149.1 3575.5,148.5 3574.4,148.1 C3576.8,148.3 3578.1,149.2 3578.1,149.2 C3578.1,149.2 3580.1,148.8 3581.8,148.5 C3582.1,148.6 3582.8,149.1 3582.8,149.1 C3582.8,149.1 3585.2,148.6 3586.5,148.7 C3587.9,148.8 3588.5,148.9 3588.5,149.1 C3590.2,148.8 3590.5,148.4 3589.2,148.2 C3590.6,148 3593.6,148.9 3593.6,148.9 L3597,148.5 C3597,148.5 3597.3,149.2 3598,149.2 C3598.5,149.2 3599.9,148.9 3600.4,148.8 C3600.6,148.8 3600.8,148.7 3601,148.8 L3602.7,149.1 C3602.7,149.1 3602.9,149 3603.1,148.8 C3603.3,148.5 3603.8,148.4 3604.2,148.5 C3605.4,148.8 3606.1,149 3606.1,149.1 C3606.1,149.2 3608.7,148.8 3609.5,148.7 C3609.7,148.7 3609.9,148.7 3610.1,148.7 C3610.6,148.8 3611.4,149.1 3611.2,149.1 C3610.9,149.2 3612.9,149 3613.2,148.8 C3613.5,148.6 3615.9,149.1 3615.9,149.1 C3615.9,149.1 3616.6,148.9 3616.6,148.6 C3616.6,148.4 3616.9,148.3 3617.2,148.4 C3618.4,148.8 3619.3,149.1 3619.3,149.1 C3619.3,149.1 3621.7,148.7 3621.3,148.4 C3622.7,148.8 3623,149.1 3623,149.1 C3623,149.1 3625.7,148.8 3626.7,148.7 C3627,148.9 3626.7,149.3 3626.7,149.3 C3626.7,149.3 3629.1,149.1 3629.4,148.9 C3630.4,149 3631.8,149.3 3631.8,149.3 C3631.8,149.3 3633.5,149 3633.2,148.9 C3634.2,149 3635.2,149.2 3635.6,149.3 C3635.9,149.4 3636.6,148.9 3636.3,148.6 C3636,148.3 3640,149.1 3639.7,149.3 C3639.4,149.5 3642.4,148.7 3642.4,148.7 L3643.4,149.3 L3644.8,149 C3644.8,149 3646.5,149.3 3646.5,149.3 C3646.5,149.3 3647.9,149.1 3647.5,148.9 C3647.1,148.7 3650.5,149.4 3650.5,149.4 C3650.5,149.4 3652.2,148.8 3651.9,148.6 C3651.6,148.4 3654.6,149.3 3654.6,149.3 L3658,148.5 C3658,148.5 3658,149.1 3658.3,149.2 C3658.6,149.3 3661.3,148.9 3661.3,148.9 C3661.3,148.9 3662.7,149.3 3662.7,149.4 C3662.7,149.6 3665.4,149.4 3665.1,148.7 C3667.1,148.8 3668.8,149.3 3668.8,149.3 L3669.8,148.6 L3671.8,149.3 L3674.5,148.9 C3674.5,148.9 3676.5,149.3 3676.5,149.2 C3676.5,149.2 3677.5,148.7 3677.2,148.5 C3678.2,148.7 3680.2,149.2 3680.2,149.2 C3680.2,149.2 3681.6,148.4 3682.6,148.1 C3682.9,148.4 3683.6,149.1 3683.6,149.1 C3683.6,149.1 3685.3,148.9 3685.6,148.7 C3686.6,148.9 3687.3,149.2 3687.3,149.2 C3687.3,149.2 3689.7,148.9 3689.3,148.8 C3690.3,148.9 3690.3,149.2 3690.3,149.2 C3690.3,149.2 3693,149 3692.3,148.6 C3694,148.7 3695.7,149 3695.7,149.2 C3695.7,149.3 3698.4,148.6 3698.4,148.6 L3698.7,149.2 C3698.7,149.2 3701.7,148.8 3701.7,148.6 C3701.7,148.4 3703.1,149.1 3703.1,149.1 C3703.1,149.1 3706.1,148.5 3706.1,148.1 C3708.1,148.3 3706.8,149.1 3706.4,149.1 C3706.1,149.1 3708.1,148.7 3708.1,148.7 C3708.1,148.7 3709.8,149.2 3709.8,149.1 C3709.8,149 3710.8,148.7 3710.8,148.7 C3710.8,148.7 3713.2,148.9 3713.5,149 C3713.8,149.1 3715.5,148.7 3715.2,148.4 C3716.6,148.6 3716.9,149 3716.9,149 L3718.9,148.7 C3718.9,148.7 3719.9,149.1 3719.9,149 C3719.9,149 3721.6,148.7 3721.6,148.6 C3721.6,148.5 3724,149.1 3724,149.1 C3724,149.1 3725.7,148.5 3725.7,148.4 C3725.7,148.2 3727.7,149.1 3727.7,149.1 L3730.1,148.8 L3731.5,149 C3731.5,149 3733.5,148.9 3732.9,148.5 C3734.6,148.7 3736.6,149 3736.6,149 C3736.6,149 3739,148.3 3739,148.3 L3739.7,149.1 L3742.1,148.6 L3743.8,149 C3743.8,149 3746.2,148.6 3745.2,148.3 C3747.2,148.5 3748.6,149.1 3748.6,149.1 C3748.6,149.1 3750.6,148.7 3751.3,148.6 C3751.6,148.8 3751.6,149.2 3751.6,149.2 L3755,148.8 L3755.3,149.1 C3755.3,149.1 3757,149 3756.3,148.5 C3758,148.7 3758.7,149.2 3758.7,149.2 C3758.7,149.2 3760.4,148.6 3760.4,148.6 C3760.4,148.6 3761.8,149.2 3761.8,149.2 C3761.8,149.2 3763.8,148.7 3764.5,148.5 C3765.5,148.8 3765.2,149.2 3765.2,149.2 L3767.2,148.8 L3767.2,149.2 C3767.2,149.2 3769.2,149 3769.6,148.3 C3771.3,148.6 3769.9,149.2 3770.3,149.2 C3770.6,149.2 3773.3,148.6 3773.3,148.6 L3774.3,149.2 C3774.3,149.2 3777,149.1 3777,148.4 C3777,147.7 3779.7,149.1 3779.7,149.1 C3779.7,149.1 3781.4,148.6 3781.7,148.6 C3782,148.6 3784.1,149.2 3784.1,149.2 L3786.8,148.9 L3787.5,149.2 C3787.5,149.2 3789.5,149 3789.2,148.8 C3788.9,148.6 3791.9,149.2 3791.9,149.2 L3793.6,148.6 L3794.6,149.3 C3794.6,149.3 3797,149 3797,148.8 C3797,148.6 3799,149.2 3799,149.2 C3799,149.2 3800.7,148.7 3799.7,148.4 C3798.7,148 3802.4,149.3 3802.4,149.3 C3802.4,149.3 3804.1,148.7 3804.1,148.7 L3805.1,149.3 L3807.5,148.9 C3807.5,148.9 3807.8,149.3 3808.5,149.3 C3809.2,149.3 3811.5,149.2 3810.9,148.9 C3810.3,148.6 3812.9,149.3 3812.9,149.3 L3814.3,148.9 L3816,149.3 L3819,148.6 C3819,148.6 3818.7,149.3 3819,149.3 C3819.3,149.3 3821.7,148.9 3821.7,148.9 C3821.7,148.9 3822.2,149.2 3823.3,149.4" id="Shape"></path>
            <path d="M3203,149.9 C3203,149.9 3206.6,149.7 3205.6,149.5 C3204.6,149.3 3208.5,149.8 3208.5,149.8 L3209.8,148.9 C3209.8,148.9 3212.1,149.7 3211.8,149.8 C3211.5,149.9 3214.8,149.1 3215.1,149 C3215.4,148.9 3216.1,149.8 3216.8,149.9 C3217.5,150 3218.1,149.3 3218.1,149.3 L3219.8,150 C3219.8,150 3221.8,149.3 3221.5,148.9 C3221.2,148.5 3223.8,149.8 3223.8,149.8 L3225.5,149.2 L3226.2,149.9 C3226.2,149.9 3228.5,149.3 3229.5,149.1 C3230.5,148.9 3230.2,149.8 3230.5,149.8 C3230.8,149.8 3231.8,149.1 3231.8,149.1 L3233.5,149.7 C3233.5,149.7 3235.2,149.1 3234.5,148.6 C3235.5,148.7 3237.8,149.6 3237.8,149.7 C3237.8,149.8 3239.8,149.1 3239.8,149.1 L3241.5,149.8 C3241.5,149.8 3243.2,149.4 3242.8,148.9 C3243.5,148.8 3244.5,149.8 3244.5,149.8 L3247.8,149.2 L3248.5,149.8 C3248.5,149.8 3250.8,149.4 3250.5,149.1 C3251.2,149.2 3252.2,149.7 3252.2,149.7 C3252.2,149.7 3254.9,149.1 3253.9,148.5 C3255.9,148.9 3256.9,149.9 3256.9,149.9 L3259.6,149.2 C3259.6,149.2 3260.9,150 3260.9,149.9 C3260.9,149.8 3263.2,149 3263.2,149 L3265.2,149.7 C3265.2,149.7 3266.5,148.7 3265.5,148.1 C3267.8,148.5 3269.2,149.8 3269.2,149.8 C3269.2,149.8 3271.2,149.1 3272.9,148.7 C3273.2,148.9 3273.9,149.7 3273.9,149.7 C3273.9,149.7 3276.2,149 3277.6,149.1 C3278.9,149.2 3279.6,149.3 3279.6,149.7 C3281.3,149.2 3281.6,148.5 3280.3,148.3 C3281.6,148.1 3284.7,149.4 3284.7,149.4 L3288,148.8 C3288,148.8 3288.3,149.9 3289,149.9 C3289.7,149.9 3291.7,149.1 3291.7,149.1 L3293.7,149.6 C3293.7,149.6 3294,149.4 3294.1,149 C3294.3,148.6 3294.7,148.4 3295.1,148.6 C3296.3,149 3297,149.4 3297,149.6 C3297,149.8 3300.7,148.9 3300.7,148.9 C3300.7,148.9 3302.4,149.5 3302,149.7 C3301.6,149.9 3303.7,149.6 3304,149.2 C3304.3,148.8 3306.7,149.7 3306.7,149.7 C3306.7,149.7 3307.4,149.3 3307.4,148.8 C3307.4,148.6 3307.6,148.4 3307.8,148.5 C3309.1,149.1 3310,149.6 3310,149.6 C3310,149.6 3312.3,148.9 3312,148.5 C3313.3,149.1 3313.7,149.6 3313.7,149.6 C3313.7,149.6 3316.4,149.1 3317.4,149 C3317.7,149.3 3317.4,149.9 3317.4,149.9 C3317.4,149.9 3319.7,149.5 3320.1,149.3 C3321.1,149.4 3322.4,149.9 3322.4,149.9 C3322.4,149.9 3324.1,149.5 3323.7,149.2 C3324.7,149.3 3325.7,149.7 3326,149.8 C3326.3,149.9 3327,149.1 3326.7,148.7 C3326.4,148.3 3330.4,149.4 3330,149.8 C3329.6,150.2 3332.7,148.9 3332.7,148.9 L3333.7,149.8 L3335,149.4 C3335,149.4 3336.7,149.8 3336.7,149.9 C3336.7,150 3338,149.6 3337.7,149.3 C3337.4,149 3340.7,150 3340.7,150 C3340.7,150 3342.4,149.1 3342,148.8 C3341.6,148.5 3344.7,149.9 3344.7,149.9 L3348,148.6 C3348,148.6 3348,149.5 3348.3,149.7 C3348.6,149.9 3351.3,149.2 3351.3,149.2 C3351.3,149.2 3352.6,149.8 3352.6,150 C3352.6,150.2 3355.3,149.9 3354.9,148.9 C3356.9,149.1 3358.6,149.9 3358.6,149.9 L3359.6,148.7 L3361.6,149.8 L3364.3,149.2 C3364.3,149.2 3366.3,149.8 3366.3,149.7 C3366.3,149.6 3367.3,148.9 3367,148.6 C3368,148.9 3370,149.8 3370,149.8 C3370,149.8 3371.3,148.5 3372.3,148.1 C3372.6,148.6 3373.3,149.7 3373.3,149.7 C3373.3,149.7 3375,149.5 3375.3,149.1 C3376.3,149.3 3377,149.9 3377,149.9 C3377,149.9 3379.3,149.5 3379,149.2 C3380,149.4 3380,149.8 3380,149.8 C3380,149.8 3382.7,149.6 3382,148.9 C3383.7,149 3385.3,149.6 3385.3,149.8 C3385.3,150 3388,148.9 3388,148.9 L3388.3,149.8 C3388.3,149.8 3391.3,149.2 3391.3,148.9 C3391.3,148.6 3392.6,149.7 3392.6,149.7 C3392.6,149.7 3395.6,148.8 3395.6,148.1 C3397.6,148.3 3396.3,149.7 3395.9,149.7 C3395.5,149.7 3397.6,149 3397.6,149 C3397.6,149 3399.3,149.7 3399.3,149.7 C3399.3,149.7 3400.3,149.1 3400.3,149.1 C3400.3,149.1 3402.6,149.4 3403,149.6 C3403.4,149.8 3405,149.1 3404.7,148.7 C3406,149 3406.4,149.7 3406.4,149.7 L3408.4,149.3 C3408.4,149.3 3409.4,149.9 3409.4,149.8 C3409.4,149.7 3411.1,149.3 3411.1,149.1 C3411.1,148.9 3413.4,149.9 3413.4,149.9 C3413.4,149.9 3415.1,149 3415.1,148.7 C3415.1,148.4 3417.1,149.8 3417.1,149.8 L3419.4,149.3 L3420.7,149.7 C3420.7,149.7 3422.7,149.5 3422,148.9 C3423.7,149.1 3425.7,149.7 3425.7,149.6 C3425.7,149.5 3428,148.4 3428,148.4 L3428.7,149.7 L3431,148.9 L3432.7,149.5 C3432.7,149.5 3435,148.9 3434,148.3 C3436,148.5 3437.3,149.6 3437.3,149.6 C3437.3,149.6 3439.3,149 3440,148.8 C3440.3,149.1 3440.3,149.7 3440.3,149.7 L3443.6,149.1 L3443.9,149.5 C3443.9,149.5 3445.6,149.4 3444.9,148.5 C3446.6,148.7 3447.2,149.6 3447.2,149.6 C3447.2,149.6 3448.9,148.7 3448.9,148.7 C3448.9,148.7 3450.2,149.6 3450.2,149.6 C3450.2,149.6 3452.2,148.9 3452.9,148.5 C3453.9,148.9 3453.6,149.6 3453.6,149.6 L3455.6,149 L3455.6,149.6 C3455.6,149.6 3457.6,149.2 3457.9,148.2 C3459.6,148.7 3458.2,149.7 3458.6,149.6 C3459,149.5 3461.6,148.6 3461.6,148.6 L3462.6,149.5 C3462.6,149.5 3465.3,149.4 3465.3,148.3 C3465.3,147.2 3468,149.5 3468,149.5 C3468,149.5 3469.7,148.7 3470,148.7 C3470.3,148.7 3472.3,149.7 3472.3,149.7 L3475,149.2 L3475.7,149.7 C3475.7,149.7 3477.7,149.4 3477.4,149.1 C3477.1,148.8 3480.1,149.7 3480.1,149.7 L3481.8,148.7 L3482.8,149.9 C3482.8,149.9 3485.1,149.5 3485.1,149.2 C3485.1,148.9 3487.1,149.8 3487.1,149.8 C3487.1,149.8 3488.8,149.1 3487.8,148.5 C3486.8,147.9 3490.5,149.9 3490.5,149.9 C3490.5,149.9 3492.2,149 3492.2,149 L3493.2,149.9 L3495.5,149.3 C3495.5,149.3 3495.8,150 3496.5,149.9 C3497.2,149.8 3499.5,149.8 3498.8,149.3 C3498.1,148.9 3500.8,149.9 3500.8,149.9 L3502.1,149.2 L3503.8,149.8 L3506.8,148.7 C3506.8,148.7 3506.5,149.8 3506.8,149.8 C3507.1,149.8 3509.5,149.2 3509.5,149.2 C3509.5,149.2 3508.8,149.6 3509.8,149.8" id="Shape"></path>
            <path d="M2897,149.5 C2897,149.5 2900.6,149.3 2899.6,149.1 C2898.6,148.9 2902.5,149.4 2902.5,149.4 L2903.8,148.5 C2903.8,148.5 2906.1,149.3 2905.8,149.4 C2905.5,149.5 2908.8,148.7 2909.1,148.6 C2909.4,148.5 2910.1,149.4 2910.8,149.5 C2911.5,149.6 2912.1,148.9 2912.1,148.9 L2913.8,149.6 C2913.8,149.6 2915.8,148.9 2915.5,148.5 C2915.2,148.1 2917.8,149.4 2917.8,149.4 L2919.5,148.8 L2920.2,149.5 C2920.2,149.5 2922.5,148.9 2923.5,148.7 C2924.5,148.5 2924.2,149.4 2924.5,149.4 C2924.8,149.4 2925.8,148.7 2925.8,148.7 L2927.5,149.3 C2927.5,149.3 2929.2,148.7 2928.5,148.2 C2929.5,148.3 2931.8,149.2 2931.8,149.3 C2931.8,149.4 2933.8,148.7 2933.8,148.7 L2935.5,149.4 C2935.5,149.4 2937.2,149 2936.8,148.5 C2937.5,148.4 2938.5,149.4 2938.5,149.4 L2941.8,148.8 L2942.5,149.4 C2942.5,149.4 2944.8,149 2944.5,148.7 C2945.2,148.8 2946.2,149.3 2946.2,149.3 C2946.2,149.3 2948.9,148.7 2947.9,148.1 C2949.9,148.5 2950.9,149.5 2950.9,149.5 L2953.6,148.8 C2953.6,148.8 2954.9,149.6 2954.9,149.5 C2954.9,149.4 2957.2,148.6 2957.2,148.6 L2959.2,149.3 C2959.2,149.3 2960.5,148.3 2959.5,147.7 C2961.8,148.1 2963.2,149.4 2963.2,149.4 C2963.2,149.4 2965.2,148.7 2966.9,148.3 C2967.2,148.5 2967.9,149.3 2967.9,149.3 C2967.9,149.3 2970.2,148.6 2971.6,148.7 C2973,148.8 2973.6,148.9 2973.6,149.3 C2975.3,148.8 2975.6,148.1 2974.3,147.9 C2975.6,147.7 2978.7,149 2978.7,149 L2982,148.4 C2982,148.4 2982.3,149.5 2983,149.5 C2983.7,149.5 2985.7,148.7 2985.7,148.7 L2987.7,149.2 C2987.7,149.2 2988.7,148.2 2987.7,147.8 C2989.7,148.4 2991,149 2991,149.2 C2991,149.4 2994.7,148.5 2994.7,148.5 C2994.7,148.5 2996.4,149.1 2996,149.3 C2995.6,149.5 2997.7,149.2 2998,148.8 C2998.3,148.4 3000.7,149.3 3000.7,149.3 C3000.7,149.3 3002,148.6 3001,147.7 C3002.7,148.4 3004,149.2 3004,149.2 C3004,149.2 3006.3,148.5 3006,148.1 C3007.3,148.7 3007.7,149.2 3007.7,149.2 C3007.7,149.2 3010.4,148.7 3011.4,148.6 C3011.7,148.9 3011.4,149.5 3011.4,149.5 C3011.4,149.5 3013.7,149.1 3014.1,148.9 C3015.1,149 3016.4,149.5 3016.4,149.5 C3016.4,149.5 3018.1,149.1 3017.7,148.8 C3018.7,148.9 3019.7,149.3 3020,149.4 C3020.3,149.5 3021,148.7 3020.7,148.3 C3020.4,147.9 3024.4,149 3024,149.4 C3023.6,149.8 3026.7,148.5 3026.7,148.5 L3027.7,149.4 L3029,149 C3029,149 3030.7,149.4 3030.7,149.5 C3030.7,149.6 3032,149.2 3031.7,148.9 C3031.4,148.6 3034.7,149.6 3034.7,149.6 C3034.7,149.6 3036.4,148.7 3036,148.4 C3035.7,148.1 3038.7,149.5 3038.7,149.5 L3042,148.2 C3042,148.2 3042,149.1 3042.3,149.3 C3042.6,149.5 3045.3,148.8 3045.3,148.8 C3045.3,148.8 3046.6,149.4 3046.6,149.6 C3046.6,149.8 3049.3,149.5 3048.9,148.5 C3050.9,148.7 3052.6,149.5 3052.6,149.5 L3053.6,148.3 L3055.6,149.4 L3058.3,148.8 C3058.3,148.8 3060.3,149.4 3060.3,149.3 C3060.3,149.2 3061.3,148.5 3061,148.2 C3062,148.5 3064,149.4 3064,149.4 C3064,149.4 3065.3,148.1 3066.3,147.7 C3066.6,148.2 3067.3,149.3 3067.3,149.3 C3067.3,149.3 3069,149.1 3069.3,148.7 C3070.3,148.9 3071,149.5 3071,149.5 C3071,149.5 3073.3,149.1 3073,148.8 C3074,149 3074,149.4 3074,149.4 C3074,149.4 3076.7,149.2 3076,148.5 C3077.7,148.6 3079.3,149.2 3079.3,149.4 C3079.3,149.6 3082,148.5 3082,148.5 L3082.3,149.4 C3082.3,149.4 3085.3,148.8 3085.3,148.5 C3085.3,148.2 3086.6,149.3 3086.6,149.3 C3086.6,149.3 3089.6,148.4 3089.6,147.7 C3091.6,147.9 3090.3,149.3 3089.9,149.3 C3089.5,149.3 3091.6,148.6 3091.6,148.6 C3091.6,148.6 3093.3,149.3 3093.3,149.3 C3093.3,149.3 3094.3,148.7 3094.3,148.7 C3094.3,148.7 3096.6,149 3097,149.2 C3097.3,149.4 3099,148.7 3098.7,148.3 C3100,148.6 3100.4,149.3 3100.4,149.3 L3102.4,148.9 C3102.4,148.9 3103.4,149.5 3103.4,149.4 C3103.4,149.3 3105.1,148.9 3105.1,148.7 C3105.1,148.5 3107.4,149.5 3107.4,149.5 C3107.4,149.5 3109.1,148.6 3109.1,148.3 C3109.1,148 3111.1,149.4 3111.1,149.4 L3113.4,148.9 L3114.7,149.3 C3114.7,149.3 3116.7,149.1 3116,148.5 C3117.7,148.7 3119.7,149.3 3119.7,149.2 C3119.7,149.1 3122,148 3122,148 L3122.7,149.3 L3125,148.5 L3126.7,149.1 C3126.7,149.1 3129,148.5 3128,147.9 C3130,148.1 3131.3,149.2 3131.3,149.2 C3131.3,149.2 3133.3,148.6 3134,148.4 C3134.3,148.7 3134.3,149.3 3134.3,149.3 L3137.6,148.7 L3137.9,149.1 C3137.9,149.1 3139.6,149 3138.9,148.1 C3140.6,148.3 3141.2,149.2 3141.2,149.2 C3141.2,149.2 3142.9,148.3 3142.9,148.3 C3142.9,148.3 3144.2,149.2 3144.2,149.2 C3144.2,149.2 3146.2,148.5 3146.9,148.1 C3147.9,148.5 3147.6,149.2 3147.6,149.2 L3149.6,148.6 L3149.6,149.2 C3149.6,149.2 3151.6,148.8 3151.9,147.8 C3153.6,148.3 3152.2,149.3 3152.6,149.2 C3153,149.1 3155.6,148.2 3155.6,148.2 L3156.6,149.1 C3156.6,149.1 3159.3,149 3159.3,147.9 C3159.3,146.8 3162,149.1 3162,149.1 C3162,149.1 3163.7,148.3 3164,148.3 C3164.3,148.3 3166.3,149.3 3166.3,149.3 L3169,148.8 L3169.7,149.3 C3169.7,149.3 3171.7,149 3171.4,148.7 C3171.1,148.4 3174.1,149.3 3174.1,149.3 L3175.8,148.3 L3176.8,149.5 C3176.8,149.5 3179.1,149.1 3179.1,148.8 C3179.1,148.5 3181.1,149.4 3181.1,149.4 C3181.1,149.4 3182.8,148.7 3181.8,148.1 C3180.8,147.5 3184.5,149.5 3184.5,149.5 C3184.5,149.5 3186.2,148.6 3186.2,148.6 L3187.2,149.5 L3189.5,148.9 C3189.5,148.9 3189.8,149.6 3190.5,149.5 C3191.2,149.4 3193.5,149.4 3192.8,148.9 C3192.1,148.4 3194.8,149.5 3194.8,149.5 L3196.1,148.8 L3197.8,149.4 L3200.8,148.3 C3200.8,148.3 3200.5,149.4 3200.8,149.4 C3201.1,149.4 3203.5,148.8 3203.5,148.8 C3203.5,148.8 3202.8,149.2 3203.8,149.4" id="Shape"></path>
            <path d="M2587.2,149.4 C2587.2,149.4 2590.8,149.2 2589.8,149 C2588.8,148.8 2592.7,149.3 2592.7,149.3 L2594,148.4 C2594,148.4 2596.3,149.2 2596,149.3 C2595.7,149.4 2599,148.6 2599.3,148.5 C2599.6,148.4 2600.3,149.3 2601,149.4 C2601.7,149.5 2602.3,148.8 2602.3,148.8 L2604,149.5 C2604,149.5 2606,148.8 2605.7,148.4 C2605.4,148 2608,149.3 2608,149.3 L2609.7,148.7 L2610.4,149.4 C2610.4,149.4 2612.7,148.8 2613.7,148.6 C2614.7,148.4 2614.4,149.3 2614.7,149.3 C2615,149.3 2616,148.6 2616,148.6 L2617.7,149.2 C2617.7,149.2 2619.4,148.6 2618.7,148.1 C2619.7,148.2 2622,149.1 2622,149.2 C2622,149.3 2624,148.6 2624,148.6 L2625.7,149.3 C2625.7,149.3 2627.4,148.9 2627,148.4 C2627.7,148.3 2628.7,149.3 2628.7,149.3 L2632,148.7 L2632.7,149.3 C2632.7,149.3 2635,148.9 2634.7,148.6 C2635.4,148.7 2636.4,149.2 2636.4,149.2 C2636.4,149.2 2639.1,148.6 2638.1,148 C2640.1,148.4 2641.1,149.4 2641.1,149.4 L2643.8,148.7 C2643.8,148.7 2645.1,149.5 2645.1,149.4 C2645.1,149.3 2647.4,148.5 2647.4,148.5 L2649.4,149.2 C2649.4,149.2 2650.7,148.2 2649.7,147.6 C2652,148 2653.4,149.3 2653.4,149.3 C2653.4,149.3 2655.4,148.6 2657.1,148.2 C2657.4,148.4 2658.1,149.2 2658.1,149.2 C2658.1,149.2 2660.4,148.5 2661.8,148.6 C2663.1,148.7 2663.8,148.8 2663.8,149.2 C2665.5,148.7 2665.8,148 2664.5,147.8 C2665.8,147.6 2668.9,148.9 2668.9,148.9 L2672.2,148.3 C2672.2,148.3 2672.5,149.4 2673.2,149.4 C2673.9,149.4 2675.9,148.6 2675.9,148.6 L2677.9,149.1 C2677.9,149.1 2678.9,148.1 2677.9,147.7 C2679.9,148.3 2681.2,148.9 2681.2,149.1 C2681.2,149.3 2684.9,148.4 2684.9,148.4 C2684.9,148.4 2686.6,149 2686.2,149.2 C2685.9,149.4 2687.9,149.1 2688.2,148.7 C2688.5,148.3 2690.9,149.2 2690.9,149.2 C2690.9,149.2 2692.2,148.5 2691.2,147.6 C2692.9,148.3 2694.2,149.1 2694.2,149.1 C2694.2,149.1 2696.5,148.4 2696.2,148 C2697.5,148.6 2697.9,149.1 2697.9,149.1 C2697.9,149.1 2700.6,148.6 2701.6,148.5 C2701.9,148.8 2701.6,149.4 2701.6,149.4 C2701.6,149.4 2703.9,149 2704.3,148.8 C2705.3,148.9 2706.6,149.4 2706.6,149.4 C2706.6,149.4 2708.3,149 2707.9,148.7 C2708.9,148.8 2709.9,149.2 2710.2,149.3 C2710.5,149.4 2711.2,148.6 2710.9,148.2 C2710.6,147.8 2714.6,148.9 2714.2,149.3 C2713.8,149.7 2716.9,148.4 2716.9,148.4 L2717.9,149.3 L2719.2,148.9 C2719.2,148.9 2720.9,149.3 2720.9,149.4 C2720.9,149.5 2722.2,149.1 2721.9,148.8 C2721.6,148.5 2724.9,149.5 2724.9,149.5 C2724.9,149.5 2726.6,148.6 2726.2,148.3 C2725.9,148 2728.9,149.4 2728.9,149.4 L2732.2,148.1 C2732.2,148.1 2732.2,149 2732.5,149.2 C2732.8,149.4 2735.5,148.7 2735.5,148.7 C2735.5,148.7 2736.8,149.3 2736.8,149.5 C2736.8,149.7 2739.5,149.4 2739.1,148.4 C2741.1,148.6 2742.8,149.4 2742.8,149.4 L2743.8,148.2 L2745.8,149.3 L2748.5,148.7 C2748.5,148.7 2750.5,149.3 2750.5,149.2 C2750.5,149.1 2751.5,148.4 2751.2,148.1 C2752.2,148.4 2754.2,149.3 2754.2,149.3 C2754.2,149.3 2755.5,148 2756.5,147.6 C2756.8,148.1 2757.5,149.2 2757.5,149.2 C2757.5,149.2 2759.2,149 2759.5,148.6 C2760.5,148.8 2761.2,149.4 2761.2,149.4 C2761.2,149.4 2763.5,149 2763.2,148.7 C2764.2,148.9 2764.2,149.3 2764.2,149.3 C2764.2,149.3 2766.9,149.1 2766.2,148.4 C2767.9,148.5 2769.5,149.1 2769.5,149.3 C2769.5,149.5 2772.2,148.4 2772.2,148.4 L2772.5,149.3 C2772.5,149.3 2775.5,148.7 2775.5,148.4 C2775.5,148.1 2776.8,149.2 2776.8,149.2 C2776.8,149.2 2779.8,148.3 2779.8,147.6 C2781.8,147.8 2780.5,149.2 2780.1,149.2 C2779.7,149.2 2781.8,148.5 2781.8,148.5 C2781.8,148.5 2783.5,149.2 2783.5,149.2 C2783.5,149.2 2784.5,148.6 2784.5,148.6 C2784.5,148.6 2786.8,148.9 2787.2,149.1 C2787.6,149.3 2789.2,148.6 2788.9,148.2 C2790.2,148.5 2790.6,149.2 2790.6,149.2 L2792.6,148.8 C2792.6,148.8 2793.6,149.4 2793.6,149.3 C2793.6,149.2 2795.3,148.8 2795.3,148.6 C2795.3,148.4 2797.6,149.4 2797.6,149.4 C2797.6,149.4 2799.3,148.5 2799.3,148.2 C2799.3,147.9 2801.3,149.3 2801.3,149.3 L2803.6,148.8 L2804.9,149.2 C2804.9,149.2 2806.9,149 2806.2,148.4 C2807.9,148.6 2809.9,149.2 2809.9,149.1 C2809.9,149 2812.2,147.9 2812.2,147.9 L2812.9,149.2 L2815.2,148.4 L2816.9,149 C2816.9,149 2819.2,148.4 2818.2,147.8 C2820.2,148 2821.5,149.1 2821.5,149.1 C2821.5,149.1 2823.5,148.5 2824.2,148.3 C2824.5,148.6 2824.5,149.2 2824.5,149.2 L2827.8,148.6 L2828.1,149 C2828.1,149 2829.8,148.9 2829.1,148 C2830.8,148.2 2831.4,149.1 2831.4,149.1 C2831.4,149.1 2833.1,148.2 2833.1,148.2 C2833.1,148.2 2834.4,149.1 2834.4,149.1 C2834.4,149.1 2836.4,148.4 2837.1,148 C2838.1,148.4 2837.8,149.1 2837.8,149.1 L2839.8,148.5 L2839.8,149.1 C2839.8,149.1 2841.8,148.7 2842.1,147.7 C2843.8,148.2 2842.4,149.2 2842.8,149.1 C2843.2,149 2845.8,148.1 2845.8,148.1 L2846.8,149 C2846.8,149 2849.5,148.9 2849.5,147.8 C2849.5,146.7 2852.2,149 2852.2,149 C2852.2,149 2853.9,148.2 2854.2,148.2 C2854.5,148.2 2856.5,149.2 2856.5,149.2 L2859.2,148.7 L2859.9,149.2 C2859.9,149.2 2861.9,148.9 2861.6,148.6 C2861.3,148.3 2864.3,149.2 2864.3,149.2 L2866,148.2 L2867,149.4 C2867,149.4 2869.3,149 2869.3,148.7 C2869.3,148.4 2871.3,149.3 2871.3,149.3 C2871.3,149.3 2873,148.6 2872,148 C2871,147.4 2874.7,149.4 2874.7,149.4 C2874.7,149.4 2876.4,148.5 2876.4,148.5 L2877.4,149.4 L2879.7,148.8 C2879.7,148.8 2880,149.5 2880.7,149.4 C2881.4,149.3 2883.7,149.3 2883,148.8 C2882.3,148.3 2885,149.4 2885,149.4 L2886.3,148.7 L2888,149.3 L2891,148.2 C2891,148.2 2890.7,149.3 2891,149.3 C2891.3,149.3 2893.7,148.7 2893.7,148.7 C2893.7,148.7 2894.2,149.2 2895.2,149.4" id="Shape"></path>
            <path d="M2279.3,149.8 C2279.3,149.8 2282.9,149.6 2281.9,149.4 C2280.9,149.2 2284.8,149.7 2284.8,149.7 L2286.1,148.8 C2286.1,148.8 2288.4,149.6 2288.1,149.7 C2287.8,149.8 2291.1,149 2291.4,148.9 C2291.7,148.8 2292.4,149.7 2293.1,149.8 C2293.8,149.9 2294.4,149.2 2294.4,149.2 L2296.1,149.9 C2296.1,149.9 2298.1,149.2 2297.8,148.8 C2297.5,148.4 2300.1,149.7 2300.1,149.7 L2301.8,149.1 L2302.5,149.8 C2302.5,149.8 2304.8,149.2 2305.8,149 C2306.8,148.8 2306.5,149.7 2306.8,149.7 C2307.1,149.7 2308.1,149 2308.1,149 L2309.8,149.6 C2309.8,149.6 2311.5,149 2310.8,148.5 C2311.8,148.6 2314.1,149.5 2314.1,149.6 C2314.1,149.7 2316.1,149 2316.1,149 L2317.8,149.7 C2317.8,149.7 2319.5,149.3 2319.1,148.8 C2319.8,148.7 2320.8,149.7 2320.8,149.7 L2324.1,149.1 L2324.8,149.7 C2324.8,149.7 2327.1,149.3 2326.8,149 C2327.5,149.1 2328.5,149.6 2328.5,149.6 C2328.5,149.6 2331.2,149 2330.2,148.4 C2332.2,148.8 2333.2,149.8 2333.2,149.8 L2335.9,149.1 C2335.9,149.1 2337.2,149.9 2337.2,149.8 C2337.2,149.7 2339.5,148.9 2339.5,148.9 L2341.5,149.6 C2341.5,149.6 2342.8,148.6 2341.8,148 C2344.1,148.4 2345.5,149.7 2345.5,149.7 C2345.5,149.7 2347.5,149 2349.2,148.6 C2349.5,148.8 2350.2,149.6 2350.2,149.6 C2350.2,149.6 2352.5,148.9 2353.9,149 C2355.2,149.1 2355.9,149.2 2355.9,149.6 C2357.6,149.1 2357.9,148.4 2356.6,148.2 C2357.9,148 2361,149.3 2361,149.3 L2364.3,148.7 C2364.3,148.7 2364.6,149.8 2365.3,149.8 C2366,149.8 2368,149 2368,149 L2370,149.5 C2370,149.5 2371,148.5 2370,148.1 C2372,148.7 2373.3,149.3 2373.3,149.5 C2373.3,149.7 2377,148.8 2377,148.8 C2377,148.8 2378.7,149.4 2378.3,149.6 C2377.9,149.8 2380,149.5 2380.3,149.1 C2380.6,148.7 2383,149.6 2383,149.6 C2383,149.6 2384.3,148.9 2383.3,148 C2385,148.7 2386.3,149.5 2386.3,149.5 C2386.3,149.5 2388.6,148.8 2388.3,148.4 C2389.6,149 2390,149.5 2390,149.5 C2390,149.5 2392.7,149 2393.7,148.9 C2394,149.2 2393.7,149.8 2393.7,149.8 C2393.7,149.8 2396,149.4 2396.4,149.2 C2397.4,149.3 2398.7,149.8 2398.7,149.8 C2398.7,149.8 2400.4,149.4 2400,149.1 C2401,149.2 2402,149.6 2402.3,149.7 C2402.6,149.8 2403.3,149 2403,148.6 C2402.7,148.2 2406.7,149.3 2406.3,149.7 C2405.9,150.1 2409,148.8 2409,148.8 L2410,149.7 L2411.3,149.3 C2411.3,149.3 2413,149.7 2413,149.8 C2413,149.9 2414.3,149.5 2414,149.2 C2413.7,148.9 2417,149.9 2417,149.9 C2417,149.9 2418.7,149 2418.3,148.7 C2417.9,148.4 2421,149.8 2421,149.8 L2424.3,148.5 C2424.3,148.5 2424.3,149.4 2424.6,149.6 C2424.9,149.8 2427.6,149.1 2427.6,149.1 C2427.6,149.1 2428.9,149.7 2428.9,149.9 C2428.9,150.1 2431.6,149.8 2431.2,148.8 C2433.2,149 2434.9,149.8 2434.9,149.8 L2435.9,148.6 L2437.9,149.7 L2440.6,149.1 C2440.6,149.1 2442.6,149.7 2442.6,149.6 C2442.6,149.5 2443.6,148.8 2443.3,148.5 C2444.3,148.8 2446.3,149.7 2446.3,149.7 C2446.3,149.7 2447.6,148.4 2448.6,148 C2448.9,148.5 2449.6,149.6 2449.6,149.6 C2449.6,149.6 2451.3,149.4 2451.6,149 C2452.6,149.2 2453.3,149.8 2453.3,149.8 C2453.3,149.8 2455.6,149.4 2455.3,149.1 C2456.3,149.3 2456.3,149.7 2456.3,149.7 C2456.3,149.7 2459,149.5 2458.3,148.8 C2460,148.9 2461.6,149.5 2461.6,149.7 C2461.6,149.9 2464.3,148.8 2464.3,148.8 L2464.6,149.7 C2464.6,149.7 2467.6,149.1 2467.6,148.8 C2467.6,148.5 2468.9,149.6 2468.9,149.6 C2468.9,149.6 2471.9,148.7 2471.9,148 C2473.9,148.2 2472.6,149.6 2472.2,149.6 C2471.8,149.6 2473.9,148.9 2473.9,148.9 C2473.9,148.9 2475.6,149.6 2475.6,149.6 C2475.6,149.6 2476.6,149 2476.6,149 C2476.6,149 2478.9,149.3 2479.3,149.5 C2479.7,149.7 2481.3,149 2481,148.6 C2482.3,148.9 2482.7,149.6 2482.7,149.6 L2484.7,149.2 C2484.7,149.2 2485.7,149.8 2485.7,149.7 C2485.7,149.6 2487.4,149.2 2487.4,149 C2487.4,148.8 2489.7,149.8 2489.7,149.8 C2489.7,149.8 2491.4,148.9 2491.4,148.6 C2491.4,148.3 2493.4,149.7 2493.4,149.7 L2495.7,149.2 L2497,149.6 C2497,149.6 2499,149.4 2498.3,148.8 C2500,149 2502,149.6 2502,149.5 C2502,149.4 2504.3,148.3 2504.3,148.3 L2505,149.6 L2507.3,148.8 L2509,149.4 C2509,149.4 2511.3,148.8 2510.3,148.2 C2512.3,148.4 2513.6,149.5 2513.6,149.5 C2513.6,149.5 2515.6,148.9 2516.3,148.7 C2516.6,149 2516.6,149.6 2516.6,149.6 L2519.9,149 L2520.2,149.4 C2520.2,149.4 2521.9,149.3 2521.2,148.4 C2522.9,148.6 2523.5,149.5 2523.5,149.5 C2523.5,149.5 2525.2,148.6 2525.2,148.6 C2525.2,148.6 2526.5,149.5 2526.5,149.5 C2526.5,149.5 2528.5,148.8 2529.2,148.4 C2530.2,148.8 2529.9,149.5 2529.9,149.5 L2531.9,148.9 L2531.9,149.5 C2531.9,149.5 2533.9,149.1 2534.2,148.1 C2535.9,148.6 2534.5,149.6 2534.9,149.5 C2535.3,149.4 2537.9,148.5 2537.9,148.5 L2538.9,149.4 C2538.9,149.4 2541.6,149.3 2541.6,148.2 C2541.6,147.1 2544.3,149.4 2544.3,149.4 C2544.3,149.4 2546,148.6 2546.3,148.6 C2546.6,148.6 2548.6,149.6 2548.6,149.6 L2551.3,149.1 L2552,149.6 C2552,149.6 2554,149.3 2553.7,149 C2553.4,148.7 2556.4,149.6 2556.4,149.6 L2558.1,148.6 L2559.1,149.8 C2559.1,149.8 2561.4,149.4 2561.4,149.1 C2561.4,148.8 2563.4,149.7 2563.4,149.7 C2563.4,149.7 2565.1,149 2564.1,148.4 C2563.1,147.8 2566.8,149.8 2566.8,149.8 C2566.8,149.8 2568.5,148.9 2568.5,148.9 L2569.5,149.8 L2571.8,149.2 C2571.8,149.2 2572.1,149.9 2572.8,149.8 C2573.5,149.7 2575.8,149.7 2575.1,149.2 C2574.4,148.8 2577.1,149.8 2577.1,149.8 L2578.4,149.1 L2580.1,149.7 L2583.1,148.6 C2583.1,148.6 2582.8,149.7 2583.1,149.7 C2583.4,149.7 2585.8,149.1 2585.8,149.1 C2585.8,149.1 2585.1,149.5 2586.1,149.7" id="Shape"></path>
            <path d="M1971.4,150.4 C1971.4,150.4 1975,150.2 1974,150 C1973,149.8 1976.9,150.3 1976.9,150.3 L1978.2,149.4 C1978.2,149.4 1980.5,150.2 1980.2,150.3 C1979.9,150.4 1983.2,149.6 1983.5,149.5 C1983.8,149.4 1984.5,150.3 1985.2,150.4 C1985.9,150.5 1986.5,149.8 1986.5,149.8 L1988.2,150.5 C1988.2,150.5 1990.2,149.8 1989.9,149.4 C1989.6,149 1992.2,150.3 1992.2,150.3 L1993.9,149.7 L1994.6,150.4 C1994.6,150.4 1996.9,149.8 1997.9,149.6 C1998.9,149.4 1998.6,150.3 1998.9,150.3 C1999.2,150.3 2000.2,149.6 2000.2,149.6 L2001.9,150.2 C2001.9,150.2 2003.6,149.6 2002.9,149.1 C2003.9,149.2 2006.2,150.1 2006.2,150.2 C2006.2,150.3 2008.2,149.6 2008.2,149.6 L2009.9,150.3 C2009.9,150.3 2011.6,149.9 2011.2,149.4 C2011.9,149.3 2012.9,150.3 2012.9,150.3 L2016.2,149.7 L2016.9,150.3 C2016.9,150.3 2019.2,149.9 2018.9,149.6 C2019.6,149.7 2020.6,150.2 2020.6,150.2 C2020.6,150.2 2023.3,149.6 2022.3,149 C2024.3,149.4 2025.3,150.4 2025.3,150.4 L2028,149.7 C2028,149.7 2029.3,150.5 2029.3,150.4 C2029.3,150.3 2031.6,149.5 2031.6,149.5 L2033.6,150.2 C2033.6,150.2 2034.9,149.2 2033.9,148.6 C2036.2,149 2037.6,150.3 2037.6,150.3 C2037.6,150.3 2039.6,149.6 2041.3,149.2 C2041.6,149.4 2042.3,150.2 2042.3,150.2 C2042.3,150.2 2044.6,149.5 2046,149.6 C2047.4,149.7 2048,149.8 2048,150.2 C2049.7,149.7 2050,149 2048.7,148.8 C2050,148.6 2053.1,149.9 2053.1,149.9 L2056.4,149.3 C2056.4,149.3 2056.7,150.4 2057.4,150.4 C2058.1,150.4 2060.1,149.6 2060.1,149.6 L2062.1,150.1 C2062.1,150.1 2063.1,149.1 2062.1,148.7 C2064.1,149.3 2065.4,149.9 2065.4,150.1 C2065.4,150.3 2069.1,149.4 2069.1,149.4 C2069.1,149.4 2070.8,150 2070.4,150.2 C2070,150.4 2072.1,150.1 2072.4,149.7 C2072.7,149.3 2075.1,150.2 2075.1,150.2 C2075.1,150.2 2076.4,149.5 2075.4,148.6 C2077.1,149.3 2078.4,150.1 2078.4,150.1 C2078.4,150.1 2080.7,149.4 2080.4,149 C2081.7,149.6 2082.1,150.1 2082.1,150.1 C2082.1,150.1 2084.8,149.6 2085.8,149.5 C2086.1,149.8 2085.8,150.4 2085.8,150.4 C2085.8,150.4 2088.1,150 2088.5,149.8 C2089.5,149.9 2090.8,150.4 2090.8,150.4 C2090.8,150.4 2092.5,150 2092.1,149.7 C2093.1,149.8 2094.1,150.2 2094.4,150.3 C2094.7,150.4 2095.4,149.6 2095.1,149.2 C2094.8,148.8 2098.8,149.9 2098.4,150.3 C2098,150.7 2101.1,149.4 2101.1,149.4 L2102.1,150.3 L2103.4,149.9 C2103.4,149.9 2105.1,150.3 2105.1,150.4 C2105.1,150.5 2106.4,150.1 2106.1,149.8 C2105.8,149.5 2109.1,150.5 2109.1,150.5 C2109.1,150.5 2110.8,149.6 2110.4,149.3 C2110,149 2113.1,150.4 2113.1,150.4 L2116.4,149.1 C2116.4,149.1 2116.4,150 2116.7,150.2 C2117,150.4 2119.7,149.7 2119.7,149.7 C2119.7,149.7 2121,150.3 2121,150.5 C2121,150.7 2123.7,150.4 2123.3,149.4 C2125.3,149.6 2127,150.4 2127,150.4 L2128,149.2 L2130,150.3 L2132.7,149.7 C2132.7,149.7 2134.7,150.3 2134.7,150.2 C2134.7,150.1 2135.7,149.4 2135.4,149.1 C2136.4,149.4 2138.4,150.3 2138.4,150.3 C2138.4,150.3 2139.7,149 2140.7,148.6 C2141,149.1 2141.7,150.2 2141.7,150.2 C2141.7,150.2 2143.4,150 2143.7,149.6 C2144.7,149.8 2145.4,150.4 2145.4,150.4 C2145.4,150.4 2147.7,150 2147.4,149.7 C2148.4,149.9 2148.4,150.3 2148.4,150.3 C2148.4,150.3 2151.1,150.1 2150.4,149.4 C2152.1,149.5 2153.7,150.1 2153.7,150.3 C2153.7,150.5 2156.4,149.4 2156.4,149.4 L2156.7,150.3 C2156.7,150.3 2159.7,149.7 2159.7,149.4 C2159.7,149.1 2161,150.2 2161,150.2 C2161,150.2 2164,149.3 2164,148.6 C2166,148.8 2164.7,150.2 2164.3,150.2 C2163.9,150.2 2166,149.5 2166,149.5 C2166,149.5 2167.7,150.2 2167.7,150.2 C2167.7,150.2 2168.7,149.6 2168.7,149.6 C2168.7,149.6 2171,149.9 2171.4,150.1 C2171.8,150.3 2173.4,149.6 2173.1,149.2 C2174.4,149.5 2174.8,150.2 2174.8,150.2 L2176.8,149.8 C2176.8,149.8 2177.8,150.4 2177.8,150.3 C2177.8,150.2 2179.5,149.8 2179.5,149.6 C2179.5,149.4 2181.8,150.4 2181.8,150.4 C2181.8,150.4 2183.5,149.5 2183.5,149.2 C2183.5,148.9 2185.5,150.3 2185.5,150.3 L2187.8,149.8 L2189.1,150.2 C2189.1,150.2 2191.1,150 2190.4,149.4 C2192.1,149.6 2194.1,150.2 2194.1,150.1 C2194.1,150 2196.4,148.9 2196.4,148.9 L2197.1,150.2 L2199.4,149.4 L2201.1,150 C2201.1,150 2203.4,149.4 2202.4,148.8 C2204.4,149 2205.7,150.1 2205.7,150.1 C2205.7,150.1 2207.7,149.5 2208.4,149.3 C2208.7,149.6 2208.7,150.2 2208.7,150.2 L2212,149.6 L2212.3,150 C2212.3,150 2214,149.9 2213.3,149 C2215,149.2 2215.6,150.1 2215.6,150.1 C2215.6,150.1 2217.3,149.2 2217.3,149.2 C2217.3,149.2 2218.6,150.1 2218.6,150.1 C2218.6,150.1 2220.6,149.4 2221.3,149 C2222.3,149.4 2222,150.1 2222,150.1 L2224,149.5 L2224,150.1 C2224,150.1 2226,149.7 2226.3,148.7 C2228,149.2 2226.6,150.2 2227,150.1 C2227.4,150 2230,149.1 2230,149.1 L2231,150 C2231,150 2233.7,149.9 2233.7,148.8 C2233.7,147.7 2236.4,150 2236.4,150 C2236.4,150 2238.1,149.2 2238.4,149.2 C2238.7,149.2 2240.7,150.2 2240.7,150.2 L2243.4,149.7 L2244.1,150.2 C2244.1,150.2 2246.1,149.9 2245.8,149.6 C2245.5,149.3 2248.5,150.2 2248.5,150.2 L2250.2,149.2 L2251.2,150.4 C2251.2,150.4 2253.5,150 2253.5,149.7 C2253.5,149.4 2255.5,150.3 2255.5,150.3 C2255.5,150.3 2257.2,149.6 2256.2,149 C2255.2,148.4 2258.9,150.4 2258.9,150.4 C2258.9,150.4 2260.6,149.5 2260.6,149.5 L2261.6,150.4 L2263.9,149.8 C2263.9,149.8 2264.2,150.5 2264.9,150.4 C2265.6,150.3 2267.9,150.3 2267.2,149.8 C2266.5,149.3 2269.2,150.4 2269.2,150.4 L2270.5,149.7 L2272.2,150.3 L2275.2,149.2 C2275.2,149.2 2274.9,150.3 2275.2,150.3 C2275.5,150.2 2277.9,149.7 2277.9,149.7 C2277.9,149.7 2277.2,150.1 2278.2,150.3" id="Shape"></path>
            <path d="M1663.5,149.8 C1663.5,149.8 1667.1,149.6 1666.1,149.4 C1665.1,149.2 1669,149.7 1669,149.7 L1670.3,148.8 C1670.3,148.8 1672.6,149.6 1672.3,149.7 C1672,149.8 1675.3,149 1675.6,148.9 C1675.9,148.8 1676.6,149.7 1677.3,149.8 C1678,149.9 1678.6,149.2 1678.6,149.2 L1680.3,149.9 C1680.3,149.9 1682.3,149.2 1682,148.8 C1681.7,148.4 1684.3,149.7 1684.3,149.7 L1686,149.1 L1686.7,149.8 C1686.7,149.8 1689,149.2 1690,149 C1691,148.8 1690.7,149.7 1691,149.7 C1691.3,149.8 1692.3,149 1692.3,149 L1694,149.6 C1694,149.6 1695.7,149 1695,148.5 C1696,148.6 1698.3,149.5 1698.3,149.6 C1698.3,149.7 1700.3,149 1700.3,149 L1702,149.7 C1702,149.7 1703.7,149.3 1703.3,148.8 C1704,148.7 1705,149.7 1705,149.7 L1708.3,149.1 L1709,149.7 C1709,149.7 1711.3,149.3 1711,149 C1711.7,149.1 1712.7,149.6 1712.7,149.6 C1712.7,149.6 1715.4,149 1714.4,148.4 C1716.4,148.8 1717.4,149.8 1717.4,149.8 L1720.1,149.1 C1720.1,149.1 1721.4,149.9 1721.4,149.8 C1721.4,149.7 1723.7,148.9 1723.7,148.9 L1725.7,149.6 C1725.7,149.6 1727,148.6 1726,148 C1728.3,148.4 1729.7,149.7 1729.7,149.7 C1729.7,149.7 1731.7,149 1733.4,148.6 C1733.7,148.8 1734.4,149.6 1734.4,149.6 C1734.4,149.6 1736.7,148.9 1738.1,149 C1739.4,149.1 1740.1,149.2 1740.1,149.6 C1741.8,149.1 1742.1,148.4 1740.8,148.2 C1742.1,148 1745.2,149.3 1745.2,149.3 L1748.5,148.7 C1748.5,148.7 1748.8,149.8 1749.5,149.8 C1750.2,149.9 1752.2,149 1752.2,149 L1754.2,149.5 C1754.2,149.5 1755.2,148.5 1754.2,148.1 C1756.2,148.7 1757.5,149.3 1757.5,149.5 C1757.5,149.7 1761.2,148.8 1761.2,148.8 C1761.2,148.8 1762.9,149.4 1762.5,149.6 C1762.1,149.8 1764.2,149.5 1764.5,149.1 C1764.8,148.7 1767.2,149.6 1767.2,149.6 C1767.2,149.6 1768.5,148.9 1767.5,148 C1769.2,148.7 1770.5,149.5 1770.5,149.5 C1770.5,149.5 1772.8,148.8 1772.5,148.4 C1773.8,149 1774.2,149.5 1774.2,149.5 C1774.2,149.5 1776.9,149 1777.9,148.9 C1778.2,149.2 1777.9,149.8 1777.9,149.8 C1777.9,149.8 1780.2,149.4 1780.6,149.2 C1781.6,149.3 1782.9,149.8 1782.9,149.8 C1782.9,149.8 1784.6,149.4 1784.2,149.1 C1785.2,149.2 1786.2,149.6 1786.5,149.7 C1786.8,149.8 1787.5,149 1787.2,148.6 C1786.9,148.2 1790.9,149.3 1790.5,149.7 C1790.2,150.1 1793.2,148.8 1793.2,148.8 L1794.2,149.7 L1795.5,149.3 C1795.5,149.3 1797.2,149.7 1797.2,149.8 C1797.2,149.9 1798.5,149.5 1798.2,149.2 C1797.9,148.9 1801.2,149.9 1801.2,149.9 C1801.2,149.9 1802.9,149 1802.5,148.7 C1802.1,148.4 1805.2,149.8 1805.2,149.8 L1808.5,148.5 C1808.5,148.5 1808.5,149.4 1808.8,149.6 C1809.1,149.8 1811.8,149.1 1811.8,149.1 C1811.8,149.1 1813.1,149.7 1813.1,149.9 C1813.1,150.1 1815.8,149.8 1815.4,148.8 C1817.4,149 1819.1,149.8 1819.1,149.8 L1820.1,148.6 L1822.1,149.7 L1824.8,149.1 C1824.8,149.1 1826.8,149.7 1826.8,149.6 C1826.8,149.5 1827.8,148.8 1827.5,148.5 C1828.5,148.8 1830.5,149.7 1830.5,149.7 C1830.5,149.7 1831.8,148.4 1832.8,148 C1833.1,148.5 1833.8,149.6 1833.8,149.6 C1833.8,149.6 1835.5,149.4 1835.8,149 C1836.8,149.2 1837.5,149.8 1837.5,149.8 C1837.5,149.8 1839.8,149.4 1839.5,149.1 C1840.5,149.3 1840.5,149.7 1840.5,149.7 C1840.5,149.7 1843.2,149.5 1842.5,148.8 C1844.2,148.9 1845.8,149.5 1845.8,149.7 C1845.8,149.9 1848.5,148.8 1848.5,148.8 L1848.8,149.7 C1848.8,149.7 1851.8,149.1 1851.8,148.8 C1851.8,148.5 1853.1,149.6 1853.1,149.6 C1853.1,149.6 1856.1,148.7 1856.1,148 C1858.1,148.2 1856.8,149.6 1856.4,149.6 C1856.1,149.6 1858.1,148.9 1858.1,148.9 C1858.1,148.9 1859.8,149.6 1859.8,149.6 C1859.8,149.6 1860.8,149 1860.8,149 C1860.8,149 1863.1,149.3 1863.5,149.5 C1863.9,149.7 1865.5,149 1865.2,148.6 C1866.5,148.9 1866.9,149.6 1866.9,149.6 L1868.9,149.2 C1868.9,149.2 1869.9,149.8 1869.9,149.7 C1869.9,149.6 1871.6,149.2 1871.6,149 C1871.6,148.8 1873.9,149.8 1873.9,149.8 C1873.9,149.8 1875.6,148.9 1875.6,148.6 C1875.6,148.3 1877.6,149.7 1877.6,149.7 L1879.9,149.2 L1881.2,149.6 C1881.2,149.6 1883.2,149.4 1882.5,148.8 C1884.2,149 1886.2,149.6 1886.2,149.5 C1886.2,149.4 1888.5,148.3 1888.5,148.3 L1889.2,149.6 L1891.5,148.8 L1893.2,149.4 C1893.2,149.4 1895.5,148.8 1894.5,148.2 C1896.5,148.4 1897.8,149.5 1897.8,149.5 C1897.8,149.5 1899.8,148.9 1900.5,148.7 C1900.8,149 1900.8,149.6 1900.8,149.6 L1904.1,149 L1904.4,149.4 C1904.4,149.4 1906.1,149.3 1905.4,148.4 C1907.1,148.6 1907.7,149.5 1907.7,149.5 C1907.7,149.5 1909.4,148.6 1909.4,148.6 C1909.4,148.6 1910.7,149.5 1910.7,149.5 C1910.7,149.5 1912.7,148.8 1913.4,148.4 C1914.4,148.8 1914.1,149.5 1914.1,149.5 L1916.1,148.9 L1916.1,149.5 C1916.1,149.5 1918.1,149.1 1918.4,148.1 C1920.1,148.6 1918.7,149.6 1919.1,149.5 C1919.5,149.4 1922.1,148.5 1922.1,148.5 L1923.1,149.4 C1923.1,149.4 1925.8,149.3 1925.8,148.2 C1925.8,147.1 1928.5,149.4 1928.5,149.4 C1928.5,149.4 1930.2,148.6 1930.5,148.6 C1930.8,148.6 1932.8,149.6 1932.8,149.6 L1935.5,149.1 L1936.2,149.6 C1936.2,149.6 1938.2,149.3 1937.9,149 C1937.6,148.7 1940.6,149.6 1940.6,149.6 L1942.3,148.6 L1943.3,149.8 C1943.3,149.8 1945.6,149.4 1945.6,149.1 C1945.6,148.8 1947.6,149.7 1947.6,149.7 C1947.6,149.7 1949.3,149 1948.3,148.4 C1947.3,147.8 1951,149.8 1951,149.8 C1951,149.8 1952.7,148.9 1952.7,148.9 L1953.7,149.8 L1956,149.2 C1956,149.2 1956.3,149.9 1957,149.8 C1957.7,149.7 1960,149.7 1959.3,149.2 C1958.6,148.7 1961.3,149.8 1961.3,149.8 L1962.6,149.1 L1964.3,149.7 L1967.3,148.6 C1967.3,148.6 1967,149.7 1967.3,149.7 C1967.6,149.6 1970,149.1 1970,149.1 C1970,149.1 1970.5,149.6 1971.5,149.8" id="Shape"></path>
            <path d="M1355.7,150.2 C1355.7,150.2 1359.3,150 1358.3,149.8 C1357.3,149.6 1361.2,150.1 1361.2,150.1 L1362.5,149.2 C1362.5,149.2 1364.8,150 1364.5,150.1 C1364.2,150.2 1367.5,149.4 1367.8,149.3 C1368.1,149.2 1368.8,150.1 1369.5,150.2 C1370.2,150.3 1370.8,149.6 1370.8,149.6 L1372.5,150.3 C1372.5,150.3 1374.5,149.6 1374.2,149.2 C1373.9,148.8 1376.5,150.1 1376.5,150.1 L1378.2,149.5 L1378.9,150.2 C1378.9,150.2 1381.2,149.6 1382.2,149.4 C1383.2,149.2 1382.9,150.1 1383.2,150.1 C1383.5,150.1 1384.5,149.4 1384.5,149.4 L1386.2,150 C1386.2,150 1387.9,149.4 1387.2,148.9 C1388.2,149 1390.5,149.9 1390.5,150 C1390.5,150.1 1392.5,149.4 1392.5,149.4 L1394.2,150.1 C1394.2,150.1 1395.9,149.7 1395.5,149.2 C1396.2,149.1 1397.2,150.1 1397.2,150.1 L1400.5,149.5 L1401.2,150.1 C1401.2,150.1 1403.5,149.7 1403.2,149.4 C1403.9,149.5 1404.9,150 1404.9,150 C1404.9,150 1407.6,149.4 1406.6,148.8 C1408.6,149.2 1409.6,150.2 1409.6,150.2 L1412.3,149.5 C1412.3,149.5 1413.6,150.3 1413.6,150.2 C1413.6,150.1 1415.9,149.3 1415.9,149.3 L1417.9,150 C1417.9,150 1419.2,149 1418.2,148.4 C1420.5,148.8 1421.9,150.1 1421.9,150.1 C1421.9,150.1 1423.9,149.4 1425.6,149 C1425.9,149.2 1426.6,150 1426.6,150 C1426.6,150 1428.9,149.3 1430.3,149.4 C1431.6,149.5 1432.3,149.6 1432.3,150 C1434,149.5 1434.3,148.8 1433,148.6 C1434.3,148.4 1437.4,149.7 1437.4,149.7 L1440.7,149.1 C1440.7,149.1 1441,150.2 1441.7,150.2 C1442.4,150.3 1444.4,149.4 1444.4,149.4 L1446.4,149.9 C1446.4,149.9 1447.4,148.9 1446.4,148.5 C1448.4,149.1 1449.7,149.7 1449.7,149.9 C1449.7,150.1 1453.4,149.2 1453.4,149.2 C1453.4,149.2 1455.1,149.8 1454.7,150 C1454.4,150.2 1456.4,149.9 1456.7,149.5 C1457,149.1 1459.4,150 1459.4,150 C1459.4,150 1460.7,149.3 1459.7,148.4 C1461.4,149.1 1462.7,149.9 1462.7,149.9 C1462.7,149.9 1465,149.2 1464.7,148.8 C1466,149.4 1466.4,149.9 1466.4,149.9 C1466.4,149.9 1469.1,149.4 1470.1,149.3 C1470.4,149.6 1470.1,150.2 1470.1,150.2 C1470.1,150.2 1472.4,149.8 1472.8,149.6 C1473.8,149.7 1475.1,150.2 1475.1,150.2 C1475.1,150.2 1476.8,149.8 1476.4,149.5 C1477.4,149.6 1478.4,150 1478.7,150.1 C1479,150.2 1479.7,149.4 1479.4,149 C1479.1,148.6 1483.1,149.7 1482.7,150.1 C1482.3,150.5 1485.4,149.2 1485.4,149.2 L1486.4,150.1 L1487.7,149.7 C1487.7,149.7 1489.4,150.1 1489.4,150.2 C1489.4,150.3 1490.7,149.9 1490.4,149.6 C1490.1,149.3 1493.4,150.3 1493.4,150.3 C1493.4,150.3 1495.1,149.4 1494.7,149.1 C1494.3,148.8 1497.4,150.2 1497.4,150.2 L1500.7,148.9 C1500.7,148.9 1500.7,149.8 1501,150 C1501.3,150.2 1504,149.5 1504,149.5 C1504,149.5 1505.3,150.1 1505.3,150.3 C1505.3,150.5 1508,150.2 1507.6,149.2 C1509.6,149.4 1511.3,150.2 1511.3,150.2 L1512.3,149 L1514.3,150.1 L1517,149.5 C1517,149.5 1519,150.1 1519,150 C1519,149.9 1520,149.2 1519.7,148.9 C1520.7,149.2 1522.7,150.1 1522.7,150.1 C1522.7,150.1 1524,148.8 1525,148.4 C1525.3,148.9 1526,150 1526,150 C1526,150 1527.7,149.8 1528,149.4 C1529,149.6 1529.7,150.2 1529.7,150.2 C1529.7,150.2 1532,149.8 1531.7,149.5 C1532.7,149.7 1532.7,150.1 1532.7,150.1 C1532.7,150.1 1535.4,149.9 1534.7,149.2 C1536.4,149.3 1538,149.9 1538,150.1 C1538,150.3 1540.7,149.2 1540.7,149.2 L1541,150.1 C1541,150.1 1544,149.5 1544,149.2 C1544,148.9 1545.3,150 1545.3,150 C1545.3,150 1548.3,149.1 1548.3,148.4 C1550.3,148.6 1549,150 1548.6,150 C1548.2,150 1550.3,149.3 1550.3,149.3 C1550.3,149.3 1552,150 1552,150 C1552,150 1553,149.4 1553,149.4 C1553,149.4 1555.3,149.7 1555.7,149.9 C1556,150.1 1557.7,149.4 1557.4,149 C1558.7,149.3 1559.1,150 1559.1,150 L1561.1,149.6 C1561.1,149.6 1562.1,150.2 1562.1,150.1 C1562.1,150 1563.8,149.6 1563.8,149.4 C1563.8,149.2 1566.1,150.2 1566.1,150.2 C1566.1,150.2 1567.8,149.3 1567.8,149 C1567.8,148.7 1569.8,150.1 1569.8,150.1 L1572.1,149.6 L1573.4,150 C1573.4,150 1575.4,149.8 1574.7,149.2 C1576.4,149.4 1578.4,150 1578.4,149.9 C1578.4,149.8 1580.7,148.7 1580.7,148.7 L1581.4,150 L1583.7,149.2 L1585.4,149.8 C1585.4,149.8 1587.7,149.2 1586.7,148.6 C1588.7,148.8 1590,149.9 1590,149.9 C1590,149.9 1592,149.3 1592.7,149.1 C1593,149.4 1593,150 1593,150 L1596.3,149.4 L1596.6,149.8 C1596.6,149.8 1598.3,149.7 1597.6,148.8 C1599.3,149 1599.9,149.9 1599.9,149.9 C1599.9,149.9 1601.6,149 1601.6,149 C1601.6,149 1602.9,149.9 1602.9,149.9 C1602.9,149.9 1604.9,149.2 1605.6,148.8 C1606.6,149.2 1606.3,149.9 1606.3,149.9 L1608.3,149.3 L1608.3,149.9 C1608.3,149.9 1610.3,149.5 1610.6,148.5 C1612.3,149 1610.9,150 1611.3,149.9 C1611.7,149.8 1614.3,148.9 1614.3,148.9 L1615.3,149.8 C1615.3,149.8 1618,149.7 1618,148.6 C1618,147.5 1620.7,149.8 1620.7,149.8 C1620.7,149.8 1622.4,149 1622.7,149 C1623,149 1625,150 1625,150 L1627.7,149.5 L1628.4,150 C1628.4,150 1630.4,149.7 1630.1,149.4 C1629.8,149.1 1632.8,150 1632.8,150 L1634.5,149 L1635.5,150.2 C1635.5,150.2 1637.8,149.8 1637.8,149.5 C1637.8,149.2 1639.8,150.1 1639.8,150.1 C1639.8,150.1 1641.5,149.4 1640.5,148.8 C1639.5,148.2 1643.2,150.2 1643.2,150.2 C1643.2,150.2 1644.9,149.3 1644.9,149.3 L1645.9,150.2 L1648.2,149.6 C1648.2,149.6 1648.5,150.3 1649.2,150.2 C1649.9,150.1 1652.2,150.1 1651.5,149.6 C1650.8,149.1 1653.5,150.2 1653.5,150.2 L1654.8,149.5 L1656.5,150.1 L1659.5,149 C1659.5,149 1659.2,150.1 1659.5,150.1 C1659.8,150 1662.2,149.5 1662.2,149.5 C1662.2,149.5 1661.5,149.9 1662.5,150.1" id="Shape"></path>
            <path d="M1045.8,150.8 C1045.8,150.8 1049.4,150.6 1048.4,150.4 C1047.4,150.2 1051.3,150.7 1051.3,150.7 L1052.6,149.8 C1052.6,149.8 1054.9,150.6 1054.6,150.7 C1054.3,150.8 1057.6,150 1057.9,149.9 C1058.2,149.8 1058.9,150.7 1059.6,150.8 C1060.3,150.9 1060.9,150.2 1060.9,150.2 L1062.6,150.9 C1062.6,150.9 1064.6,150.2 1064.3,149.8 C1064,149.4 1066.6,150.7 1066.6,150.7 L1068.3,150.1 L1069,150.8 C1069,150.8 1071.3,150.2 1072.3,150 C1073.3,149.8 1073,150.7 1073.3,150.7 C1073.6,150.8 1074.6,150 1074.6,150 L1076.3,150.6 C1076.3,150.6 1078,150 1077.3,149.5 C1078.3,149.6 1080.6,150.5 1080.6,150.6 C1080.6,150.7 1082.6,150 1082.6,150 L1084.3,150.7 C1084.3,150.7 1086,150.3 1085.6,149.8 C1086.3,149.7 1087.3,150.7 1087.3,150.7 L1090.6,150.1 L1091.3,150.7 C1091.3,150.7 1093.6,150.3 1093.3,150 C1094,150.1 1095,150.6 1095,150.6 C1095,150.6 1097.7,150 1096.7,149.4 C1098.7,149.8 1099.7,150.8 1099.7,150.8 L1102.4,150.1 C1102.4,150.1 1103.7,150.9 1103.7,150.8 C1103.7,150.7 1106,149.9 1106,149.9 L1108,150.6 C1108,150.6 1109.3,149.6 1108.3,149 C1110.6,149.4 1112,150.7 1112,150.7 C1112,150.7 1114,150 1115.7,149.6 C1116,149.8 1116.7,150.6 1116.7,150.6 C1116.7,150.6 1119,149.9 1120.4,150 C1121.7,150.1 1122.4,150.2 1122.4,150.6 C1124.1,150.1 1124.4,149.4 1123.1,149.2 C1124.4,149 1127.5,150.3 1127.5,150.3 L1130.8,149.7 C1130.8,149.7 1131.1,150.8 1131.8,150.8 C1132.5,150.9 1134.5,150 1134.5,150 L1136.5,150.5 C1136.5,150.5 1137.5,149.5 1136.5,149.1 C1138.5,149.7 1139.8,150.3 1139.8,150.5 C1139.8,150.7 1143.5,149.8 1143.5,149.8 C1143.5,149.8 1145.2,150.4 1144.8,150.6 C1144.4,150.8 1146.5,150.5 1146.8,150.1 C1147.1,149.7 1149.5,150.6 1149.5,150.6 C1149.5,150.6 1150.8,149.9 1149.8,149 C1151.5,149.7 1152.8,150.5 1152.8,150.5 C1152.8,150.5 1155.1,149.8 1154.8,149.4 C1156.1,150 1156.5,150.5 1156.5,150.5 C1156.5,150.5 1159.2,150 1160.2,149.9 C1160.5,150.2 1160.2,150.8 1160.2,150.8 C1160.2,150.8 1162.5,150.4 1162.9,150.2 C1163.9,150.3 1165.2,150.8 1165.2,150.8 C1165.2,150.8 1166.9,150.4 1166.5,150.1 C1167.5,150.2 1168.5,150.6 1168.8,150.7 C1169.1,150.8 1169.8,150 1169.5,149.6 C1169.2,149.2 1173.2,150.3 1172.8,150.7 C1172.4,151.1 1175.5,149.8 1175.5,149.8 L1176.5,150.7 L1177.8,150.3 C1177.8,150.3 1179.5,150.7 1179.5,150.8 C1179.5,150.9 1180.8,150.5 1180.5,150.2 C1180.2,150 1183.5,150.9 1183.5,150.9 C1183.5,150.9 1185.2,150 1184.8,149.7 C1184.5,149.4 1187.5,150.8 1187.5,150.8 L1190.8,149.5 C1190.8,149.5 1190.8,150.4 1191.1,150.6 C1191.4,150.8 1194.1,150.1 1194.1,150.1 C1194.1,150.1 1195.4,150.7 1195.4,150.9 C1195.4,151.1 1198.1,150.8 1197.7,149.8 C1199.7,150 1201.4,150.8 1201.4,150.8 L1202.4,149.6 L1204.4,150.7 L1207.1,150.1 C1207.1,150.1 1209.1,150.7 1209.1,150.6 C1209.1,150.5 1210.1,149.8 1209.8,149.5 C1210.8,149.8 1212.8,150.7 1212.8,150.7 C1212.8,150.7 1214.1,149.4 1215.1,149 C1215.4,149.5 1216.1,150.6 1216.1,150.6 C1216.1,150.6 1217.8,150.4 1218.1,150 C1219.1,150.2 1219.8,150.8 1219.8,150.8 C1219.8,150.8 1222.1,150.4 1221.8,150.1 C1222.8,150.3 1222.8,150.7 1222.8,150.7 C1222.8,150.7 1225.5,150.5 1224.8,149.8 C1226.5,149.9 1228.1,150.5 1228.1,150.7 C1228.1,150.9 1230.8,149.8 1230.8,149.8 L1231.1,150.7 C1231.1,150.7 1234.1,150.1 1234.1,149.8 C1234.1,149.5 1235.4,150.6 1235.4,150.6 C1235.4,150.6 1238.4,149.7 1238.4,149 C1240.4,149.2 1239.1,150.6 1238.7,150.6 C1238.4,150.6 1240.4,149.9 1240.4,149.9 C1240.4,149.9 1242.1,150.6 1242.1,150.6 C1242.1,150.6 1243.1,150 1243.1,150 C1243.1,150 1245.4,150.3 1245.8,150.5 C1246.2,150.7 1247.8,150 1247.5,149.6 C1248.8,149.9 1249.2,150.6 1249.2,150.6 L1251.2,150.2 C1251.2,150.2 1252.2,150.8 1252.2,150.7 C1252.2,150.6 1253.9,150.2 1253.9,150 C1253.9,149.8 1256.2,150.8 1256.2,150.8 C1256.2,150.8 1257.9,149.9 1257.9,149.6 C1257.9,149.3 1259.9,150.7 1259.9,150.7 L1262.2,150.2 L1263.5,150.6 C1263.5,150.6 1265.5,150.4 1264.8,149.8 C1266.5,150 1268.5,150.6 1268.5,150.5 C1268.5,150.4 1270.8,149.3 1270.8,149.3 L1271.5,150.6 L1273.8,149.8 L1275.5,150.4 C1275.5,150.4 1277.8,149.8 1276.8,149.2 C1278.8,149.4 1280.1,150.5 1280.1,150.5 C1280.1,150.5 1282.1,149.9 1282.8,149.7 C1283.1,150 1283.1,150.6 1283.1,150.6 L1286.4,150 L1286.7,150.4 C1286.7,150.4 1288.4,150.3 1287.7,149.4 C1289.4,149.6 1290,150.5 1290,150.5 C1290,150.5 1291.7,149.6 1291.7,149.6 C1291.7,149.6 1293,150.5 1293,150.5 C1293,150.5 1295,149.8 1295.7,149.4 C1296.7,149.8 1296.4,150.5 1296.4,150.5 L1298.4,149.9 L1298.4,150.5 C1298.4,150.5 1300.4,150.1 1300.7,149.1 C1302.4,149.6 1301,150.6 1301.4,150.5 C1301.8,150.4 1304.4,149.5 1304.4,149.5 L1305.4,150.4 C1305.4,150.4 1308.1,150.3 1308.1,149.2 C1308.1,148.1 1310.8,150.4 1310.8,150.4 C1310.8,150.4 1312.5,149.6 1312.8,149.6 C1313.1,149.6 1315.1,150.6 1315.1,150.6 L1317.8,150.1 L1318.5,150.6 C1318.5,150.6 1320.5,150.3 1320.2,150 C1319.9,149.7 1322.9,150.6 1322.9,150.6 L1324.6,149.6 L1325.6,150.8 C1325.6,150.8 1327.9,150.4 1327.9,150.1 C1327.9,149.8 1329.9,150.7 1329.9,150.7 C1329.9,150.7 1331.6,150 1330.6,149.4 C1329.6,148.8 1333.3,150.8 1333.3,150.8 C1333.3,150.8 1335,149.9 1335,149.9 L1336,150.8 L1338.3,150.2 C1338.3,150.2 1338.6,150.9 1339.3,150.8 C1340,150.7 1342.3,150.7 1341.6,150.2 C1340.9,149.7 1343.6,150.8 1343.6,150.8 L1344.9,150.1 L1346.6,150.7 L1349.6,149.6 C1349.6,149.6 1349.3,150.7 1349.6,150.7 C1349.9,150.7 1352.3,150.1 1352.3,150.1 C1352.3,150.1 1351.6,150.5 1352.6,150.7" id="Shape"></path>
            <path d="M736,151 C736,151 739.6,150.8 738.6,150.6 C737.6,150.4 741.5,150.9 741.5,150.9 L742.8,150 C742.8,150 745.1,150.8 744.8,150.9 C744.5,151 747.8,150.2 748.1,150.1 C748.4,150 749.1,150.9 749.8,151 C750.5,151.1 751.1,150.4 751.1,150.4 L752.8,151.1 C752.8,151.1 754.8,150.4 754.5,150 C754.2,149.6 756.8,150.9 756.8,150.9 L758.5,150.3 L759.2,151 C759.2,151 761.5,150.4 762.5,150.2 C763.5,150 763.2,150.9 763.5,150.9 C763.8,150.9 764.8,150.2 764.8,150.2 L766.5,150.8 C766.5,150.8 768.2,150.2 767.5,149.7 C768.5,149.8 770.8,150.7 770.8,150.8 C770.8,150.9 772.8,150.2 772.8,150.2 L774.5,150.9 C774.5,150.9 776.2,150.5 775.8,150 C776.5,149.9 777.5,150.9 777.5,150.9 L780.8,150.3 L781.5,150.9 C781.5,150.9 783.8,150.5 783.5,150.2 C784.2,150.3 785.2,150.8 785.2,150.8 C785.2,150.8 787.9,150.2 786.9,149.6 C788.9,150 789.9,151 789.9,151 L792.6,150.3 C792.6,150.3 793.9,151.1 793.9,151 C793.9,150.9 796.2,150.1 796.2,150.1 L798.2,150.8 C798.2,150.8 799.5,149.8 798.5,149.2 C800.8,149.6 802.2,150.9 802.2,150.9 C802.2,150.9 804.2,150.2 805.9,149.8 C806.2,150 806.9,150.8 806.9,150.8 C806.9,150.8 809.2,150.1 810.6,150.2 C811.9,150.3 812.6,150.4 812.6,150.8 C814.3,150.3 814.6,149.6 813.3,149.4 C814.6,149.2 817.7,150.5 817.7,150.5 L821,149.9 C821,149.9 821.3,151 822,151 C822.7,151.1 824.7,150.2 824.7,150.2 L826.7,150.7 C826.7,150.7 827.7,149.7 826.7,149.3 C828.7,149.9 830,150.5 830,150.7 C830,150.9 833.7,150 833.7,150 C833.7,150 835.4,150.6 835,150.8 C834.7,151 836.7,150.7 837,150.3 C837.3,149.9 839.7,150.8 839.7,150.8 C839.7,150.8 841,150.1 840,149.2 C841.7,149.9 843,150.7 843,150.7 C843,150.7 845.3,150 845,149.6 C846.3,150.2 846.7,150.7 846.7,150.7 C846.7,150.7 849.4,150.2 850.4,150.1 C850.7,150.4 850.4,151 850.4,151 C850.4,151 852.7,150.6 853.1,150.4 C854.1,150.5 855.4,151 855.4,151 C855.4,151 857.1,150.6 856.7,150.3 C857.7,150.4 858.7,150.8 859,150.9 C859.3,151 860,150.2 859.7,149.8 C859.4,149.4 863.4,150.5 863,150.9 C862.7,151.3 865.7,150 865.7,150 L866.7,150.9 L868,150.5 C868,150.5 869.7,150.9 869.7,151 C869.7,151.1 871,150.7 870.7,150.4 C870.4,150.1 873.7,151.1 873.7,151.1 C873.7,151.1 875.4,150.2 875,149.9 C874.7,149.6 877.7,151 877.7,151 L881,149.7 C881,149.7 881,150.6 881.3,150.8 C881.6,150.9 884.3,150.3 884.3,150.3 C884.3,150.3 885.6,150.9 885.6,151.1 C885.6,151.3 888.3,151 887.9,150 C889.9,150.2 891.6,151 891.6,151 L892.6,149.8 L894.6,150.9 L897.3,150.3 C897.3,150.3 899.3,150.9 899.3,150.8 C899.3,150.7 900.3,150 900,149.7 C901,150 903,150.9 903,150.9 C903,150.9 904.3,149.6 905.3,149.2 C905.6,149.7 906.3,150.8 906.3,150.8 C906.3,150.8 908,150.6 908.3,150.2 C909.3,150.4 910,151 910,151 C910,151 912.3,150.6 912,150.3 C913,150.5 913,150.9 913,150.9 C913,150.9 915.7,150.7 915,150 C916.7,150.1 918.3,150.7 918.3,150.9 C918.3,151.1 921,150 921,150 L921.3,150.9 C921.3,150.9 924.3,150.3 924.3,150 C924.3,149.7 925.6,150.8 925.6,150.8 C925.6,150.8 928.6,149.9 928.6,149.2 C930.6,149.4 929.3,150.8 928.9,150.8 C928.5,150.8 930.6,150.1 930.6,150.1 C930.6,150.1 932.3,150.8 932.3,150.8 C932.3,150.8 933.3,150.2 933.3,150.2 C933.3,150.2 935.6,150.5 936,150.7 C936.3,150.9 938,150.2 937.7,149.8 C939,150.1 939.4,150.8 939.4,150.8 L941.4,150.4 C941.4,150.4 942.4,151 942.4,150.9 C942.4,150.8 944.1,150.4 944.1,150.2 C944.1,150 946.4,151 946.4,151 C946.4,151 948.1,150.1 948.1,149.8 C948.1,149.5 950.1,150.9 950.1,150.9 L952.4,150.4 L953.7,150.8 C953.7,150.8 955.7,150.6 955,150 C956.7,150.2 958.7,150.8 958.7,150.7 C958.7,150.6 961,149.5 961,149.5 L961.7,150.8 L964,150 L965.7,150.6 C965.7,150.6 968,150 967,149.4 C969,149.6 970.3,150.7 970.3,150.7 C970.3,150.7 972.3,150.1 973,149.9 C973.3,150.2 973.3,150.8 973.3,150.8 L976.6,150.2 L976.9,150.6 C976.9,150.6 978.6,150.5 977.9,149.6 C979.6,149.8 980.2,150.7 980.2,150.7 C980.2,150.7 981.9,149.8 981.9,149.8 C981.9,149.8 983.2,150.7 983.2,150.7 C983.2,150.7 985.2,150 985.9,149.6 C986.9,150 986.6,150.7 986.6,150.7 L988.6,150.1 L988.6,150.7 C988.6,150.7 990.6,150.3 990.9,149.3 C992.6,149.8 991.2,150.8 991.6,150.7 C992,150.6 994.6,149.7 994.6,149.7 L995.6,150.6 C995.6,150.6 998.3,150.5 998.3,149.4 C998.3,148.3 1001,150.6 1001,150.6 C1001,150.6 1002.7,149.8 1003,149.8 C1003.3,149.8 1005.3,150.8 1005.3,150.8 L1008,150.3 L1008.7,150.8 C1008.7,150.8 1010.7,150.5 1010.4,150.2 C1010.1,149.9 1013.1,150.8 1013.1,150.8 L1014.8,149.8 L1015.8,151 C1015.8,151 1018.1,150.6 1018.1,150.3 C1018.1,150 1020.1,150.9 1020.1,150.9 C1020.1,150.9 1021.8,150.2 1020.8,149.6 C1019.8,149 1023.5,151 1023.5,151 C1023.5,151 1025.2,150.1 1025.2,150.1 L1026.2,151 L1028.5,150.4 C1028.5,150.4 1028.8,151.1 1029.5,151 C1030.2,150.9 1032.5,150.9 1031.8,150.4 C1031.1,149.9 1033.8,151 1033.8,151 L1035.1,150.3 L1036.8,150.9 L1039.8,149.8 C1039.8,149.8 1039.5,150.9 1039.8,150.9 C1040.1,150.8 1042.5,150.3 1042.5,150.3 C1042.5,150.3 1043,150.8 1044,151" id="Shape"></path>
            <path d="M428.1,151.4 C428.1,151.4 431.7,151.2 430.7,151 C429.7,150.8 433.6,151.3 433.6,151.3 L434.9,150.4 C434.9,150.4 437.2,151.2 436.9,151.3 C436.6,151.4 439.9,150.6 440.2,150.5 C440.5,150.4 441.2,151.3 441.9,151.4 C442.6,151.5 443.2,150.8 443.2,150.8 L444.9,151.5 C444.9,151.5 446.9,150.8 446.6,150.4 C446.3,150 448.9,151.3 448.9,151.3 L450.6,150.7 L451.3,151.4 C451.3,151.4 453.6,150.8 454.6,150.6 C455.6,150.4 455.3,151.3 455.6,151.3 C455.9,151.4 456.9,150.6 456.9,150.6 L458.6,151.2 C458.6,151.2 460.3,150.6 459.6,150.1 C460.6,150.2 462.9,151.1 462.9,151.2 C462.9,151.3 464.9,150.6 464.9,150.6 L466.6,151.3 C466.6,151.3 468.3,150.9 467.9,150.4 C468.6,150.3 469.6,151.3 469.6,151.3 L472.9,150.7 L473.6,151.3 C473.6,151.3 475.9,150.9 475.6,150.6 C476.3,150.7 477.3,151.2 477.3,151.2 C477.3,151.2 480,150.6 479,150 C481,150.4 482,151.4 482,151.4 L484.7,150.7 C484.7,150.7 486,151.5 486,151.4 C486,151.3 488.3,150.5 488.3,150.5 L490.3,151.2 C490.3,151.2 491.6,150.2 490.6,149.6 C492.9,150 494.3,151.3 494.3,151.3 C494.3,151.3 496.3,150.6 498,150.2 C498.3,150.4 499,151.2 499,151.2 C499,151.2 501.3,150.5 502.7,150.6 C504,150.7 504.7,150.8 504.7,151.2 C506.4,150.7 506.7,150 505.4,149.8 C506.7,149.6 509.8,150.9 509.8,150.9 L513.1,150.3 C513.1,150.3 513.4,151.4 514.1,151.4 C514.8,151.5 516.8,150.6 516.8,150.6 L518.8,151.1 C518.8,151.1 519.8,150.1 518.8,149.7 C520.8,150.3 522.1,150.9 522.1,151.1 C522.1,151.3 525.8,150.4 525.8,150.4 C525.8,150.4 527.5,151 527.1,151.2 C526.7,151.4 528.8,151.1 529.1,150.7 C529.4,150.3 531.8,151.2 531.8,151.2 C531.8,151.2 533.1,150.5 532.1,149.6 C533.8,150.3 535.1,151.1 535.1,151.1 C535.1,151.1 537.4,150.4 537.1,150 C538.4,150.6 538.8,151.1 538.8,151.1 C538.8,151.1 541.5,150.6 542.5,150.5 C542.8,150.8 542.5,151.4 542.5,151.4 C542.5,151.4 544.8,151 545.2,150.8 C546.2,150.9 547.5,151.4 547.5,151.4 C547.5,151.4 549.2,151 548.8,150.7 C549.8,150.8 550.8,151.2 551.1,151.3 C551.4,151.4 552.1,150.6 551.8,150.2 C551.5,149.8 555.5,150.9 555.1,151.3 C554.8,151.7 557.8,150.4 557.8,150.4 L558.8,151.3 L560.1,150.9 C560.1,150.9 561.8,151.3 561.8,151.4 C561.8,151.5 563.1,151.1 562.8,150.8 C562.5,150.6 565.8,151.5 565.8,151.5 C565.8,151.5 567.5,150.6 567.1,150.3 C566.8,150 569.8,151.4 569.8,151.4 L573.1,150.1 C573.1,150.1 573.1,151 573.4,151.2 C573.7,151.3 576.4,150.7 576.4,150.7 C576.4,150.7 577.7,151.3 577.7,151.5 C577.7,151.7 580.4,151.4 580,150.4 C582,150.6 583.7,151.4 583.7,151.4 L584.7,150.2 L586.7,151.3 L589.4,150.7 C589.4,150.7 591.4,151.3 591.4,151.2 C591.4,151.1 592.4,150.4 592.1,150.1 C593.1,150.4 595.1,151.3 595.1,151.3 C595.1,151.3 596.4,150 597.4,149.6 C597.7,150.1 598.4,151.2 598.4,151.2 C598.4,151.2 600.1,151 600.4,150.6 C601.4,150.8 602.1,151.4 602.1,151.4 C602.1,151.4 604.4,151 604.1,150.7 C605.1,150.9 605.1,151.3 605.1,151.3 C605.1,151.3 607.8,151.1 607.1,150.4 C608.8,150.5 610.4,151.1 610.4,151.3 C610.4,151.5 613.1,150.4 613.1,150.4 L613.4,151.3 C613.4,151.3 616.4,150.7 616.4,150.4 C616.4,150.1 617.7,151.2 617.7,151.2 C617.7,151.2 620.7,150.3 620.7,149.6 C622.7,149.8 621.4,151.2 621,151.2 C620.7,151.2 622.7,150.5 622.7,150.5 C622.7,150.5 624.4,151.2 624.4,151.2 C624.4,151.2 625.4,150.6 625.4,150.6 C625.4,150.6 627.7,150.9 628.1,151.1 C628.5,151.3 630.1,150.6 629.8,150.2 C631.1,150.5 631.5,151.2 631.5,151.2 L633.5,150.8 C633.5,150.8 634.5,151.4 634.5,151.3 C634.5,151.2 636.2,150.8 636.2,150.6 C636.2,150.4 638.5,151.4 638.5,151.4 C638.5,151.4 640.2,150.5 640.2,150.2 C640.2,149.9 642.2,151.3 642.2,151.3 L644.5,150.8 L645.8,151.2 C645.8,151.2 647.8,151 647.1,150.4 C648.8,150.6 650.8,151.2 650.8,151.1 C650.8,151 653.1,149.9 653.1,149.9 L653.8,151.2 L656.1,150.4 L657.8,151 C657.8,151 660.1,150.4 659.1,149.8 C661.1,150 662.4,151.1 662.4,151.1 C662.4,151.1 664.4,150.5 665.1,150.3 C665.4,150.6 665.4,151.2 665.4,151.2 L668.7,150.6 L669,151 C669,151 670.7,150.9 670,150 C671.7,150.2 672.3,151.1 672.3,151.1 C672.3,151.1 674,150.2 674,150.2 C674,150.2 675.3,151.1 675.3,151.1 C675.3,151.1 677.3,150.4 678,150 C679,150.4 678.7,151.1 678.7,151.1 L680.7,150.5 L680.7,151.1 C680.7,151.1 682.7,150.7 683,149.7 C684.7,150.2 683.3,151.2 683.7,151.1 C684,151 686.7,150.1 686.7,150.1 L687.7,151 C687.7,151 690.4,150.9 690.4,149.8 C690.4,148.7 693.1,151 693.1,151 C693.1,151 694.8,150.2 695.1,150.2 C695.4,150.2 697.4,151.2 697.4,151.2 L700.1,150.7 L700.8,151.2 C700.8,151.2 702.8,150.9 702.5,150.6 C702.2,150.3 705.2,151.2 705.2,151.2 L706.9,150.2 L707.9,151.4 C707.9,151.4 710.2,151 710.2,150.7 C710.2,150.4 712.2,151.3 712.2,151.3 C712.2,151.3 713.9,150.6 712.9,150 C711.9,149.4 715.6,151.4 715.6,151.4 C715.6,151.4 717.3,150.5 717.3,150.5 L718.3,151.4 L720.6,150.8 C720.6,150.8 720.9,151.5 721.6,151.4 C722.3,151.3 724.6,151.3 723.9,150.8 C723.2,150.4 725.9,151.4 725.9,151.4 L727.2,150.7 L728.9,151.3 L731.9,150.2 C731.9,150.2 731.6,151.3 731.9,151.3 C732.2,151.3 734.6,150.7 734.6,150.7 C734.6,150.7 733.9,151.1 734.9,151.3" id="Shape"></path>
            <path d="M120.2,152 C120.2,152 123.8,151.8 122.8,151.6 C121.8,151.4 125.7,151.9 125.7,151.9 L127,151 C127,151 129.3,151.8 129,151.9 C128.7,152 132,151.2 132.3,151.1 C132.6,151 133.3,151.9 134,152 C134.7,152.1 135.3,151.4 135.3,151.4 L137,152.1 C137,152.1 139,151.4 138.7,151 C138.4,150.6 141,151.9 141,151.9 L142.7,151.3 L143.4,152 C143.4,152 145.7,151.4 146.7,151.2 C147.7,151 147.4,151.9 147.7,151.9 C148,151.9 149,151.2 149,151.2 L150.7,151.8 C150.7,151.8 152.4,151.2 151.7,150.7 C152.7,150.8 155,151.7 155,151.8 C155,151.9 157,151.2 157,151.2 L158.7,151.9 C158.7,151.9 160.4,151.5 160,151 C160.7,150.9 161.7,151.9 161.7,151.9 L165,151.3 L165.7,151.9 C165.7,151.9 168,151.5 167.7,151.2 C168.4,151.3 169.4,151.8 169.4,151.8 C169.4,151.8 172.1,151.2 171.1,150.6 C173.1,151 174.1,152 174.1,152 L176.8,151.3 C176.8,151.3 178.1,152.1 178.1,152 C178.1,151.9 180.4,151.1 180.4,151.1 L182.4,151.8 C182.4,151.8 183.7,150.8 182.7,150.2 C185,150.6 186.4,151.9 186.4,151.9 C186.4,151.9 188.4,151.2 190.1,150.8 C190.4,151 191.1,151.8 191.1,151.8 C191.1,151.8 193.4,151.1 194.8,151.2 C196.1,151.3 196.8,151.4 196.8,151.8 C198.5,151.3 198.8,150.6 197.5,150.4 C198.8,150.2 201.9,151.5 201.9,151.5 L205.2,150.9 C205.2,150.9 205.5,152 206.2,152 C206.9,152.1 208.9,151.2 208.9,151.2 L210.9,151.7 C210.9,151.7 211.9,150.7 210.9,150.3 C212.9,150.9 214.2,151.5 214.2,151.7 C214.2,151.9 217.9,151 217.9,151 C217.9,151 219.6,151.6 219.2,151.8 C218.9,152 220.9,151.7 221.2,151.3 C221.5,150.9 223.9,151.8 223.9,151.8 C223.9,151.8 225.2,151.1 224.2,150.2 C225.9,150.9 227.2,151.7 227.2,151.7 C227.2,151.7 229.5,151 229.2,150.6 C230.5,151.2 230.9,151.7 230.9,151.7 C230.9,151.7 233.6,151.2 234.6,151.1 C234.9,151.4 234.6,152 234.6,152 C234.6,152 236.9,151.6 237.3,151.4 C238.3,151.5 239.6,152 239.6,152 C239.6,152 241.3,151.6 240.9,151.3 C241.9,151.4 242.9,151.8 243.2,151.9 C243.5,152 244.2,151.2 243.9,150.8 C243.6,150.4 247.6,151.5 247.2,151.9 C246.8,152.3 249.9,151 249.9,151 L250.9,151.9 L252.2,151.5 C252.2,151.5 253.9,151.9 253.9,152 C253.9,152.1 255.2,151.7 254.9,151.4 C254.6,151.2 257.9,152.1 257.9,152.1 C257.9,152.1 259.6,151.2 259.2,150.9 C258.9,150.6 261.9,152 261.9,152 L265.2,150.7 C265.2,150.7 265.2,151.6 265.5,151.8 C265.8,151.9 268.5,151.3 268.5,151.3 C268.5,151.3 269.8,151.9 269.8,152.1 C269.8,152.3 272.5,152 272.1,151 C274.1,151.2 275.8,152 275.8,152 L276.8,150.8 L278.8,151.9 L281.5,151.3 C281.5,151.3 283.5,151.9 283.5,151.8 C283.5,151.7 284.5,151 284.2,150.7 C285.2,151 287.2,151.9 287.2,151.9 C287.2,151.9 288.5,150.6 289.5,150.2 C289.8,150.7 290.5,151.8 290.5,151.8 C290.5,151.8 292.2,151.6 292.5,151.2 C293.5,151.4 294.2,152 294.2,152 C294.2,152 296.5,151.6 296.2,151.3 C297.2,151.5 297.2,151.9 297.2,151.9 C297.2,151.9 299.9,151.7 299.2,151 C300.9,151.1 302.5,151.7 302.5,151.9 C302.5,152.1 305.2,151 305.2,151 L305.5,151.9 C305.5,151.9 308.5,151.3 308.5,151 C308.5,150.7 309.8,151.8 309.8,151.8 C309.8,151.8 312.8,150.9 312.8,150.2 C314.8,150.4 313.5,151.8 313.1,151.8 C312.8,151.8 314.8,151.1 314.8,151.1 C314.8,151.1 316.5,151.8 316.5,151.8 C316.5,151.8 317.5,151.2 317.5,151.2 C317.5,151.2 319.8,151.5 320.2,151.7 C320.5,151.9 322.2,151.2 321.9,150.8 C323.2,151.1 323.6,151.8 323.6,151.8 L325.6,151.4 C325.6,151.4 326.6,152 326.6,151.9 C326.6,151.8 328.3,151.4 328.3,151.2 C328.3,151 330.6,152 330.6,152 C330.6,152 332.3,151.1 332.3,150.8 C332.3,150.5 334.3,151.9 334.3,151.9 L336.6,151.4 L337.9,151.8 C337.9,151.8 339.9,151.6 339.2,151 C340.9,151.2 342.9,151.8 342.9,151.7 C342.9,151.6 345.2,150.5 345.2,150.5 L345.9,151.8 L348.2,151 L349.9,151.6 C349.9,151.6 352.2,151 351.2,150.4 C353.2,150.6 354.5,151.7 354.5,151.7 C354.5,151.7 356.5,151.1 357.2,150.9 C357.5,151.2 357.5,151.8 357.5,151.8 L360.8,151.2 L361.1,151.6 C361.1,151.6 362.8,151.5 362.1,150.6 C363.8,150.8 364.4,151.7 364.4,151.7 C364.4,151.7 366.1,150.8 366.1,150.8 C366.1,150.8 367.4,151.7 367.4,151.7 C367.4,151.7 369.4,151 370.1,150.6 C371.1,151 370.8,151.7 370.8,151.7 L372.8,151.1 L372.8,151.7 C372.8,151.7 374.8,151.3 375.1,150.3 C376.8,150.8 375.4,151.8 375.8,151.7 C376.2,151.6 378.8,150.7 378.8,150.7 L379.8,151.6 C379.8,151.6 382.5,151.5 382.5,150.4 C382.5,149.3 385.2,151.6 385.2,151.6 C385.2,151.6 386.9,150.8 387.2,150.8 C387.5,150.8 389.5,151.8 389.5,151.8 L392.2,151.3 L392.9,151.8 C392.9,151.8 394.9,151.5 394.6,151.2 C394.3,150.9 397.3,151.8 397.3,151.8 L399,150.8 L400,152 C400,152 402.3,151.6 402.3,151.3 C402.3,151 404.3,151.9 404.3,151.9 C404.3,151.9 406,151.2 405,150.6 C404,150 407.7,152 407.7,152 C407.7,152 409.4,151.1 409.4,151.1 L410.4,152 L412.7,151.4 C412.7,151.4 413,152.1 413.7,152 C414.4,151.9 416.7,151.9 416,151.4 C415.3,150.9 418,152 418,152 L419.3,151.3 L421,151.9 L424,150.8 C424,150.8 423.7,151.9 424,151.9 C424.3,151.8 426.7,151.3 426.7,151.3 C426.7,151.3 426,151.7 427,151.9" id="Shape"></path>
            <path d="M0.1,151.3 C0.1,151 1.4,152.1 1.4,152.1 C1.4,152.1 4.4,151.2 4.4,150.5 C6.4,150.7 5.1,152.1 4.7,152.1 C4.3,152.1 6.4,151.4 6.4,151.4 C6.4,151.4 8.1,152.1 8.1,152.1 C8.1,152.1 9.1,151.5 9.1,151.5 C9.1,151.5 11.4,151.8 11.8,152 C12.2,152.2 13.8,151.5 13.5,151.1 C14.8,151.4 15.2,152.1 15.2,152.1 L17.2,151.7 C17.2,151.7 18.2,152.3 18.2,152.2 C18.2,152.1 19.9,151.7 19.9,151.5 C19.9,151.3 22.2,152.3 22.2,152.3 C22.2,152.3 23.9,151.4 23.9,151.1 C23.9,150.8 25.9,152.2 25.9,152.2 L28.2,151.7 L29.5,152.1 C29.5,152.1 31.5,151.9 30.8,151.3 C32.5,151.5 34.5,152.1 34.5,152 C34.5,151.9 36.8,150.8 36.8,150.8 L37.5,152.1 L39.8,151.3 L41.5,151.9 C41.5,151.9 43.8,151.3 42.8,150.7 C44.8,150.9 46.1,152 46.1,152 C46.1,152 48.1,151.4 48.8,151.2 C49.1,151.5 49.1,152.1 49.1,152.1 L52.4,151.5 L52.7,151.9 C52.7,151.9 54.4,151.8 53.7,150.9 C55.4,151.1 56,152 56,152 C56,152 57.7,151.1 57.7,151.1 C57.7,151.1 59,152 59,152 C59,152 61,151.3 61.7,150.9 C62.7,151.3 62.4,152 62.4,152 L64.4,151.4 L64.4,152 C64.4,152 66.4,151.6 66.7,150.6 C68.4,151.1 67,152.1 67.4,152 C67.7,151.9 70.4,151 70.4,151 L71.4,151.9 C71.4,151.9 74.1,151.8 74.1,150.7 C74.1,149.6 76.8,151.9 76.8,151.9 C76.8,151.9 78.5,151.1 78.8,151.1 C79.1,151.1 81.1,152.1 81.1,152.1 L83.8,151.6 L84.5,152.1 C84.5,152.1 86.5,151.8 86.2,151.5 C85.9,151.2 88.9,152.1 88.9,152.1 L90.6,151.1 L91.6,152.3 C91.6,152.3 93.9,151.9 93.9,151.6 C93.9,151.3 95.9,152.2 95.9,152.2 C95.9,152.2 97.6,151.5 96.6,150.9 C95.6,150.3 99.3,152.3 99.3,152.3 C99.3,152.3 101,151.4 101,151.4 L102,152.3 L104.3,151.7 C104.3,151.7 104.6,152.4 105.3,152.3 C106,152.2 108.3,152.2 107.6,151.7 C106.9,151.3 109.6,152.3 109.6,152.3 L110.9,151.6 L112.6,152.2 L115.6,151.1 C115.6,151.1 115.3,152.2 115.6,152.2 C115.9,152.1 118.3,151.6 118.3,151.6 C118.3,151.6 117.6,152 118.6,152.2" id="Shape"></path>
            <path d="M3761,115.4 C3761,115.4 3764.6,116.2 3764.4,117.5 C3764.2,118.8 3760.6,119.7 3760.4,118.3 C3760.3,116.8 3761,115.4 3761,115.4 Z" id="Shape"></path>
            <path d="M3765.7,111.8 C3765.7,111.8 3763.1,111 3761.5,112 C3759.9,113 3757.9,114.9 3757.9,115.8 C3757.9,116.8 3757.3,119.6 3757.1,121.4 C3756.9,123.2 3754.8,137.7 3759,140 C3763.2,142.4 3773.6,140.3 3776.4,138.7 C3779.2,137.1 3780.4,141.7 3784.9,140.6 C3789.4,139.5 3794,138.1 3792.7,134.4 C3791.4,130.7 3790.5,131.1 3790.9,129.3 C3791.3,127.5 3794.1,126.5 3791.8,123.4 C3789.9,120.9 3790.5,118.7 3784.9,118.8 C3779.8,119.6 3772.5,119 3770.7,120.4 C3768.9,121.8 3768.8,123.4 3767.7,122.2 C3766.6,120.9 3765.4,121.7 3766.4,120.1 C3767.3,118.5 3767.7,117.6 3767.7,117.6 C3767.1,115.5 3768.1,118.2 3767.1,115.5 C3766.1,112.8 3765.7,111.8 3765.7,111.8 Z" id="Shape"></path>
            <path d="M3766.5,114 C3766.5,114 3769,111.6 3770.7,112.6 C3772.4,113.6 3773.9,114.2 3772.4,114.5 C3770.9,114.8 3767.5,115.3 3767.5,115.3" id="Shape"></path>
            <path d="M3759.1,113.4 C3759.1,113.4 3757.2,111.3 3756.5,111.3 C3755.8,111.3 3755.2,112.6 3755.9,113.2 C3756.6,113.8 3757.8,114.3 3757.8,114.3" id="Shape"></path>
            <path d="M3764.4,140.8 C3764.4,140.8 3764.6,145.1 3763.7,148.3" id="Shape"></path>
            <path d="M3769.5,140.3 C3769.5,140.3 3771,145.2 3771.7,147.4" id="Shape"></path>
            <path d="M3779.3,139.1 C3779.3,139.1 3780.2,142.8 3780,147.7" id="Shape"></path>
            <path d="M3785,140.7 C3785,140.7 3784.9,143.6 3785.6,148.4" id="Shape"></path>
            <path d="M3952.5,10.6 C3952.5,10.6 3949.4,34.3 3962.7,32.8 C3971.4,36.1 3979,35.6 3981.6,32.4 C3984.9,31.9 3990.3,30.6 3988.5,17.1 C3984.8,11.4 3974.1,13.2 3970.5,13.2 C3966.9,13.2 3963.5,9.7 3963,8.4 C3962.5,7.1 3960.2,0.6 3957.2,0.3 C3954.1,-6.26776409e-13 3953.1,1.3 3952.3,2.6 C3951.5,3.9 3951.2,6.3 3951.2,6.3 C3951.2,6.3 3947.8,8.2 3947.6,9.1 C3947.4,10 3947.6,11.8 3948.6,11.8 C3949.6,11.8 3951.4,11.3 3952.5,10.6 Z" id="Shape"></path>
            <path d="M3954.8,8.5 C3954.8,8.5 3952.4,10.7 3952.5,10.6" id="Shape"></path>
            <path d="M3951.3,3.4 C3951.3,3.4 3948,3.1 3947.7,3.7 C3947.4,4.4 3950.1,6.3 3950.8,6.3" id="Shape"></path>
            <path d="M3961.5,3.3 C3961.9,3.3 3967.2,3 3967.5,4.4 C3967.7,5.8 3964.2,6.9 3962.6,6.3" id="Shape"></path>
            <path d="M3958.2,32 C3958.7,40.4 3958.8,39.2 3958.2,42.2" id="Shape"></path>
            <path d="M3963.2,33 C3963.3,33.3 3963.1,41.6 3963.8,43" id="Shape"></path>
            <path d="M3973.3,35.1 C3973.3,35.4 3973.7,40.6 3973.1,42.3" id="Shape"></path>
            <path d="M3977.6,34.3 C3977.6,34.7 3977.8,41.3 3979,43" id="Shape"></path>
            <path d="M3839.9,57.9 C3839.9,57.9 3836.8,60.7 3834.6,60.6" id="Shape"></path>
            <path d="M3839.1,69 C3839.1,69 3839,77.1 3839.5,78.4 C3840,79.8 3844,87 3844.1,88.2 C3844.3,89.4 3843,88.4 3844.1,91.2 C3845.2,94.1 3850,111 3849.3,112.3 C3848.6,113.7 3847.4,113 3845.1,113.7 C3842.8,114.4 3844.7,114.7 3841.4,114.7 C3838.1,114.7 3833.6,115.4 3832.7,114.2 C3831.8,113 3832.7,101.5 3832.6,99.5 C3832.5,97.5 3833.7,86 3836.1,81.8 C3838.5,77.6 3837.3,70 3837.4,69.3" id="Shape"></path>
            <path d="M3840.6,80.1 C3840.6,80.1 3854.6,92 3857.7,93.2 C3860.8,94.4 3868,96.2 3869.7,96.7 C3871.4,97.2 3873.4,98.1 3873.5,100.4 C3873.6,102.7 3873.4,103.4 3871.6,102.4 C3869.8,101.4 3868.3,100.7 3869.1,99.9" id="Shape"></path>
            <path d="M3836.5,80.2 C3836.5,80.2 3820.5,88.5 3820.7,89.7 C3820.9,90.9 3825.6,96.1 3827,98.7 C3828.4,101.3 3830.2,100.6 3830.7,101.7 C3831.2,102.9 3833.2,104.2 3830.5,105.6 C3827.7,107 3826,106.1 3826.7,104.9 C3827.5,103.7 3829.3,103.7 3829.8,103.5" id="Shape"></path>
            <path d="M3847.7,113 C3847.7,113.2 3848.3,117.3 3849.3,122.4 C3851,131.7 3853.6,144.5 3854.3,144.9 C3855.5,145.6 3859.6,143.7 3861.1,144.7 C3862.5,145.7 3869.8,145.5 3869.1,147.9 C3868.4,150.3 3861.3,148.6 3856.6,148.1 C3851.9,147.6 3849.9,148.6 3850,147.1 C3850.2,145.6 3848.6,124.3 3848.6,124.3" id="Shape"></path>
            <path d="M3836.3,114.6 C3835.7,116 3833.8,139.8 3834,142.7 C3834.2,145.6 3829.9,143.9 3828.4,144.9 C3826.9,145.9 3824.5,147.3 3826,148.6 C3827.5,150 3827.4,151 3831.9,150.5 C3836.4,150 3837.9,148.8 3837.4,146.3 C3836.9,143.8 3838.1,131.9 3838.1,131.9 L3833.1,131.6" id="Shape"></path>
            <path d="M3877.2,148.5 C3877.5,147.8 3865.6,68.2 3865.6,68.2" id="Shape"></path>
            <polyline id="Shape" points="3849.3 149.3 3847 148 3844.9 149.4 3842.5 147.8 3839 149.3"></polyline>
            <path d="M3867.8,50.3 C3867.8,50.3 3867.8,54.5 3868.7,57.4 C3869.6,60.3 3872.6,70.4 3867.5,70.4 C3862.4,70.4 3858,71.9 3854.3,51" id="Shape"></path>
            <path d="M3866,69.9 C3865.9,69.2 3861.8,51 3861.5,50" id="Shape"></path>
            <path d="M3831.1,54.6 C3831.6,54.1 3835.2,52.2 3839.9,58 C3844.5,63.8 3839.1,68.7 3837.7,69 C3836.3,69.3 3831.3,65.9 3830.6,63.5 C3829.9,61.1 3829.2,56.4 3831.1,54.6 Z" id="Shape"></path>
            <path d="M3830,59.1 C3830,59.1 3826.9,63.4 3824.5,64" id="Shape"></path>
            <path d="M3832,54.2 C3832,54.2 3826.8,59.9 3824.8,59.5" id="Shape"></path>
            <path d="M3907.6,149.7 C3907.6,149.7 3908.8,149.3 3909.1,147 C3909.5,144.4 3908.1,139.5 3909.1,136.4 C3910.1,133.3 3911.5,133.7 3910.8,131.8 C3910.1,129.9 3907.7,123.4 3914.7,112.8 C3921.7,102.2 3913.3,102.7 3929.4,76.9 C3945.5,51.1 3940,60.3 3941.4,57.6 C3942.8,54.9 3949.4,47.2 3952.7,46.5 C3956.1,45.8 3961.1,42.2 3963.3,41.9 C3965.5,41.7 3965.2,41.2 3971,40.9 C3976.8,40.6 3985.5,40.9 3988.8,43.8 C3992.2,46.7 3992.5,48.5 3995.1,51.4" id="Shape"></path>
            <path d="M3916.5,131.6 C3916.5,131.6 3913.8,139.8 3914.3,142.4" id="Shape"></path>
            <path d="M3942.8,108.5 C3942.8,108.5 3938.2,109.7 3936.1,115.7" id="Shape"></path>
            <path d="M3962.3,104.6 C3963,105.1 3968.1,112.1 3967.6,116.4" id="Shape"></path>
            <path d="M3982.3,109.9 C3982.3,109.9 3985.4,110.4 3985.9,113.3 C3986.4,116.2 3988.3,126.1 3988.3,126.1" id="Shape"></path>
            <path d="M3976.3,84.1 C3976.3,84.1 3981.1,87.2 3983,94" id="Shape"></path>
            <path d="M3984,74 C3984,74 3989.5,86 3990.5,88.2" id="Shape"></path>
            <path d="M3948.6,86.8 C3947.2,87 3942.6,88.7 3938.5,95.2" id="Shape"></path>
            <path d="M3940.4,80.3 C3940.4,80.3 3930.3,82.5 3925.2,97.4" id="Shape"></path>
            <path d="M3961.4,76.7 C3961.4,76.7 3956.3,86.8 3955.9,89.5" id="Shape"></path>
            <path d="M3963.5,69 C3962.5,69.2 3952.7,71.7 3950.7,73.1 C3948.8,74.5 3948.8,75.8 3948.8,75.8" id="Shape"></path>
            <path d="M3948.1,58.6 C3948.1,58.6 3939.2,69 3936.5,73.5" id="Shape"></path>
            <path d="M3970.8,67.3 C3971.5,67.1 3975.9,74 3975.9,78.6" id="Shape"></path>
            <path d="M3972.7,56.4 C3972,56.6 3961.9,61.2 3961.9,61.2 C3961.9,61.2 3958,62.6 3957.3,63.9" id="Shape"></path>
            <path d="M3963.8,51.8 C3963.8,51.8 3958.3,54.2 3957.3,56.1 C3956.3,58 3952.5,63.1 3952.5,63.1" id="Shape"></path>
            <path d="M3947.9,49.4 L3938.2,48.5" id="Shape"></path>
            <path d="M3939.9,56.2 C3939.9,56.2 3930.5,60.5 3926.6,62.9" id="Shape"></path>
            <path d="M3921.8,75.7 C3921.8,75.7 3917.9,80.8 3915.5,83.2" id="Shape"></path>
            <path d="M3911.3,123.2 C3911.3,123.2 3906.2,129.9 3904.1,129.7 C3901.9,129.5 3902.7,128 3901.2,127.8 C3899.8,127.6 3897.1,127.3 3895.2,130.2" id="Shape"></path>
            <path d="M3918.9,97.4 C3918.9,97.4 3911.7,101 3908.1,103.9" id="Shape"></path>
            <path d="M3924,109.2 C3924,109.2 3921.8,110.9 3920.1,114 C3918.4,117.1 3915.3,125.3 3915.3,125.3" id="Shape"></path>
            <path d="M3927.6,114.3 C3927.6,114.3 3923.7,126.1 3923.5,132.1" id="Shape"></path>
            <path d="M3961.1,116.2 C3961.1,117.2 3957.2,123.7 3957,128.7" id="Shape"></path>
            <path d="M3957.3,107.8 C3957.3,107.8 3953.4,110.7 3952,118.6" id="Shape"></path>
            <path d="M3941.6,134.5 C3941.6,134.5 3939.2,137.4 3938.2,142.7" id="Shape"></path>
            <path d="M3945,117.2 C3945,117.2 3945.7,121.3 3944,124.2 C3942.3,127.1 3941.3,128.3 3941.1,130.2" id="Shape"></path>
            <path d="M3953.4,129.7 C3953.4,129.7 3949.5,134.3 3949.1,135.7 C3948.6,137.1 3948.1,139.6 3948.1,139.6" id="Shape"></path>
            <path d="M3971.2,116.7 C3971.2,116.7 3975.5,123.2 3973.4,135.7" id="Shape"></path>
            <path d="M3985.9,68.7 C3986.9,68.5 3988.3,69.1 3994.5,78.4" id="Shape"></path>
            <path d="M3970,48 C3970,48 3979.6,47.3 3982.3,52.1" id="Shape"></path>
            <path d="M3983.3,47.7 C3983.8,47.5 3988.6,49.9 3991.3,52.3 C3994,54.7 3994.3,53.7 3995.2,57.1" id="Shape"></path>
            <path d="M3990.7,45.9 C3990.7,45.9 3992.6,45.5 3993.7,45.9" id="Shape"></path>
        </g>
    </g>
</svg>