<?xml version="1.0" encoding="UTF-8"?>
<svg width="4000px" height="320px" viewBox="0 0 4000 320" version="1.1" xmlns="http://www.w3.org/2000/svg" xmlns:xlink="http://www.w3.org/1999/xlink">
    <!-- Generator: Sketch 52.6 (67491) - http://www.bohemiancoding.com/sketch -->
    <title>Norsk</title>
    <desc>Created with Sketch.</desc>
    <g id="Norsk" stroke="none" stroke-width="1" fill="none" fill-rule="evenodd">
        <g id="norsk" transform="translate(0.000000, 72.000000)" stroke="#FFFFFF">
            <path d="M3870.1,34.1 C3868.6,34.8 3852.6,36.3 3856,57.2 C3859.4,78.1 3880.2,84.4 3878.3,58.3 C3876.4,32.3 3870.1,34.1 3870.1,34.1 Z" id="Path"></path>
            <path d="M3874.2,52 C3874.2,52 3864.9,49.8 3862.7,51.6 C3860.5,53.5 3869.8,53.8 3869.8,53.8" id="Path"></path>
            <path d="M3832.5,20 C3832.5,20 3822.1,11.8 3824.7,11.8 C3827.3,11.8 3833.6,17.8 3833.6,16.3 C3833.6,14.8 3828.8,2.9 3830.6,3.3 C3832.5,3.7 3835.8,14.1 3835.8,14.1 C3835.8,14.1 3845.8,-0.4 3848.5,1.1 C3851.2,2.6 3835.8,23.8 3835.8,23.8 C3835.8,23.8 3846.6,69.6 3856.3,84.8" id="Path"></path>
            <path d="M3865.3,77.7 C3865.3,77.7 3851.5,87.7 3853,109.3" id="Path"></path>
            <path d="M3873.8,77.7 C3873.8,77.7 3874.6,79.2 3875.7,81.6 C3878.6,87.7 3883.5,99.7 3882.7,107.5" id="Path"></path>
            <path d="M3879.8,83.6 C3882,84.7 3912.9,107 3910.3,108.2 C3907.7,109.4 3876.8,108.2 3876.8,108.2 C3876.8,108.2 3874.2,104.1 3868.6,104.9 C3863,105.6 3857.4,109.7 3862.6,110.1" id="Path"></path>
            <path d="M3808.3,124.5 C3808.3,124.5 3800.5,117.1 3805.3,111.5 C3805.3,111.5 3854.4,110 3857.8,110.4 C3861.1,110.8 3935.2,109.3 3936.7,110.4 C3938.2,111.5 3940.8,118.6 3932.2,123.8" id="Path"></path>
            <path d="M3806.1,116.7 C3806.1,116.7 3807.2,116.7 3809.1,116.7 C3826.5,116.8 3914.2,117.3 3919.6,116.3 C3925.6,115.2 3937.8,115.9 3937.8,115.9" id="Path"></path>
            <path d="M3928.9,118.2 C3928.9,118.2 3922.2,151.7 3921.1,152.4 C3920.1,153 3846.1,151.8 3824.4,151.4 C3820.6,151.3 3818.4,151.3 3818.4,151.3 L3809.1,116.7" id="Path"></path>
            <path d="M3824.7,154.3 C3824.7,154.3 3820.6,184.8 3820.6,190.4 C3820.6,196 3821.3,205.7 3817.6,208.6 C3813.9,211.6 3801.6,211.6 3809,214.2 C3816.4,216.8 3830.6,219.8 3826.9,214.6 C3823.2,209.4 3822.4,208.3 3822.8,205.3 C3823.2,202.3 3831.4,152.5 3831.4,152.5" id="Path"></path>
            <path d="M3911,152.1 C3911,152.1 3924,207.9 3924,209.4 C3924,210.9 3917.7,210.9 3918,213.5 C3918.3,216.1 3936.6,216.1 3934.4,212.4 C3932.2,208.7 3927.3,206.1 3927.3,206.1 C3927.3,206.1 3917.3,158.1 3917.3,154" id="Path"></path>
            <path d="M3853.4,152.1 C3853.8,153.6 3862.7,181.9 3861.2,186 C3859.7,190.1 3845.2,203.5 3846.7,206.1 C3848.2,208.7 3865.7,194.9 3865.7,189.7 C3865.7,184.5 3863.1,177 3862.7,175.9 C3862.3,174.8 3861.2,152.8 3861.2,152.8" id="Path"></path>
            <path d="M3886.1,153.2 C3886.1,154.3 3882.8,176.6 3881.6,179.2 C3880.4,181.8 3877.5,179.9 3878.3,184.8 C3879,189.6 3886.9,207.1 3889.5,203.4 C3892.1,199.7 3887.3,198.6 3885.8,191.9 C3884.3,185.2 3884.3,181.9 3884.3,181.9 L3894,153.6" id="Path"></path>
            <path d="M3994.7,195.5 L3931,194.7" id="Path"></path>
            <path d="M3809.6,191.3 C3809.6,191.3 3667.3,190.5 3658.9,191.3 C3650.5,192.1 3499.8,197.2 3491.5,196.3 C3483.2,195.4 0.3,199.7 0.3,199.7" id="Path"></path>
        </g>
    </g>
</svg>