<?xml version="1.0" encoding="UTF-8"?>
<svg width="4000px" height="320px" viewBox="0 0 4000 320" version="1.1" xmlns="http://www.w3.org/2000/svg" xmlns:xlink="http://www.w3.org/1999/xlink">
    <!-- Generator: Sketch 52.3 (67297) - http://www.bohemiancoding.com/sketch -->
    <title>Realfag matte</title>
    <desc>Created with Sketch.</desc>
    <g id="Realfag-matte" stroke="none" stroke-width="1" fill="none" fill-rule="evenodd">
        <g id="realfag-matte" transform="translate(-124.000000, 36.000000)" stroke="#FFFFFF">
            <path d="M0,236.5 L4122,235.5" id="Path"></path>
            <path d="M3719.3,235 L3719.3,249" id="Path"></path>
            <path d="M3560,235 L3560,249" id="Path"></path>
            <path d="M3636,236 L3636,249" id="Path"></path>
            <path d="M3417,236 L3417,250" id="Path"></path>
            <path d="M3488,236 L3488,250" id="Path"></path>
            <path d="M3261,236 L3261,250" id="Path"></path>
            <path d="M3334,236 L3334,249" id="Path"></path>
            <path d="M3118,236 L3118,250" id="Path"></path>
            <path d="M3189,236 L3189,250" id="Path"></path>
            <path d="M2962,237 L2962,251" id="Path"></path>
            <path d="M3037,237 L3037,250" id="Path"></path>
            <path d="M2819,237 L2819,251" id="Path"></path>
            <path d="M2890,237 L2890,251" id="Path"></path>
            <path d="M2663,236 L2663,250" id="Path"></path>
            <path d="M2738,237 L2738,250" id="Path"></path>
            <path d="M2520,235 L2520,249" id="Path"></path>
            <path d="M2591,235 L2591,249" id="Path"></path>
            <path d="M2364,236 L2364,250" id="Path"></path>
            <path d="M2441,236 L2441,249" id="Path"></path>
            <path d="M2224,236 L2224,250" id="Path"></path>
            <path d="M2295,236 L2295,250" id="Path"></path>
            <path d="M2068,237 L2068,251" id="Path"></path>
            <path d="M2145,237 L2145,250" id="Path"></path>
            <path d="M1932,237 L1932,251" id="Path"></path>
            <path d="M2003,237 L2003,251" id="Path"></path>
            <path d="M1776,238 L1776,252" id="Path"></path>
            <path d="M1853,238 L1853,251" id="Path"></path>
            <path d="M1633,238 L1633,252" id="Path"></path>
            <path d="M1708,238 L1708,251" id="Path"></path>
            <path d="M1490,238 L1490,252" id="Path"></path>
            <path d="M1561,238 L1561,252" id="Path"></path>
            <path d="M1334,237 L1334,251" id="Path"></path>
            <path d="M1409,238 L1409,251" id="Path"></path>
            <path d="M1191,237 L1191,251" id="Path"></path>
            <path d="M1262,239 L1262,253" id="Path"></path>
            <path d="M1035,238 L1035,252" id="Path"></path>
            <path d="M1112,238 L1112,251" id="Path"></path>
            <path d="M895,238 L895,252" id="Path"></path>
            <path d="M966,238 L966,252" id="Path"></path>
            <path d="M744,238 L744,252" id="Path"></path>
            <path d="M816,239 L816,252" id="Path"></path>
            <path d="M603,238 L603,252" id="Path"></path>
            <path d="M674,238 L674,252" id="Path"></path>
            <path d="M447,238 L447,252" id="Path"></path>
            <path d="M524,238 L524,251" id="Path"></path>
            <path d="M297,237 L297,251" id="Path"></path>
            <path d="M369,237 L369,250" id="Path"></path>
            <path d="M156,237 L156,251" id="Path"></path>
            <path d="M227,237 L227,251" id="Path"></path>
            <path d="M4103.3,236 L4103.3,250" id="Path"></path>
            <path d="M3928,236 L3928,250" id="Path"></path>
            <path d="M3985,236 L3985,249" id="Path"></path>
            <path d="M3792,236 L3792,250" id="Path"></path>
            <path d="M3863,236 L3863,250" id="Path"></path>
            <path d="M4041,236 L4041,250" id="Path"></path>
            <path d="M3958,282 C3958,280 3958,1 3958,1" id="Path"></path>
            <polyline id="Path" points="4094 98 3957 236.5 3896 69"></polyline>
            <path d="M3948.5,210.8 C3948.5,210.8 3962.3,205 3974.2,217.5" id="Path"></path>
            <path d="M3895,81 C3895,80 3894,65 3894,65 L3905,76 L3895,81 Z" id="Path" fill="#FFFFFF"></path>
            <path d="M4088.4,96.1 C4089.3,95.7 4102.6,88.8 4102.6,88.8 L4096.9,103.3 L4088.4,96.1 Z" id="Path" fill="#FFFFFF"></path>
            <polyline id="Path" points="3955.1 4.5 3958.1 0.1 3960.7 4.6"></polyline>
        </g>
    </g>
</svg>