<?xml version="1.0" encoding="UTF-8"?>
<svg width="4000px" height="320px" viewBox="0 0 4000 320" version="1.1" xmlns="http://www.w3.org/2000/svg" xmlns:xlink="http://www.w3.org/1999/xlink">
    <!-- Generator: Sketch 54.1 (76490) - https://sketchapp.com -->
    <title>Religion og Etikk</title>
    <desc>Created with Sketch.</desc>
    <g id="Religion-og-Etikk" stroke="none" stroke-width="1" fill="none" fill-rule="evenodd">
        <path d="M3924.9,62.6 C3924.9,62.6 3933.8,51.3 3936.2,48.8 C3938.6,46.3 3943.5,39.9 3945.1,39.1 C3945.8,38.7 3946.7,38 3947.5,37.4 C3948.4,36.6 3949.2,35.9 3949.2,35.9 C3949.2,35.9 3947.6,38.3 3948.4,38.3 C3949.2,38.3 3959.7,35.9 3958.9,37.5 C3958.1,39.1 3950,40.7 3948.4,39.9 C3946.8,39.1 3941.9,46.4 3939.5,48 C3937.1,49.6 3930.6,56.9 3929.8,59.3 C3929,61.7 3928.2,73.1 3928.2,74.7 C3928.2,76.3 3928.2,77.9 3930.6,82.8 C3933,87.7 3933.8,104.6 3930.6,109.5 C3927.4,114.4 3925.7,114.4 3926.6,116 C3927.4,117.6 3930.6,123.3 3929.8,124.1 C3929,124.9 3929,124.1 3926.6,124.1 C3924.2,124.1 3919.3,122.5 3917.7,120.9 C3916.1,119.3 3916.1,120.1 3915.3,121.7 C3914.5,123.3 3913.7,123.3 3912.9,122.5 C3912.1,121.7 3911.3,116 3907.2,117.6 C3903.1,119.2 3899.1,122.5 3897.5,124.1 C3895.9,125.7 3894.3,129 3895.9,124.1 C3897.5,119.2 3908.8,97.4 3909.7,93.4 C3910.5,89.4 3917,81.3 3917.8,77.2 C3918.6,73.2 3918.6,67.5 3917,65.9 C3915.4,64.3 3912.1,61 3910.5,57.8 C3908.9,54.6 3901.6,45.7 3900,42.4 C3898.4,39.2 3902.4,38.4 3898.4,39.2 C3894.4,40 3889.5,42.4 3891.1,40 C3892.7,37.6 3894.3,40 3896,38.4 C3897.6,36.8 3897.6,37.6 3897.6,36 C3897.6,34.4 3898.4,35.2 3899.2,36.8 C3900,38.4 3900,38.4 3900,38.4" id="Path" stroke="#FFFFFF"></path>
        <path d="M3919.2,52.1 C3918.4,52.1 3914.3,52.9 3914.3,57.8 C3914.3,62.7 3918.3,65.9 3920.8,65.1 C3923.2,64.3 3924.8,59.4 3924,56.2 C3923.3,52.9 3920.1,52.1 3919.2,52.1 Z" id="Path" stroke="#FFFFFF"></path>
        <path d="M3906.1,117.7 C3906.4,118.4 3907.2,124.1 3908,126.5 C3908.8,128.9 3908.8,135.4 3908,137 C3907.2,138.6 3904,140.2 3905.6,141 C3907.2,141.8 3913.7,142.6 3912.9,141 C3912.1,139.4 3908.9,141 3908.9,138.6 C3908.9,136.2 3909.7,132.9 3910.5,130.5 C3911.3,128.1 3912.1,121.6 3912.1,121.6" id="Path" stroke="#FFFFFF"></path>
        <path d="M3919.3,122.3 C3919.3,122.3 3920.1,136.2 3920.9,137.8 C3921.7,139.4 3921.7,141 3924.1,140.2 C3926.5,139.4 3930.6,138.6 3928.1,137.8 C3925.6,137 3924.1,139.4 3923.2,137 C3922.4,134.6 3921.1,137.9 3921.8,123.7" id="Path" stroke="#FFFFFF"></path>
        <path d="M3957.2,305 C3957.3,304.7 3957.4,304.4 3957.5,304.1" id="Path" stroke="#FFFFFF"></path>
        <path d="M3957.5,304.1 C3959.5,297.4 3960.1,288.6 3958.4,277.1 C3952.4,235 3938.4,203 3898.3,188.9 C3858.2,174.9 3844.2,178.9 3834.2,170.9 C3832.6,169.6 3820.2,142.8 3800.1,146.9 C3780.1,150.9 3778.1,170.9 3782.1,181 C3786.1,191.1 3798.1,203 3814.2,199 C3822.2,195 3822.2,195 3822.2,195 C3822.2,195 3836.2,193 3844.2,199 C3852.2,205 3872.3,231.1 3886.3,269.1 C3891.8,284.1 3897.6,295.9 3903.4,304.8" id="Path" stroke="#FFFFFF"></path>
        <path d="M3792.1,198.9 C3792.1,196.9 3804.1,172.8 3810.1,170.8 C3816.1,168.8 3802.1,186.8 3798.1,192.8 C3794.1,198.8 3784.1,200.8 3796.1,206.8 C3808.1,212.8 3824.2,212.8 3828.2,200.8 C3832.2,188.8 3838.2,176.8 3834.2,170.7 C3830.2,164.7 3830.2,174.7 3822.2,166.7 C3814.2,158.7 3812.2,156.7 3812.2,156.7" id="Path" stroke="#FFFFFF"></path>
        <path d="M3828.2,204.9 C3830.2,204.9 3840.2,204.9 3836.2,206.9 C3832.2,208.9 3818.9,209.2 3818.5,211 C3818.2,212.9 3834.2,214.9 3830.2,216.9 C3826.2,218.9 3806.2,216.9 3804.1,220.9 C3802.1,224.9 3802.1,234.9 3808.1,244.9 C3814.1,254.9 3834.2,275 3836.2,275 C3838.2,275 3838.2,281 3840.2,251 C3842.2,220.9 3846.2,198.9 3852.2,196.9" id="Path" stroke="#FFFFFF"></path>
        <path d="M3898.3,214.9 C3894.3,214.9 3862.2,265 3858.2,271 C3854.2,277 3840.2,289 3838.2,289 C3836.2,289 3838.2,297 3834.2,295 C3830.2,293 3822.2,287 3812.2,271 C3802.2,255 3788.2,238.9 3788.2,228.9 C3788.2,218.9 3786.2,218.9 3794.2,212.9 C3802.2,206.9 3815.1,204.5 3825.7,204.7" id="Path" stroke="#FFFFFF"></path>
        <path d="M3938.4,285.1 C3938.4,285.1 3880.3,295.1 3872.3,295.1 C3864.3,295.1 3848.3,301.1 3844.2,301.1 C3840.1,301.1 3826.2,301.1 3826.2,305.1" id="Path" stroke="#FFFFFF"></path>
        <path d="M3893.8,284.9 C3892.3,285.1 3870.2,289.1 3864.2,291.1 C3858.2,293.1 3832.1,295.1 3828.1,297.1 C3824.1,299.1 3820.1,299.1 3820.1,311.1" id="Path" stroke="#FFFFFF"></path>
    </g>
</svg>