<?xml version="1.0" encoding="UTF-8"?>
<svg width="4000px" height="320px" viewBox="0 0 4000 320" version="1.1" xmlns="http://www.w3.org/2000/svg" xmlns:xlink="http://www.w3.org/1999/xlink">
    <!-- Generator: Sketch 54.1 (76490) - https://sketchapp.com -->
    <title>Religion og Etikk</title>
    <desc>Created with Sketch.</desc>
    <g id="Religion-og-Etikk" stroke="none" stroke-width="1" fill="none" fill-rule="evenodd">
        <g id="Group" transform="translate(3235.000000, 80.268272)" stroke="#FFFFFF">
            <path d="M537.595976,57.0798296 C537.595976,57.0798296 555.973518,33.7209688 561.023835,28.6855258 C566.074151,23.6500827 576.034498,10.362108 579.401376,8.68362702 C580.944528,7.98425993 582.768254,6.44565234 584.311406,5.18679158 C586.275418,3.50831056 587.818571,1.96970297 587.818571,1.96970297 C587.818571,1.96970297 584.451693,7.00514601 586.135132,7.00514601 C587.818571,7.00514601 609.56299,1.96970297 607.879551,5.32666499 C606.196112,8.68362702 589.50201,12.040589 586.135132,10.362108 C582.768254,8.68362702 572.807907,23.6500827 567.75759,27.0070447 C562.707273,30.3640068 549.380049,45.3304625 547.69661,50.3659055 C546.013171,55.4013485 544.329732,78.7602093 544.329732,81.9772979 C544.329732,85.1943865 544.329732,88.691222 549.380049,98.6222346 C554.430366,108.553247 556.113804,143.661475 549.380049,153.592488 C542.646293,163.5235 539.419702,163.5235 540.962854,166.880462 C542.646293,170.237424 549.380049,181.846918 547.69661,183.525399 C546.013171,185.20388 546.013171,183.525399 540.962854,183.525399 C535.912537,183.525399 525.952191,180.168437 522.585313,176.811475 C519.218435,173.454513 519.218435,175.132994 517.534996,178.489956 C515.851557,181.846918 514.168118,181.846918 512.484679,180.168437 C510.80124,178.489956 509.117801,166.880462 500.840893,170.237424 C492.423699,173.594387 484.146791,180.168437 480.779913,183.525399 C477.413035,186.882361 474.046157,193.456412 477.413035,183.525399 C480.779913,173.594387 504.207771,128.555146 505.89121,120.162741 C507.574649,111.770336 520.901874,95.1253992 522.585313,86.8728675 C524.268752,78.4804625 524.268752,66.8709688 520.901874,63.5140068 C517.534996,60.1570447 510.941527,53.5829941 507.574649,46.8690701 C504.207771,40.155146 489.197108,21.8317283 485.83023,15.2576777 C482.463352,8.5437536 490.880546,6.86527259 482.463352,8.5437536 C474.046157,10.2222346 464.08581,15.2576777 467.452688,10.2222346 C470.819566,5.18679158 474.186444,10.2222346 477.413035,6.86527259 C480.779913,3.50831056 480.779913,5.18679158 480.779913,1.82982955 C480.779913,-1.52713247 482.463352,0.151348538 484.146791,3.50831056 C485.83023,6.86527259 485.83023,6.86527259 485.83023,6.86527259" id="Path"></path>
            <path d="M525.952191,35.3994498 C524.268752,35.3994498 515.991844,37.0779308 515.991844,47.0089435 C515.991844,56.9399561 524.409038,63.6538802 529.319068,61.9753992 C534.369385,60.2969182 537.736263,50.3659055 536.052824,43.6519814 C534.229099,37.0779308 527.495343,35.3994498 525.952191,35.3994498 Z" id="Path"></path>
            <path d="M498.596308,170.517171 C499.157454,172.055779 500.840893,183.665273 502.524332,188.700716 C504.207771,193.736159 504.207771,207.024133 502.524332,210.381095 C500.840893,213.738057 494.107138,217.095019 497.474016,218.7735 C500.840893,220.451981 514.168118,222.130462 512.484679,218.7735 C510.80124,215.416538 504.067485,218.7735 504.067485,213.738057 C504.067485,208.702614 505.750924,202.128564 507.434362,197.093121 C509.117801,192.057678 510.80124,178.769703 510.80124,178.769703" id="Path"></path>
            <path d="M525.952191,180.168437 C525.952191,180.168437 527.495343,208.702614 529.178782,212.059576 C530.862221,215.416538 530.862221,218.7735 535.912537,217.095019 C540.962854,215.416538 549.239762,213.738057 544.329732,212.059576 C539.279415,210.381095 535.912537,215.416538 534.369385,210.381095 C532.826233,205.345652 530.160788,212.19945 531.423367,182.965906" id="Path"></path>
            <path d="M351.084267,105.429799 C351.084267,105.429799 359.895607,105.290184 364.371209,112.689729 C368.706948,119.949659 367.308322,124.417309 364.371209,125.953064 C361.434095,127.488818 347.587704,127.90766 346.049216,115.761238 C345.070178,107.942851 351.084267,108.361694 351.084267,108.361694" id="Path" stroke-linecap="round"></path>
            <path d="M356.818631,115.761238 C356.818631,115.761238 359.196295,109.338992 362.692858,109.757834" id="Path" stroke-linecap="round"></path>
            <path d="M358.357119,129.024573 C356.958494,130.420713 359.895607,153.875873 365.629972,165.463839 C371.504198,177.191419 377.378425,191.850894 372.902824,199.110825 C368.427222,206.370755 349.405917,196.17893 346.468803,181.519455 C343.53169,166.85998 345.070178,137.541029 352.34303,131.677239" id="Path" stroke-linecap="round"></path>
            <path d="M350.804542,142.985977 C352.762618,145.638644 369.126535,167.837278 374.581174,165.184611 C380.035814,162.671558 383.812102,151.502434 388.427566,144.521732 C393.04303,137.680644 389.406604,129.024573 387.168803,132.37531 C383.532377,137.680644 385.630315,140.472924 385.630315,140.472924" id="Path" stroke-linecap="round"></path>
            <path d="M370.525161,159.181207 C373.741999,160.018891 381.294576,146.057486 382.413477,144.382118 C383.532377,142.706749 380.455401,141.729451 383.67224,135.167591" id="Path" stroke-linecap="round"></path>
            <path d="M364.231346,190.454754 C365.629972,190.454754 384.23169,196.737386 389.126879,199.250439 C392.903168,201.065421 408.148185,210.978019 405.211071,213.909914 C402.273958,216.841809 367.028597,215.306054 362.692858,215.306054 C358.357119,215.306054 349.545779,215.306054 349.545779,212.374159 C349.545779,209.442264 356.818631,202.182334 352.482893,202.182334 C348.147154,202.182334 331.923099,210.978019 336.3987,213.909914 C340.734439,216.841809 342.272927,216.841809 345.21004,212.513773" id="Path" stroke-linecap="round"></path>
            <path d="M104.926192,189.617069 C106.604542,189.617069 119.471896,191.292438 121.150247,194.503561 C122.828597,197.714684 121.150247,207.487667 117.933408,210.69879 C114.71657,213.909914 108.282893,213.909914 104.926192,212.374159 C101.709353,210.69879 100.031003,210.69879 96.8141641,209.163036 C93.5973256,207.487667 91.9189751,202.74079 95.1358136,199.529667 C98.352652,196.318544 106.46468,193.10742 108.14303,193.10742 C109.821381,193.10742 111.359869,194.782789 111.359869,194.782789" id="Path" stroke-linecap="round"></path>
            <path d="M101.709353,210.559176 C101.709353,210.559176 104.926192,207.348053 104.926192,205.672685" id="Path" stroke-linecap="round"></path>
            <path d="M101.709353,192.828192 C101.709353,191.152824 100.031003,179.844086 90.3804871,173.42184 C80.7299716,166.999594 64.5059167,158.901979 59.6107276,157.22661 C54.9952637,155.690856 31.358494,154.015487 28.8409682,165.184611 C25.7639923,178.866788 34.8550575,183.334437 38.071896,188.081315 C41.2887345,192.967806 54.8554012,203.997316 54.8554012,205.672685 C54.8554012,207.348053 54.8554012,207.348053 51.6385627,207.348053 C48.4217242,207.348053 22.5471538,197.714684 19.3303153,196.039315 C16.1134768,194.363947 4.78461081,184.730578 1.56777232,184.730578 C-1.64906617,184.730578 -0.110578194,207.348053 8.0014493,212.234545 C16.1134768,217.121037 4.78461081,197.714684 4.78461081,196.039315 C4.78461081,194.363947 46.8832362,210.559176 53.3169132,213.7703 C59.7505902,216.981423 66.3241297,218.656791 66.3241297,212.094931 C66.3241297,205.672685 58.7715524,188.500157 47.4426864,180.402542" id="Path" stroke-linecap="round"></path>
            <path d="M75.8347826,197.714684 C75.8347826,198.831596 82.2684596,206.510369 87.3035112,211.396861 C89.4014493,213.491071 91.0797998,215.026826 92.0588376,215.445668 C95.2756761,217.121037 103.387704,217.121037 101.709353,215.445668 C100.031003,213.7703 90.3804871,210.559176 88.7021366,210.559176 C87.0237861,210.559176 82.2684596,213.7703 80.5901091,213.7703 C78.9117586,213.7703 67.5828926,191.152824 67.5828926,189.617069 C67.5828926,187.941701 82.1285971,183.194823 90.2406246,184.730578" id="Path" stroke-linecap="round"></path>
            <path d="M47.3028239,180.542156 C47.3028239,182.217525 70.2402809,195.760087 70.2402809,195.760087" id="Path" stroke-linecap="round"></path>
            <path d="M75.8347826,197.714684 C75.8347826,197.714684 90.9399373,202.182334 93.0378754,201.484263" id="Path" stroke-linecap="round"></path>
            <path d="M688.04808,99.7317283 C688.04808,99.7317283 672.724892,99.7317283 674.974167,116.45803 C679.332138,131.372316 688.04808,125.796882 690.297355,116.45803 C692.546631,107.119178 688.04808,103.495146 688.04808,103.495146" id="Path" stroke-linecap="round"></path>
            <path d="M680.597355,131.372316 C680.597355,131.372316 667.523442,159.249485 669.350979,174.163771 C671.178515,189.078057 674.974167,205.804358 686.220544,198.416909 C697.466921,191.029459 691.281413,133.044946 686.220544,131.372316" id="Path" stroke-linecap="round"></path>
            <path d="M678.62924,133.184332 C678.62924,133.184332 667.382863,153.674051 663.587211,166.636935 C659.791558,179.599819 652.340834,196.465507 646.717645,198.277523 C641.094457,200.089539 642.921993,198.277523 639.266921,196.465507 C635.471269,194.653491 639.266921,205.804358 644.890109,202.040941" id="Path" stroke-linecap="round"></path>
            <path d="M656.136486,200.228925 C650.513297,202.040941 635.471269,205.804358 635.471269,211.379792 C635.471269,216.955226 669.210399,218.767242 691.843732,205.804358 C702.246631,199.810767 704.917645,196.465507 710.681413,196.465507 C713.352428,196.465507 708.853877,202.040941 703.230689,203.852957" id="Path" stroke-linecap="round"></path>
            <path d="M690.719095,191.587002 C692.546631,191.587002 703.090109,198.416909 703.090109,198.416909" id="Path" stroke-linecap="round"></path>
            <path d="M710.540834,200.228925 C712.36837,200.228925 731.206051,209.567776 731.206051,211.379792 C731.206051,213.191808 692.96837,215.282596 673.006051,202.040941 C656.136486,190.890073 654.16837,198.277523 656.136486,200.228925 C657.964022,202.040941 665.555326,205.804358 669.210399,203.992342" id="Path" stroke-linecap="round"></path>
            <path d="M661.759674,196.465507 L673.146631,193.120246" id="Path" stroke-linecap="round"></path>
            <path d="M688.469819,133.184332 C688.469819,133.184332 699.716196,153.674051 703.511848,166.636935 C707.3075,179.599819 714.758225,196.465507 720.381413,198.277523 C726.004602,200.089539 724.177066,198.277523 727.832138,196.465507 C731.62779,194.653491 727.832138,205.804358 722.20895,202.040941" id="Path" stroke-linecap="round"></path>
            <path d="M677.926341,112.137069 L687.485761,112.137069" id="Path" stroke-linecap="round"></path>
            <path d="M228.93806,148.184197 C227.680273,148.184197 207.695437,148.184197 197.493388,167.811049 C187.291339,187.437901 187.01183,213.885432 204.06183,216.80858 C220.972076,219.870926 212.027814,194.536975 215.801175,185.489136 C219.434781,176.441296 227.121257,162.521543 230.056093,157.371234 C233.130683,152.220926 228.93806,148.184197 228.93806,148.184197 Z" id="Path"></path>
            <path d="M237.46306,133.429259 C236.624535,133.846852 228.099535,146.37463 236.345027,154.448086 C244.590519,162.382346 253.115519,155.979259 253.954044,154.030494 C254.792568,152.081728 257.58765,140.806728 252.416748,136.491605 C247.245847,132.176481 242.91347,130.645309 237.46306,133.429259 Z" id="Path"></path>
            <path d="M251.158962,165.862284 C251.158962,165.862284 239.279863,166.975864 240.677404,165.444691 C242.074945,163.913518 244.311011,162.660741 244.311011,162.660741 C244.311011,162.660741 236.764289,162.660741 238.022076,161.129568 C239.279863,159.598395 244.870027,157.64963 251.298716,162.660741 C256.469617,166.836667 255.491339,169.620617 254.932322,171.15179 C254.373306,172.682963 243.61224,196.485741 239.699125,197.320926 C235.786011,198.156111 232.990929,185.906728 231.733142,183.54037 C230.475355,181.174012 220.41306,167.393457 218.03724,166.001481" id="Path"></path>
            <path d="M227.400765,158.902407 C228.099535,159.32 235.646257,174.631728 237.602814,186.185123 C239.559371,197.599321 239.279863,195.093765 239.279863,195.093765" id="Path"></path>
            <path d="M206.856912,217.782963 C207.555683,217.782963 252.416748,216.669383 252.696257,203.028025 C252.975765,189.386667 216.919207,202.74963 216.919207,202.74963" id="Path"></path>
            <path d="M215.242158,195.511358 C216.080683,194.81537 232.152404,188.133889 234.528224,190.500247 C236.904044,192.866605 231.733142,198.016913 231.733142,198.016913" id="Path"></path>
            <path d="M242.633962,212.771852 C243.472486,212.493457 251.717978,217.504568 248.503634,219.035741 C245.289289,220.566913 237.043798,215.416605 232.851175,215.13821" id="Path"></path>
            <path d="M254.093798,151.246543 C254.093798,151.246543 247.385601,152.916913 245.009781,149.71537" id="Path"></path>
        </g>
    </g>
</svg>