<?xml version="1.0" encoding="UTF-8"?>
<svg width="3945px" height="274px" viewBox="0 0 3945 274" version="1.1" xmlns="http://www.w3.org/2000/svg" xmlns:xlink="http://www.w3.org/1999/xlink">
    <!-- Generator: Sketch 50.2 (55047) - http://www.bohemiancoding.com/sketch -->
    <title>service, salg og sikk</title>
    <desc>Created with Sketch.</desc>
    <defs>
        <rect id="path-1" x="0" y="0" width="4000" height="320"></rect>
    </defs>
    <g id="Klar-til-eksport" stroke="none" stroke-width="1" fill="none" fill-rule="evenodd">
        <g id="Salg,-service-og-sikkerhet" transform="translate(-55.000000, -46.000000)">
            <g id="service,-salg-og-sikk">
                <g id="Group-2">
                    <mask id="mask-2" fill="white">
                        <use xlink:href="#path-1"></use>
                    </mask>
                    <g id="Mask"></g>
                    <g mask="url(#mask-2)">
                        <g transform="translate(56.000000, 47.000000)">
                            <g id="Layer_126" transform="translate(3733.000000, 12.000000)"></g>
                            <g id="Layer_148" transform="translate(2491.000000, 190.000000)">
                                <g id="Layer_146" transform="translate(105.000000, 0.000000)" stroke="#FFFFFF">
                                    <path d="M6.9,10.2 C6.9,10.2 11.9,10.1 9.8,2.5 C9.8,2.5 4.1,-1.2 2,2.4 C1,4.1 -0.9,6.3 1,8.3 C2.9,10.2 4.9,10.2 6.9,10.2 C7.9,10.2 6.6,12.4 5.4,14.3 C4.2,16.2 2.9,18 2.9,19 C2.9,21 4.9,38.7 3.9,41.6 C2.9,44.5 0,63.2 0,63.2 C0,63.2 2.9,65.2 6.9,64.2 C10.8,63.2 14.8,65.2 15.7,64.2 C16.6,63.2 11.8,48.5 12.8,45.5 C13.5,43.5 9.2,31.1 12.8,23.9 C13.8,21.9 15.7,19 14.8,18 C13.9,17.1 10,15.4 6.8,14.4 C4.2,13.6 10.9,30.8 12.8,31.8 C14.8,32.8 19.7,32.8 24.6,30.8 C29.5,28.8 27.5,28.8 27.5,28.8" id="Shape"></path>
                                </g>
                                <path d="M111.9,65.2 L107,74 L111.9,74 C111.9,74 113.9,76 115.8,76 C116.1,76 117.5,76.1 117.8,76 C119.1,75.6 117,73.9 115.8,73.1 C115,72.5 114.3,72.6 113.8,72.1 C112.8,71.1 113.8,64.2 113.8,64.2 L111.8,74" id="Shape" stroke="#FFFFFF"></path>
                                <g id="Layer_147" transform="translate(0.000000, 1.000000)" stroke="#FFFFFF">
                                    <path d="M128.5,29.3 C128.5,30.3 129.3,34.8 129.3,34.8 C129.3,34.8 138.6,34.8 139.3,33.8 C140,32.8 137.1,45.6 136.4,46.6 C135.7,47.6 121.3,45.6 121.3,44.6 C121.3,43.6 119.1,37.7 119.9,35.8 C120.6,33.8 129.2,34.8 129.2,34.8" id="Shape"></path>
                                    <path d="M25.6,1.2 C25.6,1.2 29,1.2 29,4.6 C29,8 29,10.2 27.9,10.2 C26.8,10.2 23.4,9.1 23.4,6.8 C23.4,4.5 24.5,1.2 24.5,0.1" id="Shape"></path>
                                    <path d="M25.6,10.2 C25.6,10.2 27.6,10.8 25.6,15.8 C25.2,16.9 24.1,18.2 23.4,19.2 C18.9,24.8 14.4,45 16.7,47.3 C18.9,49.5 23.4,37.2 24.6,31.6 C25.7,26 25.7,15.9 25.7,15.9 C25.7,15.9 24.6,26 30.2,27.1 C35.8,28.2 41.4,29.3 41.4,28.2" id="Shape"></path>
                                    <path d="M22.2,43.9 C22.2,46.1 27.8,63 27.8,66.4 C27.8,69.8 36.8,65.3 36.8,67.5 C36.8,69.7 28.9,70.9 27.8,69.7" id="Shape"></path>
                                    <path d="M16.6,48.4 C16.6,48.4 17.7,58.5 14.4,61.9 C11,65.3 0.9,65.3 0.9,67.5 C0.9,69.7 6.5,70.9 7.6,69.7 C8.7,68.6 4.2,67.5 4.2,67.5" id="Shape"></path>
                                </g>
                            </g>
                            <g id="Layer_157" transform="translate(3520.000000, 183.000000)">
                                <path d="M52.8,9.7 C52.8,9.7 52.8,11.9 55,10.8 C57.2,9.7 56.1,5.4 56.1,4.3 C56.1,3.2 55,-2.94209102e-14 52.8,1 C50.6,2 49.5,6.4 50.6,8.6 C51.7,10.8 54.9,14 54.9,16.2 C54.9,18.4 59.2,29.2 61.4,31.4 C63.6,33.6 65.7,36.8 67.9,37.9 C70.1,39 73.3,42.2 71.2,41.2 C69,40.1 65.8,39 65.8,39" id="Shape" stroke="#FFFFFF"></path>
                                <path d="M53.4,12.4 C53.4,12.4 50.1,17.8 50.1,21.1 C50.1,24.4 50.1,40.6 50.1,47.1 C50.1,53.6 47.9,61.2 47.9,61.2 C49,62.3 50.1,63.4 51.2,63.4 C52.3,63.4 57.7,62.3 58.8,60.1 C59.9,57.9 62.1,55.8 61,53.6 C59.9,51.4 57.7,44.9 57.7,41.7 C57.7,38.4 56.1,20.8 55.3,17.7" id="Shape" stroke="#FFFFFF"></path>
                                <path d="M49,18.9 C49,18.9 41.4,24.3 41.4,26.5 C41.4,28.7 41.4,40.6 40.3,42.8 C39.2,45 39.2,45 39.2,45 C39.2,45 37,46.1 35.9,47.2 C34.8,48.3 32.6,50.5 32.6,50.5" id="Shape" stroke="#FFFFFF"></path>
                                <path d="M32.8,40.6 C32.8,40.6 29.5,43.9 30.6,46 C31.7,48.2 33.9,46 34.9,44.9 C36,43.8 36,40.6 34.9,40.6 C33.8,40.6 32.8,40.6 32.8,40.6 Z" id="Shape" stroke="#FFFFFF"></path>
                                <path d="M34.9,68.8 C34.9,68.8 36,73.1 37.1,73.1 C38.2,73.1 39.3,66.6 38.2,65.5 C37.1,64.4 36,64.4 34.9,62.2 C33.8,60 33.8,55.7 32.7,51.3" id="Shape" stroke="#FFFFFF"></path>
                                <path d="M30.6,54.7 C30.6,54.7 28.4,59 27.3,60.1 C26.2,61.2 26.2,53.6 27.3,52.5 C28.4,51.4 32.7,48.2 32.7,48.2 C32.7,48.2 30.5,50.4 31.6,53.6 C32.7,56.9 32.7,60.1 32.7,62.3 C32.7,64.5 33.8,66.6 30.5,67.7 C27.2,68.8 22.9,68.8 22.9,69.9 C22.9,71 25.1,71 27.2,69.9" id="Shape" stroke="#FFFFFF"></path>
                                <path d="M52.3,64.5 C52.3,64.5 49,67.8 49,69.9 C49,72.1 51.2,72.1 51.2,71 C51.2,69.9 52.3,65.6 52.3,65.6" id="Shape" stroke="#FFFFFF"></path>
                                <path d="M56.6,64.5 C56.6,64.5 56.6,69.9 60.9,71 C65.2,72.1 67.4,71 66.3,69.9 C65.2,68.8 64.1,69.9 62,67.7 C59.8,65.5 57.7,61.3 57.7,61.3" id="Shape" stroke="#FFFFFF"></path>
                            </g>
                            <g id="Layer_149" transform="translate(3391.000000, 187.000000)">
                                <path d="M14.4,0.9 C14.4,0.9 7,4.3 8.3,6.3 C9.6,8.3 11.2,10.1 14.1,9.3 C17,8.5 17.8,4.5 16.4,3.5 C15,2.5 10.5,2.2 10.5,3.2 C10.4,4.2 10.6,17 10.6,17 C10.6,17 7.3,24.5 7.2,25.4 C7.2,26.1 6.5,37.2 6.2,42.1 C6.1,43.6 6.8,45 7.9,45.9 L11.5,48.7 C11.5,48.7 14.1,28.7 12.9,25.7 C11.6,22.7 10.5,16.9 10.5,16.9 L14.6,20.7 C15.5,21.5 16.1,26 16,27.2 L14.5,46.9 C14.5,46.9 22.9,50.3 25.2,60 C27.5,69.7 24.6,70.5 23.2,70.4 C21.8,70.3 16.2,68.1 16.2,68.1 C16.2,68.1 14.4,50.7 10.3,46.6 C8.8,47.5 -0.6,60.4 0.6,65.2 C1.7,70.1 3.1,72.1 7.4,71.4 C11.7,70.7 16.2,68.1 16.2,68.1" id="Shape" stroke="#FFFFFF"></path>
                            </g>
                            <g id="Layer_150" transform="translate(3396.000000, 258.000000)">
                                <path d="M2.4,0.5 L0.9,2.3 C0.9,2.3 3.2,4.4 7.9,4.6 C8.6,4.6 9.2,4.5 9.7,4.2 C10.5,3.8 10.3,2.6 9.4,2.5 L3.7,1.5" id="Shape" stroke="#FFFFFF"></path>
                            </g>
                            <g id="Layer_159" transform="translate(3783.000000, 55.000000)">
                                <path d="M16.5,0 C18.1,0 20.2,0.9 20.7,2.3 C21.2,3.7 21.8,7.9 20.7,8.4 C19.6,8.9 18.1,9.3 17,7.9 C15.9,6.5 14.9,4.2 14.9,2.8 C14.9,1.4 16.5,0.5 16.5,0.5" id="Shape" stroke="#FFFFFF"></path>
                                <path d="M18.4,23.5 C17.9,23.1 18.5,35.9 16.6,37.9 C15.2,39.5 14.7,41 13.8,42 C8.1,50.1 11,45.1 10.7,34.5 C10.5,26.1 9.1,20.1 9.1,17.3 C9.1,14.5 9.6,11.7 10.7,10.3 C11.8,8.9 13.3,8.4 14.4,8" id="Shape" stroke="#FFFFFF"></path>
                                <path d="M18.4,10.1 C18.4,10.1 19.6,13.9 19.5,14.9 C19.4,16.4 18,26.8 18.4,24.5" id="Shape" stroke="#FFFFFF"></path>
                                <path d="M11.9,9.1 C10.3,9.6 7,11.6 6.5,14.9 C6,18.2 5.4,21 5.4,21.4 C5.4,21.8 2.8,20.9 2.8,22.8 C2.8,24.7 -0.4,31.2 0.7,32.1 C1.8,33 9.7,34 10.7,33.5" id="Shape" stroke="#FFFFFF"></path>
                            </g>
                            <g id="Layer_151" transform="translate(3809.000000, 180.000000)">
                                <g id="Layer_154" stroke="#FFFFFF">
                                    <g id="Layer_137">
                                        <path d="M10.5,7.5 C10.5,7.5 8.5,2.5 13.5,0.5 C18.5,-1.5 26.5,4.5 26.5,5.5 C26.5,6.5 21.5,5.5 20.5,5.5 C19.5,5.5 14.5,5.5 12.5,6.5 C10.5,7.5 8.5,12.5 12.5,15.5 C16.5,18.5 22.5,18.5 23.5,15.5 C24.5,12.5 25.5,8.5 23.5,6.5" id="Shape"></path>
                                        <path d="M14.5,16.5 C14.5,16.5 16.5,20.5 13.5,20.5 C10.5,20.5 5.5,19.5 4.5,22.5 C3.5,25.5 1.5,31.5 3.5,33.5 C5.5,35.5 7.5,35.5 8.5,34.5 C9.5,33.5 14.5,29.5 16.5,29.5 C18.5,29.5 22.5,29.5 23.5,30.5 C24.5,31.5 26.5,29.5 24.5,28.5 C22.5,27.5 20.5,26.5 18.5,26.5 C16.5,26.5 15.5,25.5 12.5,28.5 C9.5,31.5 9.5,31.5 9.5,33.5" id="Shape"></path>
                                        <path d="M21.5,17.5 C21.5,17.5 38.5,28.5 36.5,32.5 C34.5,36.5 27.5,35.5 25.5,34.5 C23.5,33.5 21.5,32.5 20.5,32.5 C19.5,32.5 14.5,30.7 13.5,31.6" id="Shape"></path>
                                        <path d="M21.5,33.5 C22.5,34.5 21.5,46.5 21.5,49.5 C21.5,52.5 20.5,68.5 21.5,70.5 C22.5,72.5 26.5,71.5 27.5,72.5 C28.5,73.5 29.5,75.5 25.5,74.5 C21.5,73.5 19.5,73.5 18.5,71.5 C17.5,69.5 15.5,44.5 15.5,43.5 C15.5,42.5 13.5,46.5 13.5,52.5 C13.5,58.5 14.5,68.5 12.5,71.5 C10.5,74.5 8.5,75.5 6.5,76.5 C4.5,77.5 -0.5,77.5 0.5,76.5 C1.5,75.5 6.5,75.5 7.5,73.5 C8.5,71.5 10.5,65.5 11.5,62.5 C12.5,59.5 12.5,37.5 10.5,33.5" id="Shape"></path>
                                        <path d="M16.5,1.5 C15.5,2.5 15.5,4.5 16.5,4.5 C17.5,4.5 19.5,4.5 19.5,3.5 C19.5,2.5 19.5,1.5 18.5,1.5 C17.5,1.5 16.5,1.5 16.5,1.5 Z" id="Shape"></path>
                                    </g>
                                </g>
                            </g>
                            <g id="Layer_141" transform="translate(0.000000, 49.000000)">
                                <g id="Group" stroke="#FFFFFF">
                                    <path d="M3942.5,1 C3933.5,1 3901.7,0.7 3900.5,2.1 C3882.1,23.7 3719.2,210.4 3714.5,211.5 C3710.5,212.4 3664.2,212.8 3644.5,212.6 C3640.3,212.5 3636.4,207.2 3637.5,202.8 L3640.5,197.4" id="Shape"></path>
                                    <g transform="translate(0.000000, 24.000000)" id="Shape">
                                        <path d="M3738.6,44.2 C3739.8,44.2 3743.3,44.2 3743.3,46.6 C3743.3,49 3743.3,50.2 3740.9,51.3 C3738.5,52.4 3737.3,50.1 3737.3,47.7 C3737.3,45.3 3738.6,44.2 3738.6,44.2 Z" stroke-width="0.75"></path>
                                        <path d="M3738.6,51.3 C3738.6,51.3 3741,51.3 3741,52.5 C3741,53.7 3741,54.9 3738.6,54.9 C3736.2,54.9 3736.2,54.9 3735,57.3 C3733.8,59.7 3733.6,67.6 3733.6,67.6 C3733.6,67.6 3733.8,68 3733.8,70.3 C3733.8,72.7 3732.6,79.8 3733.8,79.8 C3735,79.8 3732.6,79.8 3731.4,81 C3730.2,82.2 3729.3,88.4 3730.5,89.6 C3731.7,90.8 3735.3,91.8 3736.5,90.6 C3737.7,89.4 3743.3,83.4 3742.1,82.2 C3740.9,81 3738.5,79.8 3738.5,79.8 L3736.1,77.4 C3736.1,77.4 3734.9,72.7 3736.1,69.1 C3737.3,65.5 3737.3,63.2 3737.3,63.2 L3740.9,72.7 C3740.9,72.7 3738.5,75.1 3738.5,76.3 C3738.5,77.5 3738.5,78.7 3738.5,78.7" stroke-width="0.75"></path>
                                        <path d="M3738.5,88.5 C3738.5,89.7 3743.3,81.9 3745.6,79.5 C3747.9,77.1 3749.2,76 3748,70 C3746.8,64.1 3746.8,58.1 3745.6,55.8 C3744.4,53.4 3742,53.4 3740.9,53.4" stroke-width="0.75"></path>
                                        <path d="M3788.2,3.8 L3792.5,5.2" stroke-width="0.75"></path>
                                        <path d="M3802.6,0.8 C3802.6,0.8 3807.2,10.4 3810,8.6" stroke-width="0.75"></path>
                                        <path d="M7.8,147.8 C5.6,147.8 2.7,148.4 1.9,150.2 C1.2,152 0.8,157 1.9,158.1 C3.7,160.1 7.2,160.3 8.7,158.5 C10.2,156.7 10.6,152.5 10,150.8 C9.5,149.1 7.9,147.8 7.8,147.8"></path>
                                        <path d="M4.9,179.6 C5.6,179.1 4.7,195.8 7.3,198.5 C9.3,200.6 9.3,200.5 10.6,201.9 C13,199.8 14,200.4 15.6,194 C18.1,183.3 16.9,176.3 16.9,172.6 C16.9,168.9 15.2,163.8 13.8,162 C12.3,160.2 10,159.9 8.6,159.3"></path>
                                        <path d="M6.1,160.5 C6.1,160.5 4.2,167.9 4.3,169.2 C4.5,171.2 5.6,183.9 5,180.9"></path>
                                        <path d="M14.6,162.7 C16.8,163.3 20.7,166.2 21.5,170.5 C22.2,174.8 23,176.3 23,176.9 C23,177.5 26.7,176.3 26.7,178.7 C26.7,181.1 30.3,186.4 28.8,187.7 C27.3,189 17.2,193.4 15.7,192.8"></path>
                                        <path d="M23.2,177.4 L17.3,179.2" stroke-width="0.75"></path>
                                        <path d="M4.1,169.9 C4.1,169.9 4.5,191.4 0.1,191.6" stroke-width="0.75"></path>
                                    </g>
                                </g>
                                <g id="Group" stroke="#FFFFFF">
                                    <path d="M3942.5,1 C3933.5,1 3901.7,0.7 3900.5,2.1 C3882.1,23.7 3719.2,210.4 3714.5,211.5 C3710.5,212.4 3664.2,212.8 3644.5,212.6 C3640.3,212.5 3636.4,207.2 3637.5,202.8 L3640.5,197.4" id="Shape"></path>
                                    <g transform="translate(0.000000, 24.000000)" id="Shape">
                                        <path d="M3738.6,44.2 C3739.8,44.2 3743.3,44.2 3743.3,46.6 C3743.3,49 3743.3,50.2 3740.9,51.3 C3738.5,52.4 3737.3,50.1 3737.3,47.7 C3737.3,45.3 3738.6,44.2 3738.6,44.2 Z"></path>
                                        <path d="M3738.6,51.3 C3738.6,51.3 3741,51.3 3741,52.5 C3741,53.7 3741,54.9 3738.6,54.9 C3736.2,54.9 3736.2,54.9 3735,57.3 C3733.8,59.7 3733.6,67.6 3733.6,67.6 C3733.6,67.6 3733.8,68 3733.8,70.3 C3733.8,72.7 3732.6,79.8 3733.8,79.8 C3735,79.8 3732.6,79.8 3731.4,81 C3730.2,82.2 3729.3,88.4 3730.5,89.6 C3731.7,90.8 3735.3,91.8 3736.5,90.6 C3737.7,89.4 3743.3,83.4 3742.1,82.2 C3740.9,81 3738.5,79.8 3738.5,79.8 L3736.1,77.4 C3736.1,77.4 3734.9,72.7 3736.1,69.1 C3737.3,65.5 3737.3,63.2 3737.3,63.2 L3740.9,72.7 C3740.9,72.7 3738.5,75.1 3738.5,76.3 C3738.5,77.5 3738.5,78.7 3738.5,78.7"></path>
                                        <path d="M3738.5,88.5 C3738.5,89.7 3743.3,81.9 3745.6,79.5 C3747.9,77.1 3749.2,76 3748,70 C3746.8,64.1 3746.8,58.1 3745.6,55.8 C3744.4,53.4 3742,53.4 3740.9,53.4"></path>
                                        <path d="M3788.2,3.8 L3792.5,5.2"></path>
                                        <path d="M3802.6,0.8 C3802.6,0.8 3807.2,10.4 3810,8.6"></path>
                                        <path d="M7.8,147.8 C5.6,147.8 2.7,148.4 1.9,150.2 C1.2,152 0.8,157 1.9,158.1 C3.7,160.1 7.2,160.3 8.7,158.5 C10.2,156.7 10.6,152.5 10,150.8 C9.5,149.1 7.9,147.8 7.8,147.8"></path>
                                        <path d="M4.9,179.6 C5.6,179.1 4.7,195.8 7.3,198.5 C9.3,200.6 9.3,200.5 10.6,201.9 C13,199.8 14,200.4 15.6,194 C18.1,183.3 16.9,176.3 16.9,172.6 C16.9,168.9 15.2,163.8 13.8,162 C12.3,160.2 10,159.9 8.6,159.3"></path>
                                        <path d="M6.1,160.5 C6.1,160.5 4.2,167.9 4.3,169.2 C4.5,171.2 5.6,183.9 5,180.9"></path>
                                        <path d="M14.6,162.7 C16.8,163.3 20.7,166.2 21.5,170.5 C22.2,174.8 23,176.3 23,176.9 C23,177.5 26.7,176.3 26.7,178.7 C26.7,181.1 30.3,186.4 28.8,187.7 C27.3,189 17.2,193.4 15.7,192.8"></path>
                                        <path d="M23.2,177.4 L17.3,179.2"></path>
                                        <path d="M4.1,169.9 C4.1,169.9 4.5,191.4 0.1,191.6"></path>
                                    </g>
                                </g>
                            </g>
                            <g id="Layer_144" transform="translate(3627.000000, 0.000000)">
                                <path d="M317.5,0.1 C313.5,0.1 314.5,-0.1 286.5,0.1 C279,0.1 255.5,1.2 249.5,6.6 C237,17.9 71.5,209.5 61.5,211.6 C51.5,213.8 30.1,214.4 14.6,214.8 C7.6,215 1.8,220.7 1.1,228.3 C0.6,233.2 1.5,238.5 5.1,243.1 C6.8,245.3 9.4,246.4 12,246.5 C48.4,247 71.1,246.7 76.4,243.2 C82.4,234.5 264.4,31.7 271.4,30.6 C278.4,29.5 317.4,29.5 317.4,29.5" id="Shape" stroke="#FFFFFF"></path>
                            </g>
                            <g id="Layer_161" transform="translate(12.000000, 214.000000)">
                                <path d="M134,27.3 C132.6,27.3 134.5,43.5 132.7,43.6 C119.9,43.7 98.8,43.4 97.5,44.6 C94.3,47.2 87.8,52.6 78.8,59.8" id="Shape" stroke="#FFFFFF"></path>
                                <path d="M146.6,26.3 C156.7,18.6 150.9,2.3 142.8,1.4 C134,0.4 79.9,-2.4 67.3,5.2 C61.7,8.6 37,30.6 0.7,59.4 C24.2,58.5 44,59.4 48.8,58.8 C74.4,39.6 92.6,26.6 95,26.3 C103.8,25.3 146.6,26.3 146.6,26.3" id="Shape" stroke="#FFFFFF"></path>
                            </g>
                            <g id="Layer_164" transform="translate(184.000000, 185.000000)">
                                <g id="Layer_165" transform="translate(3252.000000, 0.000000)" stroke="#FFFFFF">
                                    <path d="M24.5,1.9 C24.5,1.9 27.8,1.9 27.8,5.2 C27.8,8.5 27.8,10.8 26.7,10.8 C25.6,10.8 22.3,9.7 22.3,7.5 C22.3,5.3 23.4,1.9 23.4,0.8" id="Shape"></path>
                                    <path d="M24.5,10.8 C24.5,10.8 26.4,11.4 24.5,16.4 C24.1,17.5 23.1,18.8 22.3,19.7 C17.9,25.3 13.4,45.3 15.6,47.5 C17.8,49.7 22.3,37.5 23.4,31.9 C24.5,26.3 24.5,16.3 24.5,16.3 C24.5,16.3 14.2,33.5 13.1,39.1" id="Shape"></path>
                                    <path d="M21.2,44.2 C21.2,46.4 26.8,63.1 26.8,66.4 C26.8,69.7 35.7,65.3 35.7,67.5 C35.7,69.7 27.9,70.8 26.8,69.7" id="Shape"></path>
                                    <path d="M15.6,48.6 C15.6,48.6 16.7,58.6 13.4,61.9 C10.1,65.2 0.1,65.2 0.1,67.5 C0.1,69.7 5.7,70.8 6.8,69.7 C7.9,68.6 3.5,67.5 3.5,67.5" id="Shape"></path>
                                    <path d="M79.7,0.8 C79.7,0.8 80.8,0.8 80.8,4.2 C80.8,7.6 79.7,9.8 77.6,8.7 C75.4,7.6 74.4,5.3 75.4,3.1 C76.4,0.8 77.5,0.8 79.7,0.8 Z" id="Shape"></path>
                                    <path d="M78.6,9.8 C78.6,9.8 82.9,18.8 80.8,26.7 C78.6,34.6 78.6,36.8 78.6,40.2 C78.6,43.6 84,56 85.1,59.4 C86.2,62.8 82.9,67.3 86.2,68.4 C89.5,69.5 92.7,65 93.8,67.3 C94.9,69.6 91.6,71.8 89.5,70.7" id="Shape"></path>
                                    <path d="M78.6,9.8 C78.6,9.8 74.3,12.1 74.3,19.9 C74.3,27.7 71.1,35.7 74.3,39.1 C77.5,42.5 76.5,43.6 77.5,41.4" id="Shape"></path>
                                    <path d="M75.3,41.4 C75.3,41.4 72.1,53.8 69.9,58.3 C67.7,62.8 62.3,65.1 62.3,67.3 C62.3,69.5 64.5,72.9 66.6,71.8 C68.7,70.7 66.6,68.4 65.5,67.3" id="Shape"></path>
                                    <path d="M75.3,14.2 C75.3,14.2 67.6,18.6 66.5,22 C65.4,25.3 64.3,28.7 64.3,28.7 L62.3,35.6 C62.3,35.6 65.4,35.3 65.4,38.6 C65.4,41.9 65.5,49.7 63.3,50.8 C61.1,51.9 55,49.9 53.9,48.8 C52.8,47.7 60.1,36.7 62.3,35.6" id="Shape"></path>
                                    <path d="M77.5,18.9 C78.6,18.9 78.6,27.9 82.9,32.4 C87.2,36.9 88.3,39.2 89.4,38 C90.5,36.8 92.6,41.4 90.5,40.3 C88.3,39.2 87.3,38 87.3,38" id="Shape"></path>
                                </g>
                                <path d="M77.9,3.3 C77.9,3.3 74.2,3.3 74.2,6.8 C74.2,10.3 74.2,12.7 75.4,12.7 C76.6,12.7 80.4,11.5 80.4,9.2 C80.4,6.9 79.2,3.3 79.2,2.2" id="Shape" stroke="#FFFFFF"></path>
                                <path d="M77.9,12.7 C77.9,12.7 75.7,13.3 77.9,18.6 C78.4,19.7 79.5,21.1 80.4,22.1 C85.4,28 90.4,49.1 87.9,51.4 C85.4,53.7 80.4,40.8 79.2,35 C78,29.1 78,18.6 78,18.6 C78,18.6 89.5,36.8 90.8,42.7" id="Shape" stroke="#FFFFFF"></path>
                                <path d="M81.7,47.9 C81.7,50.2 75.5,67.8 75.5,71.4 C75.5,74.9 65.5,70.2 65.5,72.6 C65.5,75 74.2,76.1 75.5,74.9" id="Shape" stroke="#FFFFFF"></path>
                                <path d="M87.9,52.6 C87.9,52.6 86.7,63.2 90.4,66.7 C94.1,70.2 105.3,70.2 105.3,72.6 C105.3,75 99.1,76.1 97.8,74.9 C96.6,73.7 101.5,72.6 101.5,72.6" id="Shape" stroke="#FFFFFF"></path>
                                <path d="M16.2,2.1 C16.2,2.1 15,2.1 15,5.7 C15,9.3 16.2,11.6 18.6,10.5 C21,9.4 22.2,6.9 21,4.6 C19.8,2.1 18.6,2.1 16.2,2.1 Z" id="Shape" stroke="#FFFFFF"></path>
                                <path d="M17.4,11.6 C17.4,11.6 12.6,21.1 15,29.4 C17.4,37.7 17.4,40.1 17.4,43.7 C17.4,47.3 11.4,60.4 10.1,63.9 C8.9,67.5 12.5,72.2 8.9,73.4 C5.3,74.6 1.6,69.8 0.4,72.2 C-0.8,74.6 2.8,77 5.2,75.8" id="Shape" stroke="#FFFFFF"></path>
                                <path d="M17.4,11.6 C17.4,11.6 22.2,14 22.2,22.3 C22.2,30.6 25.8,39 22.2,42.5 C18.6,46 19.8,47.3 18.6,44.9" id="Shape" stroke="#FFFFFF"></path>
                                <path d="M21,44.9 C21,44.9 24.6,58 27,62.7 C29.4,67.5 35.5,69.8 35.5,72.2 C35.5,74.6 33.1,78.1 30.7,77 C28.3,75.8 30.7,73.4 31.9,72.2" id="Shape" stroke="#FFFFFF"></path>
                                <path d="M21.1,16.2 C21.1,16.2 29.7,20.9 31,24.4 C32.3,27.9 33.5,31.4 33.5,31.4 L35.7,38.6 C35.7,38.6 32.2,38.3 32.2,41.8 C32.2,45.3 32.1,53.5 34.5,54.7 C37,55.9 43.8,53.7 45.1,52.6 C46.4,51.5 38.2,39.8 35.7,38.7" id="Shape" stroke="#FFFFFF"></path>
                                <path d="M18.6,21.1 C17.4,21.1 17.4,30.6 12.6,35.4 C7.8,40.2 6.6,42.5 5.3,41.3 C4.1,40.1 1.7,44.9 4.1,43.7 C6.5,42.5 7.7,41.3 7.7,41.3" id="Shape" stroke="#FFFFFF"></path>
                                <path d="M3686.2,34.5 C3685.6,34.5 3682.3,34.5 3681.8,35.6 C3681.2,36.7 3680.7,40.6 3681.2,41.7 C3681.7,42.8 3682.9,44.5 3684.5,45.6 C3686.2,46.7 3688.4,46.2 3688.9,45 C3689.5,43.9 3690.6,37.2 3688.3,35.5 C3686.2,34 3686.2,34.5 3686.2,34.5 Z" id="Shape" stroke="#FFFFFF"></path>
                                <path d="M3681.5,35.5 C3681.5,35.5 3678.4,37.9 3677.8,39 C3677.2,40.1 3677.2,42.3 3677.8,42.3 C3678.4,42.3 3680.8,40.6 3680.8,40.6" id="Shape" stroke="#FFFFFF"></path>
                                <path d="M3687.5,34.5 C3687.5,34.5 3692.3,36.7 3692.8,38.4 C3693.4,40.1 3692.8,40.6 3692.2,40.6 C3691.6,40.6 3689.8,39.2 3689.8,39.2" id="Shape" stroke="#FFFFFF"></path>
                                <path d="M3678.5,57.5 C3679.1,49.7 3682.7,44.7 3682.7,44.7" id="Shape" stroke="#FFFFFF"></path>
                                <path d="M3678.5,57.5 C3680.1,56.9 3677.5,57.4 3676.5,59.5 C3675.5,61.6 3677.8,64 3678.4,66.2 C3679,68.4 3679,68.4 3678.4,69 C3677.8,69.6 3676.2,69 3675.1,69 C3674,69 3672.9,69.6 3673.4,70.1 C3674,70.7 3676.2,71.8 3676.7,71.2 C3677.2,70.6 3680.5,70.6 3680.5,69.5" id="Shape" stroke="#FFFFFF"></path>
                                <path d="M3689.5,44.5 C3689.5,44.5 3692.5,51.5 3692.8,56.8" id="Shape" stroke="#FFFFFF"></path>
                                <path d="M3692.3,57.3 C3692.3,57.3 3693.4,56.2 3694.5,58.4 C3695.6,60.6 3695.6,65.6 3695.1,66.7 C3694.5,67.8 3698.4,66.1 3699,67.3 C3699.6,68.5 3700.7,69.5 3699.6,69.5 C3698.5,69.5 3694.6,69.5 3693.5,68.9 L3691.7,69.3" id="Shape" stroke="#FFFFFF"></path>
                                <path d="M3683.5,51.5 C3683.5,51.5 3681.1,72.5 3680.5,72.5 C3679.9,72.5 3677.8,73.9 3678.4,74.5 C3679,75.1 3680.6,75.1 3681.2,74.5 C3681.8,73.9 3682.5,72.5 3682.5,72.5" id="Shape" stroke="#FFFFFF"></path>
                                <path d="M3688.5,71.3 C3688.5,72.4 3686.3,71.9 3687.4,73 C3688.5,74.1 3691.3,73.6 3691.8,73 C3692.4,72.4 3691.2,71.9 3690.7,71.3 C3690.2,70.7 3689,53.1 3688.5,51.5" id="Shape" stroke="#FFFFFF"></path>
                                <path d="M2479.3,4.3 C2479.3,4.3 2480.6,4.3 2480.6,8 C2480.6,11.7 2479.3,14.2 2476.8,12.9 C2474.3,11.7 2473,9.2 2474.3,6.7 C2475.6,4.3 2476.8,4.3 2479.3,4.3 Z" id="Shape" stroke="#FFFFFF"></path>
                                <path d="M2478.1,14.1 C2478.1,14.1 2483.1,24 2480.6,32.6 C2478.1,41.2 2478.1,43.7 2478.1,47.4 C2478.1,51.1 2478.1,72.8 2479.3,76.5 C2479.3,76.5 2482.7,76 2483.2,77.3 C2483.7,78.6 2485,81.2 2482.7,80.4 C2480.3,79.6 2477.2,78.3 2477.2,78.3" id="Shape" stroke="#FFFFFF"></path>
                                <path d="M2478.1,14.1 C2478.1,14.1 2473.1,16.6 2473.1,25.2 C2473.1,33.8 2472,44.5 2473.1,46.2 C2476,50.6 2477.3,50.7 2478.6,48.2" id="Shape" stroke="#FFFFFF"></path>
                                <path d="M2474.3,48.7 C2474.3,48.7 2474.4,67.8 2473.8,75 C2473.8,75 2474.1,75.3 2475.1,76.6 C2476.1,77.9 2477.5,80.5 2475.6,80 C2473.7,79.5 2471.4,79 2471.4,79 L2473.8,75.1" id="Shape" stroke="#FFFFFF"></path>
                                <path d="M2476.8,24 C2478.1,24 2479,32 2484,37 C2489,41.9 2490.9,39.3 2492.1,38" id="Shape" stroke="#FFFFFF"></path>
                            </g>
                            <g id="Layer_170" transform="translate(2532.000000, 185.000000)">
                                <g id="Layer_171" transform="translate(42.000000, 0.000000)" stroke="#FFFFFF">
                                    <path d="M529.4,40.4 C529.4,40.4 529.7,45.9 529.7,48.6 C529.7,51.3 529,81.1 529,81.1 L720.3,81.1 L720.3,41.1 L637,41.1 L536.4,40.9 L529.4,40.4 Z" id="Shape"></path>
                                    <path d="M735.5,1.3 C735.5,1.3 729.5,3.7 729.5,8.5 C729.5,13.3 733.2,15.7 734.5,14.5 C735.7,13.3 741.6,9.7 739.2,6 C736.8,2.3 739.1,2.5 735.5,1.3 Z" id="Shape"></path>
                                    <path d="M735.3,15.9 C735.3,15.9 732.5,20.1 732.5,21.5 C732.5,22.9 732.5,43.7 735.3,46.5 C738.1,49.3 739.5,46.5 739.5,46.5 C739.5,46.5 742.4,21.9 738.3,14.9" id="Shape"></path>
                                    <path d="M751.6,45.3 C751.6,44.8 752.3,33.3 749,28.5 C745.7,23.6 740.3,20 740.3,20" id="Shape"></path>
                                    <path d="M745.4,50.8 C744.9,51 741.4,56.7 741.6,58.1 C741.8,59.5 741.1,65.2 743.2,67.3 C745.3,69.4 759.9,74.9 759.9,64.7 C759.9,54.5 756.4,47.7 752.8,45.3 C749.2,42.9 746.9,47.7 746.6,48.6 C746.3,49.5 744.5,51.9 745.9,52.6 C747.3,53.3 756.5,54 756.7,53.1 C756.9,52.2 756.5,49.8 756.5,49.8" id="Shape"></path>
                                    <path d="M732.5,21.5 C731.3,22 719.7,22.9 716.2,20.5 C712.7,18.1 711.7,19.3 711.2,16.7 C710.7,14.1 709.3,21 709.1,23.5 C708.9,25.9 705.6,23.3 706,30.6 C706.3,37.9 705.6,40.7 708.5,41.2 C712.6,41.9 716.6,38.8 717.5,37.1 C718.4,35.4 719.9,31.9 718.5,30 C717.1,28.1 714.7,26.2 714.7,25.5 C714.7,24.8 714.7,20.5 714,19.3" id="Shape"></path>
                                    <path d="M735.8,48 C735.8,48 736.3,74.2 735.1,75.8 C733.9,77.4 728.3,75.8 726.9,76.3 C725.5,76.8 723.6,77.2 725.2,77.9 C726.8,78.6 730.9,78.4 732.1,77.4" id="Shape"></path>
                                    <path d="M738.3,48 C738.3,48 739.9,58.6 739.5,62.4 C739.2,66.2 739,78.5 739,78.5 C739,78.5 744.4,74.2 745.4,75.7 C746.4,77.3 748,79.3 745.1,78.5 C742.2,77.7 740.6,77.8 740.6,77.8" id="Shape"></path>
                                    <path d="M624.8,2.5 C624.8,2.5 619.6,1.2 616.6,6.5 C613.6,11.9 621.6,15.8 623,16 C624.4,16.2 629.2,10.2 624.8,2.5 Z" id="Shape"></path>
                                    <path d="M624.8,2.5 C625.3,1.3 628.5,-0.5 629.7,0.7 C630.9,1.9 633.6,10.4 635.7,10.3 C637.9,10.1 637.9,10.1 637.9,10.1" id="Shape"></path>
                                    <path d="M616.3,8.8 C616.3,8.8 619,9.8 620.8,9.3" id="Shape"></path>
                                    <path d="M622.3,16.3 C622.3,16.3 614.6,26.3 618.6,36.3 C622.6,46.4 629,35.8 628.8,35.3 C628.6,34.8 627,17.8 624.7,16.3" id="Shape"></path>
                                    <path d="M600.9,29.1 C600.9,29.1 601.7,26.2 603.2,27.3 C604.7,28.3 605.7,32.2 608.7,31.7 C611.7,31.2 623.6,23.8 625.1,22" id="Shape"></path>
                                    <path d="M633.2,17.5 C633,18 633,40.8 633,40.8 L636.7,40.1 C636.7,40.1 636.5,17.5 636,16.3 C635.6,15.2 633.9,15.7 633.2,17.5 Z" id="Shape"></path>
                                    <path d="M583.6,27.3 L583.8,40.9 L608.6,40.9 C608.6,40.9 607.9,33.9 606.6,33 C605.3,32.1 596,33.2 595.2,31.3 C594.4,29.5 592.9,26.1 592.9,26.1 L583,25.9 L583.5,28.4" id="Shape"></path>
                                    <path d="M578.1,24.9 C578.3,24.4 579.9,21.4 582.6,21.4 C585.3,21.4 585.3,21.4 585.3,21.4 L586.3,25.3" id="Shape"></path>
                                    <path d="M536.4,26.7 L536.8,40.4 L542.7,40.2 C542.7,40.2 543.4,26.3 541.5,23.6 C539.6,20.9 539.7,20.9 539.7,20.9 L540.4,18.2 C540.4,18.2 540.4,17 539.1,18 C539.1,18 537.8,20.7 537.8,22 C537.8,23.3 536.1,22.8 536.5,25" id="Shape"></path>
                                    <path d="M549.9,29.5 L550.7,38.2 L556.7,38.2 C556.7,38.2 557,30.8 555.7,29.6 C554.5,28.4 550.3,29.5 549.9,29.5 Z" id="Shape"></path>
                                    <path d="M565.4,29.3 C565.2,30.1 564.6,38.4 565.6,38.4 C566.6,38.4 569.3,38.9 569.5,38.2 C569.7,37.5 569.3,31.3 569.2,30.7 C569,30 567.4,27.8 566.3,28.5" id="Shape"></path>
                                    <path d="M536.7,26.9 C536.6,24.9 533.2,22.9 530.3,22 C528.3,21.4 514.6,20 511.1,19.7 C510.6,19.7 510.2,19.4 510,18.9 C509.1,17.1 506.6,12.3 505,12 C503,11.7 501.9,10.5 499.5,14.3 C497.2,18.1 494.2,16.2 493.9,16.9 C493.6,17.6 485.3,27.6 485.5,31.4 C485.7,35.2 489.7,40.5 491.6,41.1" id="Shape"></path>
                                    <path d="M510.7,19.8 C510.7,19.8 508.1,21.7 508.1,22.4 C508.1,23.1 508.2,45.3 508.5,46.8 C508.8,48.3 510.7,58 510.8,60.4 C510.9,62.9 511.6,81.4 511.6,81.4 L509.5,80.7 C509.5,80.7 507.4,63.3 507,61.4 C506.7,59.5 505,47.9 504.2,47.2 C503.4,46.5 499.7,58.5 499.6,61.8 C499.5,65.1 497.8,78.9 498.7,80.6 C499.6,82.3 495.1,80.9 495.1,80.9 C495.1,80.9 496.6,76.5 496.6,76.2 C496.6,75.9 496.5,45.4 496.8,41.9 C497.1,38.4 497.1,32.6 497.8,29.6 C498.5,26.6 498.8,19.3 498.7,18.6" id="Shape"></path>
                                </g>
                                <g id="Layer_173" transform="translate(0.000000, 5.000000)" stroke="#FFFFFF">
                                    <g id="Layer_174">
                                        <path d="M515.5,33.5 C516.1,33.4 524,32.8 525.3,35.5 C526.6,38.2 527.8,40.1 527.8,40.1 L538,40.9" id="Shape"></path>
                                        <path d="M551.5,40.8 L563.1,41 C563.1,41 561.1,51.2 558.6,53 C556.1,54.8 553.5,55.2 553.5,55.2" id="Shape"></path>
                                        <path d="M537.6,55.2 C537.6,55.2 533.1,55.9 532,55 C530.9,54.1 527.8,53 527.8,40.1" id="Shape"></path>
                                        <path d="M532.7,56 L532.5,69.9 C532.5,69.9 530.2,70.1 529.9,71.2 C529.7,72.3 531.6,72.9 532.5,72.4 C533.4,72 533.7,70.7 532.5,69.8" id="Shape"></path>
                                        <path d="M556.6,54.4 C556.5,55.1 556.4,68.4 556.7,69.2 C557,70 560.9,68.5 560.8,70.4 C560.7,72.3 558.9,73.2 557.7,72 C556.5,70.8 556.7,69.2 556.7,69.2" id="Shape"></path>
                                        <path d="M262.6,31.1 C263.2,31 268.4,31.1 269.9,34.1 C271.4,37.1 272.6,39.2 272.6,39.2" id="Shape"></path>
                                        <path d="M272.7,39.1 L311.7,40 C311.7,40 309.5,51.3 306.7,53.2 C304,55.2 282.5,56.3 282.5,56.3" id="Shape"></path>
                                        <path d="M278.1,56.7 L277.9,72 C277.9,72 275.3,72.2 275.1,73.5 C274.9,74.7 277,75.4 277.9,74.9 C278.9,74.4 279.3,73 277.9,72.1" id="Shape"></path>
                                        <path d="M304.6,54.9 C304.5,55.6 304.4,70.4 304.7,71.2 C305.1,72.1 309.4,70.5 309.3,72.6 C309.2,74.7 307.2,75.7 305.8,74.3 C304.4,72.9 304.7,71.2 304.7,71.2" id="Shape"></path>
                                        <path d="M273.6,48.3 L310.7,46.5" id="Shape"></path>
                                        <path d="M281.7,39.6 L282.6,56.4 C282.6,56.4 278.6,56.6 277.4,55.6 C276.2,54.6 272.7,53.4 272.7,39.1" id="Shape"></path>
                                        <path d="M297.9,40.2 L297.6,55.2" id="Shape"></path>
                                        <path d="M226.6,40.8 C226.2,40.9 222.7,44.1 222.8,45.3 C222.9,46.5 223.4,49.2 224.8,48.8 C226.2,48.4 229.1,45.8 229,44.2 C228.9,42.6 227.9,40.6 226.6,40.8 Z" id="Shape"></path>
                                        <path d="M224.9,48.8 C224.9,48.8 223.6,53 224.2,54.7 C224.8,56.4 225.5,63.2 225.9,64.6 C226.3,66 228.7,66.6 228.9,65.2 C229.2,63.8 226.9,50.7 226.6,48.8" id="Shape"></path>
                                        <path d="M226.2,66.2 C226.2,66.2 225.8,70.7 222.7,71.6 C219.6,72.5 215.7,74.6 215,73.9" id="Shape"></path>
                                        <path d="M228.9,66.1 C228.9,66.1 230.8,67.3 230.5,70.6 C230.2,73.9 229.9,75.1 230.4,75.2" id="Shape"></path>
                                        <path d="M223.4,52.9 C222.7,53.2 220.1,54.8 219.9,56.4 C219.8,58 219.2,63.8 219.2,63.2" id="Shape"></path>
                                        <path d="M227.5,50.4 C227.5,50.4 232,49.2 232.7,47.9 C233.4,46.6 232.8,45.9 233.4,44.4 C234.2,42.5 235.4,28.3 235.4,27 C235.4,25.7 243.8,18.2 243.8,18.2" id="Shape"></path>
                                        <path d="M250.4,64.3 C250.4,64.3 251.8,70.1 254.9,71 C258,71.9 261.7,72.2 261.1,73.2 C260.5,74.2 255.9,75.2 254.9,73.6 C253.9,72 253.3,71 253.3,71" id="Shape"></path>
                                        <path d="M246.3,66 C246.3,66 243.4,70.1 243,72.1 C242.6,74.1 245.3,75.7 245.8,74.1 C246.2,72.5 246.4,68.2 246.4,68.2" id="Shape"></path>
                                        <path d="M143.6,32.7 C144.2,32.6 149.8,31.9 151.2,34.8 C152.6,37.6 153.8,39.6 153.8,39.6" id="Shape"></path>
                                        <path d="M153.9,39.7 L190.9,40.6 C190.9,40.6 188.8,51.3 186.2,53.2 C183.6,55.1 163.2,56.1 163.2,56.1" id="Shape"></path>
                                        <path d="M159,57.3 L158.8,71.8 C158.8,71.8 156.3,72 156.1,73.2 C155.9,74.4 157.9,75 158.8,74.5 C159.7,74 160.1,72.7 158.8,71.8" id="Shape"></path>
                                        <path d="M154.7,48.3 L189.8,46.7" id="Shape"></path>
                                        <path d="M162.4,40.1 L163.2,56 C163.2,56 159.4,56.2 158.3,55.2 C157.1,54.3 153.8,53.1 153.8,39.6" id="Shape"></path>
                                        <path d="M177.7,40.6 L177.5,54.9" id="Shape"></path>
                                        <path d="M0.6,29.9 C1.2,29.8 6.8,29.1 8.2,32 C9.6,34.8 10.8,36.8 10.8,36.8" id="Shape"></path>
                                        <path d="M10.9,36.8 L47.9,37.7 C47.9,37.7 45.8,48.4 43.2,50.3 C40.6,52.2 20.2,53.2 20.2,53.2" id="Shape"></path>
                                        <path d="M16,54.4 L15.8,68.9 C15.8,68.9 13.3,69.1 13.1,70.3 C12.9,71.5 14.9,72.1 15.8,71.6 C16.7,71.1 17.1,69.8 15.8,68.9" id="Shape"></path>
                                        <path d="M41.1,52.8 C41,53.5 40.9,67.5 41.2,68.3 C41.6,69.1 45.7,67.6 45.5,69.6 C45.4,71.6 43.5,72.5 42.2,71.2 C40.9,69.9 41.1,68.3 41.1,68.3" id="Shape"></path>
                                        <path d="M11.7,45.5 L46.8,43.8" id="Shape"></path>
                                        <path d="M19.4,37.2 L20.2,53.1 C20.2,53.1 16.4,53.3 15.3,52.3 C14.1,51.4 10.8,50.2 10.8,36.7" id="Shape"></path>
                                        <path d="M34.7,37.8 L34.5,52.1" id="Shape"></path>
                                        <path d="M342.3,11.3 C342.3,11.3 347.3,11.2 345.2,3.6 C345.2,3.6 339.5,-0.1 337.4,3.5 C336.4,5.2 334.5,7.4 336.4,9.4 C338.4,11.3 340.4,11.3 342.3,11.3 C343.3,11.3 342,13.5 340.8,15.4 C339.6,17.4 338.3,19.1 338.3,20.1 C338.3,22.1 340.3,39.8 339.3,42.7 C338.3,45.6 335.4,64.3 335.4,64.3 C335.4,64.3 338.3,66.3 342.3,65.3 C346.2,64.3 350.2,66.3 351.1,65.3 C352.1,64.3 347.2,49.6 348.2,46.6 C348.9,44.6 344.6,32.2 348.2,25 C349.2,23 351.1,20.1 350.2,19.1 C349.3,18.2 345.4,16.5 342.2,15.5 C339.6,14.7 346.3,31.9 348.2,32.9 C350.1,33.9 355.1,33.9 360,31.9 C364.9,29.9 362.9,29.9 362.9,29.9" id="Shape"></path>
                                        <path d="M342.3,66.4 L337.4,75.2 L342.3,75.2 C342.3,75.2 344.3,77.2 346.2,77.2 C346.5,77.2 347.9,77.3 348.2,77.2 C349.5,76.8 347.4,75.1 346.2,74.3 C345.4,73.7 344.7,73.8 344.2,73.3 C343.2,72.3 344.2,65.4 344.2,65.4 L342.2,75.2" id="Shape"></path>
                                        <path d="M359,31.4 C359,32.4 359.8,36.9 359.8,36.9 C359.8,36.9 369.1,36.9 369.8,35.9 C370.5,34.9 367.6,47.7 366.9,48.7 C366.2,49.7 351.8,47.7 351.8,46.7 C351.8,45.7 349.6,39.8 350.4,37.9 C351.1,35.9 359.7,36.9 359.7,36.9" id="Shape"></path>
                                        <path d="M402.8,0.4 C402.8,0.4 404.1,0.4 404.1,4.1 C404.1,7.8 402.8,10.3 400.3,9 C397.8,7.8 396.5,5.3 397.8,2.8 C399,0.4 400.3,0.4 402.8,0.4 Z" id="Shape"></path>
                                        <path d="M401.6,10.3 C401.6,10.3 406.6,20.2 404.1,28.8 C401.6,37.4 401.6,39.9 401.6,43.6 C401.6,47.3 401.6,69 402.8,72.7 C402.8,72.7 406.2,72.2 406.7,73.5 C407.2,74.8 408.5,77.4 406.2,76.6 C403.8,75.8 400.7,74.5 400.7,74.5" id="Shape"></path>
                                        <path d="M401.6,10.3 C401.6,10.3 396.6,12.8 396.6,21.4 C396.6,30 395.5,40.7 396.6,42.4 C399.5,46.8 400.8,46.9 402.1,44.4" id="Shape"></path>
                                        <path d="M397.8,44.8 C397.8,44.8 397.9,63.9 397.3,71.1 C397.3,71.1 397.6,71.4 398.6,72.7 C399.6,74 401,76.6 399.1,76.1 C397.2,75.6 394.9,75.1 394.9,75.1 L397.3,71.2" id="Shape"></path>
                                        <path d="M400.3,20.1 C401.6,20.1 402.5,28.1 407.5,33.1 C412.5,38 414.4,35.4 415.6,34.1" id="Shape"></path>
                                        <path d="M415.1,33.9 C415.7,33.8 421.3,33.1 422.7,36 C424.1,38.8 425.3,40.8 425.3,40.8" id="Shape"></path>
                                        <path d="M425.3,40.8 L462.3,41.7 C462.3,41.7 460.2,52.4 457.6,54.3 C455,56.2 434.6,57.2 434.6,57.2" id="Shape"></path>
                                        <path d="M430.4,58.4 L430.2,72.9 C430.2,72.9 427.7,73.1 427.5,74.3 C427.3,75.5 429.3,76.1 430.2,75.6 C431.1,75.1 431.5,73.8 430.2,72.9" id="Shape"></path>
                                        <path d="M426.2,49.4 L461.3,47.8" id="Shape"></path>
                                        <path d="M433.9,41.2 L434.7,57.1 C434.7,57.1 430.9,57.3 429.8,56.3 C428.6,55.4 425.3,54.2 425.3,40.7" id="Shape"></path>
                                        <path d="M449.2,41.7 L449,56" id="Shape"></path>
                                        <path d="M455.1,56.6 C455,57.3 454.9,71.3 455.2,72.1 C455.6,72.9 459.7,71.4 459.5,73.4 C459.4,75.4 457.5,76.3 456.2,75 C454.9,73.7 455.1,72.1 455.1,72.1" id="Shape"></path>
                                    </g>
                                    <path d="M571.8,43.6 L760.7,43" id="Shape"></path>
                                </g>
                            </g>
                            <g id="Layer_175" transform="translate(351.000000, 185.000000)">
                                <g id="Layer_176">
                                    <g id="DAAkF3.tif_1_" opacity="0.67" transform="translate(2099.000000, 17.000000)"></g>
                                    <g id="Layer_177" stroke="#FFFFFF">
                                        <path d="M2426.7,5.3 C2426.7,5.3 2425.2,10.1 2425.3,11.5 C2425.5,12.9 2426.7,15 2428.6,15.6 C2430.5,16.2 2433.4,12.9 2432.1,10 C2430.7,7.1 2429.2,5.2 2428.4,5 C2427.7,4.8 2426.7,5.3 2426.7,5.3 Z" id="Shape"></path>
                                        <path d="M2428.3,16.3 C2428.3,16.3 2424.6,23.4 2425,26 C2425.4,28.6 2424.6,56.9 2424.2,60.2 C2423.8,63.5 2422.7,69.7 2423.2,70.1 C2423.8,70.5 2425.5,71.6 2427.3,71.1 C2429.1,70.6 2433.9,68.4 2435,65.7 C2436.2,63 2435.4,60.1 2434.8,56 C2434.2,51.9 2432.9,38.4 2432.7,37.1 C2432.5,35.7 2431,23.2 2430.8,21.3 C2430.6,19.2 2428.3,16.3 2428.3,16.3 Z" id="Shape"></path>
                                        <path d="M2431.1,24.1 C2431.1,24.7 2434.1,33.3 2436.4,36 C2438.7,38.7 2442.6,34.3 2444.2,36" id="Shape"></path>
                                        <path d="M1879.9,11.7 C1879.9,11.7 1884.9,11.6 1882.8,4 C1882.8,4 1877.1,0.3 1875,3.9 C1874,5.6 1872.1,7.8 1874,9.8 C1875.9,11.7 1877.9,11.7 1879.9,11.7 C1880.9,11.7 1879.6,13.9 1878.4,15.8 C1877.2,17.7 1875.9,19.5 1875.9,20.5 C1875.9,22.5 1877.9,40.2 1876.9,43.1 C1875.9,46 1873,64.7 1873,64.7 C1873,64.7 1875.9,66.7 1879.9,65.7 C1883.8,64.7 1887.8,66.7 1888.7,65.7 C1889.7,64.7 1884.8,50 1885.8,47 C1886.5,45 1882.2,32.6 1885.8,25.4 C1886.8,23.4 1888.7,20.5 1887.8,19.5 C1886.9,18.6 1883,16.9 1879.8,15.9 C1877.2,15.1 1883.9,32.3 1885.8,33.3 C1887.8,34.3 1892.7,34.3 1897.6,32.3 C1902.5,30.3 1900.5,30.3 1900.5,30.3" id="Shape"></path>
                                        <path d="M1879.9,66.7 L1875,75.5 L1879.9,75.5 C1879.9,75.5 1881.9,77.5 1883.8,77.5 C1884.1,77.5 1885.5,77.6 1885.8,77.5 C1887.1,77.1 1885,75.4 1883.8,74.6 C1883,74 1882.3,74.1 1881.8,73.6 C1880.8,72.6 1881.8,65.7 1881.8,65.7 L1879.8,75.5" id="Shape"></path>
                                        <path d="M1896.6,31.8 C1896.6,32.8 1897.4,37.3 1897.4,37.3 C1897.4,37.3 1906.7,37.3 1907.4,36.3 C1908.1,35.3 1905.2,48.1 1904.5,49.1 C1903.8,50.1 1889.4,48.1 1889.4,47.1 C1889.4,46.1 1887.2,40.2 1888,38.3 C1888.7,36.3 1897.3,37.3 1897.3,37.3" id="Shape"></path>
                                        <path d="M1793.6,3.7 C1793.6,3.7 1797,3.7 1797,7.1 C1797,10.5 1797,12.7 1795.9,12.7 C1794.8,12.7 1791.4,11.6 1791.4,9.3 C1791.4,7 1792.5,3.7 1792.5,2.6" id="Shape"></path>
                                        <path d="M1793.6,12.7 C1793.6,12.7 1795.6,13.3 1793.6,18.3 C1793.2,19.4 1792.1,20.7 1791.4,21.7 C1786.9,27.3 1782.4,47.5 1784.7,49.8 C1786.9,52 1791.4,39.7 1792.6,34.1 C1793.8,28.5 1793.7,18.4 1793.7,18.4 C1793.7,18.4 1792.6,28.5 1798.2,29.6 C1803.8,30.7 1809.4,31.8 1809.4,30.7" id="Shape"></path>
                                        <path d="M1790.2,46.4 C1790.2,48.6 1795.8,65.5 1795.8,68.9 C1795.8,72.3 1804.8,67.8 1804.8,70 C1804.8,72.2 1796.9,73.4 1795.8,72.2" id="Shape"></path>
                                        <path d="M1784.6,50.9 C1784.6,50.9 1785.7,61 1782.4,64.4 C1779,67.8 1768.9,67.8 1768.9,70 C1768.9,72.2 1774.5,73.4 1775.6,72.2 C1776.7,71 1772.2,70 1772.2,70" id="Shape"></path>
                                        <path d="M1940.4,0.8 C1940.4,0.8 1941.7,0.8 1941.7,4.5 C1941.7,8.2 1940.4,10.7 1937.9,9.4 C1935.4,8.1 1934.1,5.7 1935.4,3.2 C1936.6,0.8 1937.8,0.8 1940.4,0.8 Z" id="Shape"></path>
                                        <path d="M1939.1,10.6 C1939.1,10.6 1944.1,20.5 1941.6,29.1 C1939.1,37.7 1939.1,40.2 1939.1,43.9 C1939.1,47.6 1939.1,69.3 1940.3,73 C1940.3,73 1943.7,72.5 1944.2,73.8 C1944.7,75.1 1946,77.7 1943.7,76.9 C1941.4,76.1 1938.2,74.8 1938.2,74.8" id="Shape"></path>
                                        <path d="M1939.1,10.6 C1939.1,10.6 1934.1,13.1 1934.1,21.7 C1934.1,30.3 1933,41 1934.1,42.7 C1937,47.1 1938.3,47.2 1939.6,44.7" id="Shape"></path>
                                        <path d="M1935.3,45.2 C1935.3,45.2 1935.4,64.3 1934.8,71.5 C1934.8,71.5 1935.1,71.8 1936.1,73.1 C1937.1,74.4 1938.5,77 1936.6,76.5 C1934.7,76 1932.4,75.5 1932.4,75.5 L1934.8,71.6" id="Shape"></path>
                                        <path d="M1937.8,20.5 C1939.1,20.5 1940,28.5 1945,33.5 C1950,38.4 1951.9,35.8 1953.1,34.5" id="Shape"></path>
                                        <path d="M2071.6,32.6 C2072.2,32.5 2077.4,32.6 2078.9,35.6 C2080.4,38.6 2081.6,40.7 2081.6,40.7" id="Shape"></path>
                                        <path d="M2081.7,40.6 L2120.7,41.5 C2120.7,41.5 2118.5,52.8 2115.7,54.7 C2113,56.7 2091.5,57.8 2091.5,57.8" id="Shape"></path>
                                        <path d="M2087.1,58.2 L2086.9,73.5 C2086.9,73.5 2084.3,73.7 2084.1,75 C2083.9,76.2 2086,76.9 2086.9,76.4 C2087.9,75.9 2088.3,74.5 2086.9,73.6" id="Shape"></path>
                                        <path d="M2113.6,56.4 C2113.5,57.1 2113.4,71.9 2113.7,72.7 C2114,73.5 2118.4,72 2118.3,74.1 C2118.2,76.2 2116.2,77.2 2114.8,75.8 C2113.4,74.4 2113.7,72.7 2113.7,72.7" id="Shape"></path>
                                        <path d="M2082.6,49.8 L2119.7,48" id="Shape"></path>
                                        <path d="M2090.7,41.1 L2091.6,57.9 C2091.6,57.9 2087.6,58.1 2086.4,57.1 C2085.2,56.1 2081.7,54.9 2081.7,40.6" id="Shape"></path>
                                        <path d="M2106.9,41.7 L2106.6,56.7" id="Shape"></path>
                                        <path d="M2035.6,42.3 C2035.2,42.4 2031.7,45.6 2031.8,46.8 C2031.9,48 2032.4,50.7 2033.8,50.3 C2035.2,49.9 2038.1,47.3 2038,45.7 C2037.9,44.1 2036.9,42.1 2035.6,42.3 Z" id="Shape"></path>
                                        <path d="M2033.9,50.3 C2033.9,50.3 2032.6,54.5 2033.2,56.2 C2033.8,57.9 2034.5,64.7 2034.9,66.1 C2035.3,67.5 2037.7,68.1 2037.9,66.7 C2038.2,65.3 2035.9,52.2 2035.6,50.3" id="Shape"></path>
                                        <path d="M2035.2,67.7 C2035.2,67.7 2034.8,72.2 2031.7,73.1 C2028.6,74 2024.7,76.1 2024,75.4" id="Shape"></path>
                                        <path d="M2037.9,67.6 C2037.9,67.6 2039.8,68.8 2039.5,72.1 C2039.2,75.4 2038.9,76.6 2039.4,76.7" id="Shape"></path>
                                        <path d="M2032.4,54.4 C2031.7,54.7 2029.1,56.3 2028.9,57.9 C2028.7,59.5 2028.2,65.3 2028.2,64.7" id="Shape"></path>
                                        <path d="M2036.5,51.9 C2036.5,51.9 2041,50.7 2041.7,49.4 C2042.4,48.1 2041.8,47.4 2042.4,45.9 C2043.2,44 2044.4,29.8 2044.4,28.5 C2044.4,27.2 2052.8,19.7 2052.8,19.7" id="Shape"></path>
                                        <path d="M2059.4,65.8 C2059.4,65.8 2060.8,71.6 2063.9,72.5 C2067,73.4 2070.7,73.7 2070.1,74.7 C2069.5,75.7 2064.9,76.7 2063.9,75.1 C2062.9,73.5 2062.3,72.5 2062.3,72.5" id="Shape"></path>
                                        <path d="M2055.3,67.5 C2055.3,67.5 2052.4,71.6 2052,73.6 C2051.6,75.6 2054.3,77.2 2054.8,75.6 C2055.3,74 2055.4,69.7 2055.4,69.7" id="Shape"></path>
                                        <path d="M1952.7,34.3 C1953.3,34.2 1958.9,33.5 1960.3,36.4 C1961.7,39.2 1962.9,41.2 1962.9,41.2" id="Shape"></path>
                                        <path d="M1962.9,41.2 L1999.9,42.1 C1999.9,42.1 1997.8,52.8 1995.2,54.7 C1992.6,56.6 1972.2,57.6 1972.2,57.6" id="Shape"></path>
                                        <path d="M1968,58.8 L1967.8,73.3 C1967.8,73.3 1965.3,73.5 1965.1,74.7 C1964.9,75.9 1966.9,76.5 1967.8,76 C1968.7,75.5 1969.1,74.2 1967.8,73.3" id="Shape"></path>
                                        <path d="M1993.1,57.1 C1993,57.8 1992.9,71.8 1993.2,72.6 C1993.6,73.4 1997.7,71.9 1997.5,73.9 C1997.4,75.9 1995.5,76.8 1994.2,75.5 C1992.9,74.2 1993.1,72.6 1993.1,72.6" id="Shape"></path>
                                        <path d="M1963.7,49.8 L1998.9,48.2" id="Shape"></path>
                                        <path d="M1971.4,41.6 L1972.2,57.5 C1972.2,57.5 1968.4,57.7 1967.3,56.7 C1966.1,55.8 1962.8,54.6 1962.8,41.1" id="Shape"></path>
                                        <path d="M1986.8,42.1 L1986.5,56.4" id="Shape"></path>
                                        <path d="M1809.7,31.4 C1810.3,31.3 1815.9,30.6 1817.3,33.5 C1818.7,36.3 1819.9,38.3 1819.9,38.3" id="Shape"></path>
                                        <path d="M1819.9,38.3 L1856.9,39.2 C1856.9,39.2 1854.8,49.9 1852.2,51.8 C1849.6,53.7 1829.2,54.7 1829.2,54.7" id="Shape"></path>
                                        <path d="M1825,55.9 L1824.8,70.4 C1824.8,70.4 1822.3,70.6 1822.1,71.8 C1821.9,73 1823.9,73.6 1824.8,73.1 C1825.7,72.6 1826.1,71.3 1824.8,70.4" id="Shape"></path>
                                        <path d="M1850.1,54.3 C1850,55 1849.9,69 1850.2,69.8 C1850.6,70.6 1854.7,69.1 1854.5,71.1 C1854.4,73.1 1852.5,74 1851.2,72.7 C1849.9,71.4 1850.1,69.8 1850.1,69.8" id="Shape"></path>
                                        <path d="M1820.7,47 L1855.9,45.3" id="Shape"></path>
                                        <path d="M1828.4,38.7 L1829.2,54.6 C1829.2,54.6 1825.4,54.8 1824.3,53.8 C1823.1,52.9 1819.8,51.7 1819.8,38.2" id="Shape"></path>
                                        <path d="M1843.8,39.3 L1843.5,53.6" id="Shape"></path>
                                        <path d="M2054.7,1.8 C2054.7,1.8 2053.2,6.6 2053.3,8 C2053.5,9.4 2054.7,11.5 2056.6,12.1 C2058.5,12.7 2061.4,9.4 2060.1,6.5 C2058.7,3.6 2057.2,1.7 2056.4,1.5 C2055.7,1.3 2054.7,1.8 2054.7,1.8 Z" id="Shape"></path>
                                        <path d="M2056.3,12.8 C2056.3,12.8 2052.6,19.9 2053,22.5 C2053.4,25 2052.6,53.4 2052.2,56.7 C2051.8,60 2050.7,66.2 2051.2,66.6 C2051.8,67 2053.5,68.1 2055.3,67.6 C2057,67 2061.9,64.9 2063,62.2 C2064.2,59.5 2063.4,56.6 2062.8,52.5 C2062.2,48.4 2060.9,34.9 2060.7,33.6 C2060.5,32.2 2059,19.7 2058.8,17.8 C2058.6,15.7 2056.3,12.8 2056.3,12.8 Z" id="Shape"></path>
                                        <path d="M2059.1,20.6 C2059.1,21.2 2062.1,29.8 2064.4,32.5 C2066.7,35.2 2070.6,30.8 2072.2,32.5" id="Shape"></path>
                                        <path d="M1509.9,11.4 C1509.9,11.4 1514.9,11.3 1512.8,3.7 C1512.8,3.7 1507.1,2.93098879e-14 1505,3.6 C1504,5.3 1502.1,7.5 1504,9.5 C1505.9,11.5 1507.9,11.4 1509.9,11.4 C1510.9,11.4 1509.6,13.6 1508.4,15.5 C1507.2,17.5 1505.9,19.2 1505.9,20.2 C1505.9,22.2 1507.9,39.9 1506.9,42.8 C1505.9,45.7 1503,64.4 1503,64.4 C1503,64.4 1505.9,66.4 1509.9,65.4 C1513.8,64.4 1517.8,66.4 1518.7,65.4 C1519.7,64.4 1514.8,49.7 1515.8,46.7 C1516.5,44.7 1512.2,32.3 1515.8,25.1 C1516.8,23.1 1518.7,20.2 1517.8,19.2 C1516.9,18.3 1513,16.6 1509.8,15.6 C1507.2,14.8 1513.9,32 1515.8,33 C1517.8,34 1522.7,34 1527.6,32 C1532.5,30 1530.5,30 1530.5,30" id="Shape"></path>
                                        <path d="M1509.9,66.4 L1505,75.2 L1509.9,75.2 C1509.9,75.2 1511.9,77.2 1513.8,77.2 C1514.1,77.2 1515.5,77.3 1515.8,77.2 C1517.1,76.8 1515,75.1 1513.8,74.3 C1513,73.7 1512.3,73.8 1511.8,73.3 C1510.8,72.3 1511.8,65.4 1511.8,65.4 L1509.8,75.2" id="Shape"></path>
                                        <path d="M1526.5,31.5 C1526.5,32.5 1527.3,37 1527.3,37 C1527.3,37 1536.6,37 1537.3,36 C1538,35 1535.1,47.8 1534.4,48.8 C1533.7,49.8 1519.3,47.8 1519.3,46.8 C1519.3,45.8 1517.1,39.9 1517.9,38 C1518.6,36 1527.2,37 1527.2,37" id="Shape"></path>
                                        <path d="M1423.6,3.4 C1423.6,3.4 1427,3.4 1427,6.8 C1427,10.2 1427,12.4 1425.9,12.4 C1424.8,12.4 1421.4,11.3 1421.4,9 C1421.4,6.7 1422.5,3.4 1422.5,2.3" id="Shape"></path>
                                        <path d="M1423.6,12.4 C1423.6,12.4 1425.6,13 1423.6,18 C1423.2,19.1 1422.1,20.4 1421.4,21.4 C1416.9,27 1412.4,47.2 1414.7,49.5 C1416.9,51.7 1421.4,39.4 1422.6,33.8 C1423.7,28.2 1423.7,18.1 1423.7,18.1 C1423.7,18.1 1422.6,28.2 1428.2,29.3 C1433.8,30.4 1439.4,31.5 1439.4,30.4" id="Shape"></path>
                                        <path d="M1420.2,46.1 C1420.2,48.3 1425.8,65.2 1425.8,68.6 C1425.8,72 1434.8,67.5 1434.8,69.7 C1434.8,71.9 1426.9,73.1 1425.8,71.9" id="Shape"></path>
                                        <path d="M1414.6,50.6 C1414.6,50.6 1415.7,60.7 1412.4,64.1 C1409,67.5 1398.9,67.5 1398.9,69.7 C1398.9,71.9 1404.5,73.1 1405.6,71.9 C1406.7,70.8 1402.2,69.7 1402.2,69.7" id="Shape"></path>
                                        <path d="M1570.3,0.5 C1570.3,0.5 1571.6,0.5 1571.6,4.2 C1571.6,7.9 1570.3,10.4 1567.8,9.1 C1565.3,7.9 1564,5.4 1565.3,2.9 C1566.6,0.4 1567.8,0.5 1570.3,0.5 Z" id="Shape"></path>
                                        <path d="M1569.1,10.3 C1569.1,10.3 1574.1,20.2 1571.6,28.8 C1569.1,37.4 1569.1,39.9 1569.1,43.6 C1569.1,47.3 1569.1,69 1570.3,72.7 C1570.3,72.7 1573.7,72.2 1574.2,73.5 C1574.7,74.8 1576,77.4 1573.7,76.6 C1571.3,75.8 1568.2,74.5 1568.2,74.5" id="Shape"></path>
                                        <path d="M1569.1,10.3 C1569.1,10.3 1564.1,12.8 1564.1,21.4 C1564.1,30 1563,40.7 1564.1,42.4 C1567,46.8 1568.3,46.9 1569.6,44.4" id="Shape"></path>
                                        <path d="M1565.3,44.9 C1565.3,44.9 1565.4,64 1564.8,71.2 C1564.8,71.2 1565.1,71.5 1566.1,72.8 C1567.1,74.1 1568.5,76.7 1566.6,76.2 C1564.7,75.7 1562.4,75.2 1562.4,75.2 L1564.8,71.3" id="Shape"></path>
                                        <path d="M1567.8,20.2 C1569.1,20.2 1570,28.2 1575,33.2 C1580,38.2 1581.9,35.5 1583.1,34.2" id="Shape"></path>
                                        <path d="M1701.6,32.3 C1702.2,32.2 1707.4,32.3 1708.9,35.3 C1710.4,38.3 1711.6,40.4 1711.6,40.4" id="Shape"></path>
                                        <path d="M1711.7,40.3 L1750.7,41.2 C1750.7,41.2 1748.5,52.5 1745.7,54.4 C1743,56.4 1721.5,57.5 1721.5,57.5" id="Shape"></path>
                                        <path d="M1717.1,57.9 L1716.9,73.2 C1716.9,73.2 1714.3,73.4 1714.1,74.7 C1713.9,75.9 1716,76.6 1716.9,76.1 C1717.9,75.6 1718.3,74.2 1716.9,73.3" id="Shape"></path>
                                        <path d="M1743.6,56.1 C1743.5,56.8 1743.4,71.6 1743.7,72.4 C1744.1,73.3 1748.4,71.7 1748.3,73.8 C1748.2,75.9 1746.2,76.9 1744.8,75.5 C1743.4,74.1 1743.7,72.4 1743.7,72.4" id="Shape"></path>
                                        <path d="M1712.6,49.5 L1749.7,47.7" id="Shape"></path>
                                        <path d="M1720.7,40.8 L1721.6,57.6 C1721.6,57.6 1717.6,57.8 1716.4,56.8 C1715.2,55.8 1711.7,54.6 1711.7,40.3" id="Shape"></path>
                                        <path d="M1736.9,41.4 L1736.6,56.4" id="Shape"></path>
                                        <path d="M1665.6,42 C1665.2,42.1 1661.7,45.3 1661.8,46.5 C1661.9,47.7 1662.4,50.4 1663.8,50 C1665.2,49.6 1668.1,47 1668,45.4 C1667.9,43.8 1666.9,41.8 1665.6,42 Z" id="Shape"></path>
                                        <path d="M1663.9,50 C1663.9,50 1662.6,54.2 1663.2,55.9 C1663.8,57.6 1664.5,64.4 1664.9,65.8 C1665.3,67.2 1667.7,67.8 1667.9,66.4 C1668.2,65 1665.9,51.9 1665.6,50" id="Shape"></path>
                                        <path d="M1665.2,67.4 C1665.2,67.4 1664.8,71.9 1661.7,72.8 C1658.6,73.7 1654.7,75.8 1654,75.1" id="Shape"></path>
                                        <path d="M1667.9,67.3 C1667.9,67.3 1669.8,68.5 1669.5,71.8 C1669.2,75.1 1668.9,76.3 1669.4,76.4" id="Shape"></path>
                                        <path d="M1662.4,54.1 C1661.7,54.4 1659.1,56 1658.9,57.6 C1658.8,59.2 1658.2,65 1658.2,64.4" id="Shape"></path>
                                        <path d="M1666.5,51.6 C1666.5,51.6 1671,50.4 1671.7,49.1 C1672.4,47.8 1671.8,47.1 1672.4,45.6 C1673.2,43.7 1674.4,29.5 1674.4,28.2 C1674.4,26.9 1682.8,19.4 1682.8,19.4" id="Shape"></path>
                                        <path d="M1689.4,65.5 C1689.4,65.5 1690.8,71.3 1693.9,72.2 C1697,73.1 1700.7,73.4 1700.1,74.4 C1699.5,75.4 1694.9,76.4 1693.9,74.8 C1692.9,73.2 1692.3,72.2 1692.3,72.2" id="Shape"></path>
                                        <path d="M1685.3,67.2 C1685.3,67.2 1682.4,71.3 1682,73.3 C1681.6,75.3 1684.3,76.9 1684.8,75.3 C1685.2,73.7 1685.4,69.4 1685.4,69.4" id="Shape"></path>
                                        <path d="M1582.6,34 C1583.2,33.9 1588.8,33.2 1590.2,36.1 C1591.6,38.9 1592.8,40.9 1592.8,40.9" id="Shape"></path>
                                        <path d="M1592.9,40.9 L1629.9,41.8 C1629.9,41.8 1627.8,52.5 1625.2,54.4 C1622.6,56.3 1602.2,57.3 1602.2,57.3" id="Shape"></path>
                                        <path d="M1598,58.5 L1597.8,73 C1597.8,73 1595.3,73.2 1595.1,74.4 C1594.9,75.6 1596.9,76.2 1597.8,75.7 C1598.7,75.2 1599.1,73.9 1597.8,73" id="Shape"></path>
                                        <path d="M1623.1,56.8 C1623,57.5 1622.9,71.5 1623.2,72.3 C1623.6,73.1 1627.7,71.6 1627.5,73.6 C1627.4,75.6 1625.5,76.5 1624.2,75.2 C1622.9,73.9 1623.1,72.3 1623.1,72.3" id="Shape"></path>
                                        <path d="M1593.7,49.5 L1628.8,47.9" id="Shape"></path>
                                        <path d="M1601.4,41.3 L1602.2,57.2 C1602.2,57.2 1598.4,57.4 1597.3,56.4 C1596.2,55.4 1592.8,54.3 1592.8,40.8" id="Shape"></path>
                                        <path d="M1616.8,41.8 L1616.5,56.1" id="Shape"></path>
                                        <path d="M1439.6,31.1 C1440.2,31 1445.8,30.3 1447.2,33.2 C1448.6,36 1449.8,38 1449.8,38" id="Shape"></path>
                                        <path d="M1449.9,38 L1486.9,38.9 C1486.9,38.9 1484.8,49.6 1482.2,51.5 C1479.6,53.4 1459.2,54.4 1459.2,54.4" id="Shape"></path>
                                        <path d="M1455,55.6 L1454.8,70.1 C1454.8,70.1 1452.3,70.3 1452.1,71.5 C1451.9,72.7 1453.9,73.3 1454.8,72.8 C1455.7,72.3 1456.1,71 1454.8,70.1" id="Shape"></path>
                                        <path d="M1480.1,54 C1480,54.7 1479.9,68.7 1480.2,69.5 C1480.6,70.3 1484.7,68.8 1484.5,70.8 C1484.4,72.8 1482.5,73.7 1481.2,72.4 C1479.9,71.1 1480.1,69.5 1480.1,69.5" id="Shape"></path>
                                        <path d="M1450.7,46.7 L1485.8,45" id="Shape"></path>
                                        <path d="M1458.4,38.4 L1459.2,54.3 C1459.2,54.3 1455.4,54.5 1454.3,53.5 C1453.2,52.5 1449.8,51.4 1449.8,37.9" id="Shape"></path>
                                        <path d="M1473.8,39 L1473.5,53.3" id="Shape"></path>
                                        <path d="M1684.7,1.5 C1684.7,1.5 1683.2,6.3 1683.3,7.7 C1683.5,9.1 1684.7,11.2 1686.6,11.8 C1688.5,12.4 1691.4,9.1 1690.1,6.2 C1688.8,3.3 1687.2,1.4 1686.4,1.2 C1685.7,1 1684.7,1.5 1684.7,1.5 Z" id="Shape"></path>
                                        <path d="M1686.3,12.5 C1686.3,12.5 1682.6,19.6 1683,22.2 C1683.4,24.8 1682.6,53.1 1682.2,56.4 C1681.8,59.7 1680.7,65.9 1681.2,66.3 C1681.8,66.7 1683.5,67.8 1685.3,67.3 C1687.1,66.8 1691.9,64.6 1693,61.9 C1694.1,59.2 1693.4,56.3 1692.8,52.2 C1692.2,48.1 1690.9,34.6 1690.7,33.3 C1690.5,31.9 1689,19.4 1688.8,17.5 C1688.6,15.4 1686.3,12.5 1686.3,12.5 Z" id="Shape"></path>
                                        <path d="M1689.1,20.3 C1689.1,20.9 1692.1,29.5 1694.4,32.2 C1696.7,34.9 1700.6,30.5 1702.2,32.2" id="Shape"></path>
                                        <path d="M1133.1,14.1 C1133.1,14.1 1138.1,14 1136,6.4 C1136,6.4 1130.3,2.7 1128.2,6.3 C1127.2,8 1125.3,10.2 1127.2,12.2 C1129.1,14.2 1131.2,14.1 1133.1,14.1 C1134.1,14.1 1132.8,16.3 1131.6,18.2 C1130.4,20.1 1129.1,21.9 1129.1,22.9 C1129.1,24.9 1131.1,42.6 1130.1,45.5 C1129.1,48.4 1126.2,67.1 1126.2,67.1 C1126.2,67.1 1129.1,69.1 1133.1,68.1 C1137,67.1 1141,69.1 1141.9,68.1 C1142.8,67.1 1138,52.4 1139,49.4 C1139.7,47.4 1135.4,35 1139,27.8 C1140,25.8 1141.9,22.9 1141,21.9 C1140.1,21 1136.2,19.3 1133,18.3 C1130.4,17.5 1137.1,34.7 1139,35.7 C1140.9,36.7 1145.9,36.7 1150.8,34.7 C1155.7,32.7 1153.7,32.7 1153.7,32.7" id="Shape"></path>
                                        <path d="M1133.1,69.2 L1128.2,78 L1133.1,78 C1133.1,78 1135.1,80 1137,80 C1137.3,80 1138.7,80.1 1139,80 C1140.3,79.6 1138.2,77.9 1137,77.1 C1136.2,76.5 1135.5,76.6 1135,76.1 C1134,75.1 1135,68.2 1135,68.2 L1133,78" id="Shape"></path>
                                        <path d="M1149.8,34.2 C1149.8,35.2 1150.6,39.7 1150.6,39.7 C1150.6,39.7 1159.9,39.7 1160.6,38.7 C1161.3,37.7 1158.4,50.5 1157.7,51.5 C1157,52.5 1142.6,50.5 1142.6,49.5 C1142.6,48.5 1140.4,42.6 1141.2,40.7 C1141.9,38.7 1150.5,39.7 1150.5,39.7" id="Shape"></path>
                                        <path d="M1046.9,6.1 C1046.9,6.1 1050.3,6.1 1050.3,9.5 C1050.3,12.9 1050.3,15.1 1049.2,15.1 C1048.1,15.1 1044.7,14 1044.7,11.7 C1044.7,9.4 1045.8,6.1 1045.8,5" id="Shape"></path>
                                        <path d="M1046.9,15.1 C1046.9,15.1 1048.9,15.7 1046.9,20.7 C1046.5,21.8 1045.4,23.1 1044.7,24.1 C1040.2,29.7 1035.7,49.9 1038,52.2 C1040.2,54.4 1044.7,42.1 1045.9,36.5 C1047,30.9 1047,20.8 1047,20.8 C1047,20.8 1045.9,30.9 1051.5,32 C1057.1,33.1 1062.7,34.2 1062.7,33.1" id="Shape"></path>
                                        <path d="M1043.5,48.8 C1043.5,51 1049.1,67.9 1049.1,71.3 C1049.1,74.7 1058.1,70.2 1058.1,72.4 C1058.1,74.6 1050.2,75.8 1049.1,74.6" id="Shape"></path>
                                        <path d="M1037.9,53.3 C1037.9,53.3 1039,63.4 1035.7,66.8 C1032.4,70.2 1022.2,70.2 1022.2,72.4 C1022.2,74.6 1027.8,75.8 1028.9,74.6 C1030,73.5 1025.5,72.4 1025.5,72.4" id="Shape"></path>
                                        <path d="M1193.6,3.2 C1193.6,3.2 1194.9,3.2 1194.9,6.9 C1194.9,10.6 1193.6,13.1 1191.1,11.8 C1188.6,10.6 1187.3,8.1 1188.6,5.6 C1189.9,3.2 1191.1,3.2 1193.6,3.2 Z" id="Shape"></path>
                                        <path d="M1192.4,13.1 C1192.4,13.1 1197.4,23 1194.9,31.6 C1192.4,40.2 1192.4,42.7 1192.4,46.4 C1192.4,50.1 1192.4,71.8 1193.6,75.5 C1193.6,75.5 1197,75 1197.5,76.3 C1198,77.6 1199.3,80.2 1197,79.4 C1194.6,78.6 1191.5,77.3 1191.5,77.3" id="Shape"></path>
                                        <path d="M1192.4,13.1 C1192.4,13.1 1187.4,15.6 1187.4,24.2 C1187.4,32.8 1186.3,43.5 1187.4,45.2 C1190.3,49.6 1191.6,49.7 1192.9,47.2" id="Shape"></path>
                                        <path d="M1188.6,47.6 C1188.6,47.6 1188.7,66.7 1188.1,73.9 C1188.1,73.9 1188.4,74.2 1189.4,75.5 C1190.4,76.8 1191.8,79.4 1189.9,78.9 C1188,78.4 1185.7,77.9 1185.7,77.9 L1188.1,74" id="Shape"></path>
                                        <path d="M1191.1,22.9 C1192.4,22.9 1193.3,30.9 1198.3,35.9 C1203.3,40.8 1205.2,38.2 1206.4,36.9" id="Shape"></path>
                                        <path d="M1324.9,35 C1325.5,34.9 1330.7,35 1332.2,38 C1333.7,41 1334.9,43.1 1334.9,43.1" id="Shape"></path>
                                        <path d="M1335,43.1 L1374,44 C1374,44 1371.8,55.3 1369,57.2 C1366.2,59.1 1344.8,60.3 1344.8,60.3" id="Shape"></path>
                                        <path d="M1340.4,60.6 L1340.2,75.9 C1340.2,75.9 1337.6,76.1 1337.4,77.4 C1337.2,78.6 1339.3,79.3 1340.2,78.8 C1341.1,78.3 1341.6,76.9 1340.2,76" id="Shape"></path>
                                        <path d="M1366.9,58.9 C1366.8,59.6 1366.7,74.4 1367,75.2 C1367.4,76.1 1371.7,74.5 1371.6,76.6 C1371.5,78.7 1369.5,79.7 1368.1,78.3 C1366.7,76.9 1367,75.2 1367,75.2" id="Shape"></path>
                                        <path d="M1335.9,52.2 L1372.9,50.5" id="Shape"></path>
                                        <path d="M1344,43.5 L1344.9,60.3 C1344.9,60.3 1340.9,60.5 1339.7,59.5 C1338.5,58.5 1335,57.3 1335,43" id="Shape"></path>
                                        <path d="M1360.2,44.1 L1359.9,59.2" id="Shape"></path>
                                        <path d="M1288.9,44.8 C1288.5,44.9 1285,48.1 1285.1,49.3 C1285.2,50.5 1285.7,53.2 1287.1,52.8 C1288.5,52.4 1291.4,49.8 1291.3,48.2 C1291.2,46.5 1290.2,44.5 1288.9,44.8 Z" id="Shape"></path>
                                        <path d="M1287.1,52.7 C1287.1,52.7 1285.8,56.9 1286.4,58.6 C1287,60.3 1287.7,67.1 1288.1,68.5 C1288.5,69.9 1290.9,70.5 1291.1,69.1 C1291.4,67.7 1289.1,54.6 1288.8,52.7" id="Shape"></path>
                                        <path d="M1288.5,70.1 C1288.5,70.1 1288.1,74.6 1285,75.5 C1281.9,76.4 1278,78.5 1277.3,77.8" id="Shape"></path>
                                        <path d="M1291.2,70 C1291.2,70 1293.1,71.2 1292.8,74.5 C1292.5,77.8 1292.2,79 1292.7,79.1" id="Shape"></path>
                                        <path d="M1285.7,56.8 C1285,57.1 1282.4,58.7 1282.2,60.3 C1282.1,61.9 1281.5,67.7 1281.5,67.1" id="Shape"></path>
                                        <path d="M1289.8,54.3 C1289.8,54.3 1294.3,53.1 1295,51.8 C1295.7,50.5 1295.1,49.8 1295.7,48.3 C1296.5,46.4 1297.7,32.2 1297.7,30.9 C1297.7,29.6 1306.1,22.1 1306.1,22.1" id="Shape"></path>
                                        <path d="M1312.6,68.2 C1312.6,68.2 1314,74 1317.1,74.9 C1320.2,75.8 1323.9,76.1 1323.3,77.1 C1322.7,78.1 1318.1,79.1 1317.1,77.5 C1316.1,75.9 1315.5,74.9 1315.5,74.9" id="Shape"></path>
                                        <path d="M1308.6,69.9 C1308.6,69.9 1305.7,74 1305.3,76 C1304.9,78 1307.6,79.6 1308.1,78 C1308.5,76.4 1308.7,72.1 1308.7,72.1" id="Shape"></path>
                                        <path d="M1205.9,36.7 C1206.5,36.6 1212.1,35.9 1213.5,38.8 C1214.9,41.6 1216.1,43.6 1216.1,43.6" id="Shape"></path>
                                        <path d="M1216.2,43.6 L1253.2,44.5 C1253.2,44.5 1251.1,55.2 1248.5,57.1 C1245.9,59 1225.5,60 1225.5,60" id="Shape"></path>
                                        <path d="M1221.3,61.2 L1221.1,75.7 C1221.1,75.7 1218.6,75.9 1218.4,77.1 C1218.2,78.3 1220.2,78.9 1221.1,78.4 C1222,77.9 1222.4,76.6 1221.1,75.7" id="Shape"></path>
                                        <path d="M1246.4,59.6 C1246.3,60.3 1246.2,74.3 1246.5,75.1 C1246.9,75.9 1251,74.4 1250.8,76.4 C1250.6,78.4 1248.8,79.3 1247.5,78 C1246.2,76.7 1246.4,75.1 1246.4,75.1" id="Shape"></path>
                                        <path d="M1217,52.2 L1252.1,50.6" id="Shape"></path>
                                        <path d="M1224.7,44 L1225.5,59.9 C1225.5,59.9 1221.7,60.1 1220.6,59.1 C1219.5,58.1 1216.1,57 1216.1,43.5" id="Shape"></path>
                                        <path d="M1240,44.6 L1239.8,58.8" id="Shape"></path>
                                        <path d="M1062.9,33.8 C1063.5,33.7 1069.1,33 1070.5,35.9 C1071.9,38.7 1073.1,40.7 1073.1,40.7" id="Shape"></path>
                                        <path d="M1073.2,40.8 L1110.2,41.7 C1110.2,41.7 1108.1,52.4 1105.5,54.3 C1102.9,56.2 1082.5,57.2 1082.5,57.2" id="Shape"></path>
                                        <path d="M1078.3,58.4 L1078.1,72.9 C1078.1,72.9 1075.6,73.1 1075.4,74.3 C1075.2,75.5 1077.2,76.1 1078.1,75.6 C1079,75.1 1079.4,73.8 1078.1,72.9" id="Shape"></path>
                                        <path d="M1103.4,56.7 C1103.3,57.4 1103.2,71.4 1103.5,72.2 C1103.9,73 1108,71.5 1107.8,73.5 C1107.7,75.5 1105.8,76.4 1104.5,75.1 C1103.2,73.8 1103.4,72.2 1103.4,72.2" id="Shape"></path>
                                        <path d="M1074,49.4 L1109.1,47.8" id="Shape"></path>
                                        <path d="M1081.7,41.2 L1082.5,57.1 C1082.5,57.1 1078.7,57.3 1077.6,56.3 C1076.4,55.4 1073.1,54.2 1073.1,40.7" id="Shape"></path>
                                        <path d="M1097,41.7 L1096.8,56" id="Shape"></path>
                                        <path d="M1308,4.3 C1308,4.3 1306.5,9.1 1306.6,10.5 C1306.8,11.9 1308,14 1309.9,14.6 C1311.8,15.2 1314.7,11.9 1313.4,9 C1312,6.1 1310.5,4.2 1309.7,4 C1308.9,3.8 1308,4.3 1308,4.3 Z" id="Shape"></path>
                                        <path d="M1309.6,15.3 C1309.6,15.3 1305.9,22.4 1306.3,25 C1306.7,27.6 1305.9,55.9 1305.5,59.2 C1305.1,62.5 1304,68.7 1304.5,69.1 C1305.1,69.5 1306.8,70.6 1308.6,70.1 C1310.4,69.6 1315.2,67.4 1316.3,64.7 C1317.5,62 1316.7,59.1 1316.1,55 C1315.5,50.9 1314.2,37.4 1314,36.1 C1313.8,34.7 1312.3,22.2 1312.1,20.3 C1311.9,18.2 1309.6,15.3 1309.6,15.3 Z" id="Shape"></path>
                                        <path d="M1312.4,23.1 C1312.4,23.7 1315.4,32.3 1317.7,35 C1320,37.7 1323.9,33.3 1325.5,35" id="Shape"></path>
                                        <path d="M761.2,14 C761.2,14 766.2,13.9 764.1,6.3 C764.1,6.3 758.4,2.6 756.3,6.2 C755.3,7.9 753.4,10.1 755.3,12.1 C757.3,14 759.2,14 761.2,14 C762.2,14 760.9,16.2 759.7,18.1 C758.5,20 757.2,21.8 757.2,22.8 C757.2,24.8 759.2,42.5 758.2,45.4 C757.2,48.3 754.3,67 754.3,67 C754.3,67 757.2,69 761.2,68 C765.1,67 769.1,69 770,68 C771,67 766.1,52.3 767.1,49.3 C767.8,47.3 763.5,34.9 767.1,27.7 C768.1,25.7 770,22.8 769.1,21.8 C768.2,20.9 764.3,19.2 761.1,18.2 C758.5,17.4 765.2,34.6 767.1,35.6 C769,36.6 774,36.6 778.9,34.6 C783.8,32.6 781.8,32.6 781.8,32.6" id="Shape"></path>
                                        <path d="M761.2,69 L756.3,77.8 L761.2,77.8 C761.2,77.8 763.2,79.8 765.1,79.8 C765.4,79.8 766.8,79.9 767.1,79.8 C768.4,79.4 766.3,77.7 765.1,76.9 C764.3,76.3 763.6,76.4 763.1,75.9 C762.1,74.9 763.1,68 763.1,68 L761.1,77.8" id="Shape"></path>
                                        <path d="M777.9,34.1 C777.9,35.1 778.7,39.6 778.7,39.6 C778.7,39.6 788,39.6 788.7,38.6 C789.4,37.6 786.5,50.4 785.8,51.4 C785.1,52.4 770.7,50.4 770.7,49.4 C770.7,48.4 768.5,42.5 769.3,40.6 C770.1,38.7 778.6,39.6 778.6,39.6" id="Shape"></path>
                                        <path d="M674.9,6 C674.9,6 678.3,6 678.3,9.4 C678.3,12.8 678.3,15 677.2,15 C676.1,15 672.7,13.9 672.7,11.6 C672.7,9.4 673.8,6 673.8,4.9" id="Shape"></path>
                                        <path d="M674.9,15 C674.9,15 676.9,15.6 674.9,20.6 C674.5,21.7 673.4,23 672.7,24 C668.2,29.6 663.7,49.8 666,52.1 C668.2,54.3 672.7,42 673.9,36.4 C675,30.8 675,20.7 675,20.7 C675,20.7 673.9,30.8 679.5,31.9 C685.1,33 690.7,34.1 690.7,33" id="Shape"></path>
                                        <path d="M671.6,48.7 C671.6,50.9 677.2,67.8 677.2,71.2 C677.2,74.6 686.2,70.1 686.2,72.3 C686.2,74.5 678.3,75.7 677.2,74.5" id="Shape"></path>
                                        <path d="M665.9,53.1 C665.9,53.1 667,63.2 663.7,66.6 C660.4,70 650.2,70 650.2,72.2 C650.2,74.4 655.8,75.6 656.9,74.4 C658,73.3 653.5,72.2 653.5,72.2" id="Shape"></path>
                                        <path d="M821.7,3 C821.7,3 823,3 823,6.7 C823,10.4 821.7,12.9 819.2,11.6 C816.7,10.4 815.4,7.9 816.7,5.4 C817.9,3 819.2,3 821.7,3 Z" id="Shape"></path>
                                        <path d="M820.4,12.9 C820.4,12.9 825.4,22.8 822.9,31.4 C820.4,40 820.4,42.5 820.4,46.2 C820.4,49.9 820.4,71.6 821.6,75.3 C821.6,75.3 825,74.8 825.5,76.1 C826,77.4 827.3,80 825,79.2 C822.6,78.4 819.5,77.1 819.5,77.1" id="Shape"></path>
                                        <path d="M820.4,12.9 C820.4,12.9 815.4,15.4 815.4,24 C815.4,32.6 814.3,43.3 815.4,45 C818.3,49.4 819.6,49.5 820.9,47" id="Shape"></path>
                                        <path d="M816.7,47.5 C816.7,47.5 816.8,66.6 816.2,73.8 C816.2,73.8 816.5,74.1 817.5,75.4 C818.5,76.7 819.9,79.3 818,78.8 C816.2,78.3 813.8,77.8 813.8,77.8 L816.2,73.9" id="Shape"></path>
                                        <path d="M819.2,22.8 C820.5,22.8 821.4,30.8 826.4,35.8 C831.4,40.7 833.3,38.1 834.5,36.8" id="Shape"></path>
                                        <path d="M953,34.8 C953.6,34.7 958.8,34.8 960.3,37.8 C961.8,40.8 963,42.9 963,42.9" id="Shape"></path>
                                        <path d="M963.1,42.9 L1002.1,43.8 C1002.1,43.8 999.9,55.1 997.1,57 C994.3,58.9 972.9,60.1 972.9,60.1" id="Shape"></path>
                                        <path d="M968.5,60.5 L968.3,75.8 C968.3,75.8 965.7,76 965.5,77.3 C965.3,78.5 967.4,79.2 968.3,78.7 C969.3,78.2 969.7,76.8 968.3,75.9" id="Shape"></path>
                                        <path d="M994.9,58.7 C994.8,59.4 994.7,74.2 995,75 C995.4,75.9 999.7,74.3 999.6,76.4 C999.5,78.5 997.5,79.5 996.1,78.1 C994.7,76.7 995,75 995,75" id="Shape"></path>
                                        <path d="M963.9,52.1 L1001,50.3" id="Shape"></path>
                                        <path d="M972,43.4 L972.9,60.2 C972.9,60.2 968.9,60.4 967.7,59.4 C966.5,58.4 963,57.2 963,42.9" id="Shape"></path>
                                        <path d="M988.3,43.9 L988,59" id="Shape"></path>
                                        <path d="M917,44.6 C916.6,44.7 913.1,47.9 913.2,49.1 C913.3,50.3 913.8,53 915.2,52.6 C916.6,52.2 919.5,49.6 919.4,48 C919.3,46.4 918.3,44.3 917,44.6 Z" id="Shape"></path>
                                        <path d="M915.2,52.6 C915.2,52.6 913.9,56.8 914.5,58.5 C915.1,60.2 915.8,67 916.2,68.4 C916.6,69.8 919,70.4 919.2,69 C919.5,67.6 917.2,54.5 916.9,52.6" id="Shape"></path>
                                        <path d="M916.5,70 C916.5,70 916.1,74.5 913,75.4 C909.9,76.3 906,78.4 905.3,77.7" id="Shape"></path>
                                        <path d="M919.3,69.8 C919.3,69.8 921.2,71 920.9,74.3 C920.6,77.6 920.3,78.8 920.8,78.9" id="Shape"></path>
                                        <path d="M913.8,56.7 C913.1,57 910.5,58.6 910.3,60.2 C910.2,61.8 909.6,67.6 909.6,67" id="Shape"></path>
                                        <path d="M917.8,54.2 C917.8,54.2 922.3,53 923,51.7 C923.7,50.4 923.1,49.7 923.7,48.2 C924.5,46.3 925.7,32.1 925.7,30.8 C925.7,29.5 934.1,22 934.1,22" id="Shape"></path>
                                        <path d="M940.7,68.1 C940.7,68.1 942.1,73.9 945.2,74.8 C948.3,75.7 952,76 951.4,77 C950.8,78 946.2,79 945.2,77.4 C944.2,75.8 943.6,74.8 943.6,74.8" id="Shape"></path>
                                        <path d="M936.7,69.8 C936.7,69.8 933.8,73.9 933.4,75.9 C933,77.9 935.7,79.5 936.2,77.9 C936.6,76.3 936.8,72 936.8,72" id="Shape"></path>
                                        <path d="M834,36.5 C834.6,36.4 840.2,35.7 841.6,38.6 C843,41.5 844.2,43.4 844.2,43.4" id="Shape"></path>
                                        <path d="M844.2,43.4 L881.2,44.3 C881.2,44.3 879.1,55 876.5,56.9 C873.9,58.8 853.5,59.8 853.5,59.8" id="Shape"></path>
                                        <path d="M849.3,61.1 L849.1,75.6 C849.1,75.6 846.6,75.8 846.4,77 C846.2,78.2 848.2,78.8 849.1,78.3 C850,77.8 850.4,76.5 849.1,75.6" id="Shape"></path>
                                        <path d="M874.4,59.4 C874.3,60.1 874.2,74.1 874.5,74.9 C874.9,75.7 879,74.2 878.8,76.2 C878.6,78.2 876.8,79.1 875.5,77.8 C874.2,76.5 874.4,74.9 874.4,74.9" id="Shape"></path>
                                        <path d="M845,52.1 L880.2,50.4" id="Shape"></path>
                                        <path d="M852.7,43.9 L853.5,59.8 C853.5,59.8 849.7,60 848.6,59 C847.4,58.1 844.1,56.9 844.1,43.4" id="Shape"></path>
                                        <path d="M868.1,44.4 L867.8,58.7" id="Shape"></path>
                                        <path d="M691,33.7 C691.6,33.6 697.2,32.9 698.6,35.8 C700,38.6 701.2,40.6 701.2,40.6" id="Shape"></path>
                                        <path d="M701.2,40.6 L738.2,41.5 C738.2,41.5 736.1,52.2 733.5,54.1 C730.9,56 710.5,57 710.5,57" id="Shape"></path>
                                        <path d="M706.3,58.2 L706.1,72.7 C706.1,72.7 703.6,72.9 703.4,74.1 C703.2,75.3 705.2,75.9 706.1,75.4 C707,74.9 707.4,73.6 706.1,72.7" id="Shape"></path>
                                        <path d="M731.4,56.6 C731.3,57.3 731.2,71.3 731.5,72.1 C731.9,72.9 736,71.4 735.8,73.4 C735.7,75.4 733.8,76.3 732.5,75 C731.2,73.7 731.4,72.1 731.4,72.1" id="Shape"></path>
                                        <path d="M702,49.3 L737.2,47.6" id="Shape"></path>
                                        <path d="M709.7,41 L710.5,56.9 C710.5,56.9 706.7,57.1 705.6,56.1 C704.4,55.2 701.1,54 701.1,40.5" id="Shape"></path>
                                        <path d="M725.1,41.6 L724.8,55.8" id="Shape"></path>
                                        <path d="M936.1,4.1 C936.1,4.1 934.6,8.9 934.7,10.3 C934.9,11.7 936.1,13.8 938,14.4 C939.9,15 942.8,11.7 941.5,8.8 C940.1,5.9 938.6,4 937.8,3.8 C937,3.5 936.1,4.1 936.1,4.1 Z" id="Shape"></path>
                                        <path d="M937.6,15.1 C937.6,15.1 933.9,22.2 934.3,24.8 C934.7,27.3 933.9,55.7 933.5,59 C933.1,62.3 932,68.5 932.5,68.9 C933.1,69.3 934.8,70.4 936.6,69.9 C938.4,69.4 943.2,67.2 944.3,64.5 C945.5,61.8 944.7,58.9 944.1,54.8 C943.5,50.7 942.2,37.2 942,35.9 C941.8,34.5 940.3,22 940.1,20.1 C939.9,18 937.6,15.1 937.6,15.1 Z" id="Shape"></path>
                                        <path d="M940.4,22.9 C940.4,23.5 943.4,32.1 945.7,34.8 C948,37.5 951.9,33.1 953.5,34.8" id="Shape"></path>
                                        <path d="M392.1,14.1 C392.1,14.1 397.1,14 395,6.4 C395,6.4 389.3,2.7 387.2,6.3 C386.2,8 384.3,10.2 386.2,12.2 C388.1,14.1 390.1,14.1 392.1,14.1 C393.1,14.1 391.8,16.3 390.6,18.2 C389.4,20.2 388.1,21.9 388.1,22.9 C388.1,24.9 390.1,42.6 389.1,45.5 C388.1,48.4 385.2,67.1 385.2,67.1 C385.2,67.1 388.1,69.1 392.1,68.1 C396.1,67.1 400,69.1 400.9,68.1 C401.8,67.1 397,52.4 398,49.4 C398.7,47.4 394.4,35 398,27.8 C399,25.8 400.9,22.9 400,21.9 C399.1,21 395.2,19.3 392,18.3 C389.4,17.5 396.1,34.7 398,35.7 C400,36.7 404.9,36.7 409.8,34.7 C414.7,32.7 412.7,32.7 412.7,32.7" id="Shape"></path>
                                        <path d="M392.1,69.2 L387.2,78 L392.1,78 C392.1,78 394.1,80 396,80 C396.3,80 397.7,80.1 398,80 C399.3,79.6 397.2,77.9 396,77.1 C395.2,76.5 394.5,76.6 394,76.1 C393,75.1 394,68.2 394,68.2 L392,78" id="Shape"></path>
                                        <path d="M408.8,34.2 C408.8,35.2 409.6,39.7 409.6,39.7 C409.6,39.7 418.9,39.7 419.6,38.7 C420.3,37.7 417.4,50.5 416.7,51.5 C416,52.5 401.6,50.5 401.6,49.5 C401.6,48.5 399.4,42.6 400.2,40.7 C400.9,38.7 409.5,39.7 409.5,39.7" id="Shape"></path>
                                        <path d="M305.8,6.1 C305.8,6.1 309.2,6.1 309.2,9.5 C309.2,12.9 309.2,15.1 308.1,15.1 C307,15.1 303.6,14 303.6,11.7 C303.6,9.4 304.7,6.1 304.7,5" id="Shape"></path>
                                        <path d="M305.8,15.1 C305.8,15.1 307.8,15.7 305.8,20.7 C305.4,21.8 304.3,23.1 303.6,24.1 C299.1,29.7 294.6,49.9 296.9,52.2 C299.1,54.4 303.6,42.1 304.8,36.5 C305.9,30.9 305.9,20.8 305.9,20.8 C305.9,20.8 304.8,30.9 310.4,32 C316,33.1 321.6,34.2 321.6,33.1" id="Shape"></path>
                                        <path d="M302.4,48.8 C302.4,51 308,67.9 308,71.3 C308,74.7 317,70.2 317,72.4 C317,74.6 309.1,75.8 308,74.6" id="Shape"></path>
                                        <path d="M296.8,53.3 C296.8,53.3 297.9,63.4 294.6,66.8 C291.3,70.2 281.1,70.2 281.1,72.4 C281.1,74.6 286.7,75.8 287.8,74.6 C288.9,73.5 284.4,72.4 284.4,72.4" id="Shape"></path>
                                        <path d="M452.5,3.2 C452.5,3.2 453.8,3.2 453.8,6.9 C453.8,10.6 452.5,13.1 450,11.8 C447.5,10.5 446.2,8.1 447.5,5.6 C448.8,3.2 450,3.2 452.5,3.2 Z" id="Shape"></path>
                                        <path d="M451.3,13.1 C451.3,13.1 456.3,23 453.8,31.6 C451.3,40.2 451.3,42.7 451.3,46.4 C451.3,50.1 451.3,71.8 452.5,75.5 C452.5,75.5 455.9,75 456.4,76.3 C456.9,77.6 458.2,80.2 455.9,79.4 C453.5,78.6 450.4,77.3 450.4,77.3" id="Shape"></path>
                                        <path d="M451.3,13.1 C451.3,13.1 446.3,15.6 446.3,24.2 C446.3,32.8 445.2,43.5 446.3,45.2 C449.2,49.6 450.5,49.7 451.8,47.2" id="Shape"></path>
                                        <path d="M447.5,47.6 C447.5,47.6 447.6,66.7 447,73.9 C447,73.9 447.3,74.2 448.3,75.5 C449.3,76.8 450.7,79.4 448.8,78.9 C446.9,78.4 444.6,77.9 444.6,77.9 L447,74" id="Shape"></path>
                                        <path d="M450,22.9 C451.3,22.9 452.2,30.9 457.2,35.9 C462.2,40.8 464.1,38.2 465.3,36.9" id="Shape"></path>
                                        <path d="M583.8,35 C584.4,34.9 589.6,35 591.1,38 C592.6,41 593.8,43.1 593.8,43.1" id="Shape"></path>
                                        <path d="M593.9,43.1 L632.9,44 C632.9,44 630.7,55.3 627.9,57.2 C625.1,59.1 603.7,60.3 603.7,60.3" id="Shape"></path>
                                        <path d="M599.3,60.6 L599.1,75.9 C599.1,75.9 596.5,76.1 596.3,77.4 C596.1,78.6 598.2,79.3 599.1,78.8 C600,78.3 600.5,76.9 599.1,76" id="Shape"></path>
                                        <path d="M625.8,58.9 C625.7,59.6 625.6,74.4 625.9,75.2 C626.3,76.1 630.6,74.5 630.5,76.6 C630.4,78.7 628.4,79.7 627,78.3 C625.6,76.9 625.9,75.2 625.9,75.2" id="Shape"></path>
                                        <path d="M594.8,52.2 L631.9,50.5" id="Shape"></path>
                                        <path d="M602.9,43.5 L603.8,60.3 C603.8,60.3 599.8,60.5 598.6,59.5 C597.4,58.5 593.9,57.3 593.9,43" id="Shape"></path>
                                        <path d="M619.1,44.1 L618.8,59.2" id="Shape"></path>
                                        <path d="M547.8,44.8 C547.4,44.9 543.9,48.1 544,49.3 C544.1,50.5 544.6,53.2 546,52.8 C547.4,52.4 550.3,49.8 550.2,48.2 C550.1,46.5 549.1,44.5 547.8,44.8 Z" id="Shape"></path>
                                        <path d="M546.1,52.7 C546.1,52.7 544.8,56.9 545.4,58.6 C546,60.3 546.7,67.1 547.1,68.5 C547.5,69.9 549.9,70.5 550.1,69.1 C550.4,67.7 548.1,54.6 547.8,52.7" id="Shape"></path>
                                        <path d="M547.4,70.1 C547.4,70.1 547,74.6 543.9,75.5 C540.8,76.4 536.9,78.5 536.2,77.8" id="Shape"></path>
                                        <path d="M550.1,70 C550.1,70 552,71.2 551.7,74.5 C551.4,77.8 551.1,79 551.6,79.1" id="Shape"></path>
                                        <path d="M544.6,56.8 C543.9,57.1 541.3,58.7 541.1,60.3 C541,61.9 540.4,67.7 540.4,67.1" id="Shape"></path>
                                        <path d="M548.7,54.3 C548.7,54.3 553.2,53.1 553.9,51.8 C554.6,50.5 554,49.8 554.6,48.3 C555.4,46.4 556.6,32.2 556.6,30.9 C556.6,29.6 565,22.1 565,22.1" id="Shape"></path>
                                        <path d="M571.6,68.2 C571.6,68.2 573,74 576.1,74.9 C579.2,75.8 582.9,76.1 582.3,77.1 C581.7,78.1 577.1,79.1 576.1,77.5 C575.1,75.9 574.5,74.9 574.5,74.9" id="Shape"></path>
                                        <path d="M567.5,69.9 C567.5,69.9 564.6,74 564.2,76 C563.8,78 566.5,79.6 567,78 C567.4,76.4 567.6,72.1 567.6,72.1" id="Shape"></path>
                                        <path d="M464.9,36.7 C465.5,36.6 471.1,35.9 472.5,38.8 C473.9,41.6 475.1,43.6 475.1,43.6" id="Shape"></path>
                                        <path d="M475.1,43.6 L512.1,44.5 C512.1,44.5 510,55.2 507.4,57.1 C504.8,59 484.4,60 484.4,60" id="Shape"></path>
                                        <path d="M480.2,61.2 L480,75.7 C480,75.7 477.5,75.9 477.3,77.1 C477.1,78.3 479.1,78.9 480,78.4 C480.9,77.9 481.3,76.6 480,75.7" id="Shape"></path>
                                        <path d="M505.3,59.6 C505.2,60.3 505.1,74.3 505.4,75.1 C505.8,75.9 509.9,74.4 509.7,76.4 C509.5,78.4 507.7,79.3 506.4,78 C505.1,76.7 505.3,75.1 505.3,75.1" id="Shape"></path>
                                        <path d="M475.9,52.2 L511,50.6" id="Shape"></path>
                                        <path d="M483.6,44 L484.4,59.9 C484.4,59.9 480.6,60.1 479.5,59.1 C478.3,58.2 475,57 475,43.5" id="Shape"></path>
                                        <path d="M499,44.6 L498.7,58.8" id="Shape"></path>
                                        <path d="M321.9,33.8 C322.5,33.7 328.1,33 329.5,35.9 C330.9,38.7 332.1,40.7 332.1,40.7" id="Shape"></path>
                                        <path d="M332.1,40.8 L369.1,41.7 C369.1,41.7 367,52.4 364.4,54.3 C361.8,56.2 341.4,57.2 341.4,57.2" id="Shape"></path>
                                        <path d="M337.2,58.4 L337,72.9 C337,72.9 334.5,73.1 334.3,74.3 C334.1,75.5 336.1,76.1 337,75.6 C337.9,75.1 338.3,73.8 337,72.9" id="Shape"></path>
                                        <path d="M362.3,56.7 C362.2,57.4 362.1,71.4 362.4,72.2 C362.8,73 366.9,71.5 366.7,73.5 C366.6,75.5 364.7,76.4 363.4,75.1 C362.1,73.8 362.3,72.2 362.3,72.2" id="Shape"></path>
                                        <path d="M332.9,49.4 L368,47.8" id="Shape"></path>
                                        <path d="M340.6,41.2 L341.4,57.1 C341.4,57.1 337.6,57.3 336.5,56.3 C335.3,55.4 332,54.2 332,40.7" id="Shape"></path>
                                        <path d="M356,41.7 L355.7,56" id="Shape"></path>
                                        <path d="M566.9,4.3 C566.9,4.3 565.4,9.1 565.5,10.5 C565.7,11.9 566.9,14 568.8,14.6 C570.7,15.2 573.6,11.9 572.3,9 C570.9,6.1 569.4,4.2 568.6,4 C567.8,3.8 566.9,4.3 566.9,4.3 Z" id="Shape"></path>
                                        <path d="M568.5,15.3 C568.5,15.3 564.8,22.4 565.2,25 C565.6,27.6 564.8,55.9 564.4,59.2 C564,62.5 562.9,68.7 563.4,69.1 C564,69.5 565.7,70.6 567.5,70.1 C569.3,69.6 574.1,67.4 575.2,64.7 C576.4,62 575.6,59.1 575,55 C574.4,50.9 573.1,37.4 572.9,36.1 C572.7,34.7 571.2,22.2 571,20.3 C570.8,18.2 568.5,15.3 568.5,15.3 Z" id="Shape"></path>
                                        <path d="M571.3,23.1 C571.3,23.7 574.3,32.3 576.6,35 C578.9,37.7 582.8,33.3 584.4,35" id="Shape"></path>
                                        <path d="M77.5,3.2 C77.5,3.2 78.8,3.2 78.8,6.9 C78.8,10.6 77.5,13.1 75,11.8 C72.5,10.6 71.2,8.1 72.5,5.6 C73.7,3.2 75,3.2 77.5,3.2 Z" id="Shape"></path>
                                        <path d="M76.3,13.1 C76.3,13.1 81.3,23 78.8,31.6 C76.3,40.2 76.3,42.7 76.3,46.4 C76.3,50.1 76.3,71.8 77.5,75.5 C77.5,75.5 80.9,75 81.4,76.3 C81.9,77.6 83.2,80.2 80.9,79.4 C78.5,78.6 75.4,77.3 75.4,77.3" id="Shape"></path>
                                        <path d="M76.3,13.1 C76.3,13.1 71.3,15.6 71.3,24.2 C71.3,32.8 70.2,43.5 71.3,45.2 C74.2,49.6 75.5,49.7 76.8,47.2" id="Shape"></path>
                                        <path d="M72.5,47.6 C72.5,47.6 72.6,66.7 72,73.9 C72,73.9 72.3,74.2 73.3,75.5 C74.3,76.8 75.7,79.4 73.8,78.9 C71.9,78.4 69.6,77.9 69.6,77.9 L72,74" id="Shape"></path>
                                        <path d="M75,22.9 C76.3,22.9 77.2,30.9 82.2,35.9 C87.2,40.8 89.1,38.2 90.3,36.9" id="Shape"></path>
                                        <path d="M208.8,35 C209.4,34.9 214.6,35 216.1,38 C217.6,41 218.8,43.1 218.8,43.1" id="Shape"></path>
                                        <path d="M218.9,43.1 L257.9,44 C257.9,44 255.7,55.3 252.9,57.2 C250.1,59.1 228.7,60.3 228.7,60.3" id="Shape"></path>
                                        <path d="M224.3,60.6 L224.1,75.9 C224.1,75.9 221.5,76.1 221.3,77.4 C221.1,78.6 223.2,79.3 224.1,78.8 C225.1,78.3 225.5,76.9 224.1,76" id="Shape"></path>
                                        <path d="M250.8,58.9 C250.7,59.6 250.6,74.4 250.9,75.2 C251.2,76 255.6,74.5 255.5,76.6 C255.4,78.7 253.4,79.7 252,78.3 C250.6,76.9 250.9,75.2 250.9,75.2" id="Shape"></path>
                                        <path d="M219.8,52.2 L256.8,50.5" id="Shape"></path>
                                        <path d="M227.9,43.5 L228.8,60.3 C228.8,60.3 224.8,60.5 223.6,59.5 C222.4,58.5 218.9,57.3 218.9,43" id="Shape"></path>
                                        <path d="M244.1,44.1 L243.8,59.2" id="Shape"></path>
                                        <path d="M172.8,44.8 C172.4,44.9 168.9,48.1 169,49.3 C169.1,50.5 169.6,53.2 171,52.8 C172.4,52.4 175.3,49.8 175.2,48.2 C175.1,46.5 174.1,44.5 172.8,44.8 Z" id="Shape"></path>
                                        <path d="M171,52.7 C171,52.7 169.7,56.9 170.3,58.6 C170.9,60.3 171.6,67.1 172,68.5 C172.4,69.9 174.8,70.5 175,69.1 C175.3,67.7 173,54.6 172.7,52.7" id="Shape"></path>
                                        <path d="M172.3,70.1 C172.3,70.1 171.9,74.6 168.8,75.5 C165.7,76.4 161.8,78.5 161.1,77.8" id="Shape"></path>
                                        <path d="M175.1,70 C175.1,70 177,71.2 176.7,74.5 C176.4,77.8 176.1,79 176.6,79.1" id="Shape"></path>
                                        <path d="M169.6,56.8 C168.9,57.1 166.3,58.7 166.1,60.3 C166,61.9 165.4,67.7 165.4,67.1" id="Shape"></path>
                                        <path d="M173.6,54.3 C173.6,54.3 178.1,53.1 178.8,51.8 C179.5,50.5 178.9,49.8 179.5,48.3 C180.3,46.4 181.5,32.2 181.5,30.9 C181.5,29.6 189.9,22.1 189.9,22.1" id="Shape"></path>
                                        <path d="M196.5,68.2 C196.5,68.2 197.9,74 201,74.9 C204.1,75.8 207.8,76.1 207.2,77.1 C206.6,78.1 202,79.1 201,77.5 C200,75.9 199.4,74.9 199.4,74.9" id="Shape"></path>
                                        <path d="M192.5,69.9 C192.5,69.9 189.6,74 189.2,76 C188.8,78 191.5,79.6 192,78 C192.4,76.4 192.6,72.1 192.6,72.1" id="Shape"></path>
                                        <path d="M89.8,36.7 C90.4,36.6 96,35.9 97.4,38.8 C98.8,41.6 100,43.6 100,43.6" id="Shape"></path>
                                        <path d="M100,43.6 L137,44.5 C137,44.5 134.9,55.2 132.3,57.1 C129.7,59 109.3,60 109.3,60" id="Shape"></path>
                                        <path d="M105.1,61.2 L104.9,75.7 C104.9,75.7 102.4,75.9 102.2,77.1 C102,78.3 104,78.9 104.9,78.4 C105.8,77.9 106.2,76.6 104.9,75.7" id="Shape"></path>
                                        <path d="M130.2,59.6 C130.1,60.3 130,74.3 130.3,75.1 C130.7,75.9 134.8,74.4 134.6,76.4 C134.5,78.4 132.6,79.3 131.3,78 C130,76.7 130.2,75.1 130.2,75.1" id="Shape"></path>
                                        <path d="M100.9,52.2 L136,50.6" id="Shape"></path>
                                        <path d="M108.6,44 L109.4,59.9 C109.4,59.9 105.6,60.1 104.5,59.1 C103.3,58.2 100,57 100,43.5" id="Shape"></path>
                                        <path d="M123.9,44.6 L123.7,58.8" id="Shape"></path>
                                        <path d="M191.9,4.3 C191.9,4.3 190.4,9.1 190.5,10.5 C190.7,11.9 191.9,14 193.8,14.6 C195.7,15.2 198.6,11.9 197.3,9 C195.9,6.1 194.4,4.2 193.6,4 C192.9,3.7 191.9,4.3 191.9,4.3 Z" id="Shape"></path>
                                        <path d="M193.4,15.3 C193.4,15.3 189.7,22.4 190.1,25 C190.5,27.6 189.7,55.9 189.3,59.2 C188.9,62.5 187.8,68.7 188.3,69.1 C188.9,69.5 190.6,70.6 192.4,70.1 C194.2,69.6 199,67.4 200.1,64.7 C201.3,62 200.5,59.1 199.9,55 C199.3,50.9 198,37.4 197.8,36.1 C197.6,34.7 196.1,22.2 195.9,20.3 C195.8,18.2 193.4,15.3 193.4,15.3 Z" id="Shape"></path>
                                        <path d="M196.2,23.1 C196.2,23.7 199.2,32.3 201.5,35 C203.8,37.7 207.7,33.3 209.3,35" id="Shape"></path>
                                        <path d="M6.9,11.7 C6.9,11.7 11.9,11.6 9.8,4 C9.8,4 4.1,0.3 2,3.9 C1,5.6 -0.9,7.8 1,9.8 C3,11.7 5,11.7 6.9,11.7 C7.9,11.7 6.6,13.9 5.4,15.8 C4.2,17.7 2.9,19.5 2.9,20.5 C2.9,22.5 4.9,40.2 3.9,43.1 C2.9,46 0,64.7 0,64.7 C0,64.7 2.9,66.7 6.9,65.7 C10.8,64.7 14.8,66.7 15.7,65.7 C16.7,64.7 11.8,50 12.8,47 C13.5,45 9.2,32.6 12.8,25.4 C13.8,23.4 15.7,20.5 14.8,19.5 C13.9,18.6 10,16.9 6.8,15.9 C4.2,15.1 10.9,32.3 12.8,33.3 C14.7,34.3 19.7,34.3 24.6,32.3 C29.5,30.3 27.5,30.3 27.5,30.3" id="Shape"></path>
                                        <path d="M6.9,66.7 L2,75.5 L6.9,75.5 C6.9,75.5 8.9,77.5 10.8,77.5 C11.1,77.5 12.5,77.6 12.8,77.5 C14.1,77.1 12,75.4 10.8,74.6 C10,74 9.3,74.1 8.8,73.6 C7.8,72.6 8.8,65.7 8.8,65.7 L6.8,75.5" id="Shape"></path>
                                        <path d="M23.6,31.8 C23.6,32.8 24.4,37.3 24.4,37.3 C24.4,37.3 33.7,37.3 34.4,36.3 C35.1,35.3 32.2,48.1 31.5,49.1 C30.8,50.1 16.4,48.1 16.4,47.1 C16.4,46.1 14.2,40.2 15,38.3 C15.8,36.4 24.3,37.3 24.3,37.3" id="Shape"></path>
                                    </g>
                                </g>
                            </g>
                        </g>
                    </g>
                </g>
            </g>
        </g>
    </g>
</svg>