<?xml version="1.0" encoding="UTF-8"?>
<svg width="4000px" height="320px" viewBox="0 0 4000 320" version="1.1" xmlns="http://www.w3.org/2000/svg" xmlns:xlink="http://www.w3.org/1999/xlink">
    <!-- Generator: Sketch 52.3 (67297) - http://www.bohemiancoding.com/sketch -->
    <title>Samfunnsfaglig matte</title>
    <desc>Created with Sketch.</desc>
    <g id="Samfunnsfaglig-matte" stroke="none" stroke-width="1" fill="none" fill-rule="evenodd">
        <polyline id="Path" stroke="#FFFFFF" fill="#FFFFFF" points="3999.2 279.7 3745.8 280.1 -0.4 280.1"></polyline>
        <path d="M3746.2,274.5 L3745.8,280.1" id="Path" stroke="#FFFFFF" fill="#FFFFFF"></path>
        <path d="M3773.4,274.5 L3773.4,280.1" id="Path" stroke="#FFFFFF" fill="#FFFFFF"></path>
        <path d="M3801.3,274.1 L3801.7,279.7" id="Path" stroke="#FFFFFF" fill="#FFFFFF"></path>
        <path d="M3828.8,274.1 L3828.8,280.1" id="Path" stroke="#FFFFFF" fill="#FFFFFF"></path>
        <path d="M3856,274.1 L3856,280.4" id="Path" stroke="#FFFFFF" fill="#FFFFFF"></path>
        <path d="M3883.1,273.8 L3883.5,280.1" id="Path" stroke="#FFFFFF" fill="#FFFFFF"></path>
        <path d="M3909.6,273.8 L3909.9,280.1" id="Path" stroke="#FFFFFF" fill="#FFFFFF"></path>
        <path d="M3938.2,272.6 L3939,279.7" id="Path" stroke="#FFFFFF" fill="#FFFFFF"></path>
        <path d="M3965,273 L3965.4,280.1" id="Path" stroke="#FFFFFF" fill="#FFFFFF"></path>
        <path d="M3502.1,275.4 L3501.7,281" id="Path" stroke="#FFFFFF" fill="#FFFFFF"></path>
        <path d="M3529.3,275.4 L3529.3,281" id="Path" stroke="#FFFFFF" fill="#FFFFFF"></path>
        <path d="M3557.2,275 L3557.5,280.6" id="Path" stroke="#FFFFFF" fill="#FFFFFF"></path>
        <path d="M3584.7,275 L3584.7,281" id="Path" stroke="#FFFFFF" fill="#FFFFFF"></path>
        <path d="M3611.9,275 L3611.9,281.4" id="Path" stroke="#FFFFFF" fill="#FFFFFF"></path>
        <path d="M3639,274.7 L3639.4,281" id="Path" stroke="#FFFFFF" fill="#FFFFFF"></path>
        <path d="M3665.4,274.7 L3665.8,281" id="Path" stroke="#FFFFFF" fill="#FFFFFF"></path>
        <path d="M3694.1,273.5 L3694.8,280.6" id="Path" stroke="#FFFFFF" fill="#FFFFFF"></path>
        <path d="M3720.9,273.9 L3721.3,281" id="Path" stroke="#FFFFFF" fill="#FFFFFF"></path>
        <path d="M3262.7,274.5 L3262.3,280.1" id="Path" stroke="#FFFFFF" fill="#FFFFFF"></path>
        <path d="M3289.9,274.5 L3289.9,280.1" id="Path" stroke="#FFFFFF" fill="#FFFFFF"></path>
        <path d="M3317.8,274.1 L3318.1,279.7" id="Path" stroke="#FFFFFF" fill="#FFFFFF"></path>
        <path d="M3345.3,274.1 L3345.3,280.1" id="Path" stroke="#FFFFFF" fill="#FFFFFF"></path>
        <path d="M3372.5,274.1 L3372.5,280.5" id="Path" stroke="#FFFFFF" fill="#FFFFFF"></path>
        <path d="M3399.6,273.8 L3400,280.1" id="Path" stroke="#FFFFFF" fill="#FFFFFF"></path>
        <path d="M3426.1,273.8 L3426.4,280.1" id="Path" stroke="#FFFFFF" fill="#FFFFFF"></path>
        <path d="M3454.7,272.7 L3455.4,279.7" id="Path" stroke="#FFFFFF" fill="#FFFFFF"></path>
        <path d="M3481.5,273 L3481.9,280.1" id="Path" stroke="#FFFFFF" fill="#FFFFFF"></path>
        <path d="M3018.6,274.4 L3018.2,280" id="Path" stroke="#FFFFFF" fill="#FFFFFF"></path>
        <path d="M3045.7,274.4 L3045.7,280" id="Path" stroke="#FFFFFF" fill="#FFFFFF"></path>
        <path d="M3073.7,274.1 L3074,279.6" id="Path" stroke="#FFFFFF" fill="#FFFFFF"></path>
        <path d="M3101.2,274.1 L3101.2,280" id="Path" stroke="#FFFFFF" fill="#FFFFFF"></path>
        <path d="M3128.4,274.1 L3128.4,280.4" id="Path" stroke="#FFFFFF" fill="#FFFFFF"></path>
        <path d="M3155.5,273.7 L3155.9,280" id="Path" stroke="#FFFFFF" fill="#FFFFFF"></path>
        <path d="M3181.9,273.7 L3182.3,280" id="Path" stroke="#FFFFFF" fill="#FFFFFF"></path>
        <path d="M3210.6,273.6 L3211.3,280.6" id="Path" stroke="#FFFFFF" fill="#FFFFFF"></path>
        <path d="M3237.4,273.9 L3237.7,281" id="Path" stroke="#FFFFFF" fill="#FFFFFF"></path>
        <path d="M2780.3,273.6 L2779.9,279.2" id="Path" stroke="#FFFFFF" fill="#FFFFFF"></path>
        <path d="M2807.4,273.6 L2807.4,279.2" id="Path" stroke="#FFFFFF" fill="#FFFFFF"></path>
        <path d="M2835.3,273.2 L2835.7,278.8" id="Path" stroke="#FFFFFF" fill="#FFFFFF"></path>
        <path d="M2862.9,274.2 L2862.9,280.2" id="Path" stroke="#FFFFFF" fill="#FFFFFF"></path>
        <path d="M2890,274.2 L2890,280.6" id="Path" stroke="#FFFFFF" fill="#FFFFFF"></path>
        <path d="M2917.2,273.9 L2917.6,280.2" id="Path" stroke="#FFFFFF" fill="#FFFFFF"></path>
        <path d="M2943.6,273.9 L2944,280.2" id="Path" stroke="#FFFFFF" fill="#FFFFFF"></path>
        <path d="M2972.3,272.8 L2973,279.8" id="Path" stroke="#FFFFFF" fill="#FFFFFF"></path>
        <path d="M2999.1,273.1 L2999.4,280.2" id="Path" stroke="#FFFFFF" fill="#FFFFFF"></path>
        <path d="M2536.1,274.5 L2535.8,280.1" id="Path" stroke="#FFFFFF" fill="#FFFFFF"></path>
        <path d="M2563.3,274.5 L2563.3,280.1" id="Path" stroke="#FFFFFF" fill="#FFFFFF"></path>
        <path d="M2591.2,274.1 L2591.6,279.7" id="Path" stroke="#FFFFFF" fill="#FFFFFF"></path>
        <path d="M2618.7,274.1 L2618.7,280.1" id="Path" stroke="#FFFFFF" fill="#FFFFFF"></path>
        <path d="M2645.9,274.1 L2645.9,280.5" id="Path" stroke="#FFFFFF" fill="#FFFFFF"></path>
        <path d="M2673.1,273.8 L2673.4,280.1" id="Path" stroke="#FFFFFF" fill="#FFFFFF"></path>
        <path d="M2699.5,273.8 L2699.9,280.1" id="Path" stroke="#FFFFFF" fill="#FFFFFF"></path>
        <path d="M2728.1,272.7 L2728.9,279.7" id="Path" stroke="#FFFFFF" fill="#FFFFFF"></path>
        <path d="M2754.9,273 L2755.3,280.1" id="Path" stroke="#FFFFFF" fill="#FFFFFF"></path>
        <path d="M2296.8,273.6 L2296.4,279.2" id="Path" stroke="#FFFFFF" fill="#FFFFFF"></path>
        <path d="M2323.9,273.6 L2323.9,279.2" id="Path" stroke="#FFFFFF" fill="#FFFFFF"></path>
        <path d="M2351.8,273.3 L2352.2,278.8" id="Path" stroke="#FFFFFF" fill="#FFFFFF"></path>
        <path d="M2379.4,273.3 L2379.4,279.2" id="Path" stroke="#FFFFFF" fill="#FFFFFF"></path>
        <path d="M2406.5,273.3 L2406.5,279.6" id="Path" stroke="#FFFFFF" fill="#FFFFFF"></path>
        <path d="M2433.7,274.9 L2434.1,281.2" id="Path" stroke="#FFFFFF" fill="#FFFFFF"></path>
        <path d="M2460.1,274.9 L2460.5,281.2" id="Path" stroke="#FFFFFF" fill="#FFFFFF"></path>
        <path d="M2488.8,273.8 L2489.5,280.8" id="Path" stroke="#FFFFFF" fill="#FFFFFF"></path>
        <path d="M2515.5,274.1 L2515.9,281.2" id="Path" stroke="#FFFFFF" fill="#FFFFFF"></path>
        <path d="M2052.6,274.5 L2052.3,280.1" id="Path" stroke="#FFFFFF" fill="#FFFFFF"></path>
        <path d="M2079.8,274.5 L2079.8,280.1" id="Path" stroke="#FFFFFF" fill="#FFFFFF"></path>
        <path d="M2107.7,274.2 L2108.1,279.8" id="Path" stroke="#FFFFFF" fill="#FFFFFF"></path>
        <path d="M2135.2,274.2 L2135.2,280.1" id="Path" stroke="#FFFFFF" fill="#FFFFFF"></path>
        <path d="M2162.4,274.2 L2162.4,280.5" id="Path" stroke="#FFFFFF" fill="#FFFFFF"></path>
        <path d="M2189.6,273.8 L2189.9,280.1" id="Path" stroke="#FFFFFF" fill="#FFFFFF"></path>
        <path d="M2216,273.8 L2216.4,280.1" id="Path" stroke="#FFFFFF" fill="#FFFFFF"></path>
        <path d="M2244.6,272.7 L2245.4,279.8" id="Path" stroke="#FFFFFF" fill="#FFFFFF"></path>
        <path d="M2271.4,273.1 L2271.8,280.1" id="Path" stroke="#FFFFFF" fill="#FFFFFF"></path>
        <path d="M1807.6,273.8 L1807.2,279.4" id="Path" stroke="#FFFFFF" fill="#FFFFFF"></path>
        <path d="M1834.7,273.8 L1834.7,279.4" id="Path" stroke="#FFFFFF" fill="#FFFFFF"></path>
        <path d="M1862.6,273.4 L1863,279" id="Path" stroke="#FFFFFF" fill="#FFFFFF"></path>
        <path d="M1890.2,273.4 L1890.2,279.4" id="Path" stroke="#FFFFFF" fill="#FFFFFF"></path>
        <path d="M1917.3,273.4 L1917.3,279.7" id="Path" stroke="#FFFFFF" fill="#FFFFFF"></path>
        <path d="M1944.5,273 L1944.9,279.4" id="Path" stroke="#FFFFFF" fill="#FFFFFF"></path>
        <path d="M1970.9,273 L1971.3,279.4" id="Path" stroke="#FFFFFF" fill="#FFFFFF"></path>
        <path d="M1999.6,271.9 L2000.3,279" id="Path" stroke="#FFFFFF" fill="#FFFFFF"></path>
        <path d="M2026.4,272.3 L2026.7,279.4" id="Path" stroke="#FFFFFF" fill="#FFFFFF"></path>
        <path d="M1563.4,274.7 L1563.1,280.3" id="Path" stroke="#FFFFFF" fill="#FFFFFF"></path>
        <path d="M1590.6,274.7 L1590.6,280.3" id="Path" stroke="#FFFFFF" fill="#FFFFFF"></path>
        <path d="M1618.5,274.3 L1618.9,279.9" id="Path" stroke="#FFFFFF" fill="#FFFFFF"></path>
        <path d="M1646.1,274.3 L1646.1,280.3" id="Path" stroke="#FFFFFF" fill="#FFFFFF"></path>
        <path d="M1673.2,274.3 L1673.2,280.6" id="Path" stroke="#FFFFFF" fill="#FFFFFF"></path>
        <path d="M1700.4,273.9 L1700.7,280.3" id="Path" stroke="#FFFFFF" fill="#FFFFFF"></path>
        <path d="M1726.8,273.9 L1727.2,280.3" id="Path" stroke="#FFFFFF" fill="#FFFFFF"></path>
        <path d="M1755.4,272.8 L1756.2,279.9" id="Path" stroke="#FFFFFF" fill="#FFFFFF"></path>
        <path d="M1782.2,273.2 L1782.6,280.3" id="Path" stroke="#FFFFFF" fill="#FFFFFF"></path>
        <path d="M1324.1,273.8 L1323.7,279.4" id="Path" stroke="#FFFFFF" fill="#FFFFFF"></path>
        <path d="M1351.2,273.8 L1351.2,279.4" id="Path" stroke="#FFFFFF" fill="#FFFFFF"></path>
        <path d="M1379.1,273.4 L1379.5,279" id="Path" stroke="#FFFFFF" fill="#FFFFFF"></path>
        <path d="M1406.7,273.4 L1406.7,279.4" id="Path" stroke="#FFFFFF" fill="#FFFFFF"></path>
        <path d="M1433.8,273.4 L1433.8,279.8" id="Path" stroke="#FFFFFF" fill="#FFFFFF"></path>
        <path d="M1461,273.1 L1461.4,279.4" id="Path" stroke="#FFFFFF" fill="#FFFFFF"></path>
        <path d="M1487.4,273.1 L1487.8,279.4" id="Path" stroke="#FFFFFF" fill="#FFFFFF"></path>
        <path d="M1516.1,271.9 L1516.8,279" id="Path" stroke="#FFFFFF" fill="#FFFFFF"></path>
        <path d="M1542.8,272.3 L1543.2,279.4" id="Path" stroke="#FFFFFF" fill="#FFFFFF"></path>
        <path d="M1079.9,274.7 L1079.6,280.3" id="Path" stroke="#FFFFFF" fill="#FFFFFF"></path>
        <path d="M1107.1,274.7 L1107.1,280.3" id="Path" stroke="#FFFFFF" fill="#FFFFFF"></path>
        <path d="M1135,274.3 L1135.4,279.9" id="Path" stroke="#FFFFFF" fill="#FFFFFF"></path>
        <path d="M1162.5,274.3 L1162.5,280.3" id="Path" stroke="#FFFFFF" fill="#FFFFFF"></path>
        <path d="M1189.7,274.3 L1189.7,280.7" id="Path" stroke="#FFFFFF" fill="#FFFFFF"></path>
        <path d="M1216.9,274 L1217.2,280.3" id="Path" stroke="#FFFFFF" fill="#FFFFFF"></path>
        <path d="M1243.3,274 L1243.7,280.3" id="Path" stroke="#FFFFFF" fill="#FFFFFF"></path>
        <path d="M1271.9,272.8 L1272.7,279.9" id="Path" stroke="#FFFFFF" fill="#FFFFFF"></path>
        <path d="M1298.7,273.2 L1299.1,280.3" id="Path" stroke="#FFFFFF" fill="#FFFFFF"></path>
        <path d="M841.6,274.9 L841.2,280.5" id="Path" stroke="#FFFFFF" fill="#FFFFFF"></path>
        <path d="M868.8,274.9 L868.8,280.5" id="Path" stroke="#FFFFFF" fill="#FFFFFF"></path>
        <path d="M896.7,274.5 L897.1,280.1" id="Path" stroke="#FFFFFF" fill="#FFFFFF"></path>
        <path d="M924.2,274.5 L924.2,280.5" id="Path" stroke="#FFFFFF" fill="#FFFFFF"></path>
        <path d="M951.4,274.5 L951.4,280.8" id="Path" stroke="#FFFFFF" fill="#FFFFFF"></path>
        <path d="M978.5,274.1 L978.9,280.5" id="Path" stroke="#FFFFFF" fill="#FFFFFF"></path>
        <path d="M1005,274.1 L1005.3,280.5" id="Path" stroke="#FFFFFF" fill="#FFFFFF"></path>
        <path d="M1033.6,273 L1034.4,280.1" id="Path" stroke="#FFFFFF" fill="#FFFFFF"></path>
        <path d="M1060.4,273.4 L1060.8,280.5" id="Path" stroke="#FFFFFF" fill="#FFFFFF"></path>
        <path d="M597.5,275.8 L597.1,281.4" id="Path" stroke="#FFFFFF" fill="#FFFFFF"></path>
        <path d="M624.7,275.8 L624.7,281.4" id="Path" stroke="#FFFFFF" fill="#FFFFFF"></path>
        <path d="M652.6,275.4 L652.9,281" id="Path" stroke="#FFFFFF" fill="#FFFFFF"></path>
        <path d="M680.1,275.4 L680.1,281.4" id="Path" stroke="#FFFFFF" fill="#FFFFFF"></path>
        <path d="M707.3,275.4 L707.3,281.8" id="Path" stroke="#FFFFFF" fill="#FFFFFF"></path>
        <path d="M734.4,275.1 L734.8,281.4" id="Path" stroke="#FFFFFF" fill="#FFFFFF"></path>
        <path d="M760.8,275.1 L761.2,281.4" id="Path" stroke="#FFFFFF" fill="#FFFFFF"></path>
        <path d="M789.5,273.9 L790.2,281" id="Path" stroke="#FFFFFF" fill="#FFFFFF"></path>
        <path d="M816.3,274.3 L816.7,281.4" id="Path" stroke="#FFFFFF" fill="#FFFFFF"></path>
        <path d="M358.1,274.9 L357.7,280.5" id="Path" stroke="#FFFFFF" fill="#FFFFFF"></path>
        <path d="M385.3,274.9 L385.3,280.5" id="Path" stroke="#FFFFFF" fill="#FFFFFF"></path>
        <path d="M413.2,274.5 L413.5,280.1" id="Path" stroke="#FFFFFF" fill="#FFFFFF"></path>
        <path d="M440.7,274.5 L440.7,280.5" id="Path" stroke="#FFFFFF" fill="#FFFFFF"></path>
        <path d="M467.9,274.5 L467.9,280.9" id="Path" stroke="#FFFFFF" fill="#FFFFFF"></path>
        <path d="M495,274.2 L495.4,280.5" id="Path" stroke="#FFFFFF" fill="#FFFFFF"></path>
        <path d="M521.4,274.2 L521.8,280.5" id="Path" stroke="#FFFFFF" fill="#FFFFFF"></path>
        <path d="M550.1,273.1 L550.8,280.1" id="Path" stroke="#FFFFFF" fill="#FFFFFF"></path>
        <path d="M576.9,273.4 L577.3,280.5" id="Path" stroke="#FFFFFF" fill="#FFFFFF"></path>
        <path d="M114,274.8 L113.6,280.4" id="Path" stroke="#FFFFFF" fill="#FFFFFF"></path>
        <path d="M141.1,274.8 L141.1,280.4" id="Path" stroke="#FFFFFF" fill="#FFFFFF"></path>
        <path d="M169.1,274.4 L169.4,280" id="Path" stroke="#FFFFFF" fill="#FFFFFF"></path>
        <path d="M196.6,274.4 L196.6,280.4" id="Path" stroke="#FFFFFF" fill="#FFFFFF"></path>
        <path d="M223.8,274.4 L223.8,280.8" id="Path" stroke="#FFFFFF" fill="#FFFFFF"></path>
        <path d="M250.9,275.1 L251.3,281.4" id="Path" stroke="#FFFFFF" fill="#FFFFFF"></path>
        <path d="M277.3,275.1 L277.7,281.4" id="Path" stroke="#FFFFFF" fill="#FFFFFF"></path>
        <path d="M306,274 L306.7,281" id="Path" stroke="#FFFFFF" fill="#FFFFFF"></path>
        <path d="M332.8,274.3 L333.1,281.4" id="Path" stroke="#FFFFFF" fill="#FFFFFF"></path>
        <path d="M10.8,274 L10.8,279.6" id="Path" stroke="#FFFFFF" fill="#FFFFFF"></path>
        <path d="M38.7,273.7 L39.1,279.2" id="Path" stroke="#FFFFFF" fill="#FFFFFF"></path>
        <path d="M66.3,273.7 L66.3,279.6" id="Path" stroke="#FFFFFF" fill="#FFFFFF"></path>
        <path d="M93.4,273.7 L93.4,280" id="Path" stroke="#FFFFFF" fill="#FFFFFF"></path>
        <path d="M3708,280.1 C3762.5,270.2 3823.5,105.2 3846.7,105.2 C3871.6,105.2 3915.2,282.3 3997.4,278.8" id="Path" stroke="#FFFFFF"></path>
        <path d="M3847,54.4 L3845.6,279.3" id="Path" stroke="#FFFFFF"></path>
        <path d="M3843.1,61.1 C3843.5,60.4 3847,53.8 3847,53.8 L3850.3,60.7" id="Path" stroke="#FFFFFF"></path>
    </g>
</svg>