<?xml version="1.0" encoding="UTF-8"?>
<svg width="4000px" height="320px" viewBox="0 0 4000 320" version="1.1" xmlns="http://www.w3.org/2000/svg" xmlns:xlink="http://www.w3.org/1999/xlink">
    <!-- Generator: Sketch 51.2 (57519) - http://www.bohemiancoding.com/sketch -->
    <title>service-og-samferdsel</title>
    <desc>Created with Sketch.</desc>
    <defs></defs>
    <g id="service-og-samferdsel" stroke="none" stroke-width="1" fill="none" fill-rule="evenodd">
        <g id="service-og-samf-ny1-01" transform="translate(3399.000000, 27.000000)" stroke="#FFFFFF">
            <path d="M498.6,205 C498.6,205 496.2,205 495.2,206 C494.2,207 493.7,208.9 495.2,210.8 C496.7,212.7 498.1,213.7 500,213.7 C501.9,213.7 502.9,214.2 502.9,211.8 C502.9,209.4 503.4,208.9 501.9,207.4 C500.4,205.9 498.5,205.9 497.1,206.4" id="Shape"></path>
            <path d="M498.1,214.2 C498.1,214.7 495.7,216.6 493.7,218.1 C491.7,219.6 494.2,226.3 494.2,226.8 C494.2,227.3 490.8,228.7 490.3,230.2 C489.8,231.7 488.4,233.6 487.4,234.6 C486.4,235.6 486.4,237 487.4,237 C488.4,237 487.9,236 488.9,235.1 C489.9,234.2 494.7,230.3 494.7,229.3 C494.7,228.3 495.7,232.2 495.2,235.1 C494.7,238 493.3,247.7 493.7,250.6 C494.2,253.5 495.2,265.6 495.6,267.1 C496.1,268.6 493.7,268.6 493.2,269 C492.7,269.5 496.1,270.5 497.1,270 C498.1,269.5 497.6,268.5 497.6,266.6 C497.6,264.7 497.1,257.9 498.1,255.5 C499.1,253.1 500.5,244.8 500.5,244.8 C500.5,244.8 501.5,254 502,257.4 C502.5,260.8 503,265.6 502.5,266.6 C502,267.6 500.6,269 501,269.5 C501.5,270 502.9,270.5 504.4,268.5 C505.9,266.6 507.3,264.6 506.8,261.7 C506.3,258.8 504.9,253.5 504.4,251 C503.9,248.6 503.9,245.2 504.4,237.9 C504.9,230.6 502.9,229.7 502.9,225.8 C502.9,221.9 502.9,221.9 502.9,221.9 C502.9,221.9 507.3,239.4 509.2,240.3 C511.1,241.2 512.6,240.8 512.1,239.8 C511.6,238.8 510.2,239.3 509.7,237.4 C509.2,235.5 505.8,226.7 505.3,224.8 C504.8,222.9 504.8,219.5 504.3,218.5 C503.8,217.5 501.4,216.1 500.9,215.1 C500.4,214.1 500.4,213.6 500.4,213.6" id="Shape"></path>
            <path d="M510.2,240.9 L510.7,251.1 C510.7,251.1 510.2,250.6 509.7,251.6 C509.2,252.6 510.2,266.6 510.2,267.1 C510.2,267.6 509.2,267.1 509.7,268.6 C510.2,270.1 511.2,271 511.6,270.1 C512.1,269.1 511.6,267.7 511.6,267.7 L516.4,267.7 C516.4,267.7 515.9,270.1 517.4,270.1 C518.9,270.1 519.3,269.6 519.3,268.6 C519.3,267.6 520.3,267.1 520.3,267.1 C520.3,267.1 520.3,255 519.8,253.5 C519.3,252 518.8,250.6 517.4,250.6 C515.9,250.6 511.6,251.1 511.6,251.1" id="Shape"></path>
            <path d="M461.4,205.5 C460.4,205.5 458.5,205.5 458,206.5 C457.5,207.5 457.5,210.4 458,211.3 C458.5,212.3 459.5,214.2 460.9,214.2 C462.4,214.2 464.8,212.7 464.8,211.3 C464.8,209.8 464.8,208.4 463.8,207.4 C462.8,206.4 459.9,206.4 459.9,206.4" id="Shape"></path>
            <path d="M465.3,211.3 C466.3,211.3 471.1,214.2 471.1,216.1 C471.1,218 471.1,223.9 471.1,225.8 C471.1,227.7 472.1,232.1 472.6,234 C473.1,235.9 473.6,238.4 473.1,238.8 C472.6,239.3 472.6,239.8 472.6,241.2 C472.6,242.6 472.1,238.3 472.6,244.1 C473.1,249.9 474.5,260.1 474.5,261.6 C474.5,263.1 476.4,267.9 476,268.9 C475.5,269.9 475,270.4 473.6,270.8 C472.1,271.3 467.8,272.3 468.8,271.3 C469.8,270.3 471.2,269.8 471.2,267.9 C471.2,266 469.3,259.7 468.3,258.7 C467.3,257.7 468.3,267.4 467.8,268.4 C467.3,269.4 465.4,270.3 464.4,269.9 C463.4,269.5 461.5,268.9 462,268.4 C462.5,267.9 463.9,267.4 464.4,265.5 C464.9,263.6 464.9,248.5 464.4,246.6 C463.9,244.7 461.5,239.3 461.5,239.3 C461.5,239.3 461,239.8 459.6,239.3 C458.1,238.8 457.2,237.8 458.1,236.4 C459,235 460,234 460.5,233 C461,232 459.5,219.4 460,218 C460.5,216.5 461.9,215.6 461.5,214.6" id="Shape"></path>
            <path d="M459.5,239.4 C459.5,239.9 459,247.6 458.5,248.1 C458,248.6 454.1,247.1 452.7,248.1 C451.2,249.1 448.3,259.2 448.8,262.2 C449.3,265.1 449.8,265.1 450.7,266.6 C451.6,268.1 451.2,268.5 451.7,269.5 C452.2,270.5 452.7,271 453.2,269.5 C453.7,268 457.1,268 457.1,268 C457.1,268 455.6,269.9 457.1,269.9 C458.6,269.9 459.5,268.4 459,267.5 C458.5,266.5 457.5,265.1 458,263.6 C458.5,262.1 459.9,262.1 459.9,259.2 C459.9,256.3 459.9,249.5 459.4,249 C458.9,248.5 458.9,248.5 458.9,248.5" id="Shape"></path>
            <path d="M431.1,199.2 C429.6,199.2 427.7,200.2 427.2,201.6 C426.7,203.1 426.2,207.4 427.2,207.9 C428.2,208.4 429.6,208.9 430.6,207.4 C431.6,205.9 432.5,203.5 432.5,202.1 C432.5,200.6 431,199.7 431,199.7" id="Shape"></path>
            <path d="M429.4,223.6 C429.9,223.1 429.2,232.1 430.7,233.6 C432.2,235.1 433.6,235.5 434.1,238.9 C434.6,242.3 435.1,241.8 435.6,250.5 C436.1,259.2 438,264.6 437.5,266 C437,267.5 434.6,268.4 433.6,269.4 C432.6,270.4 438.9,270.9 439.4,269.9 C439.9,268.9 438.9,264.6 438.9,264.6 C438.9,264.6 437.4,247.6 437,245.2 C436.5,242.8 436.5,243.7 436.5,235 C436.5,226.3 438,220 438,217.1 C438,214.2 437.5,211.3 436.5,209.8 C435.5,208.3 434.1,207.9 433.1,207.4" id="Shape"></path>
            <path d="M429.4,209.7 C429.4,209.7 428.3,213.7 428.4,214.7 C428.5,216.3 429.8,227 429.4,224.7" id="Shape"></path>
            <path d="M428.4,211.7 C428.4,211.7 429.4,216.7 426.4,217.7 C423.4,218.7 411.4,213.7 410.4,213.7" id="Shape"></path>
            <path d="M435.4,208.7 C436.9,209.2 439.9,211.3 440.4,214.7 C440.9,218.1 441.4,221 441.4,221.5 C441.4,222 443.8,221 443.8,223 C443.8,224.9 446.7,231.7 445.7,232.7 C444.7,233.7 437.5,234.6 436.5,234.2" id="Shape"></path>
            <path d="M432.1,234.6 C432.1,237.5 431.6,256.9 432.1,259.8 C432.6,262.7 433.1,265.6 432.6,267.1 C432.1,268.6 428.2,268.6 428.2,269.5 C428.2,270.4 430.1,270.5 432.1,270 C434,269.5 433.3,269.5 433.3,268.5" id="Shape"></path>
            <path d="M566.3,101.3 C567.3,101.3 569.2,101.3 569.7,102.3 C570.2,103.3 570.2,106.2 569.7,107.2 C569.2,108.2 568.2,110.1 566.8,110.1 C565.3,110.1 562.9,108.6 562.9,107.2 C562.9,105.7 562.9,104.3 563.9,103.3 C564.9,102.3 567.8,102.3 567.8,102.3" id="Shape"></path>
            <path d="M562.4,107.2 C561.4,107.2 556.6,110.1 556.6,112.1 C556.6,114.1 556.6,119.9 556.6,121.8 C556.6,123.7 555.6,128.1 555.1,130.1 C554.6,132.1 554.1,134.5 554.6,135 C555.1,135.5 555.1,136 555.1,137.4 C555.1,138.8 555.6,134.5 555.1,140.3 C554.6,146.1 553.2,156.3 553.2,157.8 C553.2,159.3 551.3,164.1 551.7,165.1 C552.2,166.1 552.7,166.6 554.1,167 C555.6,167.5 559.9,168.5 559,167.5 C558.1,166.5 556.6,166 556.6,164.1 C556.6,162.2 558.5,155.8 559.5,154.9 C560.5,153.9 559.5,163.7 560,164.6 C560.5,165.6 562.4,166.5 563.4,166.1 C564.4,165.7 566.3,165.1 565.8,164.6 C565.3,164.1 563.9,163.6 563.4,161.7 C562.9,159.8 562.9,144.7 563.4,142.7 C563.9,140.7 566.3,135.4 566.3,135.4 C566.3,135.4 566.8,135.9 568.2,135.4 C569.6,134.9 570.6,133.9 569.7,132.5 C568.7,131 567.8,130.1 567.3,129.1 C566.8,128.1 568.3,115.5 567.8,114 C567.3,112.5 565.9,111.6 566.3,110.6" id="Shape"></path>
            <path d="M568.3,135.4 C568.3,135.9 568.8,143.7 569.3,144.2 C569.8,144.7 573.7,143.2 575.1,144.2 C576.6,145.2 579.5,155.4 579,158.3 C578.5,161.2 578,161.2 577.1,162.7 C576.2,164.2 576.6,164.6 576.1,165.6 C575.6,166.6 575.1,167.1 574.6,165.6 C574.1,164.1 570.7,164.1 570.7,164.1 C570.7,164.1 572.2,166 570.7,166 C569.2,166 568.3,164.5 568.8,163.6 C569.3,162.6 570.3,161.2 569.8,159.7 C569.3,158.2 567.9,158.2 567.9,155.3 C567.9,152.4 567.9,145.6 568.4,145.1 C568.9,144.6 568.9,144.6 568.9,144.6" id="Shape"></path>
            <path d="M462.5,3.3 C461.5,3.3 459.6,3.3 459.1,4.3 C458.6,5.3 458.6,8.2 459.1,9.2 C459.6,10.2 460.6,12.1 462,12.1 C463.4,12.1 465.9,10.6 465.9,9.2 C465.9,7.8 465.9,6.3 464.9,5.3 C463.9,4.3 461,4.3 461,4.3" id="Shape"></path>
            <path d="M466.4,9.2 C467.4,9.2 472.2,12.1 472.2,14.1 C472.2,16.1 472.2,21.9 472.2,23.8 C472.2,25.7 473.2,30.1 473.7,32.1 C474.2,34 474.7,36.5 474.2,37 C473.7,37.5 473.7,38 473.7,39.4 C473.7,40.9 473.2,36.5 473.7,42.3 C474.2,48.1 475.6,58.3 475.6,59.8 C475.6,61.3 477.5,66.1 477.1,67.1 C476.7,68.1 476.1,68.6 474.7,69 C473.2,69.5 468.9,70.5 469.8,69.5 C470.8,68.5 472.2,68 472.2,66.1 C472.2,64.2 470.3,57.8 469.3,56.9 C468.3,56 469.3,65.7 468.8,66.6 C468.3,67.6 466.4,68.5 465.4,68.1 C464.4,67.6 462.5,67.1 463,66.6 C463.5,66.1 464.9,65.6 465.4,63.7 C465.9,61.8 465.9,46.7 465.4,44.7 C464.9,42.8 462.5,37.4 462.5,37.4 C462.5,37.4 462,37.9 460.6,37.4 C459.2,36.9 458.2,35.9 459.1,34.5 C460.1,33 461,32.1 461.5,31.1 C462,30.1 460.5,17.5 461,16 C461.5,14.5 462.9,13.6 462.5,12.6" id="Shape"></path>
            <path d="M460.5,37.4 C460.5,37.9 460,45.7 459.5,46.2 C459,46.7 455.1,45.2 453.7,46.2 C452.2,47.2 449.3,57.4 449.8,60.3 C450.3,63.2 450.8,63.2 451.7,64.7 C452.7,66.2 452.2,66.6 452.7,67.6 C453.2,68.6 453.7,69.1 454.2,67.6 C454.7,66.1 458.1,66.1 458.1,66.1 C458.1,66.1 456.6,68 458.1,68 C459.6,68 460.5,66.5 460,65.6 C459.5,64.6 458.5,63.2 459,61.7 C459.5,60.2 460.9,60.2 460.9,57.3 C460.9,54.4 460.9,47.6 460.4,47.1 C459.9,46.6 459.9,46.6 459.9,46.6" id="Shape"></path>
            <path d="M421.9,9.3 C420.5,9.3 418.7,10.2 418.2,11.6 C417.7,13 417.3,17.2 418.2,17.6 C419.1,18.1 420.5,18.5 421.4,17.1 C422.3,15.7 423.3,13.4 423.3,12 C423.3,10.6 421.9,9.7 421.9,9.7" id="Shape"></path>
            <path d="M420.2,32.7 C420.7,32.2 420,40.9 421.4,42.3 C422.8,43.7 424.2,44.2 424.6,47.4 C425.1,50.6 425.5,50.2 426,58.5 C426.5,66.8 428.3,71.9 427.9,73.3 C427.4,74.7 425.1,75.6 424.2,76.5 C423.3,77.4 429.3,77.9 429.8,77 C430.3,76.1 429.3,71.9 429.3,71.9 C429.3,71.9 427.9,55.7 427.4,53.4 C426.9,51.1 426.9,52 426.9,43.7 C426.9,35.4 428.3,29.3 428.3,26.6 C428.3,23.9 427.8,21 426.9,19.6 C426,18.2 424.6,17.7 423.7,17.3" id="Shape"></path>
            <path d="M420.2,19.3 C420.2,19.3 419.2,23.1 419.2,24.1 C419.3,25.6 420.5,35.9 420.2,33.6" id="Shape"></path>
            <path d="M426,18.4 C427.4,18.9 430.3,20.9 430.8,24.2 C431.3,27.4 431.7,30.2 431.7,30.7 C431.7,31.2 434,30.2 434,32.1 C434,34 436.8,40.4 435.9,41.4 C435,42.3 428,43.3 427.1,42.8" id="Shape"></path>
            <path d="M422.9,43.2 C422.9,46 422.4,64.5 422.9,67.3 C423.4,70.1 423.8,72.9 423.4,74.3 C422.9,75.7 419.2,75.7 419.2,76.6 C419.2,77.5 421.1,77.5 422.9,77.1 C424.8,76.6 424.1,76.6 424.1,75.7" id="Shape"></path>
            <path d="M559.9,5.5 C557.3,5.5 555.2,9.1 555.2,11.4 C555.2,13.7 555.2,15 556.4,15 C557.6,15 557.6,16.2 557.6,17.4 C557.6,18.6 555.2,19.8 555.2,21 C555.2,22.2 554,28.1 554,28.1 C554,28.1 552.8,31.7 552.8,32.8 C552.8,34 555.2,34 555.2,34 C555.2,34 555.2,41.1 555.2,43.5 C555.2,45.9 557.6,58.9 557.6,60.1 C557.6,61.3 563.5,61.3 564.7,61.3 C565.9,61.3 563.5,37.6 562.3,34 C561.1,30.4 562.3,25.7 562.3,23.3 C562.3,20.9 564.7,18.6 562.3,17.4 C559.9,16.2 558.7,16.2 558.7,16.2 L557.5,15 C557.5,15 561.1,13.8 561.1,12.6 C561.1,11.4 563.5,9 562.3,7.9 C561.1,6.7 561.1,5.5 559.9,5.5 Z" id="Shape"></path>
            <path d="M559.3,60.6 C559.3,60.6 560.5,67.7 559.3,67.7 C558.1,67.7 554.6,68.9 555.7,68.9 C556.8,68.9 562.2,68.9 562.2,68.9" id="Shape"></path>
            <path d="M561.8,61.2 C561.8,61.2 562.8,64.2 562.8,66.5 C562.8,68.8 561.6,68.9 561.6,68.9 C561.6,68.9 565.2,71.3 565.2,68.9 C565.2,66.5 564,61.8 564,61.8" id="Shape"></path>
            <path d="M553,33.9 L552.3,52.3 C552.3,52.3 554.7,60.6 553.5,63 C552.3,65.4 552.3,67.7 552.3,67.7 C552.3,67.7 553.5,70.1 552.3,70.1 C551.1,70.1 549.9,67.7 549.9,67.7 L546.3,67.7 C546.3,67.7 548.7,70.1 546.3,70.1 C543.9,70.1 543.9,67.7 543.9,67.7 L542.7,66.5 C542.7,66.5 543.9,53.5 545.1,52.3 C546.3,51.1 552.2,52.3 552.2,52.3" id="Shape"></path>
            <path d="M528.6,2.5 C528.6,2.5 525,2.5 523.9,6.1 C523.9,9.7 525.1,10.8 527.5,12 C531.1,13.2 532.2,10.8 532.2,9.6 C532.2,8.4 531,2.5 527.5,3.7" id="Shape"></path>
            <path d="M526.3,12 C526.3,12 525.1,23.9 526.3,32.1 C526.3,40.4 523.9,46.3 526.3,51.1 C528.7,51.1 528.7,48.7 528.7,46.4 C528.7,44.1 528.7,41.7 529.9,36.9 C531.1,32.1 529.9,27.4 529.9,23.9 C529.9,20.4 529.9,12 529.9,12" id="Shape"></path>
            <path d="M526.3,15.6 C526.3,15.6 525.7,19 522.2,22.5 C518,26.7 518.2,24.3 518.2,25.5" id="Shape"></path>
            <path d="M526.3,51.1 C526.3,51.1 532.2,63 532.2,65.3 C532.2,67.6 533.4,70 533.4,67.7 C533.4,65.3 533.4,64.1 533.4,64.1" id="Shape"></path>
            <path d="M527.1,52.5 C527.1,52.5 528.6,68.9 527.4,68.9 C526.2,68.9 522.7,67.7 523.8,68.9 C525,70.1 529.7,70.1 529.7,68.9" id="Shape"></path>
            <path d="M511.2,0.2 C510,0.2 506.5,0.2 506.5,2.6 C506.5,5 506.5,6.2 508.9,7.3 C511.3,8.5 512.5,6.1 512.5,3.7 C512.5,1.3 511.2,0.2 511.2,0.2 Z" id="Shape"></path>
            <path d="M511.2,7.3 C511.2,7.3 508.8,7.3 508.8,8.5 C508.8,9.7 508.8,10.9 511.2,10.9 C513.6,10.9 513.6,10.9 514.8,13.3 C516,15.7 516.2,23.6 516.2,23.6 C516.2,23.6 516,24 516,26.3 C516,28.7 517.2,35.8 516,35.8 C514.8,35.8 517.2,35.8 518.4,37 C519.6,38.2 520.8,45.3 519.6,46.5 C518.4,47.7 511.3,47.7 510.1,46.5 C508.9,45.3 506.5,39.4 507.7,38.2 C508.9,37 511.3,35.8 511.3,35.8 L513.7,33.4 C513.7,33.4 514.9,28.7 513.7,25.1 C512.5,21.5 512.5,19.2 512.5,19.2 L508.9,28.7 C508.9,28.7 511.3,31.1 511.3,32.3 C511.3,33.5 511.3,34.7 511.3,34.7" id="Shape"></path>
            <path d="M510,46.4 C510,47.6 510,57.1 510,59.4 C510,61.8 511.2,66.5 511.2,67.7 C511.2,68.9 507.6,71.3 506.5,70.1 C505.3,68.9 505.3,67.7 505.3,67.7 C505.3,67.7 507.7,68.9 507.7,66.5 C507.7,64.1 508.9,58.2 507.7,53.5 C506.5,48.8 506.5,36.9 504.2,34.5 C501.9,32.1 500.6,31 501.8,25 C503,19 503,13.1 504.2,10.8 C505.4,8.5 507.8,8.4 508.9,8.4" id="Shape"></path>
            <path d="M493.4,35.7 C493.4,35.7 495.8,38.1 495.8,35.7 C495.8,33.3 502.1,19.7 502.1,18.5" id="Shape"></path>
            <path d="M492.1,35.5 C492.1,35.5 484.7,35.7 484.7,36.9 C484.7,38.1 483.5,48.8 485.9,48.8 C488.3,48.8 497.8,47.6 497.8,46.4 C497.8,45.2 495.4,38.1 495.4,36.9 C495.4,35.7 491.8,35.7 491.8,35.7" id="Shape"></path>
            <path d="M504.1,34.5 C504.1,34.5 504.1,59.1 504.1,61.5 C504.1,63.9 503.1,66.5 503.1,67.7 C503.1,68.9 498.4,67.7 498.4,68.9 C498.4,70.1 503.1,70.1 503.1,70.1" id="Shape"></path>
            <path d="M209.4,207.7 C207.8,207.7 205.7,208.6 205.2,209.8 C204.7,211.1 204.1,214.9 205.2,215.4 C206.3,215.8 207.8,216.3 208.9,215 C210,213.7 211,211.6 211,210.3 C211,209 209.4,208.2 209.4,208.2" id="Shape"></path>
            <path d="M207.5,229.2 C208,228.8 207.3,236.7 208.9,238 C210.5,239.3 212.3,239.7 212.6,242.7 C213,246.9 214.7,253.4 215.7,255.6 C218.9,262.6 221.8,267.4 221.3,268.6 C220.8,269.9 219.6,269.6 218.5,270.5 C217.4,271.4 223.6,271.4 224.1,270.5 C224.6,269.6 223.2,268.6 223.2,268.6 C223.2,268.6 217.2,254.9 216.7,252.8 C216.2,250.7 215.3,247 215.3,239.3 C215.3,231.6 216.9,226 216.9,223.5 C216.9,220.9 216.4,218.4 215.3,217.1 C214.2,215.8 212.7,215.4 211.6,215" id="Shape"></path>
            <path d="M207.5,216.9 C207.5,216.9 206.3,220.4 206.4,221.3 C206.5,222.7 207.9,232.2 207.5,230.1" id="Shape"></path>
            <path d="M214,216 C215.6,216.4 218.9,218.3 219.4,221.3 C219.9,224.3 220.5,226.9 220.5,227.3 C220.5,227.7 223.1,226.9 223.1,228.6 C223.1,230.3 226.3,236.3 225.2,237.2 C224.1,238.1 216.3,238.9 215.2,238.5" id="Shape"></path>
            <path d="M210,239.8 C210,242.4 206.3,265 204.4,267.8 C202.9,270 197.9,268.7 196.9,270.6 C196.5,271.4 203.2,271 205.3,270.6" id="Shape"></path>
            <path d="M283.3,208.8 C283.3,208.8 281,208.8 280.1,209.7 C279.2,210.6 278.7,212.5 280.1,214.3 C281.5,216.2 282.9,217.1 284.7,217.1 C286.6,217.1 287.5,217.6 287.5,215.2 C287.5,212.9 288,212.4 286.6,211 C285.2,209.6 283.4,209.6 282,210.1" id="Shape"></path>
            <path d="M282.9,217.6 C282.9,218.1 280.6,219.9 278.7,221.3 C276.8,222.7 279.2,229.2 279.2,229.7 C279.2,230.2 276,231.6 275.5,232.9 C275,234.3 273.6,236.1 272.7,237.1 C271.8,238 271.8,239.4 272.7,239.4 C273.6,239.4 273.2,238.5 274.1,237.5 C275,236.5 279.7,232.9 279.7,231.9 C279.7,230.9 280.6,234.7 280.2,237.5 C279.7,240.3 278.3,249.6 278.8,252.4 C279.3,255.2 280.2,266.8 280.7,268.2 C281.2,269.6 278.8,269.6 278.4,270.1 C277.9,270.6 281.2,271.5 282.1,271 C283,270.5 282.6,269.6 282.6,267.8 C282.6,266 282.1,259.4 283.1,257.1 C284.1,254.8 285.4,246.9 285.4,246.9 C285.4,246.9 286.3,255.7 286.8,259 C287.3,262.3 287.7,266.9 287.3,267.8 C286.8,268.7 285.4,270.1 285.9,270.6 C286.4,271.1 287.8,271.5 289.1,269.7 C290.4,267.9 291.9,266 291.4,263.2 C290.9,260.4 289.5,255.3 289.1,253 C288.7,250.7 288.4,253.7 288.9,246.8" id="Shape"></path>
            <path d="M294.5,243.1 L295,252.8 C295,252.8 294.5,252.3 294.1,253.3 C293.6,254.2 294.6,267.7 294.6,268.2 C294.6,268.7 293.7,268.2 294.1,269.6 C294.6,271 295.5,271.9 296,271 C296.5,270.1 296,268.7 296,268.7 L300.6,268.7 C300.6,268.7 300.1,271 301.5,271 C302.9,271 303.4,270.5 303.4,269.6 C303.4,268.7 304.3,268.2 304.3,268.2 C304.3,268.2 304.3,256.6 303.8,255.2 C303.3,253.8 302.9,252.4 301.5,252.4 C300.1,252.4 295.9,252.9 295.9,252.9" id="Shape"></path>
            <path d="M285.8,217 C285.8,217 284.8,218.9 286.8,219.9 C288.8,220.9 286.8,228.5 287.8,230.4 C288.8,232.3 289.7,236.1 289.7,239 C289.7,241.9 288.7,246.6 288.7,246.6" id="Shape"></path>
            <path d="M287.7,220.9 C287.7,220.9 291.5,240.9 294.4,243.8" id="Shape"></path>
            <path d="M409.5,211.8 C409.5,211.8 410.5,269.3 410,270.6 C409.5,271.8 363.5,273.1 363,271.8 C362.5,270.6 362.6,249.6 363.6,249.6 C364.6,249.6 393.5,251.6 393.5,251.6 C393.5,251.6 397.5,251.6 399.5,251.6 C400,246.7 400.3,240.9 400.3,238.4 C400.3,235.9 398.8,227.9 399.8,226 C400.8,224.1 405.6,225.4 405.6,225.4 L407.1,224.8 L407.1,213.7 L401.8,213.7 L401.8,211.2 L409.5,211.5" id="Shape"></path>
            <path d="M384.3,199.9 C382.4,200.4 379.5,202.3 379.9,203.8 C380.4,205.3 382.8,209.1 384.7,209.1 C386.6,209.1 388.1,207.6 387.6,205.7 C387.1,203.8 385.2,201.8 383.7,201.3" id="Shape"></path>
            <path d="M400.5,212.7 C396.4,215.3 386,213.2 385.5,211.7 C385,210.2 382.3,218.3 381.9,222.2 C381.4,226.1 379.5,227 382.4,228.5 C385.3,230 392.1,229 393.1,231.9 C394.1,234.8 393.6,239.7 394.6,243.5 C395.6,247.4 396.1,248.3 397,248.8 C397.9,249.3 398.5,249.8 398.5,249.8 L392.7,249.8 C392.7,249.8 393.2,244 392.2,242 C391.2,240.1 389.8,237.6 389.3,235.2 C388.8,232.8 376.7,234.2 375.2,232.3 C373.7,230.4 373.3,230.8 374.2,226 C375.1,221.2 378.1,211 379.5,210 C381,209 382.9,209 382.9,209" id="Shape"></path>
            <path d="M383.5,214.7 C383.5,214.7 383.8,218.8 387.7,220.7 C391.6,222.6 397.5,220.7 401.5,222.6" id="Shape"></path>
            <path d="M373.6,227 C373.1,226 371.7,216.8 370.7,213.4 C369.7,210 369.2,208.6 368.3,210 C367.3,211.5 367.3,222.1 368.3,226 C369.3,229.9 370.2,234.2 372.2,235.7 C374.2,237.2 387.2,237.2 387.2,237.2 L387.2,249.3 L387.7,250.3 L391.1,250.3" id="Shape"></path>
            <path d="M449.9,103.5 C452.5,103.5 454.6,107.1 454.6,109.4 C454.6,111.7 454.6,113 453.4,113 C452.2,113 452.2,114.2 452.2,115.4 C452.2,116.6 454.6,117.8 454.6,119 C454.6,120.2 455.8,126.1 455.8,126.1 C455.8,126.1 457,129.7 457,130.8 C457,131.9 454.6,132 454.6,132 C454.6,132 454.6,139.1 454.6,141.5 C454.6,143.9 452.2,156.9 452.2,158.1 C452.2,159.3 446.3,159.3 445.1,159.3 C443.9,159.3 446.3,135.6 447.5,132 C448.7,128.4 447.5,123.7 447.5,121.3 C447.5,118.9 445.1,116.6 447.5,115.4 C449.9,114.2 451.1,114.2 451.1,114.2 L452.3,113 C452.3,113 448.7,111.8 448.7,110.6 C448.7,109.4 446.3,107 447.5,105.9 C448.7,104.7 448.7,103.5 449.9,103.5 Z" id="Shape"></path>
            <path d="M450.5,158.6 C450.5,158.6 449.3,165.7 450.5,165.7 C451.7,165.7 455.2,166.9 454.1,166.9 C453,166.9 447.6,166.9 447.6,166.9" id="Shape"></path>
            <path d="M448,159.2 C448,159.2 447,162.2 447,164.5 C447,166.8 448.2,166.9 448.2,166.9 C448.2,166.9 444.6,169.3 444.6,166.9 C444.6,164.5 445.8,159.8 445.8,159.8" id="Shape"></path>
            <path d="M456.8,131.9 L457.5,150.3 C457.5,150.3 455.1,158.6 456.3,161 C457.5,163.4 457.5,165.7 457.5,165.7 C457.5,165.7 456.3,168.1 457.5,168.1 C458.7,168.1 459.9,165.7 459.9,165.7 L463.5,165.7 C463.5,165.7 461.1,168.1 463.5,168.1 C465.9,168.1 465.9,165.7 465.9,165.7 L467.1,164.5 C467.1,164.5 465.9,151.5 464.7,150.3 C463.5,149.1 457.6,150.3 457.6,150.3" id="Shape"></path>
            <path d="M481.2,100.5 C481.2,100.5 484.8,100.5 485.9,104.1 C485.9,107.7 484.7,108.8 482.3,110 C478.7,111.2 477.6,108.8 477.6,107.6 C477.6,106.4 478.8,100.5 482.3,101.7" id="Shape"></path>
            <path d="M483.5,110 C483.5,110 484.7,121.9 483.5,130.1 C483.5,138.4 485.9,144.3 483.5,149.1 C481.1,149.1 481.1,146.7 481.1,144.4 C481.1,142.1 481.1,139.7 479.9,134.9 C478.7,130.2 479.9,125.4 479.9,121.9 C479.9,118.4 479.9,110 479.9,110" id="Shape"></path>
            <path d="M483.5,113.6 C483.5,113.6 484.1,117 487.6,120.5 C491.8,124.7 491.6,122.3 491.6,123.5" id="Shape"></path>
            <path d="M483.5,149.1 C483.5,149.1 477.6,161 477.6,163.3 C477.6,165.6 476.4,168 476.4,165.7 C476.4,163.4 476.4,162.1 476.4,162.1" id="Shape"></path>
            <path d="M482.7,150.5 C482.7,150.5 481.2,166.9 482.4,166.9 C483.6,166.9 487.1,165.7 486,166.9 C484.9,168.1 480.1,168.1 480.1,166.9" id="Shape"></path>
            <path d="M498.6,98.2 C499.8,98.2 503.3,98.2 503.3,100.6 C503.3,103 503.3,104.2 500.9,105.3 C498.5,106.5 497.3,104.1 497.3,101.7 C497.4,99.3 498.6,98.2 498.6,98.2 Z" id="Shape"></path>
            <path d="M498.6,105.3 C498.6,105.3 501,105.3 501,106.5 C501,107.7 501,108.9 498.6,108.9 C496.2,108.9 496.2,108.9 495,111.3 C493.8,113.7 493.6,121.6 493.6,121.6 C493.6,121.6 493.8,122 493.8,124.3 C493.8,126.7 492.6,133.8 493.8,133.8 C495,133.8 492.6,133.8 491.4,135 C490.2,136.2 489,143.3 490.2,144.5 C491.4,145.7 498.5,145.7 499.7,144.5 C500.9,143.3 503.3,137.4 502.1,136.2 C500.9,135 498.5,133.8 498.5,133.8 L496.1,131.4 C496.1,131.4 494.9,126.7 496.1,123.1 C497.3,119.5 497.3,117.2 497.3,117.2 L500.9,126.7 C500.9,126.7 498.5,129.1 498.5,130.3 C498.5,131.5 498.5,132.7 498.5,132.7" id="Shape"></path>
            <path d="M499.8,144.4 C499.8,145.6 499.8,155.1 499.8,157.4 C499.8,159.8 498.6,164.5 498.6,165.7 C498.6,166.9 502.2,169.3 503.3,168.1 C504.4,166.9 504.5,165.7 504.5,165.7 C504.5,165.7 502.1,166.9 502.1,164.5 C502.1,162.1 500.9,156.2 502.1,151.5 C503.3,146.8 503.3,134.9 505.6,132.5 C507.9,130.1 509.2,129 508,123 C506.8,117.1 506.8,111.1 505.6,108.8 C504.4,106.5 502,106.4 500.9,106.4" id="Shape"></path>
            <path d="M516.4,133.7 C516.4,133.7 514,136.1 514,133.7 C514,131.3 507.7,117.7 507.7,116.5" id="Shape"></path>
            <path d="M517.7,133.5 C517.7,133.5 525.1,133.7 525.1,134.9 C525.1,136.1 526.3,146.8 523.9,146.8 C521.5,146.8 512,145.6 512,144.4 C512,143.2 514.4,136.1 514.4,134.9 C514.4,133.7 518,133.7 518,133.7" id="Shape"></path>
            <path d="M505.7,132.5 C505.7,132.5 505.7,157.1 505.7,159.5 C505.7,161.9 506.7,164.5 506.7,165.7 C506.7,166.9 511.4,165.7 511.4,166.9 C511.4,168.1 506.7,168.1 506.7,168.1" id="Shape"></path>
            <path d="M537,126.6 C535.8,126.6 533.4,127.8 532.3,126.6 C531.1,125.4 531.1,124.2 532.3,121.9 C533.5,119.6 535.9,118.3 537,118.3 C538.1,118.3 539.4,120.7 539.4,121.9 C539.4,123.1 537,125.5 534.7,126.6" id="Shape"></path>
            <path d="M534.5,127.1 C534.5,127.1 530.6,132 529.6,132.4 C528.6,132.8 521.8,132.9 520.8,132.9" id="Shape"></path>
            <path d="M535.5,127.6 C536,127.6 541.8,133.9 541.8,134.9 C541.8,135.9 538.9,141.7 537.4,142.7 C535.9,143.7 537.4,142.2 537.4,140.8 C537.4,139.4 538.9,137.4 538.9,137.4 L537,134.5 L537,141.8 C537,141.8 537,155.9 536.5,158.3 C536,160.7 536,164.1 536,165.6 C536,167.1 531.6,169 531.1,168.5 C530.6,168 532.1,167.5 532.6,166.1 C533.1,164.6 533.1,154.9 532.6,154.4 C532.1,153.9 532.1,163.2 531.1,164.6 C530.1,166 525.8,168 526.2,166.5 C526.7,165 528.6,162.6 528.6,160.7 C528.6,158.8 528.1,151.5 528.6,149 C529.1,146.6 531.5,144.6 531.5,139.8 C531.5,134.9 532,130.6 532,130.6" id="Shape"></path>
            <path d="M417.2,100.8 C417.2,100.8 419.6,100.8 420.6,101.8 C421.6,102.8 422.1,104.7 420.6,106.7 C419.1,108.7 417.7,109.6 415.7,109.6 C413.8,109.6 412.8,110.1 412.8,107.7 C412.8,105.3 412.3,104.8 413.8,103.3 C415.3,101.8 417.2,101.8 418.7,102.3" id="Shape"></path>
            <path d="M417.7,110.1 C417.7,110.6 420.1,112.5 422.1,114 C424,115.5 421.6,122.3 421.6,122.8 C421.6,123.3 425,124.7 425.5,126.2 C426,127.7 427.4,129.6 428.4,130.6 C429.4,131.6 429.4,133 428.4,133 C427.4,133 427.9,132 426.9,131.1 C425.9,130.1 421.1,126.2 421.1,125.3 C421.1,124.3 420.1,128.2 420.6,131.1 C421.1,134 422.5,143.7 422.1,146.7 C421.6,149.6 420.6,161.8 420.2,163.2 C419.7,164.7 422.1,164.7 422.6,165.1 C423.1,165.6 419.7,166.6 418.7,166.1 C417.7,165.6 418.2,164.6 418.2,162.7 C418.2,160.8 418.7,153.9 417.7,151.5 C416.7,149.1 415.3,140.8 415.3,140.8 C415.3,140.8 414.3,150 413.8,153.4 C413.3,156.8 412.8,161.7 413.3,162.6 C413.8,163.6 415.2,165 414.8,165.5 C414.3,166 412.9,166.5 411.4,164.5 C409.9,162.5 408.5,160.6 409,157.7 C409.5,154.8 410.9,149.4 411.4,147 C411.9,144.6 412.1,147.8 411.7,140.5" id="Shape"></path>
            <path d="M405.6,136.8 L405.1,147 C405.1,147 405.6,146.5 406.1,147.5 C406.6,148.5 405.6,162.6 405.6,163.1 C405.6,163.6 406.6,163.1 406.1,164.6 C405.6,166.1 404.6,167 404.2,166.1 C403.7,165.1 404.2,163.7 404.2,163.7 L399.3,163.7 C399.3,163.7 399.8,166.1 398.3,166.1 C396.8,166.1 396.4,165.6 396.4,164.6 C396.4,163.6 395.4,163.1 395.4,163.1 C395.4,163.1 395.4,150.9 395.9,149.5 C396.4,148 396.9,146.6 398.3,146.6 C399.7,146.6 404.1,147.1 404.1,147.1" id="Shape"></path>
            <path d="M414.7,109.5 C414.7,109.5 415.7,111.5 413.7,112.5 C411.7,113.5 413.7,121.5 412.7,123.5 C411.7,125.5 410.7,129.5 410.7,132.5 C410.7,135.5 411.7,140.5 411.7,140.5" id="Shape"></path>
            <path d="M412.7,113.5 C412.7,113.5 408.7,134.5 405.7,137.5" id="Shape"></path>
            <path d="M562.3,204.7 C562.3,204.7 558.8,204.7 557.6,208.2 C557.6,211.7 558.8,212.9 561.1,214.1 C564.6,215.3 565.8,212.9 565.8,211.7 C565.8,210.5 564.6,204.6 561.1,205.8" id="Shape"></path>
            <path d="M559.9,214.2 C559.9,214.2 558.7,226 559.9,234.3 C559.9,242.6 557.5,248.5 559.9,253.2 C562.3,253.2 562.3,250.8 562.3,248.5 C562.3,246.2 562.3,243.8 563.5,239 C564.7,234.3 563.5,229.5 563.5,226 C563.5,222.5 563.5,214.2 563.5,214.2" id="Shape"></path>
            <path d="M559.9,217.7 C559.9,217.7 559.3,221.1 555.8,224.6 C551.6,228.8 551.8,226.4 551.8,227.6" id="Shape"></path>
            <path d="M559.9,253.2 C559.9,253.2 565.8,265 565.8,267.4 C565.8,269.8 567,272.1 567,269.8 C567,267.4 567,266.3 567,266.3" id="Shape"></path>
            <path d="M560.8,254.6 C560.8,254.6 562.3,270.9 561.1,270.9 C559.9,270.9 556.4,269.7 557.6,270.9 C558.8,272.1 563.5,272.1 563.5,270.9" id="Shape"></path>
            <path d="M544.9,202.4 C543.7,202.4 540.2,202.4 540.2,204.8 C540.2,207.2 540.2,208.3 542.6,209.5 C545,210.7 546.1,208.3 546.1,206 C546.1,203.6 544.9,202.4 544.9,202.4 Z" id="Shape"></path>
            <path d="M544.9,209.5 C544.9,209.5 542.5,209.5 542.5,210.7 C542.5,211.9 542.5,213.1 544.9,213.1 C547.3,213.1 547.3,213.1 548.4,215.5 C549.6,217.9 549.8,225.8 549.8,225.8 C549.8,225.8 549.6,226.2 549.6,228.5 C549.6,230.9 550.8,238 549.6,238 C548.4,238 550.8,238 552,239.2 C553.2,240.4 554.4,247.5 553.2,248.7 C552,249.9 544.9,249.9 543.7,248.7 C542.5,247.5 540.2,241.6 541.3,240.4 C542.5,239.2 544.8,238 544.8,238 L547.2,235.6 C547.2,235.6 548.4,230.9 547.2,227.3 C546,223.7 546,221.4 546,221.4 L542.5,230.9 C542.5,230.9 544.9,233.3 544.9,234.4 C544.9,235.6 544.9,236.8 544.9,236.8" id="Shape"></path>
            <path d="M543.7,248.5 C543.7,249.7 543.7,259.1 543.7,261.5 C543.7,263.9 544.9,268.6 544.9,269.8 C544.9,271 541.4,273.3 540.2,272.2 C539,271 539,269.8 539,269.8 C539,269.8 541.4,271 541.4,268.6 C541.4,266.2 542.6,260.3 541.4,255.6 C540.2,250.9 540.2,239 537.9,236.7 C535.5,234.3 534.3,233.2 535.5,227.3 C536.7,221.4 536.7,215.5 537.9,213.1 C539.1,210.7 541.4,210.7 542.6,210.7" id="Shape"></path>
            <path d="M394.9,39.8 C394.9,39.8 390.6,44.1 390.6,47.5 C390.6,50.9 391.5,52.6 393.2,52.6 C394.9,52.6 399.2,50 398.3,47.5 C397.4,44.9 397.4,41.5 396.6,40.7" id="Shape"></path>
            <path d="M395.7,52.6 C395.7,52.6 398.3,74 395.7,78.2 C393.1,82.5 391.4,84.2 390.6,78.2 C389.7,72.2 391.5,57.7 392.3,55.1 C393.1,52.5 388.9,57.7 388,61.1 C387.1,64.5 384.6,76.5 385.4,80.7" id="Shape"></path>
            <path d="M394.9,80.8 C395.8,81.7 394.9,102.2 397.5,104.7 C400.1,107.3 404.3,103.8 404.3,106.4 C404.3,109 400,109 399.2,108.1" id="Shape"></path>
            <path d="M391.4,82.5 C391.4,83.4 388.8,93.6 389.7,97.9 C390.6,102.2 389.7,108.2 388.8,109 C387.9,109.8 387.1,110.7 387.1,108.1" id="Shape"></path>
            <path d="M396.6,57.7 C396.6,58.6 395.7,71.4 399.2,74.8" id="Shape"></path>
            <path d="M399.1,74.8 L400,88.5 L405.1,88.5 C405.1,88.5 407.7,92.8 406.8,97 C405.9,101.2 400,103.8 399.1,101.3 C398.2,98.8 395.7,94.5 396.5,91.9 C397.4,89.3 398.2,89.3 398.2,89.3" id="Shape"></path>
            <path d="M56.3,209.7 C56.3,209.7 53.3,209.7 53.3,212.7 C53.3,215.7 53.3,217.7 54.3,217.7 C55.3,217.7 58.3,216.7 58.3,214.7 C58.3,212.7 57.3,209.7 57.3,208.7" id="Shape"></path>
            <path d="M56.3,217.7 C56.3,217.7 54.6,218.2 56.3,222.7 C56.7,223.7 57.6,224.8 58.3,225.7 C62.3,230.7 66.3,248.6 64.3,250.6 C62.3,252.6 58.3,241.6 57.3,236.6 C56.3,231.6 56.3,222.6 56.3,222.6 C56.3,222.6 57.3,231.6 52.3,232.6 C47.3,233.6 42.3,234.6 42.3,233.6 C42.3,232.6 38.3,266.5 38.3,266.5 C38.3,266.5 20.4,268.5 17.4,267.5 C14.4,266.5 3.4,265.5 2.4,265.5 C1.4,265.5 -0.6,267.5 1.4,269.5 C3.4,271.5 6.4,271.5 6.4,269.5 C6.4,267.5 6.4,266.5 6.4,266.5" id="Shape"></path>
            <path d="M33.4,267.5 C33.4,267.5 31.4,271.5 35.4,271.5 C39.4,271.5 41.4,271.5 40.4,269.5 C39.4,267.5 37.4,266.5 37.4,266.5" id="Shape"></path>
            <path d="M10.5,264.5 L35.4,265.5 L36.4,253.5 C36.4,253.5 14.5,253.5 12.5,254.5 C10.5,255.5 10.5,264.5 10.5,264.5 Z" id="Shape"></path>
            <path d="M12.5,240.6 C12.5,240.6 10.5,251.6 11.5,253.6" id="Shape"></path>
            <path d="M12.5,240.6 C13.5,240.6 33.4,239.6 33.4,240.6 C33.4,241.6 34.4,252.6 34.4,252.6" id="Shape"></path>
            <path d="M26.4,238.6 C26.4,238.6 25.4,233.6 23.4,234.6 C21.4,235.6 19.4,239.6 19.4,239.6" id="Shape"></path>
            <path d="M59.3,247.6 C59.3,249.6 54.3,264.6 54.3,267.5 C54.3,270.5 46.3,266.5 46.3,268.5 C46.3,270.5 53.3,271.5 54.3,270.5" id="Shape"></path>
            <path d="M64.3,251.6 C64.3,251.6 63.3,260.6 66.3,263.6 C69.3,266.6 78.3,266.6 78.3,268.6 C78.3,270.6 73.3,271.6 72.3,270.6 C71.3,269.6 75.3,268.6 75.3,268.6" id="Shape"></path>
            <path d="M133.1,208.7 C133.1,208.7 132.1,208.7 132.1,211.7 C132.1,214.7 133.1,216.7 135.1,215.7 C137.1,214.7 138.1,212.7 137.1,210.7 C136.1,208.7 135.1,208.7 133.1,208.7 Z" id="Shape"></path>
            <path d="M134.1,216.7 C134.1,216.7 130.1,224.7 132.1,231.7 C134.1,238.7 134.1,240.7 134.1,243.7 C134.1,246.7 129.1,257.7 128.1,260.7 C127.1,263.7 130.1,267.7 127.1,268.7 C124.1,269.7 121.1,265.7 120.1,267.7 C119.1,269.7 122.1,271.7 124.1,270.7" id="Shape"></path>
            <path d="M134.1,216.7 C134.1,216.7 138.1,218.7 138.1,225.7 C138.1,232.7 141.1,239.7 138.1,242.7 C135.1,245.7 136.1,246.7 135.1,244.7" id="Shape"></path>
            <path d="M137.1,244.6 C137.1,244.6 140.1,255.6 142.1,259.6 C144.1,263.6 149.1,265.6 149.1,267.6 C149.1,269.6 147.1,272.6 145.1,271.6 C143.1,270.6 145.1,268.6 146.1,267.6" id="Shape"></path>
            <path d="M138.1,224.6 C138.1,224.6 145.1,228.6 146.1,231.6 C147.1,234.6 148.1,237.6 148.1,237.6 L151.1,251.6 C151.1,251.6 147.1,251.6 147.1,254.6 C147.1,257.6 149.1,267.6 151.1,268.6 C153.1,269.6 159.1,268.6 160.1,267.6 C161.1,266.6 156.1,252.6 154.1,251.6" id="Shape"></path>
            <path d="M154.1,269.5 C154.1,269.5 156.1,272.5 157.1,270.5 C158.1,268.5 158.1,268.5 158.1,268.5" id="Shape"></path>
            <path d="M135.1,224.6 C134.1,224.6 134.1,232.6 130.1,236.6 C126.1,240.6 125.1,242.6 124.1,241.6 C123.1,240.6 121.1,244.6 123.1,243.6 C125.1,242.6 126.1,241.6 126.1,241.6" id="Shape"></path>
        </g>
    </g>
</svg>