<?xml version="1.0" encoding="UTF-8"?>
<svg width="4000px" height="320px" viewBox="0 0 4000 320" version="1.1" xmlns="http://www.w3.org/2000/svg" xmlns:xlink="http://www.w3.org/1999/xlink">
    <!-- Generator: Sketch 50.2 (55047) - http://www.bohemiancoding.com/sketch -->
    <title>service og samferdsel</title>
    <desc>Created with Sketch.</desc>
    <defs>
        <rect id="path-1" x="0" y="0" width="4000" height="320"></rect>
    </defs>
    <g id="service-og-samferdsel" stroke="none" stroke-width="1" fill="none" fill-rule="evenodd">
        <g id="service">
            <mask id="mask-2" fill="white">
                <use xlink:href="#path-1"></use>
            </mask>
            <g id="Mask"></g>
            <g id="service-og-samf-01" mask="url(#mask-2)">
                <g transform="translate(-36.000000, 10.000000)">
                    <g id="Layer_52" transform="translate(3543.000000, 17.000000)">
                        <g id="Layer_59" transform="translate(109.000000, 0.000000)" stroke="#FFFFFF">
                            <g id="Layer_73" transform="translate(272.000000, 203.000000)">
                                <path d="M4.9,0.8 C4.9,0.8 2.5,0.8 1.5,1.8 C0.5,2.8 -3.33066907e-16,4.7 1.5,6.7 C3,8.7 4.4,9.6 6.4,9.6 C8.4,9.6 9.3,10.1 9.3,7.7 C9.3,5.3 9.8,4.8 8.3,3.3 C6.8,1.8 4.9,1.8 3.4,2.3" id="Shape"></path>
                            </g>
                            <g id="Layer_74" transform="translate(264.000000, 212.000000)">
                                <path d="M12.4,1.1 C12.4,1.6 10,3.5 8,5 C6.1,6.5 8.5,13.3 8.5,13.8 C8.5,14.3 5.1,15.7 4.6,17.2 C4.1,18.7 2.7,20.6 1.7,21.6 C0.7,22.6 0.7,24 1.7,24 C2.7,24 2.2,23 3.2,22.1 C4.2,21.1 9,17.2 9,16.3 C9,15.3 10,19.2 9.5,22.1 C9,25 7.6,34.7 8,37.7 C8.5,40.6 9.5,52.8 9.9,54.2 C10.4,55.7 8,55.7 7.5,56.1 C7,56.5 10.4,57.6 11.4,57.1 C12.4,56.6 11.9,55.6 11.9,53.7 C11.9,51.8 11.4,44.9 12.4,42.5 C13.4,40.1 14.8,31.8 14.8,31.8 C14.8,31.8 15.8,41 16.3,44.4 C16.8,47.8 17.3,52.7 16.8,53.6 C16.3,54.6 14.9,56 15.3,56.5 C15.8,57 17.2,57.5 18.7,55.5 C20.2,53.6 21.6,51.6 21.1,48.7 C20.6,45.8 19.2,40.4 18.7,38 C18.2,35.6 18.2,32.2 18.7,24.9 C19.2,17.6 17.2,16.6 17.2,12.7 C17.2,8.8 17.2,8.8 17.2,8.8 C17.2,8.8 21.6,26.3 23.5,27.3 C25.4,28.3 26.9,27.8 26.4,26.8 C25.9,25.8 24.5,26.3 24,24.4 C23.5,22.5 20.1,13.7 19.6,11.8 C19.1,9.9 19.1,6.5 18.6,5.5 C18.1,4.5 15.7,3.1 15.2,2.1 C14.7,1.1 14.7,0.6 14.7,0.6" id="Shape"></path>
                            </g>
                            <g id="Layer_75" transform="translate(287.000000, 239.000000)">
                                <path d="M1.6,0.8 L2.1,11 C2.1,11 1.6,10.5 1.1,11.5 C0.6,12.5 1.6,26.6 1.6,27.1 C1.6,27.6 0.6,27.1 1.1,28.6 C1.6,30.1 2.6,31 3,30.1 C3.5,29.1 3,27.7 3,27.7 L7.9,27.7 C7.9,27.7 7.4,30.1 8.9,30.1 C10.4,30.1 10.8,29.6 10.8,28.6 C10.8,27.6 11.8,27.1 11.8,27.1 C11.8,27.1 11.8,14.9 11.3,13.5 C10.8,12 10.3,10.6 8.9,10.6 C7.5,10.6 3.1,11.1 3.1,11.1" id="Shape"></path>
                            </g>
                            <g id="Layer_76" transform="translate(235.000000, 204.000000)">
                                <path d="M4.6,0.3 C3.6,0.3 1.7,0.3 1.2,1.3 C0.7,2.3 0.7,5.2 1.2,6.2 C1.7,7.2 2.7,9.1 4.1,9.1 C5.5,9.1 8,7.6 8,6.2 C8,4.8 8,3.3 7,2.3 C6,1.3 3.1,1.3 3.1,1.3" id="Shape"></path>
                            </g>
                            <g id="Layer_77" transform="translate(235.000000, 210.000000)">
                                <path d="M8.5,0.2 C9.5,0.2 14.3,3.1 14.3,5.1 C14.3,7.1 14.3,12.9 14.3,14.8 C14.3,16.7 15.3,21.1 15.8,23.1 C16.3,25 16.8,27.5 16.3,28 C15.8,28.5 15.8,29 15.8,30.4 C15.8,31.9 15.3,27.5 15.8,33.3 C16.3,39.1 17.7,49.3 17.7,50.8 C17.7,52.3 19.6,57.1 19.2,58.1 C18.7,59.1 18.2,59.6 16.8,60 C15.3,60.5 11,61.5 11.9,60.5 C12.9,59.5 14.3,59 14.3,57.1 C14.3,55.2 12.4,48.8 11.4,47.9 C10.4,46.9 11.4,56.7 10.9,57.6 C10.4,58.6 8.5,59.5 7.5,59.1 C6.5,58.7 4.6,58.1 5.1,57.6 C5.6,57.1 7,56.6 7.5,54.7 C8,52.8 8,37.7 7.5,35.7 C7,33.8 4.6,28.4 4.6,28.4 C4.6,28.4 4.1,28.9 2.7,28.4 C1.3,27.9 0.3,26.9 1.2,25.5 C2.2,24 3.1,23.1 3.6,22.1 C4.1,21.1 2.6,8.5 3.1,7 C3.6,5.5 5,4.6 4.6,3.6" id="Shape"></path>
                            </g>
                            <g id="Layer_78" transform="translate(226.000000, 238.000000)">
                                <path d="M11.7,0.4 C11.7,0.9 11.2,8.7 10.7,9.2 C10.2,9.7 6.3,8.2 4.9,9.2 C3.4,10.2 0.5,20.4 1,23.3 C1.5,26.2 2,26.2 2.9,27.7 C3.8,29.2 3.4,29.6 3.9,30.6 C4.4,31.6 4.9,32.1 5.4,30.6 C5.9,29.1 9.3,29.1 9.3,29.1 C9.3,29.1 7.8,31 9.3,31 C10.8,31 11.7,29.5 11.2,28.6 C10.7,27.6 9.7,26.2 10.2,24.7 C10.7,23.2 12.1,23.2 12.1,20.3 C12.1,17.4 12.1,10.6 11.6,10.1 C11.1,9.6 11.1,9.6 11.1,9.6" id="Shape"></path>
                            </g>
                            <g id="Layer_79" transform="translate(204.000000, 198.000000)">
                                <path d="M5.2,0 C3.7,0 1.8,1 1.3,2.4 C0.8,3.9 0.3,8.2 1.3,8.7 C2.3,9.2 3.7,9.7 4.7,8.2 C5.7,6.7 6.6,4.3 6.6,2.9 C6.6,1.5 5.1,0.5 5.1,0.5" id="Shape"></path>
                            </g>
                            <g id="Layer_80" transform="translate(207.000000, 206.000000)">
                                <path d="M0.5,16.5 C1,16 0.3,25.1 1.8,26.5 C3.3,28 4.7,28.4 5.2,31.8 C5.7,35.2 6.2,34.7 6.7,43.5 C7.2,52.3 9.1,57.6 8.6,59.1 C8.1,60.6 5.7,61.5 4.7,62.5 C3.7,63.5 10,64 10.5,63 C11,62 10,57.7 10,57.7 C10,57.7 8.5,40.7 8.1,38.3 C7.6,35.9 7.6,36.8 7.6,28.1 C7.6,19.4 9.1,13 9.1,10.1 C9.1,7.2 8.6,4.3 7.6,2.8 C6.6,1.3 5.2,0.9 4.2,0.4" id="Shape"></path>
                            </g>
                            <g id="Layer_88" transform="translate(206.000000, 208.000000)">
                                <path d="M1.5,0.5 C1.5,0.5 0.4,4.5 0.5,5.5 C0.6,7.1 1.9,17.9 1.5,15.5" id="Shape"></path>
                            </g>
                            <g id="Layer_89" transform="translate(188.000000, 210.000000)">
                                <path d="M18.5,0.5 C18.5,0.5 19.5,5.5 16.5,6.5 C13.5,7.5 1.5,2.5 0.5,2.5" id="Shape"></path>
                            </g>
                            <g id="Layer_81" transform="translate(213.000000, 207.000000)">
                                <path d="M0.5,0.5 C2,1 5,3.2 5.5,6.6 C6,10 6.5,12.9 6.5,13.4 C6.5,13.9 8.9,12.9 8.9,14.9 C8.9,16.9 11.8,23.7 10.8,24.6 C9.8,25.6 2.5,26.5 1.6,26.1" id="Shape"></path>
                            </g>
                            <g id="Layer_82">
                                <path d="M210.2,233.5 C210.2,236.4 209.7,255.9 210.2,258.8 C210.7,261.7 211.2,264.6 210.7,266.1 C210.2,267.6 206.3,267.6 206.3,268.5 C206.3,269.4 208.2,269.5 210.2,269 C212.1,268.5 211.5,268.5 211.5,267.5" id="Shape"></path>
                                <path d="M327.3,101.3 C328.3,101.3 330.2,101.3 330.7,102.3 C331.2,103.3 331.2,106.2 330.7,107.2 C330.2,108.2 329.2,110.1 327.8,110.1 C326.3,110.1 323.9,108.6 323.9,107.2 C323.9,105.7 323.9,104.3 324.9,103.3 C325.9,102.3 328.8,102.3 328.8,102.3" id="Shape"></path>
                                <path d="M323.4,107.2 C322.4,107.2 317.6,110.1 317.6,112.1 C317.6,114.1 317.6,119.9 317.6,121.8 C317.6,123.7 316.6,128.1 316.1,130.1 C315.6,132.1 315.1,134.5 315.6,135 C316.1,135.5 316.1,136 316.1,137.4 C316.1,138.8 316.6,134.5 316.1,140.3 C315.6,146.1 314.2,156.3 314.2,157.8 C314.2,159.3 312.3,164.1 312.7,165.1 C313.2,166.1 313.7,166.6 315.1,167 C316.6,167.5 320.9,168.5 320,167.5 C319.1,166.5 317.6,166 317.6,164.1 C317.6,162.2 319.5,155.8 320.5,154.9 C321.5,153.9 320.5,163.7 321,164.6 C321.5,165.6 323.4,166.5 324.4,166.1 C325.4,165.7 327.3,165.1 326.8,164.6 C326.3,164.1 324.9,163.6 324.4,161.7 C323.9,159.8 323.9,144.7 324.4,142.7 C324.9,140.7 327.3,135.4 327.3,135.4 C327.3,135.4 327.8,135.9 329.2,135.4 C330.6,134.9 331.6,133.9 330.7,132.5 C329.7,131 328.8,130.1 328.3,129.1 C327.8,128.1 329.3,115.5 328.8,114 C328.3,112.5 326.9,111.6 327.3,110.6" id="Shape"></path>
                                <path d="M329.3,135.4 C329.3,135.9 329.8,143.7 330.3,144.2 C330.8,144.7 334.7,143.2 336.1,144.2 C337.6,145.2 340.5,155.4 340,158.3 C339.5,161.2 339,161.2 338.1,162.7 C337.2,164.2 337.6,164.6 337.1,165.6 C336.6,166.6 336.1,167.1 335.6,165.6 C335.1,164.1 331.7,164.1 331.7,164.1 C331.7,164.1 333.2,166 331.7,166 C330.2,166 329.3,164.5 329.8,163.6 C330.3,162.6 331.3,161.2 330.8,159.7 C330.3,158.2 328.9,158.2 328.9,155.3 C328.9,152.4 328.9,145.6 329.4,145.1 C329.9,144.6 329.9,144.6 329.9,144.6" id="Shape"></path>
                                <path d="M358.7,98 C360.2,98 362.1,99 362.6,100.4 C363.1,101.9 363.6,106.2 362.6,106.7 C361.6,107.2 360.2,107.7 359.2,106.2 C358.2,104.7 357.3,102.3 357.3,100.9 C357.3,99.4 358.8,98.5 358.8,98.5" id="Shape"></path>
                                <path d="M360.4,122.5 C359.9,122 360.6,131.1 359.1,132.5 C357.6,134 356.2,134.4 355.7,137.8 C355.2,141.2 354.7,140.7 354.2,149.5 C353.7,158.3 351.8,163.6 352.3,165.1 C352.8,166.6 355.2,167.5 356.2,168.5 C357.2,169.5 350.9,170 350.4,169 C349.9,168 350.9,163.7 350.9,163.7 C350.9,163.7 352.4,146.7 352.8,144.3 C353.3,141.9 353.3,142.8 353.3,134.1 C353.3,125.3 351.8,119 351.8,116.1 C351.8,113.2 352.3,110.3 353.3,108.8 C354.3,107.3 355.7,106.9 356.7,106.4" id="Shape"></path>
                                <path d="M360.4,108.5 C360.4,108.5 361.5,112.5 361.4,113.5 C361.3,115.1 360,125.9 360.4,123.5" id="Shape"></path>
                                <path d="M361.4,114.5 C361.4,114.5 360.4,121.5 363.4,122.5" id="Shape"></path>
                                <path d="M354.4,107.5 C352.9,108 349.9,110.2 349.4,113.6 C348.9,117 348.4,119.9 348.4,120.4 C348.4,120.9 346,119.9 346,121.9 C346,123.9 343.1,130.7 344.1,131.6 C345.1,132.6 352.4,133.5 353.3,133.1" id="Shape"></path>
                                <path d="M357.7,133.5 C357.7,136.4 358.2,155.9 357.7,158.8 C357.2,161.7 356.7,164.6 357.2,166.1 C357.7,167.6 361.6,167.6 361.6,168.5 C361.6,169.5 359.7,169.5 357.7,169 C355.8,168.5 356.4,168.5 356.4,167.5" id="Shape"></path>
                                <path d="M210.5,3.3 C209.5,3.3 207.6,3.3 207.1,4.3 C206.6,5.3 206.6,8.2 207.1,9.2 C207.6,10.2 208.6,12.1 210,12.1 C211.4,12.1 213.9,10.6 213.9,9.2 C213.9,7.8 213.9,6.3 212.9,5.3 C211.9,4.3 209,4.3 209,4.3" id="Shape"></path>
                                <path d="M214.4,9.2 C215.4,9.2 220.2,12.1 220.2,14.1 C220.2,16.1 220.2,21.9 220.2,23.8 C220.2,25.7 221.2,30.1 221.7,32.1 C222.2,34 222.7,36.5 222.2,37 C221.7,37.5 221.7,38 221.7,39.4 C221.7,40.9 221.2,36.5 221.7,42.3 C222.2,48.1 223.6,58.3 223.6,59.8 C223.6,61.3 225.5,66.1 225.1,67.1 C224.7,68.1 224.1,68.6 222.7,69 C221.2,69.5 216.9,70.5 217.8,69.5 C218.8,68.5 220.2,68 220.2,66.1 C220.2,64.2 218.3,57.8 217.3,56.9 C216.3,56 217.3,65.7 216.8,66.6 C216.3,67.6 214.4,68.5 213.4,68.1 C212.4,67.6 210.5,67.1 211,66.6 C211.5,66.1 212.9,65.6 213.4,63.7 C213.9,61.8 213.9,46.7 213.4,44.7 C212.9,42.8 210.5,37.4 210.5,37.4 C210.5,37.4 210,37.9 208.6,37.4 C207.2,36.9 206.2,35.9 207.1,34.5 C208.1,33 209,32.1 209.5,31.1 C210,30.1 208.5,17.5 209,16 C209.5,14.5 210.9,13.6 210.5,12.6" id="Shape"></path>
                                <path d="M208.5,37.4 C208.5,37.9 208,45.7 207.5,46.2 C207,46.7 203.1,45.2 201.7,46.2 C200.2,47.2 197.3,57.4 197.8,60.3 C198.3,63.2 198.8,63.2 199.7,64.7 C200.7,66.2 200.2,66.6 200.7,67.6 C201.2,68.6 201.7,69.1 202.2,67.6 C202.7,66.1 206.1,66.1 206.1,66.1 C206.1,66.1 204.6,68 206.1,68 C207.6,68 208.5,66.5 208,65.6 C207.5,64.6 206.5,63.2 207,61.7 C207.5,60.2 208.9,60.2 208.9,57.3 C208.9,54.4 208.9,47.6 208.4,47.1 C207.9,46.6 207.9,46.6 207.9,46.6" id="Shape"></path>
                                <path d="M169.9,9.3 C168.5,9.3 166.7,10.2 166.2,11.6 C165.7,13 165.3,17.2 166.2,17.6 C167.1,18.1 168.5,18.5 169.4,17.1 C170.3,15.7 171.3,13.4 171.3,12 C171.3,10.6 169.9,9.7 169.9,9.7" id="Shape"></path>
                                <path d="M168.2,32.7 C168.7,32.2 168,40.9 169.4,42.3 C170.8,43.7 172.2,44.2 172.6,47.4 C173.1,50.6 173.5,50.2 174,58.5 C174.5,66.8 176.3,71.9 175.9,73.3 C175.4,74.7 173.1,75.6 172.2,76.5 C171.3,77.4 177.3,77.9 177.8,77 C178.3,76.1 177.3,71.9 177.3,71.9 C177.3,71.9 175.9,55.7 175.4,53.4 C174.9,51.1 174.9,52 174.9,43.7 C174.9,35.4 176.3,29.3 176.3,26.6 C176.3,23.9 175.8,21 174.9,19.6 C174,18.2 172.6,17.7 171.7,17.3" id="Shape"></path>
                                <path d="M168.2,19.3 C168.2,19.3 167.2,23.1 167.2,24.1 C167.3,25.6 168.5,35.9 168.2,33.6" id="Shape"></path>
                                <path d="M174,18.4 C175.4,18.9 178.3,20.9 178.8,24.2 C179.3,27.4 179.7,30.2 179.7,30.7 C179.7,31.2 182,30.2 182,32.1 C182,34 184.8,40.4 183.9,41.4 C183,42.3 176,43.3 175.1,42.8" id="Shape"></path>
                                <path d="M170.9,43.2 C170.9,46 170.4,64.5 170.9,67.3 C171.4,70.1 171.8,72.9 171.4,74.3 C170.9,75.7 167.2,75.7 167.2,76.6 C167.2,77.5 169.1,77.5 170.9,77.1 C172.8,76.6 172.1,76.6 172.1,75.7" id="Shape"></path>
                                <path d="M307.9,5.5 C305.3,5.5 303.2,9.1 303.2,11.4 C303.2,13.7 303.2,15 304.4,15 C305.6,15 305.6,16.2 305.6,17.4 C305.6,18.6 303.2,19.8 303.2,21 C303.2,22.2 302,28.1 302,28.1 C302,28.1 300.8,31.7 300.8,32.8 C300.8,34 303.2,34 303.2,34 C303.2,34 303.2,41.1 303.2,43.5 C303.2,45.9 305.6,58.9 305.6,60.1 C305.6,61.3 311.5,61.3 312.7,61.3 C313.9,61.3 311.5,37.6 310.3,34 C309.1,30.4 310.3,25.7 310.3,23.3 C310.3,20.9 312.7,18.6 310.3,17.4 C307.9,16.2 306.7,16.2 306.7,16.2 L305.5,15 C305.5,15 309.1,13.8 309.1,12.6 C309.1,11.4 311.5,9 310.3,7.9 C309.1,6.7 309.1,5.5 307.9,5.5 Z" id="Shape"></path>
                                <path d="M307.3,60.6 C307.3,60.6 308.5,67.7 307.3,67.7 C306.1,67.7 302.6,68.9 303.7,68.9 C304.8,68.9 310.2,68.9 310.2,68.9" id="Shape"></path>
                                <path d="M309.8,61.2 C309.8,61.2 310.8,64.2 310.8,66.5 C310.8,68.8 309.6,68.9 309.6,68.9 C309.6,68.9 313.2,71.3 313.2,68.9 C313.2,66.5 312,61.8 312,61.8" id="Shape"></path>
                                <path d="M301,33.9 L300.3,52.3 C300.3,52.3 302.7,60.6 301.5,63 C300.3,65.4 300.3,67.7 300.3,67.7 C300.3,67.7 301.5,70.1 300.3,70.1 C299.1,70.1 297.9,67.7 297.9,67.7 L294.3,67.7 C294.3,67.7 296.7,70.1 294.3,70.1 C291.9,70.1 291.9,67.7 291.9,67.7 L290.7,66.5 C290.7,66.5 291.9,53.5 293.1,52.3 C294.3,51.1 300.2,52.3 300.2,52.3" id="Shape"></path>
                                <path d="M276.6,2.5 C276.6,2.5 273,2.5 271.9,6.1 C271.9,9.7 273.1,10.8 275.5,12 C279.1,13.2 280.2,10.8 280.2,9.6 C280.2,8.4 279,2.5 275.5,3.7" id="Shape"></path>
                                <path d="M274.3,12 C274.3,12 273.1,23.9 274.3,32.1 C274.3,40.4 271.9,46.3 274.3,51.1 C276.7,51.1 276.7,48.7 276.7,46.4 C276.7,44.1 276.7,41.7 277.9,36.9 C279.1,32.1 277.9,27.4 277.9,23.9 C277.9,20.4 277.9,12 277.9,12" id="Shape"></path>
                                <path d="M274.3,15.6 C274.3,15.6 273.7,19 270.2,22.5 C266,26.7 266.2,24.3 266.2,25.5" id="Shape"></path>
                                <path d="M274.3,51.1 C274.3,51.1 280.2,63 280.2,65.3 C280.2,67.6 281.4,70 281.4,67.7 C281.4,65.3 281.4,64.1 281.4,64.1" id="Shape"></path>
                                <path d="M275.1,52.5 C275.1,52.5 276.6,68.9 275.4,68.9 C274.2,68.9 270.7,67.7 271.8,68.9 C273,70.1 277.7,70.1 277.7,68.9" id="Shape"></path>
                                <path d="M259.2,0.2 C258,0.2 254.5,0.2 254.5,2.6 C254.5,5 254.5,6.2 256.9,7.3 C259.3,8.5 260.5,6.1 260.5,3.7 C260.5,1.3 259.2,0.2 259.2,0.2 Z" id="Shape"></path>
                                <path d="M259.2,7.3 C259.2,7.3 256.8,7.3 256.8,8.5 C256.8,9.7 256.8,10.9 259.2,10.9 C261.6,10.9 261.6,10.9 262.8,13.3 C264,15.7 264.2,23.6 264.2,23.6 C264.2,23.6 264,24 264,26.3 C264,28.7 265.2,35.8 264,35.8 C262.8,35.8 265.2,35.8 266.4,37 C267.6,38.2 268.8,45.3 267.6,46.5 C266.4,47.7 259.3,47.7 258.1,46.5 C256.9,45.3 254.5,39.4 255.7,38.2 C256.9,37 259.3,35.8 259.3,35.8 L261.7,33.4 C261.7,33.4 262.9,28.7 261.7,25.1 C260.5,21.5 260.5,19.2 260.5,19.2 L256.9,28.7 C256.9,28.7 259.3,31.1 259.3,32.3 C259.3,33.5 259.3,34.7 259.3,34.7" id="Shape"></path>
                                <path d="M258,46.4 C258,47.6 258,57.1 258,59.4 C258,61.8 259.2,66.5 259.2,67.7 C259.2,68.9 255.6,71.3 254.5,70.1 C253.3,68.9 253.3,67.7 253.3,67.7 C253.3,67.7 255.7,68.9 255.7,66.5 C255.7,64.1 256.9,58.2 255.7,53.5 C254.5,48.8 254.5,36.9 252.2,34.5 C249.9,32.1 248.6,31 249.8,25 C251,19 251,13.1 252.2,10.8 C253.4,8.5 255.8,8.4 256.9,8.4" id="Shape"></path>
                                <path d="M241.4,35.7 C241.4,35.7 243.8,38.1 243.8,35.7 C243.8,33.3 250.1,19.7 250.1,18.5" id="Shape"></path>
                                <path d="M240.1,35.5 C240.1,35.5 232.7,35.7 232.7,36.9 C232.7,38.1 231.5,48.8 233.9,48.8 C236.3,48.8 245.8,47.6 245.8,46.4 C245.8,45.2 243.4,38.1 243.4,36.9 C243.4,35.7 239.8,35.7 239.8,35.7" id="Shape"></path>
                                <path d="M252.1,34.5 C252.1,34.5 252.1,59.1 252.1,61.5 C252.1,63.9 251.1,66.5 251.1,67.7 C251.1,68.9 246.4,67.7 246.4,68.9 C246.4,70.1 251.1,70.1 251.1,70.1" id="Shape"></path>
                                <path d="M341.6,6.8 C341.6,6.8 339.2,6.8 338.2,7.8 C337.2,8.8 336.7,10.7 338.2,12.7 C339.7,14.7 341.1,15.6 343.1,15.6 C345,15.6 346,16.1 346,13.7 C346,11.3 346.5,10.8 345,9.3 C343.5,7.8 341.6,7.8 340.1,8.3" id="Shape"></path>
                                <path d="M341.1,16.1 C341.1,16.6 338.7,18.5 336.7,20 C334.8,21.5 337.2,28.3 337.2,28.8 C337.2,29.3 333.8,30.7 333.3,32.2 C332.8,33.7 331.4,35.6 330.4,36.6 C329.4,37.6 329.4,39 330.4,39 C331.4,39 330.9,38 331.9,37.1 C332.9,36.1 337.7,32.2 337.7,31.3 C337.7,30.3 338.7,34.2 338.2,37.1 C337.7,40 336.3,49.7 336.7,52.7 C337.2,55.6 338.2,67.8 338.6,69.2 C339,70.6 336.7,70.7 336.2,71.1 C335.7,71.6 339.1,72.6 340.1,72.1 C341.1,71.6 340.6,70.6 340.6,68.7 C340.6,66.8 340.1,59.9 341.1,57.5 C342.1,55.1 343.5,46.8 343.5,46.8 C343.5,46.8 344.5,56 345,59.4 C345.5,62.8 346,67.7 345.5,68.6 C345,69.5 343.6,71 344,71.5 C344.5,72 345.9,72.5 347.4,70.5 C348.9,68.6 350.3,66.6 349.8,63.7 C349.3,60.8 347.9,55.4 347.4,53 C346.9,50.6 346.7,53.8 347.1,46.5" id="Shape"></path>
                                <path d="M353.2,42.8 L353.7,53 C353.7,53 353.2,52.5 352.7,53.5 C352.2,54.5 353.2,68.6 353.2,69.1 C353.2,69.6 352.2,69.1 352.7,70.6 C353.2,72.1 354.2,73 354.6,72.1 C355.1,71.1 354.6,69.7 354.6,69.7 L359.5,69.7 C359.5,69.7 359,72.1 360.5,72.1 C362,72.1 362.4,71.6 362.4,70.6 C362.4,69.6 363.4,69.1 363.4,69.1 C363.4,69.1 363.4,56.9 362.9,55.5 C362.4,54 361.9,52.6 360.5,52.6 C359.1,52.6 354.7,53.1 354.7,53.1" id="Shape"></path>
                                <path d="M344.1,15.5 C344.1,15.5 343.1,17.5 345.1,18.5 C347.1,19.5 345.1,27.5 346.1,29.5 C347.1,31.5 348.1,35.5 348.1,38.5 C348.1,41.5 347.1,46.5 347.1,46.5" id="Shape"></path>
                                <path d="M346.1,19.5 C346.1,19.5 350.1,40.5 353.1,43.5" id="Shape"></path>
                                <path d="M13,206.5 C11.4,206.5 9.3,207.4 8.8,208.6 C8.3,209.8 7.7,213.7 8.8,214.2 C9.9,214.6 11.4,215.1 12.5,213.8 C13.6,212.5 14.6,210.4 14.6,209.1 C14.6,207.8 13,207 13,207" id="Shape"></path>
                                <path d="M11.1,228.1 C11.6,227.7 10.9,235.7 12.5,236.9 C14.1,238.1 15.9,238.6 16.2,241.6 C16.6,245.8 18.3,252.4 19.3,254.6 C22.5,261.7 25.4,266.4 24.9,267.7 C24.4,269 23.2,268.7 22.1,269.6 C21,270.5 27.2,270.5 27.7,269.6 C28.2,268.7 26.8,267.7 26.8,267.7 C26.8,267.7 20.8,254 20.3,251.8 C19.8,249.7 18.9,245.9 18.9,238.2 C18.9,230.5 20.5,224.9 20.5,222.3 C20.5,219.7 20,217.2 18.9,215.9 C17.8,214.6 16.3,214.2 15.2,213.8" id="Shape"></path>
                                <path d="M11.1,215.7 C11.1,215.7 9.9,219.2 10,220.1 C10.1,221.5 11.5,231 11.1,228.9" id="Shape"></path>
                                <path d="M17.6,214.8 C19.2,215.2 22.5,217.1 23,220.1 C23.5,223.1 24.1,225.7 24.1,226.1 C24.1,226.5 26.7,225.7 26.7,227.4 C26.7,229.1 29.9,235.1 28.8,236 C27.7,236.9 19.8,237.7 18.8,237.3" id="Shape"></path>
                                <path d="M13.6,238.7 C13.6,241.3 9.9,263.9 8,266.7 C6.5,268.9 1.5,267.6 0.5,269.5 C0.1,270.3 6.8,269.9 8.9,269.5" id="Shape"></path>
                                <path d="M76.1,207.6 C76.1,207.6 73.8,207.6 72.8,208.5 C71.8,209.4 71.4,211.3 72.8,213.2 C74.2,215.1 75.6,216 77.5,216 C79.4,216 80.3,216.5 80.3,214.1 C80.3,211.8 80.8,211.3 79.4,209.9 C78,208.5 76.1,208.5 74.7,209" id="Shape"></path>
                                <path d="M75.6,216.4 C75.6,216.9 73.3,218.7 71.4,220.1 C69.5,221.5 71.9,228 71.9,228.5 C71.9,229 68.6,230.4 68.2,231.8 C67.7,233.2 66.3,235.1 65.4,236 C64.5,236.9 64.5,238.3 65.4,238.3 C66.3,238.3 65.9,237.4 66.8,236.4 C67.7,235.4 72.4,231.7 72.4,230.8 C72.4,229.9 73.3,233.6 72.9,236.4 C72.4,239.2 71,248.5 71.5,251.3 C72,254.1 72.9,265.7 73.4,267.1 C73.9,268.5 71.5,268.5 71.1,269 C70.6,269.5 73.9,270.4 74.8,269.9 C75.7,269.4 75.3,268.5 75.3,266.6 C75.3,264.7 74.8,258.2 75.8,255.9 C76.7,253.6 78.1,245.7 78.1,245.7 C78.1,245.7 79,254.5 79.5,257.8 C80,261.1 80.4,265.7 80,266.6 C79.5,267.5 78.1,268.9 78.6,269.4 C79.1,269.9 80.5,270.3 81.9,268.5 C83.3,266.6 84.7,264.8 84.2,262 C83.7,259.2 82.3,254.1 81.9,251.8 C81.4,249.5 81.2,252.5 81.7,245.6" id="Shape"></path>
                                <path d="M87.2,242 L87.7,251.8 C87.7,251.8 87.2,251.3 86.8,252.3 C86.3,253.2 87.3,266.7 87.3,267.2 C87.3,267.7 86.4,267.2 86.8,268.6 C87.3,270 88.2,270.9 88.7,270 C89.2,269.1 88.7,267.7 88.7,267.7 L93.4,267.7 C93.4,267.7 92.9,270 94.3,270 C95.7,270 96.2,269.5 96.2,268.6 C96.2,267.7 97.1,267.2 97.1,267.2 C97.1,267.2 97.1,255.6 96.6,254.2 C96.1,252.8 95.7,251.4 94.3,251.4 C92.9,251.4 88.7,251.9 88.7,251.9" id="Shape"></path>
                                <path d="M78.5,215.9 C78.5,215.9 77.5,217.8 79.5,218.8 C81.4,219.8 79.5,227.4 80.5,229.3 C81.5,231.2 82.4,235 82.4,237.9 C82.4,240.8 81.4,245.6 81.4,245.6" id="Shape"></path>
                                <path d="M80.4,219.7 C80.4,219.7 84.2,239.8 87.1,242.7" id="Shape"></path>
                            </g>
                            <g id="Layer_83" transform="translate(140.000000, 210.000000)">
                                <path d="M47.6,0.6 C47.6,0.6 48.6,58.3 48.1,59.6 C47.6,60.8 1.4,62.1 0.9,60.8 C0.4,59.6 0.5,38.5 1.5,38.5 C2.5,38.5 31.5,40.5 31.5,40.5 C31.5,40.5 35.6,40.5 37.5,40.5 C38,35.5 38.3,29.8 38.3,27.3 C38.3,24.8 36.8,16.8 37.8,14.9 C38.8,13 43.6,14.3 43.6,14.3 L45.1,13.7 L45.1,2.5 L39.8,2.5 L39.8,0 L47.5,0.3" id="Shape"></path>
                            </g>
                            <g id="Layer_84" transform="translate(157.000000, 198.000000)">
                                <path d="M5.3,0.6 C3.4,1.1 0.4,3 0.9,4.5 C1.4,6 3.8,9.8 5.8,9.8 C7.7,9.8 9.2,8.3 8.7,6.4 C8.2,4.5 6.3,2.5 4.8,2" id="Shape"></path>
                            </g>
                            <g id="Layer_85" transform="translate(151.000000, 207.000000)">
                                <path d="M27.5,4.5 C23.3,7.1 13,5 12.5,3.5 C12,2 9.3,10.1 8.8,14 C8.3,17.9 6.4,18.9 9.3,20.3 C12.2,21.8 19,20.8 20,23.7 C21,26.6 20.5,31.5 21.5,35.4 C22.5,39.3 23,40.3 23.9,40.7 C24.9,41.2 25.4,41.7 25.4,41.7 L19.6,41.7 C19.6,41.7 20.1,35.9 19.1,33.9 C18.1,32 16.7,29.5 16.2,27.1 C15.7,24.7 3.6,26.1 2.1,24.2 C0.6,22.3 0.2,22.7 1.1,17.9 C2.1,13 5,2.8 6.4,1.9 C7.9,0.9 9.8,0.9 9.8,0.9" id="Shape"></path>
                            </g>
                            <g id="Layer_86" transform="translate(161.000000, 213.000000)">
                                <path d="M0.5,0.5 C0.5,0.5 0.8,4.6 4.7,6.5 C8.6,8.4 14.5,6.5 18.5,8.5" id="Shape"></path>
                            </g>
                            <g id="Layer_87" transform="translate(145.000000, 208.000000)">
                                <path d="M6.6,17.9 C6.1,16.9 4.7,7.7 3.7,4.3 C2.7,0.9 2.2,-0.6 1.3,0.9 C0.3,2.4 0.3,13.1 1.3,16.9 C2.3,20.8 3.2,25.2 5.2,26.6 C7.1,28.1 20.3,28.1 20.3,28.1 L20.3,40.3 L20.8,41.3 L24.2,41.3" id="Shape"></path>
                            </g>
                            <path d="M210.9,103.5 C213.5,103.5 215.6,107.1 215.6,109.4 C215.6,111.7 215.6,113 214.4,113 C213.2,113 213.2,114.2 213.2,115.4 C213.2,116.6 215.6,117.8 215.6,119 C215.6,120.2 216.8,126.1 216.8,126.1 C216.8,126.1 218,129.7 218,130.8 C218,131.9 215.6,132 215.6,132 C215.6,132 215.6,139.1 215.6,141.5 C215.6,143.9 213.2,156.9 213.2,158.1 C213.2,159.3 207.3,159.3 206.1,159.3 C204.9,159.3 207.3,135.6 208.5,132 C209.7,128.4 208.5,123.7 208.5,121.3 C208.5,118.9 206.1,116.6 208.5,115.4 C210.9,114.2 212.1,114.2 212.1,114.2 L213.3,113 C213.3,113 209.7,111.8 209.7,110.6 C209.7,109.4 207.3,107 208.5,105.9 C209.7,104.7 209.7,103.5 210.9,103.5 Z" id="Shape"></path>
                            <path d="M211.5,158.6 C211.5,158.6 210.3,165.7 211.5,165.7 C212.7,165.7 216.2,166.9 215.1,166.9 C214,166.9 208.6,166.9 208.6,166.9" id="Shape"></path>
                            <path d="M209,159.2 C209,159.2 208,162.2 208,164.5 C208,166.8 209.2,166.9 209.2,166.9 C209.2,166.9 205.6,169.3 205.6,166.9 C205.6,164.5 206.8,159.8 206.8,159.8" id="Shape"></path>
                            <path d="M217.8,131.9 L218.5,150.3 C218.5,150.3 216.1,158.6 217.3,161 C218.5,163.4 218.5,165.7 218.5,165.7 C218.5,165.7 217.3,168.1 218.5,168.1 C219.7,168.1 220.9,165.7 220.9,165.7 L224.5,165.7 C224.5,165.7 222.1,168.1 224.5,168.1 C226.9,168.1 226.9,165.7 226.9,165.7 L228.1,164.5 C228.1,164.5 226.9,151.5 225.7,150.3 C224.5,149.1 218.6,150.3 218.6,150.3" id="Shape"></path>
                            <path d="M242.2,100.5 C242.2,100.5 245.8,100.5 246.9,104.1 C246.9,107.7 245.7,108.8 243.3,110 C239.7,111.2 238.6,108.8 238.6,107.6 C238.6,106.4 239.8,100.5 243.3,101.7" id="Shape"></path>
                            <path d="M244.5,110 C244.5,110 245.7,121.9 244.5,130.1 C244.5,138.4 246.9,144.3 244.5,149.1 C242.1,149.1 242.1,146.7 242.1,144.4 C242.1,142.1 242.1,139.7 240.9,134.9 C239.7,130.2 240.9,125.4 240.9,121.9 C240.9,118.4 240.9,110 240.9,110" id="Shape"></path>
                            <path d="M244.5,113.6 C244.5,113.6 245.1,117 248.6,120.5 C252.8,124.7 252.6,122.3 252.6,123.5" id="Shape"></path>
                            <path d="M244.5,149.1 C244.5,149.1 238.6,161 238.6,163.3 C238.6,165.6 237.4,168 237.4,165.7 C237.4,163.4 237.4,162.1 237.4,162.1" id="Shape"></path>
                            <path d="M243.7,150.5 C243.7,150.5 242.2,166.9 243.4,166.9 C244.6,166.9 248.1,165.7 247,166.9 C245.9,168.1 241.1,168.1 241.1,166.9" id="Shape"></path>
                            <path d="M259.6,98.2 C260.8,98.2 264.3,98.2 264.3,100.6 C264.3,103 264.3,104.2 261.9,105.3 C259.5,106.5 258.3,104.1 258.3,101.7 C258.4,99.3 259.6,98.2 259.6,98.2 Z" id="Shape"></path>
                            <path d="M259.6,105.3 C259.6,105.3 262,105.3 262,106.5 C262,107.7 262,108.9 259.6,108.9 C257.2,108.9 257.2,108.9 256,111.3 C254.8,113.7 254.6,121.6 254.6,121.6 C254.6,121.6 254.8,122 254.8,124.3 C254.8,126.7 253.6,133.8 254.8,133.8 C256,133.8 253.6,133.8 252.4,135 C251.2,136.2 250,143.3 251.2,144.5 C252.4,145.7 259.5,145.7 260.7,144.5 C261.9,143.3 264.3,137.4 263.1,136.2 C261.9,135 259.5,133.8 259.5,133.8 L257.1,131.4 C257.1,131.4 255.9,126.7 257.1,123.1 C258.3,119.5 258.3,117.2 258.3,117.2 L261.9,126.7 C261.9,126.7 259.5,129.1 259.5,130.3 C259.5,131.5 259.5,132.7 259.5,132.7" id="Shape"></path>
                            <path d="M260.8,144.4 C260.8,145.6 260.8,155.1 260.8,157.4 C260.8,159.8 259.6,164.5 259.6,165.7 C259.6,166.9 263.2,169.3 264.3,168.1 C265.4,166.9 265.5,165.7 265.5,165.7 C265.5,165.7 263.1,166.9 263.1,164.5 C263.1,162.1 261.9,156.2 263.1,151.5 C264.3,146.8 264.3,134.9 266.6,132.5 C268.9,130.1 270.2,129 269,123 C267.8,117.1 267.8,111.1 266.6,108.8 C265.4,106.5 263,106.4 261.9,106.4" id="Shape"></path>
                            <path d="M277.4,133.7 C277.4,133.7 275,136.1 275,133.7 C275,131.3 268.7,117.7 268.7,116.5" id="Shape"></path>
                            <path d="M278.7,133.5 C278.7,133.5 286.1,133.7 286.1,134.9 C286.1,136.1 287.3,146.8 284.9,146.8 C282.5,146.8 273,145.6 273,144.4 C273,143.2 275.4,136.1 275.4,134.9 C275.4,133.7 279,133.7 279,133.7" id="Shape"></path>
                            <path d="M266.7,132.5 C266.7,132.5 266.7,157.1 266.7,159.5 C266.7,161.9 267.7,164.5 267.7,165.7 C267.7,166.9 272.4,165.7 272.4,166.9 C272.4,168.1 267.7,168.1 267.7,168.1" id="Shape"></path>
                            <path d="M298,126.6 C296.8,126.6 294.4,127.8 293.3,126.6 C292.1,125.4 292.1,124.2 293.3,121.9 C294.5,119.6 296.9,118.3 298,118.3 C299.1,118.3 300.4,120.7 300.4,121.9 C300.4,123.1 298,125.5 295.7,126.6" id="Shape"></path>
                            <path d="M295.5,127.1 C295.5,127.1 291.6,132 290.6,132.4 C289.6,132.8 282.8,132.9 281.8,132.9" id="Shape"></path>
                            <path d="M296.5,127.6 C297,127.6 302.8,133.9 302.8,134.9 C302.8,135.9 299.9,141.7 298.4,142.7 C296.9,143.7 298.4,142.2 298.4,140.8 C298.4,139.4 299.9,137.4 299.9,137.4 L298,134.5 L298,141.8 C298,141.8 298,155.9 297.5,158.3 C297,160.7 297,164.1 297,165.6 C297,167.1 292.6,169 292.1,168.5 C291.6,168 293.1,167.5 293.6,166.1 C294.1,164.6 294.1,154.9 293.6,154.4 C293.1,153.9 293.1,163.2 292.1,164.6 C291.1,166 286.8,168 287.2,166.5 C287.7,165 289.6,162.6 289.6,160.7 C289.6,158.8 289.1,151.5 289.6,149 C290.1,146.6 292.5,144.6 292.5,139.8 C292.5,134.9 293,130.6 293,130.6" id="Shape"></path>
                            <path d="M178.2,100.8 C178.2,100.8 180.6,100.8 181.6,101.8 C182.6,102.8 183.1,104.7 181.6,106.7 C180.1,108.7 178.7,109.6 176.7,109.6 C174.8,109.6 173.8,110.1 173.8,107.7 C173.8,105.3 173.3,104.8 174.8,103.3 C176.3,101.8 178.2,101.8 179.7,102.3" id="Shape"></path>
                            <path d="M178.7,110.1 C178.7,110.6 181.1,112.5 183.1,114 C185,115.5 182.6,122.3 182.6,122.8 C182.6,123.3 186,124.7 186.5,126.2 C187,127.7 188.4,129.6 189.4,130.6 C190.4,131.6 190.4,133 189.4,133 C188.4,133 188.9,132 187.9,131.1 C186.9,130.1 182.1,126.2 182.1,125.3 C182.1,124.3 181.1,128.2 181.6,131.1 C182.1,134 183.5,143.7 183.1,146.7 C182.6,149.6 181.6,161.8 181.2,163.2 C180.7,164.7 183.1,164.7 183.6,165.1 C184.1,165.6 180.7,166.6 179.7,166.1 C178.7,165.6 179.2,164.6 179.2,162.7 C179.2,160.8 179.7,153.9 178.7,151.5 C177.7,149.1 176.3,140.8 176.3,140.8 C176.3,140.8 175.3,150 174.8,153.4 C174.3,156.8 173.8,161.7 174.3,162.6 C174.8,163.6 176.2,165 175.8,165.5 C175.3,166 173.9,166.5 172.4,164.5 C170.9,162.5 169.5,160.6 170,157.7 C170.5,154.8 171.9,149.4 172.4,147 C172.9,144.6 173.1,147.8 172.7,140.5" id="Shape"></path>
                            <path d="M166.6,136.8 L166.1,147 C166.1,147 166.6,146.5 167.1,147.5 C167.6,148.5 166.6,162.6 166.6,163.1 C166.6,163.6 167.6,163.1 167.1,164.6 C166.6,166.1 165.6,167 165.2,166.1 C164.7,165.1 165.2,163.7 165.2,163.7 L160.3,163.7 C160.3,163.7 160.8,166.1 159.3,166.1 C157.8,166.1 157.4,165.6 157.4,164.6 C157.4,163.6 156.4,163.1 156.4,163.1 C156.4,163.1 156.4,150.9 156.9,149.5 C157.4,148 157.9,146.6 159.3,146.6 C160.7,146.6 165.1,147.1 165.1,147.1" id="Shape"></path>
                            <path d="M175.7,109.5 C175.7,109.5 176.7,111.5 174.7,112.5 C172.7,113.5 174.7,121.5 173.7,123.5 C172.7,125.5 171.7,129.5 171.7,132.5 C171.7,135.5 172.7,140.5 172.7,140.5" id="Shape"></path>
                            <path d="M173.7,113.5 C173.7,113.5 169.7,134.5 166.7,137.5" id="Shape"></path>
                            <path d="M340.8,203.5 C340.8,203.5 337.2,203.5 336.1,207.1 C336.1,210.7 337.3,211.8 339.7,213 C343.3,214.2 344.4,211.8 344.4,210.6 C344.4,209.4 343.2,203.5 339.7,204.7" id="Shape"></path>
                            <path d="M338.4,213 C338.4,213 337.2,224.9 338.4,233.1 C338.4,241.4 336,247.3 338.4,252.1 C340.8,252.1 340.8,249.7 340.8,247.4 C340.8,245.1 340.8,242.7 342,237.9 C343.2,233.2 342,228.4 342,224.9 C342,221.4 342,213 342,213" id="Shape"></path>
                            <path d="M338.4,216.6 C338.4,216.6 337.8,220 334.3,223.5 C330.1,227.7 330.3,225.3 330.3,226.5" id="Shape"></path>
                            <path d="M338.4,252.1 C338.4,252.1 344.3,264 344.3,266.3 C344.3,268.7 345.5,271 345.5,268.7 C345.5,266.4 345.5,265.1 345.5,265.1" id="Shape"></path>
                            <path d="M339.3,253.5 C339.3,253.5 340.8,269.9 339.6,269.9 C338.4,269.9 334.9,268.7 336,269.9 C337.2,271.1 341.9,271.1 341.9,269.9" id="Shape"></path>
                            <path d="M323.4,201.2 C322.2,201.2 318.7,201.2 318.7,203.6 C318.7,206 318.7,207.2 321.1,208.3 C323.5,209.4 324.7,207.1 324.7,204.7 C324.7,202.3 323.4,201.2 323.4,201.2 Z" id="Shape"></path>
                            <path d="M323.4,208.3 C323.4,208.3 321,208.3 321,209.5 C321,210.7 321,211.9 323.4,211.9 C325.8,211.9 325.8,211.9 327,214.3 C328.2,216.7 328.4,224.6 328.4,224.6 C328.4,224.6 328.2,225 328.2,227.3 C328.2,229.7 329.4,236.8 328.2,236.8 C327,236.8 329.4,236.8 330.6,238 C331.8,239.2 333,246.3 331.8,247.5 C330.6,248.7 323.5,248.7 322.3,247.5 C321.1,246.3 318.7,240.4 319.9,239.2 C321.1,238 323.5,236.8 323.5,236.8 L325.9,234.4 C325.9,234.4 327.1,229.7 325.9,226.1 C324.7,222.5 324.7,220.2 324.7,220.2 L321.1,229.7 C321.1,229.7 323.5,232.1 323.5,233.3 C323.5,234.5 323.5,235.7 323.5,235.7" id="Shape"></path>
                            <path d="M322.2,247.4 C322.2,248.6 322.2,258.1 322.2,260.4 C322.2,262.7 323.4,267.5 323.4,268.7 C323.4,269.9 319.8,272.3 318.7,271.1 C317.5,269.9 317.5,268.7 317.5,268.7 C317.5,268.7 319.9,269.9 319.9,267.5 C319.9,265.1 321.1,259.2 319.9,254.5 C318.7,249.8 318.7,237.9 316.4,235.5 C314,233.1 312.8,232 314,226 C315.2,220.1 315.2,214.1 316.4,211.8 C317.6,209.4 320,209.4 321.1,209.4" id="Shape"></path>
                        </g>
                    </g>
                    <g id="Layer_90" transform="translate(3795.000000, 59.000000)">
                        <path d="M4.9,0.8 C4.9,0.8 0.6,5.1 0.6,8.5 C0.6,11.9 1.5,13.6 3.2,13.6 C4.9,13.6 9.2,11 8.3,8.5 C7.4,5.9 7.4,2.5 6.6,1.7" id="Shape" stroke="#FFFFFF"></path>
                    </g>
                    <g id="Layer_91" transform="translate(3790.000000, 72.000000)">
                        <path d="M10.7,0.6 C10.7,0.6 13.3,22 10.7,26.2 C8.1,30.5 6.4,32.2 5.6,26.2 C4.7,20.2 6.5,5.7 7.3,3.1 C8.1,0.5 3.9,5.7 3,9.1 C2.1,12.5 -0.4,24.5 0.4,28.7" id="Shape" stroke="#FFFFFF"></path>
                    </g>
                    <g id="Layer_92" transform="translate(3799.000000, 100.000000)">
                        <path d="M0.9,0.8 C1.8,1.7 0.9,22.2 3.5,24.7 C6.1,27.3 10.3,23.8 10.3,26.4 C10.3,29 6,29 5.2,28.1" id="Shape" stroke="#FFFFFF"></path>
                    </g>
                    <g id="Layer_93" transform="translate(3792.000000, 102.000000)">
                        <path d="M4.4,0.5 C4.4,1.4 1.8,11.6 2.7,15.9 C3.6,20.2 2.7,26.2 1.8,27 C0.9,27.9 0.1,28.7 0.1,26.1" id="Shape" stroke="#FFFFFF"></path>
                    </g>
                    <g id="Layer_94" transform="translate(3801.000000, 77.000000)">
                        <path d="M0.6,0.7 C0.6,1.6 -0.3,14.4 3.2,17.8" id="Shape" stroke="#FFFFFF"></path>
                    </g>
                    <g id="Layer_95" transform="translate(3801.000000, 94.000000)">
                        <path d="M3.1,0.8 L4,14.5 L9.1,14.5 C9.1,14.5 11.7,18.8 10.8,23 C9.9,27.2 4,29.8 3.1,27.3 C2.2,24.8 -0.3,20.5 0.5,17.9 C1.4,15.3 2.2,15.3 2.2,15.3" id="Shape" stroke="#FFFFFF"></path>
                    </g>
                    <g id="Layer_43" transform="translate(131.000000, 207.000000)">
                        <g id="Layer_44" stroke="#FFFFFF">
                            <path d="M231,5.7 C229.3,5.7 83.6,5.7 71,7.4 C58.5,9.1 11.2,23.3 6.7,39.8 C2.2,56.3 7.3,55.7 9.5,58 C11.8,60.3 16.9,64.3 11.2,67.7 C5.5,71.1 -1.3,78.5 1.5,78.5 C4.3,78.5 63,78.5 63,78.5 C63,78.5 61.3,85.3 71,85.3 C80.7,85.3 87.5,79 87.5,79 L95.5,78.4 C95.5,78.4 92.1,89.2 102.9,86.4 C113.7,83.6 117.1,78.4 117.1,78.4 C117.1,78.4 220.1,80.1 378.4,79.5 C497.1,79.1 526.4,78.4 536.7,80.1 C540.1,80.7 542.8,86.5 545.2,86.4 C554.9,85.8 558.3,82.4 558.3,80.1 C558.3,77.8 566.8,79 566.8,79 C566.8,79 566.2,84.7 573.6,85.3 C581,85.9 586.7,79.6 586.7,79.6 C586.7,79.6 581,78.5 623.7,78.5 C666.4,78.5 674.4,76.8 674.4,66 C674.4,55.2 676.7,14.8 672.1,9.1 C667.5,3.4 654.5,6.3 645.9,5.1 C637.5,4 231,5.7 231,5.7 Z" id="Shape"></path>
                            <path d="M73.9,7.4 C73.9,7.4 72.8,35.3 64.2,38.7 C55.7,42.1 7.8,40.4 7.8,40.4" id="Shape"></path>
                            <path d="M134.8,24.5 C134.8,30.2 136.5,41 133.1,42.1 C129.7,43.2 113.7,45.5 111.5,42.7 C109.3,39.9 109.2,27.3 110.9,25.6 C112.6,23.9 134.8,24.5 134.8,24.5 Z" id="Shape"></path>
                            <path d="M178.1,26.2 C178.1,27.9 180.4,42.7 177,43.3 C173.6,43.9 153.1,46.7 152,43.3 C150.9,39.9 149.7,25.7 151.4,25.1 C153,24.5 178.1,26.2 178.1,26.2 Z" id="Shape"></path>
                            <path d="M216.8,26.7 C216.8,26.7 218.5,41.5 215.1,42.1 C211.7,42.7 194.6,45.5 192.9,42.7 C191.2,39.9 187.8,26.2 191.2,25.1 C194.6,23.9 216.8,26.7 216.8,26.7 Z" id="Shape"></path>
                            <path d="M256.1,27.3 C256.1,27.3 259.5,40.4 255.5,41.5 C251.5,42.6 232.7,44.3 231.6,40.4 C230.5,36.4 229.3,26.2 232.2,24.5 C235.1,22.8 256.1,27.3 256.1,27.3 Z" id="Shape"></path>
                            <path d="M297.1,26.7 C297.1,26.7 298.8,40.9 296,42.1 C293.2,43.3 273.2,43.8 272.1,42.1 C271,40.4 269.8,25 272.7,23.9 C275.6,22.8 292.1,23.9 292.1,23.9 L297.1,26.7 Z" id="Shape"></path>
                            <path d="M336.3,23.9 L335.7,43.3 L311.8,43.3 C311.8,43.3 311.2,25.1 312.9,23.9 C314.6,22.7 336.3,23.9 336.3,23.9 Z" id="Shape"></path>
                            <path d="M377.3,24.5 C377.3,24.5 380.1,42.1 376.2,42.1 C372.2,42.1 355.7,45.5 354,42.1 C352.3,38.7 349.4,26.7 352.3,25.6 C355.1,24.5 377.3,24.5 377.3,24.5 Z" id="Shape"></path>
                            <path d="M417.2,25.6 C417.2,25.6 417.8,41 415.5,42.1 C413.2,43.2 395,44.4 393.9,41.5 C392.8,38.7 389.9,26.1 392.2,25 C394.4,23.9 417.2,25.6 417.2,25.6 Z" id="Shape"></path>
                            <path d="M456.5,23.9 C456.5,23.9 458.8,42.7 456.5,42.7 C454.2,42.7 433.2,45 432.6,42.1 C432,39.2 429.2,25 434.3,23.9 C439.4,22.8 456.5,23.9 456.5,23.9 Z" id="Shape"></path>
                            <path d="M497.4,25.6 C497.4,25.6 498,43.8 495.7,43.8 C493.4,43.8 476.9,43.8 475.2,42.1 C473.5,40.4 471.8,25.6 474.1,24.5 C476.4,23.3 497.4,25.6 497.4,25.6 Z" id="Shape"></path>
                            <path d="M537.9,25 C537.9,25 539.6,42.1 536.2,42.1 C532.8,42.1 516.8,44.9 515.1,41 C513.4,37 510.5,25.1 514,23.9 C517.5,22.7 537.9,25 537.9,25 Z" id="Shape"></path>
                            <path d="M577.7,23.3 C577.7,23.3 580.5,43.2 577.1,43.2 C573.7,43.2 553.2,44.9 553.2,41.5 C553.2,38.1 550.9,25.6 553.8,24.4 C556.6,23.3 577.7,23.3 577.7,23.3 Z" id="Shape"></path>
                            <path d="M619.3,23.9 L618.2,43.8 C618.2,43.8 596.6,44.4 595.4,42.1 C594.3,39.8 593.1,26.7 595.4,24.5 C597.6,22.2 619.3,23.9 619.3,23.9 Z" id="Shape"></path>
                            <path d="M2805.2,5 C2803.4,5 2652.7,5 2639.8,6.8 C2626.9,8.6 2631.4,71.3 2631.4,71.3 C2631.4,71.3 2627.8,78.3 2637.2,81.9 C2638.2,82.3 2681.5,82 2694,82.9 C2700.7,91.6 2710.9,89.7 2711.3,89.6 C2719,88.2 2721.9,81.9 2721.9,81.9 L2736.3,81.9 C2736.3,81.9 2738.6,93.5 2749.8,90.6 C2761,87.7 2761.4,81.9 2761.4,81.9 C2761.4,81.9 2794.1,82.2 2957.7,81.6 C3080.4,81.2 3110.8,80.5 3121.3,82.2 C3124.8,82.8 3127.6,88.8 3130.1,88.7 C3140.1,88.1 3143.6,84.6 3143.6,82.2 C3143.6,79.8 3152.4,81 3152.4,81 C3152.4,81 3151.8,86.9 3159.5,87.5 C3167.2,88.1 3173,81.6 3173,81.6 C3173,81.6 3167.1,80.4 3211.3,80.4 C3255.4,80.4 3263.7,78.6 3263.7,67.4 C3263.7,56.2 3266.1,14.4 3261.3,8.5 C3256.6,2.6 3243.1,5.6 3234.2,4.4 C3225.5,3.2 2805.2,5 2805.2,5 Z" id="Shape"></path>
                            <path d="M2705.7,24.4 C2705.7,30.3 2707.5,41.5 2703.9,42.6 C2700.4,43.8 2683.9,46.1 2681.5,43.2 C2679.1,40.3 2679.1,27.3 2680.9,25.5 C2682.8,23.8 2705.7,24.4 2705.7,24.4 Z" id="Shape"></path>
                            <path d="M2750.5,26.2 C2750.5,28 2752.9,43.3 2749.3,43.9 C2745.8,44.5 2724.6,47.4 2723.4,43.9 C2722.2,40.4 2721,25.7 2722.8,25.1 C2724.6,24.4 2750.5,26.2 2750.5,26.2 Z" id="Shape"></path>
                            <path d="M2790.5,26.8 C2790.5,26.8 2792.3,42.1 2788.7,42.7 C2785.2,43.3 2767.5,46.2 2765.7,43.3 C2763.9,40.4 2760.4,26.2 2763.9,25.1 C2767.6,23.8 2790.5,26.8 2790.5,26.8 Z" id="Shape"></path>
                            <path d="M2831.1,27.4 C2831.1,27.4 2834.6,40.9 2830.5,42.1 C2826.4,43.3 2807,45 2805.8,40.9 C2804.6,36.8 2803.4,26.2 2806.4,24.4 C2809.3,22.7 2831.1,27.4 2831.1,27.4 Z" id="Shape"></path>
                            <path d="M2873.5,26.8 C2873.5,26.8 2875.3,41.5 2872.3,42.7 C2869.4,43.9 2848.8,44.5 2847.6,42.7 C2846.4,40.9 2845.2,25 2848.2,23.9 C2851.1,22.7 2868.2,23.9 2868.2,23.9 L2873.5,26.8 Z" id="Shape"></path>
                            <path d="M2914.1,23.8 L2913.5,43.8 L2888.8,43.8 C2888.8,43.8 2888.2,25 2890,23.8 C2891.8,22.7 2914.1,23.8 2914.1,23.8 Z" id="Shape"></path>
                            <path d="M2956.5,24.4 C2956.5,24.4 2959.4,42.6 2955.3,42.6 C2951.2,42.6 2934.1,46.1 2932.3,42.6 C2930.5,39.1 2927.6,26.7 2930.5,25.5 C2933.5,24.4 2956.5,24.4 2956.5,24.4 Z" id="Shape"></path>
                            <path d="M2997.7,25.6 C2997.7,25.6 2998.3,41.5 2995.9,42.7 C2993.5,43.9 2974.7,45.1 2973.5,42.1 C2972.3,39.1 2969.4,26.2 2971.7,25 C2974.2,23.8 2997.7,25.6 2997.7,25.6 Z" id="Shape"></path>
                            <path d="M3038.3,23.8 C3038.3,23.8 3040.7,43.2 3038.3,43.2 C3035.9,43.2 3014.2,45.6 3013.6,42.6 C3013,39.7 3010.1,24.9 3015.4,23.8 C3020.7,22.7 3038.3,23.8 3038.3,23.8 Z" id="Shape"></path>
                            <path d="M3080.7,25.6 C3080.7,25.6 3081.3,44.4 3078.9,44.4 C3076.5,44.4 3059.5,44.4 3057.7,42.6 C3055.9,40.8 3054.2,25.5 3056.5,24.4 C3058.9,23.2 3080.7,25.6 3080.7,25.6 Z" id="Shape"></path>
                            <path d="M3122.5,25 C3122.5,25 3124.3,42.7 3120.7,42.7 C3117.2,42.7 3100.7,45.6 3098.9,41.5 C3097.1,37.4 3094.2,25 3097.7,23.8 C3101.3,22.7 3122.5,25 3122.5,25 Z" id="Shape"></path>
                            <path d="M3163.7,23.2 C3163.7,23.2 3166.6,43.8 3163.1,43.8 C3159.6,43.8 3138.4,45.6 3138.4,42 C3138.4,38.4 3136,25.5 3139,24.3 C3141.9,23.2 3163.7,23.2 3163.7,23.2 Z" id="Shape"></path>
                            <path d="M3206.7,23.8 L3205.5,44.4 C3205.5,44.4 3183.1,45 3182,42.6 C3180.8,40.2 3179.6,26.7 3182,24.4 C3184.3,22.1 3206.7,23.8 3206.7,23.8 Z" id="Shape"></path>
                            <path d="M861.9,2 C860.2,2 714.5,2 701.9,3.7 C689.4,5.4 693.8,66.1 693.8,66.1 C693.8,66.1 690.4,72.9 699.4,76.3 C700.3,76.7 742.3,76.4 754.3,77.2 C760.8,85.6 770.6,83.8 771.1,83.7 C778.5,82.4 781.3,76.3 781.3,76.3 L795.3,76.3 C795.3,76.3 797.5,87.5 808.3,84.7 C819.1,81.9 819.5,76.3 819.5,76.3 C819.5,76.3 851.1,76.5 1009.4,76 C1128.1,75.6 1157.4,74.9 1167.7,76.6 C1171.1,77.2 1173.8,83 1176.2,82.9 C1185.9,82.3 1189.3,78.9 1189.3,76.6 C1189.3,74.3 1197.8,75.5 1197.8,75.5 C1197.8,75.5 1197.2,81.2 1204.6,81.8 C1212,82.4 1217.7,76.1 1217.7,76.1 C1217.7,76.1 1212,75 1254.7,75 C1297.4,75 1305.4,73.3 1305.4,62.5 C1305.4,51.7 1307.7,11.3 1303.1,5.6 C1298.5,-0.1 1285.5,2.8 1276.9,1.6 C1268.4,0.3 861.9,2 861.9,2 Z" id="Shape"></path>
                            <path d="M765.7,20.7 C765.7,26.4 767.4,37.2 764,38.3 C760.6,39.4 744.6,41.7 742.4,38.9 C740.1,36.1 740.1,23.5 741.8,21.8 C743.5,20.1 765.7,20.7 765.7,20.7 Z" id="Shape"></path>
                            <path d="M809,22.5 C809,24.2 811.3,39 807.9,39.6 C804.5,40.2 784,43 782.9,39.6 C781.8,36.2 780.6,22 782.3,21.4 C783.9,20.7 809,22.5 809,22.5 Z" id="Shape"></path>
                            <path d="M847.7,23 C847.7,23 849.4,37.8 846,38.4 C842.6,39 825.5,41.8 823.8,39 C822.1,36.2 818.7,22.5 822.1,21.4 C825.5,20.2 847.7,23 847.7,23 Z" id="Shape"></path>
                            <path d="M887,23.6 C887,23.6 890.4,36.7 886.4,37.8 C882.4,38.9 863.6,40.6 862.5,36.7 C861.4,32.8 860.2,22.5 863.1,20.8 C865.9,19 887,23.6 887,23.6 Z" id="Shape"></path>
                            <path d="M928,23 C928,23 929.7,37.2 926.9,38.4 C924.1,39.6 904.1,40.1 903,38.4 C901.9,36.7 900.7,21.3 903.6,20.2 C906.4,19.1 923,20.2 923,20.2 L928,23 Z" id="Shape"></path>
                            <path d="M967.3,20.2 L966.7,39.6 L942.8,39.6 C942.8,39.6 942.2,21.4 943.9,20.2 C945.6,19 967.3,20.2 967.3,20.2 Z" id="Shape"></path>
                            <path d="M1008.2,20.7 C1008.2,20.7 1011,38.3 1007.1,38.3 C1003.2,38.3 986.6,41.7 984.9,38.3 C983.2,34.9 980.3,22.9 983.2,21.8 C986.1,20.7 1008.2,20.7 1008.2,20.7 Z" id="Shape"></path>
                            <path d="M1048.1,21.9 C1048.1,21.9 1048.7,37.3 1046.4,38.4 C1044.1,39.5 1025.9,40.7 1024.8,37.8 C1023.7,35 1020.8,22.4 1023.1,21.3 C1025.3,20.2 1048.1,21.9 1048.1,21.9 Z" id="Shape"></path>
                            <path d="M1087.4,20.2 C1087.4,20.2 1089.7,39 1087.4,39 C1085.1,39 1064.1,41.3 1063.5,38.4 C1062.9,35.6 1060.1,21.3 1065.2,20.2 C1070.3,19 1087.4,20.2 1087.4,20.2 Z" id="Shape"></path>
                            <path d="M1128.4,21.9 C1128.4,21.9 1129,40.1 1126.7,40.1 C1124.4,40.1 1107.9,40.1 1106.2,38.4 C1104.5,36.7 1102.8,21.9 1105.1,20.8 C1107.4,19.7 1128.4,21.9 1128.4,21.9 Z" id="Shape"></path>
                            <path d="M1168.8,21.3 C1168.8,21.3 1170.5,38.4 1167.1,38.4 C1163.7,38.4 1147.7,41.2 1146,37.3 C1144.3,33.3 1141.4,21.4 1144.9,20.2 C1148.3,19 1168.8,21.3 1168.8,21.3 Z" id="Shape"></path>
                            <path d="M1208.6,19.6 C1208.6,19.6 1211.4,39.5 1208,39.5 C1204.6,39.5 1184.1,41.2 1184.1,37.8 C1184.1,34.4 1181.8,21.9 1184.7,20.7 C1187.6,19.6 1208.6,19.6 1208.6,19.6 Z" id="Shape"></path>
                            <path d="M1250.2,20.2 L1249.1,40.1 C1249.1,40.1 1227.5,40.7 1226.3,38.4 C1225.1,36.1 1224,23 1226.3,20.8 C1228.6,18.6 1250.2,20.2 1250.2,20.2 Z" id="Shape"></path>
                            <path d="M2153.3,5 C2151.5,5 2000.8,5 1987.9,6.8 C1975,8.6 1979.5,71.3 1979.5,71.3 C1979.5,71.3 1975.9,78.3 1985.3,81.9 C1986.3,82.3 2029.6,82 2042.1,82.9 C2048.8,91.6 2059,89.7 2059.4,89.6 C2067.1,88.2 2070,81.9 2070,81.9 L2084.4,81.9 C2084.4,81.9 2086.7,93.5 2097.9,90.6 C2109.1,87.7 2109.5,81.9 2109.5,81.9 C2109.5,81.9 2142.2,82.2 2305.8,81.6 C2428.5,81.2 2458.9,80.5 2469.4,82.2 C2472.9,82.8 2475.7,88.8 2478.2,88.7 C2488.2,88.1 2491.7,84.6 2491.7,82.2 C2491.7,79.8 2500.5,81 2500.5,81 C2500.5,81 2499.9,86.9 2507.6,87.5 C2515.3,88.1 2521.1,81.6 2521.1,81.6 C2521.1,81.6 2515.2,80.4 2559.4,80.4 C2603.5,80.4 2611.8,78.6 2611.8,67.4 C2611.8,56.2 2614.2,14.4 2609.4,8.5 C2604.7,2.6 2591.2,5.6 2582.3,4.4 C2573.6,3.2 2153.3,5 2153.3,5 Z" id="Shape"></path>
                            <path d="M2053.8,24.4 C2053.8,30.3 2055.6,41.5 2052,42.6 C2048.5,43.8 2032,46.1 2029.6,43.2 C2027.2,40.3 2027.2,27.3 2029,25.5 C2030.9,23.8 2053.8,24.4 2053.8,24.4 Z" id="Shape"></path>
                            <path d="M2098.6,26.2 C2098.6,28 2101,43.3 2097.4,43.9 C2093.9,44.5 2072.7,47.4 2071.5,43.9 C2070.3,40.4 2069.1,25.7 2070.9,25.1 C2072.7,24.4 2098.6,26.2 2098.6,26.2 Z" id="Shape"></path>
                            <path d="M2138.6,26.8 C2138.6,26.8 2140.4,42.1 2136.8,42.7 C2133.3,43.3 2115.6,46.2 2113.8,43.3 C2112,40.4 2108.5,26.2 2112,25.1 C2115.6,23.8 2138.6,26.8 2138.6,26.8 Z" id="Shape"></path>
                            <path d="M2179.2,27.4 C2179.2,27.4 2182.7,40.9 2178.6,42.1 C2174.5,43.3 2155.1,45 2153.9,40.9 C2152.7,36.8 2151.5,26.2 2154.5,24.4 C2157.4,22.7 2179.2,27.4 2179.2,27.4 Z" id="Shape"></path>
                            <path d="M2221.6,26.8 C2221.6,26.8 2223.4,41.5 2220.4,42.7 C2217.5,43.9 2196.9,44.5 2195.7,42.7 C2194.5,40.9 2193.3,25 2196.3,23.9 C2199.2,22.7 2216.3,23.9 2216.3,23.9 L2221.6,26.8 Z" id="Shape"></path>
                            <path d="M2262.2,23.8 L2261.6,43.8 L2236.9,43.8 C2236.9,43.8 2236.3,25 2238.1,23.8 C2239.8,22.7 2262.2,23.8 2262.2,23.8 Z" id="Shape"></path>
                            <path d="M2304.6,24.4 C2304.6,24.4 2307.5,42.6 2303.4,42.6 C2299.3,42.6 2282.2,46.1 2280.4,42.6 C2278.6,39.1 2275.7,26.7 2278.6,25.5 C2281.6,24.4 2304.6,24.4 2304.6,24.4 Z" id="Shape"></path>
                            <path d="M2345.8,25.6 C2345.8,25.6 2346.4,41.5 2344,42.7 C2341.6,43.9 2322.8,45.1 2321.6,42.1 C2320.4,39.1 2317.5,26.2 2319.8,25 C2322.2,23.8 2345.8,25.6 2345.8,25.6 Z" id="Shape"></path>
                            <path d="M2386.4,23.8 C2386.4,23.8 2388.8,43.2 2386.4,43.2 C2384,43.2 2362.3,45.6 2361.7,42.6 C2361.1,39.7 2358.2,24.9 2363.5,23.8 C2368.8,22.7 2386.4,23.8 2386.4,23.8 Z" id="Shape"></path>
                            <path d="M2428.8,25.6 C2428.8,25.6 2429.4,44.4 2427,44.4 C2424.6,44.4 2407.6,44.4 2405.8,42.6 C2404,40.8 2402.3,25.5 2404.6,24.4 C2407,23.2 2428.8,25.6 2428.8,25.6 Z" id="Shape"></path>
                            <path d="M2470.6,25 C2470.6,25 2472.4,42.7 2468.8,42.7 C2465.3,42.7 2448.8,45.6 2447,41.5 C2445.2,37.4 2442.3,25 2445.8,23.8 C2449.4,22.7 2470.6,25 2470.6,25 Z" id="Shape"></path>
                            <path d="M2511.8,23.2 C2511.8,23.2 2514.7,43.8 2511.2,43.8 C2507.7,43.8 2486.5,45.6 2486.5,42 C2486.5,38.4 2484.1,25.5 2487.1,24.3 C2490,23.2 2511.8,23.2 2511.8,23.2 Z" id="Shape"></path>
                            <path d="M2554.8,23.8 L2553.6,44.4 C2553.6,44.4 2531.2,45 2530.1,42.6 C2528.9,40.2 2527.7,26.7 2530.1,24.4 C2532.4,22.1 2554.8,23.8 2554.8,23.8 Z" id="Shape"></path>
                            <path d="M1499.3,2 C1497.5,2 1346.8,2 1333.9,3.8 C1321,5.6 1325.5,68.3 1325.5,68.3 C1325.5,68.3 1321.9,75.3 1331.3,78.9 C1332.3,79.3 1375.6,79 1388.1,79.9 C1394.8,88.6 1405,86.7 1405.4,86.6 C1413.1,85.2 1416,78.9 1416,78.9 L1430.4,78.9 C1430.4,78.9 1432.7,90.5 1443.9,87.6 C1455.1,84.7 1455.5,78.9 1455.5,78.9 C1455.5,78.9 1488.2,79.2 1651.8,78.6 C1774.5,78.2 1804.9,77.5 1815.4,79.2 C1818.9,79.8 1821.7,85.8 1824.2,85.7 C1834.2,85.1 1837.7,81.6 1837.7,79.2 C1837.7,76.8 1846.5,78 1846.5,78 C1846.5,78 1845.9,83.9 1853.6,84.5 C1861.3,85.1 1867.1,78.6 1867.1,78.6 C1867.1,78.6 1861.2,77.4 1905.4,77.4 C1949.6,77.4 1957.8,75.6 1957.8,64.4 C1957.8,53.2 1960.2,11.4 1955.4,5.5 C1950.7,-0.4 1937.2,2.6 1928.3,1.4 C1919.6,0.2 1499.3,2 1499.3,2 Z" id="Shape"></path>
                            <path d="M1399.8,21.4 C1399.8,27.3 1401.6,38.5 1398,39.6 C1394.5,40.8 1378,43.1 1375.6,40.2 C1373.2,37.3 1373.2,24.3 1375,22.5 C1376.9,20.8 1399.8,21.4 1399.8,21.4 Z" id="Shape"></path>
                            <path d="M1444.6,23.2 C1444.6,25 1447,40.3 1443.4,40.9 C1439.9,41.5 1418.7,44.4 1417.5,40.9 C1416.3,37.4 1415.1,22.7 1416.9,22.1 C1418.7,21.4 1444.6,23.2 1444.6,23.2 Z" id="Shape"></path>
                            <path d="M1484.6,23.8 C1484.6,23.8 1486.4,39.1 1482.8,39.7 C1479.3,40.3 1461.6,43.2 1459.8,40.3 C1458,37.4 1454.5,23.2 1458,22.1 C1461.6,20.8 1484.6,23.8 1484.6,23.8 Z" id="Shape"></path>
                            <path d="M1525.2,24.4 C1525.2,24.4 1528.7,37.9 1524.6,39.1 C1520.5,40.3 1501.1,42 1499.9,37.9 C1498.7,33.8 1497.5,23.2 1500.5,21.4 C1503.5,19.6 1525.2,24.4 1525.2,24.4 Z" id="Shape"></path>
                            <path d="M1567.6,23.8 C1567.6,23.8 1569.4,38.5 1566.4,39.7 C1563.5,40.9 1542.9,41.5 1541.7,39.7 C1540.5,37.9 1539.3,22 1542.3,20.9 C1545.3,19.8 1562.3,20.9 1562.3,20.9 L1567.6,23.8 Z" id="Shape"></path>
                            <path d="M1608.2,20.8 L1607.6,40.8 L1582.9,40.8 C1582.9,40.8 1582.3,22 1584.1,20.8 C1585.8,19.7 1608.2,20.8 1608.2,20.8 Z" id="Shape"></path>
                            <path d="M1650.6,21.4 C1650.6,21.4 1653.5,39.6 1649.4,39.6 C1645.3,39.6 1628.2,43.1 1626.4,39.6 C1624.6,36.1 1621.7,23.7 1624.6,22.5 C1627.5,21.3 1650.6,21.4 1650.6,21.4 Z" id="Shape"></path>
                            <path d="M1691.8,22.6 C1691.8,22.6 1692.4,38.5 1690,39.7 C1687.6,40.9 1668.8,42.1 1667.6,39.1 C1666.4,36.2 1663.5,23.2 1665.8,22 C1668.2,20.8 1691.8,22.6 1691.8,22.6 Z" id="Shape"></path>
                            <path d="M1732.4,20.8 C1732.4,20.8 1734.8,40.2 1732.4,40.2 C1730,40.2 1708.3,42.6 1707.7,39.6 C1707.1,36.7 1704.2,21.9 1709.5,20.8 C1714.7,19.7 1732.4,20.8 1732.4,20.8 Z" id="Shape"></path>
                            <path d="M1774.8,22.6 C1774.8,22.6 1775.4,41.4 1773,41.4 C1770.6,41.4 1753.6,41.4 1751.8,39.6 C1750,37.8 1748.3,22.5 1750.6,21.4 C1753,20.2 1774.8,22.6 1774.8,22.6 Z" id="Shape"></path>
                            <path d="M1816.6,22 C1816.6,22 1818.4,39.7 1814.8,39.7 C1811.2,39.7 1794.8,42.6 1793,38.5 C1791.2,34.4 1788.3,22 1791.8,20.8 C1795.3,19.6 1816.6,22 1816.6,22 Z" id="Shape"></path>
                            <path d="M1857.8,20.2 C1857.8,20.2 1860.7,40.8 1857.2,40.8 C1853.7,40.8 1832.5,42.6 1832.5,39 C1832.5,35.4 1830.1,22.5 1833.1,21.3 C1836,20.2 1857.8,20.2 1857.8,20.2 Z" id="Shape"></path>
                            <path d="M1900.8,20.8 L1899.6,41.4 C1899.6,41.4 1877.2,42 1876.1,39.6 C1874.9,37.2 1873.7,23.7 1876.1,21.4 C1878.4,19.1 1900.8,20.8 1900.8,20.8 Z" id="Shape"></path>
                        </g>
                    </g>
                    <g id="Layer_96" transform="translate(3478.000000, 222.000000)">
                        <g id="Layer_97" transform="translate(53.000000, 0.000000)" stroke="#FFFFFF">
                            <path d="M3.5,1.5 C3.5,1.5 0.5,1.5 0.5,4.5 C0.5,7.5 0.5,9.5 1.5,9.5 C2.5,9.5 5.5,8.5 5.5,6.5 C5.5,4.5 4.5,1.5 4.5,0.5" id="Shape"></path>
                        </g>
                        <g id="Layer_98" transform="translate(0.000000, 9.000000)" stroke="#FFFFFF">
                            <path d="M56.5,0.5 C56.5,0.5 54.7,1 56.5,5.5 C56.9,6.5 57.8,7.6 58.5,8.5 C62.5,13.5 66.5,31.5 64.5,33.5 C62.5,35.5 58.5,24.5 57.5,19.5 C56.5,14.5 56.5,5.5 56.5,5.5 C56.5,5.5 57.5,14.5 52.5,15.5 C47.5,16.5 42.5,17.5 42.5,16.5 C42.5,15.5 38.5,49.5 38.5,49.5 C38.5,49.5 20.5,51.5 17.5,50.5 C14.5,49.5 3.5,48.5 2.5,48.5 C1.5,48.5 -0.5,50.5 1.5,52.5 C3.5,54.5 6.5,54.5 6.5,52.5 C6.5,50.5 6.5,49.5 6.5,49.5" id="Shape"></path>
                        </g>
                        <g id="Layer_99" transform="translate(33.000000, 58.000000)" stroke="#FFFFFF">
                            <path d="M0.5,1.5 C0.5,1.5 -1.5,5.5 2.5,5.5 C6.5,5.5 8.5,5.5 7.5,3.5 C6.5,1.5 4.5,0.5 4.5,0.5" id="Shape"></path>
                        </g>
                        <g id="Layer_100" transform="translate(10.000000, 45.000000)" stroke="#FFFFFF">
                            <path d="M0.5,11.5 L25.5,12.5 L26.5,0.5 C26.5,0.5 4.5,0.5 2.5,1.5 C0.5,2.5 0.5,11.5 0.5,11.5 Z" id="Shape"></path>
                        </g>
                        <g id="Layer_101" transform="translate(11.000000, 32.000000)" stroke="#FFFFFF">
                            <path d="M1.5,0.5 C1.5,0.5 -0.5,11.5 0.5,13.5" id="Shape"></path>
                        </g>
                        <g id="Layer_102" transform="translate(12.000000, 32.000000)" stroke="#FFFFFF">
                            <path d="M0.5,0.5 C1.5,0.5 21.5,-0.5 21.5,0.5 C21.5,1.5 22.5,12.5 22.5,12.5" id="Shape"></path>
                        </g>
                        <g id="Layer_103" transform="translate(19.000000, 26.000000)" stroke="#FFFFFF">
                            <path d="M7.5,4.5 C7.5,4.5 6.5,-0.5 4.5,0.5 C2.5,1.5 0.5,5.5 0.5,5.5" id="Shape"></path>
                        </g>
                        <g id="Layer_104" transform="translate(46.000000, 39.000000)" stroke="#FFFFFF">
                            <path d="M13.5,0.5 C13.5,2.5 8.5,17.5 8.5,20.5 C8.5,23.5 0.5,19.5 0.5,21.5 C0.5,23.5 7.5,24.5 8.5,23.5" id="Shape"></path>
                        </g>
                        <g id="Layer_105" transform="translate(64.000000, 43.000000)" stroke="#FFFFFF">
                            <path d="M0.5,0.5 C0.5,0.5 -0.5,9.5 2.5,12.5 C5.5,15.5 14.5,15.5 14.5,17.5 C14.5,19.5 9.5,20.5 8.5,19.5 C7.5,18.5 11.5,17.5 11.5,17.5" id="Shape"></path>
                        </g>
                    </g>
                    <g id="Layer_107" transform="translate(3585.000000, 224.000000)">
                        <g id="Layer_108" transform="translate(12.000000, 0.000000)" stroke="#FFFFFF">
                            <path d="M1.5,0.5 C1.5,0.5 0.5,0.5 0.5,3.5 C0.5,6.5 1.5,8.5 3.5,7.5 C5.5,6.5 6.5,4.5 5.5,2.5 C4.5,0.5 3.5,0.5 1.5,0.5 Z" id="Shape"></path>
                        </g>
                        <g id="Layer_109" transform="translate(0.000000, 8.000000)" stroke="#FFFFFF">
                            <path d="M14.5,0.5 C14.5,0.5 10.5,8.5 12.5,15.5 C14.5,22.5 14.5,24.5 14.5,27.5 C14.5,30.5 9.5,41.5 8.5,44.5 C7.5,47.5 10.5,51.5 7.5,52.5 C4.5,53.5 1.5,49.5 0.5,51.5 C-0.5,53.5 2.5,55.5 4.5,54.5" id="Shape"></path>
                        </g>
                        <g id="Layer_110" transform="translate(14.000000, 8.000000)" stroke="#FFFFFF">
                            <path d="M0.5,0.5 C0.5,0.5 4.5,2.5 4.5,9.5 C4.5,16.5 7.5,23.5 4.5,26.5 C1.5,29.5 2.5,30.5 1.5,28.5" id="Shape"></path>
                        </g>
                        <g id="Layer_111" transform="translate(17.000000, 36.000000)" stroke="#FFFFFF">
                            <path d="M0.5,0.5 C0.5,0.5 3.5,11.5 5.5,15.5 C7.5,19.5 12.5,21.5 12.5,23.5 C12.5,25.5 10.5,28.5 8.5,27.5 C6.5,26.5 8.5,24.5 9.5,23.5" id="Shape"></path>
                        </g>
                        <g id="Layer_112" transform="translate(18.000000, 16.000000)" stroke="#FFFFFF">
                            <path d="M0.5,0.5 C0.5,0.5 7.5,4.5 8.5,7.5 C9.5,10.5 10.5,13.5 10.5,13.5 L13.5,27.5 C13.5,27.5 9.5,27.5 9.5,30.5 C9.5,33.5 11.5,43.5 13.5,44.5 C15.5,45.5 21.5,44.5 22.5,43.5 C23.5,42.5 18.5,28.5 16.5,27.5" id="Shape"></path>
                        </g>
                        <g id="Layer_113" transform="translate(34.000000, 60.000000)" stroke="#FFFFFF">
                            <path d="M0.5,1.5 C0.5,1.5 2.5,4.5 3.5,2.5 C4.5,0.5 4.5,0.5 4.5,0.5" id="Shape"></path>
                        </g>
                        <g id="Layer_114" transform="translate(2.000000, 16.000000)" stroke="#FFFFFF">
                            <path d="M13.5,0.5 C12.5,0.5 12.5,8.5 8.5,12.5 C4.5,16.5 3.5,18.5 2.5,17.5 C1.5,16.5 -0.5,20.5 1.5,19.5 C3.5,18.5 4.5,17.5 4.5,17.5" id="Shape"></path>
                        </g>
                    </g>
                </g>
            </g>
        </g>
    </g>
</svg>