<?xml version="1.0" encoding="UTF-8"?>
<svg width="4000px" height="320px" viewBox="0 0 4000 320" version="1.1" xmlns="http://www.w3.org/2000/svg" xmlns:xlink="http://www.w3.org/1999/xlink">
    <!-- Generator: Sketch 51.2 (57519) - http://www.bohemiancoding.com/sketch -->
    <title>Tysk</title>
    <desc>Created with Sketch.</desc>
    <defs></defs>
    <g id="Tysk" stroke="none" stroke-width="1" fill="none" fill-rule="evenodd">
        <g id="tysk" transform="translate(-984.000000, 25.000000)" stroke="#FFFFFF">
            <path d="M4739.2,90 L4739.2,77.8 L4813.2,76.7 L4811,71.2 L4820.9,66.8 L4862.9,65.7 L4866.2,70.1 C4866.2,70.1 4870.6,71.2 4872.8,73.4 C4875,75.6 4893.8,74.5 4898.2,74.5 C4902.6,74.5 4935.8,75.6 4939.1,75.6 C4942.4,75.6 4952.4,80 4953.5,83.3 C4954.6,86.6 4946.9,88.8 4948,91 C4949.1,93.2 4957.9,100.9 4956.8,104.3 C4955.7,107.6 4952.4,103.2 4952.4,106.5 C4952.4,109.8 4952.4,110.9 4951.3,113.1 C4950.2,115.3 4950.2,115.3 4950.2,115.3 L4951.3,205.9 L4942.5,205.9 L4927,208.1 L4929.2,117.5 L4913.7,116.4 C4913.7,116.4 4909.3,129.7 4911.5,136.3 C4913.7,142.9 4913.7,160.6 4912.6,169.5 C4911.5,178.3 4912.6,209.3 4912.6,209.3 L4907.1,210.4 C4907.1,210.4 4896,211.5 4894.9,210.4 C4893.8,209.3 4893.8,183.9 4894.9,179.5 C4896,175.1 4892.7,129.8 4893.8,125.3 C4894.9,120.9 4894.9,116.5 4894.9,116.5 L4875,117.6 C4875,117.6 4873.9,130.9 4876.1,136.4 C4878.3,141.9 4877.2,203.8 4877.2,203.8 L4870.6,208.2 L4852.9,207.1 C4852.9,207.1 4855.1,173.9 4855.1,152.9 C4855.1,131.9 4856.2,116.4 4856.2,116.4 L4835.2,115.3 C4835.2,115.3 4834.1,130.8 4836.3,137.4 C4838.5,144 4837.4,202.6 4837.4,202.6 L4829.7,207 L4813.1,205.9 C4813.1,205.9 4814.2,149.5 4815.3,141.8 C4816.4,134.1 4814.2,116.4 4814.2,116.4 L4800.9,117.5 C4800.9,117.5 4800.9,141.8 4802,148.4 C4803.1,155 4803.1,203.7 4803.1,203.7 L4792,207 L4771,204.8 C4771,204.8 4777.6,187.1 4777.6,183.8 C4777.6,180.5 4779.8,149.5 4779.8,145.1 C4779.8,140.7 4779.8,117.5 4779.8,117.5 L4761,118.6 C4761,118.6 4759.9,157.3 4762.1,165 C4764.3,172.7 4764.3,204.8 4764.3,204.8 L4752.1,209.2 L4735.5,208.1 C4735.5,208.1 4738.8,162.8 4739.9,155.1 C4741,147.4 4739.9,136.3 4738.8,129.7 C4737.7,123.1 4738.8,113.1 4738.8,113.1 C4738.8,113.1 4728.9,107.6 4732.2,106.5 C4735.5,105.4 4737.7,104.3 4737.7,104.3 L4736.6,98.8 C4736.6,98.8 4731.1,94.4 4733.3,92.2 C4735.5,90 4739.2,90 4739.2,90 Z" id="Shape"></path>
            <path d="M4737,92.2 C4740.3,91.1 4947,92.2 4947,92.2" id="Shape"></path>
            <path d="M4824.3,65.7 C4823.2,64.6 4817.7,65.7 4817.7,61.3 C4817.7,56.9 4818.8,48 4816.6,46.9 C4814.4,45.8 4811.1,48 4812.2,44.7 C4813.3,41.4 4808.9,40.3 4813.3,41.4 C4817.7,42.5 4825.5,52.5 4827.7,52.5 C4829.9,52.5 4826.6,39.2 4828.8,37 C4831,34.8 4832.1,35.9 4833.2,40.3 C4834.3,44.7 4831,44.7 4833.2,49.1 C4835.4,53.5 4832.1,54.6 4834.3,59 C4836.5,63.4 4836.5,67.8 4838.7,65.6 C4840.9,63.4 4843.1,67.8 4840.9,60.1 C4838.7,52.4 4834.3,45.7 4837.6,41.3 C4840.9,36.9 4840.9,38 4843.1,34.7 C4845.3,31.4 4842,38 4843.1,30.3 C4843.6,26.9 4844.3,25.2 4844.7,24.1 C4845.3,22.7 4845.4,22.2 4844.2,20.4 C4842,17.1 4837.6,19.3 4835.4,12.7 C4833.2,6.1 4831,3.9 4833.2,1.6 C4835.4,-0.7 4835.4,-0.6 4838.7,6 C4842,12.6 4840.9,15.9 4844.2,15.9 C4847.5,15.9 4859.7,4.8 4861.9,4.8 C4864.1,4.8 4856.4,12.5 4853.1,14.7 C4849.8,16.9 4845.4,33.5 4846.5,35.7 C4847.6,37.9 4844.3,40.1 4845.4,44.5 C4846.5,48.9 4849.8,56.7 4850.9,58.9 C4852,61.1 4855.3,64.4 4856.4,57.8 C4857.5,51.2 4856.4,46.7 4859.7,44.5 C4863,42.3 4866.3,40.1 4864.1,43.4 C4861.9,46.7 4858.6,47.8 4859.7,51.1 C4860.8,54.4 4860.8,54.4 4861.9,57.7 C4863,61 4861.9,65.4 4861.9,65.4" id="Shape"></path>
            <path d="M4867.4,70.1 C4867.4,71.2 4868.5,92.2 4868.5,92.2" id="Shape"></path>
            <path d="M4737,98.8 C4739.2,98.8 4944.8,97.7 4944.8,97.7 L4954.7,99.9" id="Shape"></path>
            <path d="M4739.2,111 C4740.3,111 4750.3,111 4750.3,111 C4750.3,111 4748.1,151.9 4749.2,154.1 C4750.3,156.3 4755.8,206 4753.6,210.5" id="Shape"></path>
            <path d="M4750.2,111 L4763.5,118.7" id="Shape"></path>
            <path d="M4780.1,117.6 L4779,112.1 L4790.1,112.1 L4791.2,137.5 C4791.2,137.5 4789,191.7 4790.1,195 C4791.2,198.3 4792.3,207.2 4792.3,207.2" id="Shape"></path>
            <path d="M4791.1,112.1 L4801.1,117.6" id="Shape"></path>
            <path d="M4815.4,116.5 C4815.4,115.4 4815.4,109.9 4815.4,109.9 L4827.6,111 C4827.6,111 4828.7,128.7 4827.6,134.2 C4826.5,139.7 4827.6,169.6 4828.7,174 C4829.8,178.4 4829.8,208.3 4829.8,208.3" id="Shape"></path>
            <path d="M4827.6,111 L4834.2,116.5" id="Shape"></path>
            <path d="M4857.4,117.6 C4857.4,115.4 4855.2,109.9 4855.2,109.9 L4869.6,112.1 C4869.6,112.1 4867.4,125.4 4868.5,130.9 C4869.6,136.4 4871.8,167.4 4870.7,177.3 C4869.6,187.2 4871.8,209.3 4871.8,209.3" id="Shape"></path>
            <path d="M4869.6,112.1 L4876.2,116.5" id="Shape"></path>
            <path d="M4896.1,116.5 C4896.1,114.3 4895,109.9 4895,109.9 L4906.1,109.9 C4906.1,109.9 4908.3,124.3 4906.1,147.5 C4903.9,170.7 4907.2,205 4909.4,208.3" id="Shape"></path>
            <path d="M4906.1,109.9 L4913.8,117.6" id="Shape"></path>
            <path d="M4951.4,113.2 C4950.3,112.1 4941.5,111 4941.5,111 C4941.5,111 4942.6,119.8 4941.5,137.5 C4940.4,155.2 4944.8,189.4 4943.7,203.8" id="Shape"></path>
            <path d="M4929.3,117.6 C4930.4,116.5 4929.3,108.8 4929.3,108.8" id="Shape"></path>
            <path d="M4951.4,108.8 C4951.4,107.7 4945.9,105.5 4945.9,105.5 C4945.9,105.5 4947,97.8 4944.8,93.3 C4942.6,88.9 4939.3,94.4 4941.5,75.6" id="Shape"></path>
            <path d="M4812.1,76.7 L4813.2,91.1" id="Shape"></path>
            <path d="M5133.5,235.5 C5131.5,235.5 4735.5,234.5 4730.5,234.5 C4725.5,234.5 4664.5,234.5 4660.5,234.5 C4656.5,234.5 4568.5,234.5 4556.5,234.5 C4544.5,234.5 4516.5,233.5 4510.5,234.5 C4504.5,235.5 4460.5,231.5 4452.5,232.5 C4444.5,233.5 4308.5,234.5 4308.5,234.5" id="Shape"></path>
            <path d="M3823,234.5 C3823,234.5 3802.9,236.5 3799.2,235.5 C3795.5,234.5 3762,236.5 3751.1,236.5 C3740.1,236.5 3721.9,233.5 3701.2,234.5 C3680.5,235.5 3640.3,234.5 3605.6,235.5 C3570.9,236.5 3530.1,234.5 3522.8,233.5 C3515.5,232.5 3377.2,236.5 3359.6,235.5 C3342,234.5 3292,235.5 3289.6,235.5" id="Shape"></path>
            <path d="M3146.5,238.5 C3146.5,238.5 3123.5,238.5 3117.5,237.5 C3109.4,236.2 3056.7,238.5 3038.5,238.5 C3020.5,238.5 2990.5,235.5 2956.5,236.5 C2922.5,237.5 2856.5,236.5 2799.5,237.5 C2742.5,238.5 2675.5,236.5 2663.5,235.5 C2651.5,234.5 2424.5,238.5 2395.5,237.5 C2366.5,236.5 4.5,240.5 0.5,240.5" id="Shape"></path>
            <path d="M3997,235.5 L4174.5,235.5" id="Shape"></path>
            <path d="M4648,226.5 C4648,226.5 4636.9,227.5 4634,226.5" id="Shape"></path>
            <path d="M4693.7,225.5 C4693.7,225.5 4682.6,226.5 4679.7,225.5" id="Shape"></path>
            <path d="M4607.8,226.5 L4593.1,226.5" id="Shape"></path>
            <path d="M4544.4,226.5 L4559.2,226.5" id="Shape"></path>
            <path d="M4498,227.5 L4511.6,227.5" id="Shape"></path>
            <path d="M4432,226.5 L4450.5,226.5" id="Shape"></path>
            <path d="M4771.4,249.8 L4752.5,249.8" id="Shape"></path>
            <path d="M4709.5,248.5 L4688.5,248.5" id="Shape"></path>
            <path d="M4656.5,249.5 L4635,249.5" id="Shape"></path>
            <path d="M4588.5,249.5 L4567.5,249.5" id="Shape"></path>
            <path d="M4801,226.5 L4786.3,226.5" id="Shape"></path>
            <path d="M4737.6,226.5 L4752.3,226.5" id="Shape"></path>
            <path d="M4991.7,249.8 L4972.8,249.8" id="Shape"></path>
            <path d="M4936.6,249.1 L4919,249.1" id="Shape"></path>
            <path d="M4892.1,249.8 L4874,249.8" id="Shape"></path>
            <path d="M4834.9,249.8 L4817.2,249.8" id="Shape"></path>
            <path d="M4899.9,225.5 L4884.6,225.5" id="Shape"></path>
            <path d="M4834,225.5 L4849.3,225.5" id="Shape"></path>
            <path d="M4926.7,225.5 L4942,225.5" id="Shape"></path>
            <path d="M4975,225.5 L4990.3,225.5" id="Shape"></path>
            <path d="M3591,227.5 C3591,227.5 3579.9,228.5 3577,227.5" id="Shape"></path>
            <path d="M3636.7,226.5 C3636.7,226.5 3625.6,227.5 3622.7,226.5" id="Shape"></path>
            <path d="M3550.8,226.5 L3536.1,226.5" id="Shape"></path>
            <path d="M3491.4,225.5 L3506.2,225.5" id="Shape"></path>
            <path d="M3777,226.5 L3792.3,226.5" id="Shape"></path>
            <path d="M4010.7,226.5 L4026,226.5" id="Shape"></path>
            <path d="M4523.5,250.5 C4521.5,250.5 4499.5,250.5 4499.5,250.5" id="Shape"></path>
            <path d="M4458,251.5 L4432.5,251.5" id="Shape"></path>
            <path d="M4117,226.5 L4135,226.5" id="Shape"></path>
            <path d="M4050,227.5 L4069,227.5" id="Shape"></path>
            <path d="M4338,248.5 L4321,248.5" id="Shape"></path>
            <path d="M4142,250.5 C4140,250.5 4118,250.5 4118,250.5" id="Shape"></path>
            <path d="M4077.5,251.5 L4052,251.5" id="Shape"></path>
            <path d="M4395,249.5 L4372.5,249.5" id="Shape"></path>
            <path d="M3031,226.5 C3031,226.5 3019.9,227.5 3017,226.5" id="Shape"></path>
            <path d="M3076.7,225.5 C3076.7,225.5 3065.6,226.5 3062.7,225.5" id="Shape"></path>
            <path d="M2990.8,226.5 L2976.1,226.5" id="Shape"></path>
            <path d="M2927.4,226.5 L2942.2,226.5" id="Shape"></path>
            <path d="M2881,227.5 L2894.6,227.5" id="Shape"></path>
            <path d="M2815,226.5 L2833.5,226.5" id="Shape"></path>
            <path d="M3143.4,253.8 L3123.5,253.8" id="Shape"></path>
            <path d="M3092.5,252.5 L3071.5,252.5" id="Shape"></path>
            <path d="M3039.5,253.5 L3018,253.5" id="Shape"></path>
            <path d="M2971.5,253.5 L2950.5,253.5" id="Shape"></path>
            <path d="M3120.6,226.5 L3135.3,226.5" id="Shape"></path>
            <path d="M3374.7,253.8 L3355.8,253.8" id="Shape"></path>
            <path d="M3319.6,253.1 L3302,253.1" id="Shape"></path>
            <path d="M3427,254.4 L3408.9,254.4" id="Shape"></path>
            <path d="M3309.7,225.5 L3325,225.5" id="Shape"></path>
            <path d="M3423.9,225.5 L3408.6,225.5" id="Shape"></path>
            <path d="M3358,225.5 L3373.3,225.5" id="Shape"></path>
            <path d="M3450.7,225.5 L3466,225.5" id="Shape"></path>
            <path d="M3459,254.5 L3478.3,254.5" id="Shape"></path>
            <path d="M2244,225.5 C2244,225.5 2232.9,226.5 2230,225.5" id="Shape"></path>
            <path d="M2289.7,224.5 C2289.7,224.5 2278.6,225.5 2275.7,224.5" id="Shape"></path>
            <path d="M2203.8,225.5 L2189.1,225.5" id="Shape"></path>
            <path d="M2140.4,225.5 L2155.2,225.5" id="Shape"></path>
            <path d="M2397,225.5 L2382.3,225.5" id="Shape"></path>
            <path d="M2333.6,225.5 L2348.3,225.5" id="Shape"></path>
            <path d="M2495.9,224.5 L2480.6,224.5" id="Shape"></path>
            <path d="M2430,224.5 L2445.3,224.5" id="Shape"></path>
            <path d="M2522.7,224.5 L2538,224.5" id="Shape"></path>
            <path d="M2636.9,224.5 L2621.6,224.5" id="Shape"></path>
            <path d="M2571,224.5 L2586.3,224.5" id="Shape"></path>
            <path d="M2663.7,224.5 L2679,224.5" id="Shape"></path>
            <path d="M2906.5,254.5 C2904.5,254.5 2882.5,254.5 2882.5,254.5" id="Shape"></path>
            <path d="M2841,255.5 L2815.5,255.5" id="Shape"></path>
            <path d="M2770,224.5 L2788,224.5" id="Shape"></path>
            <path d="M2703,225.5 L2722,225.5" id="Shape"></path>
            <path d="M2778,253.5 L2755.5,253.5" id="Shape"></path>
            <path d="M3770.5,256.5 L3749.5,256.5" id="Shape"></path>
            <path d="M4016.9,256.8 L3999.2,256.8" id="Shape"></path>
            <path d="M3705.5,257.5 C3703.5,257.5 3681.5,257.5 3681.5,257.5" id="Shape"></path>
            <path d="M3640,258.5 L3614.5,258.5" id="Shape"></path>
            <path d="M3520,255.5 L3503,255.5" id="Shape"></path>
            <path d="M3577,256.5 L3554.5,256.5" id="Shape"></path>
            <path d="M2509.4,256.8 L2490.5,256.8" id="Shape"></path>
            <path d="M2447.5,255.5 L2426.5,255.5" id="Shape"></path>
            <path d="M2394.5,256.5 L2373,256.5" id="Shape"></path>
            <path d="M2326.5,256.5 L2305.5,256.5" id="Shape"></path>
            <path d="M2729.7,256.8 L2710.8,256.8" id="Shape"></path>
            <path d="M2674.6,256.1 L2657,256.1" id="Shape"></path>
            <path d="M2630.1,256.8 L2612,256.8" id="Shape"></path>
            <path d="M2572.9,256.8 L2555.2,256.8" id="Shape"></path>
            <path d="M2261.5,257.5 C2259.5,257.5 2237.5,257.5 2237.5,257.5" id="Shape"></path>
            <path d="M2196,258.5 L2170.5,258.5" id="Shape"></path>
            <path d="M2133,256.5 L2110.5,256.5" id="Shape"></path>
            <path d="M2081.5,254.5 L2060.5,254.5" id="Shape"></path>
            <path d="M2023.5,255.5 C2021.5,255.5 1999.5,255.5 1999.5,255.5" id="Shape"></path>
            <path d="M1962,256.5 L1936.5,256.5" id="Shape"></path>
            <path d="M1895,254.5 L1872.5,254.5" id="Shape"></path>
            <path d="M1626.4,257.8 L1607.5,257.8" id="Shape"></path>
            <path d="M1564.5,256.5 L1543.5,256.5" id="Shape"></path>
            <path d="M1511.5,257.5 L1490,257.5" id="Shape"></path>
            <path d="M1443.5,257.5 L1422.5,257.5" id="Shape"></path>
            <path d="M1846.7,257.8 L1827.8,257.8" id="Shape"></path>
            <path d="M1791.6,257.1 L1774,257.1" id="Shape"></path>
            <path d="M1747.1,257.8 L1729,257.8" id="Shape"></path>
            <path d="M1689.9,257.8 L1672.2,257.8" id="Shape"></path>
            <path d="M1378.5,258.5 C1376.5,258.5 1354.5,258.5 1354.5,258.5" id="Shape"></path>
            <path d="M1313,259.5 L1287.5,259.5" id="Shape"></path>
            <path d="M1250,257.5 L1227.5,257.5" id="Shape"></path>
            <path d="M2092,227.5 L2110.5,227.5" id="Shape"></path>
            <path d="M1521,226.5 C1521,226.5 1509.9,227.5 1507,226.5" id="Shape"></path>
            <path d="M1566.7,225.5 C1566.7,225.5 1555.6,226.5 1552.7,225.5" id="Shape"></path>
            <path d="M1480.8,226.5 L1466.1,226.5" id="Shape"></path>
            <path d="M1417.4,226.5 L1432.2,226.5" id="Shape"></path>
            <path d="M1674,226.5 L1659.3,226.5" id="Shape"></path>
            <path d="M1610.6,226.5 L1625.3,226.5" id="Shape"></path>
            <path d="M1772.9,225.5 L1757.6,225.5" id="Shape"></path>
            <path d="M1707,225.5 L1722.3,225.5" id="Shape"></path>
            <path d="M1799.7,225.5 L1815,225.5" id="Shape"></path>
            <path d="M1913.9,225.5 L1898.6,225.5" id="Shape"></path>
            <path d="M1848,225.5 L1863.3,225.5" id="Shape"></path>
            <path d="M1940.7,225.5 L1956,225.5" id="Shape"></path>
            <path d="M2047,225.5 L2065,225.5" id="Shape"></path>
            <path d="M1980,226.5 L1999,226.5" id="Shape"></path>
            <path d="M1334,225.5 C1334,225.5 1322.9,226.5 1320,225.5" id="Shape"></path>
            <path d="M1379.7,224.5 C1379.7,224.5 1368.6,225.5 1365.7,224.5" id="Shape"></path>
            <path d="M1194.5,256.5 L1173.5,256.5" id="Shape"></path>
            <path d="M1141.5,257.5 L1120,257.5" id="Shape"></path>
            <path d="M1073.5,257.5 L1052.5,257.5" id="Shape"></path>
            <path d="M1008.5,258.5 C1006.5,258.5 984.5,258.5 984.5,258.5" id="Shape"></path>
            <path d="M1151,226.5 C1151,226.5 1139.9,227.5 1137,226.5" id="Shape"></path>
            <path d="M1196.7,225.5 C1196.7,225.5 1185.6,226.5 1182.7,225.5" id="Shape"></path>
            <path d="M1110.8,226.5 L1096.1,226.5" id="Shape"></path>
            <path d="M1047.4,226.5 L1062.2,226.5" id="Shape"></path>
            <path d="M1009.7,224.5 C1009.7,224.5 998.6,225.5 995.7,224.5" id="Shape"></path>
            <path d="M1293.8,225.5 L1279.1,225.5" id="Shape"></path>
            <path d="M1230.4,225.5 L1245.2,225.5" id="Shape"></path>
            <path d="M3970.9,258 C3970.9,258 3990,259.1 3990.4,257.4 C3990.8,255.7 3989.7,250 3990.8,248 C3991.9,246 3992.5,223.2 3990.5,220.7 C3988.6,218.3 3975.9,198.2 3972.9,196.4 C3969.9,194.6 3851.6,189.6 3841.3,195.6 C3831,201.6 3830.6,218.7 3830.6,218.7 C3830.6,218.7 3827.9,253.6 3828.8,254.7 C3829.8,255.7 3841.9,256.2 3842.6,255.6 C3843.3,255 3847.8,242 3851.9,241.2 C3856,240.4 3867.8,239.8 3870.1,241.2 C3872.4,242.6 3876.6,255.6 3879,255.7 C3881.4,255.8 3935.4,258.6 3936.9,257 C3938.3,255.4 3942.8,243.4 3944.9,242.8 C3946.9,242.2 3957.1,241.3 3961,243.1 C3965,245 3970.2,257.6 3970.9,258 Z" id="Shape"></path>
            <path d="M3970,204.1 C3970,204.1 3977.2,218.9 3976.1,219.2 C3975.1,219.5 3940.8,219.2 3940.8,218.5 C3940.8,217.8 3938.6,206.3 3941.7,204.1 C3944.8,201.9 3970,204.1 3970,204.1 Z" id="Shape"></path>
            <path d="M3935.7,203.4 C3935.7,203.4 3938.9,215.6 3934.1,217.8 C3929.3,220 3893.6,221.3 3892.6,219.9 C3891.6,218.5 3892.6,202.4 3893.6,202.1 C3894.7,201.8 3935.7,203.4 3935.7,203.4 Z" id="Shape"></path>
            <path d="M3889.9,202.6 C3889.9,202.6 3892.4,216.2 3887.3,217.6 C3882.2,219.1 3845.9,218.7 3845.6,216.6 C3845.3,214.6 3846.8,202.2 3850.9,201.3 C3855,200.6 3889.9,202.6 3889.9,202.6 Z" id="Shape"></path>
            <path d="M3953.2,245.5 C3954.9,244.9 3963.6,245.9 3967.3,255.8 C3969.4,261.6 3967.9,265.3 3960.4,268.7 C3952.9,272.1 3943.2,268.7 3941.7,263.9 C3940.6,260.4 3942.9,249.9 3944.7,248.5 C3947.8,246 3953.2,245.5 3953.2,245.5 Z" id="Shape"></path>
            <path d="M3854.6,244.7 C3854.6,244.7 3865.8,243.1 3870.7,247.4 C3875.6,251.6 3875.5,259.5 3873,264.7 C3870.9,269.1 3861.1,272.7 3855.3,269.1 C3850.6,266.1 3845.8,261.3 3847.4,255.7 C3849,249.8 3854.6,244.7 3854.6,244.7 Z" id="Shape"></path>
            <path d="M3991.4,223.8 C3990.4,224.1 3985.7,223.2 3985.8,228 C3986,232.7 3985.6,241.1 3987.2,243.2 C3988.8,245.3 3991.5,245.4 3991.5,245.4" id="Shape"></path>
            <path d="M4358.5,205.5 C4358.5,205.5 4365.5,191.5 4387.5,192.5 C4409.5,193.5 4418.5,204.5 4422.5,223.5 C4416.5,223.5 4416.5,223.5 4416.5,223.5 C4416.5,223.5 4412.5,215.5 4406.5,216.5 C4400.5,217.5 4396.5,221.5 4395.5,223.5 C4394.5,225.5 4361.5,224.5 4361.5,224.5 L4355.5,224.5 C4355.5,224.5 4354.5,216.5 4348.5,216.5 C4342.5,216.5 4336.5,221.5 4336.5,223.5 C4336.5,225.5 4329.5,224.5 4329.5,224.5 C4329.5,224.5 4331.5,205.5 4358.5,205.5 Z" id="Shape"></path>
            <path d="M4363.5,205.5 C4364.5,204.5 4375.5,196.5 4383.5,201.5 C4383.5,207.5 4383.5,208.5 4383.5,208.5 C4383.5,208.5 4362.5,208.5 4362.5,207.5 C4362.5,206.5 4363.5,205.5 4363.5,205.5 Z" id="Shape"></path>
            <path d="M4388.5,200.5 L4389.5,207.5 C4389.5,207.5 4399.5,207.5 4400.5,208.5 C4401.5,209.5 4405.5,207.5 4402.5,205.5 C4399.5,203.5 4388.5,200.5 4388.5,200.5 Z" id="Shape"></path>
            <path d="M4336.5,224.5 C4336.5,224.5 4341.5,233.5 4346.5,231.5 C4351.5,229.5 4355.5,227.5 4355.5,224.5" id="Shape"></path>
            <path d="M4396.5,222.5 C4396.5,222.5 4399.5,234.5 4406.5,231.5 C4413.5,228.5 4416.5,225.5 4415.5,222.5" id="Shape"></path>
            <path d="M4337.5,211.5 C4337.5,211.5 4359.5,205.5 4363.5,223.5" id="Shape"></path>
            <path d="M4419.5,222.5 C4419.5,220.5 4418.5,213.5 4407.5,211.5 C4396.5,209.5 4392.5,223.5 4392.5,223.5" id="Shape"></path>
            <path d="M3695.5,203.5 C3695.5,203.5 3702.5,189.5 3724.5,190.5 C3746.5,191.5 3755.5,202.5 3759.5,221.5 C3753.5,221.5 3753.5,221.5 3753.5,221.5 C3753.5,221.5 3749.5,213.5 3743.5,214.5 C3737.5,215.5 3733.5,219.5 3732.5,221.5 C3731.5,223.5 3698.5,222.5 3698.5,222.5 L3692.5,222.5 C3692.5,222.5 3691.5,214.5 3685.5,214.5 C3679.5,214.5 3673.5,219.5 3673.5,221.5 C3673.5,223.5 3666.5,222.5 3666.5,222.5 C3666.5,222.5 3668.5,203.5 3695.5,203.5 Z" id="Shape"></path>
            <path d="M3700.5,203.5 C3701.5,202.5 3712.5,194.5 3720.5,199.5 C3720.5,205.5 3720.5,206.5 3720.5,206.5 C3720.5,206.5 3699.5,206.5 3699.5,205.5 C3699.5,204.5 3700.5,203.5 3700.5,203.5 Z" id="Shape"></path>
            <path d="M3725.5,198.5 L3726.5,205.5 C3726.5,205.5 3736.5,205.5 3737.5,206.5 C3738.5,207.5 3742.5,205.5 3739.5,203.5 C3736.5,201.5 3725.5,198.5 3725.5,198.5 Z" id="Shape"></path>
            <path d="M3733.5,220.5 C3733.5,220.5 3736.5,232.5 3743.5,229.5 C3750.5,226.5 3753.5,223.5 3752.5,220.5" id="Shape"></path>
            <path d="M3674.5,220.5 C3674.5,220.5 3677.5,232.5 3684.5,229.5 C3691.5,226.5 3694.5,223.5 3693.5,220.5" id="Shape"></path>
            <path d="M3674.5,209.5 C3674.5,209.5 3696.5,203.5 3700.5,221.5" id="Shape"></path>
            <path d="M3756.5,220.5 C3756.5,218.5 3755.5,211.5 3744.5,209.5 C3733.5,207.5 3729.5,221.5 3729.5,221.5" id="Shape"></path>
            <path d="M4264.2,223.8 C4264.2,223.8 4254.6,204.6 4224.4,206 C4194.2,207.4 4181.9,222.5 4176.4,248.5 C4184.6,248.5 4184.6,248.5 4184.6,248.5 C4184.6,248.5 4190.1,237.5 4198.3,238.9 C4206.5,240.3 4212,245.8 4213.4,248.5 C4214.8,251.2 4260,249.9 4260,249.9 L4268.2,249.9 C4268.2,249.9 4269.6,238.9 4277.8,238.9 C4286,238.9 4294.3,245.8 4294.3,248.5 C4294.3,251.2 4303.9,249.9 4303.9,249.9 C4303.9,249.9 4301.3,223.8 4264.2,223.8 Z" id="Shape"></path>
            <path d="M4257.4,223.8 C4256,222.4 4240.9,211.5 4230,218.3 C4230,226.5 4230,227.9 4230,227.9 C4230,227.9 4258.8,227.9 4258.8,226.5 C4258.8,225.2 4257.4,223.8 4257.4,223.8 Z" id="Shape"></path>
            <path d="M4223.1,216.9 L4221.7,226.5 C4221.7,226.5 4208,226.5 4206.6,227.9 C4205.2,229.3 4199.7,226.5 4203.9,223.8 C4208,221.1 4223.1,216.9 4223.1,216.9 Z" id="Shape"></path>
            <path d="M4294.4,249.9 C4294.4,249.9 4287.5,262.2 4280.7,259.5 C4273.8,256.8 4268.4,254 4268.4,249.9" id="Shape"></path>
            <path d="M4212.1,247.1 C4212.1,247.1 4208,263.6 4198.4,259.4 C4188.8,255.3 4184.7,251.2 4186.1,247.1" id="Shape"></path>
            <path d="M4293,232 C4293,232 4262.8,223.8 4257.4,248.5" id="Shape"></path>
            <path d="M4217.6,248.5 C4217.6,248.5 4212.1,229.3 4197,232 C4181.9,234.7 4180.5,244.3 4180.5,247.1" id="Shape"></path>
            <path d="M3249.2,224.8 C3249.2,224.8 3239.6,205.6 3209.4,207 C3179.2,208.4 3166.9,223.5 3161.4,249.5 C3169.6,249.5 3169.6,249.5 3169.6,249.5 C3169.6,249.5 3175.1,238.5 3183.3,239.9 C3191.5,241.3 3197,246.8 3198.4,249.5 C3199.8,252.2 3245,250.9 3245,250.9 L3253.2,250.9 C3253.2,250.9 3254.6,239.9 3262.8,239.9 C3271,239.9 3279.3,246.8 3279.3,249.5 C3279.3,252.2 3288.9,250.9 3288.9,250.9 C3288.9,250.9 3286.3,224.8 3249.2,224.8 Z" id="Shape"></path>
            <path d="M3242.4,224.8 C3241,223.4 3225.9,212.5 3215,219.3 C3215,227.5 3215,228.9 3215,228.9 C3215,228.9 3243.8,228.9 3243.8,227.5 C3243.8,226.2 3242.4,224.8 3242.4,224.8 Z" id="Shape"></path>
            <path d="M3208.1,217.9 L3206.7,227.5 C3206.7,227.5 3193,227.5 3191.6,228.9 C3190.2,230.3 3184.7,227.5 3188.9,224.8 C3193,222.1 3208.1,217.9 3208.1,217.9 Z" id="Shape"></path>
            <path d="M3279.4,250.9 C3279.4,250.9 3272.5,263.2 3265.7,260.5 C3258.8,257.8 3253.4,255 3253.4,250.9" id="Shape"></path>
            <path d="M3197.1,248.1 C3197.1,248.1 3193,264.6 3183.4,260.4 C3173.8,256.3 3169.7,252.2 3171.1,248.1" id="Shape"></path>
            <path d="M3278,233 C3278,233 3247.8,224.8 3242.4,249.5" id="Shape"></path>
            <path d="M3202.6,249.5 C3202.6,249.5 3197.1,230.3 3182,233 C3166.9,235.7 3165.5,245.3 3165.5,248.1" id="Shape"></path>
        </g>
    </g>
</svg>