<?xml version="1.0" encoding="UTF-8"?>
<svg width="4000px" height="320px" viewBox="0 0 4000 320" version="1.1" xmlns="http://www.w3.org/2000/svg" xmlns:xlink="http://www.w3.org/1999/xlink">
    <!-- Generator: Sketch 51.2 (57519) - http://www.bohemiancoding.com/sketch -->
    <title>Tysk</title>
    <desc>Created with Sketch.</desc>
    <defs>
        <rect id="path-1" x="0" y="0" width="4000" height="320"></rect>
    </defs>
    <g id="Tysk" stroke="none" stroke-width="1" fill="none" fill-rule="evenodd">
        <g id="tysk">
            <mask id="mask-2" fill="white">
                <use xlink:href="#path-1"></use>
            </mask>
            <g id="Mask"></g>
            <g id="Group" mask="url(#mask-2)" stroke="#FFFFFF">
                <g transform="translate(-1134.000000, 25.000000)" id="Shape">
                    <path d="M4889.2,90 L4889.2,77.8 L4963.2,76.7 L4961,71.2 L4970.9,66.8 L5012.9,65.7 L5016.2,70.1 C5016.2,70.1 5020.6,71.2 5022.8,73.4 C5025,75.6 5043.8,74.5 5048.2,74.5 C5052.6,74.5 5085.8,75.6 5089.1,75.6 C5092.4,75.6 5102.4,80 5103.5,83.3 C5104.6,86.6 5096.9,88.8 5098,91 C5099.1,93.2 5107.9,100.9 5106.8,104.3 C5105.7,107.6 5102.4,103.2 5102.4,106.5 C5102.4,109.8 5102.4,110.9 5101.3,113.1 C5100.2,115.3 5100.2,115.3 5100.2,115.3 L5101.3,205.9 L5092.5,205.9 L5077,208.1 L5079.2,117.5 L5063.7,116.4 C5063.7,116.4 5059.3,129.7 5061.5,136.3 C5063.7,142.9 5063.7,160.6 5062.6,169.5 C5061.5,178.3 5062.6,209.3 5062.6,209.3 L5057.1,210.4 C5057.1,210.4 5046,211.5 5044.9,210.4 C5043.8,209.3 5043.8,183.9 5044.9,179.5 C5046,175.1 5042.7,129.8 5043.8,125.3 C5044.9,120.9 5044.9,116.5 5044.9,116.5 L5025,117.6 C5025,117.6 5023.9,130.9 5026.1,136.4 C5028.3,141.9 5027.2,203.8 5027.2,203.8 L5020.6,208.2 L5002.9,207.1 C5002.9,207.1 5005.1,173.9 5005.1,152.9 C5005.1,131.9 5006.2,116.4 5006.2,116.4 L4985.2,115.3 C4985.2,115.3 4984.1,130.8 4986.3,137.4 C4988.5,144 4987.4,202.6 4987.4,202.6 L4979.7,207 L4963.1,205.9 C4963.1,205.9 4964.2,149.5 4965.3,141.8 C4966.4,134.1 4964.2,116.4 4964.2,116.4 L4950.9,117.5 C4950.9,117.5 4950.9,141.8 4952,148.4 C4953.1,155 4953.1,203.7 4953.1,203.7 L4942,207 L4921,204.8 C4921,204.8 4927.6,187.1 4927.6,183.8 C4927.6,180.5 4929.8,149.5 4929.8,145.1 C4929.8,140.7 4929.8,117.5 4929.8,117.5 L4911,118.6 C4911,118.6 4909.9,157.3 4912.1,165 C4914.3,172.7 4914.3,204.8 4914.3,204.8 L4902.1,209.2 L4885.5,208.1 C4885.5,208.1 4888.8,162.8 4889.9,155.1 C4891,147.4 4889.9,136.3 4888.8,129.7 C4887.7,123.1 4888.8,113.1 4888.8,113.1 C4888.8,113.1 4878.9,107.6 4882.2,106.5 C4885.5,105.4 4887.7,104.3 4887.7,104.3 L4886.6,98.8 C4886.6,98.8 4881.1,94.4 4883.3,92.2 C4885.5,90 4889.2,90 4889.2,90 Z"></path>
                    <path d="M4887,92.2 C4890.3,91.1 5097,92.2 5097,92.2"></path>
                    <path d="M4974.3,65.7 C4973.2,64.6 4967.7,65.7 4967.7,61.3 C4967.7,56.9 4968.8,48 4966.6,46.9 C4964.4,45.8 4961.1,48 4962.2,44.7 C4963.3,41.4 4958.9,40.3 4963.3,41.4 C4967.7,42.5 4975.5,52.5 4977.7,52.5 C4979.9,52.5 4976.6,39.2 4978.8,37 C4981,34.8 4982.1,35.9 4983.2,40.3 C4984.3,44.7 4981,44.7 4983.2,49.1 C4985.4,53.5 4982.1,54.6 4984.3,59 C4986.5,63.4 4986.5,67.8 4988.7,65.6 C4990.9,63.4 4993.1,67.8 4990.9,60.1 C4988.7,52.4 4984.3,45.7 4987.6,41.3 C4990.9,36.9 4990.9,38 4993.1,34.7 C4995.3,31.4 4992,38 4993.1,30.3 C4993.6,26.9 4994.3,25.2 4994.7,24.1 C4995.3,22.7 4995.4,22.2 4994.2,20.4 C4992,17.1 4987.6,19.3 4985.4,12.7 C4983.2,6.1 4981,3.9 4983.2,1.6 C4985.4,-0.7 4985.4,-0.6 4988.7,6 C4992,12.6 4990.9,15.9 4994.2,15.9 C4997.5,15.9 5009.7,4.8 5011.9,4.8 C5014.1,4.8 5006.4,12.5 5003.1,14.7 C4999.8,16.9 4995.4,33.5 4996.5,35.7 C4997.6,37.9 4994.3,40.1 4995.4,44.5 C4996.5,48.9 4999.8,56.7 5000.9,58.9 C5002,61.1 5005.3,64.4 5006.4,57.8 C5007.5,51.2 5006.4,46.7 5009.7,44.5 C5013,42.3 5016.3,40.1 5014.1,43.4 C5011.9,46.7 5008.6,47.8 5009.7,51.1 C5010.8,54.4 5010.8,54.4 5011.9,57.7 C5013,61 5011.9,65.4 5011.9,65.4"></path>
                    <path d="M5017.4,70.1 C5017.4,71.2 5018.5,92.2 5018.5,92.2"></path>
                    <path d="M4962.1,76.7 L4963.2,91.1"></path>
                    <path d="M4887,98.8 C4889.2,98.8 5094.8,97.7 5094.8,97.7 L5104.7,99.9"></path>
                    <path d="M4889.2,111 C4890.3,111 4900.3,111 4900.3,111 C4900.3,111 4898.1,151.9 4899.2,154.1 C4900.3,156.3 4905.8,206 4903.6,210.5"></path>
                    <path d="M4900.2,111 L4913.5,118.7"></path>
                    <path d="M4930.1,117.6 L4929,112.1 L4940.1,112.1 L4941.2,137.5 C4941.2,137.5 4939,191.7 4940.1,195 C4941.2,198.3 4942.3,207.2 4942.3,207.2"></path>
                    <path d="M4941.1,112.1 L4951.1,117.6"></path>
                    <path d="M4965.4,116.5 C4965.4,115.4 4965.4,109.9 4965.4,109.9 L4977.6,111 C4977.6,111 4978.7,128.7 4977.6,134.2 C4976.5,139.7 4977.6,169.6 4978.7,174 C4979.8,178.4 4979.8,208.3 4979.8,208.3"></path>
                    <path d="M4977.6,111 L4984.2,116.5"></path>
                    <path d="M5007.4,117.6 C5007.4,115.4 5005.2,109.9 5005.2,109.9 L5019.6,112.1 C5019.6,112.1 5017.4,125.4 5018.5,130.9 C5019.6,136.4 5021.8,167.4 5020.7,177.3 C5019.6,187.2 5021.8,209.3 5021.8,209.3"></path>
                    <path d="M5019.6,112.1 L5026.2,116.5"></path>
                    <path d="M5046.1,116.5 C5046.1,114.3 5045,109.9 5045,109.9 L5056.1,109.9 C5056.1,109.9 5058.3,124.3 5056.1,147.5 C5053.9,170.7 5057.2,205 5059.4,208.3"></path>
                    <path d="M5056.1,109.9 L5063.8,117.6"></path>
                    <path d="M5101.4,113.2 C5100.3,112.1 5091.5,111 5091.5,111 C5091.5,111 5092.6,119.8 5091.5,137.5 C5090.4,155.2 5094.8,189.4 5093.7,203.8"></path>
                    <path d="M5079.3,117.6 C5080.4,116.5 5079.3,108.8 5079.3,108.8"></path>
                    <path d="M5101.4,108.8 C5101.4,107.7 5095.9,105.5 5095.9,105.5 C5095.9,105.5 5097,97.8 5094.8,93.3 C5092.6,88.9 5089.3,94.4 5091.5,75.6"></path>
                    <path d="M5133.5,235.5 C5131.5,235.5 4735.5,234.5 4730.5,234.5 C4725.5,234.5 4664.5,234.5 4660.5,234.5 C4656.5,234.5 4568.5,234.5 4556.5,234.5 C4544.5,234.5 4516.5,233.5 4510.5,234.5 C4504.5,235.5 4460.5,231.5 4452.5,232.5 C4444.5,233.5 4308.5,234.5 4308.5,234.5"></path>
                    <path d="M3823,234.5 C3823,234.5 3802.9,236.5 3799.2,235.5 C3795.5,234.5 3762,236.5 3751.1,236.5 C3740.1,236.5 3721.9,233.5 3701.2,234.5 C3680.5,235.5 3640.3,234.5 3605.6,235.5 C3570.9,236.5 3530.1,234.5 3522.8,233.5 C3515.5,232.5 3377.2,236.5 3359.6,235.5 C3342,234.5 3292,235.5 3289.6,235.5"></path>
                    <path d="M3146.5,238.5 C3146.5,238.5 3123.5,238.5 3117.5,237.5 C3109.4,236.2 3056.7,238.5 3038.5,238.5 C3020.5,238.5 2990.5,235.5 2956.5,236.5 C2922.5,237.5 2856.5,236.5 2799.5,237.5 C2742.5,238.5 2675.5,236.5 2663.5,235.5 C2651.5,234.5 2424.5,238.5 2395.5,237.5 C2366.5,236.5 4.5,240.5 0.5,240.5"></path>
                    <path d="M3997,235.5 L4174.5,235.5"></path>
                    <path d="M4648,226.5 C4648,226.5 4636.9,227.5 4634,226.5"></path>
                    <path d="M4693.7,225.5 C4693.7,225.5 4682.6,226.5 4679.7,225.5"></path>
                    <path d="M4607.8,226.5 L4593.1,226.5"></path>
                    <path d="M4544.4,226.5 L4559.2,226.5"></path>
                    <path d="M4498,227.5 L4511.6,227.5"></path>
                    <path d="M4432,226.5 L4450.5,226.5"></path>
                    <path d="M4771.4,249.8 L4752.5,249.8"></path>
                    <path d="M4709.5,248.5 L4688.5,248.5"></path>
                    <path d="M4656.5,249.5 L4635,249.5"></path>
                    <path d="M4588.5,249.5 L4567.5,249.5"></path>
                    <path d="M4801,226.5 L4786.3,226.5"></path>
                    <path d="M4737.6,226.5 L4752.3,226.5"></path>
                    <path d="M4991.7,249.8 L4972.8,249.8"></path>
                    <path d="M4936.6,249.1 L4919,249.1"></path>
                    <path d="M4892.1,249.8 L4874,249.8"></path>
                    <path d="M4834.9,249.8 L4817.2,249.8"></path>
                    <path d="M5044,250.4 L5025.9,250.4"></path>
                    <path d="M4899.9,225.5 L4884.6,225.5"></path>
                    <path d="M4834,225.5 L4849.3,225.5"></path>
                    <path d="M4926.7,225.5 L4942,225.5"></path>
                    <path d="M5040.9,225.5 L5025.6,225.5"></path>
                    <path d="M4975,225.5 L4990.3,225.5"></path>
                    <path d="M5067.7,225.5 L5083,225.5"></path>
                    <path d="M5076,250.5 L5095.3,250.5"></path>
                    <path d="M3591,227.5 C3591,227.5 3579.9,228.5 3577,227.5"></path>
                    <path d="M3636.7,226.5 C3636.7,226.5 3625.6,227.5 3622.7,226.5"></path>
                    <path d="M3550.8,226.5 L3536.1,226.5"></path>
                    <path d="M3491.4,225.5 L3506.2,225.5"></path>
                    <path d="M3777,226.5 L3792.3,226.5"></path>
                    <path d="M4010.7,226.5 L4026,226.5"></path>
                    <path d="M4523.5,250.5 C4521.5,250.5 4499.5,250.5 4499.5,250.5"></path>
                    <path d="M4458,251.5 L4432.5,251.5"></path>
                    <path d="M4117,226.5 L4135,226.5"></path>
                    <path d="M4050,227.5 L4069,227.5"></path>
                    <path d="M4338,248.5 L4321,248.5"></path>
                    <path d="M4142,250.5 C4140,250.5 4118,250.5 4118,250.5"></path>
                    <path d="M4077.5,251.5 L4052,251.5"></path>
                    <path d="M4395,249.5 L4372.5,249.5"></path>
                    <path d="M3031,226.5 C3031,226.5 3019.9,227.5 3017,226.5"></path>
                    <path d="M3076.7,225.5 C3076.7,225.5 3065.6,226.5 3062.7,225.5"></path>
                    <path d="M2990.8,226.5 L2976.1,226.5"></path>
                    <path d="M2927.4,226.5 L2942.2,226.5"></path>
                    <path d="M2881,227.5 L2894.6,227.5"></path>
                    <path d="M2815,226.5 L2833.5,226.5"></path>
                    <path d="M3143.4,253.8 L3123.5,253.8"></path>
                    <path d="M3092.5,252.5 L3071.5,252.5"></path>
                    <path d="M3039.5,253.5 L3018,253.5"></path>
                    <path d="M2971.5,253.5 L2950.5,253.5"></path>
                    <path d="M3120.6,226.5 L3135.3,226.5"></path>
                    <path d="M3374.7,253.8 L3355.8,253.8"></path>
                    <path d="M3319.6,253.1 L3302,253.1"></path>
                    <path d="M3427,254.4 L3408.9,254.4"></path>
                    <path d="M3309.7,225.5 L3325,225.5"></path>
                    <path d="M3423.9,225.5 L3408.6,225.5"></path>
                    <path d="M3358,225.5 L3373.3,225.5"></path>
                    <path d="M3450.7,225.5 L3466,225.5"></path>
                    <path d="M3459,254.5 L3478.3,254.5"></path>
                    <path d="M2244,225.5 C2244,225.5 2232.9,226.5 2230,225.5"></path>
                    <path d="M2289.7,224.5 C2289.7,224.5 2278.6,225.5 2275.7,224.5"></path>
                    <path d="M2203.8,225.5 L2189.1,225.5"></path>
                    <path d="M2140.4,225.5 L2155.2,225.5"></path>
                    <path d="M2397,225.5 L2382.3,225.5"></path>
                    <path d="M2333.6,225.5 L2348.3,225.5"></path>
                    <path d="M2495.9,224.5 L2480.6,224.5"></path>
                    <path d="M2430,224.5 L2445.3,224.5"></path>
                    <path d="M2522.7,224.5 L2538,224.5"></path>
                    <path d="M2636.9,224.5 L2621.6,224.5"></path>
                    <path d="M2571,224.5 L2586.3,224.5"></path>
                    <path d="M2663.7,224.5 L2679,224.5"></path>
                    <path d="M2906.5,254.5 C2904.5,254.5 2882.5,254.5 2882.5,254.5"></path>
                    <path d="M2841,255.5 L2815.5,255.5"></path>
                    <path d="M2770,224.5 L2788,224.5"></path>
                    <path d="M2703,225.5 L2722,225.5"></path>
                    <path d="M2778,253.5 L2755.5,253.5"></path>
                    <path d="M3770.5,256.5 L3749.5,256.5"></path>
                    <path d="M4016.9,256.8 L3999.2,256.8"></path>
                    <path d="M3705.5,257.5 C3703.5,257.5 3681.5,257.5 3681.5,257.5"></path>
                    <path d="M3640,258.5 L3614.5,258.5"></path>
                    <path d="M3520,255.5 L3503,255.5"></path>
                    <path d="M3577,256.5 L3554.5,256.5"></path>
                    <path d="M2509.4,256.8 L2490.5,256.8"></path>
                    <path d="M2447.5,255.5 L2426.5,255.5"></path>
                    <path d="M2394.5,256.5 L2373,256.5"></path>
                    <path d="M2326.5,256.5 L2305.5,256.5"></path>
                    <path d="M2729.7,256.8 L2710.8,256.8"></path>
                    <path d="M2674.6,256.1 L2657,256.1"></path>
                    <path d="M2630.1,256.8 L2612,256.8"></path>
                    <path d="M2572.9,256.8 L2555.2,256.8"></path>
                    <path d="M2261.5,257.5 C2259.5,257.5 2237.5,257.5 2237.5,257.5"></path>
                    <path d="M2196,258.5 L2170.5,258.5"></path>
                    <path d="M2133,256.5 L2110.5,256.5"></path>
                    <path d="M2081.5,254.5 L2060.5,254.5"></path>
                    <path d="M2023.5,255.5 C2021.5,255.5 1999.5,255.5 1999.5,255.5"></path>
                    <path d="M1962,256.5 L1936.5,256.5"></path>
                    <path d="M1895,254.5 L1872.5,254.5"></path>
                    <path d="M1626.4,257.8 L1607.5,257.8"></path>
                    <path d="M1564.5,256.5 L1543.5,256.5"></path>
                    <path d="M1511.5,257.5 L1490,257.5"></path>
                    <path d="M1443.5,257.5 L1422.5,257.5"></path>
                    <path d="M1846.7,257.8 L1827.8,257.8"></path>
                    <path d="M1791.6,257.1 L1774,257.1"></path>
                    <path d="M1747.1,257.8 L1729,257.8"></path>
                    <path d="M1689.9,257.8 L1672.2,257.8"></path>
                    <path d="M1378.5,258.5 C1376.5,258.5 1354.5,258.5 1354.5,258.5"></path>
                    <path d="M1313,259.5 L1287.5,259.5"></path>
                    <path d="M1250,257.5 L1227.5,257.5"></path>
                    <path d="M2092,227.5 L2110.5,227.5"></path>
                    <path d="M1521,226.5 C1521,226.5 1509.9,227.5 1507,226.5"></path>
                    <path d="M1566.7,225.5 C1566.7,225.5 1555.6,226.5 1552.7,225.5"></path>
                    <path d="M1480.8,226.5 L1466.1,226.5"></path>
                    <path d="M1417.4,226.5 L1432.2,226.5"></path>
                    <path d="M1674,226.5 L1659.3,226.5"></path>
                    <path d="M1610.6,226.5 L1625.3,226.5"></path>
                    <path d="M1772.9,225.5 L1757.6,225.5"></path>
                    <path d="M1707,225.5 L1722.3,225.5"></path>
                    <path d="M1799.7,225.5 L1815,225.5"></path>
                    <path d="M1913.9,225.5 L1898.6,225.5"></path>
                    <path d="M1848,225.5 L1863.3,225.5"></path>
                    <path d="M1940.7,225.5 L1956,225.5"></path>
                    <path d="M2047,225.5 L2065,225.5"></path>
                    <path d="M1980,226.5 L1999,226.5"></path>
                    <path d="M1334,225.5 C1334,225.5 1322.9,226.5 1320,225.5"></path>
                    <path d="M1379.7,224.5 C1379.7,224.5 1368.6,225.5 1365.7,224.5"></path>
                    <path d="M1293.8,225.5 L1279.1,225.5"></path>
                    <path d="M1230.4,225.5 L1245.2,225.5"></path>
                    <path d="M3970.9,258 C3970.9,258 3990,259.1 3990.4,257.4 C3990.8,255.7 3989.7,250 3990.8,248 C3991.9,246 3992.5,223.2 3990.5,220.7 C3988.6,218.3 3975.9,198.2 3972.9,196.4 C3969.9,194.6 3851.6,189.6 3841.3,195.6 C3831,201.6 3830.6,218.7 3830.6,218.7 C3830.6,218.7 3827.9,253.6 3828.8,254.7 C3829.8,255.7 3841.9,256.2 3842.6,255.6 C3843.3,255 3847.8,242 3851.9,241.2 C3856,240.4 3867.8,239.8 3870.1,241.2 C3872.4,242.6 3876.6,255.6 3879,255.7 C3881.4,255.8 3935.4,258.6 3936.9,257 C3938.3,255.4 3942.8,243.4 3944.9,242.8 C3946.9,242.2 3957.1,241.3 3961,243.1 C3965,245 3970.2,257.6 3970.9,258 Z"></path>
                    <path d="M3970,204.1 C3970,204.1 3977.2,218.9 3976.1,219.2 C3975.1,219.5 3940.8,219.2 3940.8,218.5 C3940.8,217.8 3938.6,206.3 3941.7,204.1 C3944.8,201.9 3970,204.1 3970,204.1 Z"></path>
                    <path d="M3935.7,203.4 C3935.7,203.4 3938.9,215.6 3934.1,217.8 C3929.3,220 3893.6,221.3 3892.6,219.9 C3891.6,218.5 3892.6,202.4 3893.6,202.1 C3894.7,201.8 3935.7,203.4 3935.7,203.4 Z"></path>
                    <path d="M3889.9,202.6 C3889.9,202.6 3892.4,216.2 3887.3,217.6 C3882.2,219.1 3845.9,218.7 3845.6,216.6 C3845.3,214.6 3846.8,202.2 3850.9,201.3 C3855,200.6 3889.9,202.6 3889.9,202.6 Z"></path>
                    <path d="M3953.2,245.5 C3954.9,244.9 3963.6,245.9 3967.3,255.8 C3969.4,261.6 3967.9,265.3 3960.4,268.7 C3952.9,272.1 3943.2,268.7 3941.7,263.9 C3940.6,260.4 3942.9,249.9 3944.7,248.5 C3947.8,246 3953.2,245.5 3953.2,245.5 Z"></path>
                    <path d="M3854.6,244.7 C3854.6,244.7 3865.8,243.1 3870.7,247.4 C3875.6,251.6 3875.5,259.5 3873,264.7 C3870.9,269.1 3861.1,272.7 3855.3,269.1 C3850.6,266.1 3845.8,261.3 3847.4,255.7 C3849,249.8 3854.6,244.7 3854.6,244.7 Z"></path>
                    <path d="M3991.4,223.8 C3990.4,224.1 3985.7,223.2 3985.8,228 C3986,232.7 3985.6,241.1 3987.2,243.2 C3988.8,245.3 3991.5,245.4 3991.5,245.4"></path>
                    <path d="M4358.5,205.5 C4358.5,205.5 4365.5,191.5 4387.5,192.5 C4409.5,193.5 4418.5,204.5 4422.5,223.5 C4416.5,223.5 4416.5,223.5 4416.5,223.5 C4416.5,223.5 4412.5,215.5 4406.5,216.5 C4400.5,217.5 4396.5,221.5 4395.5,223.5 C4394.5,225.5 4361.5,224.5 4361.5,224.5 L4355.5,224.5 C4355.5,224.5 4354.5,216.5 4348.5,216.5 C4342.5,216.5 4336.5,221.5 4336.5,223.5 C4336.5,225.5 4329.5,224.5 4329.5,224.5 C4329.5,224.5 4331.5,205.5 4358.5,205.5 Z"></path>
                    <path d="M4363.5,205.5 C4364.5,204.5 4375.5,196.5 4383.5,201.5 C4383.5,207.5 4383.5,208.5 4383.5,208.5 C4383.5,208.5 4362.5,208.5 4362.5,207.5 C4362.5,206.5 4363.5,205.5 4363.5,205.5 Z"></path>
                    <path d="M4388.5,200.5 L4389.5,207.5 C4389.5,207.5 4399.5,207.5 4400.5,208.5 C4401.5,209.5 4405.5,207.5 4402.5,205.5 C4399.5,203.5 4388.5,200.5 4388.5,200.5 Z"></path>
                    <path d="M4336.5,224.5 C4336.5,224.5 4341.5,233.5 4346.5,231.5 C4351.5,229.5 4355.5,227.5 4355.5,224.5"></path>
                    <path d="M4396.5,222.5 C4396.5,222.5 4399.5,234.5 4406.5,231.5 C4413.5,228.5 4416.5,225.5 4415.5,222.5"></path>
                    <path d="M4337.5,211.5 C4337.5,211.5 4359.5,205.5 4363.5,223.5"></path>
                    <path d="M4419.5,222.5 C4419.5,220.5 4418.5,213.5 4407.5,211.5 C4396.5,209.5 4392.5,223.5 4392.5,223.5"></path>
                    <path d="M3695.5,203.5 C3695.5,203.5 3702.5,189.5 3724.5,190.5 C3746.5,191.5 3755.5,202.5 3759.5,221.5 C3753.5,221.5 3753.5,221.5 3753.5,221.5 C3753.5,221.5 3749.5,213.5 3743.5,214.5 C3737.5,215.5 3733.5,219.5 3732.5,221.5 C3731.5,223.5 3698.5,222.5 3698.5,222.5 L3692.5,222.5 C3692.5,222.5 3691.5,214.5 3685.5,214.5 C3679.5,214.5 3673.5,219.5 3673.5,221.5 C3673.5,223.5 3666.5,222.5 3666.5,222.5 C3666.5,222.5 3668.5,203.5 3695.5,203.5 Z"></path>
                    <path d="M3700.5,203.5 C3701.5,202.5 3712.5,194.5 3720.5,199.5 C3720.5,205.5 3720.5,206.5 3720.5,206.5 C3720.5,206.5 3699.5,206.5 3699.5,205.5 C3699.5,204.5 3700.5,203.5 3700.5,203.5 Z"></path>
                    <path d="M3725.5,198.5 L3726.5,205.5 C3726.5,205.5 3736.5,205.5 3737.5,206.5 C3738.5,207.5 3742.5,205.5 3739.5,203.5 C3736.5,201.5 3725.5,198.5 3725.5,198.5 Z"></path>
                    <path d="M3733.5,220.5 C3733.5,220.5 3736.5,232.5 3743.5,229.5 C3750.5,226.5 3753.5,223.5 3752.5,220.5"></path>
                    <path d="M3674.5,220.5 C3674.5,220.5 3677.5,232.5 3684.5,229.5 C3691.5,226.5 3694.5,223.5 3693.5,220.5"></path>
                    <path d="M3674.5,209.5 C3674.5,209.5 3696.5,203.5 3700.5,221.5"></path>
                    <path d="M3756.5,220.5 C3756.5,218.5 3755.5,211.5 3744.5,209.5 C3733.5,207.5 3729.5,221.5 3729.5,221.5"></path>
                    <path d="M4264.2,223.8 C4264.2,223.8 4254.6,204.6 4224.4,206 C4194.2,207.4 4181.9,222.5 4176.4,248.5 C4184.6,248.5 4184.6,248.5 4184.6,248.5 C4184.6,248.5 4190.1,237.5 4198.3,238.9 C4206.5,240.3 4212,245.8 4213.4,248.5 C4214.8,251.2 4260,249.9 4260,249.9 L4268.2,249.9 C4268.2,249.9 4269.6,238.9 4277.8,238.9 C4286,238.9 4294.3,245.8 4294.3,248.5 C4294.3,251.2 4303.9,249.9 4303.9,249.9 C4303.9,249.9 4301.3,223.8 4264.2,223.8 Z"></path>
                    <path d="M4257.4,223.8 C4256,222.4 4240.9,211.5 4230,218.3 C4230,226.5 4230,227.9 4230,227.9 C4230,227.9 4258.8,227.9 4258.8,226.5 C4258.8,225.2 4257.4,223.8 4257.4,223.8 Z"></path>
                    <path d="M4223.1,216.9 L4221.7,226.5 C4221.7,226.5 4208,226.5 4206.6,227.9 C4205.2,229.3 4199.7,226.5 4203.9,223.8 C4208,221.1 4223.1,216.9 4223.1,216.9 Z"></path>
                    <path d="M4294.4,249.9 C4294.4,249.9 4287.5,262.2 4280.7,259.5 C4273.8,256.8 4268.4,254 4268.4,249.9"></path>
                    <path d="M4212.1,247.1 C4212.1,247.1 4208,263.6 4198.4,259.4 C4188.8,255.3 4184.7,251.2 4186.1,247.1"></path>
                    <path d="M4293,232 C4293,232 4262.8,223.8 4257.4,248.5"></path>
                    <path d="M4217.6,248.5 C4217.6,248.5 4212.1,229.3 4197,232 C4181.9,234.7 4180.5,244.3 4180.5,247.1"></path>
                    <path d="M3249.2,224.8 C3249.2,224.8 3239.6,205.6 3209.4,207 C3179.2,208.4 3166.9,223.5 3161.4,249.5 C3169.6,249.5 3169.6,249.5 3169.6,249.5 C3169.6,249.5 3175.1,238.5 3183.3,239.9 C3191.5,241.3 3197,246.8 3198.4,249.5 C3199.8,252.2 3245,250.9 3245,250.9 L3253.2,250.9 C3253.2,250.9 3254.6,239.9 3262.8,239.9 C3271,239.9 3279.3,246.8 3279.3,249.5 C3279.3,252.2 3288.9,250.9 3288.9,250.9 C3288.9,250.9 3286.3,224.8 3249.2,224.8 Z"></path>
                    <path d="M3242.4,224.8 C3241,223.4 3225.9,212.5 3215,219.3 C3215,227.5 3215,228.9 3215,228.9 C3215,228.9 3243.8,228.9 3243.8,227.5 C3243.8,226.2 3242.4,224.8 3242.4,224.8 Z"></path>
                    <path d="M3208.1,217.9 L3206.7,227.5 C3206.7,227.5 3193,227.5 3191.6,228.9 C3190.2,230.3 3184.7,227.5 3188.9,224.8 C3193,222.1 3208.1,217.9 3208.1,217.9 Z"></path>
                    <path d="M3279.4,250.9 C3279.4,250.9 3272.5,263.2 3265.7,260.5 C3258.8,257.8 3253.4,255 3253.4,250.9"></path>
                    <path d="M3197.1,248.1 C3197.1,248.1 3193,264.6 3183.4,260.4 C3173.8,256.3 3169.7,252.2 3171.1,248.1"></path>
                    <path d="M3278,233 C3278,233 3247.8,224.8 3242.4,249.5"></path>
                    <path d="M3202.6,249.5 C3202.6,249.5 3197.1,230.3 3182,233 C3166.9,235.7 3165.5,245.3 3165.5,248.1"></path>
                </g>
            </g>
        </g>
    </g>
</svg>