<svg width="160" height="145" viewBox="0 0 160 145" fill="none" xmlns="http://www.w3.org/2000/svg">
<g clip-path="url(#clip0_1956_282775)">
<path d="M3.33766 57.8012C9.72885 59.8562 16.3686 56.0226 22.0639 52.3311C28.7462 48.0044 35.7836 43.2817 39.1567 35.824C41.0386 31.6468 41.8055 26.6101 45.1858 23.6584C47.5931 21.5661 50.8668 20.9833 54.0056 20.9085C64.2102 20.6545 75.4942 24.6897 84.0016 18.7489C89.5548 14.8706 92.3173 7.58469 97.906 3.76614C104.113 -0.47087 112.734 0.694909 118.77 5.20841C124.806 9.72191 128.534 16.9928 130.565 24.4804C131.154 26.655 131.644 28.9192 132.845 30.7949C137.105 37.5203 147.267 35.6521 153.481 40.3898C157.032 43.1098 158.913 47.8624 158.949 52.4955C158.984 57.1286 157.38 61.6496 155.107 65.6251C152.7 69.8322 149.426 74.0841 149.881 78.9638C150.342 83.5819 154.141 87.251 154.624 91.8691C155.171 97.1 151.407 101.584 147.566 104.954C142.971 108.933 137.897 112.258 132.475 114.84C133.491 120.759 138.952 125.623 138.156 131.586C137.828 133.575 136.979 135.427 135.706 136.937C131.289 142.511 123.776 144.41 116.909 143.752C110.042 143.094 103.566 140.225 97.0894 137.714C90.9633 135.348 84.7425 133.27 78.4271 131.482C74.5853 130.398 70.5801 129.412 66.6602 130.107C62.584 130.854 59.0049 133.268 55.3478 135.293C48.6867 138.984 40.435 141.346 33.7597 137.714C29.293 135.285 26.0406 130.436 21.1478 129.233C18.1365 128.585 15.0041 129.211 12.4274 130.974C10.8438 132.012 9.33117 133.432 7.45642 133.529C4.94255 133.664 2.86898 131.213 2.30087 128.635C1.73277 126.057 2.30087 123.404 2.64883 120.759C5.64559 99.9247 -1.66168 78.4183 2.22275 57.7413" fill="#FAB0A4"/>
<path d="M3.05339 58.8846C8.02432 60.4165 13.116 58.7203 17.5969 56.3141C21.7914 54.026 25.8131 51.4028 29.6265 48.4677C33.1772 45.7551 36.529 42.6166 38.8583 38.6636C41.1307 34.8376 41.7698 30.1745 44.1843 26.4457C46.9467 22.1788 52.1165 21.8873 56.569 22.0442C61.2701 22.2161 65.9214 22.9933 70.6225 23.1203C75.0609 23.2324 79.627 22.687 83.547 20.3405C87.2965 18.0987 89.8458 14.4146 92.4875 10.9324C95.1292 7.45008 98.1686 4.03507 102.543 2.81703C106.786 1.7425 111.252 2.27152 115.162 4.31156C119.148 6.44173 122.5 9.6866 124.848 13.6898C127.376 17.8222 128.775 22.3132 130.096 26.9911C130.632 29.2836 131.718 31.3933 133.249 33.1188C134.554 34.4244 136.095 35.4409 137.78 36.1079C141.224 37.5426 144.959 37.9611 148.482 39.1567C150.242 39.6921 151.888 40.5774 153.332 41.7647C154.979 43.2283 156.226 45.1265 156.946 47.2646C158.601 52.0844 157.791 57.3303 155.789 61.8961C153.786 66.4619 150.25 70.3104 149.085 75.2423C148.559 77.4713 148.685 79.8156 149.447 81.9678C150.2 84.0825 151.35 85.988 152.288 88.0131C153.34 89.9717 153.745 92.2427 153.438 94.4695C152.926 96.7741 151.849 98.8972 150.314 100.627C147.104 104.505 142.843 107.562 138.675 110.177C136.486 111.554 134.227 112.801 131.907 113.913C131.707 114.041 131.552 114.232 131.463 114.46C131.375 114.687 131.359 114.938 131.417 115.176C132.042 118.591 133.91 121.506 135.415 124.532C136.977 127.686 137.886 131.018 136.125 134.329C132.788 140.681 125.196 142.975 118.734 142.788C110.646 142.556 103.054 138.827 95.5624 136.003C91.5194 134.478 87.4337 133.081 83.3055 131.811C79.3003 130.578 75.2029 129.225 71.0131 128.866C66.8233 128.508 63.2016 129.711 59.58 131.646C56.1429 133.492 52.8834 135.607 49.212 136.877C45.775 138.103 42.0255 138.835 38.4109 138.177C34.7963 137.52 32.0197 135.405 29.2715 133.021C26.7647 130.876 24.1017 128.627 20.8209 128.037C17.114 127.364 13.7196 128.687 10.6731 130.839C9.33095 131.788 7.74025 132.916 6.07854 132.169C5.37102 131.795 4.7539 131.256 4.27402 130.593C3.79413 129.93 3.46411 129.16 3.30903 128.343C2.83324 126.243 3.2096 124.017 3.52916 121.924C3.84872 119.832 4.08307 117.754 4.2393 115.662C5.43232 98.4749 0.944291 81.5044 2.38586 64.3546C2.56395 62.2383 2.84601 60.1332 3.23092 58.0477C3.49367 56.6428 1.44138 56.0375 1.17863 57.4573C-2.08798 75.1003 2.48527 92.8106 2.30773 110.513C2.30773 112.755 2.18703 114.997 1.98819 117.179C1.78935 119.361 1.38458 121.618 1.12893 123.845C0.702854 127.581 1.28514 132.065 4.7932 133.978C5.52845 134.38 6.34179 134.6 7.17042 134.619C7.99905 134.639 8.82083 134.457 9.5724 134.09C11.2838 133.342 12.6686 131.945 14.3587 131.101C15.9969 130.308 17.8035 129.979 19.5995 130.147C21.3956 130.315 23.1189 130.973 24.5988 132.057C27.5104 134.03 29.8893 136.787 32.9571 138.521C36.297 140.323 40.0838 140.996 43.8008 140.449C47.6336 139.891 51.3498 138.659 54.7937 136.802C58.3869 134.934 61.7672 132.446 65.7084 131.422C70.0757 130.279 74.5496 131.512 78.782 132.722C83.0143 133.933 87.2538 135.293 91.4365 136.78C99.4894 139.649 107.379 143.64 115.901 144.731C122.661 145.598 130.217 144.141 135.266 139.022C137.886 136.369 139.683 132.812 139.157 128.911C138.682 125.399 136.686 122.395 135.167 119.316C134.375 117.812 133.801 116.193 133.462 114.511L132.972 115.774C137.79 113.465 142.339 110.579 146.529 107.173C150.165 104.184 153.985 100.657 155.292 95.837C155.882 93.6244 155.8 91.2728 155.057 89.1116C154.312 86.8698 153.097 84.912 152.117 82.8122C151.067 80.8341 150.674 78.5432 151.002 76.3035C151.457 73.83 152.707 71.6255 153.964 69.5108C156.662 64.9898 159.176 60.4987 159.815 55.0885C160.137 52.7148 159.994 50.2968 159.394 47.9835C158.794 45.6703 157.751 43.5107 156.328 41.6377C153.744 38.3721 149.895 36.9747 146.095 36.0107C142.602 35.1215 138.731 34.5909 135.742 32.3341C134.06 30.9771 132.854 29.0718 132.312 26.9164C131.602 24.4729 130.991 21.9995 130.096 19.6082C128.474 15.0751 126.015 10.925 122.86 7.39779C116.71 0.769513 106.64 -2.50349 98.481 2.01001C94.5966 4.15467 91.9762 7.94334 89.3132 11.463C86.5366 15.1321 83.5327 18.405 79.1583 19.8099C70.0047 22.7467 60.3895 18.6143 51.101 19.9445C48.7481 20.2042 46.5043 21.1228 44.6032 22.6047C42.9424 24.0961 41.6529 25.9918 40.8467 28.127C39.9874 30.1895 39.3625 32.3566 38.5103 34.419C37.6017 36.6137 36.3804 38.6497 34.8886 40.4569C31.9061 44.0812 28.1424 46.8685 24.3219 49.4242C20.1037 52.2488 15.7292 55.3127 10.8293 56.6428C8.44991 57.334 5.93699 57.334 3.55758 56.6428C3.29086 56.5814 3.01193 56.6301 2.77835 56.7789C2.54478 56.9277 2.3744 57.1651 2.3024 57.4423C2.23041 57.7194 2.2623 58.015 2.39147 58.2682C2.52065 58.5213 2.73725 58.7125 2.99656 58.8024L3.05339 58.8846Z" fill="#FAB0A4"/>
<path d="M36.7498 70.0788L35.0312 65.1768L60.4824 53.5193C62.698 52.503 64.9065 51.4942 67.1505 50.5302C69.2809 49.6484 71.4611 48.8489 73.627 48.0493L84.3358 44.1037C86.9913 43.0609 89.7042 42.1875 92.4597 41.4883C93.0422 43.632 93.5022 45.8104 93.8373 48.0119C90.7767 49.9548 87.3751 51.1953 84.002 52.4283L71.9297 56.8372L59.0266 61.5524C57.1235 62.2474 55.2203 62.9423 53.3456 63.7942C51.3643 64.691 49.4469 65.7446 47.4657 66.6339C43.9563 68.1127 40.3545 69.3361 36.6858 70.2955" fill="#4E51F2"/>
<path d="M37.7789 69.7798L36.0533 64.8778L35.5633 66.1481L57.7976 55.9629C61.4193 54.3039 65.0267 52.5927 68.7194 51.128C72.4121 49.6634 76.19 48.3258 79.9324 46.9508C84.1577 45.389 88.3688 43.6404 92.7148 42.6092L91.4082 41.8619C91.9924 43.9894 92.4619 46.15 92.8142 48.3333L93.3042 47.0704C89.995 49.1404 86.3449 50.4182 82.7232 51.7409L71.1623 55.9629L59.7504 60.1327C56.0357 61.4873 52.3902 63.0437 48.8286 64.7956C44.8241 66.6522 40.676 68.1447 36.4297 69.2568C36.165 69.3429 35.9426 69.534 35.8096 69.7898C35.6767 70.0456 35.6437 70.3458 35.7176 70.6268C35.7915 70.9078 35.9665 71.1473 36.2055 71.2947C36.4445 71.4421 36.7287 71.4858 36.9978 71.4164C40.7542 70.442 44.4416 69.1935 48.0333 67.6801C49.908 66.8282 51.7259 65.8418 53.6007 64.9824C55.3618 64.1754 57.1514 63.4879 58.9977 62.8378L82.2759 54.3339C86.3946 52.8393 90.6057 51.427 94.3481 49.103C94.5471 48.975 94.7019 48.7833 94.7901 48.5561C94.8782 48.3289 94.8951 48.078 94.8381 47.84C94.4997 45.6367 94.0397 43.456 93.4605 41.3089C93.3738 41.0329 93.1904 40.802 92.9477 40.6632C92.7049 40.5244 92.4211 40.4881 92.1538 40.5617C88.2638 41.6115 84.4346 42.8965 80.6852 44.4101C76.8789 45.815 73.0512 47.1825 69.2662 48.6472C61.7175 51.554 54.4032 55.2006 47.0391 58.5708L34.4697 64.3323C34.2665 64.4558 34.1081 64.6469 34.0194 64.8755C33.9307 65.1041 33.9168 65.3573 33.9797 65.5952L35.7053 70.4973C36.174 71.8349 38.2334 71.2445 37.7576 69.8994L37.7789 69.7798Z" fill="#16276A"/>
<path d="M35.2937 80.563C36.5223 92.2652 36.2524 104.244 36.501 115.729C36.501 116.634 36.6288 117.687 37.3531 118.173C37.8031 118.411 38.3079 118.509 38.8089 118.457C43.3111 118.457 47.8063 118.307 52.3014 118.166L60.7378 117.896L92.3742 116.903C92.9915 116.941 93.6067 116.796 94.1495 116.484C95.165 115.737 95.0514 114.168 94.8951 112.882C94.6135 109.986 94.5092 107.073 94.5827 104.162L94.7034 80.7722C82.7306 80.9865 70.7554 81.0362 58.7778 80.9217C50.9664 80.8469 43.1123 80.705 35.2866 80.563" fill="#4E51F2"/>
<path d="M34.2218 80.5631C35.1734 89.7396 35.2231 98.9833 35.3225 108.212C35.3225 110.479 35.3533 112.748 35.4149 115.02C35.4504 116.679 35.5356 118.704 37.2825 119.369C38.117 119.592 38.9817 119.662 39.839 119.578C40.9965 119.578 42.1469 119.578 43.3044 119.533C45.4916 119.488 47.6836 119.431 49.8803 119.361C58.7711 119.092 67.662 118.813 76.5529 118.524L89.9105 118.098C91.5367 118.046 93.9014 118.412 95.1583 117.045C96.4153 115.677 96.0673 113.936 95.904 112.337C95.3643 107.188 95.6554 101.875 95.6838 96.734L95.7691 80.7724C95.7654 80.4763 95.652 80.1934 95.453 79.984C95.254 79.7747 94.9852 79.6553 94.7038 79.6515C79.223 79.9255 63.7421 79.9255 48.2612 79.6515L35.287 79.4272C33.9094 79.4272 33.9094 81.6691 35.287 81.6691C50.7466 81.953 66.2062 82.1697 81.6729 82.0502C86.0189 82.0103 90.3626 81.953 94.7038 81.8783L93.6386 80.7574C93.5889 89.5826 93.4256 98.4153 93.5179 107.241C93.5179 109.296 93.7026 111.313 93.8872 113.361C93.9369 113.944 94.086 114.9 93.6884 115.408C93.2907 115.916 91.9485 115.782 91.3165 115.797L78.8395 116.193L53.7079 116.985C49.6601 117.112 45.6195 117.247 41.5717 117.299C40.5704 117.299 39.5478 117.381 38.5465 117.299C37.7157 117.254 37.6092 116.753 37.5737 115.946C37.4671 113.839 37.4884 111.717 37.4671 109.609C37.3606 99.8949 37.3535 90.1804 36.3522 80.5257C36.2031 79.1059 34.0727 79.091 34.2218 80.5257V80.5631Z" fill="#16276A"/>
<path d="M35.5064 82.1097C53.6148 82.3936 71.2616 82.857 89.3557 81.8706C91.4222 81.7585 93.4958 81.6315 95.5694 81.7137C95.4913 79.5167 95.4913 77.3272 95.5694 75.1377C86.0016 75.2722 76.4313 75.3544 66.8588 75.3843H60.9576L35.4922 75.4366C35.549 77.4094 35.4922 80.122 35.4922 82.0873" fill="#4E51F2"/>
<path d="M35.5066 83.2309C51.1296 83.4775 66.7525 83.8587 82.3257 83.3057C86.7285 83.1488 91.1669 82.6854 95.5697 82.8349C95.851 82.831 96.1199 82.7117 96.3188 82.5023C96.5178 82.2929 96.6312 82.0101 96.6349 81.714C96.5639 79.517 96.5639 77.325 96.6349 75.138C96.6349 74.8407 96.5227 74.5556 96.3229 74.3454C96.1231 74.1352 95.8522 74.0171 95.5697 74.0171C79.9468 74.2338 64.3593 74.2786 48.7577 74.3085H35.4924C35.2111 74.3124 34.9423 74.4317 34.7433 74.6411C34.5443 74.8505 34.4309 75.1334 34.4272 75.4294C34.4841 77.6712 34.4272 79.8682 34.4272 82.0801C34.4272 83.5224 36.5576 83.5298 36.5576 82.0801C36.5008 79.8383 36.5576 77.6488 36.5576 75.4294L35.4924 76.5503C51.1154 76.5503 66.6886 76.5504 82.2831 76.3785C86.7143 76.3386 91.1432 76.2888 95.5697 76.229L94.5045 75.1081C94.4382 77.2951 94.4382 79.4871 94.5045 81.6841L95.5697 80.5632C91.6853 80.4361 87.7582 80.8248 83.9022 80.9742C80.0462 81.1237 76.0907 81.2282 72.1921 81.273C64.3806 81.3777 56.6189 81.273 48.8358 81.1759L35.5066 80.9592C35.2241 80.9592 34.9532 81.0773 34.7534 81.2875C34.5537 81.4978 34.4414 81.7829 34.4414 82.0801C34.4414 82.3774 34.5537 82.6625 34.7534 82.8728C34.9532 83.083 35.2241 83.2011 35.5066 83.2011V83.2309Z" fill="#16276A"/>
<path d="M41.8696 73.165C42.2105 71.6704 41.4294 70.3552 40.5843 69.0475C40.1789 68.3817 39.6354 67.8214 38.9946 67.4085C38.3537 66.9956 37.6323 66.741 36.8845 66.6638C36.0683 66.6563 35.2653 66.8798 34.5594 67.311C33.8535 67.7423 33.2708 68.3653 32.8722 69.1148C32.4905 69.8728 32.255 70.7027 32.1794 71.5569C32.1039 72.411 32.1897 73.2725 32.432 74.0916C32.6537 75.0306 33.1506 75.8724 33.8522 76.4977C34.4498 76.908 35.1338 77.1579 35.8444 77.2257C36.555 77.2934 37.2705 77.1769 37.9284 76.8863C39.6541 76.225 41.0693 74.8859 41.8767 73.15" fill="#4E51F2"/>
<path d="M42.8922 73.4564C43.1335 72.0402 42.8378 70.5808 42.0684 69.3913C41.4794 68.2797 40.6706 67.3139 39.6966 66.5592C38.7323 65.857 37.5727 65.5138 36.402 65.5842C35.2312 65.6546 34.1164 66.1345 33.2344 66.9478C31.2602 68.674 30.7347 71.6107 31.3454 74.144C31.6144 75.4552 32.3071 76.6277 33.3054 77.4618C34.2733 78.1664 35.4535 78.4722 36.6217 78.3212C37.9307 78.1529 39.1793 77.6447 40.2553 76.8425C41.3313 76.0403 42.2008 74.9691 42.7857 73.7254C42.9098 73.4708 42.9393 73.1765 42.8684 72.9002C42.7975 72.6238 42.6313 72.3852 42.4022 72.2309C42.1578 72.0835 41.8681 72.0432 41.5957 72.1187C41.3233 72.1942 41.0901 72.3795 40.9464 72.6345C40.5983 73.4005 40.1079 74.0854 39.5042 74.6489C38.9005 75.2123 38.1956 75.6428 37.4313 75.915C36.6982 76.1904 35.9023 76.2217 35.1517 76.0047C34.8095 75.8732 34.4987 75.6646 34.2411 75.3936C33.9835 75.1225 33.7853 74.7955 33.6605 74.4354C33.3016 73.6084 33.1516 72.6979 33.225 71.792C33.2983 70.8861 33.5927 70.0154 34.0794 69.2643C34.5107 68.6315 35.136 68.1746 35.85 67.9704C36.564 67.7662 37.3231 67.8273 37.9994 68.1434C38.8143 68.5902 39.4916 69.2719 39.9522 70.1087C40.4564 70.9232 41.0458 71.8872 40.8399 72.9035C40.7716 73.1896 40.811 73.4925 40.95 73.7487C41.089 74.005 41.3167 74.1948 41.5855 74.2784C41.8577 74.3563 42.1481 74.3174 42.393 74.1703C42.638 74.0232 42.8175 73.78 42.8922 73.4938V73.4564Z" fill="#16276A"/>
<path d="M79.9614 46.2786C81.6515 48.1617 83.4269 49.9626 85.2661 51.6813L88.1066 50.4932C86.1183 49.1855 84.9111 46.8689 83.0363 45.3744C82.9514 45.2917 82.8452 45.237 82.7309 45.2174C82.6054 45.2148 82.4819 45.2512 82.3759 45.322C81.7652 45.6434 80.5935 45.9572 79.9756 46.2786" fill="#16276A"/>
<path d="M79.2085 47.0707C80.9081 48.9538 82.6763 50.7547 84.5132 52.4734C84.6464 52.6136 84.8126 52.7138 84.9949 52.7637C85.1772 52.8136 85.3688 52.8115 85.55 52.7574L88.3905 51.5767C88.588 51.5126 88.7639 51.3902 88.8972 51.224C89.0305 51.0578 89.1157 50.8548 89.1426 50.6392C89.1696 50.4236 89.1371 50.2044 89.0491 50.0076C88.9611 49.8108 88.8212 49.6448 88.6462 49.5292C87.1407 48.5129 86.0542 46.8091 84.7546 45.4715C84.3936 45.0804 83.999 44.7251 83.5758 44.4104C83.3046 44.2272 82.9891 44.1299 82.6668 44.1299C82.3446 44.1299 82.0291 44.2272 81.7579 44.4104C81.5874 44.4926 81.7579 44.4104 81.6798 44.4104L81.4099 44.515L80.7779 44.7466C80.3222 44.901 79.8763 45.0857 79.4429 45.2996C79.2099 45.4503 79.0404 45.689 78.9691 45.9668C78.8979 46.2446 78.9301 46.5405 79.0594 46.7941C79.2068 47.0448 79.4399 47.2264 79.7108 47.3015C79.9816 47.3766 80.2695 47.3394 80.5151 47.1977C80.5151 47.1977 80.7495 47.0856 80.6572 47.123L80.8347 47.0557L81.4028 46.8465C81.8218 46.697 82.2408 46.5476 82.6526 46.3607C82.7308 46.3382 82.8051 46.3029 82.8728 46.2561C82.9935 46.2038 82.9225 46.1963 82.6598 46.2561C82.397 46.3159 82.326 46.2562 82.5035 46.3234C82.6211 46.442 82.7444 46.5542 82.8728 46.6597C83.1923 46.966 83.4977 47.2874 83.7889 47.6162C84.989 48.9688 86.0684 50.4334 87.5668 51.4422L87.8224 49.3947L84.9819 50.5753L86.0187 50.8668C84.1771 49.1481 82.4088 47.3472 80.714 45.4641C79.7695 44.4104 78.2711 46.0021 79.2085 47.0483V47.0707Z" fill="#16276A"/>
<path d="M70.9209 49.5139C72.611 51.397 74.3863 53.198 76.2256 54.9092L79.0661 53.7285C77.0777 52.4207 75.8705 50.1042 73.9958 48.6097C73.9095 48.5275 73.8042 48.4709 73.6904 48.4453C73.5659 48.4502 73.4442 48.486 73.3353 48.5499C72.7246 48.8787 71.5529 49.1925 70.9351 49.5139" fill="#16276A"/>
<path d="M70.168 50.3062C71.8652 52.1819 73.6334 53.9902 75.4727 55.7089C75.607 55.8471 75.7734 55.946 75.9552 55.9958C76.1371 56.0456 76.3281 56.0446 76.5095 55.9929L79.35 54.8123C79.5475 54.7482 79.7234 54.6257 79.8567 54.4595C79.99 54.2933 80.0752 54.0904 80.1021 53.8748C80.129 53.6592 80.0966 53.4399 80.0086 53.2431C79.9205 53.0463 79.7807 52.8804 79.6056 52.7648C78.1002 51.7485 77.0137 50.0446 75.7141 48.6996C75.3512 48.3105 74.9568 47.9554 74.5353 47.6384C74.2641 47.4553 73.9486 47.3579 73.6263 47.3579C73.3041 47.3579 72.9886 47.4553 72.7174 47.6384C72.5469 47.7206 72.7529 47.6384 72.6392 47.6384L72.3694 47.743L71.7374 47.9673C71.2828 48.125 70.8371 48.3096 70.4023 48.5202C70.1694 48.6709 69.9999 48.9096 69.9286 49.1874C69.8573 49.4652 69.8896 49.7612 70.0188 50.0148C70.165 50.2668 70.3982 50.4496 70.6696 50.5249C70.9409 50.6001 71.2294 50.5619 71.4746 50.4183L71.6166 50.351L71.7942 50.2838L72.3623 50.0745C72.7813 49.9251 73.2002 49.7757 73.6121 49.5889C73.6902 49.5663 73.7645 49.531 73.8323 49.4842C73.953 49.4319 73.882 49.417 73.6192 49.4842C73.3565 49.5515 73.2855 49.4842 73.463 49.544C73.5803 49.6652 73.7036 49.7799 73.8323 49.8877C74.1518 50.1866 74.4572 50.5079 74.7483 50.8367C75.9485 52.1968 77.0279 53.6539 78.5262 54.6702L78.7819 52.6152L75.9414 53.8034L76.9782 54.0873C75.1413 52.3686 73.3731 50.5702 71.6735 48.6921C70.729 47.6384 69.2306 49.2301 70.168 50.2763V50.3062Z" fill="#16276A"/>
<path d="M61.4624 52.9514C63.1525 54.8345 64.9207 56.6354 66.7671 58.3541L69.6076 57.1659C67.6121 55.8582 66.4049 53.5417 64.5373 52.0472C64.4497 51.9642 64.3412 51.9097 64.2248 51.8903C64.1015 51.8878 63.9803 51.9242 63.8768 51.9949C63.259 52.3162 62.0873 52.6301 61.4766 52.9514" fill="#16276A"/>
<path d="M60.7099 53.7436C62.4 55.6267 64.1682 57.4276 66.0146 59.1463C66.1454 59.2878 66.3104 59.3892 66.4919 59.4392C66.6733 59.4892 66.8643 59.4861 67.0443 59.4303L69.8848 58.2496C70.0823 58.1855 70.2582 58.0631 70.3915 57.897C70.5248 57.7308 70.61 57.5278 70.6369 57.3121C70.6639 57.0965 70.6314 56.8773 70.5434 56.6805C70.4554 56.4838 70.3155 56.3177 70.1405 56.2021C68.635 55.1858 67.5556 53.482 66.256 52.1444C65.8909 51.7549 65.4941 51.3999 65.0701 51.0833C64.7989 50.9002 64.4834 50.8027 64.1611 50.8027C63.8389 50.8027 63.5234 50.9002 63.2522 51.0833C63.0888 51.1655 63.2948 51.0833 63.1741 51.0833L62.9113 51.1879L62.2722 51.4196C61.8169 51.5753 61.3711 51.76 60.9371 51.9725C60.7055 52.1245 60.5371 52.3631 60.466 52.6404C60.3948 52.9177 60.4262 53.2131 60.5537 53.4671C60.7011 53.7177 60.9342 53.8993 61.2051 53.9743C61.4759 54.0494 61.7638 54.0123 62.0094 53.8706C62.0094 53.8706 62.2509 53.7586 62.1515 53.7959L62.329 53.7286L62.8971 53.5193C63.3232 53.3699 63.7351 53.2205 64.1469 53.0337C64.2273 53.0112 64.3039 52.9759 64.3742 52.9291C64.4878 52.8767 64.4168 52.8693 64.154 52.9291C63.8913 52.9888 63.8274 52.929 63.9978 52.9963C64.1165 53.1166 64.2422 53.2288 64.3742 53.3325C64.6937 53.6389 64.992 53.9602 65.2832 54.289C66.4833 55.6416 67.5627 57.1062 69.0682 58.1151L69.3238 56.0675L66.4833 57.2483L67.5201 57.5396C65.6737 55.8209 63.9055 54.02 62.2154 52.1369C61.2709 51.0907 59.7654 52.6749 60.7099 53.7211V53.7436Z" fill="#16276A"/>
<path d="M52.2939 57.3006C53.8207 58.9297 55.4256 60.4915 57.0873 61.9785L59.6438 60.9548C57.8472 59.8189 56.7536 57.8087 55.0635 56.516C54.982 56.4436 54.8841 56.3948 54.7794 56.374C54.6671 56.3793 54.5576 56.4126 54.4598 56.4712C53.9059 56.7477 52.8478 57.0167 52.2939 57.3006Z" fill="#16276A"/>
<path d="M51.5414 58.0852C53.0752 59.7142 54.673 61.2835 56.3348 62.7631C56.4676 62.9039 56.6336 63.005 56.8157 63.0562C56.9979 63.1074 57.1897 63.1067 57.3715 63.0544L59.928 62.0307C60.127 61.9677 60.3048 61.8464 60.4406 61.681C60.5764 61.5156 60.6646 61.3129 60.695 61.0966C60.7229 60.8787 60.6894 60.6569 60.5984 60.459C60.5075 60.261 60.3633 60.0955 60.1837 59.9832C59.5181 59.5273 58.9138 58.9794 58.387 58.3542C57.8118 57.719 57.265 57.0539 56.6614 56.4561C56.3294 56.1213 55.9732 55.814 55.5962 55.5369C55.3337 55.3663 55.0313 55.2759 54.7227 55.2759C54.4142 55.2759 54.1118 55.3663 53.8493 55.5369C53.9984 55.4697 53.8919 55.5369 53.8067 55.5369L53.5581 55.6266L52.9332 55.8434C52.5315 55.9748 52.1378 56.132 51.7544 56.3141C51.5214 56.4648 51.352 56.7034 51.2807 56.9812C51.2094 57.259 51.2417 57.5551 51.3709 57.8087C51.5171 58.0607 51.7503 58.2435 52.0216 58.3187C52.293 58.3939 52.5815 58.3557 52.8267 58.2121C53.0752 58.0926 52.6989 58.2644 52.8622 58.2121L53.0966 58.1225L53.6079 57.9431C53.9416 57.831 54.2683 57.719 54.5878 57.5845C54.7072 57.5505 54.8217 57.5003 54.9287 57.435C55.0944 57.3703 55.0234 57.3553 54.7157 57.3902C54.4387 57.3304 54.3535 57.3379 54.4813 57.3902C54.6091 57.4425 54.6517 57.5247 54.808 57.6666C55.0991 57.9282 55.3761 58.2121 55.6459 58.5036C56.6652 59.7702 57.8292 60.8997 59.1114 61.8663L59.367 59.8113L56.8105 60.8425L57.8402 61.1265C56.1785 59.632 54.5807 58.0727 53.0468 56.4486C52.0811 55.4174 50.5756 57.0016 51.5414 58.0328V58.0852Z" fill="#16276A"/>
<path d="M42.6436 61.889C44.0638 63.3835 45.5646 64.8008 47.1458 66.1409L49.546 65.2068C47.8559 64.1756 46.8333 62.3522 45.2426 61.179C45.1659 61.1168 45.0756 61.0757 44.9799 61.0595C44.8747 61.053 44.7703 61.0817 44.6816 61.1417C44.1632 61.3958 43.162 61.6349 42.6436 61.889Z" fill="#16276A"/>
<path d="M41.891 62.6809C42.9704 63.7919 44.0829 64.868 45.2286 65.9092L46.0878 66.6565C46.2474 66.8199 46.4209 66.9674 46.6062 67.0973C46.7616 67.1844 46.9339 67.2331 47.1099 67.2395C47.2858 67.246 47.4609 67.2102 47.6217 67.1347L49.8302 66.2828C50.0277 66.2187 50.2036 66.0963 50.3369 65.9302C50.4702 65.764 50.5554 65.561 50.5823 65.3454C50.6093 65.1297 50.5768 64.9105 50.4888 64.7138C50.4008 64.517 50.2609 64.3509 50.0859 64.2353C49.9083 64.1232 49.745 64.0112 49.5817 63.8841C49.5391 63.8841 49.3828 63.7271 49.4894 63.8243L49.2408 63.6002C48.9497 63.3386 48.6798 63.062 48.41 62.7781C47.8632 62.1877 47.3448 61.575 46.7625 61.0295C46.4442 60.7167 46.1022 60.4318 45.7399 60.1776C45.482 60.0037 45.1795 59.9177 44.8735 59.931C44.6994 59.9456 44.529 59.9911 44.3693 60.0655C44.2841 60.0655 44.0213 60.2075 44.2486 60.1179C43.5385 60.4018 42.8283 60.5886 42.1182 60.9174C41.8773 61.0699 41.7024 61.3154 41.6308 61.6014C41.5592 61.8875 41.5965 62.1917 41.7347 62.4493C41.8834 62.7005 42.1178 62.8823 42.3899 62.9573C42.6619 63.0324 42.9509 62.995 43.1976 62.8529C42.9633 62.965 43.155 62.8529 43.1976 62.8529L43.4177 62.7706L43.9006 62.6062C44.1989 62.5091 44.4971 62.412 44.7883 62.2924C44.9159 62.2526 45.0395 62.2 45.1576 62.1354H45.2286H44.6321C44.6321 62.1878 44.8451 62.2999 44.8877 62.3297H44.9303C45.2144 62.5763 45.4771 62.8304 45.7399 63.077C46.7059 64.2439 47.8055 65.2806 49.0136 66.1632L49.2692 64.1082L46.869 65.0423L47.9058 65.3338C46.353 63.9837 44.8522 62.5664 43.4035 61.0819C43.2004 60.879 42.9309 60.7658 42.6508 60.7658C42.3707 60.7658 42.1012 60.879 41.898 61.0819C41.702 61.2939 41.5923 61.5781 41.5923 61.8739C41.5923 62.1698 41.702 62.454 41.898 62.6661L41.891 62.6809Z" fill="#16276A"/>
<path d="M85.4148 75.646L82.5742 81.9753C83.9266 82.0552 85.2831 82.0152 86.6291 81.8558C86.7098 81.852 86.7872 81.8205 86.8492 81.7661C86.9009 81.7029 86.9396 81.629 86.9629 81.5493L89.0933 76.1093L85.2443 75.8328" fill="#16276A"/>
<path d="M84.4919 75.0783L81.6514 81.4076C81.5608 81.5784 81.5137 81.7709 81.5147 81.9665C81.5156 82.1621 81.5645 82.3541 81.6566 82.524C81.7487 82.6938 81.881 82.8358 82.0406 82.9361C82.2002 83.0364 82.3817 83.0916 82.5675 83.0964C83.4758 83.1488 84.3861 83.1488 85.2944 83.0964C85.7347 83.0964 86.182 83.0292 86.6223 82.9769C86.9365 82.9583 87.2383 82.8412 87.4887 82.6406C87.7218 82.4309 87.894 82.1564 87.9858 81.8485C88.6959 80.0401 89.406 78.2242 90.1162 76.4083C90.4002 75.6611 89.6972 75.0334 89.0936 74.9886L85.2447 74.7121C84.9633 74.716 84.6945 74.8353 84.4955 75.0447C84.2965 75.2541 84.1831 75.5369 84.1795 75.833C84.1866 76.1279 84.3012 76.4086 84.4994 76.6172C84.6976 76.8258 84.9644 76.9464 85.2447 76.9539L89.0936 77.2304L88.0639 75.8106L86.949 78.6576L86.4022 80.055L86.1252 80.75C86.0755 80.877 86.0329 81.0041 85.9761 81.1311C86.04 80.9891 85.9761 81.1311 85.9264 81.1984L86.3099 80.7948C86.3525 80.7948 86.459 80.7948 86.4945 80.75C86.4123 80.7654 86.3282 80.7654 86.2459 80.75L85.7347 80.8023L84.6623 80.8621C83.9522 80.8621 83.2421 80.8621 82.5675 80.8621L83.4906 82.551L86.3312 76.2141C86.457 75.9598 86.4874 75.665 86.4164 75.3881C86.3453 75.1113 86.178 74.8727 85.9477 74.7196C85.7029 74.5741 85.4138 74.5349 85.1419 74.6102C84.87 74.6856 84.6368 74.8695 84.4919 75.1231V75.0783Z" fill="#16276A"/>
<path d="M72.448 75.6162L69.6074 81.9456C70.9574 82.029 72.3117 81.9889 73.6552 81.826C73.7365 81.8253 73.8148 81.7934 73.8753 81.7363C73.9255 81.6748 73.9641 81.6039 73.9889 81.5271L76.1193 76.087L72.2704 75.8105" fill="#16276A"/>
<path d="M71.5104 75.0484L68.6699 81.3852C68.5786 81.5561 68.5312 81.7489 68.5322 81.9449C68.5333 82.1408 68.5829 82.3331 68.6761 82.5028C68.7692 82.6724 68.9028 82.8137 69.0636 82.9125C69.2244 83.0114 69.4068 83.0645 69.593 83.0666C70.4988 83.1226 71.407 83.1226 72.3128 83.0666C72.7602 83.0666 73.2005 83.0068 73.6408 82.947C73.955 82.9348 74.2579 82.82 74.5071 82.6183C74.7402 82.4086 74.9125 82.134 75.0043 81.8261C75.7144 80.0177 76.4245 78.1945 77.1346 76.3861C77.4187 75.6388 76.7228 75.0111 76.1121 74.9662L72.2631 74.6897C71.9812 74.6917 71.7113 74.8104 71.512 75.0202C71.3126 75.23 71.1998 75.514 71.1979 75.8106C71.2051 76.1055 71.3197 76.3863 71.5179 76.5949C71.7161 76.8035 71.9829 76.924 72.2631 76.9316L76.1121 77.208L75.0824 75.7882L73.9674 78.6353L73.4206 80.0253L73.1437 80.7202C73.094 80.8472 73.0514 80.9817 72.9946 81.1013C73.0585 80.9668 72.9946 81.1013 72.9448 81.1685L73.3283 80.7725C73.3709 80.7352 73.4775 80.7725 73.513 80.7202C73.5485 80.6679 73.3141 80.7202 73.2644 80.7202L72.7602 80.765C72.3981 80.765 72.0501 80.8173 71.6808 80.8248C70.9707 80.8248 70.2605 80.8248 69.593 80.8248L70.5091 82.5136L73.3496 76.1843C73.4754 75.9299 73.5059 75.6351 73.4348 75.3583C73.3638 75.0815 73.1965 74.8429 72.9662 74.6897C72.7222 74.5436 72.4337 74.5032 72.162 74.5772C71.8902 74.6511 71.6565 74.8336 71.5104 75.0858V75.0484Z" fill="#16276A"/>
<path d="M59.2468 75.646L56.4062 81.9753C57.7587 82.0552 59.1151 82.0152 60.4611 81.8558C60.5418 81.852 60.6192 81.8205 60.6812 81.7661C60.7329 81.7029 60.7716 81.629 60.7949 81.5493L62.9253 76.1093L59.0763 75.8328" fill="#16276A"/>
<path d="M58.323 75.0783L55.4824 81.4076C55.3919 81.5784 55.3448 81.7709 55.3457 81.9665C55.3466 82.1621 55.3955 82.3541 55.4877 82.524C55.5798 82.6938 55.7121 82.8358 55.8716 82.9361C56.0312 83.0364 56.2127 83.0916 56.3985 83.0964C57.3068 83.1488 58.2171 83.1488 59.1254 83.0964C59.5657 83.0964 60.0131 83.0292 60.4534 82.9769C60.7676 82.9583 61.0693 82.8412 61.3197 82.6406C61.5528 82.4309 61.7251 82.1564 61.8168 81.8485C62.527 80.0401 63.2371 78.2242 63.9472 76.4083C64.2313 75.6611 63.5283 75.0334 62.9246 74.9886L59.0757 74.7121C58.7943 74.716 58.5255 74.8353 58.3266 75.0447C58.1276 75.2541 58.0142 75.5369 58.0105 75.833C58.0177 76.1279 58.1322 76.4086 58.3305 76.6172C58.5287 76.8258 58.7955 76.9464 59.0757 76.9539L62.9246 77.2304L61.8949 75.8106L60.78 78.6576L60.2332 80.055L59.9563 80.75C59.9066 80.877 59.864 81.0041 59.8071 81.1311C59.8711 80.9891 59.8072 81.1311 59.7575 81.1984L60.1409 80.7948C60.1835 80.7948 60.29 80.7948 60.3256 80.75C60.2433 80.7654 60.1592 80.7654 60.077 80.75L59.5657 80.8023L58.4934 80.8621C57.7833 80.8621 57.0731 80.8621 56.3985 80.8621L57.3217 82.551L60.1622 76.2141C60.288 75.9598 60.3185 75.665 60.2474 75.3881C60.1764 75.1113 60.0091 74.8727 59.7788 74.7196C59.534 74.5741 59.2449 74.5349 58.973 74.6102C58.7011 74.6856 58.4679 74.8695 58.323 75.1231V75.0783Z" fill="#16276A"/>
<path d="M46.2512 75.646L43.4106 81.9753C44.7631 82.0552 46.1195 82.0152 47.4655 81.8558C47.5462 81.852 47.6236 81.8205 47.6857 81.7661C47.7373 81.7029 47.776 81.629 47.7993 81.5493L49.9297 76.1093L46.0808 75.8328" fill="#16276A"/>
<path d="M45.3274 75.0783L42.4868 81.4076C42.3963 81.5784 42.3492 81.7709 42.3501 81.9665C42.351 82.1621 42.3999 82.3541 42.4921 82.524C42.5842 82.6938 42.7165 82.8358 42.876 82.9361C43.0356 83.0364 43.2171 83.0916 43.4029 83.0964C44.3112 83.1488 45.2215 83.1488 46.1298 83.0964C46.5701 83.0964 47.0175 83.0292 47.4578 82.9769C47.7717 82.9569 48.0731 82.84 48.3241 82.6406C48.5573 82.4325 48.7276 82.1571 48.8141 81.8485C49.5243 80.0401 50.2344 78.2242 50.9445 76.4083C51.2286 75.6611 50.5255 75.0334 49.9219 74.9886L46.073 74.7121C45.7905 74.7121 45.5196 74.8302 45.3198 75.0404C45.12 75.2506 45.0078 75.5357 45.0078 75.833C45.015 76.1279 45.1295 76.4086 45.3278 76.6172C45.526 76.8258 45.7928 76.9464 46.073 76.9539L49.9219 77.2304L48.8922 75.8106L47.7773 78.6576L47.2305 80.055L46.9536 80.75C46.9039 80.877 46.8612 81.0041 46.8044 81.1311C46.8683 80.9891 46.8045 81.1311 46.7547 81.1984L47.1382 80.7948C47.1808 80.7948 47.2873 80.7948 47.3228 80.75C47.2406 80.7654 47.1565 80.7654 47.0743 80.75L46.563 80.8023L45.4907 80.8621C44.7806 80.8621 44.0704 80.8621 43.3603 80.8621L44.2835 82.551L47.124 76.2141C47.2498 75.9598 47.2802 75.665 47.2092 75.3881C47.1382 75.1113 46.9709 74.8727 46.7405 74.7196C46.4957 74.5741 46.2066 74.5349 45.9348 74.6102C45.6629 74.6856 45.4297 74.8695 45.2848 75.1231L45.3274 75.0783Z" fill="#16276A"/>
<path d="M41.3647 91.6748C47.5713 90.9275 53.8276 92.4744 60.0697 92.2577C61.7456 92.1979 63.4215 92.0111 65.0974 91.9513C66.9366 91.884 68.7759 91.9513 70.6222 92.0185C76.7234 92.2005 82.8294 92.0458 88.9152 91.5552" fill="#4E51F2"/>
<path d="M41.3656 92.7884C47.5012 92.1009 53.5941 93.5357 59.7297 93.3787C62.7406 93.304 65.709 92.9901 68.72 93.0798C71.8801 93.1695 75.033 93.2367 78.1931 93.1844C81.7438 93.1321 85.3513 92.9527 88.9161 92.6688C90.2796 92.5642 90.2867 90.3224 88.9161 90.427C82.5982 90.9239 76.2599 91.0736 69.9272 90.8754C66.902 90.7783 63.9337 90.9202 60.9085 91.0846C57.8438 91.188 54.776 91.0707 51.7265 90.7334C48.286 90.3313 44.8172 90.2688 41.3656 90.5466C40.0164 90.696 39.9951 92.9378 41.3656 92.7884Z" fill="#16276A"/>
<path d="M55.7027 93.4834C56.8105 98.7143 55.1701 104.252 55.6388 109.624L55.7027 93.4834Z" fill="#4E51F2"/>
<path d="M54.6734 93.7824C55.7244 99.0132 54.1479 104.349 54.574 109.625C54.6876 111.052 56.818 111.067 56.7044 109.625C56.2641 104.132 57.8264 98.6546 56.7044 93.1846C56.4203 91.7797 54.3681 92.37 54.6521 93.7824H54.6734Z" fill="#16276A"/>
<path d="M77.2642 93.2441C77.2192 98.3953 77.2192 103.542 77.2642 108.683V93.2441Z" fill="#4E51F2"/>
<path d="M76.197 93.2439C76.1544 98.3951 76.1544 103.541 76.197 108.683C76.197 110.125 78.3274 110.132 78.3274 108.683C78.2658 103.541 78.2658 98.3951 78.3274 93.2439C78.3274 92.9467 78.2152 92.6616 78.0154 92.4513C77.8156 92.2411 77.5447 92.123 77.2622 92.123C76.9797 92.123 76.7087 92.2411 76.509 92.4513C76.3092 92.6616 76.197 92.9467 76.197 93.2439Z" fill="#16276A"/>
<path d="M41.8906 102.055L82.0699 101.165L86.9698 101.053" fill="#4E51F2"/>
<path d="M41.8912 103.175L86.9704 102.174C88.341 102.174 88.3481 99.9321 86.9704 99.9321L41.8912 100.933C40.5206 100.933 40.5206 103.175 41.8912 103.175Z" fill="#16276A"/>
<path d="M34.1785 77.8282C32.5239 77.1631 31.6221 75.2128 31.5155 73.4417C31.4671 72.2682 31.6138 71.0949 31.9487 69.9744C32.2328 68.9656 32.5665 68.0614 33.6246 67.8148C34.9668 67.4935 34.3987 65.3339 33.0565 65.6478C32.362 65.8343 31.7255 66.208 31.21 66.7322C30.6945 67.2563 30.3176 67.9128 30.1166 68.6368C29.5776 70.1648 29.3361 71.7911 29.4064 73.4193C29.4312 74.8242 29.8439 76.1912 30.5941 77.3535C31.3444 78.5158 32.3998 79.4233 33.6317 79.9654C33.9001 80.045 34.1873 80.0115 34.4325 79.872C34.6778 79.7325 34.8618 79.4979 34.9455 79.2181C35.0138 78.932 34.9744 78.6291 34.8354 78.3729C34.6964 78.1166 34.4687 77.9268 34.1998 77.8432L34.1785 77.8282Z" fill="white"/>
<path d="M33.9654 66.8878C34.5477 65.2064 36.0248 64.1528 37.4522 63.3308C39.1778 62.3294 41.0028 61.5075 42.7924 60.6331C46.8449 58.6404 50.921 56.725 55.0209 54.8867C63.1353 51.2151 71.3468 47.7901 79.6554 44.6118C84.2903 42.7063 89.0667 41.2067 93.9361 40.1281L92.6224 39.3809L94.6321 49.7604L95.122 48.49C88.8445 51.7855 82.1621 54.0647 75.5295 56.4112C68.6128 58.8622 61.8097 61.6419 54.9924 64.3545L43.2327 69.0474C43.0776 69.0962 42.935 69.1811 42.8153 69.2957C42.6957 69.4103 42.6021 69.5518 42.5414 69.7097C42.4807 69.8675 42.4545 70.0377 42.4648 70.2076C42.475 70.3776 42.5215 70.5429 42.6006 70.6914C42.7972 71.0066 42.8853 71.3831 42.8505 71.7583C42.8156 72.1334 42.6598 72.4848 42.4089 72.7539C42.2474 72.9307 42.1451 73.1579 42.1173 73.4014C42.0896 73.6448 42.138 73.8912 42.2551 74.1031C42.3723 74.3151 42.5518 74.4811 42.7666 74.5761C42.9815 74.6711 43.2199 74.6898 43.4457 74.6295C46.7123 73.7552 50.2417 74.1214 53.5793 74.1588C57.0684 74.1887 60.5575 74.2111 64.0466 74.226C70.9728 74.226 77.8942 74.1961 84.8109 74.1363C88.7735 74.0915 92.736 74.0292 96.6985 73.9495C98.0691 73.9495 98.0762 71.7077 96.6985 71.7077C82.6237 71.9817 68.5465 72.0539 54.467 71.9244C50.6464 71.9244 46.62 71.4686 42.8776 72.4699L43.9144 74.3381C44.495 73.7176 44.8621 72.9107 44.9573 72.0456C45.0525 71.1805 44.8704 70.3068 44.4399 69.5631L43.8008 71.207L64.8704 62.8002C71.5811 60.1325 78.4126 57.8683 85.1589 55.3276C88.926 53.9263 92.613 52.297 96.2014 50.4479C96.4012 50.3207 96.5568 50.1292 96.645 49.9017C96.7333 49.6743 96.7495 49.423 96.6914 49.185L94.6747 38.8055C94.5951 38.5225 94.4148 38.2829 94.1713 38.1366C93.9278 37.9904 93.6399 37.9489 93.368 38.0208C88.8863 38.9969 84.4878 40.3565 80.2164 42.086C75.8562 43.7449 71.522 45.4711 67.2138 47.2645C58.7207 50.7916 50.3269 54.5753 42.0325 58.6156C38.4037 60.3791 33.4044 62.0081 31.9131 66.3573C31.4444 67.7173 33.5038 68.3002 33.9654 66.9551V66.8878Z" fill="white"/>
<path d="M95.875 73.0902C96.3557 75.5159 96.5937 77.9879 96.5851 80.4657C96.4999 82.7972 95.946 85.0913 95.7614 87.4153C95.3708 92.1979 95.5483 97.0326 95.5554 101.823V108.907C95.5554 110.939 95.8821 113.346 95.2643 115.303C94.6465 117.261 92.8712 117.463 91.2379 117.545C89.008 117.687 86.7782 117.777 84.5484 117.896C75.3735 118.367 66.1986 118.853 57.0165 119.107C52.3652 119.234 47.7138 119.301 43.0553 119.271C41.9404 119.271 40.8184 119.271 39.7035 119.271C39.1141 119.271 38.5247 119.271 37.9353 119.234C37.6086 119.234 37.0973 119.279 36.8417 119.01C36.586 118.741 36.5576 117.979 36.515 117.65C36.4511 117.112 36.4085 116.566 36.3659 116.028C36.2807 114.75 36.2381 113.473 36.1884 112.195L34.832 79.6587C34.7681 78.2239 32.6377 78.2165 32.7016 79.6587L33.9941 110.715C34.0314 113.253 34.1902 115.787 34.4698 118.307C34.5172 119.236 34.892 120.113 35.5208 120.766C36.2785 121.319 37.1931 121.583 38.1128 121.513C42.9985 121.625 47.8913 121.595 52.7771 121.513C62.6692 121.326 72.5614 120.818 82.4464 120.31L89.6259 119.944C91.458 119.847 93.4961 119.892 95.1436 118.898C96.7911 117.904 97.4799 115.968 97.6432 114.011C97.8421 111.604 97.6859 109.138 97.6859 106.725C97.6859 100.971 97.4941 95.1869 97.7569 89.4404C97.8847 86.6755 98.467 84.0003 98.6658 81.2205C98.886 78.3061 98.3889 75.3768 97.9557 72.5148C97.7214 71.0949 95.6691 71.7003 95.8963 73.1126L95.875 73.0902Z" fill="white"/>
<path d="M3.68626 112.957C7.84053 110.955 12.1155 109.221 16.3763 107.465C18.5067 106.588 20.649 105.726 22.803 104.879L24.0955 104.379C24.4505 104.244 25.1394 103.818 25.5157 103.945C25.8921 104.072 26.1194 104.692 26.4034 104.999C26.6223 105.207 26.8855 105.357 27.1709 105.437C27.4563 105.516 27.7557 105.522 28.0438 105.455C28.2683 105.388 28.466 105.246 28.607 105.051C28.7479 104.855 28.8245 104.617 28.825 104.371C28.825 101.21 28.7824 97.4216 31.3104 95.2097C31.7881 94.7828 32.3476 94.4693 32.9508 94.2905C33.3911 94.1635 34.3214 93.9617 34.6551 94.3952C34.8398 94.6492 34.783 95.3068 34.7901 95.5983C34.8149 96.0537 34.8149 96.5103 34.7901 96.9657C34.7182 97.8917 34.5491 98.8065 34.2859 99.6933C33.9237 100.949 35.5854 101.591 36.2316 100.553C36.9418 99.357 37.7087 98.1539 38.4544 96.9582C38.9595 95.998 39.6372 95.1504 40.4498 94.4624C40.7722 94.1961 41.1607 94.0333 41.5688 93.9935C41.9769 93.9538 42.3873 94.0388 42.7507 94.2383C43.7022 94.9855 42.9211 96.48 42.4737 97.2721L44.4266 98.1315C44.5424 97.7685 44.7591 97.4505 45.0487 97.2186C45.3382 96.9866 45.6872 96.8515 46.0505 96.8305C46.4138 96.8096 46.7748 96.9039 47.0866 97.1012C47.3985 97.2985 47.6469 97.5897 47.7997 97.9372C48.1903 98.804 47.7997 99.6783 47.3949 100.448C46.8268 101.494 46.2019 102.51 45.6125 103.542C45.5193 103.712 45.47 103.904 45.4698 104.101C45.4695 104.297 45.5182 104.49 45.6109 104.66C45.7036 104.83 45.8372 104.972 45.9982 105.07C46.1592 105.169 46.3421 105.222 46.5286 105.223C47.5014 105.104 49.5253 104.722 49.9869 106.038C50.2994 106.919 48.9004 108.384 48.3962 109.027C46.8481 110.887 44.8456 112.516 42.424 112.838C41.0819 113.017 39.7255 112.756 38.3833 112.965C37.1739 113.145 36.0173 113.605 34.996 114.31C34.0799 114.945 32.7378 115.961 32.7875 117.299C32.7875 117.815 33.1923 118.338 33.036 118.794C32.8798 119.249 32.2407 119.772 31.8075 120.079C29.5358 121.675 27.116 123.024 24.5855 124.107C23.3285 124.652 22.0432 125.138 20.7437 125.556C19.434 126.08 18.0708 126.441 16.6817 126.632C15.8447 126.674 15.013 126.794 14.1962 126.991L10.1343 127.933L5.27697 129.046C4.68046 129.181 4.07684 129.315 3.47323 129.435L2.94063 129.539C2.72048 129.584 2.8554 129.487 2.99743 129.539C2.62816 129.42 4.37509 130.242 3.44481 129.696C2.24469 128.994 1.1724 130.929 2.37253 131.632C3.08266 132.043 4.30408 131.549 5.02842 131.392C6.57177 131.059 8.11277 130.71 9.65139 130.346L14.3241 129.263L15.8295 128.911C16.3834 128.792 16.4474 128.911 17.0581 128.859C20.0372 128.304 22.9383 127.358 25.6933 126.042C28.4702 124.909 31.0958 123.402 33.5047 121.558C34.0038 121.22 34.4184 120.76 34.7137 120.218C35.009 119.675 35.1764 119.067 35.2019 118.442C35.2019 118.106 34.8966 117.583 34.925 117.291C34.925 117.374 35.1735 117.03 35.2801 116.925C35.8335 116.382 36.4728 115.945 37.169 115.633C38.5396 115.035 39.9101 115.162 41.3588 115.162C42.7003 115.171 44.0286 114.884 45.2574 114.317C47.9578 113.01 50.1952 110.836 51.6486 108.108C52.0253 107.47 52.1769 106.714 52.0769 105.97C51.9769 105.227 51.6318 104.545 51.1018 104.042C49.8236 102.809 48.1121 102.839 46.493 103.041L47.4162 104.73C48.9288 102.107 51.5563 98.6172 48.8365 95.8075C46.7061 93.5657 43.2477 94.7464 42.3033 97.601C41.9056 98.8265 43.6454 99.5214 44.2561 98.4603C45.087 97.0106 45.6764 95.1349 44.8313 93.5433C44.4507 92.9015 43.8938 92.3964 43.2345 92.0948C42.5751 91.7932 41.8443 91.7094 41.1387 91.8544C40.3968 92.0142 39.6924 92.3269 39.0659 92.7745C38.4394 93.2221 37.9034 93.7957 37.4886 94.4624C36.3382 96.0541 35.3582 97.8101 34.3285 99.484L36.2743 100.351C36.6168 99.1583 36.8195 97.9261 36.8779 96.6818C37.0149 95.5489 36.8706 94.3981 36.4589 93.3415C35.4647 91.4285 32.823 91.847 31.2607 92.5942C26.9999 94.7314 26.6448 100.067 26.6519 104.401L27.4331 103.325C27.845 103.258 27.8379 103.437 27.5467 103.049C27.3817 102.798 27.1963 102.563 26.9928 102.346C26.7438 102.111 26.449 101.935 26.1288 101.832C25.8087 101.728 25.471 101.7 25.1394 101.748C24.1589 101.947 23.2051 102.271 22.2988 102.712C20.0785 103.589 17.8652 104.478 15.6591 105.38C11.2705 107.181 6.86766 108.982 2.58556 111.052C1.34283 111.657 2.42224 113.585 3.65787 112.987L3.68626 112.957Z" fill="white"/>
<path d="M24.0455 108.862C25.828 107.936 27.5962 106.919 29.2508 105.828C29.4184 105.737 29.564 105.607 29.6769 105.447C29.8036 105.193 29.8508 104.902 29.8118 104.618C29.7163 103.237 29.7999 101.85 30.0604 100.493C30.3657 99.1478 30.4154 97.6533 31.1895 96.5398C31.8019 95.9713 32.4682 95.4705 33.1778 95.0453C33.5968 95.0453 34.1152 96.4875 34.1436 96.9209C34.243 98.7667 33.3483 101.517 33.4335 103.355C34.6194 103.489 35.5639 102.383 36.274 101.39L40.6839 95.3517C41.0319 94.8809 41.6142 94.3653 42.1042 94.7016C42.26 94.8271 42.3723 95.0029 42.4238 95.2022C42.8925 96.5846 42.3741 98.1166 41.6781 99.3795C40.9822 100.642 40.0945 101.838 39.7466 103.25C42.3741 102.189 43.9008 99.1851 46.4502 97.9223C46.7272 97.7877 47.0822 97.6906 47.3024 97.9223C47.375 98.0204 47.4255 98.1346 47.4501 98.2563C47.4747 98.378 47.4728 98.504 47.4444 98.6247C47.0893 101.943 44.7459 104.603 42.5232 106.987C44.2711 106.155 46.1726 105.741 48.0906 105.776C48.4429 105.746 48.7953 105.832 49.099 106.023C49.3029 106.212 49.4428 106.466 49.4979 106.746C49.5529 107.027 49.5201 107.318 49.4044 107.577C49.1601 108.088 48.796 108.525 48.3463 108.847C45.0115 111.555 40.7931 112.761 36.6149 112.203C34.3336 114.365 31.773 116.176 29.0094 117.583C26.9925 115.025 25.2846 112.214 23.9248 109.213" fill="#CAE4DA"/>
<path d="M24.5848 109.789C25.8205 109.146 27.0348 108.463 28.2278 107.741C29.2149 107.136 30.5641 106.59 30.8269 105.305C30.8979 104.604 30.8979 103.898 30.8269 103.198C30.8266 102.491 30.8836 101.786 30.9973 101.09C31.1097 99.8846 31.3772 98.7006 31.7927 97.5707C32.106 97.0731 32.527 96.6608 33.0212 96.3676C33.1538 96.2867 33.2797 96.1942 33.3976 96.0911L33.5467 96.0015C33.8663 95.8221 33.5467 95.7847 32.6377 95.8894C32.6377 96.1808 32.9928 96.5544 33.0496 96.8832C33.0863 97.8549 32.9858 98.827 32.7514 99.7676C32.5032 100.92 32.3746 102.098 32.3679 103.28C32.3733 103.575 32.4873 103.857 32.6859 104.066C32.8845 104.275 33.1523 104.395 33.4331 104.401C34.9457 104.461 36.0819 103.399 36.9837 102.219C38.1697 100.634 39.3201 99.0204 40.4847 97.4287L41.3226 96.278C41.4079 96.1733 41.7061 95.8968 41.7274 95.7698C41.8837 95.6726 41.841 95.5979 41.6138 95.553C41.4079 95.3662 41.3582 95.3737 41.4505 95.553C41.462 95.76 41.493 95.9653 41.5428 96.1658C41.5474 96.3739 41.5308 96.5818 41.4931 96.786C41.4085 97.2649 41.2578 97.7282 41.0457 98.1611C40.3356 99.7602 39.1993 101.15 38.7236 102.854C38.5176 103.601 39.2633 104.573 40.0373 104.236C41.3323 103.636 42.5099 102.787 43.5099 101.733C44.0141 101.232 44.5041 100.717 45.0225 100.238C45.2689 99.9976 45.5273 99.7707 45.7965 99.5585C46.1319 99.3636 46.4567 99.1489 46.7694 98.9157L46.9611 98.8187L46.3859 98.5123C46.3285 98.696 46.2951 98.887 46.2865 99.0802C46.2038 99.456 46.0971 99.8255 45.9669 100.186C45.6952 100.907 45.3475 101.594 44.9301 102.234C43.994 103.616 42.9385 104.904 41.7771 106.082C40.8824 107.054 42.0115 108.324 43.0696 107.846C44.2603 107.292 45.5295 106.949 46.8262 106.829C46.9895 106.829 48.353 106.628 48.4453 106.829C48.6583 107.188 47.7991 107.816 47.586 107.988C45.7193 109.465 43.5501 110.463 41.2517 110.902C40.1065 111.12 38.9407 111.192 37.7791 111.119C37.2252 110.965 36.6429 110.965 36.089 111.119C35.5933 111.48 35.1319 111.89 34.7113 112.344C32.7926 113.977 30.7032 115.373 28.4835 116.506L29.7759 116.678C27.8306 114.184 26.1783 111.451 24.8547 108.541C24.2582 107.24 22.4189 108.376 23.0154 109.669C24.432 112.744 26.1939 115.629 28.2633 118.263C28.4313 118.436 28.6481 118.547 28.8811 118.579C29.1142 118.611 29.3509 118.563 29.5558 118.442C32.385 116.966 35.0124 115.096 37.3672 112.882L36.6074 113.211C38.8162 113.49 41.0557 113.308 43.1977 112.676C45.3398 112.044 47.3425 110.974 49.0915 109.527C49.5004 109.242 49.8448 108.867 50.1001 108.426C50.3554 107.986 50.5153 107.492 50.5686 106.979C50.597 106.442 50.4445 105.911 50.138 105.481C49.8315 105.05 49.3905 104.747 48.8927 104.625C47.7897 104.448 46.6652 104.489 45.5764 104.744C44.3357 104.968 43.1278 105.36 41.9831 105.91L43.2684 107.666C44.7008 106.225 45.9708 104.615 47.0534 102.869C47.5586 102.003 47.9526 101.071 48.2251 100.096C48.4524 99.2222 48.7506 98.0489 48.2251 97.2494C47.0534 95.4709 44.6745 97.5483 43.7016 98.4674C42.3523 99.7079 41.1593 101.337 39.4408 102.077L40.7546 103.452C41.3085 101.419 42.8494 99.8872 43.4175 97.8397C43.8223 96.3452 43.7868 93.2739 41.6635 93.3561C40.7119 93.4084 40.0941 94.2304 39.5331 94.9553L37.5377 97.6903C36.8275 98.6468 36.1529 99.6108 35.4427 100.552C34.9315 101.247 34.3136 102.151 33.3976 102.114L34.4628 103.235C34.3846 100.851 35.7197 98.2208 34.967 95.8968C34.69 95.0375 34.1432 93.8045 33.1206 93.8045C32.4105 93.8045 31.6577 94.5517 31.118 95.0225C29.3143 96.517 29.0303 99.1624 28.7675 101.427C28.6813 102.228 28.648 103.034 28.6681 103.84V104.535C28.7249 104.827 28.7178 104.909 28.6681 104.774C28.5332 104.991 28.0432 105.178 27.8159 105.32C26.3957 106.209 24.9399 107.039 23.4628 107.808C22.2343 108.451 23.3066 110.386 24.5351 109.744L24.5848 109.789Z" fill="#16276A"/>
<path d="M25.6996 104.378C26.1612 107.001 27.482 109.363 28.7816 111.664L32.3323 117.926C32.441 118.068 32.5174 118.234 32.5556 118.411C32.5938 118.589 32.5927 118.773 32.5524 118.95C32.4679 119.111 32.3487 119.25 32.2044 119.354C29.8184 121.312 26.8927 122.343 24.0308 123.381C21.6306 124.241 5.02055 128.702 2.6203 129.561C-0.0213901 124.966 3.52927 114.848 3.19551 113.121C8.09542 110.708 20.1819 106.762 25.2096 104.73" fill="#4E51F2"/>
<path d="M24.6413 104.663C25.1882 107.033 26.1023 109.293 27.3469 111.351C28.5541 113.525 29.7897 115.685 31.0112 117.852C31.0751 117.964 31.5225 118.599 31.4799 118.711C31.6006 118.36 31.1177 118.756 31.1319 118.711C30.6366 118.984 30.1618 119.296 29.7116 119.645C28.7359 120.219 27.7225 120.718 26.6793 121.14C25.4366 121.641 24.1726 122.111 22.8943 122.515C18.0938 124.009 13.2152 125.265 8.37923 126.632C6.34115 127.208 4.26755 127.723 2.26497 128.433L3.4651 128.949C2.04483 126.356 2.62714 122.747 3.08873 119.982C3.32307 118.569 3.62133 117.172 3.89118 115.76C4.1445 114.805 4.23348 113.81 4.15393 112.823L3.66393 114.086C7.19963 112.469 10.8119 111.045 14.4864 109.819C18.1436 108.496 21.8291 107.256 25.4437 105.813C26.7149 105.305 26.1538 103.138 24.8756 103.654C17.5044 106.598 9.74979 108.646 2.59165 112.15C2.39046 112.278 2.23396 112.471 2.14563 112.7C2.05729 112.929 2.04186 113.182 2.10165 113.421C2.03774 113.039 2.10165 113.525 2.10165 113.637C2.09993 113.796 2.08327 113.953 2.05194 114.108C1.95962 114.698 1.84601 115.281 1.72528 115.864C1.41993 117.418 1.10745 118.965 0.887311 120.527C0.439927 123.643 0.0848726 127.253 1.65427 130.107C1.77464 130.32 1.95771 130.485 2.17562 130.578C2.39353 130.671 2.63435 130.687 2.86148 130.623C7.46314 129.001 12.2707 127.903 16.9576 126.587C19.1661 125.967 21.3889 125.362 23.5832 124.674C25.0738 124.205 26.5409 123.656 27.9789 123.03C28.9527 122.622 29.9014 122.15 30.8194 121.618C31.6574 121.117 32.9498 120.452 33.4256 119.496C34.0505 118.211 32.9143 116.828 32.3249 115.76L30.1945 112.023C28.7742 109.497 27.2475 106.987 26.6865 104.065C26.4166 102.652 24.3643 103.25 24.6342 104.663H24.6413Z" fill="#16276A"/>
<path d="M1.83233 83.8509C4.14026 81.6091 6.46948 79.3224 8.79162 77.0657C9.94203 75.9522 11.0996 74.8239 12.2429 73.7104L13.8549 72.1337C14.3449 71.648 14.8491 70.9381 15.5805 71.0278C15.8624 71.0258 16.1323 70.9071 16.3316 70.6973C16.531 70.4875 16.6438 70.2035 16.6457 69.9068C16.7238 65.4232 16.7877 59.9682 20.1324 56.6877C20.4989 56.2626 20.9631 55.9437 21.4805 55.7618C21.9978 55.5799 22.5509 55.5411 23.0866 55.649C23.6334 55.8134 23.9104 56.2243 24.3719 56.5232C24.8589 56.8276 25.4314 56.9439 25.991 56.8521C27.177 56.6952 28.2209 56.1944 29.4281 56.6129C29.9229 56.7512 30.356 57.0677 30.6518 57.5074C30.9477 57.9471 31.0876 58.4821 31.0472 59.0192C31.0472 59.3165 31.1594 59.6016 31.3592 59.8118C31.559 60.022 31.8299 60.1401 32.1124 60.1401C33.4758 60.1401 34.4416 61.4477 34.7186 62.7704C35.0878 64.5489 34.3777 66.4545 33.7244 68.0686C33.4403 68.7636 33.7244 69.8471 34.6405 69.7574C36.8348 69.5482 40.1298 69.4884 41.8199 71.2968C42.1832 71.7044 42.4003 72.2323 42.4339 72.79C42.4676 73.3477 42.3158 73.9003 42.0045 74.3531C41.3177 75.3862 40.3152 76.1406 39.164 76.4903C36.4016 77.4991 33.4403 78.0521 30.6069 78.8068C29.5062 79.0983 27.5817 79.2029 27.3048 80.6825C27.1983 81.2803 27.5391 81.8034 27.4539 82.3788C27.2263 83.0794 26.8636 83.723 26.3887 84.2693C23.3406 88.7557 19.4491 92.5353 14.9556 95.3737C13.0453 96.5768 11.128 97.7575 9.2106 98.9382C7.72642 99.8574 6.24224 100.769 4.75096 101.658C4.23256 101.972 3.71418 102.279 3.18868 102.577L2.66317 102.869C2.37912 103.026 2.69868 102.869 2.62056 102.869C1.27131 103.086 1.83943 105.245 3.18868 105.036C4.001 104.754 4.76562 104.337 5.45401 103.803C6.83877 102.981 8.20932 102.137 9.57988 101.292C11.7103 99.9695 13.8904 98.6468 16.0279 97.2943C20.8696 94.2211 25.0528 90.1244 28.3132 85.2633C29.1227 84.0527 29.9252 82.73 29.4565 81.1981C29.5488 81.5044 29.0162 81.2878 29.4565 81.4073C29.634 81.4522 29.9536 81.2728 30.1666 81.2205L31.3668 80.9066L33.9303 80.2267C36.6785 79.4794 39.9594 79.1132 42.2886 77.2899C44.6178 75.4665 45.5481 72.0067 43.368 69.6976C41.1879 67.3885 37.5023 67.2316 34.6831 67.5007L35.6062 69.1895C36.5436 66.8655 37.5023 64.1753 36.6714 61.6495C36.3787 60.6114 35.7871 59.6945 34.9781 59.0253C34.1691 58.3561 33.1827 57.9674 32.155 57.9132L33.2202 59.0341C33.4687 55.9404 30.5643 54.0274 27.9084 54.2292C27.5265 54.2602 27.1469 54.3176 26.7722 54.401C26.4597 54.4683 25.9129 54.7597 25.6005 54.6626C25.288 54.5654 25.0608 54.1918 24.8122 54.0274C24.5887 53.8728 24.3508 53.7425 24.1021 53.6388C23.4297 53.3871 22.7125 53.2961 22.0026 53.3723C21.2926 53.4486 20.6077 53.6902 19.9975 54.0797C17.6399 55.4995 16.2054 58.3615 15.4953 61.0218C14.8286 63.9349 14.5207 66.9261 14.5792 69.9218L15.6444 68.8009C14.1034 68.6141 12.9743 70.004 11.9588 71.0427C10.6664 72.3131 9.36684 73.5759 8.0744 74.8313C5.51082 77.3272 2.94013 79.8081 0.390757 82.304C-0.61053 83.2904 0.894948 84.8746 1.89624 83.8882L1.83233 83.8509Z" fill="white"/>
<path d="M24.315 82.0201C26.1401 79.1879 29.4706 77.9027 32.6591 77.2227C35.8476 76.5427 38.3402 76.3484 41.2517 74.809C41.4731 74.7254 41.6675 74.5777 41.8127 74.383C41.903 74.2666 41.9666 74.1299 41.9987 73.9835C42.0307 73.837 42.0302 73.6848 41.9974 73.5386C41.8482 71.8647 40.7972 71.0128 39.2207 70.7588C36.7457 70.3617 34.2322 70.304 31.743 70.5869C32.1762 69.1596 33.1633 68.0088 33.8734 66.716C34.5836 65.4233 34.9883 63.727 34.2143 62.4791C33.9811 62.1495 33.6791 61.8806 33.3315 61.6933C32.9839 61.506 32.6002 61.4052 32.2097 61.3987C31.8193 61.3922 31.4326 61.4802 31.0796 61.6558C30.7266 61.8315 30.4166 62.0901 30.1736 62.4118C30.5997 61.0069 30.9974 59.3704 30.2233 58.1374C29.8791 57.6505 29.4001 57.2878 28.852 57.0991C28.3039 56.9105 27.7138 56.9051 27.1627 57.0837C26.6166 57.2801 26.1193 57.603 25.7076 58.0285C25.2959 58.454 24.9802 58.9713 24.7837 59.5423C24.7411 58.0926 24.3221 56.2095 22.9516 56.1123C22.4421 56.1101 21.9449 56.2775 21.5313 56.5906C20.468 57.2925 19.5686 58.2373 18.8998 59.355C18.2311 60.4727 17.8101 61.7346 17.6682 63.0469C17.615 64.4217 17.6292 65.7986 17.7108 67.1718C17.7108 70.7961 16.5249 74.2859 15.9142 77.8503C15.8678 78.0188 15.8678 78.1975 15.9142 78.3659C16.0491 78.7171 16.4965 78.7545 16.8587 78.7545C19.6245 78.8806 22.2575 80.0382 24.2866 82.0201" fill="#CAE4DA"/>
<path d="M25.2306 82.5881C26.8284 80.2043 29.5695 79.1208 32.1686 78.4781C35.1156 77.7309 38.1266 77.4917 40.9245 76.2363C42.0891 75.7058 43.1401 75.0557 43.0549 73.5761C43.0279 72.9268 42.8499 72.2943 42.5367 71.7341C42.2235 71.1739 41.7845 70.7031 41.2583 70.3628C40.0723 69.6155 38.5243 69.5408 37.1821 69.4287C35.3682 69.278 33.5449 69.303 31.7354 69.5034L32.7651 70.9158C33.2693 69.4212 34.3842 68.2481 35.0375 66.8208C35.3973 66.142 35.6088 65.3875 35.6568 64.6119C35.7047 63.8363 35.5877 63.0592 35.3145 62.3372C34.1498 59.774 30.7767 59.8114 29.2428 61.9113L31.1886 62.7705C31.8987 60.3942 32.1118 57.3679 29.4985 56.2246C27.1905 55.2157 24.7832 56.7476 23.86 59.0342L25.8413 59.6021C25.749 57.4351 24.7335 54.3713 22.0776 55.1634C19.656 55.9107 17.8168 58.6382 17.0285 61.0294C16.6244 62.4834 16.4799 64.0036 16.6025 65.513C16.6999 67.2036 16.6189 68.9003 16.361 70.5721C16.077 72.246 15.6509 73.89 15.31 75.5489C15.0473 76.767 14.3087 78.6725 15.5089 79.5692C16.138 79.8883 16.8366 80.0249 17.5327 79.9652C18.2588 80.0451 18.9737 80.2132 19.6631 80.4659C21.1093 80.9699 22.4379 81.7899 23.5618 82.8721C24.5631 83.851 26.0756 82.2743 25.0672 81.2879C23.0309 79.2973 20.438 78.0523 17.6748 77.7384L16.6593 77.6861C16.9291 77.9626 17.0569 77.97 17.0569 77.6861C17.0569 77.4021 17.1208 77.3348 17.1564 77.1704C17.3339 76.2513 17.5469 75.3397 17.7529 74.4205C18.1421 72.7959 18.4433 71.1492 18.6547 69.4886C19.0169 66.365 18.115 63.077 19.6986 60.2149C20.2738 59.1912 21.4598 57.5547 22.6457 57.3155C23.6044 57.1212 23.6896 58.9222 23.718 59.5573C23.7606 60.5512 25.259 61.2237 25.7064 60.1178C26.1537 59.0118 27.3113 57.6294 28.6818 58.2421C30.0524 58.8549 29.4985 60.9398 29.1434 62.1354C28.7883 63.331 30.4074 63.9288 31.0892 62.9948C31.3134 62.7609 31.6003 62.6048 31.9112 62.5473C32.2222 62.4899 32.5425 62.5339 32.829 62.6734C33.1469 62.8801 33.387 63.1962 33.5087 63.5681C33.6304 63.9399 33.6261 64.3446 33.4965 64.7135C33.0846 66.776 31.3661 68.3153 30.7128 70.3031C30.6705 70.4697 30.665 70.6442 30.6968 70.8134C30.7286 70.9826 30.7968 71.1419 30.8963 71.279C30.9957 71.4161 31.1237 71.5275 31.2704 71.6044C31.4171 71.6813 31.5786 71.7219 31.7425 71.7229C33.325 71.5461 34.9185 71.5036 36.5075 71.5958C37.6295 71.6631 39.1989 71.5959 40.1931 72.2759C40.3736 72.3946 40.5296 72.5504 40.6516 72.734C40.7736 72.9176 40.8592 73.1252 40.9032 73.3444C41.0452 73.8675 40.7896 73.8376 40.2925 74.0917C39.0834 74.662 37.8157 75.0833 36.5146 75.3471C31.7425 76.4232 26.4591 76.9164 23.4055 81.4897C22.6173 82.6703 24.4636 83.7913 25.2448 82.618L25.2306 82.5881Z" fill="#16276A"/>
<path d="M15.4456 71.7754C16.738 74.077 18.7477 75.8182 20.7148 77.5145L26.0692 82.1176C26.339 82.3492 26.6302 82.6407 26.6089 82.9994C26.5876 83.1833 26.5215 83.3583 26.4171 83.5075C24.8122 86.2051 22.4049 88.2526 20.0259 90.2329C18.0518 91.9068 4.55213 100.441 2.57796 102.107C2.10217 97.7056 2.19451 87.6025 1.48438 84.6508C5.29779 80.623 11.0001 76.0198 15.0834 72.2984" fill="#4E51F2"/>
<path d="M14.5218 72.343C16.7516 76.184 20.5864 78.8442 23.8459 81.6465C24.2862 82.0276 24.7406 82.3938 25.1809 82.7973C25.3159 82.9094 25.5076 83.2906 25.4934 82.9394C25.4934 83.0963 25.1667 83.4698 25.0744 83.6043C24.4497 84.5109 23.7486 85.3562 22.9795 86.1301C22.2694 86.8774 21.4882 87.5649 20.7071 88.2449L19.5283 89.2537C18.9815 89.717 19.5638 89.2537 19.1803 89.5377C15.3172 92.3923 11.2197 94.9106 7.23586 97.5559C5.37667 98.7023 3.57526 99.9494 1.83887 101.292L3.66389 102.084C3.33723 98.9757 3.31593 95.8222 3.1952 92.6912C3.09578 89.9487 3.15259 87.0194 2.52768 84.3367L2.25784 85.4277C6.51864 80.9441 11.3333 77.2077 15.864 73.0679C16.9008 72.1188 15.3882 70.5421 14.3514 71.4762C10.0906 75.3545 5.58126 78.9489 1.5193 83.0364C1.12163 83.4399 0.532216 83.8659 0.454102 84.4862C0.456403 84.8931 0.511359 85.2979 0.61744 85.6893C0.738162 86.4814 0.794964 87.2884 0.851774 88.088C1.0009 90.3821 1.06482 92.6762 1.15004 94.9704C1.23526 97.2645 1.28495 99.723 1.5335 102.084C1.54385 102.299 1.6116 102.507 1.72893 102.683C1.84626 102.859 2.00844 102.997 2.19682 103.08C2.38519 103.164 2.59211 103.189 2.79385 103.155C2.99558 103.12 3.18393 103.026 3.33724 102.884C3.1242 103.041 3.50767 102.734 3.33724 102.884L3.50058 102.757L3.92664 102.443C4.29591 102.174 4.6723 101.912 5.05577 101.651C6.03102 100.978 7.00862 100.318 7.9886 99.6706C10.403 98.064 12.8317 96.4724 15.2462 94.8732C16.9718 93.7299 18.74 92.6314 20.3804 91.3386C21.9076 90.1557 23.3506 88.8569 24.698 87.4528C25.4014 86.7128 26.054 85.9212 26.6509 85.084C27.2616 84.2247 27.9788 83.2532 27.4889 82.1397C27.1861 81.6134 26.7762 81.1642 26.2887 80.8245L24.6767 79.4421L21.4669 76.6846C19.578 75.0556 17.6535 73.3967 16.3611 71.1773C15.6509 69.9443 13.8046 71.0727 14.5218 72.3056V72.343Z" fill="#16276A"/>
</g>
<defs>
<clipPath id="clip0_1956_282775">
<rect width="160" height="145" fill="white"/>
</clipPath>
</defs>
</svg>
