<svg width="200" height="155" viewBox="0 0 200 155" fill="none" xmlns="http://www.w3.org/2000/svg">
<g clip-path="url(#clip0_1956_282840)">
<path d="M52.858 97.7491C61.9019 86.9621 69.58 75.0298 79.3797 64.9353C89.1795 54.8408 101.751 46.4775 115.741 45.4921C121.233 45.2813 126.731 45.6923 132.131 46.7172C135.712 47.2766 139.438 47.8758 142.886 46.7971C148.628 44.986 152.062 39.0331 153.68 33.2268C155.298 27.4205 155.722 21.2412 158.176 15.7146C159.771 12.2089 162.132 9.10956 165.085 6.64711C168.037 4.18466 171.505 2.4225 175.229 1.4917L198.515 30.3503C192.336 32.6808 186.129 35.877 182.363 41.3237C176.316 50.0865 177.444 63.4038 168.996 69.8494C160.045 76.6811 147.09 70.9947 136.083 73.2186C130.779 74.284 125.992 77.2138 121.377 80.1037C109.999 87.2018 98.4356 94.4464 89.6171 104.581C83.2519 111.879 78.4912 120.562 71.4762 127.22C63.638 134.705 54.8974 141.174 45.4585 146.477C37.502 150.912 28.3918 153.882 19.2418 153.442C17.8715 153.494 16.5216 153.097 15.3962 152.31C13.6325 150.779 11.882 146.584 10.8212 144.48C9.39804 141.541 8.12338 138.532 7.00205 135.464C5.34444 131.136 3.66032 126.834 2.0425 122.506C0.597063 118.644 2.26793 115.674 4.11118 112.065C7.39106 105.641 12.1068 100.067 17.8892 95.7781C23.0325 91.9925 28.9029 89.3214 35.1283 87.9343C37.7805 87.335 42.1698 86.0698 44.8485 86.8023C47.5272 87.5348 49.503 91.3036 50.7363 93.6474C52.6591 97.3097 53.5078 100.239 56.0406 103.502C58.8254 107.111 60.2178 112.545 61.65 116.819" fill="#CAE4DA"/>
<path d="M53.9183 98.7745C68.4256 81.3821 80.5328 59.4618 102.36 50.2995C107.398 48.1493 112.8 46.9919 118.273 46.8903C124.612 46.8237 130.699 48.4085 136.971 48.8346C139.477 49.095 142.008 48.7277 144.339 47.7656C146.669 46.8035 148.725 45.2766 150.325 43.3213C153.267 39.3793 155.223 34.7844 156.027 29.9241C157.353 23.7848 158.162 17.4591 161.901 12.2254C165.247 7.59295 170.111 4.29239 175.64 2.90329L174.194 2.5171L194.589 27.8199L197.48 31.4023L198.13 28.8986C193.038 30.843 187.959 33.2534 183.994 37.1154C180.598 40.7123 178.166 45.1156 176.926 49.9133C175.52 54.4678 174.592 59.302 172.324 63.5236C171.153 65.7572 169.451 67.666 167.369 69.0808C165.287 70.4955 162.89 71.3725 160.39 71.6339C154.953 72.3264 149.436 71.3542 143.999 71.1944C138.277 70.9493 132.589 72.1973 127.489 74.8167C122.046 77.7728 116.761 81.0134 111.656 84.525C106.538 87.7963 101.634 91.395 96.9762 95.2987C92.3942 99.2271 88.2503 103.643 84.6171 108.469C80.8908 113.37 77.5093 118.537 73.4249 123.118C69.0804 127.832 64.2733 132.093 59.0767 135.837C53.8834 139.785 48.3646 143.283 42.5802 146.291C36.8159 149.353 30.5074 151.244 24.0151 151.857C21.469 152.057 17.4642 152.683 15.6873 150.406C14.3397 148.4 13.1978 146.263 12.2792 144.027C9.3088 137.954 7.08097 131.495 4.6675 125.183C3.97011 123.723 3.41928 122.197 3.02316 120.628C2.83341 119.021 3.10969 117.394 3.8188 115.94C5.00717 113.181 6.45473 110.541 8.14184 108.057C11.5147 103.015 15.8785 98.7184 20.9651 95.4319C26.099 92.2868 31.7398 90.065 37.6339 88.8664C39.7822 88.3737 43.0709 87.3349 45.1396 88.5734C47.2083 89.8119 48.362 92.3955 49.4096 94.4064C50.7357 96.8967 51.717 99.5469 53.1757 101.971C54.8134 104.297 56.2634 106.75 57.5119 109.308C58.5596 111.892 59.3154 114.635 60.1641 117.219C60.7608 119.043 63.6517 118.258 63.0417 116.42C62.1002 113.61 61.278 110.76 60.1509 108.017C58.8642 105.385 57.3791 102.856 55.7085 100.452C52.9767 95.9113 51.6241 89.7986 47.2481 86.456C45.2059 84.8845 42.6996 84.9511 40.2596 85.3107C37.5364 85.7295 34.8432 86.3256 32.197 87.0952C26.0306 88.8587 20.2776 91.8426 15.2762 95.8713C10.5209 99.7205 6.54965 104.455 3.58011 109.815C1.90249 112.397 0.715526 115.268 0.0792475 118.284C-0.371621 121.64 1.27272 124.77 2.45294 127.819C4.87967 134.159 7.2401 140.484 10.1707 146.61C11.0862 148.981 12.3955 151.178 14.0429 153.109C16.0851 155.093 19.2279 155 21.8801 154.947C35.3796 154.641 47.6061 147.702 58.3341 140.031C63.855 136.195 69.0211 131.867 73.7697 127.1C78.2254 122.506 81.8323 117.166 85.6249 112.025C89.4066 106.785 93.7711 101.996 98.6338 97.7491C103.662 93.506 108.979 89.6212 114.547 86.123C119.931 82.6472 125.381 78.7719 131.295 76.2416C137.21 73.7114 143.23 74.0176 149.41 74.4704C154.913 74.8566 160.761 75.3494 165.999 73.2053C168.275 72.1996 170.329 70.7491 172.041 68.9383C173.753 67.1275 175.089 64.9926 175.971 62.658C177.934 58.0236 178.862 53.0296 180.546 48.2886C182.335 43.001 185.935 38.5226 190.704 35.6505C193.306 34.0997 196.045 32.7935 198.886 31.7486C199.134 31.6745 199.359 31.5377 199.54 31.3512C199.72 31.1647 199.85 30.9347 199.916 30.6834C199.983 30.4321 199.984 30.1679 199.92 29.916C199.855 29.6641 199.728 29.433 199.549 29.2449L179.154 3.94204L176.263 0.359681C176.076 0.170344 175.842 0.0346792 175.586 -0.0332377C175.329 -0.101155 175.059 -0.0988352 174.804 -0.0265116C169.948 1.25409 165.531 3.83842 162.026 7.44917C158.522 11.0599 156.063 15.5608 154.913 20.4688C152.566 29.5112 151.77 45.239 139.305 45.7717C136.187 45.739 133.078 45.409 130.022 44.7862C126.947 44.2989 123.849 43.9788 120.74 43.8274C115.076 43.5909 109.42 44.436 104.071 46.3177C93.7936 49.94 84.8956 56.7584 77.4297 64.6023C68.0013 74.5237 60.4956 86.0565 51.7435 96.5638C50.5102 98.0287 52.6187 100.16 53.852 98.6813L53.9183 98.7745Z" fill="#16276A"/>
<path d="M48.1768 90.5444C38.5205 91.6675 29.2777 95.118 21.2356 100.602C13.1936 106.086 6.59061 113.441 1.98926 122.04" fill="#CAE4DA"/>
<path d="M48.1765 89.0528C38.2721 90.2208 28.7914 93.7584 20.5306 99.3686C12.2698 104.979 5.47017 112.498 0.70266 121.294C-0.225598 122.985 2.36027 124.49 3.35483 122.799C12.5181 106.086 29.2135 94.14 48.2428 92.0492C50.1258 91.8361 50.1523 88.8398 48.2428 89.0528H48.1765Z" fill="#16276A"/>
<path d="M58.8381 109.868C48.6803 109.575 38.7612 113.863 30.7516 120.135C22.7421 126.408 16.4432 134.624 10.8604 143.108" fill="#CAE4DA"/>
<path d="M58.8383 108.403C36.7856 107.977 20.8195 125.449 9.50802 142.402C8.43389 144 11.0198 145.505 12.0806 143.907C22.7954 127.859 37.9127 110.986 58.8383 111.399C59.2097 111.364 59.5547 111.191 59.8058 110.914C60.0569 110.637 60.196 110.275 60.196 109.901C60.196 109.526 60.0569 109.165 59.8058 108.888C59.5547 108.611 59.2097 108.438 58.8383 108.403Z" fill="#16276A"/>
<path d="M176.409 5.51319C167.829 10.1742 162.724 18.1779 160.231 27.4867C158.798 32.8136 158.321 38.66 155.231 43.3743C152.36 47.3726 148.102 50.147 143.296 51.1516C131.972 53.9615 120.66 47.9421 109.309 50.6988C98.5146 53.3623 89.9481 61.6989 82.2171 69.2231C72.3638 78.8318 63.2869 89.2121 55.0721 100.266C53.9184 101.811 56.5043 103.315 57.6447 101.784C64.9337 92.0036 72.9106 82.76 81.5143 74.1239C89.1923 66.4265 97.6659 57.4374 108.301 54.148C119.507 50.6322 130.845 56.5184 142.196 54.4942C146.807 53.7541 151.12 51.7337 154.648 48.6613C158.493 45.1721 160.31 40.3513 161.477 35.344C162.803 29.6575 163.944 24.0109 166.781 18.8571C169.381 14.2836 173.227 10.5505 177.868 8.09675C179.565 7.19118 178.053 4.5943 176.356 5.51319H176.409Z" fill="#16276A"/>
<path d="M193.98 23.7715C187.124 24.211 181.395 28.5657 177.801 34.2788C175.842 37.5381 174.346 41.057 173.359 44.7329C172.364 48.1954 171.781 51.7777 170.561 55.1736C169.325 58.5233 167.094 61.4104 164.169 63.4437C161.172 65.681 157.671 67.3723 153.852 66.8929C150.232 66.4401 146.864 64.8553 143.244 64.4159C139.516 64.1632 135.781 64.7974 132.343 66.2669C124.877 69.0236 117.756 73.2586 110.927 77.3336C104.208 81.3844 97.9509 86.1628 92.2689 91.5831C81.2359 102.011 71.9135 114.129 60.7213 124.384C48.7866 135.357 33.8151 144.732 17.0666 144.493C16.6953 144.528 16.3503 144.701 16.0992 144.978C15.8481 145.255 15.709 145.616 15.709 145.991C15.709 146.366 15.8481 146.727 16.0992 147.004C16.3503 147.281 16.6953 147.454 17.0666 147.489C48.2429 147.929 68.6248 120.215 88.1182 99.9331C93.3164 94.3298 99.011 89.2126 105.132 84.6448C111.987 79.9004 119.191 75.6845 126.681 72.0333C130.195 70.1203 133.945 68.6787 137.833 67.7452C141.811 66.8929 145.127 67.7452 148.959 68.8638C152.367 69.8227 155.749 70.4353 159.21 69.3832C162.587 68.2251 165.677 66.3491 168.267 63.8832C174.327 58.4497 174.552 50.0065 177.059 42.7619C179.711 35.1711 185.241 27.3139 193.926 26.7812C195.836 26.6746 195.849 23.6782 193.926 23.7848L193.98 23.7715Z" fill="#16276A"/>
<path d="M164.647 20.6418C165.893 23.3052 168.386 25.4626 170.415 27.5934L177.192 34.6782C178.518 36.0765 180.639 33.9457 179.3 32.5607L172.67 25.6624L169.553 22.3996C168.591 21.449 167.789 20.3469 167.18 19.1369C166.98 18.7934 166.653 18.5431 166.271 18.4408C165.888 18.3385 165.481 18.3924 165.137 18.5909C164.803 18.7982 164.561 19.1272 164.462 19.5093C164.363 19.8915 164.415 20.2972 164.607 20.6418H164.647Z" fill="#16276A"/>
<path d="M159.024 37.9542L171.436 51.9107C172.762 53.349 174.818 51.2315 173.545 49.7933L161.106 35.8368C159.78 34.3985 157.711 36.516 158.984 37.9542H159.024Z" fill="#16276A"/>
<path d="M149.238 50.779C152.827 56.1681 156.637 61.4062 160.668 66.4934C160.951 66.7692 161.329 66.9235 161.723 66.9235C162.116 66.9235 162.495 66.7692 162.777 66.4934C163.049 66.2062 163.201 65.8247 163.201 65.428C163.201 65.0314 163.049 64.6499 162.777 64.3626C158.918 59.4885 155.258 54.4413 151.81 49.2741C150.749 47.6761 148.163 49.1676 149.238 50.779Z" fill="#16276A"/>
<path d="M131.985 55.2003C134.245 59.3614 136.91 63.287 139.942 66.9195C140.222 67.1985 140.601 67.355 140.996 67.355C141.391 67.355 141.77 67.1985 142.05 66.9195C142.322 66.6345 142.473 66.2552 142.473 65.8608C142.473 65.4663 142.322 65.0871 142.05 64.8021C139.192 61.3571 136.686 57.6316 134.571 53.6821C134.364 53.3516 134.037 53.1149 133.659 53.0221C133.282 52.9293 132.883 52.9876 132.547 53.1847C132.211 53.3818 131.965 53.7023 131.86 54.0784C131.755 54.4545 131.8 54.8568 131.985 55.2003Z" fill="#16276A"/>
<path d="M113.009 53.0293C115.637 59.3926 119.04 65.4045 123.14 70.9278C123.347 71.2635 123.673 71.5072 124.053 71.6087C124.433 71.7102 124.837 71.6619 125.182 71.4738C125.52 71.2688 125.764 70.9398 125.863 70.5567C125.962 70.1736 125.908 69.7668 125.713 69.4229C121.749 64.1174 118.449 58.3433 115.887 52.2303C115.77 51.8528 115.514 51.5341 115.172 51.3388C114.829 51.1434 114.426 51.086 114.043 51.1782C113.664 51.2899 113.344 51.5461 113.15 51.8921C112.957 52.238 112.906 52.6463 113.009 53.0293Z" fill="#16276A"/>
<path d="M92.826 61.7924C96.7326 68.5475 101.567 74.7163 107.187 80.117C108.514 81.4487 110.702 79.3313 109.309 77.9995C103.862 72.7805 99.1787 66.8127 95.3986 60.2742C95.1803 59.9701 94.8569 59.7589 94.4917 59.6817C94.1264 59.6045 93.7457 59.6669 93.4239 59.8568C93.1021 60.0467 92.8624 60.3504 92.7519 60.7084C92.6413 61.0664 92.6677 61.4529 92.826 61.7924Z" fill="#16276A"/>
<path d="M77.8014 75.8287C80.8779 82.7271 84.2461 89.8119 90.5848 94.2865C92.1629 95.3918 93.6481 92.7949 92.0833 91.7029C86.2485 87.5746 83.1985 80.6496 80.374 74.3105C80.1723 73.9693 79.8445 73.7218 79.4621 73.6221C79.0796 73.5223 78.6734 73.5783 78.3318 73.7778C77.9972 73.9851 77.7552 74.3142 77.6564 74.6963C77.5576 75.0784 77.6095 75.4841 77.8014 75.8287Z" fill="#16276A"/>
<path d="M64.6333 92.1159C68.3729 98.2552 72.3113 104.488 78.3318 108.629C78.6738 108.815 79.0743 108.86 79.4489 108.755C79.8234 108.65 80.1425 108.403 80.3388 108.065C80.5351 107.728 80.5931 107.328 80.5007 106.948C80.4083 106.569 80.1726 106.241 79.8435 106.032C74.2739 102.21 70.667 96.2709 67.2059 90.6111C66.2113 88.9597 63.6255 90.4646 64.6333 92.1159Z" fill="#16276A"/>
<path d="M56.3987 117.858C57.0485 119.004 57.6453 120.149 58.2685 121.294C58.5182 121.682 58.8218 122.032 59.1703 122.333C59.6874 122.852 60.1648 123.398 60.6422 123.944C60.7803 124.084 60.9445 124.195 61.1254 124.271C61.3064 124.346 61.5004 124.385 61.6964 124.385C61.8924 124.385 62.0865 124.346 62.2675 124.271C62.4484 124.195 62.6126 124.084 62.7507 123.944C63.0253 123.661 63.1789 123.281 63.1789 122.885C63.1789 122.49 63.0253 122.11 62.7507 121.827C62.1539 121.134 61.5307 120.495 60.8676 119.829C60.7218 119.683 60.7085 119.536 60.987 120.002L60.8676 119.829L60.43 118.977C59.9526 118.085 59.4753 117.219 58.9846 116.313C58.7712 116 58.4477 115.779 58.0789 115.695C57.7101 115.611 57.3234 115.67 56.9962 115.861C56.669 116.051 56.4256 116.359 56.3148 116.722C56.204 117.085 56.234 117.476 56.3987 117.818V117.858Z" fill="#16276A"/>
<path d="M24.4795 99.3472C26.6296 105.54 29.4115 111.494 32.7808 117.112L24.4795 99.3472Z" fill="#CAE4DA"/>
<path d="M23.0338 99.7467C25.2349 106.056 28.0696 112.125 31.4942 117.858C31.6929 118.211 32.0232 118.471 32.4124 118.579C32.8016 118.688 33.2178 118.637 33.5695 118.437C33.9212 118.238 34.1796 117.906 34.2878 117.515C34.3959 117.125 34.3451 116.707 34.1464 116.353C30.8404 110.846 28.1033 105.014 25.9777 98.9476C25.3412 97.1365 22.4636 97.9222 23.1001 99.7467H23.0338Z" fill="#16276A"/>
<path d="M7.17383 114.648C9.71457 120.543 13.1699 125.995 17.4112 130.802L7.17383 114.648Z" fill="#CAE4DA"/>
<path d="M5.88828 115.408C8.50036 121.409 12.0306 126.962 16.3511 131.868C17.6772 133.306 19.7326 131.189 18.4596 129.737C14.3281 125.008 10.9549 119.661 8.46088 113.89C8.2592 113.548 7.93145 113.301 7.54897 113.201C7.1665 113.101 6.76027 113.157 6.41871 113.357C6.08411 113.564 5.84215 113.893 5.74331 114.275C5.64448 114.658 5.69642 115.063 5.88828 115.408Z" fill="#16276A"/>
<path d="M38.2971 124.823C40.4368 128.751 43.2517 132.268 46.6116 135.211C46.8954 135.483 47.2731 135.636 47.6659 135.636C48.0586 135.636 48.4363 135.483 48.7201 135.211C48.9979 134.929 49.1537 134.548 49.1537 134.152C49.1537 133.755 48.9979 133.375 48.7201 133.093C47.1066 131.693 45.6159 130.156 44.2644 128.499C43.7208 127.82 43.1505 127.047 42.5936 126.195C42.0366 125.343 41.4134 124.304 40.8697 123.318C40.668 122.977 40.3402 122.73 39.9578 122.63C39.5753 122.53 39.1691 122.586 38.8275 122.786C38.4886 122.986 38.2425 123.312 38.143 123.694C38.0436 124.076 38.099 124.482 38.2971 124.823Z" fill="#16276A"/>
<path d="M26.8927 133.546C29.1013 136.406 31.5407 139.078 34.1861 141.536C34.4657 141.817 34.845 141.975 35.2404 141.975C35.6358 141.975 36.015 141.817 36.2946 141.536C36.5742 141.255 36.7313 140.874 36.7313 140.477C36.7313 140.08 36.5742 139.699 36.2946 139.419C33.6527 136.957 31.2136 134.285 29.0011 131.428C28.8631 131.289 28.6989 131.178 28.5179 131.102C28.337 131.026 28.1429 130.987 27.9469 130.987C27.7509 130.987 27.5568 131.026 27.3759 131.102C27.195 131.178 27.0307 131.289 26.8927 131.428C26.6271 131.716 26.4795 132.094 26.4795 132.487C26.4795 132.88 26.6271 133.258 26.8927 133.546Z" fill="#16276A"/>
<path d="M168.585 4.42139C169.954 6.00066 171.503 7.41304 173.2 8.62962L168.585 4.42139Z" fill="#CAE4DA"/>
<path d="M167.882 5.12729C168.566 5.93385 169.306 6.69039 170.096 7.39121C170.929 8.15607 171.815 8.85932 172.749 9.49537C172.973 9.61819 173.236 9.64934 173.483 9.58238C173.73 9.51542 173.942 9.35547 174.075 9.13577C174.195 8.91102 174.226 8.64897 174.162 8.40204C174.098 8.1551 173.944 7.94151 173.73 7.80404L173.186 7.40454L173.04 7.29798L172.735 7.05828C172.298 6.69871 171.887 6.32584 171.409 5.95296C170.636 5.26972 169.914 4.53087 169.248 3.74228C169.061 3.55524 168.809 3.4502 168.545 3.4502C168.281 3.4502 168.029 3.55524 167.842 3.74228C167.659 3.93123 167.557 4.18446 167.557 4.4481C167.557 4.71173 167.659 4.96496 167.842 5.15391L167.882 5.12729Z" fill="#16276A"/>
<path d="M162.923 9.7749L167.79 12.5982L162.923 9.7749Z" fill="#CAE4DA"/>
<path d="M162.419 10.6403L167.286 13.4636C167.399 13.53 167.524 13.5734 167.654 13.5913C167.784 13.6092 167.916 13.6013 168.043 13.5679C168.17 13.5345 168.289 13.4763 168.393 13.3967C168.498 13.3172 168.585 13.2177 168.652 13.104C168.718 12.9903 168.761 12.8647 168.779 12.7342C168.797 12.6038 168.789 12.4711 168.755 12.3437C168.722 12.2163 168.664 12.0968 168.585 11.9919C168.506 11.887 168.407 11.7988 168.294 11.7323L163.48 8.90907C163.251 8.77485 162.979 8.73731 162.723 8.80474C162.467 8.87217 162.248 9.03904 162.114 9.26862C161.98 9.4982 161.943 9.77169 162.01 10.0289C162.077 10.2862 162.243 10.5061 162.472 10.6403H162.419Z" fill="#16276A"/>
<path d="M158.692 16.0474C160.429 16.9941 162.284 17.7018 164.209 18.1515L158.692 16.0474Z" fill="#CAE4DA"/>
<path d="M158.175 16.9128C159.983 17.9099 161.92 18.6495 163.93 19.1102C164.183 19.1763 164.452 19.1409 164.68 19.0117C164.907 18.8825 165.076 18.6695 165.15 18.4177C165.216 18.16 165.179 17.8868 165.048 17.6557C164.917 17.4247 164.702 17.2538 164.447 17.1792C163.505 16.9665 162.579 16.6861 161.676 16.3402L160.986 16.0739L160.801 15.9939L160.496 15.8608C160.058 15.6477 159.621 15.4346 159.17 15.2082C159.057 15.132 158.93 15.0798 158.797 15.0547C158.664 15.0296 158.526 15.0321 158.394 15.0622C158.262 15.0923 158.137 15.1493 158.027 15.2296C157.918 15.31 157.826 15.412 157.757 15.5294C157.688 15.6468 157.644 15.7771 157.627 15.9124C157.61 16.0476 157.621 16.1848 157.659 16.3157C157.697 16.4465 157.761 16.5682 157.847 16.6732C157.934 16.7781 158.041 16.8642 158.162 16.9262L158.175 16.9128Z" fill="#16276A"/>
<path d="M155.921 23.625C157.489 24.2668 159.142 24.675 160.827 24.8369L155.921 23.625Z" fill="#CAE4DA"/>
<path d="M155.523 25.0633C157.219 25.7584 159.005 26.2068 160.827 26.395C161.224 26.3888 161.603 26.2317 161.888 25.9556C162.167 25.6712 162.324 25.289 162.326 24.8902C162.326 24.6945 162.287 24.5007 162.212 24.3201C162.137 24.1395 162.027 23.9756 161.888 23.8381C161.599 23.5674 161.222 23.4113 160.827 23.3987L160.191 23.3187H160.589C159.123 23.1195 157.688 22.7347 156.319 22.1734C155.928 22.0713 155.513 22.1288 155.165 22.3332C154.997 22.4282 154.849 22.556 154.73 22.7093C154.612 22.8625 154.525 23.0381 154.476 23.2255C154.377 23.6164 154.429 24.0302 154.621 24.3841C154.837 24.7063 155.155 24.9457 155.523 25.0633Z" fill="#16276A"/>
<path d="M154.117 31.1626C155.667 32.193 157.483 32.744 159.342 32.7474L154.117 31.1626Z" fill="#CAE4DA"/>
<path d="M153.07 32.1878C153.982 32.9131 155.034 33.4392 156.16 33.7326C157.195 34.0326 158.265 34.1894 159.343 34.1987C159.738 34.1987 160.117 34.042 160.397 33.7626C160.678 33.4833 160.837 33.104 160.841 32.7072C160.831 32.3112 160.67 31.9343 160.391 31.6543C160.112 31.3742 159.737 31.2124 159.343 31.2023C158.953 31.215 158.563 31.2017 158.176 31.1623H158.573C157.847 31.0725 157.131 30.9074 156.438 30.6696L155.934 30.4831C155.828 30.4831 155.934 30.4832 156.12 30.5498H155.988L155.749 30.4299C155.602 30.3602 155.46 30.2801 155.324 30.1902L155.126 30.0703C154.839 29.7964 154.46 29.6397 154.065 29.6309C153.772 29.6355 153.487 29.7262 153.245 29.8919C153.002 30.0576 152.814 30.2909 152.703 30.5629C152.591 30.835 152.561 31.1339 152.617 31.4227C152.673 31.7115 152.812 31.9774 153.017 32.1878H153.07Z" fill="#16276A"/>
<path d="M151.279 39.1528C152.861 39.9955 154.553 40.6098 156.305 40.9773L151.279 39.1528Z" fill="#CAE4DA"/>
<path d="M150.524 40.4843C151.411 40.9755 152.338 41.3898 153.296 41.7228C154.157 42.0472 155.044 42.2967 155.948 42.4686C156.334 42.5642 156.742 42.507 157.088 42.3088C157.257 42.2139 157.404 42.086 157.523 41.9328C157.641 41.7795 157.728 41.604 157.778 41.4166C157.876 41.0336 157.821 40.6272 157.626 40.2839C157.43 39.9407 157.109 39.6877 156.73 39.5788C155.477 39.3243 154.254 38.9359 153.083 38.4202L153.441 38.58C152.977 38.3669 152.513 38.1538 152.115 37.9008C151.777 37.7418 151.392 37.7153 151.036 37.8264C150.679 37.9374 150.377 38.1781 150.188 38.5013C149.999 38.8244 149.937 39.2068 150.014 39.5736C150.09 39.9404 150.301 40.2651 150.604 40.4843H150.524Z" fill="#16276A"/>
<path d="M147.566 45.1323C149.032 46.2545 150.704 47.0738 152.486 47.5428L147.566 45.1323Z" fill="#CAE4DA"/>
<path d="M146.533 46.1844C147.347 46.8517 148.237 47.4194 149.185 47.8757C150.111 48.3688 151.096 48.7404 152.116 48.981C152.497 49.0877 152.905 49.0383 153.251 48.8436C153.596 48.649 153.851 48.3249 153.959 47.9423C154.054 47.5577 153.998 47.151 153.803 46.8065C153.608 46.462 153.289 46.2059 152.911 46.0911C152.325 45.9572 151.753 45.77 151.201 45.5318L151.559 45.6916C150.962 45.4253 150.378 45.1456 149.808 44.826C149.543 44.6662 149.291 44.5197 149.039 44.3466C148.924 44.2788 148.813 44.2032 148.708 44.1202L148.562 44.0137C148.787 44.1868 148.84 44.2267 148.734 44.1335L148.641 44.0669C148.356 43.7982 147.984 43.642 147.594 43.6274C147.197 43.6337 146.818 43.7908 146.533 44.0669C146.258 44.3504 146.104 44.7302 146.104 45.1256C146.104 45.5211 146.258 45.901 146.533 46.1844Z" fill="#16276A"/>
<path d="M141.241 47.6494C142.447 49.232 144.036 50.4789 145.856 51.2717L141.241 47.6494Z" fill="#CAE4DA"/>
<path d="M139.955 48.3952C140.328 48.9027 140.731 49.3874 141.162 49.8468C141.579 50.2611 142.022 50.6481 142.488 51.0054C143.322 51.6059 144.21 52.1275 145.14 52.5635C145.494 52.7506 145.904 52.8027 146.294 52.71C146.669 52.605 146.988 52.3564 147.182 52.0175C147.378 51.6737 147.431 51.2669 147.332 50.8838C147.233 50.5007 146.989 50.1716 146.652 49.9666C145.716 49.5467 144.827 49.0289 144 48.4218L144.305 48.6482C143.565 48.0679 142.902 47.3968 142.329 46.6506L142.568 46.9436C142.361 46.6158 142.047 46.3709 141.679 46.2511C141.289 46.149 140.874 46.2065 140.525 46.4109C140.359 46.5066 140.213 46.6348 140.097 46.7881C139.981 46.9414 139.897 47.1165 139.849 47.3031C139.786 47.4928 139.767 47.6942 139.792 47.8925C139.817 48.0907 139.887 48.2808 139.995 48.4485L139.955 48.3952Z" fill="#16276A"/>
<path d="M133.245 47.3164C134.366 49.217 135.672 51.0014 137.144 52.6433L133.245 47.3164Z" fill="#CAE4DA"/>
<path d="M131.959 48.0755C133.131 50.0947 134.513 51.983 136.083 53.7087C136.364 53.9876 136.742 54.1441 137.137 54.1441C137.532 54.1441 137.911 53.9876 138.191 53.7087C138.463 53.4237 138.615 53.0445 138.615 52.65C138.615 52.2555 138.463 51.8763 138.191 51.5913C137.847 51.2051 137.515 50.8188 137.197 50.4193L136.918 50.0731L136.799 49.9266C136.638 49.6871 136.466 49.456 136.282 49.2341C135.645 48.3552 135.035 47.4496 134.492 46.5707C134.393 46.401 134.263 46.2525 134.107 46.1336C133.952 46.0146 133.774 45.9277 133.585 45.8776C133.396 45.8275 133.199 45.8153 133.005 45.8417C132.812 45.868 132.625 45.9325 132.456 46.0313C132.287 46.1301 132.139 46.2613 132.021 46.4176C131.903 46.5738 131.816 46.7519 131.766 46.9417C131.716 47.1315 131.704 47.3294 131.73 47.5239C131.757 47.7184 131.821 47.9059 131.919 48.0755H131.959Z" fill="#16276A"/>
<path d="M125.659 46.917C125.351 48.6779 125.705 50.4912 126.654 52.0042L125.659 46.917Z" fill="#CAE4DA"/>
<path d="M124.214 46.5174C123.817 48.6666 124.228 50.8874 125.368 52.7498C125.572 53.0881 125.898 53.3339 126.279 53.4357C126.66 53.5375 127.065 53.4874 127.41 53.2959C127.747 53.0909 127.991 52.7618 128.09 52.3787C128.189 51.9957 128.135 51.5888 127.94 51.245C127.821 51.0319 127.688 50.8322 127.582 50.6058C127.516 50.497 127.462 50.3808 127.423 50.2595C127.423 50.2595 127.542 50.5791 127.423 50.3794C127.417 50.3129 127.417 50.2461 127.423 50.1796C127.251 49.7104 127.131 49.2236 127.065 48.728V49.1275C126.991 48.5038 126.991 47.8735 127.065 47.2498V47.6493C127.065 47.5295 127.065 47.4229 127.065 47.3164C127.165 46.9256 127.113 46.5113 126.919 46.1578C126.725 45.8189 126.406 45.5702 126.031 45.4653C125.647 45.3663 125.241 45.4207 124.897 45.617C124.553 45.8133 124.299 46.1362 124.187 46.5174H124.214Z" fill="#16276A"/>
<path d="M116.788 45.4785C117 47.3234 117.506 49.122 118.287 50.8054L116.788 45.4785Z" fill="#CAE4DA"/>
<path d="M115.29 45.4784C115.531 47.5991 116.108 49.6673 117.001 51.6044C117.195 51.9433 117.514 52.1919 117.889 52.2969C118.278 52.396 118.69 52.3437 119.043 52.1504C119.375 51.9409 119.615 51.6119 119.713 51.2307C119.812 50.8495 119.762 50.4449 119.573 50.0995L119.441 49.7799C119.282 49.4337 119.52 50.0196 119.441 49.7799C119.361 49.5402 119.295 49.407 119.229 49.2206C119.083 48.8211 118.95 48.4215 118.831 48.0087C118.594 47.1925 118.417 46.3603 118.3 45.5184V45.9179C118.3 45.7847 118.3 45.6516 118.3 45.5184C118.282 45.1269 118.127 44.7543 117.863 44.4663C117.725 44.3266 117.56 44.2157 117.379 44.14C117.198 44.0644 117.004 44.0254 116.808 44.0254C116.612 44.0254 116.418 44.0644 116.237 44.14C116.056 44.2157 115.892 44.3266 115.754 44.4663C115.613 44.602 115.501 44.7654 115.426 44.9465C115.351 45.1275 115.313 45.3222 115.317 45.5184L115.29 45.4784Z" fill="#16276A"/>
<path d="M108.302 46.7837C108.711 48.29 109.243 49.7599 109.893 51.1784L108.302 46.7837Z" fill="#CAE4DA"/>
<path d="M106.856 47.1434C107.31 48.7731 107.895 50.3631 108.606 51.8977C108.801 52.2356 109.12 52.484 109.494 52.5902C109.885 52.6923 110.3 52.6348 110.648 52.4304C110.815 52.3347 110.96 52.2064 111.076 52.0532C111.193 51.8999 111.277 51.7247 111.324 51.5381C111.41 51.1465 111.358 50.7374 111.179 50.3795C111.059 50.1132 110.927 49.8335 110.82 49.5538L110.966 49.9134C110.474 48.7534 110.062 47.561 109.733 46.3444C109.625 45.9647 109.372 45.643 109.03 45.4487C108.688 45.2544 108.283 45.203 107.903 45.3056C107.526 45.4175 107.207 45.671 107.012 46.0134C106.817 46.3558 106.761 46.7606 106.856 47.1434Z" fill="#16276A"/>
<path d="M100.703 49.2207C101.35 50.7686 102.246 52.1992 103.355 53.4556L100.703 49.2207Z" fill="#CAE4DA"/>
<path d="M99.417 49.9797C100.136 51.6403 101.116 53.1737 102.321 54.5209C102.604 54.8006 102.985 54.9574 103.382 54.9574C103.779 54.9574 104.16 54.8006 104.443 54.5209C104.711 54.2343 104.861 53.8556 104.861 53.4621C104.861 53.0686 104.711 52.69 104.443 52.4034C104.191 52.1238 103.952 51.8441 103.727 51.5511L103.965 51.8441C103.159 50.8106 102.494 49.6728 101.99 48.4615C101.894 48.2943 101.767 48.148 101.614 48.0314C101.461 47.9147 101.287 47.83 101.101 47.7823C100.909 47.7268 100.708 47.7111 100.509 47.7363C100.311 47.7615 100.12 47.827 99.9474 47.9288C99.6109 48.125 99.3636 48.445 99.2578 48.8211V49.2206C99.2561 49.4886 99.3296 49.7517 99.47 49.9797H99.417Z" fill="#16276A"/>
<path d="M92.4414 53.8018C93.0781 55.4148 94.0449 56.8757 95.2792 58.0899L92.4414 53.8018Z" fill="#CAE4DA"/>
<path d="M90.9959 54.2547C91.7233 56.109 92.8198 57.7947 94.2183 59.2088C94.5005 59.4845 94.8788 59.6388 95.2725 59.6388C95.6663 59.6388 96.0446 59.4845 96.3268 59.2088C96.6022 58.9231 96.7563 58.541 96.7563 58.1434C96.7563 57.7457 96.6022 57.3636 96.3268 57.078C95.9287 56.6895 95.5607 56.271 95.2261 55.8261L95.4516 56.1325C94.7848 55.2615 94.2322 54.3082 93.8072 53.2959L93.9531 53.6555L93.8735 53.4557C93.7606 53.0833 93.5151 52.7657 93.184 52.5634C92.8383 52.3652 92.43 52.308 92.0435 52.4036C91.6654 52.5093 91.3424 52.7574 91.1418 53.0961C91.0404 53.2692 90.9752 53.4611 90.9501 53.6603C90.925 53.8595 90.9406 54.0618 90.9959 54.2547Z" fill="#16276A"/>
<path d="M85.5723 60.6069C86.6985 61.7366 87.9642 62.7167 89.3383 63.5234L85.5723 60.6069Z" fill="#CAE4DA"/>
<path d="M84.5244 61.6588C85.1355 62.2652 85.782 62.8344 86.4605 63.3635C87.1403 63.8866 87.8486 64.3712 88.5822 64.815C88.9202 64.974 89.3051 65.0005 89.6616 64.8895C90.0181 64.7784 90.3205 64.5378 90.5095 64.2146C90.6986 63.8914 90.7608 63.509 90.684 63.1422C90.6071 62.7755 90.3967 62.4507 90.094 62.2315C89.4124 61.823 88.7528 61.3784 88.1181 60.8997L88.4098 61.1395C87.7866 60.6467 87.2031 60.1007 86.6329 59.5547C86.346 59.2808 85.9677 59.1241 85.572 59.1152C85.3771 59.1152 85.1841 59.154 85.0043 59.2295C84.8245 59.3049 84.6614 59.4155 84.5244 59.5547C84.2466 59.8365 84.0908 60.2169 84.0908 60.6134C84.0908 61.0099 84.2466 61.3904 84.5244 61.6722V61.6588Z" fill="#16276A"/>
<path d="M79.4062 66.3203C80.3193 67.6904 81.6867 68.6908 83.2651 69.1436L79.4062 66.3203Z" fill="#CAE4DA"/>
<path d="M78.1195 67.119C78.6963 68.0042 79.4341 68.7723 80.2943 69.3829C81.1132 69.8808 81.9794 70.2957 82.8801 70.6214C83.07 70.6775 83.2693 70.6934 83.4656 70.6682C83.6619 70.643 83.8509 70.5771 84.0206 70.4749C84.3626 70.2746 84.6118 69.9465 84.7137 69.5622C84.8156 69.1779 84.7618 68.7687 84.5643 68.4241L84.3255 68.1178C84.1392 67.9367 83.9116 67.8041 83.6625 67.7316L83.2249 67.5451L83.5829 67.7049C82.8543 67.4247 82.1637 67.0533 81.5275 66.5996L81.8325 66.826C81.4488 66.5161 81.1018 66.1631 80.7982 65.7739L81.0369 66.0802L80.6921 65.6008C80.4862 65.2723 80.1716 65.0271 79.8036 64.9083C79.4131 64.8062 78.9983 64.8637 78.6499 65.0681C78.3134 65.2643 78.0661 65.5843 77.9603 65.9604C77.8587 66.3525 77.9159 66.7691 78.1195 67.119Z" fill="#16276A"/>
<path d="M73.3057 71.9531C74.5826 73.0316 76.0016 73.9279 77.5226 74.6166L73.3057 71.9531Z" fill="#CAE4DA"/>
<path d="M72.2052 73.0057C73.57 74.1845 75.092 75.1661 76.7271 75.9221C77.0795 76.1154 77.4916 76.1677 77.8808 76.0686C78.2613 75.9627 78.5848 75.7102 78.781 75.3661C78.9772 75.022 79.0301 74.614 78.9284 74.2308C78.8227 73.8548 78.5754 73.5348 78.2389 73.3386C76.9679 72.7579 75.7668 72.0341 74.6585 71.1812L74.9634 71.4076C74.738 71.2478 74.5258 71.0613 74.3269 70.8882C74.0387 70.6164 73.6613 70.4601 73.2661 70.4487C72.8687 70.4495 72.4875 70.6074 72.2052 70.8882C71.9324 71.1763 71.7764 71.5562 71.7676 71.9536C71.7745 72.3475 71.9311 72.7238 72.2052 73.0057Z" fill="#16276A"/>
<path d="M67.3389 79.0249C68.4105 80.1221 69.6975 80.9838 71.1182 81.5552L67.3389 79.0249Z" fill="#CAE4DA"/>
<path d="M66.2912 80.077C66.9115 80.7197 67.6009 81.2914 68.3466 81.7816C69.094 82.2668 69.8895 82.6729 70.7203 82.9935C70.9101 83.0495 71.1095 83.0654 71.3058 83.0402C71.5021 83.015 71.691 82.9492 71.8607 82.847C72.1982 82.6518 72.4458 82.3314 72.5503 81.9547C72.6559 81.5644 72.6035 81.1478 72.4044 80.7961L72.1657 80.4898C71.9793 80.3088 71.7517 80.1762 71.5027 80.1036L71.3303 80.037L71.6883 80.1835C70.8126 79.8116 69.9881 79.3282 69.2351 78.7453L69.5268 78.985C69.1264 78.6715 68.7497 78.3288 68.3996 77.9596C68.12 77.6788 67.7408 77.521 67.3454 77.521C66.95 77.521 66.5708 77.6788 66.2912 77.9596C66.0116 78.2403 65.8545 78.6212 65.8545 79.0183C65.8545 79.4154 66.0116 79.7962 66.2912 80.077Z" fill="#16276A"/>
<path d="M61.4375 86.8555C62.5194 87.8269 63.7177 88.659 65.0047 89.3325L61.4375 86.8555Z" fill="#CAE4DA"/>
<path d="M60.3766 87.9206C61.5589 88.9578 62.8586 89.8517 64.2488 90.584C64.6012 90.7773 65.0133 90.8296 65.4025 90.7305C65.7776 90.6256 66.0967 90.3769 66.291 90.038C66.4821 89.6954 66.5337 89.2918 66.4348 88.9119C66.3359 88.532 66.0942 88.2053 65.7605 88.0005C64.8266 87.5147 63.9388 86.9441 63.1084 86.2959L63.4134 86.5356C63.0951 86.2825 62.7769 86.0295 62.4719 85.7632C62.1912 85.4879 61.8165 85.3307 61.4242 85.3237C61.0268 85.3245 60.6458 85.4824 60.3634 85.7632C60.0893 86.045 59.9327 86.4214 59.9258 86.8153C59.932 87.2132 60.0884 87.594 60.3634 87.8806L60.3766 87.9206Z" fill="#16276A"/>
<path d="M56.9287 92.5952C57.6499 93.8739 58.6749 94.9536 59.9124 95.7381L56.9287 92.5952Z" fill="#CAE4DA"/>
<path d="M55.6427 93.354C56.5008 94.8467 57.7067 96.1079 59.1569 97.0296C59.5052 97.234 59.9201 97.2915 60.3105 97.1894C60.6808 97.0749 60.9967 96.8287 61.199 96.4969C61.3943 96.1531 61.4481 95.7463 61.349 95.3632C61.2499 94.9801 61.0058 94.651 60.6686 94.446C60.4328 94.3016 60.2068 94.1414 59.9923 93.9666L60.2973 94.2063C59.7026 93.7424 59.168 93.2055 58.706 92.6083L58.9314 92.9146C58.6726 92.5717 58.4378 92.2113 58.2286 91.8359C58.0234 91.5039 57.7016 91.2615 57.3268 91.1567C57.1366 91.1037 56.9378 91.0894 56.742 91.1146C56.5461 91.1397 56.3573 91.2039 56.1864 91.3032C55.8496 91.5083 55.6048 91.8364 55.5035 92.2187C55.4021 92.601 55.452 93.0079 55.6427 93.354Z" fill="#16276A"/>
<path d="M36.0293 87.8408L37.9389 91.9292L36.0293 87.8408Z" fill="#CAE4DA"/>
<path d="M34.7435 88.5865L36.653 92.6883C36.8545 93.0209 37.1707 93.2674 37.5415 93.3808C37.932 93.4829 38.3468 93.4254 38.6952 93.221C39.0317 93.0247 39.279 92.7047 39.3848 92.3287C39.4701 91.9371 39.4186 91.528 39.2389 91.1701L37.3161 87.095C37.1207 86.7571 36.8021 86.5088 36.4276 86.4025C36.0384 86.3034 35.6263 86.3557 35.2739 86.549C34.9397 86.751 34.6971 87.0758 34.5976 87.4546C34.505 87.8414 34.5569 88.2489 34.7435 88.5999V88.5865Z" fill="#16276A"/>
<path d="M27.5957 90.3711C27.8934 91.1046 28.281 91.798 28.7494 92.4353L30.2744 94.7259" fill="#CAE4DA"/>
<path d="M26.164 90.7705C26.5073 91.6374 26.9525 92.46 27.4901 93.2209L29.0018 95.4848C29.2077 95.8134 29.5223 96.0586 29.8903 96.1773C30.2808 96.2794 30.6956 96.222 31.044 96.0175C31.3838 95.815 31.6302 95.4858 31.7296 95.1017C31.8289 94.7176 31.7732 94.3097 31.5744 93.9667L30.1688 91.8625C29.7124 91.2268 29.3173 90.5491 28.9886 89.8383L29.1345 90.1979L29.0549 89.9715C28.9419 89.5991 28.6965 89.2815 28.3653 89.0792C28.1097 88.9263 27.8142 88.854 27.5171 88.8718C27.2201 88.8895 26.9352 88.9965 26.6994 89.1787C26.4636 89.361 26.2878 89.6102 26.1947 89.894C26.1016 90.1778 26.0955 90.4832 26.1773 90.7705H26.164Z" fill="#16276A"/>
<path d="M19.7852 94.4331L22.4373 98.8411L19.7852 94.4331Z" fill="#CAE4DA"/>
<path d="M18.4988 95.1918L21.151 99.5999C21.3692 99.9039 21.6927 100.115 22.0579 100.192C22.4231 100.27 22.8039 100.207 23.1257 100.017C23.4475 99.8273 23.6871 99.5236 23.7977 99.1656C23.9083 98.8077 23.8819 98.4211 23.7236 98.0817L21.0714 93.6736C20.8531 93.3696 20.5298 93.1583 20.1645 93.0811C19.7993 93.0039 19.4185 93.0664 19.0967 93.2563C18.7749 93.4462 18.5353 93.7498 18.4247 94.1078C18.3141 94.4658 18.3405 94.8523 18.4988 95.1918Z" fill="#16276A"/>
<path d="M12.8633 100.12C13.4635 101.459 14.2298 102.716 15.1441 103.862L12.8633 100.12Z" fill="#CAE4DA"/>
<path d="M11.5763 100.865C12.2397 102.298 13.0819 103.641 14.0826 104.86C14.3649 105.141 14.746 105.299 15.1434 105.3C15.3383 105.3 15.5313 105.261 15.7111 105.185C15.891 105.11 16.0541 104.999 16.191 104.86C16.3322 104.725 16.4439 104.561 16.5192 104.38C16.5945 104.199 16.6318 104.004 16.6287 103.808V103.409C16.5619 103.156 16.4291 102.926 16.2441 102.743L16.0452 102.49L16.2839 102.783C15.4567 101.71 14.7579 100.543 14.2019 99.3069C14.1068 99.1382 13.9793 98.9901 13.8268 98.8712C13.6743 98.7523 13.4998 98.665 13.3134 98.6144C13.1223 98.5634 12.923 98.5513 12.7272 98.5788C12.5313 98.6062 12.3429 98.6726 12.173 98.7742C12.0031 98.8672 11.8541 98.9945 11.7355 99.148C11.6168 99.3016 11.531 99.4781 11.4834 99.6664V100.066C11.4815 100.328 11.5502 100.586 11.6824 100.812L11.5763 100.865Z" fill="#16276A"/>
<path d="M7.47949 106.711C7.93604 107.647 8.54063 108.501 9.2697 109.242L7.47949 106.711Z" fill="#CAE4DA"/>
<path d="M6.19279 107.457C6.70509 108.507 7.38608 109.466 8.20844 110.294C8.49159 110.573 8.87219 110.731 9.2693 110.733C9.66669 110.733 10.0478 110.575 10.3302 110.294C10.6043 110.012 10.7608 109.636 10.7678 109.242C10.7529 108.846 10.5977 108.468 10.3302 108.176C10.0576 107.911 9.80495 107.627 9.5743 107.324L9.813 107.63C9.40649 107.112 9.05951 106.549 8.77864 105.952C8.578 105.614 8.25503 105.366 7.87692 105.26C7.68572 105.21 7.48652 105.198 7.2908 105.225C7.09507 105.253 6.90669 105.319 6.73648 105.42C6.56801 105.515 6.42018 105.642 6.30174 105.796C6.1833 105.949 6.09665 106.124 6.04692 106.312V106.711C6.04497 106.974 6.11371 107.231 6.24583 107.457H6.19279Z" fill="#16276A"/>
<path d="M50.5234 110.6C51.4915 112.291 52.8839 115.021 53.6795 116.806L50.5234 110.6Z" fill="#CAE4DA"/>
<path d="M49.2371 111.359C50.3908 113.37 51.4384 115.448 52.3932 117.565C52.5973 117.904 52.9249 118.149 53.3064 118.248C53.6879 118.348 54.093 118.294 54.4353 118.098C54.7674 117.888 55.0073 117.559 55.1059 117.178C55.2045 116.797 55.1543 116.392 54.9658 116.047C54.0201 113.926 52.9666 111.854 51.8097 109.841C51.5914 109.537 51.268 109.326 50.9028 109.249C50.5376 109.171 50.1568 109.234 49.835 109.424C49.5132 109.614 49.2736 109.917 49.163 110.275C49.0524 110.633 49.0788 111.02 49.2371 111.359Z" fill="#16276A"/>
<path d="M43.0049 112.917C43.7318 115.182 44.664 117.376 45.7897 119.47L43.0049 112.917Z" fill="#CAE4DA"/>
<path d="M41.5595 113.317C41.9441 114.555 42.4347 115.767 42.8856 116.966C43.3365 118.164 43.8669 119.176 44.4504 120.228C44.5488 120.398 44.6795 120.546 44.835 120.665C44.9906 120.784 45.1679 120.871 45.3569 120.921C45.5459 120.971 45.7429 120.984 45.9366 120.957C46.1303 120.931 46.317 120.867 46.4859 120.768C46.6548 120.669 46.8027 120.538 46.9211 120.381C47.0395 120.225 47.1262 120.047 47.176 119.857C47.2259 119.667 47.238 119.47 47.2118 119.275C47.1855 119.081 47.1214 118.893 47.023 118.723C46.4606 117.696 45.9559 116.638 45.5112 115.554C45.5112 115.487 45.5112 115.421 45.4184 115.354C45.3256 115.288 45.5245 115.594 45.4184 115.354L45.246 114.915C45.1267 114.635 45.0206 114.342 44.9145 114.062C44.7156 113.53 44.5299 112.997 44.3575 112.451C44.2491 112.071 43.9971 111.748 43.6554 111.552C43.3136 111.355 42.9089 111.3 42.5276 111.399C42.1498 111.514 41.8305 111.77 41.6355 112.114C41.4405 112.459 41.3848 112.865 41.4799 113.25L41.5595 113.317Z" fill="#16276A"/>
<path d="M35.6455 116.899C36.6453 118.67 37.7386 120.386 38.9209 122.04L35.6455 116.899Z" fill="#CAE4DA"/>
<path d="M34.3585 117.725C35.3487 119.502 36.4424 121.218 37.634 122.865C37.8335 123.209 38.1602 123.459 38.5429 123.561C38.9255 123.664 39.333 123.61 39.6761 123.411C40.0133 123.206 40.2575 122.877 40.3565 122.494C40.4556 122.111 40.4018 121.704 40.2066 121.361C39.0196 119.705 37.9261 117.985 36.9311 116.207C36.7296 115.869 36.4042 115.624 36.0249 115.525C35.6456 115.425 35.2426 115.479 34.9022 115.674C34.5654 115.879 34.3207 116.207 34.2193 116.59C34.118 116.972 34.1678 117.379 34.3585 117.725Z" fill="#16276A"/>
<path d="M29.8633 121.414C30.8711 122.865 31.932 124.277 33.0591 125.649L29.8633 121.414Z" fill="#CAE4DA"/>
<path d="M28.577 122.16C29.6511 123.731 30.7916 125.236 31.9983 126.701C32.2815 126.981 32.6621 127.138 33.0592 127.14C33.4523 127.138 33.8285 126.98 34.1068 126.701C34.2467 126.564 34.3575 126.401 34.4327 126.22C34.508 126.039 34.5459 125.845 34.5444 125.649C34.5295 125.253 34.3743 124.875 34.1068 124.583C33.6692 124.051 33.2316 123.505 32.7807 122.945L33.0194 123.252C32.3696 122.399 31.6933 121.534 31.1231 120.655C30.9277 120.317 30.6091 120.069 30.2346 119.962C29.8499 119.861 29.4412 119.914 29.0942 120.109C28.7521 120.309 28.5029 120.637 28.401 121.022C28.2992 121.406 28.3529 121.815 28.5505 122.16H28.577Z" fill="#16276A"/>
<path d="M24.2412 126.501C25.1737 128.188 26.2147 129.811 27.3575 131.362L24.2412 126.501Z" fill="#CAE4DA"/>
<path d="M22.9143 127.247C23.8355 128.947 24.8816 130.576 26.0439 132.121C26.2561 132.443 26.5684 132.687 26.9323 132.813C27.3228 132.915 27.7377 132.858 28.086 132.653C28.4225 132.457 28.6698 132.137 28.7756 131.761C28.8813 131.371 28.8288 130.954 28.6297 130.603C27.4847 129.055 26.4605 127.421 25.5665 125.715C25.3646 125.374 25.0378 125.126 24.6562 125.024C24.2745 124.922 23.8683 124.974 23.5243 125.169C23.1875 125.374 22.9427 125.702 22.8414 126.085C22.74 126.467 22.7899 126.874 22.9806 127.22L22.9143 127.247Z" fill="#16276A"/>
<path d="M19.5996 132.48C20.3418 133.709 21.2326 134.841 22.2518 135.85L19.5996 132.48Z" fill="#CAE4DA"/>
<path d="M18.3136 133.24C19.1061 134.577 20.0592 135.811 21.1514 136.915C21.4321 137.191 21.8068 137.348 22.199 137.355C22.5953 137.349 22.9745 137.191 23.2599 136.915C23.399 136.777 23.5095 136.612 23.5848 136.43C23.6602 136.248 23.699 136.053 23.699 135.857C23.699 135.66 23.6602 135.465 23.5848 135.283C23.5095 135.101 23.399 134.937 23.2599 134.798C22.7587 134.282 22.285 133.74 21.841 133.173L22.0664 133.466C21.6352 132.914 21.2452 132.331 20.8995 131.722C20.6943 131.39 20.3725 131.147 19.9978 131.042C19.8075 130.989 19.6087 130.975 19.4128 131C19.217 131.025 19.0282 131.09 18.8573 131.189C18.5205 131.394 18.2757 131.722 18.1744 132.104C18.073 132.487 18.1229 132.894 18.3136 133.24Z" fill="#16276A"/>
<path d="M14.6133 137.94L17.8091 141.696L14.6133 137.94Z" fill="#CAE4DA"/>
<path d="M13.6322 139.032L16.8148 142.748C16.9528 142.888 17.117 142.999 17.298 143.074C17.4789 143.15 17.673 143.189 17.869 143.189C18.065 143.189 18.2591 143.15 18.44 143.074C18.6209 142.999 18.7852 142.888 18.9232 142.748C19.0644 142.612 19.1761 142.449 19.2514 142.268C19.3267 142.087 19.3639 141.892 19.3608 141.696C19.3495 141.299 19.1938 140.92 18.9232 140.631L15.7406 136.915C15.6026 136.775 15.4383 136.664 15.2574 136.589C15.0765 136.513 14.8824 136.474 14.6864 136.474C14.4904 136.474 14.2963 136.513 14.1154 136.589C13.9344 136.664 13.7702 136.775 13.6322 136.915C13.4906 137.053 13.3788 137.219 13.3036 137.402C13.2283 137.585 13.1912 137.782 13.1945 137.98C13.2028 138.374 13.3592 138.75 13.6322 139.032Z" fill="#16276A"/>
<path d="M22.0927 145.944C22.3131 146.881 22.4594 147.834 22.5303 148.794C22.6032 149.805 22.6032 150.82 22.5303 151.83C22.5303 152.095 22.6351 152.349 22.8216 152.537C23.0081 152.724 23.2611 152.829 23.5249 152.829C23.7855 152.819 24.0328 152.711 24.2172 152.526C24.4016 152.341 24.5096 152.092 24.5194 151.83C24.6482 149.676 24.4695 147.515 23.989 145.411C23.9542 145.285 23.8948 145.166 23.8143 145.062C23.7338 144.959 23.6338 144.872 23.5199 144.807C23.406 144.742 23.2805 144.7 23.1505 144.684C23.0205 144.668 22.8886 144.677 22.7624 144.712C22.6361 144.747 22.518 144.807 22.4146 144.888C22.3113 144.969 22.2249 145.069 22.1602 145.183C22.0956 145.298 22.054 145.424 22.0379 145.554C22.0217 145.685 22.0314 145.817 22.0662 145.944H22.0927Z" fill="#16276A"/>
<path d="M28.9487 144.812C29.4319 145.709 29.84 146.644 30.1687 147.609C30.5096 148.628 30.7799 149.669 30.9776 150.725C31.0488 150.979 31.217 151.194 31.4456 151.324C31.6741 151.453 31.9444 151.487 32.1976 151.418C32.4465 151.34 32.6566 151.17 32.7847 150.942C32.9129 150.715 32.9496 150.446 32.8872 150.192C32.4803 147.96 31.7334 145.804 30.6726 143.8C30.5378 143.583 30.3261 143.425 30.08 143.358C29.834 143.292 29.5719 143.321 29.3466 143.44C29.1349 143.58 28.9816 143.793 28.9156 144.038C28.8497 144.283 28.8756 144.545 28.9885 144.772L28.9487 144.812Z" fill="#16276A"/>
<path d="M36.07 142.562L39.7034 148.435C39.8018 148.604 39.9325 148.753 40.0881 148.872C40.2436 148.991 40.421 149.078 40.61 149.128C40.799 149.178 40.996 149.19 41.1897 149.164C41.3834 149.137 41.5701 149.073 41.739 148.974C41.9079 148.875 42.0558 148.744 42.1742 148.588C42.2926 148.432 42.3792 148.254 42.4291 148.064C42.479 147.874 42.4911 147.676 42.4649 147.482C42.4386 147.287 42.3744 147.1 42.276 146.93L38.6558 141.057C38.4571 140.704 38.1268 140.444 37.7376 140.336C37.3484 140.227 36.9322 140.278 36.5805 140.478C36.2288 140.677 35.9705 141.009 35.8623 141.4C35.7541 141.791 35.805 142.209 36.0037 142.562H36.07Z" fill="#16276A"/>
<path d="M44.1321 138.873C45.7499 140.595 47.4031 142.277 49.0916 143.92C49.2297 144.06 49.3939 144.171 49.5749 144.246C49.7558 144.322 49.9499 144.361 50.1459 144.361C50.3419 144.361 50.5359 144.322 50.7169 144.246C50.8978 144.171 51.062 144.06 51.2001 143.92C51.4716 143.635 51.6232 143.256 51.6232 142.861C51.6232 142.467 51.4716 142.088 51.2001 141.802C49.5116 140.151 47.8584 138.469 46.2405 136.755C45.96 136.476 45.5811 136.32 45.1863 136.32C44.7915 136.32 44.4126 136.476 44.1321 136.755C43.8605 137.04 43.709 137.419 43.709 137.814C43.709 138.208 43.8605 138.588 44.1321 138.873Z" fill="#16276A"/>
<path d="M52.7118 133.705C54.8203 134.904 56.9288 136.129 59.0107 137.381C59.3527 137.567 59.7533 137.612 60.1278 137.507C60.5024 137.402 60.8215 137.154 61.0178 136.817C61.214 136.48 61.2721 136.079 61.1797 135.7C61.0872 135.321 60.8516 134.992 60.5224 134.784C58.4272 133.546 56.332 132.32 54.2103 131.109C53.8663 130.914 53.4601 130.862 53.0784 130.964C52.6968 131.066 52.37 131.314 52.1681 131.655C51.9774 132.001 51.9275 132.408 52.0289 132.79C52.1302 133.172 52.375 133.5 52.7118 133.705Z" fill="#16276A"/>
<path d="M59.7928 128.379L65.8928 131.269C66.0618 131.367 66.2484 131.432 66.4421 131.458C66.6358 131.485 66.8328 131.472 67.0218 131.422C67.2109 131.372 67.3882 131.285 67.5437 131.166C67.6993 131.047 67.83 130.899 67.9284 130.729C68.0268 130.56 68.0909 130.372 68.1172 130.178C68.1434 129.983 68.1313 129.785 68.0814 129.595C68.0315 129.406 67.9449 129.228 67.8265 129.071C67.7081 128.915 67.5602 128.784 67.3913 128.685L61.3709 125.715C61.2017 125.593 61.0089 125.507 60.8049 125.464C60.6009 125.42 60.39 125.42 60.1859 125.463C59.9819 125.507 59.789 125.592 59.6197 125.714C59.4503 125.837 59.3083 125.993 59.2027 126.174C59.097 126.354 59.03 126.555 59.006 126.763C58.9821 126.971 59.0016 127.182 59.0634 127.382C59.1252 127.582 59.2279 127.767 59.3649 127.925C59.5019 128.083 59.6703 128.21 59.8592 128.299L59.7928 128.379Z" fill="#16276A"/>
<path d="M67.2859 121.587C69.3026 122.772 71.4246 123.766 73.6246 124.557C74.0061 124.659 74.4123 124.606 74.755 124.409C75.0977 124.212 75.3491 123.887 75.4545 123.505C75.5532 123.123 75.5005 122.719 75.3075 122.376C75.1145 122.033 74.7963 121.779 74.4202 121.667L72.8156 121.054L72.6432 120.988L72.4841 120.908L71.768 120.588C70.7735 120.122 69.8319 119.589 68.8904 119.043C68.7212 118.921 68.5285 118.835 68.3244 118.792C68.1204 118.749 67.9096 118.748 67.7055 118.792C67.5014 118.835 67.3085 118.92 67.1392 119.042C66.9699 119.165 66.8278 119.321 66.7222 119.502C66.6165 119.682 66.5495 119.883 66.5256 120.091C66.5016 120.299 66.5211 120.51 66.5829 120.71C66.6447 120.91 66.7474 121.095 66.8844 121.253C67.0215 121.411 67.1898 121.538 67.3787 121.627L67.2859 121.587Z" fill="#16276A"/>
<path d="M73.3055 115.062C75.2329 115.929 77.2346 116.62 79.2861 117.126C79.6674 117.221 80.0705 117.165 80.4114 116.969C80.7523 116.773 81.0048 116.452 81.1161 116.074C81.2178 115.691 81.1649 115.283 80.9687 114.938C80.7725 114.594 80.449 114.342 80.0685 114.236C79.127 114.01 78.1855 113.756 77.2572 113.437L75.9311 112.971L75.5996 112.824H75.4273H75.5068C75.3816 112.785 75.2614 112.732 75.1488 112.664L74.7775 112.491C74.4228 112.305 74.0134 112.253 73.6238 112.345C73.2487 112.45 72.9296 112.698 72.7353 113.037C72.5516 113.383 72.5084 113.787 72.6147 114.165C72.721 114.542 72.9685 114.863 73.3055 115.062Z" fill="#16276A"/>
<path d="M78.4513 109.215C80.1361 110.3 82.0212 111.034 83.9943 111.372C84.3795 111.464 84.7849 111.412 85.1347 111.226C85.3871 111.076 85.5901 110.854 85.7184 110.59C85.8468 110.325 85.8949 110.028 85.8567 109.736C85.8186 109.443 85.696 109.169 85.504 108.946C85.312 108.723 85.0591 108.562 84.7767 108.482C83.8702 108.336 82.9814 108.095 82.1245 107.763C82.0189 107.708 81.9078 107.663 81.793 107.63L81.9389 107.697L81.8063 107.63L81.1432 107.324C80.7337 107.114 80.3353 106.883 79.9497 106.631C79.7808 106.533 79.5942 106.468 79.4005 106.442C79.2068 106.415 79.0098 106.428 78.8207 106.478C78.6317 106.528 78.4544 106.615 78.2989 106.734C78.1433 106.853 78.0126 107.001 77.9142 107.171C77.8158 107.34 77.7517 107.528 77.7254 107.722C77.6991 107.917 77.7113 108.115 77.7612 108.305C77.811 108.494 77.8976 108.672 78.0161 108.829C78.1345 108.985 78.2824 109.116 78.4513 109.215Z" fill="#16276A"/>
<path d="M84.2333 102.81C86.0863 103.636 88.0019 104.313 89.962 104.834C90.1567 104.907 90.3643 104.938 90.5718 104.926C90.7792 104.914 90.9819 104.859 91.167 104.764C91.352 104.669 91.5154 104.537 91.6467 104.375C91.778 104.213 91.8745 104.026 91.9299 103.825C91.9852 103.624 91.9983 103.413 91.9684 103.207C91.9384 103 91.866 102.802 91.7558 102.626C91.6455 102.449 91.4999 102.297 91.3281 102.179C91.1562 102.062 90.962 101.982 90.7577 101.944C88.7939 101.421 86.874 100.744 85.0157 99.9198C84.8255 99.8669 84.6266 99.8526 84.4308 99.8778C84.235 99.9029 84.0462 99.967 83.8753 100.066C83.537 100.267 83.2897 100.592 83.1857 100.972C83.133 101.163 83.1188 101.363 83.1438 101.559C83.1689 101.756 83.2327 101.946 83.3316 102.117C83.5501 102.439 83.8664 102.682 84.2333 102.81Z" fill="#16276A"/>
<path d="M90.1734 96.4839C91.0097 97.0001 91.8989 97.4243 92.8256 97.7491C93.7486 98.076 94.7048 98.2993 95.6767 98.4149C96.073 98.4086 96.4521 98.2516 96.7376 97.9755C97.0103 97.6874 97.1663 97.3075 97.1752 96.9101C97.1752 96.7143 97.1366 96.5206 97.0614 96.34C96.9863 96.1594 96.8762 95.9955 96.7376 95.858L96.4326 95.6183C96.2034 95.4839 95.942 95.4148 95.6767 95.4185H95.5971H95.995C94.9783 95.2704 93.9846 94.993 93.0378 94.5929L93.3958 94.7527C92.813 94.4979 92.2501 94.1997 91.7117 93.8604C91.543 93.7598 91.3562 93.6938 91.1619 93.6661C90.9677 93.6385 90.7699 93.6498 90.5801 93.6993C90.3902 93.7488 90.212 93.8356 90.0557 93.9547C89.8994 94.0738 89.7681 94.2228 89.6695 94.3931C89.4777 94.7377 89.4257 95.1434 89.5246 95.5255C89.6234 95.9077 89.8654 96.2367 90.2 96.444L90.1734 96.4839Z" fill="#16276A"/>
<path d="M95.8495 90.6507C97.4255 92.0055 99.2191 93.0817 101.154 93.8335C101.346 93.889 101.547 93.9047 101.746 93.8795C101.944 93.8543 102.135 93.7889 102.308 93.687C102.638 93.4872 102.88 93.1679 102.984 92.7948C103.039 92.6018 103.055 92.3996 103.03 92.2004C103.005 92.0012 102.939 91.8092 102.838 91.6362C102.624 91.3148 102.313 91.0718 101.95 90.9437L101.645 90.8238L102.003 90.9836C100.719 90.4273 99.508 89.7162 98.3956 88.8661L98.7006 89.0925C98.4752 88.9194 98.2365 88.733 98.0243 88.5332C97.7374 88.2593 97.3592 88.1026 96.9634 88.0938C96.5661 88.0945 96.1849 88.2524 95.9026 88.5332C95.631 88.8182 95.4795 89.1975 95.4795 89.5919C95.4795 89.9864 95.631 90.3657 95.9026 90.6507H95.8495Z" fill="#16276A"/>
<path d="M102.122 85.7632C104.055 86.8409 106.119 87.6645 108.261 88.2136C108.456 88.2865 108.664 88.3179 108.871 88.3059C109.079 88.2939 109.281 88.2387 109.466 88.1438C109.651 88.0489 109.815 87.9165 109.946 87.7548C110.077 87.5931 110.174 87.4057 110.229 87.2046C110.285 87.0035 110.298 86.793 110.268 86.5865C110.238 86.38 110.165 86.1821 110.055 86.0052C109.945 85.8283 109.799 85.6764 109.627 85.5591C109.456 85.4418 109.261 85.3616 109.057 85.3237C108.066 85.0735 107.092 84.7621 106.14 84.3915L105.795 84.245C105.437 84.0985 105.994 84.3382 105.715 84.245L105.039 83.9387C104.562 83.7123 104.097 83.4593 103.633 83.2062C103.289 83.0113 102.883 82.9593 102.501 83.0614C102.12 83.1634 101.793 83.4114 101.591 83.7523C101.397 84.0941 101.343 84.4989 101.442 84.8798C101.541 85.2607 101.785 85.5874 102.122 85.7898V85.7632Z" fill="#16276A"/>
<path d="M109.999 79.6775C111.243 81.781 113.24 83.3288 115.581 84.0056C115.95 84.0739 116.331 84.0011 116.649 83.8014C116.966 83.6016 117.198 83.2896 117.298 82.9268C117.398 82.564 117.359 82.1767 117.188 81.8415C117.018 81.5062 116.728 81.2473 116.377 81.1157C116.057 81.0247 115.742 80.9135 115.436 80.7828L115.794 80.9293C115.178 80.6682 114.598 80.328 114.07 79.9172L114.361 80.1569C113.817 79.7304 113.327 79.2384 112.903 78.692L113.141 78.9983C112.932 78.7356 112.745 78.4548 112.584 78.1593C112.38 77.8207 112.053 77.5755 111.671 77.476C111.29 77.3765 110.885 77.4305 110.542 77.6266C110.208 77.834 109.965 78.1621 109.864 78.5434C109.763 78.9248 109.811 79.3306 109.999 79.6775Z" fill="#16276A"/>
<path d="M118.3 75.416L122.901 78.2925C123.243 78.4921 123.649 78.5481 124.032 78.4483C124.414 78.3485 124.742 78.1011 124.944 77.7598C125.139 77.416 125.193 77.0092 125.094 76.6261C124.994 76.243 124.75 75.9139 124.413 75.709L119.812 72.8324C119.474 72.6735 119.089 72.6469 118.732 72.758C118.376 72.8691 118.073 73.1097 117.884 73.4329C117.695 73.756 117.633 74.1384 117.71 74.5052C117.787 74.872 117.997 75.1968 118.3 75.416Z" fill="#16276A"/>
<path d="M125.885 70.7947C127.092 72.4424 128.705 73.7459 130.566 74.5768C130.912 74.775 131.32 74.8322 131.706 74.7366C132.081 74.6304 132.399 74.3821 132.595 74.0441C132.798 73.6943 132.856 73.2776 132.754 72.8855C132.648 72.5095 132.401 72.1895 132.064 71.9933C131.258 71.6517 130.499 71.2038 129.81 70.6615L130.115 70.9012C129.439 70.3734 128.829 69.7653 128.298 69.0901L128.537 69.3964L128.457 69.2899C128.252 68.9605 127.938 68.7151 127.569 68.5973C127.18 68.4983 126.768 68.5506 126.415 68.7439C126.081 68.9484 125.835 69.2715 125.726 69.6494C125.672 69.841 125.658 70.0417 125.686 70.2388C125.713 70.436 125.781 70.6253 125.885 70.7947Z" fill="#16276A"/>
<path d="M134.677 67.1193C134.897 67.7095 135.191 68.2689 135.553 68.784C135.935 69.309 136.346 69.8115 136.786 70.2888C137.144 70.6884 137.515 71.0879 137.847 71.5007L137.966 71.6472C137.754 71.3542 138.152 71.8736 137.966 71.6472L138.178 71.9535C138.337 72.1932 138.47 72.4329 138.603 72.6727C138.802 73.0126 139.126 73.2603 139.506 73.3624C139.885 73.4645 140.29 73.4129 140.632 73.2186C140.968 73.0135 141.213 72.6854 141.315 72.3031C141.416 71.9208 141.366 71.514 141.175 71.1678C140.609 70.1541 139.909 69.2222 139.093 68.3978L138.576 67.8251L138.311 67.5055L138.192 67.359C138.085 67.2258 138.43 67.6786 138.192 67.4523C137.953 67.2259 137.9 67.0394 137.767 66.8263L137.568 66.4668L137.489 66.2937C137.383 66.0539 137.621 66.6399 137.489 66.3736C137.369 66.0045 137.126 65.6889 136.799 65.4813C136.628 65.3772 136.437 65.3094 136.239 65.2819C136.04 65.2545 135.839 65.2679 135.645 65.3215C135.273 65.4314 134.956 65.6788 134.757 66.014C134.656 66.1871 134.59 66.379 134.565 66.5782C134.54 66.7774 134.556 66.9797 134.611 67.1726L134.677 67.1193Z" fill="#16276A"/>
<path d="M143.416 66.4133C143.529 68.372 144.058 70.2837 144.967 72.0199C145.169 72.3608 145.496 72.6088 145.878 72.7108C146.259 72.8129 146.666 72.7608 147.01 72.5659C147.342 72.3564 147.581 72.0274 147.68 71.6462C147.779 71.265 147.729 70.8604 147.54 70.5151C147.381 70.1954 147.235 69.8891 147.102 69.5562L147.248 69.9158C146.848 68.9425 146.572 67.9223 146.426 66.8795L146.492 67.279C146.492 66.9993 146.426 66.7063 146.399 66.4133C146.419 66.2047 146.395 65.9943 146.329 65.7955C146.263 65.5967 146.156 65.414 146.016 65.2591C145.875 65.1041 145.704 64.9803 145.514 64.8956C145.323 64.8108 145.116 64.7671 144.908 64.7671C144.699 64.7671 144.493 64.8108 144.302 64.8956C144.111 64.9803 143.94 65.1041 143.799 65.2591C143.659 65.414 143.552 65.5967 143.486 65.7955C143.42 65.9943 143.396 66.2047 143.416 66.4133Z" fill="#16276A"/>
<path d="M152.406 69.2367C152.512 69.7028 152.605 70.1689 152.738 70.6351C152.871 71.1012 153.03 71.5539 153.189 71.9668C153.301 72.3392 153.54 72.6599 153.865 72.8723C154.215 73.0723 154.63 73.1249 155.019 73.0188C155.393 72.9126 155.712 72.6643 155.907 72.3263C156.011 72.1569 156.079 71.9676 156.106 71.7704C156.134 71.5733 156.12 71.3726 156.066 71.181C155.907 70.7282 155.748 70.2755 155.616 69.8493C155.483 69.4231 155.39 68.9171 155.284 68.451C155.175 68.0768 154.928 67.7581 154.594 67.5587C154.252 67.3626 153.847 67.3086 153.466 67.4081C153.084 67.5077 152.756 67.7528 152.552 68.0914C152.373 68.4493 152.321 68.8585 152.406 69.25V69.2367Z" fill="#16276A"/>
<path d="M160.827 67.5051C161.521 68.9283 162.459 70.2176 163.599 71.3139C163.737 71.4536 163.901 71.5645 164.082 71.6402C164.263 71.7159 164.457 71.7548 164.653 71.7548C164.849 71.7548 165.043 71.7159 165.224 71.6402C165.405 71.5645 165.569 71.4536 165.707 71.3139C165.986 71.0295 166.143 70.6473 166.145 70.2485C166.136 69.8511 165.98 69.4712 165.707 69.1831C165.274 68.7684 164.871 68.3234 164.5 67.8514L164.726 68.1443C164.212 67.4774 163.767 66.7589 163.4 66.0003C163.205 65.6614 162.886 65.4127 162.511 65.3078C162.122 65.2087 161.71 65.261 161.358 65.4543C161.023 65.6588 160.777 65.9819 160.668 66.3598C160.581 66.7483 160.637 67.1555 160.827 67.5051Z" fill="#16276A"/>
<path d="M167.046 63.7231C168.362 64.309 169.713 64.8116 171.091 65.228C171.46 65.2963 171.84 65.2235 172.158 65.0238C172.476 64.8241 172.707 64.512 172.807 64.1492C172.907 63.7864 172.868 63.3991 172.698 63.0639C172.527 62.7286 172.238 62.4697 171.887 62.3381C170.788 62.0117 169.708 61.6249 168.651 61.1795L169.009 61.326L168.558 61.1396C168.205 60.9479 167.796 60.8912 167.404 60.9798C167.034 61.0943 166.718 61.3405 166.516 61.6723C166.312 62.0221 166.255 62.4387 166.357 62.8309C166.407 63.018 166.494 63.1933 166.613 63.3464C166.731 63.4996 166.878 63.6276 167.046 63.7231Z" fill="#16276A"/>
<path d="M171.755 57.3841L175.123 57.6238C175.516 57.621 175.892 57.4631 176.171 57.1843C176.449 56.9 176.606 56.5177 176.608 56.1189C176.608 55.9232 176.57 55.7294 176.494 55.5488C176.419 55.3682 176.309 55.2044 176.171 55.0669C175.886 54.7981 175.514 54.642 175.123 54.6274L171.755 54.3877C171.36 54.3912 170.982 54.5513 170.704 54.8331C170.426 55.115 170.27 55.4957 170.27 55.8926C170.269 56.0883 170.308 56.2821 170.383 56.4627C170.458 56.6433 170.568 56.8071 170.707 56.9446C170.992 57.2134 171.364 57.3695 171.755 57.3841Z" fill="#16276A"/>
<path d="M174.088 49.0211C175.074 49.1592 176.053 49.3503 177.019 49.5937C177.409 49.6958 177.824 49.6383 178.172 49.4339C178.51 49.2289 178.754 48.8998 178.853 48.5167C178.952 48.1336 178.898 47.7268 178.703 47.383C178.504 47.051 178.186 46.8081 177.814 46.7039C176.848 46.4605 175.87 46.2693 174.884 46.1312C174.689 46.0715 174.481 46.0715 174.287 46.1312C174.089 46.1355 173.896 46.1955 173.73 46.3043C173.559 46.402 173.409 46.5332 173.29 46.69C173.17 46.8468 173.083 47.0261 173.034 47.2173C172.984 47.4085 172.973 47.6077 173.002 47.8031C173.03 47.9986 173.098 48.1863 173.2 48.3552C173.294 48.5244 173.421 48.6728 173.574 48.7918C173.727 48.9107 173.901 48.9977 174.088 49.0477V49.0211Z" fill="#16276A"/>
<path d="M176.09 41.0574C177.71 41.8066 179.375 42.4516 181.077 42.9884C181.458 43.0951 181.866 43.0457 182.212 42.851C182.557 42.6564 182.812 42.3323 182.92 41.9497C183.015 41.5651 182.959 41.1585 182.764 40.8139C182.569 40.4694 182.25 40.2133 181.872 40.0986C180.686 39.7205 179.521 39.2759 178.385 38.7668L178.729 38.9266L177.602 38.4206C177.25 38.2274 176.838 38.175 176.448 38.2741C176.165 38.3509 175.911 38.5101 175.718 38.7317C175.525 38.9533 175.402 39.2273 175.363 39.5193C175.325 39.8112 175.374 40.108 175.503 40.3723C175.632 40.6365 175.837 40.8564 176.09 41.0042V41.0574Z" fill="#16276A"/>
<path d="M180.387 33.6396C182.429 34.8248 184.485 35.9568 186.593 37.0222C186.764 37.1255 186.954 37.1937 187.152 37.2228C187.35 37.252 187.551 37.2414 187.745 37.1919C187.938 37.1424 188.12 37.0548 188.28 36.9342C188.44 36.8137 188.574 36.6625 188.675 36.4895C188.873 36.1485 188.929 35.7426 188.829 35.3607C188.73 34.9787 188.484 34.652 188.145 34.452C186.05 33.3733 183.981 32.2546 181.952 31.0694C181.61 30.8698 181.204 30.8138 180.822 30.9136C180.439 31.0133 180.111 31.2608 179.91 31.602C179.718 31.9466 179.666 32.3523 179.765 32.7345C179.864 33.1166 180.106 33.4456 180.44 33.6529L180.387 33.6396Z" fill="#16276A"/>
<path d="M186.129 28.2991C187.932 29.7507 189.789 31.1624 191.685 32.4941C192.027 32.68 192.428 32.7252 192.802 32.6199C193.177 32.5147 193.496 32.2674 193.692 31.9302C193.888 31.5931 193.946 31.1925 193.854 30.8131C193.762 30.4337 193.526 30.1053 193.197 29.8972C192.308 29.2846 191.433 28.6454 190.545 27.9928L189.895 27.5134L189.577 27.2604C189.444 27.1672 189.47 27.1805 189.577 27.2604L189.417 27.1272L188.091 26.1284C187.804 25.8545 187.426 25.6978 187.031 25.689C186.738 25.6936 186.452 25.7843 186.21 25.95C185.968 26.1157 185.78 26.3489 185.668 26.621C185.557 26.8931 185.527 27.192 185.583 27.4808C185.639 27.7695 185.778 28.0355 185.983 28.2459L186.129 28.2991Z" fill="#16276A"/>
<path d="M175.706 11.0536C173.402 12.568 171.67 14.8139 170.786 17.4326C170.716 17.6886 170.749 17.9623 170.88 18.1933C171.011 18.4243 171.227 18.5938 171.482 18.6644C171.737 18.735 172.01 18.7011 172.24 18.57C172.47 18.4388 172.638 18.2213 172.709 17.9653C172.709 17.8188 172.802 17.6723 172.855 17.5391L172.947 17.326C172.855 17.5391 172.947 17.1662 172.947 17.326C173.04 17.1129 173.213 16.78 173.359 16.5137C173.492 16.2577 173.638 16.0088 173.796 15.7679C173.872 15.6385 173.957 15.514 174.048 15.395C174.085 15.3277 174.129 15.2651 174.181 15.2086C174.181 15.2086 174.34 14.9955 174.26 15.0887C174.181 15.1819 174.353 14.9689 174.353 14.9822L174.472 14.8357L174.764 14.4895C174.963 14.2764 175.175 14.05 175.401 13.8502C175.626 13.6505 175.852 13.4507 176.09 13.2509L176.276 13.1178L176.687 12.8381C176.899 12.6985 177.051 12.485 177.115 12.2389C177.179 11.9928 177.149 11.7318 177.032 11.5064C176.895 11.2914 176.682 11.1363 176.436 11.0721C176.19 11.0079 175.929 11.0394 175.706 11.1601V11.0536Z" fill="#16276A"/>
<path d="M167.299 41.0305C168.278 41.9599 169.38 42.7487 170.574 43.3743C170.927 43.5676 171.339 43.6199 171.728 43.5208C172.1 43.4166 172.418 43.1736 172.617 42.8416C172.819 42.4913 172.876 42.0752 172.776 41.683C172.67 41.307 172.423 40.987 172.086 40.7908C171.374 40.4042 170.696 39.9587 170.057 39.459L170.362 39.6854C170.031 39.4324 169.712 39.1527 169.407 38.8731C169.269 38.7334 169.105 38.6225 168.924 38.5468C168.743 38.4711 168.549 38.4321 168.353 38.4321C168.157 38.4321 167.963 38.4711 167.782 38.5468C167.601 38.6225 167.437 38.7334 167.299 38.8731C167.16 39.0106 167.05 39.1744 166.975 39.355C166.9 39.5356 166.861 39.7294 166.861 39.9251C166.87 40.3225 167.026 40.7024 167.299 40.9905V41.0305Z" fill="#16276A"/>
<path d="M110.927 76.1882C111.152 75.9354 111.391 75.6953 111.643 75.4691L112.014 75.1495L112.239 74.9631C112.107 75.0696 112.147 75.043 112.239 74.9631C112.79 74.5627 113.371 74.2064 113.977 73.8977L114.414 73.7778C114.507 73.7778 114.56 73.7112 114.414 73.7778L114.64 73.6979C114.955 73.5671 115.278 73.4559 115.608 73.365L116.602 73.1253L117.133 73.032C116.867 73.032 117.345 73.032 117.133 73.032H117.424C117.819 73.0219 118.194 72.8601 118.473 72.5801C118.752 72.3 118.913 71.9231 118.923 71.5272C118.916 71.1315 118.755 70.7541 118.476 70.4755C118.196 70.1969 117.818 70.0391 117.424 70.0356C114.175 70.3079 111.139 71.7729 108.898 74.1507C108.618 74.4315 108.461 74.8123 108.461 75.2094C108.461 75.6065 108.618 75.9873 108.898 76.2681C109.177 76.5489 109.556 76.7067 109.952 76.7067C110.347 76.7067 110.726 76.5489 111.006 76.2681L110.927 76.1882Z" fill="#16276A"/>
<path d="M76.4619 83.6328L79.3925 88.5069C79.5945 88.8478 79.9212 89.0958 80.3029 89.1978C80.6845 89.2999 81.0908 89.2479 81.4347 89.0529C81.7668 88.8434 82.0066 88.5144 82.1052 88.1332C82.2038 87.752 82.1537 87.3474 81.9652 87.0021L79.0478 82.1146C78.8473 81.7614 78.5153 81.5027 78.1249 81.3953C77.7344 81.2879 77.3175 81.3406 76.9658 81.542C76.6141 81.7433 76.3565 82.0767 76.2495 82.4688C76.1426 82.8609 76.1951 83.2796 76.3956 83.6328H76.4619Z" fill="#16276A"/>
<path d="M72.5766 86.0033L73.7701 89.4259C73.8841 89.7977 74.1293 90.1149 74.4596 90.3181C74.802 90.5142 75.2071 90.5682 75.5885 90.4687C75.97 90.3692 76.2977 90.124 76.5018 89.7854C76.6032 89.6124 76.6684 89.4204 76.6935 89.2212C76.7185 89.022 76.703 88.8198 76.6477 88.6268L75.4542 85.2043C75.3401 84.8325 75.095 84.5152 74.7646 84.312C74.5959 84.2076 74.4074 84.1395 74.2111 84.1119C74.0148 84.0844 73.8149 84.0982 73.6242 84.1522C73.4334 84.203 73.2545 84.2915 73.0982 84.4125C72.9418 84.5335 72.8111 84.6846 72.7135 84.8569C72.616 85.0293 72.5536 85.2194 72.5301 85.4163C72.5066 85.6131 72.5224 85.8127 72.5766 86.0033Z" fill="#16276A"/>
<path d="M50.3377 130.896C52.2903 129.763 53.9098 128.132 55.032 126.168C55.154 125.998 55.2393 125.805 55.2825 125.6C55.3257 125.395 55.3258 125.183 55.2829 124.978C55.2399 124.773 55.1548 124.579 55.033 124.409C54.9113 124.239 54.7555 124.097 54.5757 123.991C54.3959 123.885 54.196 123.817 53.9888 123.793C53.7816 123.769 53.5717 123.789 53.3725 123.851C53.1733 123.913 52.9892 124.016 52.832 124.154C52.6748 124.291 52.5479 124.46 52.4594 124.65C52.201 125.112 51.913 125.557 51.5975 125.982L51.8229 125.675C51.2266 126.447 50.5361 127.141 49.7675 127.74L50.0725 127.513C49.6756 127.816 49.2592 128.092 48.826 128.339C48.6371 128.428 48.4687 128.555 48.3317 128.713C48.1947 128.871 48.092 129.056 48.0302 129.256C47.9684 129.456 47.9488 129.667 47.9728 129.875C47.9968 130.083 48.0638 130.283 48.1694 130.464C48.2751 130.645 48.4171 130.801 48.5865 130.923C48.7558 131.046 48.9487 131.131 49.1527 131.174C49.3568 131.217 49.5676 131.217 49.7717 131.174C49.9757 131.131 50.1685 131.045 50.3377 130.922V130.896Z" fill="#16276A"/>
<path d="M19.4006 106.485C19.9385 108.876 20.7069 111.208 21.6948 113.45C21.8942 113.793 22.221 114.044 22.6037 114.146C22.9863 114.248 23.3938 114.194 23.7369 113.996C24.0665 113.784 24.3043 113.455 24.4027 113.075C24.5011 112.695 24.4527 112.291 24.2674 111.945C24.2674 111.878 24.0154 111.399 24.1745 111.732C24.1745 111.612 24.0817 111.492 24.0287 111.386C23.9756 111.279 23.8165 110.84 23.7237 110.573C23.5248 110.041 23.3391 109.521 23.1667 108.989C22.8219 107.897 22.5169 106.804 22.2782 105.686C22.1727 105.304 21.9214 104.979 21.5787 104.782C21.236 104.585 20.8298 104.532 20.4482 104.634C20.0686 104.746 19.7472 105.001 19.5517 105.347C19.3563 105.692 19.3021 106.1 19.4006 106.485Z" fill="#16276A"/>
<path d="M61.6624 115.328C50.6029 115.035 40.6838 120.548 32.2234 127.233C27.8216 130.584 23.6525 134.233 19.7449 138.153C16.2308 141.816 13.6449 146.716 15.0904 151.897C15.2213 152.25 15.4792 152.54 15.813 152.711C16.1469 152.883 16.5325 152.922 16.8938 152.822C17.255 152.721 17.5658 152.489 17.7646 152.169C17.9635 151.85 18.036 151.468 17.968 151.098C16.5491 145.984 20.2488 141.656 23.7364 138.446C27.224 135.237 31.0299 131.894 34.8888 128.911C42.6066 122.932 51.6638 118.058 61.6624 118.324C62.0338 118.289 62.3788 118.116 62.6299 117.839C62.881 117.562 63.0201 117.2 63.0201 116.826C63.0201 116.451 62.881 116.09 62.6299 115.813C62.3788 115.536 62.0338 115.363 61.6624 115.328Z" fill="#16276A"/>
</g>
<defs>
<clipPath id="clip0_1956_282840">
<rect width="200" height="155" fill="white"/>
</clipPath>
</defs>
</svg>
