<svg viewBox="0 0 24 24" data-license="Apache License 2.0" data-source="RemixIcon" fill="currentColor" xmlns="http://www.w3.org/2000/svg">
<path d="M9 20H15.5C17.9853 20 20 17.9853 20 15.5C20 13.0147 17.9853 11 15.5 11L8.5 11C7.1193 11 6 9.8807 6 8.5C6 7.1193 7.1193 6 8.5 6H15.1707C15.5825 7.1652 16.6938 8 18 8C19.6568 8 21 6.6569 21 5C21 3.3431 19.6568 2 18 2C16.6938 2 15.5825 2.8348 15.1707 4H8.5C6.0147 4 4 6.0147 4 8.5C4 10.9853 6.0147 13 8.5 13L15.5 13C16.8807 13 18 14.1193 18 15.5C18 16.8807 16.8807 18 15.5 18H9L9 15L4 19L9 23V20Z"/>
</svg>
