<svg width="1084" height="175" viewBox="0 0 1084 175" fill="none" xmlns="http://www.w3.org/2000/svg">
<path d="M737 145C731.166 145 37 145 37 145" stroke="black" stroke-width="0.75" stroke-linecap="round" stroke-linejoin="round"/>
<path d="M676.142 97.4304C676.142 97.4304 669.176 115.931 671.764 121.822C674.351 127.713 678.729 123.093 678.729 123.093C678.729 123.093 677.624 105.646 677.525 103.046C677.425 100.445 677.634 96.9773 676.142 97.4304Z" stroke="black" stroke-width="0.76" stroke-linecap="round" stroke-linejoin="round"/>
<path d="M678.329 87.4709C678.329 87.4709 674.429 89.983 674.767 92.9974C675.105 96.0119 676.986 97.8048 678.886 95.3026C680.787 92.8004 680.767 87.8551 678.329 87.4709Z" stroke="black" stroke-width="0.76" stroke-linecap="round" stroke-linejoin="round"/>
<path d="M672.579 123.388C671.327 127.412 670.657 131.591 670.589 135.801C670.32 143.406 670.728 144.48 670.728 144.48C670.728 144.48 665.335 142.204 665.196 144.342C665.136 145.327 670.698 144.746 670.698 144.746" stroke="black" stroke-width="0.76" stroke-linecap="round" stroke-linejoin="round"/>
<path d="M677.973 124.196C678.231 127.224 678.959 130.195 680.132 133.003C681.883 136.599 684.828 144.558 684.828 144.558C684.828 144.558 679.455 142.48 679.455 144.48C679.455 145.465 684.739 144.933 684.739 144.933" stroke="black" stroke-width="0.76" stroke-linecap="round" stroke-linejoin="round"/>
<path d="M675.414 99.1051C675.414 99.1051 671.773 107.38 668.449 111.252" stroke="black" stroke-width="0.76" stroke-linecap="round" stroke-linejoin="round"/>
<path d="M675.584 90.6922C676.002 90.4361 677.694 90.8597 678.201 91.106" stroke="black" stroke-width="0.76" stroke-linecap="round" stroke-linejoin="round"/>
<path d="M656.539 110.05C656.539 110.05 668.668 106.71 670.967 106.04C673.265 105.37 683.504 102.839 687.813 101.509C692.121 100.179 697.763 98.0314 699.813 97.9033C701.764 97.668 703.698 97.3094 705.604 96.8295L709.654 113.911C709.654 113.911 700.489 117.921 698.33 118.187C696.171 118.453 679.992 123.26 679.992 123.26C679.992 123.26 661.086 128.058 661.086 127.664C661.086 127.27 656.539 110.05 656.539 110.05Z" fill="white" stroke="black" stroke-width="0.76" stroke-linecap="round" stroke-linejoin="round"/>
<path d="M670.289 111.784L690.1 106.976" stroke="black" stroke-width="0.76" stroke-linecap="round" stroke-linejoin="round"/>
<path d="M665.842 119.251C666.25 119.123 700.757 110.178 700.757 110.178" stroke="black" stroke-width="0.76" stroke-linecap="round" stroke-linejoin="round"/>
<path d="M677.375 98.6717C677.375 98.6717 681.763 108.858 682.032 110.976C682.37 113.724 681.266 119.428 681.266 119.428C681.415 119.182 678.738 119.714 679.116 121.083C679.375 122.068 680.987 120.531 680.987 120.531" stroke="black" stroke-width="0.76" stroke-linecap="round" stroke-linejoin="round"/>
<path d="M517.436 83.1857H530.64C533.973 83.1857 568.451 82.634 568.451 82.634C568.451 82.634 592.471 83.4615 592.471 83.0478C591.945 81.2165 591.71 79.3156 591.774 77.4129C592.053 74.8023 592.471 71.6401 592.471 71.6401L517.217 71.778L517.436 83.1857Z" stroke="black" stroke-width="0.76" stroke-linecap="round" stroke-linejoin="round"/>
<path d="M555.516 75.0782L531.774 75.2161C530.779 75.2161 529.008 75.6791 529.068 77.4819C529.138 79.6787 530.988 79.2452 531.565 79.2649C534.093 79.393 571.725 79.1763 578.551 79.1369C578.7 79.1369 578.848 79.1074 578.985 79.0503C579.123 78.9931 579.248 78.9093 579.353 78.8039C579.457 78.6984 579.54 78.5734 579.595 78.436C579.65 78.2987 579.678 78.1518 579.675 78.004C579.675 77.2257 580.103 75.8958 579.466 75.4919C578.471 74.8713 574.401 75.0782 574.401 75.0782" stroke="black" stroke-width="0.76" stroke-linecap="round" stroke-linejoin="round"/>
<path d="M517.435 83.1857C517.435 83.1857 518.5 94.3667 517.942 97.3024C517.385 100.238 516.271 128.274 516.649 129.92C517.027 131.565 516.649 144.036 516.649 144.036" stroke="black" stroke-width="0.76" stroke-linecap="round" stroke-linejoin="round"/>
<path d="M592.41 83.0478C592.41 83.0478 592.728 96.3862 592.728 97.6669C592.728 98.9475 591.803 129.368 591.803 130.294V143.485" stroke="black" stroke-width="0.76" stroke-linecap="round" stroke-linejoin="round"/>
<path d="M539.414 100.228C540.528 99.8637 568.27 101.331 568.27 101.331L569.195 128.826C569.195 128.826 556.608 128.087 552.17 128.452C548.034 128.629 543.892 128.569 539.762 128.274C539.762 128.274 540.131 111.596 540.131 108.109C540.072 105.469 539.833 102.836 539.414 100.228V100.228Z" stroke="black" stroke-width="0.76" stroke-linecap="round" stroke-linejoin="round"/>
<path d="M546.449 109.025C547.743 108.848 555.146 120.029 555.146 119.477C555.146 118.926 562.559 108.483 562.559 108.483" stroke="black" stroke-width="0.76" stroke-linecap="round" stroke-linejoin="round"/>
<path d="M559.962 78.7921L546.639 67.4238C546.639 67.4238 568.669 47.4457 572.181 44.5199C575.693 41.5941 581.067 34.984 581.067 34.984L598.838 49.1007L570.33 79.1565L559.962 78.7921Z" fill="white" stroke="black" stroke-width="0.76" stroke-linecap="round" stroke-linejoin="round"/>
<path d="M576.409 47.9974C576.409 47.9974 561.604 62.6559 561.604 62.1141L576.409 47.9974Z" fill="white"/>
<path d="M576.409 47.9974C576.409 47.9974 561.604 62.6559 561.604 62.1141" stroke="black" stroke-width="0.76" stroke-linecap="round" stroke-linejoin="round"/>
<path d="M586.986 50.1942L566.26 68.34" stroke="black" stroke-width="0.76" stroke-linecap="round" stroke-linejoin="round"/>
<path d="M595.733 50.8837C595.733 50.8837 594.141 52.5978 595.255 52.9426C596.37 53.2874 596.151 53.4253 596.151 53.4253C596.151 53.4253 598.449 65.7294 601.225 70.2708C604.002 74.8122 603.514 73.8369 603.514 73.8369" stroke="black" stroke-width="0.76" stroke-linecap="round" stroke-linejoin="round"/>
<path d="M593.236 55.2182C593.236 55.2182 595.226 62.3603 596.848 66.5569C597.923 69.266 601.575 73.699 601.575 73.699" stroke="black" stroke-width="0.76" stroke-linecap="round" stroke-linejoin="round"/>
<path d="M602.818 71.1574C602.47 71.1574 598.311 86.4858 601.017 91.1552C604.42 94.8002 606.918 91.7759 606.918 91.5C606.918 91.2242 607.057 90.1307 605.873 86.0721C604.689 82.0134 604.689 76.5854 604.49 74.0438C604.291 71.5022 604.142 71.0195 602.818 71.1574Z" stroke="black" stroke-width="0.76" stroke-linecap="round" stroke-linejoin="round"/>
<path d="M604.181 63.1189C604.51 63.0007 607.296 63.1189 607.435 65.4536C607.574 67.7883 605.624 70.3792 604.241 70.3792C603.837 70.3537 603.444 70.2363 603.092 70.0361C602.741 69.8359 602.441 69.5583 602.216 69.2248C601.991 68.8913 601.847 68.5109 601.794 68.1131C601.741 67.7154 601.782 67.311 601.913 66.9313C602.818 63.907 604.43 63.9759 605.465 63.7001" stroke="black" stroke-width="0.76" stroke-linecap="round" stroke-linejoin="round"/>
<path d="M603.098 64.833C603.098 64.833 604.62 65.4536 604.899 66.0742" stroke="black" stroke-width="0.76" stroke-linecap="round" stroke-linejoin="round"/>
<path d="M602.281 92.6034C602.421 92.8792 607.495 117.507 607.565 117.921C607.635 118.335 606.361 122.61 607.187 122.679C609.316 122.866 607.973 119.113 607.833 118.285" stroke="black" stroke-width="0.76" stroke-linecap="round" stroke-linejoin="round"/>
<path d="M605.664 93.0368C605.943 93.4506 614.55 114.818 616.978 117.093C619.405 119.369 620.44 119.793 620.102 118.256C619.764 116.719 616.978 116.749 616.978 116.749" stroke="black" stroke-width="0.76" stroke-linecap="round" stroke-linejoin="round"/>
<path d="M604.419 124.492C604.419 124.492 602.608 126.216 603.792 127.378C604.976 128.54 608.767 125.94 611.981 126.619C615.195 127.299 615.962 130.264 617.952 130.402C619.942 130.54 623.016 128.274 621.932 126.216C620.847 124.157 615.106 118.926 604.419 124.492Z" stroke="black" stroke-width="0.76" stroke-linecap="round" stroke-linejoin="round"/>
<path d="M599.415 121.674C598.662 122.484 598.158 123.49 597.962 124.574C597.767 125.657 597.887 126.774 598.311 127.792C599.833 131.23 602.291 129.033 602.47 127.654C602.619 125.844 602.406 124.023 601.843 122.295C601.565 121.94 601.175 121.686 600.736 121.574C600.297 121.462 599.832 121.497 599.415 121.674V121.674Z" stroke="black" stroke-width="0.76" stroke-linecap="round" stroke-linejoin="round"/>
<path d="M598.24 125.388C598.24 125.388 599.693 124.698 600.459 125.25" stroke="black" stroke-width="0.76" stroke-linecap="round" stroke-linejoin="round"/>
<path d="M618.648 129.24C616.499 130.526 614.435 131.948 612.469 133.496C612.4 133.771 619.434 143.573 619.434 143.849C619.434 144.125 616.449 141.879 615.225 143.465C614.23 144.726 619.206 144.214 619.464 144.145" stroke="black" stroke-width="0.76" stroke-linecap="round" stroke-linejoin="round"/>
<path d="M605.873 127.378C608.627 126.575 611.433 125.956 614.271 125.526C614.619 125.664 613.575 132.057 613.575 132.057C613.575 132.057 610.729 131.781 610.729 132.737C610.729 133.693 612.4 133.427 612.4 133.427L611.794 143.948C611.794 143.948 608.231 142.155 607.545 143.741C607.037 144.883 611.425 144.145 611.425 144.145" stroke="black" stroke-width="0.76" stroke-linecap="round" stroke-linejoin="round"/>
<path d="M270.833 99.0792C270.495 99.0645 270.159 99.1518 269.87 99.33C269.581 99.5082 269.352 99.769 269.211 100.079C268.445 101.809 267.54 105.259 269.211 107.519C271.45 110.519 273.858 107.429 274.187 105.269C274.505 103.339 274.117 99.1392 270.833 99.0792Z" stroke="black" stroke-width="0.76" stroke-linecap="round" stroke-linejoin="round"/>
<path d="M269.551 99.7392C269.79 99.5392 271.013 97.7392 272.993 98.6192" stroke="black" stroke-width="0.76" stroke-linecap="round" stroke-linejoin="round"/>
<path d="M273.939 102.419C273.103 102.235 272.231 102.326 271.451 102.679" stroke="black" stroke-width="0.76" stroke-linecap="round" stroke-linejoin="round"/>
<path d="M267.709 106.059C262.284 107.276 257.371 110.159 253.649 114.309C247.57 121.179 250.008 123.538 253.042 122.628C256.077 121.719 258.814 116.209 263.222 113.079C267.63 109.949 269.072 107.809 269.072 107.809" stroke="black" stroke-width="0.76" stroke-linecap="round" stroke-linejoin="round"/>
<path d="M253.65 122.548C254.108 122.628 261.78 128.808 261.929 130.028C262.078 131.248 256.307 143.248 256.307 143.548C256.307 143.848 264.267 142.858 262.616 144.008C260.964 145.158 257.531 145.538 256.307 143.858" stroke="black" stroke-width="0.76" stroke-linecap="round" stroke-linejoin="round"/>
<path d="M250.565 122.418C250.565 122.418 245.64 131.918 244.924 133.018C242.934 136.018 236.496 142.788 236.496 142.788C236.496 142.788 243.202 142.368 241.68 144.278C240.157 146.188 236.307 142.998 236.307 142.998" stroke="black" stroke-width="0.76" stroke-linecap="round" stroke-linejoin="round"/>
<path d="M263.73 109.819C263.73 110.039 258.137 118.499 260.337 121.179C261.932 122.893 264.018 124.067 266.307 124.538C266.307 124.538 269.819 122.719 269.949 123.908C270.158 125.718 266.416 124.608 266.416 124.608" stroke="black" stroke-width="0.76" stroke-linecap="round" stroke-linejoin="round"/>
<path d="M266.645 110.369C266.724 110.679 268.923 118.279 270.625 118.499C272.326 118.719 280.426 114.379 281.331 114.309C282.237 114.239 283.321 115.919 282.983 116.369" stroke="black" stroke-width="0.76" stroke-linecap="round" stroke-linejoin="round"/>
<path d="M289.044 95.8293C288.543 96.1533 288.13 96.5963 287.84 97.1192C287.193 98.9492 286.467 105.219 290.337 105.119C294.447 105.039 295.014 100.979 294.447 99.2792C293.88 97.5792 292.327 93.9293 289.044 95.8293Z" stroke="black" stroke-width="0.76" stroke-linecap="round" stroke-linejoin="round"/>
<path d="M287.422 99.8792C287.501 99.6392 288.546 98.6592 290.407 99.2292" stroke="black" stroke-width="0.76" stroke-linecap="round" stroke-linejoin="round"/>
<path d="M294.605 103.239C295.043 103.239 313.143 112.239 312.844 116.909C312.596 120.619 309.939 121.419 308.377 120.909C308.008 120.8 307.682 120.58 307.441 120.279C306.446 118.899 299.391 109.509 296.576 107.449C293.76 105.389 293.62 103.239 294.605 103.239Z" stroke="black" stroke-width="0.76" stroke-linecap="round" stroke-linejoin="round"/>
<path d="M307.949 120.729C307.411 120.729 293.023 126.068 292.824 126.988C292.625 127.908 290.476 143.858 290.168 143.988C289.859 144.118 284.466 141.618 284.774 143.678C285.083 145.738 289.332 144.288 289.859 144.138" stroke="black" stroke-width="0.76" stroke-linecap="round" stroke-linejoin="round"/>
<path d="M310.935 120.419C310.477 120.729 302.805 128.898 303.711 130.498C304.616 132.098 316.169 143.018 316.089 143.628C316.009 144.238 308.477 142.008 309.89 144.188C311.203 146.188 316.179 144.188 316.179 144.188" stroke="black" stroke-width="0.76" stroke-linecap="round" stroke-linejoin="round"/>
<path d="M296.357 105.999C296.357 105.999 287.84 115.469 284.954 116.459C282.069 117.449 279.919 115.199 280.835 114.889" stroke="black" stroke-width="0.76" stroke-linecap="round" stroke-linejoin="round"/>
<path d="M240.775 56.8304C240.602 57.0066 240.473 57.2222 240.4 57.4589C240.328 57.6957 240.313 57.9466 240.357 58.1904C240.626 59.9903 241.601 64.2902 244.666 64.6302C248.566 65.0601 249.133 60.6803 247.073 58.1604C245.173 55.8204 243.004 54.6405 240.775 56.8304Z" stroke="black" stroke-width="0.76" stroke-linecap="round" stroke-linejoin="round"/>
<path d="M244.108 59.3203C242.955 59.5814 241.912 60.1965 241.123 61.0803" stroke="black" stroke-width="0.76" stroke-linecap="round" stroke-linejoin="round"/>
<path d="M250.237 67.0001C249.172 65.1701 247.6 63.0002 246.734 65.5501C246.362 67.2428 246.234 68.9807 246.356 70.71C246.356 74.2999 242.844 80.9997 244.993 84.7896C248.754 91.4394 252.854 82.0497 252.058 74.0299C251.69 70.26 250.963 68.2101 250.237 67.0001Z" stroke="black" stroke-width="0.76" stroke-linecap="round" stroke-linejoin="round"/>
<path d="M244.993 84.7496C244.306 84.8696 236.445 89.6794 235.64 90.9394C234.834 92.1994 227.58 104.729 227.152 105.489C226.575 106.489 221.48 104.489 221.6 106.399C221.719 108.309 226.475 106.789 226.943 106.049" stroke="black" stroke-width="0.76" stroke-linecap="round" stroke-linejoin="round"/>
<path d="M248.983 86.3595C249.093 86.8195 248.296 96.3593 249.321 97.5792C250.346 98.7992 261.063 107.089 261.063 108.009C261.063 108.929 256.088 111.669 256.724 109.839C257.028 109.239 257.448 108.706 257.961 108.273C258.474 107.84 259.069 107.515 259.709 107.319" stroke="black" stroke-width="0.76" stroke-linecap="round" stroke-linejoin="round"/>
<path d="M233.67 61.0003C234.973 63.8128 236.675 66.42 238.725 68.7401C241.342 71.6 247.272 67.8201 248.336 67.0601" stroke="black" stroke-width="0.76" stroke-linecap="round" stroke-linejoin="round"/>
<path d="M280.019 55.5304C280.019 55.5304 274.974 54.1405 273.213 58.3604C271.452 62.5802 275.024 63.8002 277.75 62.4702C281.134 60.8203 282.367 56.3504 280.019 55.5304Z" stroke="black" stroke-width="0.76" stroke-linecap="round" stroke-linejoin="round"/>
<path d="M276.316 55.6204C276.316 55.6204 278.535 57.6204 278.237 58.7203" stroke="black" stroke-width="0.76" stroke-linecap="round" stroke-linejoin="round"/>
<path d="M271.919 63.5702C271.919 63.5702 264.954 74.2499 268.048 80.8797C268.617 82.137 269.371 83.3002 270.287 84.3296C272.964 87.1995 275.591 86.2495 274.695 82.3296C273.541 77.3298 271.71 73.6399 272.814 69.12C273.919 64.6002 273.461 62.7602 271.919 63.5702Z" stroke="black" stroke-width="0.76" stroke-linecap="round" stroke-linejoin="round"/>
<path d="M270.515 84.7496C270.515 84.7496 261.739 93.3393 261.859 94.1493C261.978 94.9593 263.908 106.969 263.908 106.969" stroke="black" stroke-width="0.76" stroke-linecap="round" stroke-linejoin="round"/>
<path d="M274.396 85.7796C274.396 85.7796 281.033 106.519 282.058 108.699C283.083 110.879 283.541 114.759 282.058 114.069C280.576 113.379 280.536 109.119 281.501 107.439" stroke="black" stroke-width="0.76" stroke-linecap="round" stroke-linejoin="round"/>
<path d="M273.373 65.6301C273.373 65.6301 277.015 80.3997 278.955 82.4596C280.895 84.5196 283.741 83.7196 282.149 82.9196L280.547 82.1197" stroke="black" stroke-width="0.76" stroke-linecap="round" stroke-linejoin="round"/>
<path d="M232.108 35.451C232.108 35.451 227.272 54.1005 221.461 57.3004C221.461 57.3004 223.361 60.0903 222.108 61.3003" stroke="black" stroke-width="0.76" stroke-linecap="round" stroke-linejoin="round"/>
<path d="M215.471 3.32192C215.073 4.76188 216.267 9.62174 220.446 10.6517C224.625 11.6817 227.281 9.65174 226.028 6.65182C224.855 4.09059 222.787 2.0515 220.217 0.921988C218.774 0.342005 216.406 0.00201407 215.471 3.32192Z" stroke="black" stroke-width="0.76" stroke-linecap="round" stroke-linejoin="round"/>
<path d="M220.147 4.46189C219.57 4.58188 217.978 6.07184 217.291 8.82176" stroke="black" stroke-width="0.76" stroke-linecap="round" stroke-linejoin="round"/>
<path d="M226.018 11.2817C227.272 10.3617 242.058 21.8314 238.954 32.4111C236.556 40.5409 230.287 35.731 230.854 30.9211C231.421 26.1113 229.62 18.8115 226.755 15.8016C224.138 13.0516 224.844 12.1317 226.018 11.2817Z" stroke="black" stroke-width="0.76" stroke-linecap="round" stroke-linejoin="round"/>
<path d="M225.272 14.0816C225.272 14.0816 215.59 26.4513 209.889 27.8312C204.187 29.2112 202.367 30.1212 204.078 31.0411C205.789 31.9611 207.779 28.3312 207.779 28.3312" stroke="black" stroke-width="0.76" stroke-linecap="round" stroke-linejoin="round"/>
<path d="M233.711 17.0615C234.049 17.1815 239.751 24.2813 243.054 22.7914C244.619 22.1399 246.044 21.1928 247.253 20.0014C247.476 19.7665 247.682 19.5159 247.87 19.2515C248.099 18.9015 244.238 16.2515 244.795 18.3315C245.194 19.8214 246.218 19.7114 246.507 19.7114" stroke="black" stroke-width="0.76" stroke-linecap="round" stroke-linejoin="round"/>
<path d="M247.252 20.0014C247.252 20.0014 248.894 25.6113 249.859 25.4913C250.824 25.3713 256.824 19.3115 257.023 18.7915" stroke="black" stroke-width="0.76" stroke-linecap="round" stroke-linejoin="round"/>
<path d="M237.471 36.001C237.471 36.001 243.66 54.0005 244.227 55.5804" stroke="black" stroke-width="0.76" stroke-linecap="round" stroke-linejoin="round"/>
<path d="M259.809 17.6315C260.107 17.7115 276.067 23.5113 277.132 23.6313C278.197 23.7513 279.48 24.6313 278.953 25.2313C278.425 25.8313 277.361 25.3113 276.823 24.3913" stroke="black" stroke-width="0.76" stroke-linecap="round" stroke-linejoin="round"/>
<path d="M262.465 37.6409C262.316 38.0209 254.137 61.1703 253.878 61.2603C251.986 62.0384 250.344 63.3254 249.132 64.9802C248.655 66.3901 250.834 66.9801 253.878 61.4003" stroke="black" stroke-width="0.76" stroke-linecap="round" stroke-linejoin="round"/>
<path d="M265.162 38.0009L269.411 60.1403C270.058 61.7303 272.247 62.7002 271.58 64.1402" stroke="black" stroke-width="0.76" stroke-linecap="round" stroke-linejoin="round"/>
<path d="M269.561 60.5603C269.561 60.5603 268.875 65.3002 270.745 65.4002C267.949 66.7321 265.038 67.8064 262.049 68.6101C259.541 69.1601 252.566 69.47 251.213 68.4201" stroke="black" stroke-width="0.76" stroke-linecap="round" stroke-linejoin="round"/>
<path d="M218.893 57.0004C218.893 57.0004 215.361 65.5901 211.371 73.4899C208.853 78.4898 213.191 80.3597 216.346 76.3498C219.5 72.3399 221.649 63.3502 221.241 59.5203C220.943 56.3504 219.57 56.4604 218.893 57.0004Z" stroke="black" stroke-width="0.76" stroke-linecap="round" stroke-linejoin="round"/>
<path d="M219.391 44.3807C219.391 44.3807 214.863 46.6307 216.853 50.9106C218.843 55.1904 223.361 55.6404 223.361 51.4705C223.361 47.3007 221.57 43.8208 219.391 44.3807Z" stroke="black" stroke-width="0.76" stroke-linecap="round" stroke-linejoin="round"/>
<path d="M218.543 60.0003C218.543 60.0003 221.846 65.7001 225.836 64.7002C228.716 63.8544 231.45 62.5731 233.946 60.9003C233.946 60.9003 231.657 56.6804 231.08 60.1203C230.841 61.5703 233.667 60.8303 233.667 60.8303" stroke="black" stroke-width="0.76" stroke-linecap="round" stroke-linejoin="round"/>
<path d="M211.181 77.8798C211.181 77.8798 211.738 86.6795 211.101 88.1095C210.793 88.7995 203.201 94.2193 202.972 95.1093C202.743 95.9993 206.833 97.1092 207.708 96.3193C209.698 94.5893 204.514 94.3193 203.34 94.8493" stroke="black" stroke-width="0.76" stroke-linecap="round" stroke-linejoin="round"/>
<path d="M214.754 77.9998C214.973 78.2298 217.938 87.7795 217.868 88.6895C217.799 89.5995 217.182 99.3692 217.64 100.439C218.097 101.509 219.172 105.729 217.988 105.599C215.938 105.369 216.854 101.109 217.082 100.599" stroke="black" stroke-width="0.76" stroke-linecap="round" stroke-linejoin="round"/>
<path d="M222.882 49.5506C222.376 49.2337 221.806 49.0351 221.214 48.9693C220.621 48.9035 220.021 48.9723 219.459 49.1706" stroke="black" stroke-width="0.76" stroke-linecap="round" stroke-linejoin="round"/>
<path d="M259.421 4.1219C259.113 4.1219 253.451 6.18184 255.322 11.6817C257.192 17.1815 261.481 13.3616 262.287 10.6117C263.093 7.86179 262.177 3.81191 259.421 4.1219Z" stroke="black" stroke-width="0.76" stroke-linecap="round" stroke-linejoin="round"/>
<path d="M258.974 7.94179C258.412 7.64862 257.791 7.48897 257.157 7.4751C256.524 7.46123 255.896 7.59352 255.322 7.86179" stroke="black" stroke-width="0.76" stroke-linecap="round" stroke-linejoin="round"/>
<path d="M258.059 15.4216C256.616 16.3415 255.422 28.0712 258.894 33.6711C262.367 39.2709 267.402 39.5509 265.661 33.901C263.919 28.2512 260.417 24.9013 260.188 22.1414C259.959 19.3815 259.88 14.6616 258.059 15.4216Z" stroke="black" stroke-width="0.76" stroke-linecap="round" stroke-linejoin="round"/>
<path d="M88.138 81.4897C88.138 81.4897 82.8345 83.2196 85.1529 87.4895C87.4713 91.7594 93.5808 93.9493 94.1081 90.2894C94.6355 86.6295 89.1329 81.2897 87.3419 82.3997" stroke="black" stroke-width="0.76" stroke-linecap="round" stroke-linejoin="round"/>
<path d="M90.0967 83.4996C90.0967 83.4996 88.3953 85.2696 88.5246 86.2296" stroke="black" stroke-width="0.76" stroke-linecap="round" stroke-linejoin="round"/>
<path d="M87.63 93.0693C83.0528 96.2793 82.4458 108.559 85.3613 116.659C87.9284 123.769 91.7493 120.409 91.3314 116.659C90.9135 112.909 89.2021 107.909 89.3414 103.479C89.4807 99.0492 90.2767 95.4793 90.1275 94.0493C89.9384 92.8494 89.0429 92.0594 87.63 93.0693Z" stroke="black" stroke-width="0.76" stroke-linecap="round" stroke-linejoin="round"/>
<path d="M87.6497 120.509C87.6497 120.889 89.3811 130.638 89.3015 131.998C89.3015 132.918 86.6845 144.608 86.6845 144.608C86.6845 144.608 89.8388 142.498 92.3264 144.208C92.8338 144.548 92.3264 145.078 90.396 145.208C89.1371 145.189 87.8808 145.089 86.6348 144.908" stroke="black" stroke-width="0.76" stroke-linecap="round" stroke-linejoin="round"/>
<path d="M90.377 120.419C90.377 120.799 92.2376 130.838 92.5063 131.718C92.7749 132.598 91.1133 143.718 91.1133 143.718C91.6207 143.668 94.4167 143.208 95.4316 143.718C96.6853 144.398 95.6804 145.268 94.6157 145.168" stroke="black" stroke-width="0.76" stroke-linecap="round" stroke-linejoin="round"/>
<path d="M87.1824 95.4293L86.1874 120.879C86.1874 120.879 86.1874 127.278 85.1924 126.138C84.1973 124.998 84.8839 121.879 85.3416 121.539" stroke="black" stroke-width="0.76" stroke-linecap="round" stroke-linejoin="round"/>
<path d="M1083.18 144.325C1082.5 143.54 1082.33 142.892 1081.3 143.147C1080.1 143.33 1078.94 143.684 1077.86 144.197C1077.17 144.717 1076.14 144.462 1073.21 144.197C1070.29 143.932 1066.51 144.717 1065.82 144.197L1065.13 143.677C1063.76 144.982 1064.96 145.895 1063.76 144.982C1062.56 144.07 1062.56 142.754 1061.87 143.284L1061.19 143.805C1061.19 143.805 1056.54 141.321 1056.22 141.714C1055.89 142.107 1057.77 142.892 1057.21 143.677C1056.65 144.462 1055.66 144.462 1054.29 144.197C1052.92 143.932 1052.22 144.462 1051.02 144.462C1049.81 144.462 1050.33 143.805 1048.27 144.07C1046.22 144.335 1045.35 144.462 1045.35 144.462C1045.35 144.462 1043.63 143.019 1044.49 142.362C1045.34 141.704 1043.28 141.449 1042.6 142.362C1041.91 143.275 1040.01 144.982 1039.16 144.845C1038.3 144.708 1034.19 144.845 1033.48 144.59C1032.78 144.335 1034.68 141.842 1034 141.449C1033.31 141.056 1030.56 141.842 1030.22 143.019C1029.88 144.197 1027.98 142.234 1027.98 142.234C1027.98 142.234 1027.3 144.07 1026.61 144.325C1025.31 144.653 1023.97 144.743 1022.64 144.59C1020.92 144.462 1018.34 144.462 1017.48 144.07C1016.61 143.677 1017.65 143.019 1015.24 143.805C1012.83 144.59 1012.83 145.503 1011.8 144.59C1010.77 143.677 1011.46 143.019 1009.91 143.54" stroke="black" stroke-width="0.75" stroke-linecap="round" stroke-linejoin="round"/>
<path d="M978.979 143.422C978.275 143.698 977.505 143.766 976.762 143.618C976.059 143.353 975.295 143.285 974.555 143.422C973.482 143.52 972.676 143.971 972.14 143.618C971.603 143.265 970.798 142.47 970.599 142.568C970.4 142.666 971.205 143.167 971.006 143.422C970.086 143.772 969.076 143.824 968.124 143.569C967.543 143.366 967.063 142.952 966.782 142.411C966.782 142.411 967.249 143.392 966.712 143.392C966.175 143.392 964.634 143.392 963.362 143.392C962.09 143.392 961.752 143.795 961.483 143.491C961.215 143.186 961.96 142.087 962.477 141.989C962.994 141.891 960.937 142.136 960.4 142.97C959.863 143.805 958.591 144.325 958.183 143.873C957.775 143.422 956.911 142.215 956.911 142.215C956.911 142.215 957.905 143.275 957.318 143.52C955.742 143.758 954.142 143.794 952.557 143.628" stroke="black" stroke-width="0.75" stroke-linecap="round" stroke-linejoin="round"/>
<path d="M865.643 143.833C865.643 143.833 862.83 142.655 861.587 142.782C860.345 142.91 859.738 142.9 860.484 141.556L861.22 140.211C860.251 140.957 859.34 141.774 858.496 142.655C857.382 143.872 856.15 141.909 856.398 141.055C856.647 140.201 856.885 143.744 855.901 143.744C854.917 143.744 852.193 142.635 850.832 143.244C849.47 143.852 847.621 144.461 847.621 143.479C847.621 142.498 848.734 140.918 848.247 140.8C847.76 140.682 846.388 141.889 846.14 142.763C845.891 143.636 843.664 140.927 843.664 140.927C843.664 140.927 846.01 143.872 844.897 143.99C843.784 144.107 840.821 144.588 840.076 144.215C839.33 143.842 840.324 143.734 838.346 143.607C836.368 143.479 836.129 142.017 834.768 142.38C833.406 142.743 832.779 142.616 831.547 143.469C830.314 144.323 825.582 143.705 823.594 143.823M823.594 143.823C821.606 143.941 824.718 143.577 823.594 143.823ZM823.594 143.823C822.471 144.068 821.606 144.804 821.119 144.058" stroke="black" stroke-width="0.75" stroke-linecap="round" stroke-linejoin="round"/>
<path d="M790.427 143.736C790.427 143.736 786.709 144.943 785.357 143.844C784.005 142.745 783.26 141.518 782.763 142.735C782.266 143.952 782.136 144.57 779.92 144.56C777.703 144.551 770.774 143.687 769.899 144.05C769.025 144.413 769.283 145.512 768.299 144.776C767.315 144.04 767.066 142.087 766.569 143.069C766.072 144.05 764.959 143.186 764.094 142.087C763.229 140.988 761.629 139.515 761.997 140.86C762.364 142.205 763.716 144.649 761.867 144.03C760.018 143.412 758.776 143.049 757.792 143.657C756.808 144.266 757.543 144.874 755.933 144.511C754.323 144.148 753.706 145.355 753.09 144.374C752.474 143.392 753.468 141.429 753.09 141.086C752.712 140.742 750.615 141.567 749.998 142.666C749.382 143.765 749.124 145.228 748.139 144.629C747.155 144.03 747.394 143.167 745.913 143.53C744.432 143.893 745.416 144.865 744.432 143.893C743.447 142.921 744.312 140.948 743.945 140.595C743.577 140.242 741.221 141.439 741.589 142.784C741.956 144.129 740.475 143.392 740.475 143.392C740.475 143.392 739.988 141.194 739.123 141.429C738.258 141.665 738.616 143.746 738 143.746" stroke="black" stroke-width="0.75" stroke-linecap="round" stroke-linejoin="round"/>
<path d="M986.872 97.7131C986.742 97.632 986.596 97.5778 986.444 97.5537C986.292 97.5296 986.137 97.536 985.987 97.5727C985.838 97.6094 985.698 97.6755 985.575 97.7671C985.452 97.8587 985.349 97.9738 985.272 98.1057C984.566 99.3326 982.876 102.729 984.139 105.457C984.715 106.714 985.64 106.9 986.505 106.439C987.966 105.624 989.258 102.915 988.423 100.314C988.215 99.3002 987.669 98.3844 986.872 97.7131V97.7131Z" stroke="black" stroke-width="0.75" stroke-linecap="round" stroke-linejoin="round"/>
<path d="M986.581 101.433C986.253 101.354 985.259 100.864 984.514 101.188" stroke="black" stroke-width="0.75" stroke-linecap="round" stroke-linejoin="round"/>
<path d="M986.92 106.252C987.23 106.928 987.495 107.623 987.715 108.333" stroke="black" stroke-width="0.75" stroke-linecap="round" stroke-linejoin="round"/>
<path d="M987.887 108.549C987.887 108.549 985.143 111.493 988.563 120.72C991.983 129.946 994.527 128.994 994.995 128.326C995.462 127.659 996.396 124.891 994.259 118.511" stroke="black" stroke-width="0.75" stroke-linecap="round" stroke-linejoin="round"/>
<path d="M987.021 110.669C987.021 110.669 988.294 117.814 991.713 119.395" stroke="black" stroke-width="0.75" stroke-linecap="round" stroke-linejoin="round"/>
<path d="M986.879 110.404C986.879 110.404 985.139 117.343 982.187 119.13C979.234 120.916 974.145 120.651 973.479 120.857C972.813 121.063 972.206 121.583 972.743 121.515C973.28 121.446 973.946 121.78 973.817 121.976C973.688 122.172 972.604 124.096 973.479 123.762C974.354 123.429 974.552 121.583 975.288 121.446" stroke="black" stroke-width="0.75" stroke-linecap="round" stroke-linejoin="round"/>
<path d="M988.152 108.48C989.494 108.549 997.407 113.388 998.003 114.301C998.6 115.213 992.178 119.267 991.91 120.062C991.641 120.857 991.443 122.182 992.307 121.181C992.843 120.575 993.316 119.917 993.719 119.218" stroke="black" stroke-width="0.75" stroke-linecap="round" stroke-linejoin="round"/>
<path d="M989.158 109.148C990.868 111.66 993.522 116.813 993.721 118.207" stroke="black" stroke-width="0.75" stroke-linecap="round" stroke-linejoin="round"/>
<path d="M995.06 118.806C995.597 118.933 998.609 123.635 997.734 126.481C997.55 127.231 997.075 127.879 996.411 128.287C995.747 128.694 994.948 128.828 994.186 128.66" stroke="black" stroke-width="0.75" stroke-linecap="round" stroke-linejoin="round"/>
<path d="M991.841 127.276C991.772 127.669 987.955 140.507 987.08 142.352C986.205 144.197 981.99 140.242 981.453 141.302C980.917 142.362 984.068 143.883 985.539 143.549" stroke="black" stroke-width="0.75" stroke-linecap="round" stroke-linejoin="round"/>
<path d="M995.688 128.925C996.294 129.72 998.033 133.891 999.664 135.01C1001.29 136.129 1009.51 139.113 1009.6 139.309C1009.69 139.506 1007.13 144.61 1006.52 143.235C1005.92 141.861 1007.47 140.654 1008.33 139.928" stroke="black" stroke-width="0.75" stroke-linecap="round" stroke-linejoin="round"/>
<path d="M970.669 123.9C970.47 123.9 969.396 124.754 969.675 125.156C969.953 125.558 970.41 124.891 970.41 124.891" stroke="black" stroke-width="0.75" stroke-linecap="round" stroke-linejoin="round"/>
<path d="M971.67 126.147C971.616 126.262 971.569 126.38 971.531 126.501C971.332 127.06 971.133 127.934 971.402 127.669" stroke="black" stroke-width="0.75" stroke-linecap="round" stroke-linejoin="round"/>
<path d="M972.823 129.435C973.091 130.103 972.683 130.76 972.415 130.564C972.147 130.368 972.146 129.504 972.146 129.504" stroke="black" stroke-width="0.75" stroke-linecap="round" stroke-linejoin="round"/>
<path d="M968.659 127.541C968.251 128.267 968.788 129.327 968.987 128.925C969.186 128.523 968.659 127.541 968.659 127.541Z" stroke="black" stroke-width="0.75" stroke-linecap="round" stroke-linejoin="round"/>
<path d="M970.271 131.634C970.47 132.429 970.062 133.361 969.734 132.9" stroke="black" stroke-width="0.75" stroke-linecap="round" stroke-linejoin="round"/>
<path d="M967.785 131.173C967.119 131.84 967.248 132.566 967.447 132.566C967.646 132.566 968.123 131.771 968.123 131.771" stroke="black" stroke-width="0.75" stroke-linecap="round" stroke-linejoin="round"/>
<path d="M971.403 135.413C971.602 136.335 971.741 137.258 971.135 136.934C970.529 136.61 970.598 136.208 970.598 136.208" stroke="black" stroke-width="0.75" stroke-linecap="round" stroke-linejoin="round"/>
<path d="M967.924 135.413C967.387 136.07 967.446 136.993 967.924 136.934C968.413 136.752 968.865 136.482 969.256 136.139" stroke="black" stroke-width="0.75" stroke-linecap="round" stroke-linejoin="round"/>
<path d="M965.708 134.618C965.042 135.207 964.575 135.737 964.973 135.943C965.37 136.149 965.848 135.54 965.848 135.54" stroke="black" stroke-width="0.75" stroke-linecap="round" stroke-linejoin="round"/>
<path d="M969.125 138.985C969.125 138.985 969.93 139.447 970.059 139.182" stroke="black" stroke-width="0.75" stroke-linecap="round" stroke-linejoin="round"/>
<path d="M965.104 139.515C965.104 139.515 964.905 140.243 964.576 139.978" stroke="black" stroke-width="0.75" stroke-linecap="round" stroke-linejoin="round"/>
<path d="M803.718 96.9869C803.201 96.928 800.606 101.188 802.724 105.712C804.841 110.237 807.555 106.763 807.475 103.367C807.464 102.817 807.411 102.269 807.316 101.728C806.869 99.1265 805.487 97.1832 803.718 96.9869Z" stroke="black" stroke-width="0.75" stroke-linecap="round" stroke-linejoin="round"/>
<path d="M807.406 101.757C807.158 101.669 804.623 101.835 804.623 102.316" stroke="black" stroke-width="0.75" stroke-linecap="round" stroke-linejoin="round"/>
<path d="M808.795 127.855C809.123 127.943 813.865 132.547 813.954 135.216C814.044 137.886 813.865 144.187 814.441 144.187C815.018 144.187 819.839 143.059 820.088 144.266C820.336 145.473 820.416 144.992 819.352 144.992C818.288 144.992 815.505 144.835 815.505 144.835" stroke="black" stroke-width="0.75" stroke-linecap="round" stroke-linejoin="round"/>
<path d="M805.11 129.799C805.279 130.201 805.19 136.669 804.046 137.651C802.903 138.632 793.977 141.213 793.688 141.685C793.4 142.156 795.249 145.885 796.233 145.159C797.217 144.433 795.736 142.735 795.329 142.215" stroke="black" stroke-width="0.75" stroke-linecap="round" stroke-linejoin="round"/>
<path d="M797.374 133.361C797.125 133.126 796.379 131.467 795.455 131.624C794.531 131.781 787.751 136.07 789.232 138.495C790.713 140.919 799.053 138.014 799.053 136.797C798.906 135.778 798.514 134.809 797.91 133.97" stroke="black" stroke-width="0.75" stroke-linecap="round" stroke-linejoin="round"/>
<path d="M805.068 107.891C805.068 108.019 805.148 108.991 805.148 108.991" stroke="black" stroke-width="0.75" stroke-linecap="round" stroke-linejoin="round"/>
<path d="M804.293 126.933C803.756 126.648 801.013 120.945 800.695 119.296C800.377 117.648 804.174 110.041 804.333 109.756" stroke="black" stroke-width="0.75" stroke-linecap="round" stroke-linejoin="round"/>
<path d="M815.012 120.484C815.176 119.838 815.493 119.239 815.936 118.737C816.344 118.393 817.04 118.02 817.417 118.482C817.795 118.943 818.879 120.17 818.779 120.612C818.68 121.053 816.284 121.731 815.966 121.593C815.693 121.476 815.451 121.298 815.26 121.073C815.168 120.972 815.085 120.864 815.012 120.749" stroke="black" stroke-width="0.75" stroke-linecap="round" stroke-linejoin="round"/>
<path d="M815.221 121.191C814.933 121.308 797.328 133.636 797.328 133.636" stroke="black" stroke-width="0.75" stroke-linecap="round" stroke-linejoin="round"/>
<path d="M804.492 126.854C804.492 126.854 806.708 127.296 806.42 128.061C806.132 128.827 805.237 129.151 804.7 128.424C804.382 127.981 804.171 127.47 804.084 126.933" fill="white"/>
<path d="M804.492 126.854C804.492 126.854 806.708 127.296 806.42 128.061C806.132 128.827 805.237 129.151 804.7 128.424C804.382 127.981 804.171 127.47 804.084 126.933" stroke="black" stroke-width="0.75" stroke-linecap="round" stroke-linejoin="round"/>
<path d="M816.74 110.129C816.74 110.129 823.699 110.129 824.106 109.923C824.514 109.717 825.1 108.588 826.094 107.96C827.088 107.332 827.903 106.586 827.903 105.82" stroke="black" stroke-width="0.75" stroke-linecap="round" stroke-linejoin="round"/>
<path d="M823.908 110.335C824.027 110.335 824.902 110.777 825.091 111.513C825.28 112.249 824.554 112.495 825.3 112.966C826.045 113.437 828.282 114.625 828.451 114.782" stroke="black" stroke-width="0.75" stroke-linecap="round" stroke-linejoin="round"/>
<path d="M824.502 110.031C825.377 110.327 826.305 110.437 827.226 110.355C828.12 110.109 829.025 110.031 829.144 110.237" stroke="black" stroke-width="0.75" stroke-linecap="round" stroke-linejoin="round"/>
<path d="M815.387 110.041L806.381 109.923" stroke="black" stroke-width="0.75" stroke-linecap="round" stroke-linejoin="round"/>
<path d="M803.923 109.884C803.793 109.884 794.101 109.805 794.101 109.805C793.19 110.332 792.247 110.804 791.278 111.219C791.009 111.299 790.733 111.352 790.453 111.376" stroke="black" stroke-width="0.75" stroke-linecap="round" stroke-linejoin="round"/>
<path d="M794.273 109.962C793.451 111.223 792.711 112.535 792.057 113.888" stroke="black" stroke-width="0.75" stroke-linecap="round" stroke-linejoin="round"/>
<path d="M790.703 107.165C790.783 107.293 793.685 109.03 794.143 109.953" stroke="black" stroke-width="0.75" stroke-linecap="round" stroke-linejoin="round"/>
<path d="M784.559 102.935C784.559 102.287 784.767 101.639 785.056 102.042C785.344 102.444 785.255 103.219 785.871 102.895C786.487 102.572 788.326 102.287 788.038 102.817C787.75 103.347 787.302 103.583 787.382 104.024C787.461 104.466 787.75 104.466 788.078 104.633C788.406 104.8 788.286 105.359 788.575 105.614C788.863 105.869 790.821 106.134 790.861 106.596C790.901 107.057 789.271 107.528 788.982 107.852C788.694 108.176 789.31 108.343 788.734 108.706C788.157 109.069 787.551 109.511 788.207 109.795C788.863 110.08 790.125 109.952 790.195 110.561C790.239 111.064 790.322 111.563 790.444 112.053C790.444 112.22 791.438 112.828 790.772 113.27C790.106 113.712 789.092 113.996 789.38 114.516C789.668 115.037 790.195 114.723 790.851 114.516C791.507 114.31 791.955 114.516 792.044 115.086C792.133 115.655 792.452 115.616 791.795 116.214C791.139 116.813 790.285 116.578 790.324 116.941C790.364 117.304 791.06 117.108 791.02 117.834C790.98 118.56 790.613 118.727 791.02 119.13C791.428 119.532 792.372 119.326 791.547 119.817C790.722 120.307 790.195 119.817 789.748 119.738C789.3 119.66 789.628 120.141 788.803 120.376C787.978 120.612 787.422 120.504 787.253 120.621C787.084 120.739 787.789 119.934 787.044 121.75C786.298 123.566 785.781 122.074 785.702 121.632C785.622 121.191 785.98 120.945 785.205 121.063C784.429 121.181 784.022 121.632 783.326 120.906C782.63 120.18 782.958 120.464 782.67 119.493C782.382 118.521 781.119 119.817 780.871 118.845C780.622 117.873 781.775 116.597 781.239 116.823C780.433 117.176 779.533 117.262 778.674 117.068C778.674 117.068 775.95 115.429 777.431 112.956C777.7 112.504 779.27 111.896 779.479 111.533C779.688 111.17 777.66 110.993 777.332 109.992C777.133 109.354 778.217 107.391 778.495 107.204C779.101 106.812 778.763 105.673 779.091 105.104C779.419 104.535 780.085 104.368 780.851 103.965C781.616 103.563 781.636 103.17 782.004 102.984C782.372 102.797 784.559 103.533 784.559 102.935Z" stroke="black" stroke-width="0.75" stroke-linecap="round" stroke-linejoin="round"/>
<path d="M782.566 106.566C782.437 106.645 781.91 107.165 782.109 107.695" stroke="black" stroke-width="0.75" stroke-linecap="round" stroke-linejoin="round"/>
<path d="M783.557 111.16C783.539 111.371 783.569 111.583 783.647 111.78C783.724 111.978 783.847 112.155 784.005 112.298C784.462 112.622 783.01 113.466 783.348 113.712C783.686 113.957 784.343 113.712 784.343 113.712" stroke="black" stroke-width="0.75" stroke-linecap="round" stroke-linejoin="round"/>
<path d="M806.133 110.198C806.212 110.325 810.556 117.471 812.028 117.068C813.499 116.666 815.258 113.074 815.387 111.65C815.517 110.227 815.954 108.991 816.322 109.315C816.75 110.165 816.879 111.132 816.69 112.063C816.656 112.182 816.579 112.284 816.473 112.35C816.367 112.417 816.24 112.442 816.117 112.421C815.993 112.4 815.882 112.335 815.804 112.238C815.726 112.141 815.688 112.019 815.696 111.896" stroke="black" stroke-width="0.75" stroke-linecap="round" stroke-linejoin="round"/>
<path d="M804.623 109.315C804.623 109.315 805.806 108.667 806.015 109.589C806.571 112.141 809.325 122.143 809.454 124.076" stroke="black" stroke-width="0.75" stroke-linecap="round" stroke-linejoin="round"/>
<path d="M809.592 126.295C809.592 126.295 808.846 128.66 807.116 129.18C805.387 129.7 804.721 129.327 804.721 129.327" stroke="black" stroke-width="0.75" stroke-linecap="round" stroke-linejoin="round"/>
<path d="M804.541 109.472C804.541 109.472 803.547 122.378 803.547 123.703C803.547 125.028 803.398 128.316 803.846 128.827" stroke="black" stroke-width="0.75" stroke-linecap="round" stroke-linejoin="round"/>
<path d="M908.639 173.77C932.252 173.77 951.394 155.147 951.394 132.174C951.394 109.201 932.252 90.5775 908.639 90.5775C885.027 90.5775 865.885 109.201 865.885 132.174C865.885 155.147 885.027 173.77 908.639 173.77Z" stroke="black" stroke-width="0.75" stroke-linecap="round" stroke-linejoin="round"/>
<path d="M879.384 102.189C879.871 102.189 882.366 102.032 883.997 103.17C885.627 104.309 889.762 100.226 892.237 101.708C894.713 103.19 894.046 103.818 895.528 103.985C897.009 104.152 900.498 105.771 899.504 107.077C898.51 108.382 895.388 107.077 898.51 108.372C901.631 109.668 903.122 107.558 904.275 110.335C905.429 113.113 911.532 116.038 910.051 118.963C908.57 121.888 907.904 122.889 905.081 120.926C902.257 118.963 900.11 119.62 897.665 118.963C895.219 118.305 894.534 116.519 893.54 117.657C892.545 118.796 894.534 122.869 892.058 124.174C889.583 125.48 886.79 122.869 885.965 124.989C885.14 127.109 886.293 132.959 882.983 134.264C879.672 135.57 878.539 134.097 876.223 134.097C873.907 134.097 871.78 135.079 873.43 131.82C875.08 128.562 878.4 126.452 875.895 126.609C873.39 126.766 870.626 129.376 868.648 129.376H866.66" stroke="black" stroke-width="0.75" stroke-linecap="round" stroke-linejoin="round"/>
<path d="M895.896 123.546C896.721 122.408 896.224 119.807 899.356 121.583C902.487 123.36 901.662 124.528 904.962 123.87C908.262 123.213 907.427 123.056 910.231 126.147C913.034 129.239 915.996 131.055 914.356 132.331C912.716 133.607 913.034 131.192 911.881 134.608C910.728 138.024 913.69 139.81 909.078 139.977C904.465 140.144 904.962 136.561 902.646 138.514C900.33 140.468 899.853 139.329 898.67 142.097C897.487 144.865 898.511 143.235 898.67 148.967C898.829 154.699 896.682 163.935 894.226 163.611C891.771 163.288 892.238 162.316 888.948 161.01C885.657 159.705 883.679 160.029 883.341 154.66C883.003 149.291 884.504 149.458 883.182 145.385C881.86 141.312 879.057 142.136 881.86 139.496C884.663 136.856 884.504 139.015 885.836 136.08C887.168 133.146 887.317 133.312 887.824 130.878C888.331 128.444 886.174 128.267 888.819 127.296C891.463 126.324 889.147 127.129 892.437 125.833C895.727 124.538 895.896 123.546 895.896 123.546Z" stroke="black" stroke-width="0.75" stroke-linecap="round" stroke-linejoin="round"/>
<path d="M911.055 95.5145C908.351 95.5145 906.939 97.9585 909.405 99.4406C911.87 100.923 914.514 100.589 914.514 103.19C914.514 105.791 915.339 104.171 918.49 105.791C921.642 107.41 923.272 111.484 923.928 107.754C924.584 104.024 922.934 103.524 925.081 102.542C927.228 101.561 932.338 99.9411 927.397 98.4787C922.045 97.0325 916.578 96.0409 911.055 95.5145V95.5145Z" stroke="black" stroke-width="0.75" stroke-linecap="round" stroke-linejoin="round"/>
<path d="M935.945 100.726C934.792 101.217 928.857 102.189 929.841 104.957C930.825 107.724 932.972 105.614 931.66 109.511C930.348 113.407 926.69 112.603 930.01 114.232C931.984 115.267 934.09 116.033 936.273 116.509C938.082 117 941.382 117 942.863 120.906C944.344 124.812 946.84 125.951 946.323 129.367C945.806 132.782 946.82 134.902 947.973 133.597C949.126 132.292 950.955 129.671 950.955 129.671" stroke="black" stroke-width="0.75" stroke-linecap="round" stroke-linejoin="round"/>
<path d="M949.962 140.438C949.306 139.133 948.968 138.976 947.487 137.494C946.005 136.011 944.504 136.198 940.896 137.494C937.288 138.789 931.333 137.66 931.005 139.771C930.677 141.881 931.671 141.4 930.677 141.891C929.683 142.381 924.584 139.447 924.912 144.659C925.24 149.87 927.546 151.166 926.562 154.582C925.578 157.997 929.196 158.812 931.174 161.747C933.152 164.681 937.138 163.71 937.138 163.71" stroke="black" stroke-width="0.75" stroke-linecap="round" stroke-linejoin="round"/>
<path d="M882.704 98.4492C882.048 97.8015 878.419 95.5047 877.435 93.5417C877.15 92.8627 876.724 92.2501 876.184 91.743C875.645 91.236 875.005 90.8457 874.304 90.5972C873.141 90.1064 872.157 88.9679 871.163 91.5787C870.169 94.1895 871.332 97.9192 869.353 97.2714C867.375 96.6236 868.528 94.8275 866.222 96.7807C863.916 98.7339 862.763 100.196 860.616 98.9007C858.468 97.6052 856.997 96.7807 856.997 94.9747C856.997 93.1687 856.5 92.6976 855.506 92.5308C854.512 92.3639 851.53 93.3454 850.536 91.0683C849.542 88.7912 848.061 88.1238 848.886 86.6712C849.711 85.2185 849.055 87.1619 849.711 85.2087C850.367 83.2555 848.886 83.0887 849.88 80.4877L850.874 77.8867C849.958 77.5265 849.178 76.8933 848.644 76.0753C848.109 75.2573 847.847 74.2951 847.892 73.3227C848.051 69.907 848.379 69.75 849.701 68.4152C851.023 67.0803 849.701 66.7859 852.176 65.4706C854.651 64.1554 855.635 63.9984 856.958 64.1652C858.28 64.3321 857.286 62.7028 859.592 61.3974C861.898 60.092 862.723 61.3974 862.882 60.092C863.041 58.7866 862.554 57.491 863.707 56.5193C864.86 55.5476 864.86 56.0285 865.854 56.1954C866.848 56.3623 867.007 54.89 868.33 54.0753C869.652 53.2607 871.312 53.0938 871.789 54.2422C872.266 55.3906 873.777 56.2052 874.095 56.5193C874.413 56.8334 875.417 55.2139 877.226 55.5378C879.036 55.8617 880.358 57.0002 881.511 55.8617C882.664 54.7231 884.642 52.6129 885.964 53.7515C887.286 54.89 888.598 58.659 888.598 58.659C888.598 58.659 887.604 53.457 888.926 52.9662C890.249 52.4755 892.386 51.9847 892.227 50.3653C892.068 48.7458 892.555 45.3203 894.533 45.3203C895.733 45.3244 896.917 45.5997 897.992 46.1251C897.992 46.1251 897.833 43.0334 900.299 43.8481C902.764 44.6627 904.424 45.8111 905.269 44.5057C906.114 43.2003 906.581 42.0617 908.559 42.3856C910.537 42.7095 912.685 44.1818 913.669 42.5525C914.653 40.9232 915.816 37.6449 918.122 39.6079C920.428 41.571 920.756 42.6997 921.909 42.2188C923.063 41.7378 923.897 40.2557 924.057 42.8665C924.142 44.3486 924.362 45.8202 924.713 47.2637C924.713 47.2637 928.51 46.1153 929.822 48.2452C931.134 50.3751 935.101 48.0783 935.786 51.1897C936.168 53.0988 935.996 55.0756 935.289 56.8923C935.289 56.8923 938.093 54.7722 939.584 56.5684C941.075 58.3645 942.218 54.4483 944.027 56.4015C945.836 58.3547 946.671 60.1411 947.328 59.4933C947.984 58.8455 951.781 59.3362 952.934 60.6318C954.087 61.9274 956.721 57.864 958.7 60.4748C959.624 61.763 960.672 62.9595 961.831 64.0475C961.831 64.0475 966.443 62.428 965.946 65.3529C965.605 67.1552 964.613 68.7738 963.153 69.907C963.153 69.907 966.771 70.5647 967.129 72.351L967.457 74.1373C967.457 74.1373 971.433 72.1743 971.433 75.2759C971.433 78.3774 967.308 81.3023 966.324 81.1649C965.34 81.0275 965.986 86.8675 964.674 87.5153C963.362 88.1631 967.964 92.7271 965.171 94.3858C964.348 94.8558 963.419 95.1171 962.469 95.1462C961.518 95.1753 960.575 94.9714 959.723 94.5527C959.723 94.5527 959.723 98.2922 957.417 98.4787C955.111 98.6652 953.133 97.1733 953.133 95.0631V91.2842C953.133 91.2842 950.658 93.4043 949.505 91.775C948.351 90.1457 947.039 87.7116 944.892 88.6833C942.745 89.655 936.94 98.1254 936.82 98.94" stroke="black" stroke-width="0.75" stroke-linecap="round" stroke-linejoin="round"/>
<path d="M894.296 92.1381C893.143 91.1566 893.799 88.2121 892.308 88.8893C891.284 89.3849 890.147 89.6082 889.008 89.5371C887.855 89.5371 888.014 92.6289 885.718 91.5001C883.421 90.3714 882.586 90.0377 882.586 90.0377C882.586 90.0377 882.249 92.8056 879.783 90.5186C877.318 88.2317 877.477 86.1313 877.477 86.1313C877.477 86.1313 872.03 86.6221 872.855 84.3352C873.68 82.0482 875.658 82.2249 875.161 80.5956C874.664 78.9663 875.161 79.4571 875.33 76.6696C875.499 73.8821 872.855 71.6246 875.658 70.3192C878.461 69.0138 881.423 71.4676 881.622 69.1807C881.821 66.8938 880.797 65.9319 883.928 65.4412C887.06 64.9504 888.899 65.1173 888.899 64.6265C888.899 64.1358 891.364 60.887 894.495 62.0255C895.996 62.5123 897.434 63.1712 898.78 63.9885C898.78 63.9885 899.774 62.6831 900.43 65.1271C901.086 67.571 901.424 69.1905 902.08 69.1905C902.736 69.1905 904.068 72.2823 905.38 70.8198C906.692 69.3574 907.189 68.7096 908.671 69.5242C910.152 70.3389 909.496 73.0969 911.802 71.1437C914.108 69.1905 915.43 69.3574 916.424 69.3574C917.418 69.3574 917.08 68.3759 918.562 67.0803C920.043 65.7847 921.037 67.2373 922.538 66.5895C924.039 65.9417 924.019 65.2841 925.341 66.2656C926.663 67.2471 927.488 69.0335 928.472 67.7281C929.093 67.0296 929.922 66.5432 930.84 66.3387C931.758 66.1341 932.718 66.2219 933.582 66.5895C935.391 67.4042 936.564 65.608 937.707 67.2373C938.85 68.8666 938.363 70.1818 939.188 69.6813C940.013 69.1807 943.165 69.8481 941.823 72.2823C940.481 74.7164 943.811 74.7262 943.304 76.5224C943.101 77.0645 942.746 77.5378 942.278 77.8858C941.811 78.2338 941.253 78.442 940.669 78.4854C940.669 78.4854 940.997 80.9195 940.5 81.901C940.003 82.8825 943.801 84.8455 941.166 85.3167C939.577 85.6036 937.935 85.3144 936.544 84.502C936.544 84.502 937.866 86.946 935.729 87.2699C934.886 87.4848 934.001 87.4774 933.161 87.2483C932.322 87.0192 931.559 86.5765 930.947 85.9645C929.466 84.6689 926.971 84.502 926.494 85.6406C926.017 86.7791 923.86 89.3801 924.019 92.1479" stroke="black" stroke-width="0.75" stroke-linecap="round" stroke-linejoin="round"/>
<path d="M919.951 91.1567C920.806 89.6646 921.206 87.9605 921.104 86.2492C920.945 84.1389 919.951 83.1574 919.116 83.1574C918.281 83.1574 917.953 84.1389 916.799 83.1574C915.646 82.1759 913.996 83.815 913.34 82.1759C912.684 80.5368 914.662 80.3797 913.012 78.9173C911.362 77.4549 910.03 78.2695 911.69 75.6685C913.35 73.0675 913.837 74.0392 913.678 72.2431C913.519 70.4469 913.678 69.966 914.672 69.2985" stroke="black" stroke-width="0.75" stroke-linecap="round" stroke-linejoin="round"/>
<path d="M908.576 69.4849C908.417 70.6235 908.248 76.964 909.242 78.1026" stroke="black" stroke-width="0.75" stroke-linecap="round" stroke-linejoin="round"/>
<path d="M905.289 70.7806C905.289 70.7806 905.617 73.5484 904.623 74.3631C903.629 75.1777 902.814 75.3446 903.47 76.4831C904.126 77.6217 906.273 77.6217 903.639 78.9173C901.005 80.2128 900.18 80.7134 900.18 79.5749C900.18 78.4363 901.989 77.6119 900.18 78.4363C898.371 79.2608 897.197 82.009 896.72 80.5466C896.243 79.0841 897.048 77.602 895.229 79.0841C893.41 80.5662 893.092 76.4831 892.247 77.6217C891.402 78.7602 893.559 81.3612 891.75 81.852C889.941 82.3427 887.138 82.6666 888.122 82.9905C889.106 83.3144 892.406 84.4529 892.903 85.5915" stroke="black" stroke-width="0.75" stroke-linecap="round" stroke-linejoin="round"/>
<path d="M898.033 90.9604C897.705 90.3126 893.251 88.1925 895.895 82.1759" stroke="black" stroke-width="0.75" stroke-linecap="round" stroke-linejoin="round"/>
<path d="M905.291 79.3785C906.093 80.5397 906.547 81.9002 906.603 83.3046C906.55 85.4281 906.387 87.5476 906.116 89.6549" stroke="black" stroke-width="0.75" stroke-linecap="round" stroke-linejoin="round"/>
<path d="M912.537 83.6384C912.537 83.6384 912.378 88.6833 912.706 89.5274" stroke="black" stroke-width="0.75" stroke-linecap="round" stroke-linejoin="round"/>
<path d="M922.923 85.1008C923.082 82.3329 921.104 80.8705 922.267 80.3797C923.43 79.889 922.595 82.8237 924.732 82.009C926.869 81.1944 926.879 80.5466 928.529 81.3612C929.572 81.9109 930.474 82.69 931.164 83.6383" stroke="black" stroke-width="0.75" stroke-linecap="round" stroke-linejoin="round"/>
<path d="M933.302 88.0355C933.399 89.6784 933.289 91.3269 932.974 92.943C932.619 94.0961 931.928 95.1202 930.986 95.8875" stroke="black" stroke-width="0.75" stroke-linecap="round" stroke-linejoin="round"/>
</svg>

