<?xml version="1.0" encoding="UTF-8"?>
<svg width="1098" height="131" viewBox="0 0 1098 131" fill="none" xmlns="http://www.w3.org/2000/svg">
<g clip-path="url(#clip0)">
<path d="M927.202 35.4891C926.668 35.4097 924.762 36.2036 923.237 37.7121C922.093 38.8236 921.102 40.4115 921.178 42.3963C921.407 46.9218 926.897 46.9218 928.269 43.4285C929.718 39.7763 930.328 35.9654 927.202 35.4891Z" stroke="black" stroke-width="0.75" stroke-miterlimit="10" stroke-linecap="round" stroke-linejoin="round"/>
<path d="M924.838 38.9031C924.761 38.7443 924.609 37.7916 923.236 37.6328" stroke="black" stroke-width="0.75" stroke-miterlimit="10" stroke-linecap="round" stroke-linejoin="round"/>
<path d="M923.77 47.3982C923.77 47.3982 923.007 48.1921 922.473 48.9861C921.94 49.78 914.848 68.2788 918.89 74.6303C924.227 78.8382 925.295 75.7418 925.676 74.6303C925.981 73.5188 925.447 72.2485 924.837 66.7703C924.227 61.2921 924.303 52.797 924.608 50.9709C924.913 48.8273 924.456 47.0806 923.998 47.3188" stroke="black" stroke-width="0.75" stroke-miterlimit="10" stroke-linecap="round" stroke-linejoin="round"/>
<path d="M922.474 48.9861C921.254 48.6686 913.324 45.4134 913.019 36.6007C912.714 27.8673 913.019 26.9146 913.248 26.3589C913.476 25.7237 915.84 23.5801 914.086 23.5801" stroke="black" stroke-width="0.75" stroke-miterlimit="10" stroke-linecap="round" stroke-linejoin="round"/>
<path d="M908.367 18.8958L908.901 25.4855C908.901 25.4855 915.611 24.7709 914.772 24.4534C913.933 24.1358 913.095 17.6255 913.095 17.6255L908.367 18.8958Z" stroke="black" stroke-width="0.75" stroke-miterlimit="10" stroke-linecap="round" stroke-linejoin="round"/>
<path d="M924.762 49.0654C924.762 49.0654 925.829 55.8933 931.853 74.3921C932.692 77.0121 929.642 76.2976 930.099 77.806C930.557 79.3145 931.853 76.7739 931.853 76.7739" stroke="black" stroke-width="0.75" stroke-miterlimit="10" stroke-linecap="round" stroke-linejoin="round"/>
<path d="M919.423 75.5831C919.423 75.5831 917.669 90.668 917.898 95.114C918.127 99.5601 918.737 110.278 918.737 110.278C918.737 110.278 913.704 107.341 912.637 109.723C911.569 112.104 918.661 110.755 918.661 110.755" stroke="black" stroke-width="0.75" stroke-miterlimit="10" stroke-linecap="round" stroke-linejoin="round"/>
<path d="M923.922 76.7739C923.922 77.0915 922.855 92.3351 922.855 94.1612C922.855 95.9873 924.914 111.548 924.837 111.152C924.761 110.755 921.254 108.77 919.805 110.675C918.356 112.581 924.38 111.469 924.38 111.469" stroke="black" stroke-width="0.75" stroke-miterlimit="10" stroke-linecap="round" stroke-linejoin="round"/>
<path d="M880.688 18.1018C880.688 18.4988 880.688 27.2321 880.688 26.8351C880.688 26.4382 890.524 25.803 890.524 25.803C890.524 25.803 889.761 22.0715 889.685 21.0394C889.533 20.0073 889.533 16.8315 889.075 16.9109C888.618 17.0697 880.688 18.1018 880.688 18.1018Z" stroke="black" stroke-width="0.75" stroke-miterlimit="10" stroke-linecap="round" stroke-linejoin="round"/>
<path d="M866.047 16.0376L866.428 22.7067L875.655 22.7861L874.663 14.7673L865.971 14.8467L866.047 16.0376Z" stroke="black" stroke-width="0.75" stroke-miterlimit="10" stroke-linecap="round" stroke-linejoin="round"/>
<path d="M841.342 12.8618C841.342 12.8618 841.57 21.2776 841.57 20.96C841.57 20.563 850.187 20.1661 850.187 20.1661L849.729 11.8297L841.647 11.9885L841.342 12.8618Z" stroke="black" stroke-width="0.75" stroke-miterlimit="10" stroke-linecap="round" stroke-linejoin="round"/>
<path d="M852.322 19.6103C852.246 19.1339 861.091 19.4515 861.091 19.4515L861.243 26.9145L850.949 27.3115C850.797 27.3115 852.932 23.1036 852.322 19.6103Z" stroke="black" stroke-width="0.75" stroke-miterlimit="10" stroke-linecap="round" stroke-linejoin="round"/>
<path d="M827.922 16.8316C827.769 16.1964 836.157 16.9904 836.386 16.8316C836.615 16.6728 836.386 24.374 836.386 24.374C836.386 24.374 829.218 25.6443 828.303 24.6122C827.312 23.5801 828.913 21.4364 827.922 16.8316Z" stroke="black" stroke-width="0.75" stroke-miterlimit="10" stroke-linecap="round" stroke-linejoin="round"/>
<path d="M828.913 29.8521C828.913 29.2963 836.69 31.1224 836.69 31.1224C836.69 31.1224 835.699 40.0939 835.089 39.8557C834.479 39.6175 826.32 38.5854 826.32 38.5854C826.32 38.5854 828.455 37.6327 828.913 29.8521Z" stroke="black" stroke-width="0.75" stroke-miterlimit="10" stroke-linecap="round" stroke-linejoin="round"/>
<path d="M839.665 25.8825C839.589 25.2473 848.739 26.2795 848.739 26.2795L847.595 33.7425L838.75 34.2189C838.75 34.2189 840.275 33.0279 839.665 25.8825Z" stroke="black" stroke-width="0.75" stroke-miterlimit="10" stroke-linecap="round" stroke-linejoin="round"/>
<path d="M866.2 25.8825C866.2 25.2473 875.274 26.9146 875.274 26.9146C875.274 26.9146 874.664 35.0128 874.511 34.6158C874.359 34.2188 865.666 34.1394 865.666 34.1394C865.666 34.1394 866.428 32.7897 866.2 25.8825Z" stroke="black" stroke-width="0.75" stroke-miterlimit="10" stroke-linecap="round" stroke-linejoin="round"/>
<path d="M853.312 30.4873C853.312 30.4873 859.183 32.3928 861.089 31.3606C860.937 34.9334 860.632 38.6649 860.632 38.6649C860.632 38.6649 851.406 39.8558 851.787 39.5382C852.168 39.2206 853.617 35.3303 853.388 33.1073C853.007 31.0431 853.312 30.4873 853.312 30.4873Z" stroke="black" stroke-width="0.75" stroke-miterlimit="10" stroke-linecap="round" stroke-linejoin="round"/>
<path d="M880.611 31.3607C880.992 31.1225 888.693 31.5194 888.693 31.5194L888.236 40.8879L879.01 40.491L880.611 31.3607Z" stroke="black" stroke-width="0.75" stroke-miterlimit="10" stroke-linecap="round" stroke-linejoin="round"/>
<path d="M892.659 27.0733C892.887 27.5497 892.277 35.6479 892.277 35.6479C892.277 35.6479 899.521 36.0448 899.445 35.2509C899.292 34.457 899.674 26.4382 899.216 26.4382C898.682 26.3588 892.659 27.0733 892.659 27.0733Z" stroke="black" stroke-width="0.75" stroke-miterlimit="10" stroke-linecap="round" stroke-linejoin="round"/>
<path d="M866.809 40.2527C866.961 40.6497 866.58 47.9539 866.58 47.9539C866.58 47.9539 875.196 48.1127 874.968 47.7157C874.739 47.3188 875.578 39.1412 874.968 38.9824C874.358 38.8236 866.809 40.2527 866.809 40.2527Z" stroke="black" stroke-width="0.75" stroke-miterlimit="10" stroke-linecap="round" stroke-linejoin="round"/>
<path d="M854.151 42.3964C853.922 43.0315 853.312 50.8121 853.541 50.4946C853.769 50.0976 862.386 51.1297 862.386 50.4946C862.386 49.8594 863.377 41.2849 862.843 41.0467C862.386 40.7291 854.151 42.3964 854.151 42.3964Z" stroke="black" stroke-width="0.75" stroke-miterlimit="10" stroke-linecap="round" stroke-linejoin="round"/>
<path d="M840.883 39.2207C840.883 39.2207 842.027 45.0164 840.426 47.0013C838.825 49.0655 848.813 47.6364 848.813 47.6364L849.423 38.9031L840.883 39.2207Z" stroke="black" stroke-width="0.75" stroke-miterlimit="10" stroke-linecap="round" stroke-linejoin="round"/>
<path d="M828.226 46.2867C828.226 46.6836 827.082 55.417 827.082 55.417H835.698L836.308 46.2073L828.226 46.2867Z" stroke="black" stroke-width="0.75" stroke-miterlimit="10" stroke-linecap="round" stroke-linejoin="round"/>
<path d="M841.571 54.5436C841.495 53.829 840.961 62.6418 840.961 62.6418C840.961 62.6418 849.73 62.88 849.806 62.483C849.958 62.086 850.263 53.1145 850.263 53.1145C850.263 53.1145 841.723 55.4963 841.571 54.5436Z" stroke="black" stroke-width="0.75" stroke-miterlimit="10" stroke-linecap="round" stroke-linejoin="round"/>
<path d="M854.914 54.4643C854.914 54.8613 854.914 62.0067 854.914 62.0067C854.914 62.0067 862.386 62.8007 862.539 62.2449C862.691 61.7686 863.53 53.4322 863.149 53.0352C862.768 52.6383 854.914 54.4643 854.914 54.4643Z" stroke="black" stroke-width="0.75" stroke-miterlimit="10" stroke-linecap="round" stroke-linejoin="round"/>
<path d="M867.801 54.0673C867.801 54.4643 867.344 62.0067 867.344 62.0067C867.344 62.0067 876.57 61.8479 876.418 61.5304C876.265 61.1334 876.036 51.9237 876.036 51.9237L867.954 52.4001L867.801 54.0673Z" stroke="black" stroke-width="0.75" stroke-miterlimit="10" stroke-linecap="round" stroke-linejoin="round"/>
<path d="M880.992 47.2394C880.763 47.8746 881.22 55.417 881.22 55.417L888.845 55.02C888.845 55.02 889.303 45.8103 888.464 45.6516C887.625 45.5722 880.992 47.2394 880.992 47.2394Z" stroke="black" stroke-width="0.75" stroke-miterlimit="10" stroke-linecap="round" stroke-linejoin="round"/>
<path d="M894.488 42.5552C894.488 43.3491 893.649 51.3679 893.726 50.9709C893.878 50.574 901.579 51.3679 901.579 51.3679L902.799 41.3643L894.488 42.5552Z" stroke="black" stroke-width="0.75" stroke-miterlimit="10" stroke-linecap="round" stroke-linejoin="round"/>
<path d="M891.514 57.1637L891.133 64.071L899.902 63.8328C899.902 63.8328 900.283 54.4643 899.902 54.6231C899.52 54.7819 891.667 55.0201 891.667 55.0201L891.514 57.1637Z" stroke="black" stroke-width="0.75" stroke-miterlimit="10" stroke-linecap="round" stroke-linejoin="round"/>
<path d="M879.848 63.6739L879.467 72.0103L887.854 71.3751C887.854 71.3751 887.854 61.9273 887.244 61.7685C886.634 61.6097 879.848 63.6739 879.848 63.6739Z" stroke="black" stroke-width="0.75" stroke-miterlimit="10" stroke-linecap="round" stroke-linejoin="round"/>
<path d="M893.496 68.9139L893.115 77.0915L902.113 76.2975C902.113 76.2975 903.256 68.12 902.57 67.723C901.96 67.4054 893.496 68.9139 893.496 68.9139Z" stroke="black" stroke-width="0.75" stroke-miterlimit="10" stroke-linecap="round" stroke-linejoin="round"/>
<path d="M845.078 67.0085C845.764 66.7703 844.697 75.583 844.849 75.186C845.002 74.7891 854.457 75.98 854.228 75.4242C853.999 74.8684 854.457 64.5472 853.999 64.5472C853.389 64.5472 844.697 67.0878 845.078 67.0085Z" stroke="black" stroke-width="0.75" stroke-miterlimit="10" stroke-linecap="round" stroke-linejoin="round"/>
<path d="M859.793 67.6437C859.565 67.0085 859.412 76.377 859.412 76.377L867.647 75.9801L868.028 65.2619C868.028 65.1825 859.946 68.0407 859.793 67.6437Z" stroke="black" stroke-width="0.75" stroke-miterlimit="10" stroke-linecap="round" stroke-linejoin="round"/>
<path d="M828.303 62.0067C828.074 62.483 826.93 71.2164 827.159 70.8194C827.388 70.4224 837.758 70.1842 837.758 70.1842C837.758 70.1842 838.902 61.6097 837.148 61.2127C835.394 60.8158 828.303 62.0067 828.303 62.0067Z" stroke="black" stroke-width="0.75" stroke-miterlimit="10" stroke-linecap="round" stroke-linejoin="round"/>
<path d="M830.209 19.2134L833.259 19.531" stroke="black" stroke-width="0.75" stroke-miterlimit="10" stroke-linecap="round" stroke-linejoin="round"/>
<path d="M830.285 21.1982L833.183 21.754" stroke="black" stroke-width="0.75" stroke-miterlimit="10" stroke-linecap="round" stroke-linejoin="round"/>
<path d="M844.238 14.926C844.62 14.8467 847.365 14.6879 847.365 14.6879" stroke="black" stroke-width="0.75" stroke-miterlimit="10" stroke-linecap="round" stroke-linejoin="round"/>
<path d="M854.533 22.8655C854.533 22.8655 857.736 22.6273 857.964 22.6273" stroke="black" stroke-width="0.75" stroke-miterlimit="10" stroke-linecap="round" stroke-linejoin="round"/>
<path d="M868.258 18.1018C868.41 19.4515 868.41 20.2454 869.63 18.8163C870.85 17.3872 871.842 16.2757 871.918 18.4194C871.994 20.563 873.214 20.2454 873.214 20.2454" stroke="black" stroke-width="0.75" stroke-miterlimit="10" stroke-linecap="round" stroke-linejoin="round"/>
<path d="M884.347 20.2455C884.118 20.4043 882.44 22.3097 883.737 22.5479C885.033 22.7861 886.329 21.2776 886.253 21.0394C886.177 20.8012 884.347 20.2455 884.347 20.2455Z" stroke="black" stroke-width="0.75" stroke-miterlimit="10" stroke-linecap="round" stroke-linejoin="round"/>
<path d="M869.02 28.5024C869.63 28.5024 872.985 29.3758 872.985 29.3758" stroke="black" stroke-width="0.75" stroke-miterlimit="10" stroke-linecap="round" stroke-linejoin="round"/>
<path d="M867.801 32.1546C868.182 32.0752 872.757 32.0752 872.757 32.0752" stroke="black" stroke-width="0.75" stroke-miterlimit="10" stroke-linecap="round" stroke-linejoin="round"/>
<path d="M855.295 34.2188C855.295 34.2188 854.609 37.2358 856.058 36.0449C857.43 34.854 857.583 33.5837 858.574 33.6631C859.565 33.7425 858.879 35.8067 858.879 35.8067" stroke="black" stroke-width="0.75" stroke-miterlimit="10" stroke-linecap="round" stroke-linejoin="round"/>
<path d="M842.104 29.6934L846.145 29.614" stroke="black" stroke-width="0.75" stroke-miterlimit="10" stroke-linecap="round" stroke-linejoin="round"/>
<path d="M830.514 34.1394L834.555 34.6952" stroke="black" stroke-width="0.75" stroke-miterlimit="10" stroke-linecap="round" stroke-linejoin="round"/>
<path d="M843.857 41.7612C844.162 41.6818 847.594 41.7612 847.594 41.7612" stroke="black" stroke-width="0.75" stroke-miterlimit="10" stroke-linecap="round" stroke-linejoin="round"/>
<path d="M842.791 45.2545C843.02 45.1751 846.299 45.6515 846.299 45.6515" stroke="black" stroke-width="0.75" stroke-miterlimit="10" stroke-linecap="round" stroke-linejoin="round"/>
<path d="M856.516 45.0164C856.668 44.6988 860.404 44.7782 860.404 44.7782" stroke="black" stroke-width="0.75" stroke-miterlimit="10" stroke-linecap="round" stroke-linejoin="round"/>
<path d="M869.326 42.4758L872.986 42.0789" stroke="black" stroke-width="0.75" stroke-miterlimit="10" stroke-linecap="round" stroke-linejoin="round"/>
<path d="M869.707 45.2545L872.528 45.5721" stroke="black" stroke-width="0.75" stroke-miterlimit="10" stroke-linecap="round" stroke-linejoin="round"/>
<path d="M882.822 34.9333L886.711 35.9655" stroke="black" stroke-width="0.75" stroke-miterlimit="10" stroke-linecap="round" stroke-linejoin="round"/>
<path d="M894.641 31.0431C894.641 31.0431 895.327 28.9789 896.471 30.1698C897.614 31.3607 897.614 32.3928 897.614 32.3928" stroke="black" stroke-width="0.75" stroke-miterlimit="10" stroke-linecap="round" stroke-linejoin="round"/>
<path d="M829.064 51.2885L833.563 51.7648" stroke="black" stroke-width="0.75" stroke-miterlimit="10" stroke-linecap="round" stroke-linejoin="round"/>
<path d="M848.204 57.7195C847.747 57.6401 846.069 55.5758 845.078 57.4019C844.087 59.2279 847.594 59.9425 846.527 60.4982C845.459 60.9746 843.477 60.5776 843.477 60.5776" stroke="black" stroke-width="0.75" stroke-miterlimit="10" stroke-linecap="round" stroke-linejoin="round"/>
<path d="M830.361 66.5322C831.124 67.8025 831.429 63.7534 833.793 63.9916C836.156 64.2298 835.47 67.088 835.47 67.088" stroke="black" stroke-width="0.75" stroke-miterlimit="10" stroke-linecap="round" stroke-linejoin="round"/>
<path d="M848.051 69.6285C848.661 69.5491 851.33 69.9461 851.33 69.9461" stroke="black" stroke-width="0.75" stroke-miterlimit="10" stroke-linecap="round" stroke-linejoin="round"/>
<path d="M862.234 71.3752C862.844 71.0576 865.056 71.2958 865.284 71.2164" stroke="black" stroke-width="0.75" stroke-miterlimit="10" stroke-linecap="round" stroke-linejoin="round"/>
<path d="M857.125 57.1637C857.354 57.0843 860.023 57.4813 860.023 57.4813" stroke="black" stroke-width="0.75" stroke-miterlimit="10" stroke-linecap="round" stroke-linejoin="round"/>
<path d="M857.812 59.9424L860.405 60.3394" stroke="black" stroke-width="0.75" stroke-miterlimit="10" stroke-linecap="round" stroke-linejoin="round"/>
<path d="M870.393 55.4964C870.698 55.417 873.976 55.7346 873.976 55.7346" stroke="black" stroke-width="0.75" stroke-miterlimit="10" stroke-linecap="round" stroke-linejoin="round"/>
<path d="M883.279 51.2092C883.737 51.0504 885.948 50.7328 885.948 50.7328" stroke="black" stroke-width="0.75" stroke-miterlimit="10" stroke-linecap="round" stroke-linejoin="round"/>
<path d="M882.059 67.9613C882.364 67.6437 884.956 67.2467 884.956 67.2467" stroke="black" stroke-width="0.75" stroke-miterlimit="10" stroke-linecap="round" stroke-linejoin="round"/>
<path d="M896.242 72.4073C896.471 72.0103 899.292 71.6927 899.292 71.6927" stroke="black" stroke-width="0.75" stroke-miterlimit="10" stroke-linecap="round" stroke-linejoin="round"/>
<path d="M893.42 57.7194C894.03 57.7194 897.614 58.1163 897.614 58.1163" stroke="black" stroke-width="0.75" stroke-miterlimit="10" stroke-linecap="round" stroke-linejoin="round"/>
<path d="M893.648 61.6097C893.953 61.3715 896.851 61.7685 896.851 61.7685" stroke="black" stroke-width="0.75" stroke-miterlimit="10" stroke-linecap="round" stroke-linejoin="round"/>
<path d="M896.242 45.9691C896.623 45.8103 900.436 45.334 900.436 45.334" stroke="black" stroke-width="0.75" stroke-miterlimit="10" stroke-linecap="round" stroke-linejoin="round"/>
<path d="M909.662 21.6746L912.483 21.4364" stroke="black" stroke-width="0.75" stroke-miterlimit="10" stroke-linecap="round" stroke-linejoin="round"/>
<path d="M1098 95.9078C1088.47 96.0666 4.4225 96.6224 0 96.3842" stroke="black" stroke-width="0.75" stroke-miterlimit="10" stroke-linecap="round" stroke-linejoin="round"/>
<path d="M692.58 42.6346C692.199 43.0315 689.911 48.1922 693.266 52.0031C696.621 55.814 699.976 51.0503 699.442 49.0655C698.909 47.0806 697.689 41.9994 695.706 41.7612C693.8 41.5231 692.58 42.6346 692.58 42.6346Z" stroke="black" stroke-width="0.75" stroke-miterlimit="10" stroke-linecap="round" stroke-linejoin="round"/>
<path d="M697.46 44.0637C697.078 44.2225 693.266 46.6043 694.105 47.2395C694.943 47.8746 697.231 46.8425 697.231 46.8425" stroke="black" stroke-width="0.75" stroke-miterlimit="10" stroke-linecap="round" stroke-linejoin="round"/>
<path d="M697.155 53.7498C697.155 53.7498 697.155 55.3376 697.765 55.1788C698.375 55.0201 699.213 55.8934 699.29 56.4492C699.366 57.0049 704.17 76.0595 700.815 78.2825C697.993 80.1879 696.392 78.4413 695.935 76.774C695.477 75.1067 693.723 61.451 695.02 57.7195C695.935 55.0995 696.926 55.1788 696.926 55.1788" stroke="black" stroke-width="0.75" stroke-miterlimit="10" stroke-linecap="round" stroke-linejoin="round"/>
<path d="M699.289 56.4491C699.289 56.4491 705.923 67.4055 706.075 76.2182C706.152 79.4733 706.304 80.5849 706.304 80.5849C706.304 80.5849 704.855 83.0461 704.703 81.5376C704.55 80.1085 705.313 79.5527 705.313 79.5527" stroke="black" stroke-width="0.75" stroke-miterlimit="10" stroke-linecap="round" stroke-linejoin="round"/>
<path d="M701.271 56.4491C701.271 56.4491 708.058 56.3697 708.82 57.1637C709.583 57.9576 706.228 77.8855 708.82 80.1879" stroke="black" stroke-width="0.75" stroke-miterlimit="10" stroke-linecap="round" stroke-linejoin="round"/>
<path d="M691.283 86.2219C690.521 85.9837 688.157 86.7777 687.7 88.3655C687.166 89.9534 689.758 105.832 689.529 106.388C689.301 106.944 683.811 105.276 684.116 107.738C684.345 110.199 688.767 108.849 688.767 108.849" stroke="black" stroke-width="0.75" stroke-miterlimit="10" stroke-linecap="round" stroke-linejoin="round"/>
<path d="M696.698 86.2218C695.935 86.46 692.047 90.8266 692.275 92.1763C692.504 93.526 697.155 105.118 697.155 106.467C697.155 107.817 693.038 112.422 693.038 109.405C693.038 106.467 695.097 104.8 695.097 104.8" stroke="black" stroke-width="0.75" stroke-miterlimit="10" stroke-linecap="round" stroke-linejoin="round"/>
<path d="M600.393 46.0485C600.393 46.0485 596.581 51.6061 598.487 55.417C600.393 59.1485 603.824 58.6722 604.663 57.0049C605.502 55.3376 606.569 50.8916 604.816 48.7479C603.138 46.6043 603.138 45.4928 600.393 46.0485Z" stroke="black" stroke-width="0.75" stroke-miterlimit="10" stroke-linecap="round" stroke-linejoin="round"/>
<path d="M600.087 59.8631C599.935 60.7364 591.624 81.22 592.31 85.1897C592.996 89.1594 596.122 88.6037 596.275 88.0479C596.427 87.4921 601.307 85.1897 601.994 75.1067C602.68 65.0237 602.68 61.1334 602.146 60.4188C601.612 59.7043 600.087 59.8631 600.087 59.8631Z" stroke="black" stroke-width="0.75" stroke-miterlimit="10" stroke-linecap="round" stroke-linejoin="round"/>
<path d="M593.531 73.1219C592.692 71.6928 594.369 66.1352 590.099 66.4528C585.829 66.7704 581.102 64.8649 583.923 75.2655C586.668 85.6661 584.609 89.477 590.328 91.3825C596.047 93.3673 605.807 91.9382 605.807 91.9382" stroke="black" stroke-width="0.75" stroke-miterlimit="10" stroke-linecap="round" stroke-linejoin="round"/>
<path d="M592.311 87.4922L588.498 88.7625" stroke="black" stroke-width="0.75" stroke-miterlimit="10" stroke-linecap="round" stroke-linejoin="round"/>
<path d="M594.903 93.4467C595.055 94.0024 595.436 106.864 595.436 106.864C595.436 106.864 584.914 114.01 584.38 115.28C583.846 116.55 585.066 117.424 585.6 116.55" stroke="black" stroke-width="0.75" stroke-miterlimit="10" stroke-linecap="round" stroke-linejoin="round"/>
<path d="M595.056 110.119C595.056 110.675 595.208 114.804 595.437 115.518C595.589 116.233 589.261 114.407 592.006 116.63C594.751 118.853 600.241 117.741 598.182 116.63" stroke="black" stroke-width="0.75" stroke-miterlimit="10" stroke-linecap="round" stroke-linejoin="round"/>
<path d="M597.496 107.976C598.716 108.373 602.834 114.248 604.359 114.248C605.884 114.248 609.544 114.089 607.485 115.121C605.426 116.153 605.426 116.233 605.426 116.233" stroke="black" stroke-width="0.75" stroke-miterlimit="10" stroke-linecap="round" stroke-linejoin="round"/>
<path d="M594.75 88.5243C594.75 88.5243 593.377 89.2388 602.299 89.2388C611.296 89.2388 612.287 89.0801 612.135 91.5413C611.982 94.0819 608.856 111.628 611.067 113.216C613.279 114.804 619.302 115.359 617.091 113.375C614.88 111.39 612.592 112.104 612.592 112.104" stroke="black" stroke-width="0.75" stroke-miterlimit="10" stroke-linecap="round" stroke-linejoin="round"/>
<path d="M597.344 87.3333C597.344 87.3333 612.136 86.6188 613.738 90.0327C614.119 90.8267 616.177 109.405 617.702 110.675C619.227 111.945 622.735 109.087 623.193 111.072C623.726 113.057 621.668 113.057 620.448 112.898" stroke="black" stroke-width="0.75" stroke-miterlimit="10" stroke-linecap="round" stroke-linejoin="round"/>
<path d="M605.044 52.3206C605.044 52.3206 602.452 53.194 601.918 51.2091" stroke="black" stroke-width="0.75" stroke-miterlimit="10" stroke-linecap="round" stroke-linejoin="round"/>
<path d="M614.729 47.4776C614.576 48.0334 617.855 54.4643 621.973 52.3206C624.031 51.2091 624.184 47.6364 621.973 43.7461C619.533 39.3794 615.11 41.4437 614.576 43.3491C614.043 45.334 614.729 47.4776 614.729 47.4776Z" stroke="black" stroke-width="0.75" stroke-miterlimit="10" stroke-linecap="round" stroke-linejoin="round"/>
<path d="M620.904 74.9479C620.904 73.8364 619.684 67.8024 619.379 64.3885C619.074 60.9746 620.752 55.9727 620.752 55.9727C620.904 55.0994 619.532 53.1145 618.312 54.3849C618.312 54.3849 613.661 60.4982 613.279 62.9594C612.898 65.5 612.898 75.1861 614.499 76.7739C616.024 78.3618 619.684 77.1709 619.684 77.1709" stroke="black" stroke-width="0.75" stroke-miterlimit="10" stroke-linecap="round" stroke-linejoin="round"/>
<path d="M620.523 57.0049C620.523 57.0049 621.057 60.9746 623.497 62.4037C625.937 63.8328 635.392 57.0049 636.078 55.7346" stroke="black" stroke-width="0.75" stroke-miterlimit="10" stroke-linecap="round" stroke-linejoin="round"/>
<path d="M636.687 53.9879C636.382 53.9879 635.086 53.5909 635.086 53.5909L635.925 47.7952L640.881 48.5891L639.89 54.3849L636.687 53.9879Z" stroke="black" stroke-width="0.75" stroke-miterlimit="10" stroke-linecap="round" stroke-linejoin="round"/>
<path d="M636.002 55.8934C636.002 55.8934 638.213 53.7498 637.375 53.3528C636.155 52.7971 635.85 54.3849 635.697 55.1789C635.545 55.9728 636.002 55.8934 636.002 55.8934Z" fill="white" stroke="black" stroke-width="0.75" stroke-miterlimit="10" stroke-linecap="round" stroke-linejoin="round"/>
<path d="M621.972 44.937C621.285 44.5401 618.007 46.3661 617.32 47.2394" stroke="black" stroke-width="0.75" stroke-miterlimit="10" stroke-linecap="round" stroke-linejoin="round"/>
<path d="M617.167 58.2751C617.091 58.4339 615.719 63.9121 616.1 68.12C616.481 72.3279 621.514 73.0424 624.106 72.5661C626.699 72.0897 627.538 72.4073 626.851 72.5661" stroke="black" stroke-width="0.75" stroke-miterlimit="10" stroke-linecap="round" stroke-linejoin="round"/>
<path d="M627.461 67.6437C625.631 68.1994 602.375 85.9837 602.375 85.9837C602.375 85.9837 666.501 85.1898 676.566 85.1898C686.631 85.1898 712.251 85.7455 711.489 85.1898C710.726 84.634 689.224 73.9158 686.174 71.4546C683.048 68.9934 679.693 66.6116 679.693 66.6116L627.461 67.6437Z" fill="white" stroke="black" stroke-width="0.75" stroke-miterlimit="10" stroke-linecap="round" stroke-linejoin="round"/>
<path d="M627.995 75.9801C626.928 76.2183 623.115 79.7116 623.115 79.7116L630.588 80.8231L634.477 76.5359L627.995 75.9801Z" stroke="black" stroke-width="0.75" stroke-miterlimit="10" stroke-linecap="round" stroke-linejoin="round"/>
<path d="M642.482 75.98C642.482 77.3297 642.482 79.7116 642.482 79.7116C642.482 79.7116 650.489 79.9497 649.726 79.1558C648.964 78.3619 649.192 74.8685 648.43 74.8685C647.591 74.9479 642.482 75.98 642.482 75.98Z" stroke="black" stroke-width="0.75" stroke-miterlimit="10" stroke-linecap="round" stroke-linejoin="round"/>
<path d="M660.325 69.5492C659.791 70.3431 657.732 73.2807 657.732 73.2807L664.747 74.0746C664.747 74.0746 668.636 70.0255 667.34 69.4698C665.967 68.9934 660.325 69.5492 660.325 69.5492Z" stroke="black" stroke-width="0.75" stroke-miterlimit="10" stroke-linecap="round" stroke-linejoin="round"/>
<path d="M671.915 75.7419C671.915 75.7419 668.026 78.9971 668.789 79.2353C669.551 79.4735 673.211 81.9347 673.211 81.9347L678.93 78.2032L671.915 75.7419Z" stroke="black" stroke-width="0.75" stroke-miterlimit="10" stroke-linecap="round" stroke-linejoin="round"/>
<path d="M633.943 70.1049C633.714 70.8989 632.646 73.3601 632.646 73.3601C632.646 73.3601 637.526 75.8213 637.526 74.7098C637.526 73.5983 640.881 70.4225 639.89 69.8668C638.823 69.311 633.943 70.1049 633.943 70.1049Z" stroke="black" stroke-width="0.75" stroke-miterlimit="10" stroke-linecap="round" stroke-linejoin="round"/>
<path d="M645.532 69.311C644.999 70.105 646.066 72.0104 646.066 72.0104L652.242 71.7723C652.242 71.7723 654.606 69.311 653.539 69.311C652.547 69.311 645.532 69.311 645.532 69.311Z" stroke="black" stroke-width="0.75" stroke-miterlimit="10" stroke-linecap="round" stroke-linejoin="round"/>
<path d="M656.895 78.1237L660.783 82.9667L665.739 81.3788L663.147 76.2976L656.895 78.1237Z" stroke="black" stroke-width="0.75" stroke-miterlimit="10" stroke-linecap="round" stroke-linejoin="round"/>
<path d="M699.289 86.7776L701.043 115.121C701.043 115.121 703.102 115.28 702.949 114.566C702.797 113.851 702.568 85.5073 702.568 85.5073" stroke="black" stroke-width="0.75" stroke-miterlimit="10" stroke-linecap="round" stroke-linejoin="round"/>
<path d="M676.947 86.3807L677.481 106.309C677.481 106.309 680.76 106.467 680.607 105.912C680.455 105.356 679.769 85.428 679.769 85.428" stroke="black" stroke-width="0.75" stroke-miterlimit="10" stroke-linecap="round" stroke-linejoin="round"/>
<path d="M630.207 86.7777C630.283 87.8892 631.122 104.721 631.122 104.721C631.122 104.721 634.02 103.689 633.867 103.847C633.715 104.006 633.638 86.2219 633.638 86.2219" stroke="black" stroke-width="0.75" stroke-miterlimit="10" stroke-linecap="round" stroke-linejoin="round"/>
<path d="M623.191 85.5867C624.259 85.5867 625.403 86.46 626.165 88.6036C626.928 90.7473 623.344 100.433 623.344 102.339C623.344 104.244 630.588 102.895 628.529 105.038C626.47 107.182 624.64 105.276 624.64 105.276" stroke="black" stroke-width="0.75" stroke-miterlimit="10" stroke-linecap="round" stroke-linejoin="round"/>
<path d="M694.79 58.7515C694.79 58.9896 694.561 67.723 690.367 70.6605C686.173 73.5981 682.285 72.566 682.285 72.566C682.285 72.566 680.378 73.0424 681.446 73.8363C682.513 74.6302 683.2 74.0745 683.2 74.0745" stroke="black" stroke-width="0.75" stroke-miterlimit="10" stroke-linecap="round" stroke-linejoin="round"/>
<path d="M599.325 66.4526C599.325 66.4526 598.715 78.3617 606.721 80.029C610.991 80.9023 614.88 81.2993 616.863 81.4581C617.854 81.5375 618.845 81.1405 619.379 80.2672C619.684 79.7908 619.684 79.4732 618.769 79.7908C616.71 80.5054 617.168 80.1084 617.168 80.1084" stroke="black" stroke-width="0.75" stroke-miterlimit="10" stroke-linecap="round" stroke-linejoin="round"/>
<path d="M602.604 66.2939C602.756 66.8497 605.501 76.6152 609.161 77.3297C613.584 78.203 617.472 77.6473 617.472 77.6473" stroke="black" stroke-width="0.75" stroke-miterlimit="10" stroke-linecap="round" stroke-linejoin="round"/>
</g>
<defs>
<clipPath id="clip0">
<path d="M0 0H1098V131H0V0Z" fill="white"/>
</clipPath>
</defs>
</svg>

