<svg width="120" height="49" viewBox="0 0 120 49" fill="none"
    xmlns="http://www.w3.org/2000/svg">
    <g clip-path="url(#clip0_530_26)">
        <path fill-rule="evenodd" clip-rule="evenodd" d="M113.297 21.383H86.4883V37.6596H119.041V16.2766H113.297V21.383ZM113.297 25.8511H92.233V31.9149H113.297V25.8511ZM86.4883 10.5319V16.2766H113.297V10.5319H86.4883Z" fill="#20588F"/>
        <path d="M75.3178 0H81.0625V37.6596H75.3178V0Z" fill="#20588F"/>
        <path fill-rule="evenodd" clip-rule="evenodd" d="M64.1495 31.9149V16.2766H43.4048V31.9149H64.1495ZM69.8942 37.6596V0H64.1495V10.5319H37.6602V37.6596H69.8942Z" fill="#20588F"/>
        <path fill-rule="evenodd" clip-rule="evenodd" d="M5.74468 16.2766V37.6596H0V10.5319H32.234V37.6596H26.4894V16.2766H5.74468Z" fill="#20588F"/>
        <path fill-rule="evenodd" clip-rule="evenodd" d="M0.253906 48.1915V42.9957L3.42625 46.0532C3.61748 46.2458 3.79858 46.4482 3.9688 46.6596V43.1936H4.7188V48.3862L1.48263 45.2776C1.30614 45.1046 1.14491 44.9167 1.00071 44.7159V48.1915H0.253906ZM6.92412 46.2287H8.31242L7.80178 45.0893C7.72637 44.9044 7.66346 44.7146 7.61348 44.5213C7.56629 44.7143 7.50659 44.9041 7.43476 45.0893L6.92412 46.2287ZM9.16774 48.1915L8.59965 46.9053H6.62093L6.04008 48.1915H5.18795L7.6071 42.9957L10.0231 48.1915H9.16774ZM10.2082 47.1925L10.856 46.8925C10.9199 47.1159 11.0316 47.2851 11.1943 47.4032C11.38 47.5268 11.6002 47.5883 11.8231 47.5787C12.0624 47.5787 12.2539 47.5085 12.3975 47.3745C12.5379 47.2404 12.6114 47.0617 12.6114 46.8351C12.6114 46.5447 12.3656 46.283 11.8773 46.0532L11.7241 45.9766C11.172 45.7085 10.805 45.4659 10.6231 45.2489C10.4375 45.0252 10.3399 44.7415 10.3486 44.451C10.3418 44.2659 10.3754 44.0815 10.4471 43.9107C10.5187 43.7398 10.6267 43.5866 10.7635 43.4617C11.0379 43.2064 11.4018 43.0819 11.8486 43.0819C12.2188 43.0819 12.5252 43.1521 12.7741 43.2957C13.016 43.4294 13.2 43.6476 13.2911 43.9085L12.6528 44.2372C12.5571 44.0776 12.4454 43.9627 12.3241 43.8925C12.206 43.8191 12.0688 43.7808 11.9156 43.7808C11.6954 43.7808 11.5231 43.8383 11.3922 43.9532C11.2645 44.0681 11.2007 44.2181 11.2007 44.4096C11.2007 44.7096 11.4816 44.9904 12.0465 45.2489L12.1486 45.2968C12.5301 45.4484 12.8766 45.6765 13.1667 45.967C13.3518 46.1808 13.4443 46.4521 13.4443 46.7776C13.4548 46.9869 13.4204 47.1961 13.3433 47.3909C13.2662 47.5858 13.1483 47.7619 12.9975 47.9074C12.6638 48.1981 12.2298 48.3469 11.7879 48.3223C11.3635 48.3223 11.0124 48.2266 10.7411 48.0319C10.4648 47.8286 10.2747 47.5291 10.2082 47.1925ZM14.2901 47.2851C14.3731 47.3808 14.456 47.4574 14.5326 47.5021C14.6092 47.5468 14.6922 47.5691 14.7784 47.5691C14.9379 47.5691 15.0497 47.5181 15.1135 47.4127C15.1773 47.3074 15.2092 47.1127 15.2092 46.8287V43.1936H16.0167V47.0936C16.0167 47.5149 15.9209 47.8276 15.7358 48.0255C15.5507 48.2266 15.2571 48.3255 14.8614 48.3255C14.6516 48.3291 14.4438 48.284 14.2544 48.1938C14.065 48.1035 13.8992 47.9705 13.7699 47.8053L14.2901 47.2851ZM21.3592 45.7021C21.3614 45.207 21.1702 44.7306 20.8262 44.3744C20.6598 44.2008 20.4595 44.063 20.2377 43.9697C20.016 43.8764 19.7775 43.8295 19.5369 43.8319C19.296 43.8307 19.0574 43.8782 18.8353 43.9714C18.6132 44.0646 18.4122 44.2017 18.2443 44.3744C18.0728 44.5478 17.9382 44.7541 17.8486 44.9808C17.7127 45.3235 17.6777 45.698 17.7478 46.06C17.818 46.4219 17.9902 46.7562 18.2443 47.0234C18.4116 47.1968 18.6122 47.3348 18.834 47.429C19.0558 47.5233 19.2943 47.5718 19.5353 47.5718C19.7763 47.5718 20.0148 47.5233 20.2366 47.429C20.4584 47.3348 20.6589 47.1968 20.8262 47.0234C21.171 46.6703 21.3625 46.1955 21.3592 45.7021ZM22.2082 45.7021C22.2093 46.0479 22.1407 46.3904 22.0063 46.709C21.8719 47.0276 21.6747 47.3158 21.4262 47.5564C20.9189 48.0459 20.2419 48.3204 19.5369 48.3223C19.013 48.3231 18.5002 48.1714 18.061 47.8858C17.6219 47.6002 17.2753 47.193 17.0635 46.7138C16.9302 46.3933 16.8629 46.0492 16.8656 45.7021C16.864 45.179 17.0203 44.6676 17.3142 44.2348C17.608 43.8021 18.0256 43.4681 18.5124 43.2766C18.8385 43.1476 19.1863 43.0826 19.5369 43.0851C20.2415 43.083 20.9192 43.3555 21.4262 43.8447C21.6724 44.0875 21.8683 44.3767 22.0024 44.6954C22.1366 45.0142 22.2065 45.3563 22.2082 45.7021ZM23.1401 48.1915V42.9957L26.3124 46.0532C26.5036 46.2458 26.6847 46.4482 26.855 46.6596V43.1936H27.605V48.3862L24.3688 45.2776C24.1923 45.1046 24.0311 44.9167 23.8869 44.7159V48.1915H23.1369H23.1401ZM29.8103 46.2287H31.1986L30.6879 45.0893C30.6125 44.9044 30.5496 44.7146 30.4996 44.5213C30.4514 44.7144 30.3907 44.9041 30.3177 45.0893L29.8071 46.2287H29.8103ZM32.0539 48.1915L31.4858 46.9053H29.5071L28.9262 48.1915H28.0741L30.4933 42.9957L32.9092 48.1915H32.0539ZM33.3816 48.1915V43.1936H34.1922V47.4638H36.0113V48.1915H33.3816ZM39.589 47.4574H40.272C40.6454 47.4574 40.9294 47.4319 41.1145 47.384C41.306 47.333 41.4656 47.25 41.606 47.1287C41.7951 46.967 41.941 46.7608 42.0305 46.5287C42.1262 46.2862 42.1709 46.0085 42.1709 45.6893C42.1709 45.3702 42.1262 45.0925 42.0305 44.8532C41.9419 44.6188 41.796 44.4103 41.606 44.2468C41.458 44.1264 41.2844 44.0412 41.0986 43.9979C40.9007 43.9468 40.5943 43.9213 40.1731 43.9213H39.589V47.4574ZM38.7752 48.1915V43.1936H39.8731C40.5848 43.1936 41.0858 43.2319 41.3731 43.3021C41.6896 43.3758 41.9838 43.5244 42.2309 43.7355C42.4781 43.9465 42.6709 44.2138 42.7933 44.5149C42.9475 44.8891 43.0235 45.291 43.0167 45.6957C43.0167 46.1425 42.9433 46.5319 42.7933 46.8766C42.6514 47.2109 42.4261 47.5032 42.139 47.7255C41.9188 47.8915 41.6699 48.0127 41.3922 48.083C41.1145 48.1564 40.6805 48.1915 40.0901 48.1915H38.7752ZM43.9645 48.1915V43.1936H44.7752V48.1915H43.9645ZM48.7103 45.6319H50.689L50.6922 45.7755C50.7018 45.9351 50.705 46.0468 50.705 46.1042C50.705 46.8064 50.5039 47.3489 50.0986 47.7415C49.6965 48.1308 49.1284 48.3255 48.3975 48.3255C48.0246 48.3313 47.6538 48.2697 47.3028 48.1436C46.9805 48.0223 46.6997 47.8404 46.4571 47.5979C46.2201 47.355 46.0354 47.066 45.9145 46.7489C45.7858 46.415 45.7208 46.06 45.7231 45.7021C45.7231 45.3255 45.7869 44.9776 45.9145 44.6585C46.0454 44.3393 46.2337 44.0585 46.489 43.8159C46.7332 43.5767 47.0245 43.3908 47.3443 43.2702C47.6808 43.1431 48.0379 43.0793 48.3975 43.0819C48.7901 43.0819 49.1411 43.1553 49.4507 43.2989C49.7748 43.4519 50.0597 43.6767 50.2837 43.9564L49.6901 44.4032C49.5343 44.217 49.3392 44.0677 49.1188 43.9659C48.9082 43.8702 48.672 43.8223 48.4103 43.8223C47.8677 43.8223 47.4273 43.9979 47.0858 44.3425C46.9134 44.5218 46.7789 44.7341 46.6906 44.9666C46.6023 45.1992 46.562 45.4472 46.572 45.6957C46.572 46.2606 46.7411 46.717 47.0826 47.0681C47.2559 47.2443 47.4641 47.3824 47.6938 47.4736C47.9235 47.5648 48.1697 47.6071 48.4167 47.5979C48.8083 47.6195 49.1952 47.5045 49.5114 47.2723C49.6428 47.1667 49.7477 47.0317 49.8175 46.8781C49.8874 46.7246 49.9202 46.5568 49.9135 46.3883V46.3181H48.7103V45.6319ZM51.5699 48.1915V43.1936H52.3837V48.1915H51.5699ZM55.1635 43.883V48.1915H54.3528V43.883H53.0252V43.1936H56.4848V43.883H55.1635ZM58.1635 46.2287H59.5518L59.0411 45.0893C58.9657 44.9044 58.9028 44.7146 58.8528 44.5213C58.8057 44.7143 58.746 44.9041 58.6741 45.0893L58.1635 46.2287ZM60.4071 48.1915L59.839 46.9053H57.8603L57.2794 48.1915H56.4273L58.8465 42.9957L61.2624 48.1915H60.4071ZM61.7348 48.1915V43.1936H62.5454V47.4638H64.3645V48.1915H61.7348ZM67.1284 48.1915V43.1936H67.9422V47.4638H69.7582V48.1915H67.1284ZM71.4688 46.2287H72.9114L72.4901 45.0893C72.3902 44.8187 72.3091 44.5414 72.2475 44.2596C72.1948 44.5221 72.1101 44.7772 71.9954 45.0191L71.472 46.2319L71.4688 46.2287ZM74.3794 43.1968L74.6667 43.883H72.8348L73.2752 45.1085H74.9507L75.2188 45.8234H73.5465L74.156 47.4638H75.9911L76.2656 48.1915H73.6294L73.1571 46.9053H71.1688L70.5943 48.1915H69.739L72.0752 43.1936H74.3826L74.3794 43.1968ZM77.5965 45.3255H77.7433C78.1741 45.3255 78.4582 45.2745 78.5986 45.1755C78.7422 45.0734 78.8124 44.8979 78.8124 44.6425C78.8124 44.3681 78.7358 44.1734 78.5858 44.0617C78.4326 43.9468 78.1518 43.8925 77.7433 43.8925H77.5965V45.3255ZM77.5454 45.9574V48.1915H76.7858V43.1936H77.9188C78.2507 43.1936 78.506 43.2159 78.6911 43.2574C78.8613 43.2952 79.0213 43.3692 79.1603 43.4745C79.3135 43.5957 79.4348 43.7521 79.5177 43.9436C79.6007 44.1351 79.6454 44.3425 79.6454 44.5691C79.6655 44.9077 79.5623 45.2422 79.355 45.5106C79.1321 45.7523 78.8246 45.8986 78.4965 45.9191L80.2199 48.1915H79.3007L77.6379 45.9574H77.5454ZM80.7113 48.1915V43.1936H81.5252V48.1915H80.7113ZM82.6901 48.1915V42.9957L85.8656 46.0532C86.0568 46.2458 86.2379 46.4482 86.4082 46.6596V43.1936H87.1582V48.3862L83.9188 45.2776C83.7434 45.1045 83.5833 44.9166 83.4401 44.7159V48.1915H82.6933H82.6901ZM91.0741 45.6319H93.0528L93.056 45.7755L93.0656 46.1042C93.0656 46.8064 92.8645 47.3489 92.4624 47.7415C92.0603 48.1308 91.4922 48.3255 90.7582 48.3255C90.3853 48.3313 90.0144 48.2697 89.6635 48.1436C89.3443 48.0223 89.0635 47.8404 88.8209 47.5979C88.5839 47.355 88.3992 47.066 88.2784 46.7489C88.1496 46.415 88.0847 46.06 88.0869 45.7021C88.0869 45.3255 88.1507 44.9776 88.2784 44.6585C88.406 44.3393 88.5975 44.0585 88.8528 43.8159C89.097 43.5767 89.3883 43.3908 89.7082 43.2702C90.0446 43.1431 90.4017 43.0793 90.7614 43.0819C91.1539 43.0819 91.505 43.1553 91.8145 43.2989C92.1374 43.4523 92.4212 43.6771 92.6443 43.9564L92.0539 44.4032C91.8981 44.217 91.703 44.0677 91.4826 43.9659C91.272 43.8702 91.0358 43.8223 90.7741 43.8223C90.2316 43.8223 89.7911 43.9979 89.4465 44.3425C89.2746 44.5221 89.1407 44.7345 89.053 44.967C88.9652 45.1995 88.9254 45.4474 88.9358 45.6957C88.9358 46.2606 89.105 46.717 89.4465 47.0681C89.6198 47.2443 89.8279 47.3824 90.0576 47.4736C90.2873 47.5648 90.5335 47.6071 90.7805 47.5979C91.1721 47.6195 91.5591 47.5045 91.8752 47.2723C92.0061 47.1663 92.1103 47.0312 92.1796 46.8777C92.2489 46.7242 92.2813 46.5566 92.2741 46.3883V46.3181H91.0741V45.6319ZM93.6337 47.1925L94.2816 46.8925C94.3454 47.1159 94.4571 47.2851 94.6199 47.4032C94.8056 47.5268 95.0257 47.5883 95.2486 47.5787C95.488 47.5787 95.6794 47.5085 95.8231 47.3745C95.9635 47.2404 96.0369 47.0617 96.0369 46.8351C96.0369 46.5447 95.7911 46.283 95.3028 46.0532L95.1497 45.9766C94.5975 45.7085 94.2305 45.4659 94.0486 45.2489C93.863 45.0252 93.7654 44.7415 93.7741 44.451C93.7673 44.2659 93.8009 44.0815 93.8726 43.9107C93.9442 43.7398 94.0522 43.5866 94.189 43.4617C94.4635 43.2064 94.8273 43.0819 95.2741 43.0819C95.6443 43.0819 95.9507 43.1521 96.1997 43.2957C96.4403 43.43 96.6232 43.6481 96.7135 43.9085L96.0816 44.2372C95.9794 44.0776 95.8709 43.9627 95.7496 43.8925C95.6316 43.8191 95.4943 43.7808 95.338 43.7808C95.1209 43.7808 94.9486 43.8383 94.8177 43.9532C94.6901 44.0681 94.6262 44.2181 94.6262 44.4096C94.6262 44.7096 94.9071 44.9904 95.472 45.2489L95.5741 45.2968C95.9556 45.4484 96.3021 45.6765 96.5922 45.967C96.7773 46.1808 96.8699 46.4521 96.8699 46.7776C96.8803 46.9869 96.8459 47.1961 96.7688 47.3909C96.6917 47.5858 96.5739 47.7619 96.4231 47.9074C96.0885 48.1989 95.6532 48.3478 95.2103 48.3223C94.789 48.3223 94.4379 48.2266 94.1667 48.0319C93.8903 47.8286 93.7002 47.5291 93.6337 47.1925ZM98.8103 46.2287H100.202L99.6911 45.0893C99.6157 44.9044 99.5528 44.7146 99.5028 44.5213C99.4546 44.7144 99.3938 44.9041 99.3209 45.0893L98.8103 46.2287ZM101.057 48.1915L100.489 46.9053H98.5103L97.9294 48.1915H97.0773L99.4965 42.9957L101.912 48.1915H101.057ZM103.195 45.3255H103.342C103.773 45.3255 104.057 45.2745 104.198 45.1755C104.341 45.0734 104.411 44.8979 104.411 44.6425C104.411 44.3681 104.335 44.1734 104.185 44.0617C104.032 43.9468 103.751 43.8925 103.342 43.8925H103.195V45.3255ZM103.144 45.9574V48.1915H102.385V43.1936H103.518C103.85 43.1936 104.105 43.2159 104.29 43.2574C104.46 43.2952 104.62 43.3692 104.759 43.4745C104.912 43.5957 105.034 43.7521 105.117 43.9436C105.203 44.1351 105.244 44.3425 105.244 44.5691C105.264 44.9077 105.161 45.2422 104.954 45.5106C104.731 45.7523 104.423 45.8986 104.095 45.9191L105.819 48.1915H104.9L103.237 45.9574H103.144ZM106.298 48.1915V43.1936H109.087V43.883H107.108V45.1372H109.087V45.8489H107.108V47.4638H109.087V48.1915H106.298ZM110.019 48.1915V42.9957L113.191 46.0532C113.382 46.2458 113.563 46.4482 113.734 46.6596V43.1936H114.484V48.3862L111.248 45.2776C111.071 45.1046 110.91 44.9167 110.766 44.7159V48.1915H110.019ZM116.689 46.2287H118.077L117.567 45.0893C117.491 44.9044 117.428 44.7146 117.378 44.5213C117.331 44.7143 117.271 44.9041 117.2 45.0893L116.689 46.2287ZM118.933 48.1915L118.365 46.9053H116.386L115.805 48.1915H114.953L117.372 42.9957L119.788 48.1915H118.933Z" fill="#20588F"/>
    </g>
    <defs>
        <clipPath id="clip0_530_26">
            <rect width="120" height="48.5106" fill="white"/>
        </clipPath>
    </defs>
</svg>
