<svg xmlns="http://www.w3.org/2000/svg" xml:space="preserve" data-license="CC-BY 4.0" data-source="Creative Commons" viewBox="0 0 64 64">
  <circle cx="32.1" cy="31.8" r="29" fill="none"/>
  <path d="M32 0a31 31 0 0 1 22.7 9.3C60.9 15.5 64 23 64 32s-3 16.5-9.1 22.5a31.9 31.9 0 0 1-23 9.5 31 31 0 0 1-22.5-9.4A30.8 30.8 0 0 1 0 32c0-8.7 3.1-16.3 9.4-22.7A30.7 30.7 0 0 1 32 0zm0 5.8c-7.2 0-13.4 2.5-18.4 7.7a25.6 25.6 0 0 0 0 36.9A25.3 25.3 0 0 0 32 58.2c7 0 13.3-2.6 18.6-7.9 5-4.8 7.5-11 7.5-18.3a25 25 0 0 0-7.6-18.5A25 25 0 0 0 32 5.8zm12.1 18.7v5.4H21v-5.4h23zm0 10.2v5.5H21v-5.5h23z"/>
</svg>
