<svg xmlns="http://www.w3.org/2000/svg" viewBox="0 0 24 24" data-license="CC-BY 4.0" data-source="Knowit"><path d="M5.48 7.162a.75.75 0 0 0 0 1.5h13.04a.75.75 0 0 0 0-1.5H5.48Zm0 3.085a.75.75 0 0 0 0 1.5h13.04a.75.75 0 0 0 0-1.5H5.48Zm0 2.931a.75.75 0 0 0 0 1.5h13.04a.75.75 0 0 0 0-1.5H5.48Z"/><path fill-rule="evenodd" clip-rule="evenodd" d="M9.35 19 12 23l2.65-4H20c.55 0 1.02-.196 1.413-.587A1.93 1.93 0 0 0 22 17V5c0-.55-.196-1.02-.587-1.413A1.926 1.926 0 0 0 20 3H4c-.55 0-1.02.196-1.413.587A1.926 1.926 0 0 0 2 5v12c0 .55.196 1.02.587 1.413.393.39.863.587 1.413.587h5.35ZM20 17H4V5h16v12Z"/></svg>