<svg
  xmlns="http://www.w3.org/2000/svg"
  width="23"
  height="29"
  viewBox="0 0 23 29"
  data-license="CC-BY 4.0"
  data-source="Knowit">
  <g fill="none" fill-rule="evenodd" stroke="#343434" stroke-width="1.5" transform="translate(.667 1)">
    <rect width="20.5" height="18.5" x=".75" y="3.75"/>
    <path fill="#FFF" d="M7,24.0797705 L7,21.9197861 L7,18.6668495 C7,18.0723138 7.38175061,17.8298555 7.84768212,18.1268534 L10.4014958,19.7533217 C10.8674273,20.0503195 11.6304391,20.536316 12.09686,20.8333139 L14.6501843,22.4597822 C15.1166052,22.7567801 15.1166052,23.2427766 14.6501843,23.5397744 L12.09686,25.1662427 C11.6304391,25.4637806 10.8674273,25.9492371 10.4014958,26.246235 L7.84768212,27.8732432 C7.38175061,28.1702411 7,27.9272429 7,27.3332471 L7,24.0797705 Z" transform="rotate(90 11 23)"/>
    <path fill="#FFF" d="M7,5.07977054 L7,2.91978608 L7,-0.333150519 C7,-0.927686242 7.38175061,-1.1701445 7.84768212,-0.873146634 L10.4014958,0.753321664 C10.8674273,1.05031953 11.6304391,1.53631603 12.09686,1.83331389 L14.6501843,3.45978219 C15.1166052,3.75678006 15.1166052,4.24277656 14.6501843,4.53977442 L12.09686,6.16624272 C11.6304391,6.46378058 10.8674273,6.94923709 10.4014958,7.24623495 L7.84768212,8.87324325 C7.38175061,9.17024111 7,8.92724286 7,8.33324713 L7,5.07977054 Z" transform="rotate(-90 11 4)"/>
  </g>
</svg>
