<svg
  xmlns="http://www.w3.org/2000/svg"
  width="23"
  height="24"
  viewBox="0 0 23 24"
  data-license="CC-BY 4.0"
  data-source="Knowit">
  <g fill="none" fill-rule="evenodd" transform="translate(.778)">
    <rect width="20.5" height="18.5" x=".75" y=".75" stroke="#343434" stroke-width="1.5"/>
    <circle cx="11" cy="18" r="5" fill="#FFF" stroke="#343434" stroke-width="1.5"/>
    <polygon fill="#343434" fill-rule="nonzero" points="4 5.5 18 5.5 18 4 4 4"/>
    <polygon fill="#343434" fill-rule="nonzero" points="4 9.5 18 9.5 18 8 4 8"/>
    <path fill="#343434" d="M9,19.0398853 L9,17.959893 L9,16.3334247 C9,16.0361569 9.1908753,15.9149278 9.42384106,16.0634267 L10.7007479,16.8766608 C10.9337137,17.0251598 11.3152196,17.268158 11.54843,17.4166569 L12.8250921,18.2298911 C13.0583026,18.37839 13.0583026,18.6213883 12.8250921,18.7698872 L11.54843,19.5831214 C11.3152196,19.7318903 10.9337137,19.9746185 10.7007479,20.1231175 L9.42384106,20.9366216 C9.1908753,21.0851206 9,20.9636214 9,20.6666236 L9,19.0398853 Z" transform="rotate(90 11 18.5)"/>
  </g>
</svg>
