<svg 
width="20" 
height="20" 
data-license="CC-BY 4.0"
data-source="Bouvet"
viewBox="0 0 20 20"
>
  <path  d="M12.438 19.75c-.434 0-.813-.163-1.138-.488-.325-.325-.488-.704-.488-1.137V1.875c0-.433.163-.813.488-1.137.325-.326.704-.488 1.137-.488h5.688c.433 0 .813.162 1.137.488.325.325.488.704.488 1.137v16.25c0 .433-.163.813-.488 1.137-.325.325-.704.488-1.137.488h-5.688Zm0-17.875v16.25h5.687V1.875h-5.688ZM1.874 19.75c-.433 0-.813-.163-1.137-.488-.326-.325-.488-.704-.488-1.137V1.875c0-.433.162-.813.488-1.137C1.063.412 1.442.25 1.875.25h5.688c.433 0 .812.162 1.137.488.325.325.488.704.488 1.137v16.25c0 .433-.163.813-.488 1.137-.325.325-.704.488-1.137.488H1.875Zm0-17.875v16.25h5.688V1.875H1.875Z"/>
</svg>
