<svg xmlns="http://www.w3.org/2000/svg"
  width="24"
  height="10"
  viewBox="0 0 24 10"
  data-license="CC-BY 4.0"
  data-source="Knowit">
  <path fill="#343434" fill-rule="evenodd" d="M0,0 L1.6218845,0 L1.6218845,3.94894895 L5.32705167,3.94894895 L5.32705167,0 L6.94893617,0 L6.94893617,9.81981982 L5.32705167,9.81981982 L5.32705167,5.46546547 L1.6218845,5.46546547 L1.6218845,9.81981982 L0,9.81981982 L0,0 Z M9.18601824,7.56756757 C9.45633367,7.83783919 9.75926884,8.07557455 10.0948328,8.28078078 C10.4303968,8.48598701 10.8218823,8.58858859 11.2693009,8.58858859 C11.7726469,8.58858859 12.1851048,8.42843003 12.5066869,8.10810811 C12.8282691,7.78778619 12.9890578,7.33734024 12.9890578,6.75675676 C12.9890578,6.18618333 12.8399204,5.7457473 12.5416413,5.43543544 C12.2433622,5.12512357 11.8472162,4.96996997 11.3531915,4.96996997 C11.0642336,4.96996997 10.8218855,5.01251209 10.6261398,5.0975976 C10.4303942,5.18268311 10.1973671,5.32031937 9.92705167,5.51051051 L9.15805471,4.98498498 L9.42370821,0.27027027 L14.1775076,0.27027027 L14.1775076,1.72672673 L10.8218845,1.72672673 L10.6401216,4.03903904 C10.826546,3.93893844 11.0106374,3.86136164 11.1924012,3.80630631 C11.374165,3.75125098 11.5815591,3.72372372 11.8145897,3.72372372 C12.1967598,3.72372372 12.5579517,3.78378318 12.8981763,3.9039039 C13.2384009,4.02402462 13.5343452,4.20670548 13.7860182,4.45195195 C14.0376912,4.69719842 14.2380945,5.00750563 14.387234,5.38288288 C14.5363736,5.75826014 14.6109422,6.20119865 14.6109422,6.71171171 C14.6109422,7.23223483 14.5247222,7.69769565 14.3522796,8.10810811 C14.179837,8.51852057 13.9491402,8.86386246 13.6601824,9.14414414 C13.3712245,9.42442583 13.0379958,9.63713641 12.6604863,9.78228228 C12.2829768,9.92742815 11.8891611,10 11.4790274,10 C10.7612933,10 10.1577532,9.86736869 9.66838906,9.6021021 C9.17902491,9.33683551 8.77122757,9.02903078 8.4449848,8.67867868 L9.18601824,7.56756757 Z M16.4425532,0 L19.518541,0 C20.021887,0 20.4856108,0.0500495495 20.9097264,0.15015015 C21.333842,0.250250751 21.6996945,0.420419219 22.0072948,0.660660661 C22.3148952,0.900902102 22.5572433,1.21371179 22.7343465,1.5990991 C22.9114497,1.98448641 23,2.46245961 23,3.03303303 C23,3.57357628 22.9114497,4.04404204 22.7343465,4.44444444 C22.5572433,4.84484685 22.3125649,5.17767635 22.000304,5.44294294 C21.688043,5.70820953 21.3198603,5.90340278 20.8957447,6.02852853 C20.4716291,6.15365428 20.0125658,6.21621622 19.518541,6.21621622 L18.0644377,6.21621622 L18.0644377,9.81981982 L16.4425532,9.81981982 L16.4425532,0 Z M19.3927052,4.81981982 C20.7349611,4.81981982 21.406079,4.22423018 21.406079,3.03303303 C21.406079,2.41240931 21.2382996,1.98448566 20.9027356,1.74924925 C20.5671716,1.51401284 20.0638331,1.3963964 19.3927052,1.3963964 L18.0644377,1.3963964 L18.0644377,4.81981982 L19.3927052,4.81981982 Z" transform="translate(.222)"/>
</svg>
