<svg xmlns="http://www.w3.org/2000/svg" viewBox="0 0 20 20" data-license="Apache License 2.0" data-source="Material Design"><path d="M19.263 6.325c-.49-.471-1.233-.707-2.219-.707H13.72v1.874H9.731l-.326 1.342a5.8 5.8 0 0 1 .924-.32c.266-.067.532-.055.792-.055.883 0 1.602.272 2.152.804s.822 1.209.822 2.018c0 .569-.14 1.119-.423 1.644a2.9 2.9 0 0 1-1.203 1.21 3.121 3.121 0 0 1-.617.247h3.379V11.18h1.511c1.1 0 1.916-.254 2.454-.756.538-.501.804-1.203.804-2.091 0-.864-.248-1.535-.737-2.007ZM17.026 9.1c-.211.18-.58.266-1.106.266h-.689V7.43h.798c.508 0 .858.091 1.04.284a.948.948 0 0 1 .278.696.863.863 0 0 1-.32.689Z"/><path d="M10.245 10.049c-.478 0-.889.277-1.088.676l-2.388-.338 1.076-4.769H5.681v3.748H2.66V5.618H0v8.764h2.66V11.18h3.02v3.203h3.276c-.405-.12-.755-.278-1.04-.49a2.933 2.933 0 0 1-.706-.743 3.638 3.638 0 0 1-.442-.997l2.394-.345c.2.4.61.671 1.082.671a1.215 1.215 0 0 0 0-2.43Z"/></svg>