<svg xmlns="http://www.w3.org/2000/svg" data-license="CC-BY 4.0" data-source="Knowit" viewBox="0 0 82 37">
  <path d="M36.5 19.6a1 1 0 0 1-.5.4l-7.1-1 4.2-19H21.8v14.7h-8.9V0H0v37h13V24.4h8.8V37h14.5l1.1-1.9-1.2-.4a11 11 0 0 1-7.3-6.8l7.1-1h.1a5.7 5.7 0 0 0 1.1 1.1 6.2 6.2 0 0 0 4.4 1.3 5.6 5.6 0 0 0 3.8-2.1 6.1 6.1 0 0 0-.7-8.5 5.9 5.9 0 0 0-8.2.9Zm7.4 6.5a3.8 3.8 0 0 1-2.5 1.3 4.3 4.3 0 0 1-2.9-.8l-.8-.8-.5-.6-.4-.4-10.4 1.5.3 1.1a12.3 12.3 0 0 0 5.4 7.6h-8.4V22.4H11V35H2V2h8.9v14.7h12.9V2h6.8l-4.1 18.7 10.2 1.5.5-.5a5.9 5.9 0 0 0 .8-.8 3.9 3.9 0 1 1 5.9 5.2Zm23-18c-1.2-.2-2.5-.2-3.7-.3h-2.7v9.9h2.7a21.9 21.9 0 0 0 3.6-.3 4.2 4.2 0 0 0 3.5-4.4c0-2.8-1.2-4.5-3.4-4.9Zm-.4 7.1c-1.1.2-2.2.2-3.4.3h-.6V9.8h.6a18.7 18.7 0 0 1 3.4.3c.4.1 1.8.3 1.7 2.6a2.1 2.1 0 0 1-1.7 2.5Z"/>
  <path d="M81.5 8A9.7 9.7 0 0 0 74 .7a16.4 16.4 0 0 0-4.2-.6H54.1v7H38.6l-1.7 7.2 1 .2h1l.7-.2a16.3 16.3 0 0 1 6.4-.9 10 10 0 0 1 10 9.7c0 4.3-2.7 9.7-7.2 10.8l-.9.4h-.2l-.7.7.3 1.9h15.1V24.2h5a38 38 0 0 0 5.8-.6 10.4 10.4 0 0 0 8-7.1 14.5 14.5 0 0 0 .3-8.5Zm-2.1 7.8a8.5 8.5 0 0 1-6.6 5.8 34.3 34.3 0 0 1-5.5.6h-.8a19.3 19.3 0 0 1-3.4 0h-2.7V35h-8.7c3.9-2.4 6.2-7.4 6.2-11.7A11.9 11.9 0 0 0 46 11.6a20.3 20.3 0 0 0-6.6.8l.8-3.3h16V2h13.6a14.2 14.2 0 0 1 3.8.6 7.6 7.6 0 0 1 6 5.9 13.8 13.8 0 0 1-.2 7.3Z"/>
</svg>
