<svg xmlns="http://www.w3.org/2000/svg" viewBox="0 0 21 20" data-license="CC-BY 4.0" data-source="Knowit"><path d="M14.9353 5.8335h-3.335v1.66666h3.335c1.3758 0 2.5013 1.125 2.5013 2.50004 0 1.375-1.1255 2.5-2.5013 2.5h-3.335v1.6666h3.335c2.3012 0 4.1689-1.8666 4.1689-4.1666 0-2.30004-1.8677-4.1667-4.1689-4.1667Zm-5.00256 6.6667H6.59767c-1.37572 0-2.5013-1.125-2.5013-2.5 0-1.37504 1.12558-2.50004 2.5013-2.50004h3.33507V5.8335H6.59767c-2.3012 0-4.16884 1.86666-4.16884 4.1667 0 2.3 1.86764 4.1666 4.16884 4.1666h3.33507v-1.6666Zm-2.5013-3.33337h6.67016v1.66667H7.43144V9.16683Z"/></svg>