<svg xmlns="http://www.w3.org/2000/svg" viewBox="0 0 38.4 32.3" data-license="CC-BY 4.0" data-source="Knowit">
  <g>
    <rect x="10.4" y="2.1" width="28" height="4"/>
    <rect x="10.4" y="26.1" width="28" height="4"/>
    <rect x="10.4" y="14.1" width="28" height="4"/>
    <path d="M6.1,14.4H8.2l.6,1.7h2L7.9,7.9H6.4l-2.8,8v.2h2Zm.4-1.8.7-2.1.7,2.1Z" transform="translate(-3.6 -7.9)"/>
    <path d="M9.9,23.4a1.7,1.7,0,0,0,.3-1,2.7,2.7,0,0,0-.6-1.7A2.9,2.9,0,0,0,7.8,20H4.6v8.1H8a2.2,2.2,0,0,0,1.7-.7,2.4,2.4,0,0,0,.7-1.8,3.1,3.1,0,0,0-.3-1.3,1.2,1.2,0,0,0-.5-.5h0C9.7,23.8,9.8,23.6,9.9,23.4ZM6.4,24.9H7.7l.6.2a1.4,1.4,0,0,1,.2.6.8.8,0,0,1-.2.5l-.6.2H6.4ZM8.2,23h0l-.6.2H6.4V21.8H7.6l.6.2a.8.8,0,0,1,.2.5C8.4,22.7,8.3,22.8,8.2,23Z" transform="translate(-3.6 -7.9)"/>
    <path d="M8.4,37.5a1,1,0,0,1-1,.8H6.9L6.6,38a.5.5,0,0,1-.2-.4,6.6,6.6,0,0,1-.1-1.4,6.6,6.6,0,0,1,.1-1.4.5.5,0,0,1,.2-.4l.3-.3h.5l.6.2.4.6h1.9v-.5a3.1,3.1,0,0,0-.9-1.8,2.9,2.9,0,0,0-2-.7,3,3,0,0,0-1.6.5,2.8,2.8,0,0,0-.9,1l-.3.8a10.9,10.9,0,0,0-.1,1.8,10.9,10.9,0,0,0,.1,1.8c0,.2.1.3.1.5s.1.2.2.3a2.4,2.4,0,0,0,1,1,3,3,0,0,0,1.6.5,3.3,3.3,0,0,0,1.9-.6,2.5,2.5,0,0,0,1-1.8v-.5H8.6Z" transform="translate(-3.6 -7.9)"/>
  </g>
</svg>
