<svg xmlns="http://www.w3.org/2000/svg"
  width="17"
  height="16"
  viewBox="0 0 17 16"
  data-license="CC-BY 4.0"
  data-source="Knowit">
  <g fill-rule="evenodd" transform="translate(1)">
    <path stroke="#000" stroke-width=".2" d="M1.53439248,2.44661627 L1.37324623,2.92939815 L2.54330808,2.92939815 L2.38216184,2.44661627 C2.30742697,2.23740975 2.23619638,2.02217165 2.16846791,1.80089551 C2.10073944,1.57961938 2.0341797,1.36035813 1.96878669,1.1431052 L1.94076126,1.1431052 C1.87536826,1.36438133 1.80997623,1.58464836 1.74458323,1.8039129 C1.67919022,2.02317743 1.60912734,2.23740975 1.53439248,2.44661627 Z M0,4.54671745 L1.49235433,0.599975586 L2.44521906,0.599975586 L3.93757339,4.54671745 L3.08279767,4.54671745 L2.72547339,3.47856254 L1.18407456,3.47856254 L0.826750284,4.54671745 L0,4.54671745 Z"/>
    <polygon points="6 2 16 2 16 3.5 10.252 3.5 6 3.5"/>
    <path stroke="#000" stroke-width=".2" d="M0.200012207,9.80999756 L0.200012207,5.80999756 L1.95263275,5.80999756 C2.23774948,5.80999756 2.49910256,5.82732664 2.73669984,5.86198533 C2.97429711,5.89664401 3.1811434,5.95168933 3.35724491,6.02712294 C3.53334642,6.10255655 3.67031221,6.20347297 3.76814638,6.32987523 C3.86598055,6.4562775 3.9148969,6.61121988 3.9148969,6.79470704 C3.9148969,6.98634918 3.84781162,7.16371744 3.71363904,7.32681713 C3.57946646,7.48991682 3.39218671,7.60204618 3.15179418,7.66320857 L3.15179418,7.6876734 C3.45368248,7.73660331 3.70385468,7.83955845 3.90231829,7.9965419 C4.10078189,8.15352536 4.20001221,8.36657114 4.20001221,8.63568563 C4.20001221,8.83548276 4.14690302,9.00877358 4.04068307,9.15556331 C3.93446311,9.30235303 3.78771405,9.42467597 3.60043149,9.52253578 C3.41314894,9.6203956 3.19092894,9.69277001 2.93376483,9.73966117 C2.67660072,9.78655233 2.39707871,9.80999756 2.0951904,9.80999756 L0.200012207,9.80999756 Z M1.17275854,7.46137371 L1.86877531,7.46137371 C2.25452147,7.46137371 2.53264588,7.41040582 2.70315686,7.30846851 C2.87366785,7.2065312 2.95892206,7.06993725 2.95892206,6.89868257 C2.95892206,6.70296294 2.86947502,6.56433028 2.69057824,6.48278043 C2.51168147,6.40123059 2.24334034,6.36045627 1.8855468,6.36045627 L1.17275854,6.36045627 L1.17275854,7.46137371 Z M1.17275854,9.25953884 L1.99456147,9.25953884 C2.39707921,9.25953884 2.70734864,9.20551288 2.92537908,9.09745933 C3.14340952,8.98940578 3.25242311,8.82325046 3.25242311,8.59898838 C3.25242311,8.38695878 3.14620474,8.23303575 2.93376483,8.13721468 C2.72132491,8.04139361 2.40826026,7.9934838 1.99456147,7.9934838 L1.17275854,7.9934838 L1.17275854,9.25953884 Z"/>
    <rect width="10" height="1.5" x="6" y="7"/>
    <path stroke="#000" stroke-width=".2" d="M2.35528942,14.9099731 C2.02528112,14.9099731 1.7165683,14.8667091 1.42914172,14.7801796 C1.14171513,14.6936502 0.892881956,14.5658245 0.682634731,14.3966988 C0.472387505,14.2275731 0.30605517,14.0191189 0.183632735,13.7713301 C0.0612102994,13.5235412 0,13.2403582 0,12.9217726 C0,12.60712 0.0625409581,12.3249203 0.18762475,12.0751649 C0.312708543,11.8254095 0.483032854,11.6140055 0.698602794,11.4409466 C0.914172735,11.2678877 1.16699788,11.136129 1.45708583,11.0456664 C1.74717377,10.9552038 2.05721725,10.9099731 2.38722555,10.9099731 C2.71723385,10.9099731 3.00997876,10.9591369 3.26546906,11.0574658 C3.52095936,11.1557947 3.73120343,11.2698545 3.89620758,11.3996487 L3.4011976,11.8421265 C3.26280703,11.7398645 3.11377325,11.6582527 2.95409182,11.5972888 C2.79441038,11.5363249 2.6134408,11.5058434 2.41117764,11.5058434 C2.19826906,11.5058434 2.00266224,11.5382914 1.8243513,11.6031885 C1.64604036,11.6680856 1.49168395,11.7605134 1.36127745,11.8804746 C1.23087094,12.0004359 1.12974088,12.1469438 1.05788423,12.3200026 C0.986027585,12.4930615 0.9500998,12.6877498 0.9500998,12.9040734 C0.9500998,13.3445869 1.07917369,13.6897162 1.33732535,13.9394717 C1.59547701,14.1892271 1.94544024,14.3141029 2.38722555,14.3141029 C2.62142499,14.3141029 2.82900774,14.2777218 3.00998004,14.2049584 C3.19095234,14.132195 3.35595401,14.0368174 3.50499002,13.9188227 L4,14.3495012 C3.78709142,14.5304264 3.54358088,14.669068 3.26946108,14.7654304 C2.99534128,14.8617927 2.69062044,14.9099731 2.35528942,14.9099731 Z"/>
    <rect width="10" height="1.5" x="6" y="12"/>
  </g>
</svg>
