<svg xmlns="http://www.w3.org/2000/svg" data-license="Apache License 2.0" data-source="Material Design" viewBox="0 0 24 24">
  <path d="M9 2H4a2 2 0 0 0-2 2v5a2 2 0 0 0 2 2h5a2 2 0 0 0 2-2V4a2 2 0 0 0-2-2m0 5H4V6h5v1m11 6h-5a2 2 0 0 0-2 2v5a2 2 0 0 0 2 2h5a2 2 0 0 0 2-2v-5a2 2 0 0 0-2-2m0 6h-5v-1h5v1m0-2h-5v-1h5v1m0-15h-5a2 2 0 0 0-2 2v5a2 2 0 0 0 2 2h5a2 2 0 0 0 2-2V4a2 2 0 0 0-2-2m0 5h-2v2h-1V7h-2V6h2V4h1v2h2v1M9 13H4a2 2 0 0 0-2 2v5a2 2 0 0 0 2 2h5a2 2 0 0 0 2-2v-5a2 2 0 0 0-2-2m-.4 6-.7.6-1.4-1.4-1.4 1.4-.7-.7 1.4-1.4-1.4-1.4.7-.7 1.4 1.4 1.4-1.4.7.7-1.4 1.4 1.4 1.4Z"/>
</svg>
