<svg xmlns="http://www.w3.org/2000/svg" viewBox="0 0 21 20" data-license="Apache License 2.0" data-source="Material Design"><path d="M18.0777 2.5H3.06988c-.83377 0-1.66754.83333-1.66754 1.66667V15.8333c0 .9167.75039 1.6667 1.66754 1.6667H18.0777c.8338 0 1.6675-.8333 1.6675-1.6667V4.16667c0-.83334-.8337-1.66667-1.6675-1.66667Zm0 13.2667c-.0167.025-.05.05-.0667.0666H3.06988V4.23333l.0667-.06666H18.0027c.025.01666.05.05.0667.06666V15.7667h.0083ZM9.74002 12.925 7.6556 10.4167l-2.91819 3.75H16.4102l-3.752-5.00003L9.74002 12.925Z"/></svg>