<svg
  xmlns="http://www.w3.org/2000/svg"
  data-license="CC-BY 4.0"
  data-source="Knowit"
  width="27"
  height="4"
  viewBox="0 0 27 4">
  <path
    fillRule="evenodd"
    d="M1.929 3.408c.612 0 1.224-.476 1.224-1.292 0-.884-.612-1.36-1.224-1.36S.705 1.232.705 2.116c0 .816.612 1.292 1.224 1.292zm11.492 0c.612 0 1.224-.476 1.224-1.292 0-.884-.612-1.36-1.224-1.36s-1.224.476-1.224 1.36c0 .816.612 1.292 1.224 1.292zm11.492 0c.612 0 1.224-.476 1.224-1.292 0-.884-.612-1.36-1.224-1.36s-1.224.476-1.224 1.36c0 .816.612 1.292 1.224 1.292z"
  />
</svg>
