<svg data-license="CC-BY 4.0" data-source="Knowit" xmlns="http://www.w3.org/2000/svg" viewBox="0 0 45.1 39.5">
  <path d="M45.1,34.7a3.6,3.6,0,0,0-1.3-2.2L31.1,22.9l.2-.4A16.2,16.2,0,0,0,5.5,4.1,16.1,16.1,0,0,0,6.2,29a15.8,15.8,0,0,0,9.1,3.5,16.1,16.1,0,0,0,10.4-3l.4-.3,12.8,9.6a3,3,0,0,0,2.4.7,3,3,0,0,0,2.2-1.2l.9-1.1A3.7,3.7,0,0,0,45.1,34.7ZM26,27.2a14.7,14.7,0,0,1-9.7,3.7h-.9a14.4,14.4,0,0,1-8.2-3.2A14.4,14.4,0,0,1,1.7,15.4,14.6,14.6,0,0,1,6.6,5.3,14.1,14.1,0,0,1,17.2,1.7a14,14,0,0,1,8.1,3.1,14.9,14.9,0,0,1,5.6,12.4A15,15,0,0,1,26,27.2Zm17.1,9-.9,1.1a2,2,0,0,1-1.1.6h-.2a1.3,1.3,0,0,1-1-.4L27.4,28.1l.5-.5A17.1,17.1,0,0,0,30,25l.3-.6h.1l12.4,9.3A1.8,1.8,0,0,1,43.1,36.2Z"/>
  <rect x="12.7" y="15.5" width="7.1" height="1.6"/>
  <path d="M20.2,12.3H17v1.5h3.2a2.5,2.5,0,1,1,0,4.9H17v1.6h3.2a4,4,0,0,0,0-8Z"/>
  <path d="M9.8,16.3a2.5,2.5,0,0,1,2.5-2.5h3.2V12.3H12.3a4,4,0,0,0,0,8h3.2V18.7H12.3A2.5,2.5,0,0,1,9.8,16.3Z"/>
</svg>
