<svg data-license="CC-BY 4.0" data-source="Knowit" xmlns="http://www.w3.org/2000/svg" viewBox="0 0 53.1 40">
  <path d="M52.2,5.3H48.7V1.8a.9.9,0,0,0-.9-.9S38.9,0,34.5,0a43.4,43.4,0,0,0-8,.8A41.5,41.5,0,0,0,18.6,0C14.2,0,5.3.9,5.3.9s-.8.4-.9.9V5.3H.9c-.5.1-.9.4-.9.9V39.1a.9.9,0,0,0,.9.9H52.2a.9.9,0,0,0,.9-.9V6.2C53.1,5.7,52.7,5.4,52.2,5.3ZM34.5,1.8a85.2,85.2,0,0,1,12.4.9V33.8s-8.8-.9-12.4-.9a43.1,43.1,0,0,0-7.1.9V26.6a11.4,11.4,0,0,0,4.4-1.8l7.5,5.6a2.3,2.3,0,0,0,1.8.5,2.6,2.6,0,0,0,1.6-.9l.5-.7a2.4,2.4,0,0,0-.4-3.3l-7.5-5.6a11.4,11.4,0,0,0,.8-3.3A10.3,10.3,0,0,0,27.4,6.4V2.7S28.3,1.8,34.5,1.8ZM26.4,8a8.6,8.6,0,0,1,4.7,1.9A8.2,8.2,0,0,1,34.3,17a8.4,8.4,0,0,1-13.6,6.1A8.3,8.3,0,0,1,17.5,16,8.5,8.5,0,0,1,26.4,8Zm8.1,14,7.2,5.4h0a.6.6,0,0,1,.1.9l-.5.6c-.1.2-.3.2-.4.3l-.5-.2-7.2-5.4A10.1,10.1,0,0,0,34.5,22ZM6.2,2.7a85.2,85.2,0,0,1,12.4-.9c6.2,0,7.1.9,7.1.9V6.3a10.2,10.2,0,0,0-6.6,2.5,10.6,10.6,0,0,0-3.4,7.1,10.3,10.3,0,0,0,3.9,8.6,10.5,10.5,0,0,0,5.7,2.2h.4v7.1a43.1,43.1,0,0,0-7.1-.9c-3.6,0-12.4.9-12.4.9ZM51.3,38.2H1.8V7.1H4.4V34.6a.9.9,0,0,0,.9.9s9.7-.9,13.3-.9a49.2,49.2,0,0,1,7.6.9h.6a50.5,50.5,0,0,1,7.7-.9c3.6,0,13.3.9,13.3.9a1.1,1.1,0,0,0,.9-.9V7.1h2.6Z"/>
</svg>
