<svg xmlns="http://www.w3.org/2000/svg" data-license="CC-BY 4.0" data-source="Icomoon" viewBox="0 0 32 32">
  <path d="M15.5 32c-1.5 0-2.8-.5-3.9-1.3a4 4 0 0 1-1.5-3.1 2 2 0 0 1 2.1-2.1c.5 0 1 .2 1.4.6.4.3.6.8.6 1.4 0 .4 0 .8-.2 1.2a3 3 0 0 0 0 .7l.1.4c.4.3 1 .4 1.5.4.7 0 1.3-.2 2-.7.5-.5.8-1 .8-1.6a3 3 0 0 0-.5-1.6 13 13 0 0 0-3.2-2.8 19.6 19.6 0 0 1-5-4.4 5.6 5.6 0 0 1 0-6.7 9 9 0 0 1 2.8-2.6 9.4 9.4 0 0 1-1.5-2 5 5 0 0 1 1.2-6.2C13.3.6 14.8 0 16.5 0c1.5 0 2.9.4 3.9 1.3a4 4 0 0 1 1.6 3c0 .6-.3 1.2-.7 1.6a2 2 0 0 1-1.5.6c-.6 0-1-.2-1.5-.6-.4-.4-.6-.8-.6-1.3 0-.2 0-.6.2-1v-.7a1 1 0 0 0-.3-.8c-.3-.2-.6-.3-1.1-.3-.8 0-1.4.3-2 .7-.5.5-.8 1.1-.8 1.8 0 .6.2 1.2.5 1.5.5.8 1.4 1.6 2.7 2.4 2.6 1.8 4.5 3.3 5.5 4.7a5.6 5.6 0 0 1 0 6.7c-.7 1-1.6 1.9-2.9 2.6.7.8 1.2 1.4 1.5 2a5 5 0 0 1-1.2 6.2 6.3 6.3 0 0 1-4.3 1.6zm-1.6-20.9c-1.5 1-2.2 2-2.2 3.2 0 .7.2 1.3.6 2a19 19 0 0 0 3.7 3.1l2 1.5c1.6-1 2.3-2 2.3-3.1a3 3 0 0 0-.7-2c-.6-.8-1.7-1.8-3.4-3L14 11z"/>
</svg>
