<svg xmlns="http://www.w3.org/2000/svg" viewBox="0 0 60 45.2" data-license="CC-BY 4.0" data-source="Knowit">
  <path class="cls-1" d="M58,43.2H2V8H5V39.1a.9.9,0,0,0,1,1s11-1,15-1a51.8,51.8,0,0,1,8.6,1h.7a56.6,56.6,0,0,1,8.7-1c4,0,15,1,15,1a1.1,1.1,0,0,0,1-1V8h3ZM7,3A113.5,113.5,0,0,1,21,2c7,0,8,1,8,1V38.2a37.8,37.8,0,0,0-8-1c-4,0-14,1-14,1ZM53,38.2s-10-1-14-1a37.8,37.8,0,0,0-8,1V3s1-1,8-1A113.5,113.5,0,0,1,53,3ZM55,6V2a1,1,0,0,0-1-1S44,0,39,0a50,50,0,0,0-9,.9A50,50,0,0,0,21,0C16,0,6,1,6,1A1,1,0,0,0,5,2V6H1A1,1,0,0,0,0,7V44.2a.9.9,0,0,0,1,1H59a1.1,1.1,0,0,0,1-1V7a1,1,0,0,0-1-1Z"/>
  <path class="cls-1" d="M24.9,12.8h.3a.7.7,0,0,0,.7-.4.5.5,0,0,0-.4-.8c-4.7-1.7-14.5-.1-14.9,0s-.7.4-.6.7a.8.8,0,0,0,.9.5C11,12.8,20.7,11.2,24.9,12.8Zm0,4.8h.3a.7.7,0,0,0,.7-.4.5.5,0,0,0-.4-.8c-4.7-1.7-14.5-.1-14.9,0s-.7.4-.6.7a.8.8,0,0,0,.9.5C11,17.6,20.7,16,24.9,17.6Zm0,4.8h.3a.7.7,0,0,0,.7-.4.5.5,0,0,0-.4-.8c-4.7-1.7-14.5-.1-14.9,0s-.7.4-.6.7a.8.8,0,0,0,.9.5C11,22.4,20.7,20.8,24.9,22.4ZM24.9,8h.3a.7.7,0,0,0,.7-.4.5.5,0,0,0-.4-.8c-4.7-1.7-14.5-.1-14.9,0s-.7.4-.6.7a.8.8,0,0,0,.9.5C11,8,20.7,6.4,24.9,8Zm0,19.2h.3a.7.7,0,0,0,.7-.4.5.5,0,0,0-.4-.8c-4.7-1.7-14.5-.1-14.9,0s-.7.4-.6.7a.8.8,0,0,0,.9.5C11,27.2,20.7,25.6,24.9,27.2Zm1,4.4a.5.5,0,0,0-.4-.8c-4.7-1.7-14.5-.1-14.9,0s-.7.4-.6.7a.8.8,0,0,0,.9.5c.1,0,9.7-1.6,14,0h.3C25.5,32,25.8,31.9,25.9,31.6Zm9.2-18.8c4.2-1.6,13.9,0,14,0a.7.7,0,0,0,.9-.5.6.6,0,0,0-.6-.7c-.4-.1-10.2-1.7-14.9,0a.5.5,0,0,0-.4.8.8.8,0,0,0,.7.4Zm0,4.8c4.2-1.6,13.9,0,14,0a.7.7,0,0,0,.9-.5.6.6,0,0,0-.6-.7c-.4-.1-10.2-1.7-14.9,0a.5.5,0,0,0-.4.8.8.8,0,0,0,.7.4Zm0,4.8c4.2-1.6,13.9,0,14,0a.7.7,0,0,0,.9-.5.6.6,0,0,0-.6-.7c-.4-.1-10.2-1.7-14.9,0a.5.5,0,0,0-.4.8.8.8,0,0,0,.7.4A.2.2,0,0,0,35.1,22.4ZM35.1,8c4.2-1.6,13.9,0,14,0a.7.7,0,0,0,.9-.5.6.6,0,0,0-.6-.7c-.4-.1-10.2-1.7-14.9,0a.5.5,0,0,0-.4.8.7.7,0,0,0,.7.4Zm0,19.3c4.2-1.6,13.9,0,14,0a.7.7,0,0,0,.9-.5.6.6,0,0,0-.6-.7c-.4-.1-10.2-1.7-14.9,0a.5.5,0,0,0-.4.8.8.8,0,0,0,.7.4Zm0,4.8c4.2-1.6,13.9,0,14,0a.7.7,0,0,0,.9-.5.6.6,0,0,0-.6-.7c-.4-.1-10.2-1.7-14.9,0a.5.5,0,0,0-.4.8.8.8,0,0,0,.7.4C34.9,32.2,35,32.1,35.1,32.1Z"/>
</svg>
