<?xml version="1.0" encoding="UTF-8"?>
<svg width="4000px" height="320px" viewBox="0 0 4000 320" version="1.1" xmlns="http://www.w3.org/2000/svg" xmlns:xlink="http://www.w3.org/1999/xlink">
    <!-- Generator: Sketch 52.3 (67297) - http://www.bohemiancoding.com/sketch -->
    <title>Barne og ungdomsarbeider</title>
    <desc>Created with Sketch.</desc>
    <g id="Barne-og-ungdomsarbeider" stroke="none" stroke-width="1" fill="none" fill-rule="evenodd">
        <g id="barne-og-ungdomsarbeider" transform="translate(3602.000000, 50.000000)" stroke="#FFFFFF">
            <path d="M9.2,160.2 C9.3,159.6 18.7,157.7 22.5,165 C26.3,172.3 23.8,178.1 21.4,178.3 C18.9,178.5 5.3,175.2 9.2,160.2 Z" id="Path"></path>
            <path d="M14.7,177 C14.7,177 7,202.7 20.4,206.6 C32.9,210.2 32.3,205.8 31.4,204.1 C30.6,202.4 20.1,183.7 19.5,181.7 C18.8,178.9 19.6,178.4 19.6,178.4" id="Path"></path>
            <path d="M23,207.1 C15.5,205.3 7.7,209.6 5,204.9 C2.3,200.2 13.5,180.3 13.9,180.1" id="Path"></path>
            <path d="M19.5,180.4 C19.5,180.4 33.2,195.2 51.5,185.5 C53.9,182.5 54.3,181.8 56.1,182 C57.9,182.3 61.1,183.7 59.3,184.4 C57.5,185.1 54.7,185.5 53.2,185.1" id="Path"></path>
            <path d="M16.9,207.8 C16.9,207.8 36.2,208.5 34.5,225.6 C32.8,242.7 16.6,243.3 8.3,240.1 C-0.1,236.9 -0.8,222 3.6,216.2 C7.8,210.4 11.6,208.5 16.9,207.8 Z" id="Path"></path>
            <path d="M47.7,229.7 C47.8,228.9 57.5,222.9 58,224.9 C58.5,226.9 58.1,228.8 52.1,229.3 C46.1,229.9 43.9,232.5 43,230.4 C42.2,228.3 41.2,209.6 39.2,207.6 C37.2,205.5 26.2,207.9 26.2,207.9" id="Path"></path>
            <path d="M32.1,205 C32.5,204.4 45.1,194.6 46.8,198.6 C48.5,202.6 49.2,214.4 49.9,214.8 C50.6,215.2 62.5,206.9 64.1,208.2 C65.8,209.4 61.6,216.8 50.8,215" id="Path"></path>
            <path d="M21.6,164.2 C21.6,164.2 18.7,167.5 15.9,167.7" id="Path"></path>
            <path d="M95,139.9 C94.1,140.1 93.4,140.7 93.1,141.6 C91.7,145.7 88.5,158 97.1,160.4 C107.4,163.3 106.6,149.3 105.3,147.4 C104.1,145.6 103.5,138.3 95,139.9 Z" id="Path"></path>
            <path d="M98.4,163.9 C98.4,163.9 96.2,178.2 92.1,184.7 C88.1,191.2 87.4,203.4 93.4,204.1 C99.4,204.8 114.6,191.4 106.4,165.9 C102.4,160.3 99.6,162.4 98.4,163.9 Z" id="Path"></path>
            <path d="M97.5,165.6 C97.4,166.2 74.5,193.5 60.5,185.3" id="Path"></path>
            <path d="M106.4,165.9 C106.4,165.9 113.7,191.5 121.6,179.7" id="Path"></path>
            <path d="M89.2,200.9 C89.2,200.9 81.2,212.9 82.6,218.9 C84,224.9 89.2,233 85.4,235.2 C81.6,237.4 79.1,231.9 77.3,234.8 C75.5,237.7 83.3,239.1 85.8,236.2" id="Path"></path>
            <path d="M100.4,199.2 C100.3,199.8 103.3,214.1 101,220.9 C98.7,227.7 94.9,234.7 97.2,237.2 C99.6,239.7 109,242.6 106.4,238.7 C104.3,235.5 97.2,235 97.2,235" id="Path"></path>
            <path d="M92,150.4 C92,150.4 97,150.7 99.3,149.8" id="Path"></path>
            <path d="M177.1,91.4 C177.1,91.4 161.6,95.1 164,108.6 C166.4,122 178.1,109.3 179.3,106.2 C180.5,103.1 185,93.1 177.1,91.4 Z" id="Path"></path>
            <path d="M178.3,106.4 C178.3,106.4 172.4,108.6 170.9,103.4" id="Path"></path>
            <path d="M167.4,115.2 C168.1,114.7 164.7,121.1 161.5,125.9 C159.1,129.5 143.9,157.9 153.5,169.6 C163.1,181.4 171.9,144.3 169.5,127.1 C168.4,119.5 165.6,120.5 165.6,120.5" id="Path"></path>
            <path d="M161.5,125.9 C161.5,125.9 130.5,172.7 126.9,173.9 C123.3,175.1 118.2,174 118.5,177.2 C118.8,180.4 122.1,181.5 124.2,179.6 C126.3,177.7 127.3,175.3 127.3,175.3" id="Path"></path>
            <path d="M169.6,124.5 C169.6,125.1 168.1,162.8 176,166.3 C184,169.8 190.9,169.8 191.3,166.7 C191.7,163.7 188.6,162.7 186,165.6" id="Path"></path>
            <path d="M155,171.4 C154.9,172.1 153.7,209.4 151.9,220.4 C150.1,231.4 149.2,233.8 142.6,232.4 C135.9,231 124.7,231.6 132.6,234.2 C140.5,236.8 144.5,236.6 146,234.5" id="Path"></path>
            <path d="M161.2,171.1 C161.5,171.9 160.2,228.1 165,230.9 C165.4,231.2 165.9,231.3 166.4,231.5 C171.4,233 179.3,229.7 180.9,232.8 C182.7,236.3 176.4,239.2 172.5,236.7 C168.6,234.2 166.8,233.7 166.8,233.7" id="Path"></path>
            <path d="M190.1,168.9 C190.1,168.9 200.6,189.7 211.3,186.1 C222,182.5 224.6,181.3 226.4,181.9 C228.2,182.6 231.1,183.8 230.6,186.3 C230.1,188.6 227.7,195.8 228.8,200.6 C229.9,205.4 228.7,210.8 224.8,211.3 C220.9,211.7 201.1,209.1 221.7,183.2" id="Path"></path>
            <path d="M236.3,163.9 C235.5,163.9 223.3,162.4 221.6,170.8 C219.9,179.2 229.7,178.7 232.2,177.4 C234.7,176.2 241.1,169 239.7,166.3 C238.3,163.6 236.3,163.9 236.3,163.9 Z" id="Path"></path>
            <path d="M224.4,167.1 C225,167.1 230.5,167.1 231.8,169.9" id="Path"></path>
            <path d="M215.1,208.3 C214.4,208.9 210.6,214.5 212.6,219.6 C214.6,224.7 218.5,227.8 216.5,230.8 C214.5,233.8 206,237.3 206,234.5 C206,231.7 211,230.5 213.4,230.6" id="Path"></path>
            <path d="M227.1,209 C227.4,209.6 234.1,215.8 230.6,222.4 C227.1,229 222.1,231.8 224.6,233.7 C227.1,235.6 238.3,234.8 236.2,238 C234.1,241.2 226.9,240.2 226.4,237.6" id="Path"></path>
            <path d="M230.6,186.3 C232,185.7 233.4,195.8 239.7,197.8 C246,199.8 259,197.2 260.4,199.2 C261.8,201.1 261.1,203.8 259,203.2 C256.9,202.6 254.7,201.7 255.2,199.9" id="Path"></path>
            <path d="M280.8,178.7 C280.4,178.7 272.6,184.6 274.2,190.2 C275.9,195.7 282.2,197.9 284.7,195 C287.2,192.1 291,178.4 280.8,178.7 Z" id="Path"></path>
            <path d="M281,196.6 C281,196.6 272.8,211.8 277.2,218.7 C280.8,224.2 287.5,221.3 288.2,216.6 C288.9,211.9 287.1,198.2 283.6,196.8" id="Path"></path>
            <path d="M278.2,201.1 C277.8,200.8 267.7,204.6 265.4,202.9 C263.1,201.2 261.5,197.6 259.7,198.3" id="Path"></path>
            <path d="M286.3,199.6 C286.6,200.2 295.6,213.7 307.5,196.3" id="Path"></path>
            <path d="M276.6,217.5 C276.6,217.5 271.4,220.8 272.8,226.6 C274.2,232.4 279.4,236 278.4,238.2 C277.4,240.4 271.8,236.1 270.7,238.5 C269.6,240.9 272.5,242.9 276.3,240.7" id="Path"></path>
            <path d="M288.4,218.8 C289.1,218.8 297.7,227 295.7,230.3 C293.6,233.6 289.1,233.3 289.6,236.4 C290,239.4 297.1,244.4 297.4,241.1 C297.7,237.8 294.6,236.4 293.1,237.4" id="Path"></path>
            <path d="M274.3,190.2 C274.3,190.2 280.3,193 283.4,188" id="Path"></path>
            <path d="M324.2,145.9 C324.2,145.9 314,155.3 317.1,161.9 C320.2,168.5 331.2,162.3 332,156.9 C332.8,151.5 330.5,143.7 324.2,145.9 Z" id="Path"></path>
            <path d="M318.6,153.3 C318.6,153.3 321.3,156.5 325.4,155.4" id="Path"></path>
            <path d="M323.2,165.7 C323.2,165.7 323.2,167.9 322.9,169.2 C322.6,170.4 317.3,184 318.2,190.5 C319,197 322.8,205.3 329.1,203.5 C336.2,201.4 336.2,178.7 323.8,171" id="Path"></path>
            <path d="M321.7,172.2 C321.7,172.2 310.8,197.2 307.6,198.5 C304.4,199.7 304.8,195.7 309,193.2" id="Path"></path>
            <path d="M322.5,201.5 C322.5,202.1 316.4,215.3 318.7,224.5 C321,233.7 324.7,232.7 320.4,235.3 C316.1,237.9 311.2,237.9 314.5,235.2 C317.8,232.4 319.8,230.9 319.8,230.9" id="Path"></path>
            <path d="M331.5,202.4 C331.9,202.5 336,212.1 334.7,219 C333.4,225.9 331.2,227.3 335.7,231.2 C340.2,235.1 346.7,234.8 343.4,231.6 C340.1,228.4 335.3,228.6 335.3,228.6" id="Path"></path>
            <path d="M341.9,134.3 C341.9,134.3 343.9,153 343.2,155.6 C342.5,158.2 341,160.6 339.6,162.9 C333.4,173.4 328.3,172.9 327.6,172.9" id="Path"></path>
            <path d="M338.2,122.4 C338.2,122.4 333.7,143.6 337.9,152.8 C342.1,162 346.1,162.6 348.1,160 C350.1,157.4 348.5,130 342.2,121.4" id="Path"></path>
            <path d="M335.7,104 C335.7,104 326.8,114.7 332.6,119.1 C338.5,123.5 345.2,120.5 344.2,112.9 C343.2,105.3 338.2,103.7 335.7,104 Z" id="Path"></path>
            <path d="M332.4,110.5 C332.4,110.5 331,113 335.9,113.5" id="Path"></path>
            <path d="M348.1,160 C348.1,160 350.5,175.9 354.5,176.3 C358.5,176.7 367.2,158.2 369.2,156.1 C371.2,154 372.5,154.6 372,159 C371.4,163.4 369.1,166.5 368.7,164.1 C368.3,161.7 368.1,160.4 368.6,159.9" id="Path"></path>
            <path d="M311.5,92.8 C311.5,92.8 307.6,93.2 303.8,94.4 C299.5,95.8 295.3,98.3 297,102.6 C300.2,110.6 313.3,104.7 314.6,99.8 C315.9,94.9 312.5,93.2 311.5,92.8 Z" id="Path"></path>
            <path d="M305.9,100.3 C306.2,99.7 306.3,96.6 304.8,94.9" id="Path"></path>
            <path d="M299.7,107.2 C299.7,107.2 285.9,126.6 290.1,134 C294.3,141.4 297.6,136.5 299.3,134.7 C301,132.9 308.5,122.5 304.7,108.1" id="Path"></path>
            <path d="M337.3,126.4 C336.9,126.3 319.2,144.8 305.5,112.7" id="Path"></path>
            <path d="M288.8,132.4 C288.8,132.4 279.5,143.9 275.8,140.4 C274.9,139.5 274.5,138.5 274.3,137.4 C273.8,134 275.6,130.1 272.8,128.4 C269.2,126.2 266.9,133.2 270,135.2 C273.1,137.1 273.2,136 273.2,136" id="Path"></path>
            <path d="M295.6,138.2 C295.5,138.6 293.8,153.4 295.7,158.1 C297.7,162.8 303.4,162.5 303.7,160 C304,157.5 299.1,155.8 297.4,156.5" id="Path"></path>
            <path d="M285.1,34.4 C285.1,34.4 278.4,40.6 280.9,47.8 C283.4,55 288.7,50.2 289.4,43.6 C290.1,37 287.4,34.6 285.1,34.4 Z" id="Path"></path>
            <path d="M288.6,39.3 C288.6,39.3 285.3,39.6 284.8,42.1" id="Path"></path>
            <path d="M287.5,51.2 C287.9,51.8 292.2,74 287.9,79.3 C283.6,84.6 282.2,71.8 282.2,66.6 C282.2,62.3 284.6,52.9 285.1,52.5" id="Path"></path>
            <path d="M288.5,53.6 C288.5,53.6 293.7,60.5 298.5,55 C303.3,49.5 305.5,41.3 305.3,37.4 C305.1,33.5 306.5,32.4 304.2,33.7 C301.5,35.1 303.2,37.9 303.2,37.9" id="Path"></path>
            <path d="M287.9,79.2 C288.9,79.5 290.8,80 291,90.5 C291.2,101 289.6,106.7 291.1,108.2" id="Path"></path>
            <path d="M297.7,108.4 C297.1,108.5 283.6,112 279.7,106.9 C275.8,101.8 274.4,90.8 275.9,89.6" id="Path"></path>
            <path d="M282.9,56.1 C282.9,56.1 274.7,62.5 272.6,66.5 C271,69.5 270.4,77.7 270.5,82.5 C270.5,84.1 270.7,85.3 270.9,85.8 C271.7,87.9 274.4,92 274,87.6 C273.6,83.2 270.6,84.1 270.6,84.1" id="Path"></path>
            <path d="M285.6,81 C285.6,81.4 282.5,97.3 279.9,99.5 C277.2,101.7 271.2,101.2 270.4,103.7 C269.6,106.2 270.1,110.8 272.5,109 C274.9,107.2 274.9,104.4 273.6,104.3" id="Path"></path>
            <path d="M326,4 C324.1,3.5 322.7,7.7 322.4,11.4 C322.3,13 322.3,14.4 322.6,15.4 C323.6,18.9 325.7,19.6 327.9,18.7 C330.1,17.9 332.8,5.9 326,4 Z" id="Path"></path>
            <path d="M327.4,12.1 C327.4,12.1 323.5,13.3 322.4,11.4" id="Path"></path>
            <path d="M326.7,20 C326.7,20 321.8,35.5 322.7,44.2 C323.3,50.7 325.2,54.2 328.4,51.8 C331.6,49.4 335,27.2 327.4,19.6" id="Path"></path>
            <path d="M325,25 C325,25 316.5,40.9 305.7,34" id="Path"></path>
            <path d="M330.7,25.4 C331.3,25.4 337.9,31.7 350.3,24.8 C351.4,24.2 351.3,23.4 351.5,22.9 C352.3,21.1 348.5,17.9 348.2,24.7" id="Path"></path>
            <path d="M324.8,52.8 C325.2,53.4 325.8,67.5 323.5,71.3 C321.3,75.2 318.1,78.4 319.9,80.2 C321.7,82 323.4,78.5 322.8,75.8" id="Path"></path>
            <path d="M330,51 C330,51 336,58.6 336.4,61.8 C336.8,64.5 332.6,66.8 330.3,68.4 C329.8,68.7 329.5,69 329.2,69.2 C327.5,70.6 327.9,74.5 330.2,73.8 C332.4,73.1 332.3,71.3 331.7,70.2" id="Path"></path>
            <path d="M371,0.6 C371,0.6 367.1,7.9 369.5,13.1 C371.9,18.3 380.5,13.4 381.1,9.2 C381.7,5 375.9,-1.1 371,0.6 Z" id="Path"></path>
            <path d="M370.7,6.3 C370.7,6.3 372.8,8.8 376,7.9" id="Path"></path>
            <path d="M374.2,16 C374.2,16 374.2,17.7 374,18.7 C373.8,19.7 369.7,30.2 370.3,35.3 C371,40.4 373.9,46.8 378.8,45.4 C384.3,43.8 384.3,26.1 374.7,20.1" id="Path"></path>
            <path d="M350.3,24.2 C358.9,30.5 373.1,21.1 373.1,21.1" id="Path"></path>
            <path d="M373.7,43.9 C373.7,44.3 368.9,54.7 370.8,61.8 C372.6,68.9 375.5,68.2 372.1,70.2 C368.7,72.2 364.9,72.2 367.5,70.1 C370.1,68 371.6,66.8 371.6,66.8" id="Path"></path>
            <path d="M380.6,44.5 C380.9,44.6 384.1,52 383.1,57.4" id="Path"></path>
            <path d="M384.7,65.3 C384.7,65.3 392,64.7 390.3,67.3 C388.6,69.9 384.9,69.4 384,66.9 C382.4,62.6 382.3,62.8 383.2,57.4" id="Path"></path>
            <path d="M397.8,23 C390.3,26.3 378.1,21.6 377.7,21.6" id="Path"></path>
        </g>
    </g>
</svg>