<?xml version="1.0" encoding="UTF-8"?>
<svg width="4000px" height="320px" viewBox="0 0 4000 320" version="1.1" xmlns="http://www.w3.org/2000/svg" xmlns:xlink="http://www.w3.org/1999/xlink">
    <!-- Generator: Sketch 52.5 (67469) - http://www.bohemiancoding.com/sketch -->
    <title>Design og Håndverk</title>
    <desc>Created with Sketch.</desc>
    <g id="Design-og-Håndverk" stroke="none" stroke-width="1" fill="none" fill-rule="evenodd">
        <g id="design-og-håndverk" transform="translate(-10.000000, 64.000000)" stroke="#FFFFFF">
            <path d="M3765,189.3 C3765,189.3 3779.5,65.1 3779.3,54.9 C3779.1,44.7 3786.6,0.1 3786.6,0.1 C3788.8,0.4 3869.5,11.5 3885.6,13.8 C3901.6,16.1 3981.2,27 3981.2,27 C3981.2,27 3972,90.5 3970.8,102.8 C3969.6,115.1 3957.5,218.2 3957.4,219.3 C3957.2,220.4 3866.5,215.3 3863.4,213.8 C3860.3,212.3 3791.4,210.4 3788.1,210.5 C3787.4,210.5 3635.9,210.4 3393.8,210.2 C3350,210.2 3294.1,212.2 3244.8,212.2 C3097.8,212.1 2927.9,215.6 2744.4,211.6 C2693,210.5 2600.7,212.8 2542.4,212.7 C2287,212.4 2019.7,214.4 1751,213.8 C1694.9,213.7 1622.3,210.6 1566.8,210.5 C735.7,208.7 0.6,207.1 0.6,207.1" id="Path"></path>
            <path d="M3960.5,42.1 C3960.5,42.1 3956,73 3955.8,74.7 C3955.6,76.4 3954.3,108.9 3954,118.4 C3953.8,128 3945.4,201.2 3945.4,201.2 C3945.4,201.2 3859.6,193.9 3855.7,193.3 C3851.8,192.7 3804.8,186.5 3799.1,186.8 C3793.4,187.1 3779.9,190.8 3780.9,187.6 C3781.9,184.4 3786.5,113.4 3787.5,102.8 C3788.5,92.2 3795.5,19.9 3795.5,19.9 C3795.5,19.9 3933.5,33 3939,33.8 C3942.8,34.3 3953.2,35.8 3959.4,36.7 C3962.3,37.1 3964.4,37.4 3964.4,37.4" id="Path"></path>
            <path d="M3807.4,40.4 C3807.4,40.4 3918.6,43.5 3920.8,43.8 C3923,44.1 3943,46.4 3943,46.4 C3943,46.4 3938.9,172.7 3939,176.1 C3939.1,179.5 3938.4,184.5 3938.4,184.5 C3938.4,184.5 3846.8,182 3843.5,181.5 C3840.2,181 3800.7,177 3800.7,177 L3807.4,40.4 Z" id="Path"></path>
            <path d="M3925.3,161.1 C3923.7,160.3 3864.3,165.8 3858,166.1 C3851.8,166.3 3815.4,168.4 3815.4,168.4 C3815.4,168.4 3816.9,107.2 3816.5,102 C3816.1,96.9 3812.7,77.2 3813.1,74.4 C3813.5,71.6 3814.7,59.4 3814.7,59.4 L3922.7,53.5 L3930.3,165.1" id="Path"></path>
            <path d="M3823.4,73.7 C3825.1,73.9 3907.1,64.3 3907.1,64.3 L3921,148.1 C3921,148.1 3886.7,151.1 3884.4,151.8 C3882,152.6 3841,159.6 3838.1,159.8 C3835.3,160 3824.3,91.3 3824.1,88.4 C3824,85.6 3823.4,73.7 3823.4,73.7 Z" id="Path"></path>
            <path d="M3832.4,93.6 C3834.8,92.3 3889.2,71.3 3889.2,71.3 C3889.2,71.3 3900.9,103.4 3903.8,107.2 C3906.6,111 3911.7,130.9 3911.7,130.9 L3852.2,152.2 L3832.4,93.6 Z" id="Path"></path>
            <polygon id="Path" points="3873 82 3846.7 104.1 3842.7 108.6 3871.3 140.4 3900.7 113"></polygon>
        </g>
    </g>
</svg>