<?xml version="1.0" encoding="UTF-8"?>
<svg width="4000px" height="320px" viewBox="0 0 4000 320" version="1.1" xmlns="http://www.w3.org/2000/svg" xmlns:xlink="http://www.w3.org/1999/xlink">
    <!-- Generator: Sketch 51.2 (57519) - http://www.bohemiancoding.com/sketch -->
    <title>Elektro</title>
    <desc>Created with Sketch.</desc>
    <defs></defs>
    <g id="Elektro" stroke="none" stroke-width="1" fill="none" fill-rule="evenodd">
        <g id="ELEKTRO" transform="translate(69.000000, 0.000000)" stroke="#FFFFFF">
            <path d="M3717.1,154.5 C3717.1,154.5 3720.9,154.4 3723.1,157.3 C3725.3,160.2 3726.6,163.3 3725.9,166.2 C3725.2,169.1 3723.1,172.9 3719.3,171 C3715.5,169.1 3712.1,164.3 3711.8,161.3 C3711.5,158.5 3714.8,154.2 3717.1,154.5 Z" id="Shape"></path>
            <path d="M3713.8,166.3 C3714.5,166.2 3717.9,166.9 3719.1,164.4" id="Shape"></path>
            <path d="M3724.7,169.1 C3724.7,169.1 3738.1,176.6 3736,196.5 C3734,216.5 3727.4,193.8 3727.7,189.9 C3728,186 3725.3,174.3 3722.7,170.9" id="Shape"></path>
            <path d="M3724.2,175.6 C3724.2,175.6 3723.5,184.6 3719.1,191.7 C3714.7,198.8 3711.1,183.4 3710,181.2 C3708.8,179 3705.4,177.8 3705.1,179.7 C3704.8,181.6 3704.9,182.2 3706.6,181.9 C3708.3,181.6 3710,181.2 3710,181.2" id="Shape"></path>
            <path d="M3727.1,170.8 C3727.6,170.8 3744.4,178.7 3746.7,184.6 C3749,190.5 3747.9,192.8 3747.7,194.1 C3747.5,195.4 3742.8,195.4 3745.3,196.9 C3747.7,198.4 3749.3,198.6 3748.6,196.6 C3747.9,194.7 3747.7,194 3747.7,194" id="Shape"></path>
            <path d="M3726.2,238.6 C3726.4,240.6 3721.1,238.8 3718.6,240.8 C3716.1,242.8 3713.2,243.7 3716.4,244 C3719.6,244.3 3726.9,243.8 3727.6,241.5 C3728.3,239.1 3725.2,225.1 3725.4,223 C3725.6,221 3731.7,203.5 3731.7,203.5" id="Shape"></path>
            <path d="M3734.5,204.5 C3734.5,204.5 3731.2,221.5 3731.7,223.5 C3732.2,225.5 3743.3,238.9 3743.4,241.8 C3743.5,244.7 3737.1,241.7 3737.4,244 C3737.7,246.4 3745.3,246.8 3744.6,243" id="Shape"></path>
            <path d="M3706,181.8 C3711.4,182.8 3707.9,225.9 3706.1,233.5 C3704.9,238.6 3699.6,238.7 3699,238.9 C3695.1,240 3686.4,234.7 3671.1,235.3 C3635.8,236.5 3633.6,232.7 3635.8,229.5 C3637.9,226.5 3671.3,224.6 3690.6,224.9 C3710,225.3 3752,231 3757.7,235.3 C3763.4,239.6 3769.2,244.3 3760.9,246.8 C3752.6,249.3 3699.2,252.9 3672.6,250 C3646.1,247.1 3633.9,246.4 3634.2,244.3 C3634.6,242.1 3660.4,235.7 3678,242.1 C3695.6,248.5 3648,252.6 3626.7,252.5 C3606.3,252.4 3590.2,254.3 3578,255.1 C3561.1,256.2 3553.5,265.4 3574.4,267.9 C3595.3,270.4 3678.3,261.7 3682.2,262.4 C3686.1,263.1 3746.8,264.7 3756.7,280.3 C3765.6,294.2 3672,284.9 3661.6,276.6 C3651.2,268.3 3709.9,268.3 3721.4,274 C3732.9,279.7 3717.5,287 3691.7,289.5 C3665.9,292 3615.3,293.8 3607.4,289.5 C3599.5,285.2 3599.1,276.2 3623.5,273.7 C3647.9,271.2 3681.3,268 3684.1,273 C3687,278 3669.7,293.6 3644.6,287.4 C3618,280.8 3551.9,277.5 3454.7,285" id="Shape"></path>
            <path d="M3863.9,69.9 C3863.9,69.3 3865.4,66.2 3865,64.7 C3864.6,63.2 3862.8,63.8 3862.6,65.6 C3862.4,67.3 3859.2,74.7 3860.4,74.9 C3861.7,75.1 3866.7,71.5 3866.7,71.5" id="Shape"></path>
            <path d="M3860.4,74.8 C3860.4,74.8 3850.3,88.6 3851.1,90.7 C3851.9,92.8 3859.1,104.7 3861.4,105.1" id="Shape"></path>
            <path d="M3865.6,97.4 C3865.6,98 3853.1,116.2 3853.5,128.9 C3853.9,141.6 3855.7,148.9 3858.9,149.6 C3862.1,150.2 3860.4,133 3862.1,127.8 C3863.8,122.6 3869.6,101.9 3868.8,99.6 C3868,97.3 3865.6,97.4 3865.6,97.4 Z" id="Shape"></path>
            <path d="M3872.5,81.7 C3871.7,81.7 3865.4,83 3863.2,86.7 C3861,90.4 3863,94 3864.5,94.7 C3866,95.4 3873.3,91.9 3874,90 C3874.7,88 3876,81.9 3872.5,81.7 Z" id="Shape"></path>
            <path d="M3865.4,83 C3867.1,83.6 3871.2,82.6 3872.1,84.7 C3873,86.9 3873,86.9 3873,86.9" id="Shape"></path>
            <path d="M3867.8,54.8 C3867.2,55.4 3866.1,56.7 3866.7,57.4 C3867.3,58 3867.3,58.9 3869.3,60.8 C3871.2,62.7 3873.2,64.2 3872.1,60.8 C3871,57.4 3869.9,55 3868.9,54.8" id="Shape"></path>
            <path d="M3871.9,63 C3871.9,63 3879,77.4 3877.9,84.3 C3876.8,91.2 3873.4,99.8 3870.8,102.6" id="Shape"></path>
            <path d="M3857.8,149.4 C3857.8,149.4 3846.6,166.9 3848.3,173.1 C3850,179.4 3875,192.5 3875,194.7 C3875,196.9 3858.6,198.1 3857.8,201.6 C3856.9,205 3860.6,207.6 3864.1,204.4 C3867.6,201.2 3868,199.2 3868,199.2" id="Shape"></path>
            <path d="M3858.9,149.6 C3858.9,149.6 3869.9,188.2 3879.4,199.4 C3888.9,210.6 3888.9,210.6 3888.9,210.6 C3888.9,210.6 3873.8,213 3872.7,216.9 C3871.6,220.8 3880.5,221 3886.5,215" id="Shape"></path>
            <path d="M3828.49946,130 C3828.3,130.6 3883.9,239.5 3887.8,245.7" id="Shape"></path>
            <path d="M3842.3,158 C3841.4,158.4 3837.6,157.1 3833,170.9 C3828.5,184.7 3803.7,248.7 3803.7,248.7" id="Shape"></path>
            <path d="M3827.7,185.8 L3855.9,185.4" id="Shape"></path>
            <path d="M3814.5,219.4 L3873.8,219.7" id="Shape"></path>
            <path d="M3867.3,0 L3867.5,34.1 C3867.5,34.1 3866.2,34.5 3866,36.3 C3865.8,38 3861,47.5 3866.6,49.4 C3872.2,51.3 3870.3,39.9 3869.2,38.6 C3868.1,37.3 3869.2,34.5 3867.5,34.1" id="Shape"></path>
            <path d="M21.5,226.1 C19.8,226.1 4.2,224.8 2.2,226.8 C0.2,228.8 -0.5,267.8 2.2,270.1 C4.9,272.4 26.2,271.4 26.5,270.4 C26.8,269.4 24.5,225.7 24.5,225.7 L21.5,226.1 Z" id="Shape"></path>
            <ellipse id="Oval" cx="12.9" cy="241.1" rx="3" ry="3.3"></ellipse>
            <ellipse id="Oval" cx="13.5" cy="260.3" rx="3" ry="3.2"></ellipse>
            <path d="M3455.2,285.2 C3424.5,286.5 3375.4,278.9 3365,274.4 C3354.6,269.9 3325.5,265.4 3317.5,270.9 C3309.5,276.4 3356,273.9 3352.5,278.4 C3349,282.9 3313.5,280.9 3280.5,278.4 C3247.5,275.9 3215.2,281.6 3215.2,281.6 C3207.9,282.2 3196.4,281.5 3178.9,278.8 C3161.4,276.2 3074,267.5 3046,271.3 C3018,275.1 2960.9,278.2 2934.4,278 C2907.9,277.8 2862.9,280.5 2824.4,278.2 C2785.9,275.9 2737.4,281.1 2727.4,275.5 C2717.4,269.9 2749.4,272.7 2754.4,274.2 C2759.4,275.7 2766.4,279.8 2761.8,281.3 C2757.3,282.8 2730.8,285.6 2697.8,284.3 C2664.8,283 2572.3,286.9 2554.8,280.8 C2537.3,274.7 2464.8,276.7 2455.3,278.6 C2445.8,280.5 2448.3,283 2414.3,281.3 C2380.3,279.6 2269.3,280.3 2243.8,276.6 C2218.3,272.9 2226.3,270.5 2243.3,271.1 C2260.3,271.7 2281.3,270.9 2276.8,275.3 C2272.3,279.8 2236.7,283 2205.8,278.8 C2174.8,274.6 2155.9,265.9 2124.9,268.7 C2093.9,271.5 2122.8,280.2 2134.8,278.8 C2146.8,277.4 2119.8,272.2 2068.3,272.8 C2016.8,273.4 1999.3,272.8 1964.3,274.6 C1929.3,276.3 1836.3,273.7 1805.8,275 C1775.3,276.3 1718.4,264.9 1667.8,268 C1617.2,271.1 1608.3,273.6 1586.8,273.9 C1565.3,274.2 1468.3,277.6 1420.8,271.7 C1373.3,265.9 1229.3,276.8 1212.3,272.7 C1195.3,268.6 1246.3,267.9 1264.8,269.1 C1283.3,270.2 1294,273 1289.3,274.8 C1274.6,280.2 1215.9,280.2 1166.3,271.9 C1116.8,263.6 308.3,271 113.9,273.5 C90.4,273.8 16.6,284.8 12.6,241.5" id="Shape"></path>
        </g>
    </g>
</svg>