<?xml version="1.0" encoding="UTF-8"?>
<svg width="4000px" height="320px" viewBox="0 0 4000 320" version="1.1" xmlns="http://www.w3.org/2000/svg" xmlns:xlink="http://www.w3.org/1999/xlink">
    <!-- Generator: Sketch 52.6 (67491) - http://www.bohemiancoding.com/sketch -->
    <title>Engelsk vg1</title>
    <desc>Created with Sketch.</desc>
    <g id="Engelsk-vg1" stroke="none" stroke-width="1" fill="none" fill-rule="evenodd">
        <path d="M3948.2,42.2 C3948.2,42.2 3943.1,61.5 3941.4,62.7 C3939.7,63.9 3940.7,69.9 3940.7,69.9 L3959.5,69.9 L3958.8,62.6 C3958.8,62.6 3957.4,62.4 3957.3,61.7 C3957.2,61 3950.3,43.3 3950.3,42.1" id="Path" stroke="#FFFFFF"></path>
        <path d="M3948.7,36.4 C3948.7,36.4 3945.8,38.3 3946.8,40.5 C3947.8,42.7 3951.2,41.2 3951.4,40.2 C3951.6,39.1 3950.6,35.9 3948.7,36.4 Z" id="Path" stroke="#FFFFFF"></path>
        <path d="M3948.9,31.1 L3948.7,36.4" id="Path" stroke="#FFFFFF"></path>
        <path d="M3958.6,56.3 L3958.7,62.5" id="Path" stroke="#FFFFFF"></path>
        <path d="M3939.7,57.7 C3939.7,58.2 3941.4,62.6 3941.4,62.6 L3957,63" id="Path" stroke="#FFFFFF"></path>
        <path d="M3942.2,70 L3938.1,77 C3938.1,77 3963.7,79 3963.2,78.4 C3962.3,77.4 3958.3,70.6 3958.3,70.6" id="Path" stroke="#FFFFFF"></path>
        <path d="M3933,77 C3933,77.5 3934,87.2 3934,86.7 C3934,86.2 3936.9,71.9 3939.6,77.7 C3942.3,83.5 3942.2,86.6 3942.2,86.6 C3942.2,86.6 3946.5,75.5 3948.7,78.2 C3950.9,80.9 3952.1,86.7 3952.1,86.2 C3952.1,85.7 3955,76.5 3956.9,78.9 C3958.8,81.3 3961.7,85.5 3961.5,85 C3961.3,84.5 3962,78 3964.6,79.7 C3967.2,81.4 3967.8,85.2 3967.8,85.2 L3968.3,77.9" id="Path" stroke="#FFFFFF"></path>
        <path d="M3967.6,87 L3932.7,87.5 L3932.7,89 C3932.7,89 3931.8,91.4 3932.4,95.1 C3932.9,98.9 3931.7,109.1 3931.7,109.1 C3931.7,109.1 3933.7,111.3 3935.1,111.1 C3936.5,110.9 3938.9,108.4 3940.6,109.4 C3942.3,110.4 3942.8,114.5 3943.5,114.5 C3944.2,114.5 3946.6,108.7 3948.6,110.1 C3950.6,111.5 3951.7,116.7 3952.7,115.9 C3953.7,115 3957.1,106.9 3959.5,109.6 C3961.9,112.3 3960.5,116.6 3962.6,115.2 C3964.7,113.8 3965.5,108 3967.5,109.4 C3969.5,110.8 3970.6,114.5 3970.6,114.5" id="Path" stroke="#FFFFFF"></path>
        <path d="M3968.1,88.5 L3967.4,109.5" id="Path" stroke="#FFFFFF"></path>
        <path d="M3949.5,91.1 C3949.5,91.1 3940.1,103.4 3952.7,105.1 C3965.3,106.8 3961.1,95.7 3960.2,94.4 C3959.3,93.1 3954.7,89.1 3949.5,91.1 Z" id="Path" stroke="#FFFFFF"></path>
        <polyline id="Path" stroke="#FFFFFF" points="3951.9 93.3 3951.6 98.4 3958.1 101.7"></polyline>
        <path d="M3936.4,119.6 C3936.2,120.5 3937.3,140.6 3937.3,140.6" id="Path" stroke="#FFFFFF"></path>
        <path d="M3934.7,140.2 C3934.7,140.2 3966.7,141.7 3968.8,140.4 L3969.3,116.9 L3936.1,117.2" id="Path" stroke="#FFFFFF"></path>
        <path d="M3961.1,118.7 L3959.3,140.2" id="Path" stroke="#FFFFFF"></path>
        <path d="M3951.6,120.1 C3951.6,120.6 3951.3,140.7 3951.3,140.7" id="Path" stroke="#FFFFFF"></path>
        <path d="M3942.4,117 L3943.4,139.5" id="Path" stroke="#FFFFFF"></path>
        <path d="M3934.7,143.4 C3934.7,144.4 3934.9,168.8 3934.9,168.8" id="Path" stroke="#FFFFFF"></path>
        <path d="M3922.9,168.1 L3933.1,169 C3933.1,169 3945.4,169.5 3946.7,169.7 C3948,169.9 3962.4,168.7 3963.7,168.7" id="Path" stroke="#FFFFFF"></path>
        <path d="M3989,168.8 C3985.7,166.6 3966.4,166.6 3966.4,166.6 C3966.4,166.6 3967.1,147.5 3966.9,143.4" id="Path" stroke="#FFFFFF"></path>
        <path d="M3958.7,146.3 C3958.7,147.8 3957.7,168.1 3957.7,168.1" id="Path" stroke="#FFFFFF"></path>
        <path d="M3949.4,145.5 C3949.4,146.7 3946.8,169.7 3946.8,169.7" id="Path" stroke="#FFFFFF"></path>
        <path d="M3941.2,145.7 C3941.2,146.6 3941.2,167.5 3941,168.4" id="Path" stroke="#FFFFFF"></path>
        <path d="M3933.7,113.8 C3933.9,113.3 3934.4,111.6 3936.3,110.6" id="Path" stroke="#FFFFFF"></path>
        <path d="M3854.4,109.9 C3854.4,109.9 3848.5,115.5 3849.9,122.7 C3851.3,130 3861.9,134.7 3865.5,124.9 C3869.2,115.2 3864.5,108.2 3854.4,109.9 Z" id="Path" stroke="#FFFFFF"></path>
        <path d="M3863.4,120.5 C3863.4,120.5 3858.1,117.2 3854.5,118.5" id="Path" stroke="#FFFFFF"></path>
        <path d="M3849.1,129.1 C3848.1,127.3 3846,126.4 3844,126.9 C3837.5,128.8 3824.3,136.5 3814.3,156.7 C3801.2,183.2 3811.4,196.7 3818.5,193.3 C3831.6,186.9 3822.7,163.4 3846.4,140.3 C3851.1,135.7 3850.4,131.7 3849.1,129.1 Z" id="Path" stroke="#FFFFFF"></path>
        <path d="M3847,176.9 C3849.5,174.4 3852.9,174.9 3854.8,176.3 C3856.8,177.7 3854,178.8 3843.9,178.5 C3818.5,177.9 3831.3,139.2 3832.2,138" id="Path" stroke="#FFFFFF"></path>
        <path d="M3848.7,179.7 C3848,178.6 3832,181.9 3822.7,189.7" id="Path" stroke="#FFFFFF"></path>
        <path d="M3845,179.4 C3845,180.2 3847,245.5 3847,245.5 C3847,245.5 3852.9,245.2 3851.2,250 C3849.5,254.7 3841.4,254.5 3842,250.3 C3842.6,246.1 3844.8,246.4 3844.8,246.4" id="Path" stroke="#FFFFFF"></path>
        <path d="M3841.4,175.8 C3841.4,175.8 3843.4,178.3 3849.8,179.1" id="Path" stroke="#FFFFFF"></path>
        <path d="M3814.9,193.3 C3814.9,193.3 3787.4,207.2 3777.9,250.4 C3777.8,250.6 3777.7,250.9 3777.7,251.1 C3768.9,286.2 3763.6,281.7 3754.1,285.1" id="Path" stroke="#FFFFFF"></path>
        <path d="M3821,192.5 C3821.3,193.3 3834.7,211.2 3835,214.8 C3835.3,218.4 3831.9,253.3 3834.4,255.3 C3836.9,257.3 3848.6,254.2 3844.4,257.5 C3840.2,260.8 3830.7,264.2 3831.3,256.4" id="Path" stroke="#FFFFFF"></path>
        <path d="M3814.9,193.3 C3817.4,193.9 3833.9,216.5 3835,214.8" id="Path" stroke="#FFFFFF"></path>
        <path d="M3816.3,197.8 C3815.5,198.4 3782,214.3 3793.7,261.4 C3805.4,308.5 3852.6,311.4 3878.8,296.8 C3905,282.3 3906.1,242.1 3903.4,225.9 C3900.6,209.7 3863.8,180.1 3827.8,192.4" id="Path" stroke="#FFFFFF"></path>
        <path d="M3774.4,255 C3772.4,254.4 3747.9,247.7 3738.1,265.3 C3728.3,282.9 3735.9,312.5 3763.2,308.8 C3790.5,305.2 3789.7,273.6 3788.9,268.9 C3788.1,264.2 3778.6,257.5 3778.6,257.5" id="Path" stroke="#FFFFFF"></path>
        <path d="M3760.3,254.4 C3760,257 3760.4,256.7 3763.8,278.5" id="Path" stroke="#FFFFFF"></path>
        <path d="M3735.9,269.5 C3736.7,269.5 3757.9,280.4 3757.9,280.4" id="Path" stroke="#FFFFFF"></path>
        <path d="M3739.8,296.9 C3741.2,296.3 3759.1,285.5 3759.1,285.5" id="Path" stroke="#FFFFFF"></path>
        <path d="M3764.4,306.1 C3764.1,303.6 3764.1,285.4 3764.1,285.4" id="Path" stroke="#FFFFFF"></path>
        <path d="M3780.3,294.6 C3777.5,291.5 3765.8,283.2 3765.8,283.2" id="Path" stroke="#FFFFFF"></path>
        <path d="M3769.4,281 C3771.6,279.9 3787.3,272.1 3787.3,272.1" id="Path" stroke="#FFFFFF"></path>
        <path d="M3866.2,195.6 C3865.6,196.4 3849.7,242.2 3849.7,242.2" id="Path" stroke="#FFFFFF"></path>
        <path d="M3893.3,213.1 C3890.8,213.4 3857,238.8 3854.2,241.8" id="Path" stroke="#FFFFFF"></path>
        <path d="M3854,245.2 C3854,245.2 3904,250.2 3906.5,250.8" id="Path" stroke="#FFFFFF"></path>
        <path d="M3851.7,253.3 C3853.1,253.3 3895.2,284.8 3895.2,284.8" id="Path" stroke="#FFFFFF"></path>
        <path d="M3849.2,257.5 C3849.5,258.3 3873.2,298.2 3873.2,298.2" id="Path" stroke="#FFFFFF"></path>
        <path d="M3847.3,260.9 L3832.5,301.1" id="Path" stroke="#FFFFFF"></path>
        <path d="M3829.1,263.9 C3827.7,263.6 3801.5,275.6 3801.5,275.6" id="Path" stroke="#FFFFFF"></path>
        <path d="M3792.8,242.7 C3794.2,242.4 3826.3,249.4 3826.3,249.4" id="Path" stroke="#FFFFFF"></path>
        <path d="M3801.2,214.3 C3804.8,215.1 3830.2,236.1 3830.2,236.1" id="Path" stroke="#FFFFFF"></path>
        <path d="M3993,292.3 C3989.7,291.2 3905,291.2 3905,291.2" id="Path" stroke="#FFFFFF"></path>
        <path d="M3720.4,291.2 C3720.4,291.2 3449.4,287 3443.9,288.1 C3438.4,289.2 3145.9,292.6 3140.3,290.3 C3134.7,288.1 -14.3,291.4 -14.3,291.4" id="Path" stroke="#FFFFFF"></path>
    </g>
</svg>