<?xml version="1.0" encoding="UTF-8"?>
<svg width="4000px" height="320px" viewBox="0 0 4000 320" version="1.1" xmlns="http://www.w3.org/2000/svg" xmlns:xlink="http://www.w3.org/1999/xlink">
    <!-- Generator: Sketch 52.3 (67297) - http://www.bohemiancoding.com/sketch -->
    <title>Felles matte</title>
    <desc>Created with Sketch.</desc>
    <g id="Felles-matte" stroke="none" stroke-width="1" fill="none" fill-rule="evenodd">
        <path d="M-172,259.5 L3950,258.5" id="Path" stroke="#FFFFFF"></path>
        <path d="M3547.3,258 L3547.3,272" id="Path" stroke="#FFFFFF"></path>
        <path d="M3388,258 L3388,272" id="Path" stroke="#FFFFFF"></path>
        <path d="M3464,259 L3464,272" id="Path" stroke="#FFFFFF"></path>
        <path d="M3245,259 L3245,273" id="Path" stroke="#FFFFFF"></path>
        <path d="M3316,259 L3316,273" id="Path" stroke="#FFFFFF"></path>
        <path d="M3089,259 L3089,273" id="Path" stroke="#FFFFFF"></path>
        <path d="M3162,259 L3162,272" id="Path" stroke="#FFFFFF"></path>
        <path d="M2946,259 L2946,273" id="Path" stroke="#FFFFFF"></path>
        <path d="M3017,259 L3017,273" id="Path" stroke="#FFFFFF"></path>
        <path d="M2790,260 L2790,274" id="Path" stroke="#FFFFFF"></path>
        <path d="M2865,260 L2865,273" id="Path" stroke="#FFFFFF"></path>
        <path d="M2647,260 L2647,274" id="Path" stroke="#FFFFFF"></path>
        <path d="M2718,260 L2718,274" id="Path" stroke="#FFFFFF"></path>
        <path d="M2491,259 L2491,273" id="Path" stroke="#FFFFFF"></path>
        <path d="M2566,260 L2566,273" id="Path" stroke="#FFFFFF"></path>
        <path d="M2348,258 L2348,272" id="Path" stroke="#FFFFFF"></path>
        <path d="M2419,258 L2419,272" id="Path" stroke="#FFFFFF"></path>
        <path d="M2192,259 L2192,273" id="Path" stroke="#FFFFFF"></path>
        <path d="M2269,259 L2269,272" id="Path" stroke="#FFFFFF"></path>
        <path d="M2052,259 L2052,273" id="Path" stroke="#FFFFFF"></path>
        <path d="M2123,259 L2123,273" id="Path" stroke="#FFFFFF"></path>
        <path d="M1896,260 L1896,274" id="Path" stroke="#FFFFFF"></path>
        <path d="M1973,260 L1973,273" id="Path" stroke="#FFFFFF"></path>
        <path d="M1760,260 L1760,274" id="Path" stroke="#FFFFFF"></path>
        <path d="M1831,260 L1831,274" id="Path" stroke="#FFFFFF"></path>
        <path d="M1604,261 L1604,275" id="Path" stroke="#FFFFFF"></path>
        <path d="M1681,261 L1681,274" id="Path" stroke="#FFFFFF"></path>
        <path d="M1461,261 L1461,275" id="Path" stroke="#FFFFFF"></path>
        <path d="M1536,261 L1536,274" id="Path" stroke="#FFFFFF"></path>
        <path d="M1318,261 L1318,275" id="Path" stroke="#FFFFFF"></path>
        <path d="M1389,261 L1389,275" id="Path" stroke="#FFFFFF"></path>
        <path d="M1162,260 L1162,274" id="Path" stroke="#FFFFFF"></path>
        <path d="M1237,261 L1237,274" id="Path" stroke="#FFFFFF"></path>
        <path d="M1019,260 L1019,274" id="Path" stroke="#FFFFFF"></path>
        <path d="M1090,262 L1090,276" id="Path" stroke="#FFFFFF"></path>
        <path d="M863,261 L863,275" id="Path" stroke="#FFFFFF"></path>
        <path d="M940,261 L940,274" id="Path" stroke="#FFFFFF"></path>
        <path d="M723,261 L723,275" id="Path" stroke="#FFFFFF"></path>
        <path d="M794,261 L794,275" id="Path" stroke="#FFFFFF"></path>
        <path d="M572,261 L572,275" id="Path" stroke="#FFFFFF"></path>
        <path d="M644,262 L644,275" id="Path" stroke="#FFFFFF"></path>
        <path d="M431,261 L431,275" id="Path" stroke="#FFFFFF"></path>
        <path d="M502,261 L502,275" id="Path" stroke="#FFFFFF"></path>
        <path d="M275,261 L275,275" id="Path" stroke="#FFFFFF"></path>
        <path d="M352,261 L352,274" id="Path" stroke="#FFFFFF"></path>
        <path d="M125,260 L125,274" id="Path" stroke="#FFFFFF"></path>
        <path d="M197,260 L197,273" id="Path" stroke="#FFFFFF"></path>
        <path d="M55,260 L55,274" id="Path" stroke="#FFFFFF"></path>
        <path d="M3700.6,194.7 C3700.6,194.7 3701.7,218.4 3701.7,229.4 C3701.7,240.4 3700.6,257.8 3700.6,257.8 L3729,257.8 C3729,257.8 3731.3,196.3 3730.1,194.7 C3728.9,193.1 3700.6,194.7 3700.6,194.7 Z" id="Path" stroke="#FFFFFF"></path>
        <path d="M3761.5,259.1 L3792.1,259.1 C3792.1,259.1 3788.7,158.9 3789.8,155 C3790.9,151.1 3790.9,151.1 3790.9,151.1 L3761.5,151.1 L3762.6,188.4 C3762.6,188.4 3764.9,251.3 3763.7,255.2" id="Path" stroke="#FFFFFF"></path>
        <path d="M3827.2,259.1 L3855.9,259.1 C3855.9,259.1 3855.9,118.7 3855.9,114.6 C3855.9,110.5 3827.2,112.6 3827.2,112.6 L3828.5,253 L3827.2,259.1 Z" id="Path" stroke="#FFFFFF"></path>
        <path d="M3885.9,258.5 L3917.8,258.5 C3917.8,258.5 3917.8,192.1 3916.5,181.8 C3915.2,171.4 3916.5,76 3916.5,76 L3884.6,76 C3884.6,76 3887.1,156.9 3885.9,161 C3884.6,165.1 3887.2,202.5 3885.9,212.8 C3884.7,223.2 3885.9,258.5 3885.9,258.5 Z" id="Path" stroke="#FFFFFF"></path>
        <path d="M3647.6,224.5 C3647.6,224.5 3648.6,236.7 3648.5,242.4 C3648.4,248.1 3647.2,257 3647.2,257 L3675.6,257.3 C3675.6,257.3 3678.3,225.7 3677.1,224.8 C3675.9,224.1 3647.6,224.5 3647.6,224.5 Z" id="Path" stroke="#FFFFFF"></path>
        <path d="M3931.3,259 L3931.3,273" id="Path" stroke="#FFFFFF"></path>
        <path d="M3756,259 L3756,273" id="Path" stroke="#FFFFFF"></path>
        <path d="M3813,259 L3813,272" id="Path" stroke="#FFFFFF"></path>
        <path d="M3620,259 L3620,273" id="Path" stroke="#FFFFFF"></path>
        <path d="M3691,259 L3691,273" id="Path" stroke="#FFFFFF"></path>
        <path d="M3869,259 L3869,273" id="Path" stroke="#FFFFFF"></path>
    </g>
</svg>