<?xml version="1.0" encoding="UTF-8"?>
<svg width="4000px" height="320px" viewBox="0 0 4000 320" version="1.1" xmlns="http://www.w3.org/2000/svg" xmlns:xlink="http://www.w3.org/1999/xlink">
    <!-- Generator: Sketch 51.2 (57519) - http://www.bohemiancoding.com/sketch -->
    <title>Helse og Oppvekst</title>
    <desc>Created with Sketch.</desc>
    <defs></defs>
    <g id="Helse-og-Oppvekst" stroke="none" stroke-width="1" fill="none" fill-rule="evenodd">
        <g id="helse-og-oppvekstfag-01" transform="translate(0.000000, 150.000000)" stroke="#FFFFFF">
            <path d="M3602.4,91.2 C3602.4,91.2 3599.1,97.3 3599.6,100.1 C3600.2,102.9 3602.9,104.3 3605.5,104.3 C3608,104.3 3611.6,98.2 3610,95.4 C3608.4,92.6 3605.3,89.8 3600.2,92.1" id="Shape"></path>
            <path d="M3598.5,98.4 C3598.5,98.4 3596.3,98.4 3593.8,98.7 C3591.3,99 3581.5,99.5 3579.6,100.7 C3577.6,101.8 3576.5,102.7 3577.9,104.6 C3579.3,106.6 3582.6,106.8 3588.2,106.6 C3593.8,106.4 3601,105.8 3601.6,103.3 C3602.2,100.8 3601.9,99.4 3601,98.8" id="Shape"></path>
            <path d="M3596.6,102.3 C3596.6,102.3 3598.8,109.3 3600.5,109.8 C3602.2,110.3 3605.8,112.3 3608.3,113.1 C3610.8,113.9 3613.6,114.5 3612.5,112.5 C3611.4,110.5 3608.6,111.1 3606.1,109.2 C3603.6,107.3 3601.6,103.1 3601.6,103.1" id="Shape"></path>
            <path d="M3593.8,106.2 C3594.1,107.6 3593,109.3 3594.6,110.7 C3596.2,112.1 3601,114.9 3602.7,114 C3604.4,113.2 3604.4,111.8 3603,111.2" id="Shape"></path>
            <path d="M3584.3,104 C3584.3,104 3589.3,108.7 3588.8,111.2 C3588.2,113.7 3586,113.7 3583.2,113.4 C3580.4,113.1 3576.8,112 3576,112.8 C3575.2,113.6 3575.2,113.6 3575.2,113.6 C3575.2,113.6 3573.8,111.4 3574.9,110.3 C3576,109.2 3585.8,111.4 3585.8,111.4" id="Shape"></path>
            <path d="M3577.9,104.6 C3577.9,104.6 3577.9,111.6 3574.8,110.5 C3571.7,109.4 3570.3,106.9 3569.2,107.7 C3568.1,108.5 3566.4,110.8 3566.7,111.9 C3567,113 3570.9,111.3 3570.9,111.3" id="Shape"></path>
            <path d="M3682.8,37.5 C3682.8,37.5 3679.2,40 3679.5,44.2 C3679.8,48.4 3680.6,51.4 3684.5,52.8 C3688.4,54.2 3694,49.2 3692.6,46.1 C3691.2,43 3689.3,39.7 3686.7,39.4 C3684.2,39.1 3682.2,39.4 3683.4,44.1 C3684.5,48.8 3687,49.7 3687,49.7" id="Shape"></path>
            <path d="M3683.9,54.5 C3683.9,54.5 3683.1,60.6 3681.9,67 C3680.8,73.4 3675.5,78.4 3676,81.8 C3676.6,85.1 3682.1,86 3685.5,81.5 C3688.8,77 3692.7,66.2 3691.9,63.4 C3691.1,60.6 3689.7,52.8 3688,52.8" id="Shape"></path>
            <path d="M3688.1,59.8 C3688.1,59.8 3694.2,68.2 3696.7,69.3 C3699.2,70.4 3703.7,66 3704.5,64.6 C3705.3,63.2 3710.6,61.5 3709.8,59.9 C3709,58.2 3706.7,58.5 3706.7,58.5 C3706.7,58.5 3704.5,56.3 3703.9,58.2 C3703.3,60.2 3702.5,64.1 3700.6,65.2 C3698.6,66.3 3698.6,66.3 3698.6,66.3 C3698.6,66.3 3693.9,57.4 3691.9,56.3" id="Shape"></path>
            <path d="M3682,56.2 C3682,56.2 3670.3,62.9 3668.1,66.5 C3665.9,70.1 3665.6,76 3663.4,77.1 C3661.2,78.2 3658.1,80.2 3658.7,82.1 C3659.3,84.1 3662.9,80.1 3662.9,80.1 L3664.9,82.6 C3664.9,82.6 3666.3,74.5 3669.6,71.7 C3672.9,68.9 3682.1,63.3 3682.1,63.3" id="Shape"></path>
            <path d="M3686.7,78.5 C3687.8,78.2 3703.4,86.6 3703.1,88.5 C3702.8,90.4 3691.1,100.8 3690.3,104.1 C3689.5,107.4 3692.3,109.1 3692.3,109.1 C3692.3,109.1 3696.5,108.5 3695.9,110.5 C3695.3,112.5 3690,111.6 3690,111.6 C3690,111.6 3686.4,107.7 3684.4,107.1 C3682.4,106.5 3686.4,97.9 3690.3,94 C3694.2,90.1 3696.2,87.3 3696.2,87.3 C3696.2,87.3 3693.7,92.9 3680.9,80.6" id="Shape"></path>
            <path d="M3676.1,83.8 C3676.1,83.8 3675.5,92.4 3672.8,95.5 C3670.1,98.6 3661.9,104.1 3660.3,107.2 C3658.6,110.3 3658.6,110.3 3658.6,110.3 C3658.6,110.3 3658.9,115.9 3660.8,115.6 C3662.8,115.3 3662.2,110.9 3663,109.2 C3663.8,107.5 3676.4,101.7 3678.6,97.5 C3680.8,93.3 3683.3,85.8 3683.1,83.8" id="Shape"></path>
            <path d="M3762.3,0.9 C3758.7,2.2 3755.6,7.6 3758.1,11.5 C3760.6,15.4 3764.2,18.7 3768.4,17.6 C3772.6,16.5 3772.9,15.1 3771.7,10.1 C3770.7,5.1 3767.6,-1.1 3762.3,0.9 Z" id="Shape"></path>
            <path d="M3763.7,18.2 C3763.7,18.2 3761.5,21.3 3762.6,32.7 C3763.7,44.1 3762,43 3760.9,50.3 C3759.8,57.5 3764.5,61.7 3768.1,62 C3771.7,62.3 3776.2,60.9 3774.5,54.2 C3772.8,47.5 3770,43.1 3771.7,39.2 C3773.4,35.3 3778.1,35.6 3775.3,31.7 C3772.5,27.8 3772,28.1 3770.3,23.9 C3768.6,19.7 3768.3,17.8 3768.3,17.8" id="Shape"></path>
            <path d="M3765.9,26.8 C3765.9,26.8 3768.1,36.8 3772.9,42.1 C3777.6,47.4 3783.2,53.5 3785.4,54.6 C3787.6,55.7 3786.5,51.8 3786.5,51.8 C3786.5,51.8 3791.8,54 3791.5,52.4 C3791.2,50.7 3779.5,45.7 3778.7,44.3 C3777.9,42.9 3774,35.9 3774,35.9" id="Shape"></path>
            <path d="M3761.5,22.9 C3761.5,22.9 3759,37.9 3756.2,42.1 C3753.4,46.3 3751.2,53 3749.8,55.5 C3748.4,58 3745.1,61.9 3745.9,62.7 C3746.7,63.5 3751.2,58.2 3751.2,58.2 C3751.2,58.2 3752.6,62.7 3752.6,61.8 C3752.6,61 3757.6,40.6 3762.4,33.9" id="Shape"></path>
            <path d="M3765.6,58.3 C3765.6,58.3 3769.2,74.2 3770.9,77 C3772.6,79.8 3772.6,92 3775.6,95.9 C3778.7,99.8 3779.2,106.8 3780.6,111.8 C3782,116.8 3787.8,113.2 3787.8,113.2 C3787.8,113.2 3794.2,114.9 3794.5,113.8 C3794.8,112.7 3784.7,106 3784.7,106 C3784.7,106 3776.6,67.3 3773.3,60" id="Shape"></path>
            <path d="M3760.6,57.5 C3760.6,58.3 3761.2,76.7 3758.9,80.3 C3756.7,83.9 3751.9,91.4 3748,102 C3744.1,112.6 3741.9,111.5 3741.9,111.5 C3741.9,111.5 3747.5,110.9 3750.5,111.5 C3753.6,112.1 3764.4,116.2 3759.1,112.1 C3753.8,107.9 3751,105.7 3751.3,102.3 C3751.6,98.9 3758.8,89.5 3762.2,82.2 C3765.5,75 3767.8,69.9 3767.2,66" id="Shape"></path>
            <path d="M3850,18.9 C3850,18.9 3852.5,18.9 3854.7,19.7 C3856.9,20.5 3856.1,23.3 3853.9,27.8 C3851.7,32.3 3849.7,46.2 3850.3,52.3 C3850.9,58.4 3847.2,64.6 3842.8,66 C3838.3,67.4 3835.6,59.6 3834.4,55.4 C3833.3,51.2 3835,44.8 3835.5,43.4 C3836.1,42 3835.2,27.2 3839.4,22.8 C3843.6,18.4 3851.4,17.8 3854.4,16.9 C3857.5,16.1 3856.6,13.8 3858.6,12.7 C3860.6,11.6 3863.9,12.7 3863.9,12.7 C3863.9,12.7 3867,16.9 3867,20.2 C3867,23.5 3869,25.8 3869,25.8 L3865.1,22.7 C3865.1,22.7 3863.7,26 3861.2,25.8 C3858.7,25.5 3856.5,26.4 3856.2,23.8" id="Shape"></path>
            <path d="M3833.9,58.5 C3833.9,58.5 3838.9,75.5 3837.8,83.9 C3836.7,92.3 3835.6,105.9 3833.9,109.5 C3832.2,113.1 3837.2,112.3 3840.6,113.1 C3843.9,113.9 3849.5,115.6 3848.1,112.8 C3846.7,110 3843.1,109.7 3841.4,107.5 C3839.7,105.3 3839.7,103.3 3841.4,97.7 C3843.1,92.1 3847.3,77.9 3842.8,62.9" id="Shape"></path>
            <path d="M3846.1,65.2 C3846.1,65.2 3848.1,79.7 3846.4,85.8 C3844.7,91.9 3843.3,102 3844.2,104.2 C3845,106.4 3851.2,103.4 3852,106.2 C3852.8,109 3851.2,110.1 3849.8,109.3 C3848.4,108.5 3843.9,108.5 3843.9,108.5" id="Shape"></path>
            <path d="M3847.8,28.9 C3847.8,28.9 3847,46.5 3849.8,50.9 C3852.6,55.3 3854.5,55.1 3854,59 C3853.4,62.9 3855.4,61.8 3855.4,61.8 L3856.2,57.3 C3856.2,57.3 3860.7,61.2 3861.8,59.5 C3862.9,57.8 3857.9,54.2 3857.9,54.2 C3857.9,54.2 3851.2,55.6 3852.6,30.5" id="Shape"></path>
            <path d="M3860.4,61.3 L3859.8,112" id="Shape"></path>
            <path d="M3936.3,37.6 C3936.3,37.6 3932.4,37 3931.1,38.9 C3929.8,40.7 3929.6,43.8 3931,46.4 C3932.4,49 3934.3,51.3 3936.4,50.9 C3938.5,50.5 3940.3,44.9 3939.3,42.7 C3938.3,40.5 3937.2,38.9 3936.1,38.4" id="Shape"></path>
            <path d="M3931.2,48 C3931.2,48 3925.1,48.8 3923.4,52.2 C3921.7,55.5 3922.1,66.4 3924,70.9 C3925.9,75.4 3927.3,80.8 3935,81.9 C3942.7,83 3949.2,82.3 3948.8,80.2 C3948.4,78.1 3945.3,74.8 3942.4,72.4 C3939.5,70 3934.2,65.6 3933.9,58.9 C3933.6,52.2 3934.6,51.1 3933.6,49.8" id="Shape"></path>
            <path d="M3930.1,57.4 C3930.5,57.8 3930.2,70.1 3936.6,72.2 C3943,74.3 3947.3,70.4 3952.1,71.2 C3956.9,72 3959.8,73.4 3957.7,74.1 C3955.6,74.8 3953.8,73 3952.5,73" id="Shape"></path>
            <path d="M3920.6,57.4 C3919.9,57.3 3917.1,58.4 3915.7,58.8 C3914.3,59.2 3911,60.8 3911.5,59.1 C3912.1,57.4 3913.9,55.3 3916.8,55.6 C3919.7,55.9 3920.8,54.5 3921.1,60.8 C3921.4,67.1 3923.5,83.8 3927.6,87.7 C3931.8,91.6 3937.4,91.3 3941.1,90.5 C3944.9,89.7 3954.6,85.3 3956.1,86 C3957.6,86.7 3958.6,102.6 3959,103.6 C3959.4,104.6 3965,103.9 3967.6,103.5 C3970.2,103.1 3975.3,102.4 3975.4,100.7 C3975.5,99 3978.2,98.2 3975.3,98.2 C3972.4,98.2 3965,100.7 3964.6,100 C3964.2,99.3 3966.4,75.8 3964.3,75.1 C3962.2,74.4 3959,74 3959,74" id="Shape"></path>
            <path d="M3954.2,74.2 C3954.2,74.2 3947.9,76 3946.1,75.5" id="Shape"></path>
            <path d="M3924.4,81.2 C3924.4,81.2 3910.3,83.7 3910.6,96.5 C3910.9,109.3 3920.2,114.7 3930,114.1 C3939.8,113.5 3950.1,107.7 3949.5,98.1 C3948.9,88.5 3940.3,85.3 3940.3,85.3" id="Shape"></path>
            <path d="M3929.2,89 C3929.3,89.7 3929.8,96.2 3929.8,96.2 C3929.8,96.2 3926.5,96.2 3926.7,98 C3927,99.8 3929.2,100.5 3930.5,99.8 C3931.8,99.1 3932.2,96.3 3929.8,96.2" id="Shape"></path>
            <path d="M3958.9,104.2 C3958.9,104.2 3953,107.3 3953.9,110.7 C3954.8,114.1 3957,114.9 3957.9,114.7 C3958.8,114.5 3962.5,111.2 3962.5,108.7 C3962.5,106.2 3962.2,103.6 3958.9,104.2 Z" id="Shape"></path>
            <path d="M2972,119 C2973.5,118.7 3253.3,117.9 3253.3,117.9 L3258.8,112 C3258.8,112 3263.7,126.9 3263.7,125.5 C3263.7,124.1 3270.7,96.4 3270.7,96.4 C3270.7,96.4 3276.5,140.1 3277,139.1 C3277.5,138.1 3281.3,118.1 3281.3,118.1 L3335.4,118.3 C3335.4,118.3 3337.3,112.3 3337.4,112.5 L3340.8,124.2 C3340.9,124.4 3341.2,124.4 3341.2,124.1 L3345.6,97.8 C3345.6,97.7 3345.8,97.7 3345.8,97.8 C3346.2,103.6 3348,130.8 3349.4,136.8 C3349.4,136.8 3349.4,136.8 3349.4,136.8 C3350.4,134.4 3351.7,117.3 3351.7,117.3 L3401.2,117.4 L3402.7,113.4 C3402.7,113.3 3403,112 3403,112.1 C3403.6,114.2 3404.6,119.8 3406.3,124.8 C3407.1,123.1 3410.5,106.8 3410.6,107.2 L3412.8,125.4 C3412.8,125.7 3413.8,131 3413.8,130.7 L3417.5,116.9 L4000,119" id="Shape"></path>
            <path d="M2405,119 C2408.8,119.1 2748.5,120 2748.5,120 L2754,114.1 C2754,114.1 2758.9,129 2758.9,127.6 C2758.9,126.2 2765.9,98.5 2765.9,98.5 C2765.9,98.5 2771.7,142.2 2772.2,141.2 C2772.7,140.2 2776.5,120.2 2776.5,120.2 L2830.6,120.4 C2830.6,120.4 2832.5,114.4 2832.6,114.6 L2836,126.3 C2836.1,126.5 2836.4,126.5 2836.4,126.2 L2840.8,99.9 C2840.8,99.8 2841,99.8 2841,99.9 C2841.4,105.7 2843.2,132.9 2844.6,138.9 C2844.6,138.9 2844.6,138.9 2844.6,138.9 C2845.6,136.5 2846.9,119.4 2846.9,119.4 L2896.4,119.5 L2898,114.1 C2898,114 2898.2,114 2898.2,114.1 C2898.8,116.2 2899.8,121.8 2901.5,126.8 C2902.3,125.1 2908.7,99.1 2908.8,99.5 L2914.4,137.7 C2914.4,138 2914.8,138 2914.9,137.7 L2917.4,118.8 L2972.6,118.9" id="Shape"></path>
            <path d="M1892,119 C1895.7,119.1 2178.2,119.4 2178.2,119.4 L2183.7,113.5 C2183.7,113.5 2188.5,128.4 2188.5,127.1 C2188.5,125.8 2195.6,98 2195.6,98 C2195.6,98 2201.2,141.7 2201.7,140.7 C2202.2,139.7 2206.1,119.7 2206.1,119.7 L2260.2,120.2 C2260.2,120.2 2262.2,114.2 2262.2,114.4 L2265.5,126.1 C2265.6,126.3 2265.9,126.3 2265.9,126 L2270.5,99.7 C2270.5,99.6 2270.7,99.6 2270.7,99.7 C2271,105.5 2272.7,132.7 2274.1,138.7 C2274.1,138.7 2274.1,138.7 2274.1,138.7 C2275.1,136.3 2276.5,119.2 2276.5,119.2 L2326,119.6 L2327.6,114.3 C2327.6,114.2 2327.8,114.2 2327.8,114.3 C2328.4,116.4 2329.4,122 2331,127 C2331.8,125.3 2338.4,99.3 2338.5,99.7 L2343.9,138 C2343.9,138.3 2344.3,138.3 2344.4,138 L2346,118.7 L2405.3,119" id="Shape"></path>
            <path d="M1607.3,119.6 C1611,119.7 1627.1,119.5 1627.1,119.5 L1632.6,113.6 C1632.6,113.6 1637.4,128.5 1637.4,127.2 C1637.4,125.9 1644.5,98.1 1644.5,98.1 C1644.5,98.1 1650.1,141.8 1650.6,140.8 C1651.1,139.8 1655,119.8 1655,119.8 L1709.1,120.3 C1709.1,120.3 1711.1,114.3 1711.1,114.5 L1714.4,126.2 C1714.5,126.4 1714.8,126.4 1714.8,126.1 L1719.4,99.8 C1719.4,99.7 1719.6,99.7 1719.6,99.8 C1719.9,105.6 1721.6,132.8 1723,138.8 C1723,138.8 1723,138.8 1723,138.8 C1724,136.4 1725.4,119.3 1725.4,119.3 L1774.9,119.7 L1776.5,114.4 C1776.5,114.3 1776.7,114.3 1776.7,114.4 C1777.3,116.5 1778.3,122.1 1779.9,127.1 C1780.7,125.4 1787.3,99.4 1787.4,99.8 L1792.8,138.1 C1792.8,138.4 1793.2,138.4 1793.3,138.1 L1795.9,119.2 L1893.4,119" id="Shape"></path>
            <path d="M728,120 C731.8,120.1 1071.5,121 1071.5,121 L1077,115.1 C1077,115.1 1081.9,130 1081.9,128.6 C1081.9,127.2 1088.9,99.5 1088.9,99.5 C1088.9,99.5 1094.7,143.2 1095.2,142.2 C1095.7,141.2 1099.5,121.2 1099.5,121.2 L1153.6,121.4 C1153.6,121.4 1155.5,115.4 1155.6,115.6 L1159,127.3 C1159.1,127.5 1159.4,127.5 1159.4,127.2 L1163.8,100.9 C1163.8,100.8 1164,100.8 1164,100.9 C1164.4,106.7 1166.2,133.9 1167.6,139.9 C1167.6,139.9 1167.6,139.9 1167.6,139.9 C1168.6,137.5 1169.9,120.4 1169.9,120.4 L1219.4,120.5 L1221,115.1 C1221,115 1221.2,115 1221.2,115.1 C1221.8,117.2 1222.8,122.8 1224.5,127.8 C1225.3,126.1 1231.7,100.1 1231.8,100.5 L1237.4,138.7 C1237.4,139 1237.8,139 1237.9,138.7 L1240.4,119.8 L1608.1,119.4" id="Shape"></path>
            <path d="M216,119.5 C219.7,119.6 501.2,120.4 501.2,120.4 L506.7,114.5 C506.7,114.5 511.5,129.4 511.5,128.1 C511.5,126.7 518.6,99 518.6,99 C518.6,99 524.2,142.7 524.7,141.7 C525.2,140.7 529.1,120.7 529.1,120.7 L583.2,121.2 C583.2,121.2 585.2,115.2 585.2,115.4 L588.5,127.1 C588.6,127.3 588.9,127.3 588.9,127 L593.5,100.7 C593.5,100.6 593.7,100.6 593.7,100.7 C594,106.5 595.7,133.7 597.1,139.7 C597.1,139.7 597.1,139.7 597.1,139.7 C598.1,137.3 599.5,120.2 599.5,120.2 L649,120.6 L650.6,115.3 C650.6,115.2 650.8,115.2 650.8,115.3 C651.4,117.4 652.4,123 654,128 C654.8,126.3 661.4,100.3 661.5,100.7 L666.9,139 C666.9,139.3 667.3,139.3 667.4,139 L669,119.7 L728.3,120" id="Shape"></path>
            <path d="M0.5,120 L32.1,120.3 C32.1,120.3 34.1,114.3 34.1,114.5 L37.4,126.2 C37.5,126.4 37.8,126.4 37.8,126.1 L42.4,99.8 C42.9,105.6 44.6,132.8 46,138.8 C47,136.4 48.4,119.3 48.4,119.3 L97.9,119.7 L99.5,114.4 C100.3,116.5 101.3,122.1 102.9,127.1 C103.7,125.4 110.3,99.4 110.4,99.8 L115.8,138.1 C115.8,138.3 116.833333,132 118.9,119.2 L217,119.5" id="Shape"></path>
        </g>
    </g>
</svg>