<?xml version="1.0" encoding="UTF-8"?>
<svg width="4000px" height="320px" viewBox="0 0 4000 320" version="1.1" xmlns="http://www.w3.org/2000/svg" xmlns:xlink="http://www.w3.org/1999/xlink">
    <!-- Generator: Sketch 52.3 (67297) - http://www.bohemiancoding.com/sketch -->
    <title>Internasjonal Engelsk</title>
    <desc>Created with Sketch.</desc>
    <g id="Samfunnsfag-Engelsk" stroke="none" stroke-width="1" fill="none" fill-rule="evenodd">
        <g id="internasjonal-engelsk" transform="translate(-17.000000, 28.000000)" stroke="#FFFFFF">
            <path d="M3853.7,75.1 C3853.7,75.1 3830.6,111.8 3856.1,149.4 C3881.6,187 3921.7,179.1 3926.1,178.4 C3930.5,177.7 3978.1,169 3982.6,120.5 C3984.2,83.2 3974,76.9 3969.8,68.9" id="Path"></path>
            <path d="M3866.1,161.4 C3866.1,161.4 3863.7,170.9 3873.1,167.7" id="Path"></path>
            <path d="M3866.6,168.2 C3866.6,168.2 3861.2,174.2 3866.9,180.3 C3878.8,193.2 3903.5,197.2 3914.7,195.4 C3917.6,194.9 3916.9,201.5 3916.7,207.4" id="Path"></path>
            <path d="M3921.5,208.7 C3921.5,208.7 3927.8,210.6 3927.5,214.1 C3927.2,217.6 3923.4,218.2 3922.5,220.4 C3921.6,222.6 3920.6,244.4 3938,250.1 C3955.4,255.8 3955.4,266.2 3954.7,266.8 C3954,267.5 3860.7,267 3879.3,267.1 C3879.3,267.1 3879.9,255.4 3892.6,250.7 C3905.2,246 3911.8,239 3913.4,221 C3911.8,220.1 3906.1,217.8 3906.8,213.1 C3907.3,208.4 3913.9,208.1 3921.5,208.7 Z" id="Path"></path>
            <path d="M3865.7,57.5 C3865.7,57.5 3865.4,65.7 3866.7,67.3 C3868.1,68.9 3910.4,81.3 3955,57.8 C3953.8,51.8 3953.3,51 3953.3,51 C3953.3,51 3904.6,70.1 3865.7,57.5 Z" id="Path"></path>
            <path d="M3953.4,51 C3953.4,51 3943.4,26.1 3951.1,9.2 C3938.5,12.8 3892.3,25.4 3853.5,15.1 C3853.5,15.1 3857.1,21 3857.6,23 C3858.2,25.3 3865.8,37.4 3866,56.6 C3866,57.5 3844.2,53.1 3845.9,62.6 C3847.6,72.5 3872,95.6 3943,80.3 C3985,67.4 3979.4,54.7 3975.7,51.7 C3971.7,48.4 3964.5,45.9 3952.6,48.7" id="Path"></path>
            <path d="M3951.9,8.9 C3950.7,8.3 3919.2,-12.8 3852.4,14.8" id="Path"></path>
            <circle id="Oval" cx="3942.6" cy="98" r="12.2"></circle>
            <path d="M3908.1,127.5 C3907.5,127.3 3903.5,127 3895.7,130.7 C3887.9,134.4 3877.6,133.7 3875.2,131.7 C3872.8,129.7 3874.4,136.2 3884.4,136.6 C3894.3,137 3905,136.3 3908.3,133 C3911.4,129.7 3908.5,127.6 3908.1,127.5 Z" id="Path"></path>
            <path d="M3912.7,127 C3913.3,126.8 3917.3,126.5 3925.1,130.2 C3932.8,133.9 3943.2,133.2 3945.6,131.2 C3948,129.2 3946.4,135.7 3936.4,136.1 C3926.5,136.5 3915.8,135.8 3912.5,132.5 C3909.2,129.2 3912.3,127.1 3912.7,127 Z" id="Path"></path>
            <path d="M3954.6,92.9 C3955.1,92.6 3961.3,91.1 3961.6,94.3 C3961.9,97.5 3960.2,98 3955.6,97.7" id="Path"></path>
            <path d="M3960.5,97.9 C3960,99.4 3958.7,102.8 3959.8,103.1 C3960.9,103.4 3963.1,107.7 3961.4,108.2 C3959.8,108.7 3957.9,111.1 3959.4,112.6 C3961,114.1 3962.5,116.8 3961.1,118.3 C3959.7,119.8 3958.1,120.2 3959.5,121.8 C3960.9,123.4 3963.6,125.3 3961.7,126.4 C3959.8,127.4 3958.1,129.1 3959.6,130.6 C3961.1,132.1 3962.8,135 3961.2,135.8 C3959.6,136.6 3957.6,138 3959.1,139.2 C3960.6,140.4 3963,142.4 3961.2,143.8 C3959.4,145.1 3957.4,148.2 3959.1,148.9 C3960.7,149.6 3963,153.8 3961.2,154 C3959.3,154.2 3957.4,157.2 3959.3,158" id="Path"></path>
            <path d="M3959,158.3 C3960.1,158.6 3962.3,162.9 3960.6,163.4 C3959,163.9 3957.1,166.3 3958.6,167.8 C3960.2,169.3 3961.7,172 3960.3,173.5 C3958.9,175 3957.3,175.4 3958.7,177 C3960,178.7 3962.8,180.5 3960.9,181.6 C3959,182.6 3957.3,184.3 3958.8,185.8 C3960.3,187.3 3962,190.2 3960.4,191 C3958.8,191.8 3956.8,193.2 3958.3,194.4 C3959.8,195.6 3962.2,197.6 3960.4,199" id="Path"></path>
            <ellipse id="Oval" cx="3960.5" cy="205" rx="4.2" ry="7.1"></ellipse>
            <path d="M3732,238 L0.5,236.1" id="Path"></path>
            <path d="M3925.6,238 C3927.1,238 4030,238.4 4030,238.4" id="Path"></path>
            <path d="M3834.6,237.6 C3836.1,237.6 3909.1,237.2 3909.1,237.2" id="Path"></path>
            <path d="M3766.1,191 C3766.1,191 3759.5,192.3 3759.5,193.2 C3759.5,194.1 3772.7,196.6 3785.7,196.3 C3798.7,195.9 3807.7,193.1 3808.2,192.6 C3808.7,192.1 3801.9,190.5 3794.6,189.9 C3785.5,189.2 3768.9,190.4 3766.1,191 Z" id="Path"></path>
            <path d="M3759.3,198.5 C3759.2,197.8 3750.2,196.2 3748.2,203.2 C3746.2,210.2 3755.6,223.3 3766.7,225.4 C3767.5,227.4 3768.4,228.7 3768.4,228.7" id="Path"></path>
            <path d="M3759.5,193.2 L3759.6,199.3" id="Path"></path>
            <path d="M3763.9,217.3 C3764.4,217.5 3759.4,206.3 3759.2,205.4 C3759,204.5 3755.4,201.7 3754.1,204.5 C3752.8,207.3 3752.4,212.2 3763.9,217.3 Z" id="Path"></path>
            <path d="M3808.3,192.6 C3808.3,192.6 3809.4,216.9 3799.7,228.1" id="Path"></path>
            <path d="M3805.9,218.2 C3806.3,218.2 3825.3,219.3 3825,222.2 C3824.7,225.1 3795.8,230.8 3776.7,229.8 C3757.6,228.9 3741.4,227.2 3740.4,224.5 C3739.5,221.8 3751.2,220.1 3754.9,219.9" id="Path"></path>
            <path d="M3824.5,223.2 C3824.5,223.2 3814.5,235.4 3801.2,237 C3787.9,238.6 3760.2,237.2 3760.2,237.2 C3760.2,237.2 3748.6,233.3 3740.9,225.3" id="Path"></path>
            <path d="M3819.6,229.1 C3820.8,229 3830.9,230.6 3830.9,230.6 L3826.4,247 C3826.4,247 3831.4,256.4 3829.5,260.5 C3831.5,255.9 3835.1,241.8 3835.1,241.8 C3835.1,241.8 3834.4,233.1 3831.4,230.5" id="Path"></path>
            <path d="M3746.2,230.7 C3745.7,230.7 3721.7,243.7 3721.6,246.5 C3723.6,247.8 3732.5,257.9 3722.2,262.9 C3725.3,265.8 3726.5,266.1 3727.4,266 C3728.3,265.9 3823.7,266.9 3823.7,266.9 C3823.7,266.9 3827.9,265.2 3829.7,259.7" id="Path"></path>
            <path d="M3722.6,245.8 C3722.9,245.5 3729.4,245.1 3740.5,245.1 C3751.6,245.1 3820.6,247.3 3825.2,246.9" id="Path"></path>
        </g>
    </g>
</svg>