<?xml version="1.0" encoding="UTF-8"?>
<svg width="4000px" height="320px" viewBox="0 0 4000 320" version="1.1" xmlns="http://www.w3.org/2000/svg" xmlns:xlink="http://www.w3.org/1999/xlink">
    <!-- Generator: Sketch 52.5 (67469) - http://www.bohemiancoding.com/sketch -->
    <title>Kokk og servitor</title>
    <desc>Created with Sketch.</desc>
    <g id="Kokk-og-servitor" stroke="none" stroke-width="1" fill="none" fill-rule="evenodd">
        <g id="kokk-og-servitør" transform="translate(3741.000000, 50.000000)" stroke="#FFFFFF">
            <path d="M56,138 C56,138 45,141 53,145 C61,149 112,158 120,185 C128,212 131,208 135,210 C139,212 142,216 142,216" id="Path"></path>
            <path d="M169,196 C169,196 162,190 163,186 C164,182 164,171 161,164 C158,157 162,146 176,145 C182.1,144.6 179,141 173,139 C163,139 154,141 147,152 C143.1,158.1 143,162 136,162 C129,162 114,152 100,147 C87.6,142.6 78,138 57,138" id="Path"></path>
            <path d="M96,139 C97,139 119,147 124,158" id="Path"></path>
            <path d="M118,149 C118,149 119,135 123,139 C125.5,141.5 125.6,150.7 126,152 C127,155 129.2,159.1 130,161" id="Path"></path>
            <path d="M173,195 C173,195 179,202 179,203 C179,204 183,207 182,208 C181,209 154,224 152,225 C150,226 145,232 144,232 C143,232 135,220 136,219 C137,218 165,201 167,199 C169,197 173,195 173,195 Z" id="Path"></path>
            <path d="M145,217 C145,217 144,222 146,223 C148,224 154,221 152,219 C150,217 150,215 145,217 Z" id="Path"></path>
            <path d="M145.7,231.4 C145.7,231.4 164,261 164,263 C164,265 170,274 170,274" id="Path"></path>
            <path d="M182,208 C182,208 221,249 224,251 C227,253 245,269 245,269" id="Path"></path>
            <path d="M8,124 C8,124 12,129 14,129 C16,129 16,134 18,135 C20,136 87,139 96,139 C105,139 172,138 178,138 C184,138 203,141 205,140 C207,139 220,125 219,124 C218,123 85,126 81,126 C77,126 12,124 8,124 Z" id="Path"></path>
            <path d="M16,105 C15,104 0,109 1,112 C2,115 37,115 43,115 C49,115 162,110 169,111 C176,112 229,114 230,113 C231,112 226,107 219,105 C212,103 204,89 200,79 C196,69 175,19 114,22 C53,25 40,48 28,69 C21,88 23,101 21,103 C19,105 16,105 16,105 Z" id="Path"></path>
            <path d="M108,18 C108,18 112,0 115,0 C118,0 119,16 119,18" id="Path"></path>
        </g>
    </g>
</svg>