<?xml version="1.0" encoding="UTF-8"?>
<svg width="4000px" height="320px" viewBox="0 0 4000 320" version="1.1" xmlns="http://www.w3.org/2000/svg" xmlns:xlink="http://www.w3.org/1999/xlink">
    <!-- Generator: Sketch 52.6 (67491) - http://www.bohemiancoding.com/sketch -->
    <title>Kommunikasjon og Kultur</title>
    <desc>Created with Sketch.</desc>
    <g id="Kommunikasjon-og-Kultur" stroke="none" stroke-width="1" fill="none" fill-rule="evenodd">
        <g id="Komunikasjon-og-kultur" transform="translate(32.000000, 25.000000)" stroke="#FFFFFF">
            <path d="M3916,69.8 C3916,69.8 3921,69 3922,72 C3923,75 3926,76 3923,78 C3920,80 3916,85 3915,84 C3914,83 3914,80 3911,80 C3908,80 3905,82 3903,81 C3901,80 3903,79 3900,79 C3897,79 3894,84 3891,84 C3888,84 3888,87 3889,90 C3890,93 3894,95 3896,92 C3898,89 3897,87 3900,87 C3903,87 3905,87 3909,84 C3913,81 3916,90 3916,90 C3916,90 3911,95 3913,96 C3915,97 3917,93 3917,96 C3917,99 3917,107 3913,106 C3909,105 3906,102 3905,103 C3904,104 3902,106 3901,107 C3900,108 3893,107 3890,108 C3887,109 3882,112 3880,112 C3878,112 3880,111 3877,113 C3874,115 3869,118 3866,118 C3863,118 3864,130 3862,131 C3860,132 3859,136 3858,131 C3857,126 3857,119 3851,120 C3845,121 3841,119 3836,124 C3831,129 3829,134 3831,137 C3833,140 3838,137 3840,139 C3842,141 3842,143 3840,144 C3838,145 3835,144 3836,147 C3837,150 3838,148 3839,151 C3840,154 3836,153 3839,159 C3842,165 3846,169 3849,167 C3852,165 3852,160 3855,161 C3858,162 3872,166 3874,169 C3876,172 3878,172 3881,174 C3884,176 3892,183 3893,187 C3894,191 3898,197 3900,198 C3902,199 3917,202 3917,206 C3917,210 3917,214 3914,218 C3911,222 3908,234 3903,238 C3898,242 3892,241 3890,243 C3888,245 3883,259 3880,260 C3877,261 3865,267 3864,271 C3863,275 3860,277 3861,280 C3862,283 3866.5,286.5 3864.5,287.5 C3862.5,288.5 3854,291 3852,285 C3850,279 3849,272 3848,269 C3847,266 3845,271 3846,262 C3847,253 3849,254 3848,249 C3847,244 3851,235 3850,231 C3849,227 3845,226 3846,222 C3847,218 3834,209 3834,204 C3834,199 3832,193 3834,188 C3836,183 3840,182 3841,176 C3842,170 3835,166 3835,164 C3835,162 3838,157 3834,155 C3830,153 3834,149 3831,147 C3828,145 3821,146 3820,139 C3819,132 3821.2,127.5 3820.5,124.5" id="Path"></path>
            <path d="M3856.5,136.5 C3854.4,134.4 3849.5,135.5 3850.5,138.5 C3851.5,141.5 3851.5,142.5 3856.5,142.5 C3861.5,142.5 3865.5,143.5 3867.5,142.5 C3869.5,141.5 3868.5,139.5 3865.5,139.5 C3862.5,139.5 3859.5,139.5 3856.5,136.5 Z" id="Path"></path>
            <path d="M3874.5,151.5 C3872.5,150.5 3870.5,150.5 3866.5,150.5 C3862.5,150.5 3869.5,146.5 3869.5,146.5 C3873.5,145.5 3874.5,147.5 3875.5,148.5 C3876.5,149.5 3874.5,151.5 3874.5,151.5 Z" id="Path"></path>
            <path d="M3927.5,69 C3928.5,73.5 3926.5,74.5 3925.5,77.5 C3924.5,80.5 3923.5,92.5 3927.5,93.5 C3931.5,94.5 3936.5,83.5 3939.5,82.5 C3942.5,81.5 3944.5,82.5 3946.5,80.5 C3948.5,78.5 3950,75 3951.3,73.7" id="Path"></path>
            <path d="M3950.5,87.5 C3947.6,84.6 3938.5,86.5 3938.5,89.5 C3938.5,92.5 3943.5,96.5 3946.5,95.5 C3949.5,94.5 3947.5,93.5 3949.5,91.5 C3951.5,89.5 3951.5,88.5 3950.5,87.5 Z" id="Path"></path>
            <path d="M3968.5,155.5 C3965.5,157.5 3962.5,156.5 3963.5,160.5 C3964.5,164.5 3968.5,162.5 3965.5,169.5 C3962.5,176.5 3958.5,178.5 3961.5,187.5 C3964.5,196.5 3967.5,196.5 3968.5,198.5" id="Path"></path>
            <path d="M3967.5,77.5 C3893.5,48.5 3798.5,98.5 3800.5,195.5 C3806.4,241.4 3823.7,270.6 3845,288.7" id="Path"></path>
            <path d="M3691.3,211.6 C3691.3,211.6 3685.9,217.7 3692,221.6 C3693.3,222.5 3694.4,222.3 3695.1,221.7 C3697.6,219.4 3696.2,209.9 3691.3,211.6 Z" id="Path"></path>
            <path d="M3696.7,223.2 C3697,223.5 3706.9,243.2 3701.4,248.3 C3700.4,249.3 3699.5,249.6 3698.8,249.4 C3695.7,248.8 3695.1,239.4 3694.8,236.7 C3694.7,233.4 3693.5,220.6 3696.7,223.2 Z" id="Path"></path>
            <path d="M3698.1,249 C3698.1,249 3693.5,263 3693.9,264.6 C3694.3,266.3 3697.8,277 3696.8,277.7 C3695.8,278.4 3690.8,277.1 3690.1,278.8 C3689.4,280.5 3695.7,280.3 3696.5,278.9" id="Path"></path>
            <path d="M3700.7,249.6 C3700.7,249.6 3696.8,263.7 3697.5,265.5 C3698.2,267.3 3703.2,277.9 3703.1,278.6 C3703,279.3 3698.8,281 3698.5,279.9 C3698.2,278.8 3700.2,277.8 3701.6,277.9" id="Path"></path>
            <path d="M3699.1,228.8 C3699.2,229.2 3698.3,244.1 3695.1,249.7" id="Path"></path>
            <path d="M3694.5,230.5 C3694.6,231.1 3691.3,242.4 3683.9,245" id="Path"></path>
            <path d="M3667.7,226.6 C3667.7,227.3 3671.6,247.4 3683.9,244.9" id="Path"></path>
            <path d="M3670,221.4 C3669.3,221.6 3659.5,231.6 3662,242.6 C3664.5,253.6 3669.5,242.3 3669,238.6 C3668.4,234.8 3670,224.5 3670.4,223.1 C3670.8,221.7 3670.8,221.1 3670,221.4 Z" id="Path"></path>
            <path d="M3674.7,211.2 C3673.9,211.3 3668.4,214.1 3670.2,217.9 C3672,221.7 3674.1,223.3 3675.9,220.7 C3677.7,218.1 3678.5,210.5 3674.7,211.2 Z" id="Path"></path>
            <path d="M3665.9,247.1 C3666.3,247.2 3671.3,261.9 3670.5,265.4 C3669.7,268.9 3666.2,274.1 3666,275.6 C3665.9,277.1 3670.3,274.6 3671.2,276.4 C3672,278.2 3667.3,279.1 3665.9,277.1" id="Path"></path>
            <path d="M3664,247.1 C3664.1,247.8 3670.6,261.9 3668,265.7 C3665.5,269.5 3659.9,274.5 3660.3,276.2 C3660.7,277.9 3665.2,280.7 3664.9,278.3 C3664.6,275.9 3663.2,275.2 3662.1,275.1" id="Path"></path>
            <path d="M3618.5,212.6 C3618.5,212.6 3611.9,216.2 3613.3,220.7 C3614.7,225.2 3618.9,225 3620.4,221.4 C3621.9,217.8 3621.1,212.6 3618.5,212.6 Z" id="Path"></path>
            <path d="M3615.3,225.6 C3615.3,225.6 3605.3,244.9 3611,249.9 C3616.7,254.9 3620.6,222.2 3615.3,225.6 Z" id="Path"></path>
            <path d="M3613.7,227.3 C3613.7,227.3 3603.9,235 3603.8,236.8 C3603.7,238.6 3609,240 3609.2,242 C3609.5,244 3608.6,245.3 3607.1,244.5" id="Path"></path>
            <path d="M3617.6,227.7 C3618.4,227.8 3624.4,238.9 3624,240.3 C3623.6,241.7 3616.6,242 3616.5,242.8 C3616.4,243.6 3617.5,245.3 3618.7,245.3" id="Path"></path>
            <path d="M3610.9,249.9 C3610.9,249.9 3607,265.5 3607.7,267.8 C3608.4,270 3613.3,277.6 3612.3,279 C3611.3,280.4 3603,281.9 3604.6,280.3 C3606.3,278.6 3611,277.8 3611.6,277.8" id="Path"></path>
            <path d="M3613.2,250.3 C3613.3,251 3613.8,276.7 3614.2,277 C3614.6,277.3 3623.4,279.2 3620.3,279.9 C3617.2,280.6 3614.3,279.6 3614,278.5" id="Path"></path>
            <path d="M3568.4,226.9 C3568.4,226.9 3577.3,243.9 3574.4,250.1 C3571.5,256.2 3567.8,244.2 3567.4,241.2 C3567,238.1 3564.4,225.9 3568.4,226.9 Z" id="Path"></path>
            <path d="M3563.9,214.1 C3563.9,214.1 3560,220.5 3563.4,223.7 C3566.8,226.9 3570.4,224.7 3569.9,220.8 C3569.4,216.9 3566.2,212.8 3563.9,214.1 Z" id="Path"></path>
            <path d="M3569.2,228.6 C3570.2,229 3578.7,238.6 3579.9,238.9 C3581.1,239.2 3585.3,224.2 3585.8,224.1 C3586.2,224 3589.8,224.4 3589.8,222.7" id="Path"></path>
            <path d="M3565.6,229.5 C3565.6,229.5 3559.5,242.8 3561.3,244.3 C3563.1,245.8 3571.9,241.2 3572.2,239.7" id="Path"></path>
            <path d="M3571.2,251.3 C3571.2,252.3 3566.9,277.3 3565.5,278.1 C3564.1,278.9 3558.5,277 3558.9,279.2 C3559.3,281.4 3564.8,280.6 3565.3,279.5" id="Path"></path>
            <path d="M3574,252.3 C3574.7,253 3575.8,275.7 3576.8,277.3 C3577.8,278.9 3583.4,277 3582.5,279.1 C3581.6,281.2 3576.8,281.2 3576.5,279.4" id="Path"></path>
            <path d="M3510.7,213.4 C3510.7,213.4 3505.4,221.9 3512.5,223.2 C3519.6,224.5 3515.8,214.4 3515.2,213.9 C3514.5,213.3 3512.6,212.3 3510.7,213.4 Z" id="Path"></path>
            <path d="M3514.8,224.8 C3514.8,224.8 3512.4,247.5 3515.9,249.9 C3519.4,252.3 3521.2,251.3 3520.8,244 C3520.4,236.8 3516.7,224.5 3514.8,224.8 Z" id="Path"></path>
            <path d="M3514,227 C3514,227.4 3505.6,243 3521.8,250" id="Path"></path>
            <path d="M3516.9,227.7 C3517.3,227.7 3523.6,245.6 3524.2,247.8" id="Path"></path>
            <path d="M3515.9,249.9 C3515.9,249.9 3518.7,258.7 3515.8,265.9 C3512.9,273.2 3509.4,276.5 3508.4,277.6 C3507.4,278.7 3513.7,280.1 3514.7,278.3 C3515.7,276.5 3514.3,275.6 3512.2,276.2" id="Path"></path>
            <path d="M3519.8,251.1 C3519.9,251.5 3523.7,275.9 3524.4,276.6 C3525.1,277.3 3529.7,278.7 3530.4,277 C3531.1,275.3 3528.6,274.5 3526.8,274.8" id="Path"></path>
            <path d="M3500.6,213.9 C3500,213.9 3493.5,214.9 3494.5,220.2 C3495.5,225.5 3502.6,222.6 3502.6,219.1 C3502.5,215.5 3502.4,213.7 3500.6,213.9 Z" id="Path"></path>
            <path d="M3493.7,223.5 C3493.7,223.5 3481.3,245.1 3484.8,250.7 C3488.3,256.3 3494.4,234.4 3494.4,229.6 C3494.4,224.9 3494.4,223.2 3493.7,223.5 Z" id="Path"></path>
            <path d="M3503.4,221.8 C3503.4,222.8 3502.7,233.1 3501.6,234.2 C3500.5,235.3 3493.5,230.6 3492.8,229" id="Path"></path>
            <path d="M3492.2,225.9 C3492.2,225.9 3482.4,236.6 3479.8,245.9" id="Path"></path>
            <path d="M3485.2,252 C3485.2,252 3485.6,263.9 3484.9,268.5 C3484.2,273.1 3483.1,277.7 3483.1,277.7 C3483.1,277.7 3488.4,276.7 3489,278.5 C3489.6,280.3 3485,280.7 3483.7,279.8" id="Path"></path>
            <path d="M3487.6,251.4 C3488,252.2 3492.9,262.7 3492.5,264.2 C3492.1,265.7 3488.7,275.2 3489.2,275.8 C3489.6,276.4 3497.9,276.1 3496.3,277.5 C3494.8,278.9 3493.2,278.9 3492,277.6" id="Path"></path>
            <path d="M3430.4,222.6 C3429.9,222.7 3426.7,223.6 3427.5,227 C3428.3,230.4 3434.4,233.2 3435.7,230.2 C3437,227.1 3434.7,221.4 3430.4,222.6 Z" id="Path"></path>
            <path d="M3437.8,231 C3437.9,231 3438.4,231.8 3439.2,232.9 C3441.8,236.7 3447.1,245.1 3447.5,248.3 C3448,252.5 3449,259.2 3446.5,259.9 C3444,260.7 3436.5,248 3437,241 C3437.5,233.9 3438.9,234.3 3438.9,234.3" id="Path"></path>
            <path d="M3450.8,242.8 C3450.9,243.3 3451.3,260.6 3450.7,261 C3450.1,261.4 3441.4,260 3440.9,260.7 C3440.4,261.5 3440.3,280 3440.3,280" id="Path"></path>
            <path d="M3447.2,263.2 L3449.3,279.4" id="Path"></path>
            <path d="M3402.7,279 C3402.6,278.1 3402.2,251.1 3407.6,250.7" id="Path"></path>
            <path d="M3429.8,250.3 C3429.8,250.3 3433.2,248.7 3433.1,261 C3433,273.4 3433,278.7 3433,278.7" id="Path"></path>
            <path d="M3403.4,250.2 C3404.2,250.1 3433.3,249.8 3433.3,249.8" id="Path"></path>
            <path d="M3409.7,232 C3409.7,232.4 3412.9,247.7 3412.9,247.7 L3431.2,247.1" id="Path"></path>
            <path d="M3439.7,236.4 C3439.6,237 3442.9,247.6 3423.7,245.7" id="Path"></path>
            <path d="M3445.8,257.5 C3445.4,257.5 3430.4,256 3429.6,257.5 C3428.8,259 3423.7,276.1 3422.3,277.2 C3420.9,278.3 3416.1,275.4 3416.9,277.5 C3417.7,279.5 3421.6,280.3 3423.8,278.5 C3426,276.7 3432.3,259.7 3432.6,258.7" id="Path"></path>
            <path d="M3742.2,220.5 C3742.2,220.5 3755.3,236.6 3753.5,243.7 C3751.7,250.8 3745.3,238.9 3744.2,235.8 C3743.1,232.7 3737.7,220.4 3742.2,220.5 Z" id="Path"></path>
            <path d="M3732.2,211.8 C3732.2,211.8 3734.3,219.6 3739.4,219.3 C3744.4,219 3745.4,214.6 3742,212 C3738.5,209.4 3732.8,209 3732.2,211.8 Z" id="Path"></path>
            <path d="M3743.4,222.1 C3744.5,222.3 3755.6,230.7 3757,230.7 C3758.4,230.7 3759.6,214 3760,213.8 C3760.4,213.6 3764.3,213.2 3764,211.5" id="Path"></path>
            <path d="M3739.8,224 C3739.8,224 3736.2,239.3 3738.4,240.6 C3740.6,241.8 3749,235.1 3748.9,233.4" id="Path"></path>
            <path d="M3750.7,246.1 C3750.7,247.2 3746,274.1 3744.5,275 C3743,275.9 3737,273.8 3737.4,276.2 C3737.9,278.6 3743.7,277.7 3744.3,276.5" id="Path"></path>
            <path d="M3753.7,247.2 C3754.5,248 3755.7,272.5 3756.7,274.2 C3757.8,275.9 3763.8,273.9 3762.9,276.2 C3762,278.5 3756.7,278.5 3756.4,276.5" id="Path"></path>
            <path d="M3354.9,211.8 C3354.9,211.8 3349.5,217.9 3355.6,221.8 C3356.9,222.7 3358,222.5 3358.7,221.9 C3361.3,219.6 3359.8,210.1 3354.9,211.8 Z" id="Path"></path>
            <path d="M3360.4,223.4 C3360.7,223.7 3370.6,243.4 3365.1,248.5 C3364.1,249.5 3363.2,249.8 3362.5,249.6 C3359.4,249 3358.8,239.6 3358.5,236.9 C3358.3,233.6 3357.2,220.8 3360.4,223.4 Z" id="Path"></path>
            <path d="M3361.8,249.2 C3361.8,249.2 3357.2,263.2 3357.6,264.8 C3358,266.5 3361.5,277.2 3360.5,277.9 C3359.5,278.6 3354.5,277.3 3353.8,279 C3353.1,280.7 3359.4,280.5 3360.2,279.1" id="Path"></path>
            <path d="M3364.3,249.8 C3364.3,249.8 3360.4,263.9 3361.1,265.7 C3361.8,267.5 3366.8,278.1 3366.7,278.8 C3366.6,279.5 3362.4,281.2 3362.1,280.1 C3361.8,279 3363.8,278 3365.2,278.1" id="Path"></path>
            <path d="M3362.7,229 C3362.8,229.4 3361.9,244.3 3358.7,249.9" id="Path"></path>
            <path d="M3358.1,230.7 C3358.2,231.3 3354.9,242.6 3347.5,245.2" id="Path"></path>
            <path d="M3331.4,226.8 C3331.4,227.5 3335.3,247.6 3347.6,245.1" id="Path"></path>
            <path d="M3333.6,221.6 C3332.9,221.8 3323.1,231.8 3325.6,242.8 C3328.1,253.8 3333.1,242.5 3332.6,238.8 C3332,235 3333.6,224.7 3334,223.3 C3334.4,221.9 3334.4,221.3 3333.6,221.6 Z" id="Path"></path>
            <path d="M3338.3,211.4 C3337.5,211.5 3332,214.3 3333.8,218.1 C3335.6,221.9 3337.7,223.5 3339.5,220.9 C3341.4,218.2 3342.1,210.7 3338.3,211.4 Z" id="Path"></path>
            <path d="M3329.5,247.3 C3329.9,247.4 3334.9,262.1 3334.1,265.6 C3333.3,269.1 3329.8,274.3 3329.6,275.8 C3329.5,277.3 3333.9,274.8 3334.8,276.6 C3335.6,278.4 3330.9,279.3 3329.5,277.3" id="Path"></path>
            <path d="M3327.6,247.3 C3327.7,248 3334.2,262.1 3331.6,265.9 C3329.1,269.7 3323.5,274.7 3323.9,276.4 C3324.3,278.1 3328.8,280.9 3328.5,278.5 C3328.2,276.1 3326.8,275.4 3325.7,275.3" id="Path"></path>
            <path d="M3282.1,211.8 C3282.1,211.8 3275.5,215.4 3276.9,219.9 C3278.3,224.4 3282.5,224.2 3284,220.6 C3285.5,217 3284.7,211.8 3282.1,211.8 Z" id="Path"></path>
            <path d="M3278.9,224.8 C3278.9,224.8 3268.9,244.1 3274.6,249.1 C3280.3,254.1 3284.2,221.4 3278.9,224.8 Z" id="Path"></path>
            <path d="M3277.4,226.4 C3277.4,226.4 3267.6,234.1 3267.5,235.9 C3267.4,237.7 3272.7,239.1 3272.9,241.1 C3273.2,243.1 3272.3,244.4 3270.8,243.6" id="Path"></path>
            <path d="M3281.3,226.9 C3282.1,227 3288.1,238.1 3287.7,239.5 C3287.3,240.9 3280.3,241.2 3280.2,242 C3280.1,242.8 3281.2,244.5 3282.4,244.5" id="Path"></path>
            <path d="M3274.6,249.1 C3274.6,249.1 3270.7,264.7 3271.4,267 C3272.1,269.2 3277,276.8 3276,278.2 C3275,279.6 3266.7,281.1 3268.3,279.5 C3270,277.8 3274.7,277 3275.3,277" id="Path"></path>
            <path d="M3276.8,249.5 C3276.9,250.2 3277.4,275.9 3277.8,276.2 C3278.2,276.5 3287,278.4 3283.9,279.1 C3280.8,279.8 3277.9,278.8 3277.6,277.7" id="Path"></path>
            <path d="M3232,226.1 C3232,226.1 3240.9,243.1 3238,249.3 C3235.1,255.4 3231.4,243.4 3231,240.4 C3230.6,237.2 3228,225.1 3232,226.1 Z" id="Path"></path>
            <path d="M3227.5,213.3 C3227.5,213.3 3223.6,219.7 3227,222.9 C3230.4,226.1 3234,223.9 3233.5,220 C3233,216.1 3229.8,212 3227.5,213.3 Z" id="Path"></path>
            <path d="M3232.9,227.8 C3233.9,228.2 3242.4,237.8 3243.6,238.1 C3244.8,238.4 3249,223.4 3249.5,223.3 C3249.9,223.2 3253.5,223.6 3253.5,221.9" id="Path"></path>
            <path d="M3229.2,228.7 C3229.2,228.7 3223.1,242 3224.9,243.5 C3226.7,245 3235.5,240.4 3235.8,238.9" id="Path"></path>
            <path d="M3234.8,250.5 C3234.8,251.5 3230.5,276.5 3229.1,277.3 C3227.7,278.1 3222.1,276.2 3222.5,278.4 C3222.9,280.6 3228.4,279.8 3228.9,278.7" id="Path"></path>
            <path d="M3237.6,251.5 C3238.3,252.2 3239.4,274.9 3240.4,276.5 C3241.4,278.1 3247,276.2 3246.1,278.3 C3245.2,280.4 3240.4,280.4 3240.1,278.6" id="Path"></path>
            <path d="M3174.4,213.6 C3174.4,213.6 3169.1,222.1 3176.2,223.4 C3183.3,224.7 3179.5,214.6 3178.9,214.1 C3178.1,213.5 3176.2,212.5 3174.4,213.6 Z" id="Path"></path>
            <path d="M3178.4,224.9 C3178.4,224.9 3176,247.6 3179.5,250 C3183,252.4 3184.8,251.4 3184.4,244.1 C3184,236.9 3180.4,224.7 3178.4,224.9 Z" id="Path"></path>
            <path d="M3177.6,227.2 C3177.6,227.6 3169.2,243.2 3185.4,250.2" id="Path"></path>
            <path d="M3180.5,227.9 C3180.9,227.9 3187.2,245.8 3187.8,248" id="Path"></path>
            <path d="M3179.5,250.1 C3179.5,250.1 3182.3,258.9 3179.4,266.1 C3176.5,273.4 3173,276.7 3172,277.8 C3171,278.9 3177.3,280.3 3178.3,278.5 C3179.3,276.7 3177.9,275.8 3175.8,276.4" id="Path"></path>
            <path d="M3183.4,251.3 C3183.5,251.7 3187.3,276.1 3188,276.8 C3188.7,277.5 3193.3,278.9 3194,277.2 C3194.7,275.5 3192.2,274.7 3190.4,275" id="Path"></path>
            <path d="M3164.2,214.1 C3163.6,214.1 3157.1,215.1 3158.1,220.4 C3159.1,225.7 3166.2,222.8 3166.2,219.3 C3166.1,215.7 3166,213.9 3164.2,214.1 Z" id="Path"></path>
            <path d="M3157.4,223.7 C3157.4,223.7 3145,245.3 3148.5,250.9 C3152,256.5 3158.1,234.6 3158.1,229.8 C3158.1,225 3158.1,223.4 3157.4,223.7 Z" id="Path"></path>
            <path d="M3167,222 C3167,223 3166.3,233.3 3165.2,234.4 C3164.1,235.5 3157.1,230.8 3156.4,229.2" id="Path"></path>
            <path d="M3155.8,226.1 C3155.8,226.1 3146,236.8 3143.4,246.1" id="Path"></path>
            <path d="M3148.8,252.1 C3148.8,252.1 3149.2,264 3148.5,268.6 C3147.8,273.2 3146.7,277.8 3146.7,277.8 C3146.7,277.8 3152,276.8 3152.6,278.6 C3153.2,280.4 3148.6,280.8 3147.3,279.9" id="Path"></path>
            <path d="M3151.2,251.6 C3151.6,252.4 3156.5,262.9 3156.1,264.4 C3155.7,265.9 3152.3,275.4 3152.8,276 C3153.2,276.6 3161.5,276.3 3159.9,277.7 C3158.4,279.1 3156.8,279.1 3155.6,277.8" id="Path"></path>
            <path d="M3738.7,209.9 C3738.7,209.9 3736.7,213 3737,214.4" id="Path"></path>
            <path d="M3754,143.1 C3754,143.1 3756.8,141.2 3756.8,139.2" id="Path"></path>
            <path d="M3102.7,212 C3102.7,212 3097.3,218.1 3103.4,222 C3104.7,222.9 3105.8,222.7 3106.5,222.1 C3109,219.8 3107.6,210.3 3102.7,212 Z" id="Path"></path>
            <path d="M3108.1,223.6 C3108.4,223.9 3118.3,243.6 3112.8,248.7 C3111.8,249.7 3110.9,250 3110.2,249.8 C3107.1,249.2 3106.5,239.8 3106.2,237.1 C3106,233.8 3104.9,220.9 3108.1,223.6 Z" id="Path"></path>
            <path d="M3109.5,249.4 C3109.5,249.4 3104.9,263.4 3105.3,265 C3105.7,266.6 3109.2,277.4 3108.2,278.1 C3107.2,278.8 3102.2,277.5 3101.5,279.2 C3100.8,280.9 3107.1,280.7 3107.9,279.3" id="Path"></path>
            <path d="M3112,250 C3112,250 3108.1,264.1 3108.8,265.9 C3109.5,267.7 3114.5,278.3 3114.4,279 C3114.3,279.7 3110.1,281.4 3109.8,280.3 C3109.5,279.2 3111.5,278.2 3112.9,278.3" id="Path"></path>
            <path d="M3110.5,229.2 C3110.6,229.6 3109.7,244.5 3106.5,250.1" id="Path"></path>
            <path d="M3105.9,230.9 C3106,231.5 3102.7,242.8 3095.3,245.4" id="Path"></path>
            <path d="M3079.1,226.9 C3079.1,227.6 3083,247.7 3095.3,245.2" id="Path"></path>
            <path d="M3081.3,221.8 C3080.6,222 3070.8,232 3073.3,243 C3075.8,254 3080.8,242.7 3080.3,239 C3079.7,235.2 3081.3,224.9 3081.7,223.5 C3082.2,222.1 3082.2,221.5 3081.3,221.8 Z" id="Path"></path>
            <path d="M3086.1,211.6 C3085.3,211.7 3079.8,214.5 3081.6,218.3 C3083.4,222.1 3085.5,223.7 3087.3,221.1 C3089.1,218.5 3089.8,210.9 3086.1,211.6 Z" id="Path"></path>
            <path d="M3077.3,247.5 C3077.7,247.6 3082.7,262.3 3081.9,265.8 C3081.1,269.3 3077.6,274.5 3077.4,276 C3077.3,277.5 3081.7,275 3082.6,276.8 C3083.4,278.6 3078.7,279.5 3077.3,277.5" id="Path"></path>
            <path d="M3075.3,247.5 C3075.4,248.2 3081.9,262.3 3079.3,266.1 C3076.8,269.9 3071.2,274.9 3071.6,276.6 C3072,278.3 3076.5,281.1 3076.2,278.7 C3075.9,276.3 3074.5,275.6 3073.4,275.5" id="Path"></path>
            <path d="M3029.8,213 C3029.8,213 3023.2,216.6 3024.6,221.1 C3026,225.6 3030.2,225.4 3031.7,221.8 C3033.2,218.2 3032.5,213 3029.8,213 Z" id="Path"></path>
            <path d="M3026.6,226 C3026.6,226 3016.6,245.3 3022.3,250.3 C3028,255.3 3031.9,222.6 3026.6,226 Z" id="Path"></path>
            <path d="M3025.1,227.6 C3025.1,227.6 3015.3,235.3 3015.2,237.1 C3015.1,238.9 3020.4,240.3 3020.6,242.3 C3020.9,244.3 3020,245.6 3018.5,244.8" id="Path"></path>
            <path d="M3029,228.1 C3029.8,228.2 3035.8,239.3 3035.4,240.7 C3035,242.1 3028,242.4 3027.9,243.2 C3027.8,244 3028.9,245.7 3030.1,245.7" id="Path"></path>
            <path d="M3022.3,250.2 C3022.3,250.2 3018.4,265.8 3019.1,268.1 C3019.8,270.4 3024.7,277.9 3023.7,279.3 C3022.7,280.7 3014.4,282.2 3016,280.6 C3017.7,278.9 3022.4,278.1 3023,278.1" id="Path"></path>
            <path d="M3024.5,250.7 C3024.6,251.4 3025.1,277.1 3025.5,277.4 C3025.9,277.7 3034.7,279.6 3031.6,280.3 C3028.5,281 3025.6,280 3025.3,278.9" id="Path"></path>
            <path d="M2979.8,227.3 C2979.8,227.3 2988.7,244.3 2985.8,250.5 C2982.9,256.7 2979.2,244.6 2978.8,241.6 C2978.4,238.4 2975.7,226.3 2979.8,227.3 Z" id="Path"></path>
            <path d="M2975.2,214.5 C2975.2,214.5 2971.3,220.9 2974.7,224.1 C2978.1,227.3 2981.7,225.1 2981.2,221.2 C2980.7,217.3 2977.5,213.2 2975.2,214.5 Z" id="Path"></path>
            <path d="M2980.6,228.9 C2981.6,229.3 2990.1,238.9 2991.3,239.2 C2992.5,239.5 2996.7,224.5 2997.2,224.4 C2997.6,224.3 3001.2,224.7 3001.2,223" id="Path"></path>
            <path d="M2977,229.9 C2977,229.9 2970.9,243.2 2972.7,244.7 C2974.5,246.2 2983.3,241.6 2983.6,240.1" id="Path"></path>
            <path d="M2982.6,251.7 C2982.6,252.7 2978.3,277.7 2976.9,278.5 C2975.5,279.3 2969.9,277.4 2970.3,279.6 C2970.7,281.8 2976.2,281 2976.7,279.9" id="Path"></path>
            <path d="M2985.3,252.7 C2986,253.4 2987.1,276.1 2988.1,277.7 C2989.1,279.3 2994.7,277.4 2993.8,279.5 C2992.9,281.6 2988.1,281.6 2987.8,279.8" id="Path"></path>
            <path d="M2922.1,213.8 C2922.1,213.8 2916.8,222.3 2923.9,223.6 C2931,224.9 2927.2,214.8 2926.6,214.3 C2925.9,213.7 2923.9,212.7 2922.1,213.8 Z" id="Path"></path>
            <path d="M2926.2,225.1 C2926.2,225.1 2923.8,247.8 2927.3,250.2 C2930.8,252.6 2932.6,251.6 2932.2,244.3 C2931.7,237.1 2928.1,224.9 2926.2,225.1 Z" id="Path"></path>
            <path d="M2925.3,227.4 C2925.3,227.8 2916.9,243.4 2933.1,250.4" id="Path"></path>
            <path d="M2928.3,228.1 C2928.7,228.1 2935,246 2935.6,248.2" id="Path"></path>
            <path d="M2927.3,250.2 C2927.3,250.2 2930.1,259 2927.2,266.2 C2924.3,273.5 2920.8,276.8 2919.8,277.9 C2918.8,279 2925.1,280.4 2926.1,278.6 C2927.1,276.8 2925.7,275.9 2923.6,276.5" id="Path"></path>
            <path d="M2931.2,251.5 C2931.3,251.9 2935.1,276.3 2935.8,277 C2936.5,277.7 2941.1,279.1 2941.8,277.4 C2942.5,275.7 2940,274.9 2938.2,275.2" id="Path"></path>
            <path d="M2911.9,214.2 C2911.3,214.2 2904.8,215.2 2905.8,220.5 C2906.8,225.8 2913.9,222.9 2913.9,219.4 C2913.9,215.9 2913.7,214.1 2911.9,214.2 Z" id="Path"></path>
            <path d="M2905.1,223.9 C2905.1,223.9 2892.7,245.5 2896.2,251.1 C2899.7,256.7 2905.8,234.8 2905.8,230 C2905.8,225.3 2905.8,223.6 2905.1,223.9 Z" id="Path"></path>
            <path d="M2914.7,222.2 C2914.7,223.2 2914,233.5 2912.9,234.6 C2911.8,235.7 2904.8,231 2904.1,229.4" id="Path"></path>
            <path d="M2903.6,226.2 C2903.6,226.2 2893.8,236.9 2891.2,246.2" id="Path"></path>
            <path d="M2896.6,252.3 C2896.6,252.3 2897,264.2 2896.3,268.8 C2895.6,273.4 2894.5,278 2894.5,278 C2894.5,278 2899.8,277 2900.4,278.8 C2901,280.6 2896.4,281 2895.1,280.1" id="Path"></path>
            <path d="M2899,251.8 C2899.4,252.6 2904.3,263.1 2903.9,264.6 C2903.5,266.1 2900.1,275.6 2900.6,276.2 C2901,276.8 2909.3,276.5 2907.7,277.9 C2906.1,279.3 2904.6,279.3 2903.4,278" id="Path"></path>
            <path d="M2841.8,222.9 C2841.3,223 2838.1,223.9 2838.9,227.3 C2839.7,230.7 2845.8,233.5 2847.1,230.5 C2848.3,227.5 2846.1,221.8 2841.8,222.9 Z" id="Path"></path>
            <path d="M2849.2,231.4 C2849.3,231.4 2849.8,232.2 2850.6,233.3 C2853.2,237.1 2858.5,245.5 2858.9,248.7 C2859.4,252.9 2860.4,259.6 2857.9,260.3 C2855.4,261.1 2847.9,248.4 2848.4,241.4 C2848.9,234.4 2850.3,234.7 2850.3,234.7" id="Path"></path>
            <path d="M2862.2,243.1 C2862.3,243.6 2862.7,260.9 2862.1,261.3 C2861.5,261.7 2852.8,260.3 2852.3,261 C2851.8,261.8 2851.7,280.3 2851.7,280.3" id="Path"></path>
            <path d="M2858.6,263.6 L2860.7,279.8" id="Path"></path>
            <path d="M2814.1,279.4 C2814,278.5 2813.6,251.5 2819,251.1" id="Path"></path>
            <path d="M2841.1,250.7 C2841.1,250.7 2844.5,249.1 2844.4,261.4 C2844.3,273.8 2844.3,279.1 2844.3,279.1" id="Path"></path>
            <path d="M2814.7,250.6 C2815.5,250.5 2844.6,250.2 2844.6,250.2" id="Path"></path>
            <path d="M2821.1,232.4 C2821.1,232.8 2824.3,248.1 2824.3,248.1 L2842.6,247.5" id="Path"></path>
            <path d="M2851.1,236.8 C2851,237.4 2854.3,248 2835.1,246.1" id="Path"></path>
            <path d="M2857.2,257.9 C2856.8,257.9 2841.8,256.4 2841,257.9 C2840.2,259.4 2835.1,276.5 2833.7,277.6 C2832.3,278.7 2827.5,275.8 2828.3,277.9 C2829.1,280 2833,280.7 2835.2,278.9 C2837.4,277.1 2843.7,260.1 2844,259.1" id="Path"></path>
            <path d="M2766.3,212.2 C2766.3,212.2 2760.9,218.3 2767,222.2 C2768.3,223.1 2769.4,222.9 2770.1,222.3 C2772.6,220 2771.2,210.5 2766.3,212.2 Z" id="Path"></path>
            <path d="M2771.7,223.8 C2772,224.1 2781.9,243.8 2776.4,248.9 C2775.4,249.9 2774.5,250.2 2773.8,250 C2770.7,249.4 2770.1,240 2769.8,237.3 C2769.7,234 2768.5,221.1 2771.7,223.8 Z" id="Path"></path>
            <path d="M2773.1,249.6 C2773.1,249.6 2768.5,263.6 2768.9,265.2 C2769.3,266.8 2772.8,277.6 2771.8,278.3 C2770.8,279 2765.8,277.7 2765.1,279.4 C2764.4,281.1 2770.7,280.9 2771.5,279.5" id="Path"></path>
            <path d="M2775.7,250.2 C2775.7,250.2 2771.8,264.3 2772.5,266.1 C2773.2,267.9 2778.2,278.5 2778.1,279.2 C2778,279.9 2773.8,281.6 2773.5,280.5 C2773.2,279.4 2775.2,278.4 2776.6,278.5" id="Path"></path>
            <path d="M2774.1,229.4 C2774.2,229.8 2773.3,244.7 2770.1,250.3" id="Path"></path>
            <path d="M2769.5,231 C2769.6,231.6 2766.3,242.9 2758.9,245.5" id="Path"></path>
            <path d="M2742.7,227.1 C2742.7,227.8 2746.6,247.9 2758.9,245.4" id="Path"></path>
            <path d="M2745,222 C2744.3,222.2 2734.5,232.2 2737,243.2 C2739.5,254.2 2744.5,242.9 2744,239.2 C2743.4,235.4 2745,225.1 2745.4,223.7 C2745.8,222.2 2745.8,221.7 2745,222 Z" id="Path"></path>
            <path d="M2749.7,211.8 C2748.9,211.9 2743.4,214.7 2745.2,218.5 C2747,222.3 2749.1,223.9 2750.9,221.3 C2752.8,218.6 2753.5,211.1 2749.7,211.8 Z" id="Path"></path>
            <path d="M2740.9,247.6 C2741.3,247.7 2746.3,262.4 2745.5,265.9 C2744.7,269.4 2741.2,274.6 2741,276.1 C2740.9,277.6 2745.3,275.1 2746.2,276.9 C2747,278.7 2742.3,279.6 2740.9,277.6" id="Path"></path>
            <path d="M2739,247.6 C2739.1,248.3 2745.6,262.4 2743,266.2 C2740.5,270 2734.9,275 2735.3,276.7 C2735.7,278.4 2740.2,281.2 2739.9,278.8 C2739.6,276.4 2738.2,275.7 2737.1,275.6" id="Path"></path>
            <path d="M2693.5,212.2 C2693.5,212.2 2686.9,215.8 2688.3,220.3 C2689.7,224.8 2693.9,224.6 2695.4,221 C2696.9,217.4 2696.1,212.2 2693.5,212.2 Z" id="Path"></path>
            <path d="M2690.3,225.2 C2690.3,225.2 2680.3,244.5 2686,249.5 C2691.7,254.5 2695.6,221.8 2690.3,225.2 Z" id="Path"></path>
            <path d="M2688.7,226.8 C2688.7,226.8 2678.9,234.5 2678.8,236.3 C2678.7,238.1 2684,239.5 2684.2,241.5 C2684.5,243.5 2683.6,244.8 2682.1,244" id="Path"></path>
            <path d="M2692.6,227.2 C2693.4,227.3 2699.4,238.4 2699,239.8 C2698.6,241.2 2691.6,241.5 2691.5,242.3 C2691.4,243.1 2692.5,244.8 2693.7,244.8" id="Path"></path>
            <path d="M2685.9,249.4 C2685.9,249.4 2682,265 2682.7,267.3 C2683.4,269.6 2688.3,277.1 2687.3,278.5 C2686.3,279.9 2678,281.4 2679.6,279.8 C2681.3,278.1 2686,277.3 2686.6,277.3" id="Path"></path>
            <path d="M2688.2,249.9 C2688.3,250.6 2688.8,276.3 2689.2,276.6 C2689.6,276.9 2698.4,278.8 2695.3,279.5 C2692.2,280.2 2689.3,279.2 2689,278.1" id="Path"></path>
            <path d="M2643.4,226.5 C2643.4,226.5 2652.3,243.5 2649.4,249.7 C2646.5,255.9 2642.8,243.8 2642.4,240.8 C2642,237.6 2639.3,225.5 2643.4,226.5 Z" id="Path"></path>
            <path d="M2638.9,213.6 C2638.9,213.6 2635,220 2638.4,223.2 C2641.8,226.4 2645.4,224.2 2644.9,220.3 C2644.4,216.4 2641.2,212.3 2638.9,213.6 Z" id="Path"></path>
            <path d="M2644.2,228.1 C2645.2,228.5 2653.7,238.1 2654.9,238.4 C2656.1,238.7 2660.3,223.7 2660.8,223.6 C2661.2,223.5 2664.8,223.9 2664.8,222.2" id="Path"></path>
            <path d="M2640.6,229.1 C2640.6,229.1 2634.5,242.4 2636.3,243.9 C2638.1,245.4 2646.9,240.8 2647.2,239.3" id="Path"></path>
            <path d="M2646.2,250.9 C2646.2,251.9 2641.9,276.9 2640.5,277.7 C2639.1,278.5 2633.5,276.6 2633.9,278.8 C2634.3,281 2639.8,280.2 2640.3,279.1" id="Path"></path>
            <path d="M2649,251.9 C2649.7,252.6 2650.8,275.3 2651.8,276.9 C2652.8,278.5 2658.4,276.6 2657.5,278.7 C2656.6,280.8 2651.8,280.8 2651.5,279" id="Path"></path>
            <path d="M2585.7,214 C2585.7,214 2580.4,222.5 2587.5,223.8 C2594.6,225.1 2590.8,215 2590.2,214.5 C2589.5,213.9 2587.6,212.9 2585.7,214 Z" id="Path"></path>
            <path d="M2589.8,225.3 C2589.8,225.3 2587.4,248 2590.9,250.4 C2594.4,252.8 2596.2,251.8 2595.8,244.5 C2595.4,237.3 2591.7,225 2589.8,225.3 Z" id="Path"></path>
            <path d="M2589,227.6 C2589,228 2580.6,243.6 2596.8,250.6" id="Path"></path>
            <path d="M2591.9,228.2 C2592.3,228.2 2598.6,246.1 2599.2,248.3" id="Path"></path>
            <path d="M2590.9,250.4 C2590.9,250.4 2593.7,259.2 2590.8,266.4 C2587.9,273.7 2584.4,277 2583.4,278.1 C2582.4,279.2 2588.7,280.6 2589.7,278.8 C2590.7,277 2589.3,276.1 2587.2,276.7" id="Path"></path>
            <path d="M2594.8,251.7 C2594.9,252.1 2598.7,276.5 2599.4,277.2 C2600.1,277.9 2604.7,279.3 2605.4,277.6 C2606.1,275.9 2603.6,275.1 2601.8,275.4" id="Path"></path>
            <path d="M2575.6,214.4 C2575,214.4 2568.5,215.4 2569.5,220.7 C2570.5,226 2577.6,223.1 2577.6,219.6 C2577.5,216.1 2577.4,214.3 2575.6,214.4 Z" id="Path"></path>
            <path d="M2568.7,224.1 C2568.7,224.1 2556.3,245.7 2559.8,251.3 C2563.3,256.9 2569.4,235 2569.4,230.2 C2569.4,225.4 2569.4,223.8 2568.7,224.1 Z" id="Path"></path>
            <path d="M2578.3,222.4 C2578.3,223.4 2577.6,233.7 2576.5,234.8 C2575.4,235.9 2568.4,231.2 2567.7,229.6" id="Path"></path>
            <path d="M2567.2,226.4 C2567.2,226.4 2557.4,237.1 2554.8,246.4" id="Path"></path>
            <path d="M2560.2,252.5 C2560.2,252.5 2560.6,264.4 2559.9,269 C2559.2,273.6 2558.1,278.2 2558.1,278.2 C2558.1,278.2 2563.4,277.2 2564,279 C2564.6,280.8 2560,281.2 2558.7,280.3" id="Path"></path>
            <path d="M2562.6,252 C2563,252.8 2567.9,263.3 2567.5,264.8 C2567.1,266.3 2563.7,275.8 2564.2,276.4 C2564.6,277 2572.9,276.7 2571.3,278.1 C2569.7,279.5 2568.2,279.5 2567,278.2" id="Path"></path>
            <path d="M2523.8,213.8 C2523.8,213.8 2518.4,219.9 2524.5,223.8 C2525.8,224.7 2526.9,224.5 2527.6,223.9 C2530.1,221.6 2528.7,212.1 2523.8,213.8 Z" id="Path"></path>
            <path d="M2529.3,225.4 C2529.6,225.7 2539.5,245.4 2534,250.5 C2533,251.5 2532.1,251.8 2531.4,251.6 C2528.3,251 2527.7,241.6 2527.4,238.9 C2527.2,235.6 2526,222.8 2529.3,225.4 Z" id="Path"></path>
            <path d="M2530.6,251.2 C2530.6,251.2 2526,265.2 2526.4,266.8 C2526.8,268.5 2530.3,279.2 2529.3,279.9 C2528.3,280.6 2523.3,279.3 2522.6,281 C2521.9,282.7 2528.2,282.5 2529,281.1" id="Path"></path>
            <path d="M2533.2,251.8 C2533.2,251.8 2529.3,265.9 2530,267.7 C2530.7,269.5 2535.7,280.1 2535.6,280.8 C2535.5,281.5 2531.3,283.2 2531,282.1 C2530.7,281 2532.7,280 2534.1,280.1" id="Path"></path>
            <path d="M2531.6,231 C2531.7,231.4 2530.8,246.3 2527.6,251.9" id="Path"></path>
            <path d="M2527,232.7 C2527.1,233.3 2523.8,244.6 2516.4,247.2" id="Path"></path>
            <path d="M2500.2,228.8 C2500.2,229.5 2504.1,249.6 2516.4,247.1" id="Path"></path>
            <path d="M2502.5,223.6 C2501.8,223.8 2492,233.8 2494.5,244.8 C2497,255.8 2502,244.5 2501.5,240.8 C2500.9,237 2502.5,226.7 2502.9,225.3 C2503.3,223.9 2503.3,223.3 2502.5,223.6 Z" id="Path"></path>
            <path d="M2507.2,213.4 C2506.4,213.5 2500.9,216.3 2502.7,220.1 C2504.5,223.9 2506.6,225.5 2508.4,222.9 C2510.2,220.3 2511,212.7 2507.2,213.4 Z" id="Path"></path>
            <path d="M2498.4,249.3 C2498.8,249.4 2503.8,264.1 2503,267.6 C2502.2,271.1 2498.7,276.3 2498.5,277.8 C2498.4,279.3 2502.8,276.8 2503.7,278.6 C2504.5,280.4 2499.8,281.3 2498.4,279.3" id="Path"></path>
            <path d="M2496.5,249.3 C2496.6,250 2503.1,264.1 2500.5,267.9 C2498,271.7 2492.4,276.7 2492.8,278.4 C2493.2,280.1 2497.7,282.9 2497.4,280.5 C2497.1,278.1 2495.7,277.4 2494.6,277.3" id="Path"></path>
            <path d="M2451,214.8 C2451,214.8 2444.4,218.4 2445.8,222.9 C2447.2,227.4 2451.4,227.2 2452.9,223.6 C2454.4,220 2453.6,214.8 2451,214.8 Z" id="Path"></path>
            <path d="M2447.8,227.8 C2447.8,227.8 2437.8,247.1 2443.5,252.1 C2449.2,257.1 2453.1,224.5 2447.8,227.8 Z" id="Path"></path>
            <path d="M2446.2,229.5 C2446.2,229.5 2436.4,237.2 2436.3,239 C2436.2,240.8 2441.5,242.2 2441.7,244.2 C2442,246.2 2441.1,247.5 2439.6,246.7" id="Path"></path>
            <path d="M2450.1,229.9 C2450.9,230 2456.9,241.1 2456.5,242.5 C2456.1,243.9 2449.1,244.2 2449,245 C2448.9,245.8 2450,247.5 2451.2,247.5" id="Path"></path>
            <path d="M2443.4,252.1 C2443.4,252.1 2439.5,267.7 2440.2,270 C2440.9,272.2 2445.8,279.8 2444.8,281.2 C2443.8,282.6 2435.5,284.1 2437.1,282.5 C2438.8,280.8 2443.5,280 2444.1,280" id="Path"></path>
            <path d="M2445.7,252.5 C2445.8,253.2 2446.3,278.9 2446.7,279.2 C2447.1,279.5 2455.9,281.4 2452.8,282.1 C2449.7,282.8 2446.8,281.8 2446.5,280.7" id="Path"></path>
            <path d="M2400.9,229.1 C2400.9,229.1 2409.8,246.1 2406.9,252.3 C2404,258.4 2400.3,246.4 2399.9,243.4 C2399.5,240.3 2396.9,228.1 2400.9,229.1 Z" id="Path"></path>
            <path d="M2396.4,216.3 C2396.4,216.3 2392.5,222.7 2395.9,225.9 C2399.3,229.1 2402.9,226.9 2402.4,223 C2401.9,219.1 2398.7,215 2396.4,216.3 Z" id="Path"></path>
            <path d="M2401.7,230.8 C2402.7,231.2 2411.2,240.8 2412.4,241.1 C2413.6,241.4 2417.8,226.4 2418.3,226.3 C2418.7,226.2 2422.3,226.6 2422.3,224.9" id="Path"></path>
            <path d="M2398.1,231.8 C2398.1,231.8 2392,245.1 2393.8,246.6 C2395.6,248.1 2404.4,243.5 2404.7,242" id="Path"></path>
            <path d="M2403.7,253.5 C2403.7,254.5 2399.4,279.5 2398,280.3 C2396.6,281.1 2391,279.2 2391.4,281.4 C2391.8,283.6 2397.3,282.8 2397.8,281.7" id="Path"></path>
            <path d="M2406.5,254.5 C2407.2,255.2 2408.3,277.9 2409.3,279.5 C2410.3,281.1 2415.9,279.2 2415,281.3 C2414.2,283.4 2409.3,283.4 2409,281.6" id="Path"></path>
            <path d="M2343.3,215.7 C2343.3,215.7 2338,224.2 2345.1,225.5 C2352.2,226.8 2348.4,216.7 2347.8,216.2 C2347,215.5 2345.1,214.5 2343.3,215.7 Z" id="Path"></path>
            <path d="M2347.3,227 C2347.3,227 2344.9,249.7 2348.4,252.1 C2351.9,254.5 2353.7,253.5 2353.3,246.2 C2352.9,239 2349.3,226.7 2347.3,227 Z" id="Path"></path>
            <path d="M2346.5,229.2 C2346.5,229.6 2338.1,245.2 2354.3,252.2" id="Path"></path>
            <path d="M2349.4,229.9 C2349.8,229.9 2356.1,247.8 2356.7,250" id="Path"></path>
            <path d="M2348.4,252.1 C2348.4,252.1 2351.2,260.9 2348.3,268.1 C2345.4,275.4 2341.9,278.7 2340.9,279.8 C2339.9,280.9 2346.2,282.3 2347.2,280.5 C2348.2,278.7 2346.8,277.8 2344.7,278.4" id="Path"></path>
            <path d="M2352.3,253.3 C2352.4,253.7 2356.2,278.1 2356.9,278.8 C2357.6,279.5 2362.2,280.9 2362.9,279.2 C2363.6,277.5 2361.1,276.7 2359.3,277" id="Path"></path>
            <path d="M2333.1,216.1 C2332.5,216.1 2326,217.1 2327,222.4 C2328,227.7 2335.1,224.8 2335.1,221.3 C2335,217.8 2334.9,215.9 2333.1,216.1 Z" id="Path"></path>
            <path d="M2326.2,225.7 C2326.2,225.7 2313.8,247.3 2317.3,252.9 C2320.8,258.5 2326.9,236.6 2326.9,231.8 C2326.9,227.1 2326.9,225.4 2326.2,225.7 Z" id="Path"></path>
            <path d="M2335.9,224 C2335.9,225 2335.2,235.3 2334.1,236.4 C2333,237.5 2326,232.8 2325.3,231.2" id="Path"></path>
            <path d="M2324.7,228.1 C2324.7,228.1 2314.9,238.8 2312.3,248.1" id="Path"></path>
            <path d="M2317.7,254.2 C2317.7,254.2 2318.1,266.1 2317.4,270.7 C2316.7,275.3 2315.6,279.9 2315.6,279.9 C2315.6,279.9 2320.9,278.9 2321.5,280.7 C2322.1,282.5 2317.5,282.9 2316.2,282" id="Path"></path>
            <path d="M2320.1,253.6 C2320.5,254.4 2325.4,264.9 2325,266.4 C2324.6,267.9 2321.2,277.4 2321.7,278 C2322.1,278.6 2330.4,278.3 2328.8,279.7 C2327.3,281.1 2325.7,281.1 2324.5,279.8" id="Path"></path>
            <path d="M2262.9,224.8 C2262.4,224.9 2259.2,225.8 2260,229.2 C2260.8,232.6 2266.9,235.4 2268.2,232.4 C2269.5,229.3 2267.2,223.6 2262.9,224.8 Z" id="Path"></path>
            <path d="M2270.3,233.2 C2270.4,233.2 2270.9,234 2271.7,235.1 C2274.3,238.9 2279.6,247.3 2280,250.5 C2280.5,254.7 2281.5,261.4 2279,262.1 C2276.5,262.9 2269,250.2 2269.5,243.2 C2270,236.1 2271.4,236.5 2271.4,236.5" id="Path"></path>
            <path d="M2283.3,245 C2283.4,245.5 2283.8,262.8 2283.2,263.2 C2282.6,263.6 2273.9,262.2 2273.4,262.9 C2272.9,263.7 2272.8,282.2 2272.8,282.2" id="Path"></path>
            <path d="M2279.7,265.4 L2281.8,281.6" id="Path"></path>
            <path d="M2235.2,281.2 C2235.1,280.3 2234.7,253.3 2240.1,252.9" id="Path"></path>
            <path d="M2262.3,252.6 C2262.3,252.6 2265.7,251 2265.6,263.3 C2265.5,275.7 2265.5,281 2265.5,281" id="Path"></path>
            <path d="M2235.9,252.4 C2236.7,252.3 2265.8,252 2265.8,252" id="Path"></path>
            <path d="M2242.2,234.2 C2242.2,234.6 2245.4,249.9 2245.4,249.9 L2263.7,249.3" id="Path"></path>
            <path d="M2272.2,238.7 C2272.1,239.3 2275.4,249.9 2256.2,248" id="Path"></path>
            <path d="M2278.3,259.7 C2277.9,259.7 2262.9,258.2 2262.1,259.7 C2261.3,261.2 2256.2,278.3 2254.8,279.4 C2253.4,280.5 2248.6,277.6 2249.4,279.7 C2250.2,281.7 2254.1,282.5 2256.3,280.7 C2258.6,278.9 2264.8,261.9 2265.1,260.9" id="Path"></path>
            <path d="M2187.4,214 C2187.4,214 2182,220.1 2188.1,224 C2189.4,224.9 2190.5,224.7 2191.2,224.1 C2193.8,221.8 2192.4,212.3 2187.4,214 Z" id="Path"></path>
            <path d="M2192.9,225.6 C2193.2,225.9 2203.1,245.6 2197.6,250.7 C2196.6,251.7 2195.7,252 2195,251.8 C2191.9,251.2 2191.3,241.8 2191,239.1 C2190.8,235.8 2189.7,223 2192.9,225.6 Z" id="Path"></path>
            <path d="M2194.3,251.4 C2194.3,251.4 2189.7,265.4 2190.1,267 C2190.5,268.7 2194,279.4 2193,280.1 C2192,280.8 2187,279.5 2186.3,281.2 C2185.6,282.9 2191.9,282.7 2192.7,281.3" id="Path"></path>
            <path d="M2196.8,252 C2196.8,252 2192.9,266.1 2193.6,267.9 C2194.3,269.7 2199.3,280.3 2199.2,281 C2199.1,281.7 2194.9,283.4 2194.6,282.3 C2194.3,281.2 2196.3,280.2 2197.7,280.3" id="Path"></path>
            <path d="M2195.3,231.2 C2195.4,231.6 2194.5,246.5 2191.3,252.1" id="Path"></path>
            <path d="M2190.6,232.9 C2190.7,233.5 2187.4,244.8 2180,247.4" id="Path"></path>
            <path d="M2163.9,229 C2163.9,229.7 2167.8,249.8 2180.1,247.3" id="Path"></path>
            <path d="M2166.1,223.8 C2165.4,224 2155.6,234 2158.1,245 C2160.6,256 2165.6,244.7 2165.1,241 C2164.5,237.2 2166.1,226.9 2166.5,225.5 C2166.9,224.1 2166.9,223.5 2166.1,223.8 Z" id="Path"></path>
            <path d="M2170.8,213.6 C2170,213.7 2164.5,216.5 2166.3,220.3 C2168.1,224.1 2170.2,225.7 2172,223.1 C2173.9,220.5 2174.6,212.9 2170.8,213.6 Z" id="Path"></path>
            <path d="M2162,249.5 C2162.4,249.6 2167.4,264.3 2166.6,267.8 C2165.8,271.3 2162.3,276.5 2162.1,278 C2162,279.5 2166.4,277 2167.3,278.8 C2168.1,280.6 2163.4,281.5 2162,279.5" id="Path"></path>
            <path d="M2160.1,249.5 C2160.2,250.2 2166.7,264.3 2164.1,268.1 C2161.6,271.9 2156,276.9 2156.4,278.6 C2156.8,280.3 2161.3,283.1 2161,280.7 C2160.7,278.3 2159.3,277.6 2158.2,277.5" id="Path"></path>
            <path d="M2114.6,214 C2114.6,214 2108,217.6 2109.4,222.1 C2110.8,226.6 2115,226.4 2116.5,222.8 C2118,219.2 2117.3,214 2114.6,214 Z" id="Path"></path>
            <path d="M2111.4,227 C2111.4,227 2101.4,246.3 2107.1,251.3 C2112.8,256.3 2116.7,223.6 2111.4,227 Z" id="Path"></path>
            <path d="M2109.9,228.7 C2109.9,228.7 2100.1,236.4 2100,238.2 C2099.9,240 2105.2,241.4 2105.4,243.4 C2105.6,245.4 2104.8,246.7 2103.3,245.9" id="Path"></path>
            <path d="M2113.8,229.1 C2114.6,229.2 2120.6,240.3 2120.2,241.7 C2119.8,243.1 2112.8,243.4 2112.7,244.2 C2112.6,245 2113.7,246.7 2114.9,246.7" id="Path"></path>
            <path d="M2107.1,251.3 C2107.1,251.3 2103.2,266.9 2103.9,269.2 C2104.6,271.4 2109.5,279 2108.5,280.4 C2107.5,281.8 2099.2,283.3 2100.8,281.7 C2102.5,280 2107.2,279.2 2107.8,279.2" id="Path"></path>
            <path d="M2109.3,251.7 C2109.4,252.4 2109.9,278.1 2110.3,278.4 C2110.7,278.7 2119.5,280.6 2116.4,281.3 C2113.3,282 2110.4,281 2110.1,279.9" id="Path"></path>
            <path d="M2064.5,228.3 C2064.5,228.3 2073.4,245.3 2070.5,251.5 C2067.6,257.6 2063.9,245.6 2063.5,242.6 C2063.1,239.5 2060.5,227.3 2064.5,228.3 Z" id="Path"></path>
            <path d="M2060,215.5 C2060,215.5 2056.1,221.9 2059.5,225.1 C2062.9,228.3 2066.5,226.1 2066,222.2 C2065.5,218.3 2062.3,214.2 2060,215.5 Z" id="Path"></path>
            <path d="M2065.4,230 C2066.4,230.4 2074.9,240 2076.1,240.3 C2077.3,240.6 2081.5,225.6 2082,225.5 C2082.4,225.4 2086,225.8 2086,224.1" id="Path"></path>
            <path d="M2061.7,230.9 C2061.7,230.9 2055.6,244.2 2057.4,245.7 C2059.2,247.2 2068,242.6 2068.3,241.1" id="Path"></path>
            <path d="M2067.3,252.7 C2067.3,253.7 2063,278.7 2061.6,279.5 C2060.2,280.3 2054.6,278.4 2055,280.6 C2055.4,282.8 2060.9,282 2061.4,280.9" id="Path"></path>
            <path d="M2070.1,253.7 C2070.8,254.4 2071.9,277.1 2072.9,278.7 C2073.9,280.3 2079.5,278.4 2078.6,280.5 C2077.7,282.6 2072.9,282.6 2072.6,280.8" id="Path"></path>
            <path d="M2006.9,215.8 C2006.9,215.8 2001.6,224.3 2008.7,225.6 C2015.8,226.9 2012,216.8 2011.4,216.3 C2010.6,215.7 2008.7,214.7 2006.9,215.8 Z" id="Path"></path>
            <path d="M2010.9,227.2 C2010.9,227.2 2008.5,249.9 2012,252.3 C2015.5,254.7 2017.3,253.7 2016.9,246.4 C2016.5,239.2 2012.9,226.9 2010.9,227.2 Z" id="Path"></path>
            <path d="M2010.1,229.4 C2010.1,229.8 2001.7,245.4 2017.9,252.4" id="Path"></path>
            <path d="M2013,230.1 C2013.4,230.1 2019.7,248 2020.3,250.2" id="Path"></path>
            <path d="M2012,252.3 C2012,252.3 2014.8,261.1 2011.9,268.3 C2009,275.6 2005.5,278.9 2004.5,280 C2003.5,281.1 2009.8,282.5 2010.8,280.7 C2011.8,278.9 2010.4,278 2008.3,278.6" id="Path"></path>
            <path d="M2016,253.5 C2016.1,253.9 2019.9,278.3 2020.6,279 C2021.3,279.7 2025.9,281.1 2026.6,279.4 C2027.3,277.7 2024.8,276.9 2023,277.2" id="Path"></path>
            <path d="M1996.7,216.3 C1996.1,216.3 1989.6,217.3 1990.6,222.6 C1991.6,227.9 1998.7,225 1998.7,221.5 C1998.6,217.9 1998.5,216.1 1996.7,216.3 Z" id="Path"></path>
            <path d="M1989.9,225.9 C1989.9,225.9 1977.5,247.5 1981,253.1 C1984.5,258.7 1990.6,236.8 1990.6,232 C1990.6,227.3 1990.6,225.6 1989.9,225.9 Z" id="Path"></path>
            <path d="M1999.5,224.2 C1999.5,225.2 1998.8,235.5 1997.7,236.6 C1996.6,237.7 1989.6,233 1988.9,231.4" id="Path"></path>
            <path d="M1988.3,228.3 C1988.3,228.3 1978.5,239 1975.9,248.3" id="Path"></path>
            <path d="M1981.3,254.4 C1981.3,254.4 1981.7,266.3 1981,270.9 C1980.3,275.5 1979.2,280.1 1979.2,280.1 C1979.2,280.1 1984.5,279.1 1985.1,280.9 C1985.7,282.7 1981.1,283.1 1979.8,282.2" id="Path"></path>
            <path d="M1983.7,253.8 C1984.1,254.6 1989,265.1 1988.6,266.6 C1988.2,268.1 1984.8,277.6 1985.3,278.2 C1985.8,278.8 1994,278.5 1992.4,279.9 C1990.9,281.3 1989.3,281.3 1988.1,280" id="Path"></path>
            <path d="M1947.7,212.7 C1947.7,212.7 1942.3,218.8 1948.4,222.7 C1949.7,223.6 1950.8,223.4 1951.5,222.8 C1954,220.4 1952.6,210.9 1947.7,212.7 Z" id="Path"></path>
            <path d="M1953.1,224.2 C1953.4,224.5 1963.3,244.2 1957.8,249.3 C1956.8,250.3 1955.9,250.6 1955.2,250.4 C1952.1,249.8 1951.5,240.4 1951.2,237.7 C1951,234.4 1949.9,221.6 1953.1,224.2 Z" id="Path"></path>
            <path d="M1954.5,250.1 C1954.5,250.1 1949.9,264.1 1950.3,265.7 C1950.7,267.4 1954.2,278.1 1953.2,278.8 C1952.2,279.5 1947.2,278.2 1946.5,279.9 C1945.8,281.6 1952.1,281.4 1952.9,280" id="Path"></path>
            <path d="M1957,250.6 C1957,250.6 1953.1,264.7 1953.8,266.5 C1954.5,268.3 1959.5,278.9 1959.4,279.6 C1959.3,280.3 1955.1,282 1954.8,280.9 C1954.5,279.8 1956.5,278.8 1957.9,278.9" id="Path"></path>
            <path d="M1955.5,229.8 C1955.6,230.2 1954.7,245.1 1951.5,250.7" id="Path"></path>
            <path d="M1950.9,231.5 C1951,232.1 1947.7,243.4 1940.3,246" id="Path"></path>
            <path d="M1924.1,227.6 C1924.1,228.3 1928,248.4 1940.3,245.9" id="Path"></path>
            <path d="M1926.3,222.4 C1925.6,222.6 1915.8,232.6 1918.3,243.6 C1920.8,254.6 1925.8,243.3 1925.3,239.6 C1924.7,235.8 1926.3,225.5 1926.7,224.1 C1927.2,222.7 1927.2,222.2 1926.3,222.4 Z" id="Path"></path>
            <path d="M1931.1,212.2 C1930.3,212.3 1924.8,215.1 1926.6,218.9 C1928.4,222.7 1930.5,224.3 1932.3,221.7 C1934.1,219.1 1934.8,211.5 1931.1,212.2 Z" id="Path"></path>
            <path d="M1922.3,248.1 C1922.7,248.2 1927.7,262.9 1926.9,266.4 C1926.1,269.9 1922.6,275.1 1922.4,276.6 C1922.2,278.1 1926.7,275.6 1927.6,277.4 C1928.4,279.2 1923.7,280.1 1922.3,278.1" id="Path"></path>
            <path d="M1920.3,248.1 C1920.4,248.8 1926.9,262.9 1924.3,266.7 C1921.7,270.5 1916.2,275.5 1916.6,277.2 C1917,278.9 1921.5,281.7 1921.2,279.3 C1920.9,276.9 1919.5,276.2 1918.4,276.1" id="Path"></path>
            <path d="M1874.8,213.6 C1874.8,213.6 1868.2,217.2 1869.6,221.7 C1871,226.2 1875.2,226 1876.7,222.4 C1878.2,218.8 1877.5,213.6 1874.8,213.6 Z" id="Path"></path>
            <path d="M1871.6,226.6 C1871.6,226.6 1861.6,245.9 1867.3,250.9 C1873,255.9 1876.9,223.3 1871.6,226.6 Z" id="Path"></path>
            <path d="M1870.1,228.3 C1870.1,228.3 1860.3,236 1860.2,237.8 C1860.1,239.6 1865.4,241 1865.6,243 C1865.9,245 1865,246.3 1863.5,245.5" id="Path"></path>
            <path d="M1874,228.7 C1874.8,228.8 1880.8,239.9 1880.4,241.3 C1880,242.7 1873,243 1872.9,243.8 C1872.8,244.6 1873.9,246.3 1875.1,246.3" id="Path"></path>
            <path d="M1867.3,250.9 C1867.3,250.9 1863.4,266.5 1864.1,268.8 C1864.8,271.1 1869.7,278.6 1868.7,280 C1867.7,281.4 1859.4,282.9 1861,281.3 C1862.7,279.6 1867.4,278.8 1868,278.8" id="Path"></path>
            <path d="M1869.5,251.3 C1869.6,252 1870.1,277.7 1870.5,278 C1870.9,278.3 1879.7,280.2 1876.6,280.9 C1873.5,281.6 1870.6,280.6 1870.3,279.5" id="Path"></path>
            <path d="M1824.8,227.9 C1824.8,227.9 1833.7,244.9 1830.8,251.1 C1827.9,257.2 1824.2,245.2 1823.8,242.2 C1823.4,239.2 1820.7,226.9 1824.8,227.9 Z" id="Path"></path>
            <path d="M1820.2,215.1 C1820.2,215.1 1816.3,221.5 1819.7,224.7 C1823.1,227.9 1826.7,225.7 1826.2,221.8 C1825.8,217.9 1822.6,213.8 1820.2,215.1 Z" id="Path"></path>
            <path d="M1825.6,229.6 C1826.6,230 1835.1,239.6 1836.3,239.9 C1837.5,240.2 1841.7,225.2 1842.2,225.1 C1842.6,225 1846.2,225.4 1846.2,223.7" id="Path"></path>
            <path d="M1822,230.6 C1822,230.6 1815.9,243.9 1817.7,245.4 C1819.5,246.9 1828.3,242.3 1828.6,240.8" id="Path"></path>
            <path d="M1827.6,252.3 C1827.6,253.3 1823.3,278.3 1821.9,279.1 C1820.5,279.9 1814.9,278 1815.3,280.2 C1815.7,282.4 1821.2,281.6 1821.7,280.5" id="Path"></path>
            <path d="M1830.4,253.3 C1831.1,254 1832.2,276.7 1833.2,278.3 C1834.2,279.8 1839.8,278 1838.9,280.1 C1838.1,282.2 1833.2,282.2 1832.9,280.4" id="Path"></path>
            <path d="M1767.1,214.5 C1767.1,214.5 1761.8,223 1768.9,224.3 C1776,225.6 1772.2,215.5 1771.6,215 C1771,214.5 1768.9,213.4 1767.1,214.5 Z" id="Path"></path>
            <path d="M1771.2,225.8 C1771.2,225.8 1768.8,248.5 1772.3,250.9 C1775.8,253.3 1777.6,252.3 1777.2,245 C1776.8,237.7 1773.1,225.5 1771.2,225.8 Z" id="Path"></path>
            <path d="M1770.3,228 C1770.3,228.4 1761.9,244 1778.1,251" id="Path"></path>
            <path d="M1773.3,228.7 C1773.7,228.7 1780,246.6 1780.6,248.8" id="Path"></path>
            <path d="M1772.3,250.9 C1772.3,250.9 1775.1,259.7 1772.2,266.9 C1769.3,274.2 1765.8,277.5 1764.8,278.6 C1763.8,279.7 1770.1,281.1 1771.1,279.3 C1772.1,277.5 1770.7,276.6 1768.6,277.2" id="Path"></path>
            <path d="M1776.2,252.2 C1776.3,252.6 1780.1,277 1780.8,277.7 C1781.5,278.4 1786.1,279.8 1786.8,278.1 C1787.5,276.4 1785,275.6 1783.2,275.9" id="Path"></path>
            <path d="M1756.9,214.9 C1756.3,214.9 1749.8,215.9 1750.8,221.2 C1751.8,226.5 1758.9,223.6 1758.9,220.1 C1758.9,216.6 1758.7,214.8 1756.9,214.9 Z" id="Path"></path>
            <path d="M1750.1,224.5 C1750.1,224.5 1737.7,246.1 1741.2,251.7 C1744.7,257.3 1750.8,235.4 1750.8,230.6 C1750.8,225.8 1750.8,224.2 1750.1,224.5 Z" id="Path"></path>
            <path d="M1759.7,222.8 C1759.7,223.8 1759,234.1 1757.9,235.2 C1756.8,236.3 1749.8,231.6 1749.1,230" id="Path"></path>
            <path d="M1748.6,226.9 C1748.6,226.9 1738.8,237.6 1736.2,246.9" id="Path"></path>
            <path d="M1741.6,253 C1741.6,253 1742,264.9 1741.3,269.5 C1740.6,274.1 1739.5,278.7 1739.5,278.7 C1739.5,278.7 1744.8,277.7 1745.4,279.5 C1746,281.3 1741.4,281.7 1740.1,280.8" id="Path"></path>
            <path d="M1744,252.4 C1744.4,253.2 1749.3,263.7 1748.9,265.2 C1748.5,266.7 1745.1,276.2 1745.6,276.8 C1746,277.4 1754.3,277.1 1752.7,278.5 C1751.1,279.9 1749.6,279.9 1748.4,278.6" id="Path"></path>
            <path d="M1686.8,223.6 C1686.3,223.7 1683.1,224.6 1683.9,228 C1684.7,231.4 1690.8,234.2 1692.1,231.2 C1693.3,228.1 1691.1,222.5 1686.8,223.6 Z" id="Path"></path>
            <path d="M1694.2,232 C1694.3,232 1694.8,232.8 1695.6,233.9 C1698.2,237.7 1703.5,246.1 1703.9,249.3 C1704.4,253.5 1705.4,260.2 1702.9,260.9 C1700.4,261.7 1692.9,249 1693.4,242 C1693.9,234.9 1695.3,235.3 1695.3,235.3" id="Path"></path>
            <path d="M1707.2,243.8 C1707.3,244.3 1707.7,261.6 1707.1,262 C1706.5,262.4 1697.8,261 1697.3,261.7 C1696.8,262.4 1696.7,281 1696.7,281" id="Path"></path>
            <path d="M1703.6,264.2 L1705.7,280.4" id="Path"></path>
            <path d="M1659.1,280 C1659,279.1 1658.6,252.1 1664,251.7" id="Path"></path>
            <path d="M1686.1,251.4 C1686.1,251.4 1689.5,249.8 1689.4,262.1 C1689.3,274.5 1689.3,279.8 1689.3,279.8" id="Path"></path>
            <path d="M1659.7,251.2 C1660.5,251.1 1689.6,250.8 1689.6,250.8" id="Path"></path>
            <path d="M1666.1,233.1 C1666.1,233.5 1669.3,248.8 1669.3,248.8 L1687.6,248.2" id="Path"></path>
            <path d="M1696.1,237.5 C1696,238.1 1699.3,248.7 1680.1,246.8" id="Path"></path>
            <path d="M1702.2,258.6 C1701.8,258.6 1686.8,257.1 1686,258.6 C1685.2,260.1 1680.1,277.2 1678.7,278.3 C1677.3,279.4 1672.5,276.5 1673.3,278.6 C1674.1,280.7 1678,281.4 1680.2,279.6 C1682.4,277.8 1688.7,260.8 1689,259.8" id="Path"></path>
            <path d="M1611.3,212.8 C1611.3,212.8 1605.9,218.9 1612,222.8 C1613.3,223.7 1614.4,223.5 1615.1,222.9 C1617.6,220.6 1616.2,211.1 1611.3,212.8 Z" id="Path"></path>
            <path d="M1616.7,224.4 C1617,224.7 1626.9,244.4 1621.4,249.5 C1620.4,250.5 1619.5,250.8 1618.8,250.6 C1615.7,250 1615.1,240.6 1614.8,237.9 C1614.7,234.6 1613.5,221.8 1616.7,224.4 Z" id="Path"></path>
            <path d="M1618.1,250.2 C1618.1,250.2 1613.5,264.2 1613.9,265.8 C1614.3,267.5 1617.8,278.2 1616.8,278.9 C1615.8,279.6 1610.8,278.3 1610.1,280 C1609.4,281.7 1615.7,281.5 1616.5,280.1" id="Path"></path>
            <path d="M1620.7,250.8 C1620.7,250.8 1616.8,264.9 1617.5,266.7 C1618.2,268.5 1623.2,279.1 1623.1,279.8 C1623,280.5 1618.8,282.2 1618.5,281.1 C1618.2,280 1620.2,279 1621.6,279.1" id="Path"></path>
            <path d="M1619.1,230 C1619.2,230.4 1618.3,245.3 1615.1,250.9" id="Path"></path>
            <path d="M1614.5,231.7 C1614.6,232.3 1611.3,243.6 1603.9,246.2" id="Path"></path>
            <path d="M1587.7,227.8 C1587.7,228.5 1591.6,248.6 1603.9,246.1" id="Path"></path>
            <path d="M1590,222.6 C1589.3,222.8 1579.5,232.8 1582,243.8 C1584.5,254.8 1589.5,243.5 1589,239.8 C1588.4,236 1590,225.7 1590.4,224.3 C1590.8,222.9 1590.8,222.3 1590,222.6 Z" id="Path"></path>
            <path d="M1594.7,212.4 C1593.9,212.5 1588.4,215.3 1590.2,219.1 C1592,222.9 1594.1,224.5 1595.9,221.9 C1597.8,219.3 1598.5,211.7 1594.7,212.4 Z" id="Path"></path>
            <path d="M1585.9,248.3 C1586.3,248.4 1591.3,263.1 1590.5,266.6 C1589.7,270.1 1586.2,275.3 1586,276.8 C1585.8,278.3 1590.3,275.8 1591.2,277.6 C1592,279.4 1587.3,280.3 1585.9,278.3" id="Path"></path>
            <path d="M1584,248.3 C1584.1,249 1590.6,263.1 1588,266.9 C1585.4,270.7 1579.9,275.7 1580.3,277.4 C1580.7,279.1 1585.2,281.9 1584.9,279.5 C1584.6,277.1 1583.2,276.4 1582.1,276.3" id="Path"></path>
            <path d="M1538.5,212.8 C1538.5,212.8 1531.9,216.4 1533.3,220.9 C1534.7,225.4 1538.9,225.2 1540.4,221.6 C1541.9,218 1541.1,212.8 1538.5,212.8 Z" id="Path"></path>
            <path d="M1535.3,225.8 C1535.3,225.8 1525.3,245.1 1531,250.1 C1536.7,255.1 1540.6,222.5 1535.3,225.8 Z" id="Path"></path>
            <path d="M1533.7,227.5 C1533.7,227.5 1523.9,235.2 1523.8,237 C1523.7,238.8 1529,240.2 1529.2,242.2 C1529.5,244.2 1528.6,245.5 1527.1,244.7" id="Path"></path>
            <path d="M1537.6,227.9 C1538.4,228 1544.4,239.1 1544,240.5 C1543.6,241.9 1536.6,242.2 1536.5,243 C1536.4,243.8 1537.5,245.5 1538.7,245.5" id="Path"></path>
            <path d="M1530.9,250.1 C1530.9,250.1 1527,265.7 1527.7,268 C1528.4,270.2 1533.3,277.8 1532.3,279.2 C1531.3,280.6 1523,282.1 1524.6,280.5 C1526.2,278.9 1531,278 1531.6,278" id="Path"></path>
            <path d="M1533.2,250.5 C1533.3,251.2 1533.8,276.9 1534.2,277.2 C1534.6,277.5 1543.4,279.4 1540.3,280.1 C1537.2,280.8 1534.3,279.8 1534,278.7" id="Path"></path>
            <path d="M1488.4,227.1 C1488.4,227.1 1497.3,244.1 1494.4,250.3 C1491.5,256.4 1487.8,244.4 1487.4,241.4 C1487,238.4 1484.4,226.1 1488.4,227.1 Z" id="Path"></path>
            <path d="M1483.9,214.3 C1483.9,214.3 1480,220.7 1483.4,223.9 C1486.8,227.1 1490.4,224.9 1489.9,221 C1489.5,217.1 1486.2,213 1483.9,214.3 Z" id="Path"></path>
            <path d="M1489.2,228.8 C1490.2,229.2 1498.7,238.8 1499.9,239.1 C1501.2,239.4 1505.3,224.4 1505.8,224.3 C1506.3,224.2 1509.8,224.6 1509.8,222.9" id="Path"></path>
            <path d="M1485.6,229.8 C1485.6,229.8 1479.5,243.1 1481.3,244.6 C1483.1,246.1 1491.9,241.5 1492.2,240" id="Path"></path>
            <path d="M1491.2,251.5 C1491.2,252.5 1486.9,277.5 1485.5,278.3 C1484.1,279.1 1478.5,277.2 1478.9,279.4 C1479.3,281.6 1484.8,280.8 1485.3,279.7" id="Path"></path>
            <path d="M1494,252.5 C1494.7,253.2 1495.8,275.9 1496.8,277.5 C1497.8,279 1503.4,277.2 1502.5,279.3 C1501.7,281.4 1496.8,281.4 1496.5,279.6" id="Path"></path>
            <path d="M1430.7,214.7 C1430.7,214.7 1425.4,223.2 1432.5,224.5 C1439.6,225.8 1435.8,215.7 1435.2,215.2 C1434.6,214.7 1432.6,213.5 1430.7,214.7 Z" id="Path"></path>
            <path d="M1434.8,226 C1434.8,226 1432.4,248.7 1435.9,251.1 C1439.4,253.5 1441.2,252.5 1440.8,245.2 C1440.4,238 1436.7,225.7 1434.8,226 Z" id="Path"></path>
            <path d="M1434,228.2 C1434,228.6 1425.6,244.2 1441.8,251.2" id="Path"></path>
            <path d="M1436.9,228.9 C1437.3,228.9 1443.6,246.8 1444.2,249" id="Path"></path>
            <path d="M1435.9,251.1 C1435.9,251.1 1438.7,259.9 1435.8,267.1 C1432.9,274.4 1429.4,277.7 1428.4,278.8 C1427.4,279.9 1433.7,281.3 1434.7,279.5 C1435.7,277.7 1434.3,276.8 1432.2,277.4" id="Path"></path>
            <path d="M1439.8,252.3 C1439.9,252.7 1443.7,277.1 1444.4,277.8 C1445.1,278.5 1449.7,279.9 1450.4,278.2 C1451.1,276.5 1448.6,275.7 1446.8,276" id="Path"></path>
            <path d="M1420.6,215.1 C1420,215.1 1413.5,216.1 1414.5,221.4 C1415.5,226.7 1422.6,223.8 1422.6,220.3 C1422.5,216.8 1422.4,214.9 1420.6,215.1 Z" id="Path"></path>
            <path d="M1413.7,224.7 C1413.7,224.7 1401.3,246.3 1404.8,251.9 C1408.3,257.5 1414.4,235.6 1414.4,230.8 C1414.4,226 1414.4,224.4 1413.7,224.7 Z" id="Path"></path>
            <path d="M1423.4,223 C1423.4,224 1422.7,234.3 1421.6,235.4 C1420.5,236.5 1413.5,231.8 1412.8,230.2" id="Path"></path>
            <path d="M1412.2,227.1 C1412.2,227.1 1402.4,237.8 1399.8,247.1" id="Path"></path>
            <path d="M1405.2,253.2 C1405.2,253.2 1405.6,265.1 1404.9,269.7 C1404.2,274.3 1403.1,278.9 1403.1,278.9 C1403.1,278.9 1408.4,277.9 1409,279.7 C1409.6,281.5 1405,281.9 1403.7,281" id="Path"></path>
            <path d="M1407.6,252.6 C1408,253.4 1412.9,263.9 1412.5,265.4 C1412.1,266.9 1408.7,276.4 1409.2,277 C1409.6,277.6 1417.9,277.3 1416.3,278.7 C1414.7,280.1 1413.2,280.1 1412,278.8" id="Path"></path>
            <path d="M1367.6,212.7 C1367.6,212.7 1362.2,218.8 1368.3,222.7 C1369.6,223.6 1370.7,223.4 1371.4,222.8 C1374,220.5 1372.6,210.9 1367.6,212.7 Z" id="Path"></path>
            <path d="M1373.1,224.3 C1373.4,224.6 1383.3,244.3 1377.8,249.4 C1376.8,250.4 1375.9,250.7 1375.2,250.5 C1372.1,249.9 1371.5,240.5 1371.2,237.8 C1371,234.5 1369.9,221.6 1373.1,224.3 Z" id="Path"></path>
            <path d="M1374.5,250.1 C1374.5,250.1 1369.9,264.1 1370.3,265.7 C1370.7,267.4 1374.2,278.1 1373.2,278.8 C1372.2,279.5 1367.2,278.2 1366.5,279.9 C1365.8,281.6 1372.1,281.4 1372.9,280" id="Path"></path>
            <path d="M1377,250.6 C1377,250.6 1373.1,264.7 1373.8,266.5 C1374.5,268.3 1379.5,278.9 1379.4,279.6 C1379.3,280.3 1375.1,282 1374.8,280.9 C1374.5,279.8 1376.5,278.8 1377.9,278.9" id="Path"></path>
            <path d="M1375.5,229.9 C1375.6,230.3 1374.7,245.2 1371.5,250.8" id="Path"></path>
            <path d="M1370.9,231.5 C1371,232.1 1367.7,243.4 1360.3,246" id="Path"></path>
            <path d="M1344.1,227.6 C1344.1,228.3 1348,248.4 1360.3,245.9" id="Path"></path>
            <path d="M1346.3,222.5 C1345.6,222.7 1335.8,232.7 1338.3,243.7 C1340.8,254.7 1345.8,243.4 1345.3,239.7 C1344.7,235.9 1346.3,225.6 1346.7,224.2 C1347.1,222.7 1347.1,222.2 1346.3,222.5 Z" id="Path"></path>
            <path d="M1351,212.3 C1350.2,212.4 1344.7,215.2 1346.5,219 C1348.3,222.8 1350.4,224.4 1352.2,221.8 C1354.1,219.1 1354.8,211.6 1351,212.3 Z" id="Path"></path>
            <path d="M1342.3,248.1 C1342.7,248.2 1347.7,262.9 1346.9,266.4 C1346.1,269.9 1342.6,275.1 1342.4,276.6 C1342.2,278.1 1346.7,275.6 1347.6,277.4 C1348.4,279.2 1343.7,280.1 1342.3,278.1" id="Path"></path>
            <path d="M1340.3,248.1 C1340.4,248.8 1346.9,262.9 1344.3,266.7 C1341.7,270.5 1336.2,275.5 1336.6,277.2 C1337,278.9 1341.5,281.7 1341.2,279.3 C1340.9,276.9 1339.5,276.2 1338.4,276.1" id="Path"></path>
            <path d="M1294.8,213.7 C1294.8,213.7 1288.2,217.3 1289.6,221.8 C1291,226.3 1295.2,226.1 1296.7,222.5 C1298.2,218.9 1297.5,213.7 1294.8,213.7 Z" id="Path"></path>
            <path d="M1291.6,226.6 C1291.6,226.6 1281.6,245.9 1287.3,250.9 C1293,255.9 1296.9,223.3 1291.6,226.6 Z" id="Path"></path>
            <path d="M1290.1,228.3 C1290.1,228.3 1280.3,236 1280.2,237.8 C1280.1,239.6 1285.4,241 1285.6,243 C1285.9,245 1285,246.3 1283.5,245.5" id="Path"></path>
            <path d="M1294,228.7 C1294.8,228.8 1300.8,239.9 1300.4,241.3 C1300,242.7 1293,243 1292.9,243.8 C1292.8,244.6 1293.9,246.3 1295.1,246.3" id="Path"></path>
            <path d="M1287.3,250.9 C1287.3,250.9 1283.4,266.5 1284.1,268.8 C1284.8,271 1289.7,278.6 1288.7,280 C1287.7,281.4 1279.4,282.9 1281,281.3 C1282.7,279.6 1287.4,278.8 1288,278.8" id="Path"></path>
            <path d="M1289.5,251.3 C1289.6,252 1290.1,277.7 1290.5,278 C1290.9,278.3 1299.7,280.2 1296.6,280.9 C1293.5,281.6 1290.6,280.6 1290.3,279.5" id="Path"></path>
            <path d="M1244.7,227.9 C1244.7,227.9 1253.6,244.9 1250.7,251.1 C1247.8,257.2 1244.1,245.2 1243.7,242.2 C1243.3,239.2 1240.7,227 1244.7,227.9 Z" id="Path"></path>
            <path d="M1240.2,215.1 C1240.2,215.1 1236.3,221.5 1239.7,224.7 C1243.1,227.9 1246.7,225.7 1246.2,221.8 C1245.8,217.9 1242.5,213.8 1240.2,215.1 Z" id="Path"></path>
            <path d="M1245.6,229.6 C1246.6,230 1255.1,239.6 1256.3,239.9 C1257.5,240.2 1261.7,225.2 1262.2,225.1 C1262.7,225 1266.2,225.4 1266.2,223.7" id="Path"></path>
            <path d="M1242,230.6 C1242,230.6 1235.9,243.9 1237.7,245.4 C1239.5,246.9 1248.3,242.3 1248.6,240.8" id="Path"></path>
            <path d="M1247.5,252.4 C1247.5,253.4 1243.2,278.4 1241.8,279.2 C1240.4,280 1234.8,278.1 1235.2,280.3 C1235.6,282.5 1241.1,281.7 1241.6,280.6" id="Path"></path>
            <path d="M1250.3,253.3 C1251,254 1252.1,276.7 1253.1,278.3 C1254.1,279.8 1259.7,278 1258.8,280.1 C1258,282.2 1253.1,282.2 1252.8,280.4" id="Path"></path>
            <path d="M1187.1,214.5 C1187.1,214.5 1181.8,223 1188.9,224.3 C1196,225.6 1192.2,215.5 1191.6,215 C1191,214.5 1188.9,213.4 1187.1,214.5 Z" id="Path"></path>
            <path d="M1191.1,225.8 C1191.1,225.8 1188.7,248.5 1192.2,250.9 C1195.7,253.3 1197.5,252.3 1197.1,245 C1196.7,237.8 1193.1,225.5 1191.1,225.8 Z" id="Path"></path>
            <path d="M1190.3,228 C1190.3,228.4 1181.9,244 1198.1,251" id="Path"></path>
            <path d="M1193.2,228.7 C1193.6,228.7 1199.9,246.6 1200.5,248.8" id="Path"></path>
            <path d="M1192.3,250.9 C1192.3,250.9 1195.1,259.7 1192.2,266.9 C1189.3,274.2 1185.8,277.5 1184.8,278.6 C1183.8,279.7 1190.1,281.1 1191.1,279.3 C1192.1,277.5 1190.7,276.6 1188.6,277.2" id="Path"></path>
            <path d="M1196.2,252.2 C1196.3,252.6 1200.1,277 1200.8,277.7 C1201.5,278.4 1206.1,279.8 1206.8,278.1 C1207.5,276.4 1205,275.6 1203.2,275.9" id="Path"></path>
            <path d="M1176.9,214.9 C1176.3,214.9 1169.8,215.9 1170.8,221.2 C1171.8,226.5 1178.9,223.6 1178.9,220.1 C1178.9,216.6 1178.7,214.8 1176.9,214.9 Z" id="Path"></path>
            <path d="M1170.1,224.6 C1170.1,224.6 1157.7,246.2 1161.2,251.8 C1164.7,257.4 1170.8,235.5 1170.8,230.7 C1170.8,225.9 1170.8,224.3 1170.1,224.6 Z" id="Path"></path>
            <path d="M1179.7,222.9 C1179.7,223.9 1179,234.2 1177.9,235.3 C1176.8,236.4 1169.8,231.7 1169.1,230.1" id="Path"></path>
            <path d="M1168.5,226.9 C1168.5,226.9 1158.7,237.6 1156.1,246.9" id="Path"></path>
            <path d="M1161.6,253 C1161.6,253 1162,264.9 1161.3,269.5 C1160.6,274.1 1159.5,278.7 1159.5,278.7 C1159.5,278.7 1164.8,277.7 1165.4,279.5 C1166,281.3 1161.4,281.7 1160.1,280.8" id="Path"></path>
            <path d="M1163.9,252.5 C1164.3,253.3 1169.2,263.8 1168.8,265.3 C1168.4,266.8 1165,276.3 1165.5,276.9 C1165.9,277.5 1174.2,277.2 1172.6,278.6 C1171,280 1169.5,280 1168.3,278.7" id="Path"></path>
            <path d="M1106.7,223.6 C1106.2,223.7 1103,224.6 1103.8,228 C1104.6,231.4 1110.7,234.2 1112,231.2 C1113.3,228.2 1111,222.5 1106.7,223.6 Z" id="Path"></path>
            <path d="M1114.2,232.1 C1114.3,232.1 1114.8,232.9 1115.6,234 C1118.2,237.8 1123.5,246.2 1123.9,249.4 C1124.4,253.6 1125.4,260.3 1122.9,261 C1120.4,261.8 1112.9,249.1 1113.4,242.1 C1113.9,235 1115.3,235.4 1115.3,235.4" id="Path"></path>
            <path d="M1127.2,243.8 C1127.3,244.3 1127.7,261.6 1127.1,262 C1126.5,262.4 1117.8,261 1117.3,261.7 C1116.8,262.4 1116.7,281 1116.7,281" id="Path"></path>
            <path d="M1123.5,264.3 L1125.7,280.4" id="Path"></path>
            <path d="M1079.1,280.1 C1079,279.2 1078.6,252.2 1084,251.8" id="Path"></path>
            <path d="M1106.1,251.4 C1106.1,251.4 1109.5,249.8 1109.4,262.1 C1109.3,274.5 1109.3,279.8 1109.3,279.8" id="Path"></path>
            <path d="M1079.7,251.3 C1080.5,251.2 1109.6,250.9 1109.6,250.9" id="Path"></path>
            <path d="M1086,233.1 C1086,233.5 1089.2,248.8 1089.2,248.8 L1107.5,248.2" id="Path"></path>
            <path d="M1116.1,237.5 C1116,238.1 1119.3,248.7 1100.1,246.8" id="Path"></path>
            <path d="M1122.1,258.6 C1121.7,258.6 1106.7,257.1 1105.9,258.6 C1105.1,260.1 1100,277.2 1098.6,278.3 C1097.2,279.4 1092.4,276.5 1093.2,278.6 C1094,280.7 1097.9,281.4 1100.1,279.6 C1102.4,277.8 1108.6,260.8 1108.9,259.8" id="Path"></path>
            <path d="M1031.3,212.9 C1031.3,212.9 1025.9,219 1032,222.9 C1033.3,223.8 1034.4,223.6 1035.1,223 C1037.6,220.7 1036.2,211.1 1031.3,212.9 Z" id="Path"></path>
            <path d="M1036.7,224.5 C1037,224.8 1046.9,244.5 1041.4,249.6 C1040.4,250.6 1039.5,250.9 1038.8,250.7 C1035.7,250.1 1035.1,240.7 1034.8,238 C1034.6,234.6 1033.5,221.8 1036.7,224.5 Z" id="Path"></path>
            <path d="M1038.1,250.3 C1038.1,250.3 1033.5,264.3 1033.9,265.9 C1034.3,267.6 1037.8,278.3 1036.8,279 C1035.8,279.7 1030.8,278.4 1030.1,280.1 C1029.4,281.8 1035.7,281.6 1036.5,280.2" id="Path"></path>
            <path d="M1040.6,250.8 C1040.6,250.8 1036.7,264.9 1037.4,266.7 C1038.1,268.5 1043.1,279.1 1043,279.8 C1042.9,280.5 1038.7,282.2 1038.4,281.1 C1038.1,280 1040.1,279 1041.5,279.1" id="Path"></path>
            <path d="M1039.1,230 C1039.2,230.4 1038.3,245.3 1035.1,250.9" id="Path"></path>
            <path d="M1034.5,231.7 C1034.6,232.3 1031.3,243.6 1023.9,246.2" id="Path"></path>
            <path d="M1007.7,227.8 C1007.7,228.5 1011.6,248.6 1023.9,246.1" id="Path"></path>
            <path d="M1009.9,222.6 C1009.2,222.8 999.4,232.8 1001.9,243.8 C1004.4,254.8 1009.4,243.5 1008.9,239.8 C1008.3,236 1009.9,225.7 1010.3,224.3 C1010.7,222.9 1010.8,222.4 1009.9,222.6 Z" id="Path"></path>
            <path d="M1014.7,212.5 C1013.9,212.6 1008.4,215.4 1010.2,219.2 C1012,223 1014.1,224.6 1015.9,222 C1017.7,219.4 1018.4,211.8 1014.7,212.5 Z" id="Path"></path>
            <path d="M1005.9,248.3 C1006.3,248.4 1011.3,263.1 1010.5,266.6 C1009.7,270.1 1006.2,275.3 1006,276.8 C1005.9,278.3 1010.3,275.8 1011.2,277.6 C1012,279.4 1007.3,280.3 1005.9,278.3" id="Path"></path>
            <path d="M1003.9,248.3 C1004,249 1010.5,263.1 1007.9,266.9 C1005.4,270.7 999.8,275.7 1000.2,277.4 C1000.6,279.1 1005.1,281.9 1004.8,279.5 C1004.5,277.1 1003.1,276.4 1002,276.3" id="Path"></path>
            <path d="M958.4,212.9 C958.4,212.9 951.8,216.5 953.2,221 C954.6,225.5 958.8,225.3 960.3,221.7 C961.9,218 961.1,212.9 958.4,212.9 Z" id="Path"></path>
            <path d="M955.2,225.8 C955.2,225.8 945.2,245.1 950.9,250.1 C956.6,255.1 960.5,222.5 955.2,225.8 Z" id="Path"></path>
            <path d="M953.7,227.5 C953.7,227.5 943.9,235.2 943.8,237 C943.7,238.8 949,240.2 949.2,242.2 C949.5,244.2 948.6,245.5 947.1,244.7" id="Path"></path>
            <path d="M957.6,227.9 C958.4,228 964.4,239.1 964,240.5 C963.6,241.9 956.6,242.2 956.5,243 C956.4,243.8 957.5,245.5 958.7,245.5" id="Path"></path>
            <path d="M950.9,250.1 C950.9,250.1 947,265.7 947.7,268 C948.4,270.2 953.3,277.8 952.3,279.2 C951.3,280.6 943,282.1 944.6,280.5 C946.3,278.8 951,278 951.6,278" id="Path"></path>
            <path d="M953.1,250.5 C953.2,251.2 953.7,276.9 954.1,277.2 C954.5,277.5 963.3,279.4 960.2,280.1 C957.1,280.8 954.2,279.8 953.9,278.7" id="Path"></path>
            <path d="M908.4,227.1 C908.4,227.1 917.3,244.1 914.4,250.3 C911.5,256.4 907.8,244.4 907.4,241.4 C907,238.3 904.3,226.2 908.4,227.1 Z" id="Path"></path>
            <path d="M903.8,214.3 C903.8,214.3 899.9,220.7 903.3,223.9 C906.7,227.1 910.3,224.9 909.8,221 C909.4,217.1 906.2,213 903.8,214.3 Z" id="Path"></path>
            <path d="M909.2,228.8 C910.2,229.2 918.7,238.8 919.9,239.1 C921.2,239.4 925.3,224.4 925.8,224.3 C926.2,224.2 929.8,224.6 929.8,222.9" id="Path"></path>
            <path d="M905.6,229.8 C905.6,229.8 899.5,243.1 901.3,244.6 C903.1,246.1 911.9,241.5 912.2,240" id="Path"></path>
            <path d="M911.2,251.6 C911.2,252.6 906.9,277.6 905.5,278.4 C904.1,279.2 898.5,277.3 898.9,279.5 C899.3,281.7 904.8,280.9 905.3,279.8" id="Path"></path>
            <path d="M914,252.5 C914.7,253.2 915.8,275.9 916.8,277.5 C917.8,279 923.4,277.2 922.5,279.3 C921.7,281.4 916.8,281.4 916.5,279.6" id="Path"></path>
            <path d="M850.7,214.7 C850.7,214.7 845.4,223.2 852.5,224.5 C859.6,225.8 855.8,215.7 855.2,215.2 C854.5,214.6 852.5,213.6 850.7,214.7 Z" id="Path"></path>
            <path d="M854.8,226 C854.8,226 852.4,248.7 855.9,251.1 C859.4,253.5 861.2,252.5 860.8,245.2 C860.3,238 856.7,225.7 854.8,226 Z" id="Path"></path>
            <path d="M853.9,228.2 C853.9,228.6 845.5,244.2 861.7,251.2" id="Path"></path>
            <path d="M856.9,228.9 C857.3,228.9 863.6,246.8 864.2,249" id="Path"></path>
            <path d="M855.9,251.1 C855.9,251.1 858.7,259.9 855.8,267.1 C852.9,274.4 849.4,277.7 848.4,278.8 C847.4,279.9 853.7,281.3 854.7,279.5 C855.7,277.7 854.3,276.8 852.2,277.4" id="Path"></path>
            <path d="M859.8,252.4 C859.9,252.8 863.7,277.2 864.4,277.9 C865.1,278.6 869.7,280 870.4,278.3 C871.1,276.6 868.6,275.8 866.8,276.1" id="Path"></path>
            <path d="M840.5,215.1 C839.9,215.1 833.4,216.1 834.4,221.4 C835.4,226.7 842.5,223.8 842.5,220.3 C842.5,216.8 842.3,215 840.5,215.1 Z" id="Path"></path>
            <path d="M833.7,224.7 C833.7,224.7 821.3,246.3 824.8,251.9 C828.3,257.5 834.4,235.6 834.4,230.8 C834.4,226.1 834.4,224.5 833.7,224.7 Z" id="Path"></path>
            <path d="M843.3,223.1 C843.3,224.1 842.6,234.4 841.5,235.5 C840.4,236.6 833.4,231.9 832.7,230.3" id="Path"></path>
            <path d="M832.2,227.1 C832.2,227.1 822.4,237.8 819.8,247.1" id="Path"></path>
            <path d="M825.2,253.2 C825.2,253.2 825.6,265.1 824.9,269.7 C824.2,274.3 823.1,278.9 823.1,278.9 C823.1,278.9 828.4,277.9 829,279.7 C829.6,281.5 825,281.9 823.7,281" id="Path"></path>
            <path d="M827.6,252.6 C828,253.4 832.9,263.9 832.5,265.4 C832.1,266.9 828.7,276.4 829.2,277 C829.6,277.6 837.9,277.3 836.3,278.7 C834.8,280.1 833.2,280.1 832,278.8" id="Path"></path>
            <path d="M788.8,212.3 C788.8,212.3 783.4,218.4 789.5,222.3 C790.8,223.2 791.9,223 792.6,222.4 C795.1,220.1 793.7,210.6 788.8,212.3 Z" id="Path"></path>
            <path d="M794.2,223.9 C794.5,224.2 804.4,243.9 798.9,249 C797.9,250 797,250.3 796.3,250.1 C793.2,249.5 792.6,240.1 792.3,237.4 C792.1,234.1 791,221.2 794.2,223.9 Z" id="Path"></path>
            <path d="M795.6,249.7 C795.6,249.7 791,263.7 791.4,265.3 C791.8,267 795.3,277.7 794.3,278.4 C793.3,279.1 788.3,277.8 787.6,279.5 C786.9,281.2 793.2,281 794,279.6" id="Path"></path>
            <path d="M798.1,250.3 C798.1,250.3 794.2,264.4 794.9,266.2 C795.6,268 800.6,278.6 800.5,279.3 C800.4,280 796.2,281.7 795.9,280.6 C795.6,279.5 797.6,278.5 799,278.6" id="Path"></path>
            <path d="M796.6,229.5 C796.7,229.9 795.8,244.8 792.6,250.4" id="Path"></path>
            <path d="M792,231.1 C792.1,231.7 788.8,243 781.4,245.6" id="Path"></path>
            <path d="M765.2,227.2 C765.2,227.9 769.1,248 781.4,245.5" id="Path"></path>
            <path d="M767.4,222.1 C766.7,222.3 756.9,232.3 759.4,243.3 C761.9,254.3 766.9,243 766.4,239.3 C765.8,235.5 767.4,225.2 767.8,223.8 C768.2,222.4 768.2,221.8 767.4,222.1 Z" id="Path"></path>
            <path d="M772.2,211.9 C771.4,212 765.9,214.8 767.7,218.6 C769.5,222.4 771.6,224 773.4,221.4 C775.2,218.7 775.9,211.2 772.2,211.9 Z" id="Path"></path>
            <path d="M763.4,247.8 C763.8,247.9 768.8,262.6 768,266.1 C767.2,269.6 763.7,274.8 763.5,276.3 C763.4,277.8 767.8,275.3 768.7,277.1 C769.5,278.9 764.8,279.8 763.4,277.8" id="Path"></path>
            <path d="M761.4,247.8 C761.5,248.5 768,262.6 765.4,266.4 C762.9,270.2 757.3,275.2 757.7,276.9 C758.1,278.6 762.6,281.4 762.3,279 C762,276.6 760.6,275.9 759.5,275.8" id="Path"></path>
            <path d="M715.9,213.3 C715.9,213.3 709.3,216.9 710.7,221.4 C712.1,225.9 716.3,225.7 717.8,222.1 C719.4,218.4 718.6,213.3 715.9,213.3 Z" id="Path"></path>
            <path d="M712.7,226.3 C712.7,226.3 702.7,245.6 708.4,250.6 C714.1,255.6 718,222.9 712.7,226.3 Z" id="Path"></path>
            <path d="M711.2,227.9 C711.2,227.9 701.4,235.6 701.3,237.4 C701.2,239.2 706.5,240.6 706.7,242.6 C707,244.6 706.1,245.9 704.6,245.1" id="Path"></path>
            <path d="M715.1,228.4 C715.9,228.5 721.9,239.6 721.5,241 C721.1,242.4 714.1,242.7 714,243.5 C713.9,244.3 715,246 716.2,246" id="Path"></path>
            <path d="M708.4,250.5 C708.4,250.5 704.5,266.1 705.2,268.4 C705.9,270.6 710.8,278.2 709.8,279.6 C708.8,281 700.5,282.5 702.1,280.9 C703.8,279.2 708.5,278.4 709.1,278.4" id="Path"></path>
            <path d="M710.6,251 C710.7,251.7 711.2,277.4 711.6,277.7 C712,278 720.8,279.9 717.7,280.6 C714.6,281.3 711.7,280.3 711.4,279.2" id="Path"></path>
            <path d="M665.8,227.6 C665.8,227.6 674.7,244.6 671.8,250.8 C668.9,256.9 665.2,244.9 664.8,241.9 C664.5,238.7 661.8,226.6 665.8,227.6 Z" id="Path"></path>
            <path d="M661.3,214.8 C661.3,214.8 657.4,221.2 660.8,224.4 C664.2,227.6 667.8,225.4 667.3,221.5 C666.9,217.5 663.6,213.4 661.3,214.8 Z" id="Path"></path>
            <path d="M666.7,229.2 C667.7,229.6 676.2,239.2 677.4,239.5 C678.6,239.8 682.8,224.8 683.3,224.7 C683.7,224.6 687.3,225 687.3,223.3" id="Path"></path>
            <path d="M663.1,230.2 C663.1,230.2 657,243.5 658.8,245 C660.6,246.5 669.4,241.9 669.7,240.4" id="Path"></path>
            <path d="M668.6,252 C668.6,253 664.3,278 662.9,278.8 C661.5,279.6 655.9,277.7 656.3,279.9 C656.7,282.1 662.2,281.3 662.7,280.2" id="Path"></path>
            <path d="M671.4,253 C672.1,253.7 673.2,276.4 674.2,278 C675.2,279.6 680.8,277.7 679.9,279.8 C679.1,281.9 674.2,281.9 673.9,280.1" id="Path"></path>
            <path d="M608.2,214.1 C608.2,214.1 602.9,222.6 610,223.9 C617.1,225.2 613.3,215.1 612.7,214.6 C612,214 610,213 608.2,214.1 Z" id="Path"></path>
            <path d="M612.2,225.4 C612.2,225.4 609.8,248.1 613.3,250.5 C616.8,252.9 618.6,251.9 618.2,244.6 C617.8,237.4 614.2,225.1 612.2,225.4 Z" id="Path"></path>
            <path d="M611.4,227.7 C611.4,228.1 603,243.7 619.2,250.7" id="Path"></path>
            <path d="M614.3,228.4 C614.7,228.4 621,246.3 621.6,248.5" id="Path"></path>
            <path d="M613.4,250.5 C613.4,250.5 616.2,259.3 613.3,266.5 C610.4,273.7 606.9,277.1 605.9,278.2 C604.9,279.3 611.2,280.7 612.2,278.9 C613.2,277.1 611.8,276.2 609.7,276.8" id="Path"></path>
            <path d="M617.3,251.8 C617.4,252.2 621.2,276.6 621.9,277.3 C622.6,278 627.2,279.4 627.9,277.7 C628.6,276 626.1,275.2 624.3,275.5" id="Path"></path>
            <path d="M598,214.5 C597.4,214.5 590.9,215.5 591.9,220.8 C592.9,226.1 600,223.2 600,219.7 C600,216.2 599.8,214.4 598,214.5 Z" id="Path"></path>
            <path d="M591.2,224.2 C591.2,224.2 578.8,245.8 582.3,251.4 C585.8,257 591.9,235.1 591.9,230.3 C591.9,225.6 591.9,223.9 591.2,224.2 Z" id="Path"></path>
            <path d="M600.8,222.5 C600.8,223.5 600.1,233.8 599,234.9 C597.9,236 590.9,231.3 590.2,229.7" id="Path"></path>
            <path d="M589.6,226.5 C589.6,226.5 579.8,237.2 577.2,246.5" id="Path"></path>
            <path d="M582.7,252.6 C582.7,252.6 583.1,264.5 582.4,269.1 C581.7,273.7 580.6,278.3 580.6,278.3 C580.6,278.3 585.9,277.3 586.5,279.1 C587.1,280.9 582.5,281.3 581.2,280.4" id="Path"></path>
            <path d="M585,252.1 C585.4,252.9 590.3,263.4 589.9,264.9 C589.5,266.4 586.1,275.9 586.6,276.5 C587,277.1 595.3,276.8 593.7,278.2 C592.2,279.6 590.6,279.6 589.4,278.3" id="Path"></path>
            <path d="M527.8,223.2 C527.3,223.3 524.1,224.2 524.9,227.6 C525.7,231 531.8,233.8 533.1,230.8 C534.4,227.8 532.1,222.1 527.8,223.2 Z" id="Path"></path>
            <path d="M535.3,231.7 C535.4,231.7 535.9,232.5 536.7,233.6 C539.3,237.4 544.6,245.8 545,249 C545.5,253.2 546.5,259.9 544,260.6 C541.5,261.4 534,248.7 534.5,241.7 C535,234.6 536.4,235 536.4,235" id="Path"></path>
            <path d="M548.3,243.4 C548.4,243.9 548.8,261.2 548.2,261.6 C547.6,262 538.9,260.6 538.4,261.3 C537.9,262.1 537.8,280.6 537.8,280.6" id="Path"></path>
            <path d="M544.6,263.9 L546.8,280.1" id="Path"></path>
            <path d="M500.2,279.7 C500.1,278.8 499.7,251.8 505.1,251.4" id="Path"></path>
            <path d="M527.2,251 C527.2,251 530.6,249.4 530.5,261.7 C530.4,274.1 530.4,279.4 530.4,279.4" id="Path"></path>
            <path d="M500.8,250.9 C501.6,250.8 530.7,250.5 530.7,250.5" id="Path"></path>
            <path d="M507.1,232.7 C507.1,233.1 510.3,248.4 510.3,248.4 L528.6,247.8" id="Path"></path>
            <path d="M537.2,237.1 C537.1,237.7 540.4,248.3 521.2,246.4" id="Path"></path>
            <path d="M543.2,258.2 C542.8,258.2 527.8,256.7 527,258.2 C526.2,259.7 521.1,276.8 519.7,277.9 C518.3,279 513.5,276.1 514.3,278.2 C515.1,280.2 519,281 521.2,279.2 C523.5,277.4 529.7,260.4 530,259.4" id="Path"></path>
            <path d="M452.4,212.5 C452.4,212.5 447,218.6 453.1,222.5 C454.4,223.4 455.5,223.2 456.2,222.6 C458.7,220.3 457.3,210.7 452.4,212.5 Z" id="Path"></path>
            <path d="M457.8,224.1 C458.1,224.4 468,244.1 462.5,249.2 C461.5,250.2 460.6,250.5 459.9,250.3 C456.8,249.7 456.2,240.3 455.9,237.6 C455.7,234.3 454.6,221.4 457.8,224.1 Z" id="Path"></path>
            <path d="M459.2,249.9 C459.2,249.9 454.6,263.9 455,265.5 C455.4,267.2 458.9,277.9 457.9,278.6 C456.9,279.3 451.9,278 451.2,279.7 C450.5,281.4 456.8,281.2 457.6,279.8" id="Path"></path>
            <path d="M461.7,250.4 C461.7,250.4 457.8,264.5 458.5,266.3 C459.2,268.1 464.2,278.7 464.1,279.4 C464,280.1 459.8,281.8 459.5,280.7 C459.2,279.6 461.2,278.6 462.6,278.7" id="Path"></path>
            <path d="M460.2,229.7 C460.3,230.1 459.4,245 456.2,250.6" id="Path"></path>
            <path d="M455.6,231.3 C455.7,231.9 452.4,243.2 445,245.8" id="Path"></path>
            <path d="M428.8,227.4 C428.8,228.1 432.7,248.2 445,245.7" id="Path"></path>
            <path d="M431,222.3 C430.3,222.5 420.5,232.5 423,243.5 C425.5,254.5 430.5,243.2 430,239.5 C429.5,235.8 431,225.4 431.4,224 C431.9,222.5 431.9,222 431,222.3 Z" id="Path"></path>
            <path d="M435.8,212.1 C435,212.2 429.5,215 431.3,218.8 C433.1,222.6 435.2,224.2 437,221.6 C438.9,218.9 439.5,211.4 435.8,212.1 Z" id="Path"></path>
            <path d="M427,247.9 C427.4,248 432.4,262.7 431.6,266.2 C430.8,269.7 427.3,274.9 427.1,276.4 C427,277.9 431.4,275.4 432.3,277.2 C433.1,279 428.4,279.9 427,277.9" id="Path"></path>
            <path d="M425,247.9 C425.1,248.6 431.6,262.7 429,266.5 C426.5,270.3 420.9,275.3 421.3,277 C421.7,278.7 426.2,281.5 425.9,279.1 C425.6,276.7 424.2,276 423.1,275.9" id="Path"></path>
            <path d="M379.5,212.5 C379.5,212.5 372.9,216.1 374.3,220.6 C375.7,225.1 379.9,224.9 381.4,221.3 C382.9,217.7 382.2,212.5 379.5,212.5 Z" id="Path"></path>
            <path d="M376.3,225.4 C376.3,225.4 366.3,244.7 372,249.7 C377.7,254.7 381.6,222.1 376.3,225.4 Z" id="Path"></path>
            <path d="M374.8,227.1 C374.8,227.1 365,234.8 364.9,236.6 C364.8,238.4 370.1,239.8 370.3,241.8 C370.6,243.8 369.7,245.1 368.2,244.3" id="Path"></path>
            <path d="M378.7,227.5 C379.5,227.6 385.5,238.7 385.1,240.1 C384.7,241.5 377.7,241.8 377.6,242.6 C377.5,243.4 378.6,245.1 379.8,245.1" id="Path"></path>
            <path d="M372,249.7 C372,249.7 368.1,265.3 368.8,267.6 C369.5,269.8 374.4,277.4 373.4,278.8 C372.4,280.2 364.1,281.7 365.7,280.1 C367.4,278.4 372.1,277.6 372.7,277.6" id="Path"></path>
            <path d="M374.2,250.1 C374.3,250.8 374.8,276.5 375.2,276.8 C375.6,277.1 384.4,279 381.3,279.7 C378.2,280.4 375.3,279.4 375,278.3" id="Path"></path>
            <path d="M329.5,226.8 C329.5,226.8 338.4,243.8 335.5,250 C332.6,256.1 328.9,244.1 328.5,241.1 C328.1,238.1 325.4,225.8 329.5,226.8 Z" id="Path"></path>
            <path d="M325,213.9 C325,213.9 321.1,220.3 324.5,223.5 C327.9,226.7 331.5,224.5 331,220.6 C330.5,216.7 327.3,212.6 325,213.9 Z" id="Path"></path>
            <path d="M330.3,228.4 C331.3,228.8 339.8,238.4 341,238.7 C342.3,239 346.4,224 346.9,223.9 C347.3,223.8 350.9,224.2 350.9,222.5" id="Path"></path>
            <path d="M326.7,229.4 C326.7,229.4 320.6,242.7 322.4,244.2 C324.2,245.7 333,241.1 333.3,239.6" id="Path"></path>
            <path d="M332.3,251.2 C332.3,252.2 328,277.2 326.6,278 C325.2,278.8 319.6,276.9 320,279.1 C320.4,281.3 325.9,280.5 326.4,279.4" id="Path"></path>
            <path d="M335.1,252.1 C335.8,252.8 336.9,275.5 337.9,277.1 C338.9,278.7 344.5,276.8 343.6,278.9 C342.8,281 337.9,281 337.6,279.2" id="Path"></path>
            <path d="M271.8,214.3 C271.8,214.3 266.5,222.8 273.6,224.1 C280.7,225.4 276.9,215.3 276.3,214.8 C275.6,214.2 273.6,213.2 271.8,214.3 Z" id="Path"></path>
            <path d="M275.9,225.6 C275.9,225.6 273.5,248.3 277,250.7 C280.5,253.1 282.3,252.1 281.9,244.8 C281.5,237.6 277.8,225.3 275.9,225.6 Z" id="Path"></path>
            <path d="M275,227.8 C275,228.2 266.6,243.8 282.8,250.8" id="Path"></path>
            <path d="M278,228.5 C278.4,228.5 284.7,246.4 285.3,248.6" id="Path"></path>
            <path d="M277,250.7 C277,250.7 279.8,259.5 276.9,266.7 C274,274 270.5,277.3 269.5,278.4 C268.5,279.5 274.8,280.9 275.8,279.1 C276.8,277.3 275.4,276.4 273.3,277" id="Path"></path>
            <path d="M280.9,252 C281,252.4 284.8,276.8 285.5,277.5 C286.2,278.2 290.8,279.6 291.5,277.9 C292.2,276.2 289.7,275.4 287.9,275.7" id="Path"></path>
            <path d="M261.6,214.7 C261,214.7 254.5,215.7 255.5,221 C256.5,226.3 263.6,223.4 263.6,219.9 C263.6,216.4 263.5,214.6 261.6,214.7 Z" id="Path"></path>
            <path d="M254.8,224.4 C254.8,224.4 242.4,246 245.9,251.6 C249.4,257.2 255.5,235.3 255.5,230.5 C255.5,225.8 255.5,224.1 254.8,224.4 Z" id="Path"></path>
            <path d="M264.4,222.7 C264.4,223.7 263.7,234 262.6,235.1 C261.5,236.2 254.5,231.5 253.8,229.9" id="Path"></path>
            <path d="M253.3,226.7 C253.3,226.7 243.5,237.4 240.9,246.7" id="Path"></path>
            <path d="M246.3,252.8 C246.3,252.8 246.7,264.7 246,269.3 C245.3,273.9 244.2,278.5 244.2,278.5 C244.2,278.5 249.5,277.5 250.1,279.3 C250.7,281.1 246.1,281.5 244.8,280.6" id="Path"></path>
            <path d="M248.7,252.3 C249.1,253.1 254,263.6 253.6,265.1 C253.2,266.6 249.8,276.1 250.3,276.7 C250.8,277.3 259,277 257.4,278.4 C255.9,279.8 254.3,279.8 253.1,278.5" id="Path"></path>
            <path d="M211.9,212.6 C211.9,212.6 206.5,218.7 212.6,222.6 C213.9,223.5 215,223.3 215.7,222.7 C218.3,220.4 216.8,210.8 211.9,212.6 Z" id="Path"></path>
            <path d="M217.4,224.2 C217.7,224.5 227.6,244.2 222.1,249.3 C221.1,250.3 220.2,250.6 219.5,250.4 C216.4,249.8 215.8,240.4 215.5,237.7 C215.3,234.4 214.2,221.5 217.4,224.2 Z" id="Path"></path>
            <path d="M218.8,250 C218.8,250 214.2,264 214.6,265.6 C215,267.3 218.5,278 217.5,278.7 C216.5,279.4 211.5,278.1 210.8,279.8 C210.1,281.5 216.4,281.3 217.2,279.9" id="Path"></path>
            <path d="M221.3,250.5 C221.3,250.5 217.4,264.6 218.1,266.4 C218.8,268.2 223.8,278.8 223.7,279.5 C223.6,280.2 219.4,281.9 219.1,280.8 C218.8,279.7 220.8,278.7 222.2,278.8" id="Path"></path>
            <path d="M219.7,229.8 C219.8,230.2 218.9,245.1 215.7,250.7" id="Path"></path>
            <path d="M215.1,231.4 C215.2,232 211.9,243.3 204.5,245.9" id="Path"></path>
            <path d="M188.4,227.5 C188.4,228.2 192.3,248.3 204.6,245.8" id="Path"></path>
            <path d="M190.6,222.4 C189.9,222.6 180.1,232.6 182.6,243.6 C185.1,254.6 190.1,243.3 189.6,239.6 C189,235.8 190.6,225.5 191,224.1 C191.4,222.6 191.4,222.1 190.6,222.4 Z" id="Path"></path>
            <path d="M195.3,212.2 C194.5,212.3 189,215.1 190.8,218.9 C192.6,222.7 194.7,224.3 196.5,221.7 C198.3,219.1 199.1,211.5 195.3,212.2 Z" id="Path"></path>
            <path d="M186.5,248 C186.9,248.1 191.9,262.8 191.1,266.3 C190.3,269.8 186.8,275 186.6,276.5 C186.5,278 190.9,275.5 191.8,277.3 C192.6,279.1 187.9,280 186.5,278" id="Path"></path>
            <path d="M184.6,248 C184.7,248.7 191.2,262.8 188.6,266.6 C186,270.4 180.5,275.4 180.9,277.1 C181.3,278.8 185.8,281.6 185.5,279.2 C185.2,276.8 183.8,276.1 182.7,276" id="Path"></path>
            <path d="M139.1,213.6 C139.1,213.6 132.5,217.2 133.9,221.7 C135.3,226.2 139.5,226 141,222.4 C142.5,218.8 141.7,213.6 139.1,213.6 Z" id="Path"></path>
            <path d="M135.9,226.5 C135.9,226.5 125.9,245.8 131.6,250.8 C137.3,255.8 141.2,223.2 135.9,226.5 Z" id="Path"></path>
            <path d="M134.4,228.2 C134.4,228.2 124.6,235.9 124.5,237.7 C124.4,239.5 129.7,240.9 129.9,242.9 C130.2,244.9 129.3,246.2 127.8,245.4" id="Path"></path>
            <path d="M138.3,228.6 C139.1,228.7 145.1,239.8 144.7,241.2 C144.3,242.6 137.3,242.9 137.2,243.7 C137.1,244.5 138.2,246.2 139.4,246.2" id="Path"></path>
            <path d="M131.6,250.8 C131.6,250.8 127.7,266.4 128.4,268.7 C129.1,271 134,278.5 133,279.9 C132,281.3 123.7,282.8 125.3,281.2 C127,279.5 131.7,278.7 132.3,278.7" id="Path"></path>
            <path d="M133.8,251.2 C133.9,251.9 134.4,277.6 134.8,277.9 C135.2,278.2 144,280.1 140.9,280.8 C137.8,281.5 134.9,280.5 134.6,279.4" id="Path"></path>
            <path d="M89,227.8 C89,227.8 97.9,244.8 95,251 C92.1,257.1 88.4,245.1 88,242.1 C87.6,239 85,226.9 89,227.8 Z" id="Path"></path>
            <path d="M84.5,215 C84.5,215 80.6,221.4 84,224.6 C87.4,227.8 91,225.6 90.5,221.7 C90.1,217.8 86.8,213.7 84.5,215 Z" id="Path"></path>
            <path d="M89.9,229.5 C90.9,229.9 99.4,239.5 100.6,239.8 C101.8,240.1 106,225.1 106.5,225 C106.9,224.9 110.5,225.3 110.5,223.6" id="Path"></path>
            <path d="M86.2,230.5 C86.2,230.5 80.1,243.8 81.9,245.3 C83.7,246.8 92.5,242.2 92.8,240.7" id="Path"></path>
            <path d="M91.8,252.3 C91.8,253.3 87.5,278.3 86.1,279.1 C84.7,279.9 79.1,278 79.5,280.2 C79.9,282.4 85.4,281.6 85.9,280.5" id="Path"></path>
            <path d="M94.6,253.2 C95.3,253.9 96.4,276.6 97.4,278.2 C98.4,279.7 104,277.9 103.1,280 C102.3,282.1 97.4,282.1 97.1,280.3" id="Path"></path>
            <path d="M31.4,214.4 C31.4,214.4 26.1,222.9 33.2,224.2 C40.3,225.5 36.5,215.4 35.9,214.9 C35.1,214.3 33.2,213.3 31.4,214.4 Z" id="Path"></path>
            <path d="M35.4,225.7 C35.4,225.7 33,248.4 36.5,250.8 C40,253.2 41.8,252.2 41.4,244.9 C41,237.7 37.4,225.4 35.4,225.7 Z" id="Path"></path>
            <path d="M34.6,227.9 C34.6,228.3 26.2,243.9 42.4,250.9" id="Path"></path>
            <path d="M37.5,228.6 C37.9,228.6 44.2,246.5 44.8,248.7" id="Path"></path>
            <path d="M36.5,250.8 C36.5,250.8 39.3,259.6 36.4,266.8 C33.5,274.1 30,277.4 29,278.5 C28,279.6 34.3,281 35.3,279.2 C36.3,277.4 34.9,276.5 32.8,277.1" id="Path"></path>
            <path d="M40.4,252.1 C40.5,252.5 44.3,276.9 45,277.6 C45.7,278.3 50.3,279.7 51,278 C51.7,276.3 49.2,275.5 47.4,275.8" id="Path"></path>
            <path d="M21.2,214.8 C20.6,214.8 14.1,215.8 15.1,221.1 C16.1,226.4 23.2,223.5 23.2,220 C23.1,216.5 23,214.7 21.2,214.8 Z" id="Path"></path>
            <path d="M14.4,224.5 C14.4,224.5 2,246.1 5.5,251.7 C9,257.3 15.1,235.4 15.1,230.6 C15.1,225.8 15.1,224.2 14.4,224.5 Z" id="Path"></path>
            <path d="M24,222.8 C24,223.8 23.3,234.1 22.2,235.2 C21.1,236.3 14.1,231.6 13.4,230" id="Path"></path>
            <path d="M12.8,226.8 C12.8,226.8 3,237.5 0.4,246.8" id="Path"></path>
            <path d="M5.8,252.9 C5.8,252.9 6.2,264.8 5.5,269.4 C4.8,274 3.7,278.6 3.7,278.6 C3.7,278.6 9,277.6 9.6,279.4 C10.2,281.2 5.6,281.6 4.3,280.7" id="Path"></path>
            <path d="M8.2,252.4 C8.6,253.2 13.5,263.7 13.1,265.2 C12.7,266.7 9.3,276.2 9.8,276.8 C10.2,277.4 18.5,277.1 16.9,278.5 C15.3,279.9 13.8,279.9 12.6,278.6" id="Path"></path>
            <path d="M3780.8,73.4 C3780.8,73.4 3777.7,81.5 3783.9,81.5 C3790,81.5 3787.8,71.1 3780.8,73.4 Z" id="Path"></path>
            <path d="M3789.7,80.1 C3789.7,80.1 3809.8,92.9 3809,96.8 C3808.7,98.2 3806.8,99.7 3804,98.8 C3798.9,97.1 3791.6,90.8 3789.8,86 C3786.9,78.4 3789.7,80.1 3789.7,80.1 Z" id="Path"></path>
            <path d="M3804,98.8 C3804.8,99.9 3819.4,124.4 3819.4,124.4" id="Path"></path>
            <path d="M3809,96.8 C3809,96.8 3831.5,109.2 3831.5,108.3" id="Path"></path>
            <path d="M3789.7,85.9 C3789.7,85.9 3792.5,105.2 3788.3,110.5" id="Path"></path>
            <path d="M3814.4,40.6 C3814.4,40.6 3812.2,50.4 3817.7,49 C3823.3,47.6 3821.6,41.5 3819.9,40.9 C3818.4,40.3 3814.4,40.6 3814.4,40.6 Z" id="Path"></path>
            <path d="M3821.3,52.4 C3821.3,52.4 3824.1,65.2 3816.6,73.6 C3809,82.1 3794.3,81.7 3792.9,81.4" id="Path"></path>
            <path d="M3821,49.7 C3821.1,48.9 3838,64.8 3835.8,69 C3833.5,73.1 3819.9,58.3 3821,49.7 Z" id="Path"></path>
            <path d="M3836.3,68.4 C3836.3,68.4 3856.5,87.2 3857.3,87.2" id="Path"></path>
            <path d="M3832.4,68.4 C3832.4,68.4 3844.6,95.8 3844.3,96.7" id="Path"></path>
            <path d="M3856.4,15.9 C3856.4,15.9 3851.6,22.9 3857.1,25.9 C3862.7,29 3864.4,21.7 3858.3,17.8" id="Path"></path>
            <path d="M3862.6,28.4 C3868.5,31.2 3874,53.2 3869.9,53.2 C3866.1,53.2 3861.4,33.9 3860.5,30.3 C3860.5,30.2 3860.4,30.2 3860.4,30.3 C3860.3,33.1 3859.1,45.4 3847.6,51.8 C3838.8,56.7 3825.3,51.8 3824.4,51.5" id="Path"></path>
            <path d="M3905,13.1 C3903.5,12.3 3901.9,36.8 3907.2,41 C3912.5,45.2 3911.4,16.7 3905,13.1 Z" id="Path"></path>
            <path d="M3902.2,0.5 C3901.2,0.4 3897.7,7.8 3902.8,9.7 C3907.9,11.6 3909.2,1.4 3902.2,0.5 Z" id="Path"></path>
            <path d="M3906.7,40.8 C3906.4,40.5 3902.4,70.6 3902.4,70.6" id="Path"></path>
            <path d="M3910,40.3 C3910.3,41.4 3918.2,68 3918.2,68" id="Path"></path>
            <path d="M3864.5,30.1 C3865.3,30.4 3875.1,38.8 3887.1,33.2 C3897.2,28.5 3903.8,16.6 3903.8,16.6" id="Path"></path>
            <path d="M3869.1,53.1 C3868.5,56 3871.5,79.7 3871.5,79.7" id="Path"></path>
            <path d="M3871.5,52 C3872.6,53.4 3885.8,74 3885.8,74" id="Path"></path>
            <path d="M3948.8,1.7 C3948.8,1.7 3945,6.9 3947.2,9.7 C3949.4,12.5 3952.5,11.3 3952.6,7.6 C3952.7,3.9 3951.3,1.2 3948.8,1.7 Z" id="Path"></path>
            <path d="M3965.6,30.2 C3963.6,31.9 3947.5,15.6 3948.4,14.8 C3949.7,13.6 3941.3,28.4 3926.2,28.2 C3920,28.1 3907.5,16.2 3907.5,16.2" id="Path"></path>
            <path d="M3946.7,42.3 C3945.8,42.3 3941.3,29.9 3948.4,14.8 C3952.2,19.6 3951.3,42.3 3946.7,42.3 Z" id="Path"></path>
            <path d="M3945.9,41.8 C3945.9,41.8 3940.3,69.5 3938.1,69.1" id="Path"></path>
            <path d="M3948.5,42.1 C3948.5,43.5 3952.7,70.7 3953,71.9" id="Path"></path>
            <path d="M3754.8,134.7 C3754.8,134.7 3747,139.2 3754,143.1 C3761,147 3761.5,141.4 3759.3,137.8 C3757,134.2 3756.2,134.7 3754.8,134.7 Z" id="Path"></path>
            <path d="M3760.9,135.6 C3760.9,135.6 3777.9,125.6 3784.9,138.9 C3791.9,152.3 3776.5,143.4 3772.6,140.9 C3768.7,138.4 3758.4,138.7 3759.2,137.8 C3760.1,137 3759.5,136.7 3760.9,135.6 Z" id="Path"></path>
            <path d="M3786.6,120.2 C3786.6,120.2 3769.9,123.3 3760.9,135.5" id="Path"></path>
            <path d="M3763.7,138.4 C3763.7,138.4 3771.2,141.2 3774.6,152.4" id="Path"></path>
            <path d="M3786.6,141.1 L3808.3,150.2" id="Path"></path>
            <path d="M3785.5,145.9 C3787.2,145.9 3802.2,161.6 3803.3,165.2" id="Path"></path>
        </g>
    </g>
</svg>