<?xml version="1.0" encoding="UTF-8"?>
<svg width="4000px" height="320px" viewBox="0 0 4000 320" version="1.1" xmlns="http://www.w3.org/2000/svg" xmlns:xlink="http://www.w3.org/1999/xlink">
    <!-- Generator: Sketch 52.3 (67297) - http://www.bohemiancoding.com/sketch -->
    <title>Kroppsøving</title>
    <desc>Created with Sketch.</desc>
    <g id="Kroppsøving" stroke="none" stroke-width="1" fill="none" fill-rule="evenodd">
        <g id="kroppsøving" stroke="#FFFFFF">
            <path d="M3958.8,211.8 C3958.8,211.8 3950.8,213.8 3954.4,220.1 C3958,226.4 3963.2,223.5 3963.2,219.6 C3963.2,215.7 3962.2,213.2 3958.8,211.8 Z" id="Path"></path>
            <path d="M3959.8,225.9 C3959.8,225.9 3959.8,250.7 3966.6,252.9 C3973.4,255.1 3971.7,244.1 3970.8,242 C3969.9,239.9 3965.2,226.8 3959.8,225.9 Z" id="Path"></path>
            <path d="M3962.8,231.4 C3962.8,231.9 3962.3,244.6 3959.4,245.7 C3956.5,246.7 3947.3,249.9 3945,249.3 C3942.7,248.7 3944.3,246.2 3946,247.1 C3947.7,247.9 3947.7,247.9 3947.7,247.9" id="Path"></path>
            <path d="M3963,227.3 C3963,227.3 3967.4,228.7 3972,234.6 C3977.6,241.9 3977.3,245.6 3978.1,246.8 C3978.9,248 3982.7,250.2 3980,250.2 C3977.3,250.2 3976.1,250.5 3976.8,248.5" id="Path"></path>
            <path d="M3964.9,252.2 C3964.1,252.2 3952.5,251.2 3953,256.1 C3953.5,261 3961.1,273.2 3963.2,274.4 C3965.2,275.6 3967.4,276.6 3966.3,277.5 C3965.1,278.3 3956.6,280.2 3957,278.3 C3957.3,276.4 3962.8,275.3 3964.1,275.4" id="Path"></path>
            <path d="M3969.8,253.8 C3969.8,253.8 3974.6,268.4 3979.8,273.2 C3985.1,278 3990.3,279.8 3992.4,282.4 C3994.4,284.9 3995.6,287.7 3995.6,287.7 C3995.6,287.7 3989.1,293.5 3988.1,291.3 C3987.1,289.1 3992.2,287.6 3994.4,287.2" id="Path"></path>
            <path d="M3886.7,188.8 C3886.7,188.8 3880.9,192.1 3881.5,196.2 C3882.1,200.3 3885.6,204.4 3887.6,202.3 C3889.6,200.2 3893.4,190 3886.9,188.3" id="Path"></path>
            <path d="M3885.4,203.3 C3885.4,203.3 3880,233.4 3889.3,235.3 C3898.6,237.2 3888.7,205.7 3888,204.6 C3887.3,203.5 3887.6,202.4 3887.6,202.4" id="Path"></path>
            <path d="M3887.1,234.5 L3877.8,253.1 C3877.8,253.1 3885.8,265 3886.1,267.6" id="Path"></path>
            <path d="M3889.3,235.3 L3881.9,252.6 C3881.9,252.6 3892.3,269.3 3892.9,269.7" id="Path"></path>
            <path d="M3886.1,205.7 C3885.5,205.5 3865.4,192 3865.4,192 C3865.4,192 3858.9,185.3 3857.4,186.2" id="Path"></path>
            <path d="M3862.3,261.9 C3864,261.3 3902.7,272.5 3904.7,272.5 C3906.7,272.5 3912.1,273.8 3912.1,274.7 C3912.1,275.6 3892.2,279 3887.9,277.9 C3883.6,276.8 3868.6,271 3867.2,268.4 C3865.8,265.8 3862.3,261.9 3862.3,261.9 Z" id="Path"></path>
            <path d="M3857.1,292 C3857.1,292 3868.1,270 3867.3,268.3" id="Path"></path>
            <path d="M3913.9,292 L3904.4,276.2" id="Path"></path>
            <path d="M3795.3,159.2 C3794.8,159.2 3787,162.7 3788.8,165.9 C3790.5,169.1 3798.8,167.3 3799.3,164.9 C3799.7,162.5 3797.4,159.2 3795.3,159.2 Z" id="Path"></path>
            <path d="M3800.9,162.7 C3801.4,162.5 3826.8,162.7 3829.5,161.3 C3832.2,159.9 3834.7,153.2 3833,151.3 C3831.3,149.4 3828.7,147.6 3825.4,148.8 C3822.1,149.9 3813.7,155.1 3811.6,156.4 C3809.5,157.7 3801.4,160.1 3800.8,160.5 C3800.1,160.9 3800.9,162.7 3800.9,162.7 Z" id="Path"></path>
            <path d="M3806.7,161.1 L3803.2,188.9 C3803.2,188.9 3795.3,190.5 3796.5,188.9 C3797.8,187.3 3802.1,187.5 3802.1,187.5" id="Path"></path>
            <path d="M3830.5,156.3 C3830.5,156.3 3822.4,167.7 3824.6,171.7 C3826.8,175.7 3840.6,178.8 3841.7,179.2 C3842.8,179.6 3841.1,183.5 3843,185.9 C3844.9,188.3 3842.8,191 3841.4,188.4 C3840,185.9 3839.8,182.5 3840.3,181.1" id="Path"></path>
            <path d="M3822.4,163.2 C3822.4,163.2 3816.5,176.7 3818.6,178.3 C3820.7,179.9 3841.6,170 3843.2,168.5 C3844.8,166.9 3850.5,168.3 3850.2,170.4 C3849.9,172.5 3845.6,172.3 3845.3,170.7" id="Path"></path>
            <path d="M3773,191.7 C3773,191.7 3769.8,198.2 3770,207.7 C3770.2,217.2 3770.7,224.3 3771.5,224.8 C3772.3,225.3 3776,226.3 3777.6,226.3 C3779.3,226.3 3829.1,226.9 3831,225.2 C3832.9,223.5 3833.2,213.5 3833.2,209.8 C3833.2,206.1 3831.9,196 3831.9,194.2 C3831.9,192.4 3830.2,189.9 3827.8,189.9 C3825.4,189.9 3774.8,190.1 3774.8,190.1 C3774.8,190.1 3769.8,191 3769.4,193.1" id="Path"></path>
            <path d="M3779.9,226.5 C3779.9,226.5 3773.6,252.2 3772.8,254.6 C3772,257 3768.7,271.2 3768.7,271.2 L3773.5,272.1 C3773.5,272.1 3786.5,227.6 3786.5,227.1" id="Path"></path>
            <path d="M3814.3,226.7 C3814.3,226.7 3823.8,262.8 3823.8,264.1 C3823.8,265.4 3824.5,271.5 3825.3,272.1 C3825.6,272.3 3826.4,272.1 3827.4,271.7 C3829,271.1 3831.1,270.1 3831.8,270.1 C3832.9,270.1 3831.4,264.9 3830.9,263 C3830.3,261.1 3821.8,226.2 3821.8,226.2" id="Path"></path>
            <path d="M3771,284 C3771,284.9 3770.1,292 3770.1,292 L3764,291.7 L3766.2,281.8 L3767.3,280.9 L3769.9,282.3 L3771,284 Z" id="Path"></path>
            <path d="M3767.6,280.9 L3770,271.5" id="Path"></path>
            <path d="M3772.8,272.7 L3769.9,282.3" id="Path"></path>
            <path d="M3827.4,271.7 L3830,283.1" id="Path"></path>
            <path d="M3830,271 L3833.3,282.5" id="Path"></path>
            <path d="M3828.4,283.8 L3835.3,283.2 C3835.3,283.2 3837.5,290.1 3837.5,291 C3837.5,291.9 3830.1,292.5 3829.5,292.1 C3828.9,291.8 3828.4,283.8 3828.4,283.8 Z" id="Path"></path>
            <path d="M3701.9,284.9 C3701.3,284.7 3694.6,282.1 3693.5,284.7 C3692.4,287.3 3692.9,292.1 3698.2,292.5 C3703.4,292.9 3706.2,289.3 3705.3,287.8 C3704.4,286.3 3701.9,284.9 3701.9,284.9 Z" id="Path"></path>
            <path d="M3701.5,283.8 C3701.3,283.2 3697.6,281.6 3699.6,273.8 C3701.6,266 3705.9,258.7 3708.9,256.9 C3711.9,255.1 3716.7,254.9 3715.4,258 C3714.1,261.2 3708,270.1 3708.7,273.3 C3709.4,276.5 3708.5,285 3706.8,285 C3705.2,284.9 3701.5,283.8 3701.5,283.8 Z" id="Path"></path>
            <path d="M3706,279.5 C3708.1,279.6 3717.4,276.2 3719,278.8 C3720.9,281.7 3721.2,286.6 3722.7,287.7 C3724.2,288.8 3723,290.5 3725.2,291.1 C3727.6,291.7 3733.6,287.4 3732.1,286.4" id="Path"></path>
            <path d="M3698.4,275.1 C3698.4,275.1 3688,272.9 3686.5,273.4 C3685,274 3678.3,277.5 3676.1,276.4 C3673.9,275.3 3669.8,272.9 3672.2,272.5 C3674.6,272.1 3677.4,274.5 3677.4,274.5" id="Path"></path>
            <path d="M3711.3,255.4 C3711.7,254.8 3720.2,247 3722.8,244.7 C3725.4,242.5 3729.5,231.5 3727.1,224 C3724.7,216.6 3726,216.9 3727.7,218 C3729.4,219.1 3729.6,223 3728.8,224" id="Path"></path>
            <path d="M3716.5,255.9 C3717.4,255.3 3730,253.8 3731.7,252.1 C3733.4,250.4 3738,243.7 3739.3,241.7 C3740.6,239.7 3740,238.2 3741.7,238.9 C3743.4,239.6 3748.2,249.5 3745.2,248.8 C3742.2,248.1 3741.5,242.8 3741.5,242.8" id="Path"></path>
            <path d="M3694,289.4 C3694,289.4 3698.4,289.8 3698.5,288.8" id="Path"></path>
            <path d="M3792.9,166.6 C3792.9,166.6 3793.5,164.5 3793.1,163.3" id="Path"></path>
            <path d="M3882.6,192.5 C3882.6,192.5 3886.7,192.9 3887.1,193.8" id="Path"></path>
            <path d="M3953.8,218 C3953.8,218 3957.7,218.8 3958.9,217.8" id="Path"></path>
            <path d="M3952.5,76.8 C3952.5,76.8 3946.8,68 3940.8,66.3 C3934.8,64.6 3929.6,63.3 3928.9,66.9 C3928.2,70.4 3934.5,75.8 3940.1,76.9 C3945.7,78.1 3948.8,79.8 3952.5,76.8 Z" id="Path"></path>
            <path d="M3946.8,78.4 C3947.4,79 3949.2,98 3953.6,101.7" id="Path"></path>
            <path d="M3949.4,71.7 C3949.4,71 3952.9,53.1 3951.1,51.6 C3949.2,50.1 3947.4,47.9 3950,47.9 C3952.6,47.9 3953.3,49.4 3953.2,50.1" id="Path"></path>
            <path d="M3931.9,65 C3931.5,64.1 3925.8,47.9 3923.4,46.4 C3921,44.9 3909.8,55.9 3906.3,55.3 C3902.8,54.7 3899.4,48.2 3898.9,50.1 C3898.3,52 3901.1,59.2 3906,55.7" id="Path"></path>
            <path d="M3930.6,68.4 C3929.9,68 3920.6,63.7 3919.1,64.1 C3917.6,64.5 3914.3,77.9 3913.9,80.3 C3913.5,82.7 3908.6,81.8 3906.9,84.8 C3905.1,88.1 3915,85.5 3914.4,83.6 C3913.8,81.7 3913.8,81.7 3913.8,81.7" id="Path"></path>
            <ellipse id="Oval" cx="3923.2" cy="41.7" rx="5.6" ry="5.5"></ellipse>
            <ellipse id="Oval" cx="3951.4" cy="44.5" rx="5.7" ry="6"></ellipse>
            <path d="M3921.7,36.6 C3921.7,36.6 3917.6,13.9 3919.5,1.4" id="Path"></path>
            <path d="M3949,38.4 C3949,38.4 3944.3,11.4 3945.3,0.3" id="Path"></path>
            <path d="M3953.2,101.4 C3953.2,101.4 3956.4,104.2 3954.9,106.3 C3953.4,108.4 3951.1,108.5 3951.7,106.4 C3952.3,104.3 3953.2,101.4 3953.2,101.4 Z" id="Path"></path>
            <path d="M3955,76.1 C3955.5,75.9 3959,77.6 3960.9,80.2 C3962.2,82 3962.8,84.3 3961.2,86.7 C3959.5,89.1 3956.3,88.2 3953.9,86.1 C3950.7,83.2 3949.2,78.1 3955,76.1 Z" id="Path"></path>
            <path d="M3957.3,80.2 C3957.3,80.2 3952.8,83.7 3953.9,86.1" id="Path"></path>
            <path d="M4004,292.9 C4001.5,292.1 0.2,293.3 0.2,293.3" id="Path"></path>
        </g>
    </g>
</svg>