<?xml version="1.0" encoding="UTF-8"?>
<svg width="4000px" height="320px" viewBox="0 0 4000 320" version="1.1" xmlns="http://www.w3.org/2000/svg" xmlns:xlink="http://www.w3.org/1999/xlink">
    <!-- Generator: Sketch 50.2 (55047) - http://www.bohemiancoding.com/sketch -->
    <title>Markedsføring</title>
    <desc>Created with Sketch.</desc>
    <defs>
        <rect id="path-1" x="0" y="0" width="4000" height="320"></rect>
    </defs>
    <g id="Markedsføring" stroke="none" stroke-width="1" fill="none" fill-rule="evenodd">
        <g id="samfunnsfag">
            <mask id="mask-2" fill="white">
                <use xlink:href="#path-1"></use>
            </mask>
            <g id="Mask"></g>
            <g id="Layer_2" mask="url(#mask-2)">
                <g transform="translate(-140.000000, 143.000000)">
                    <path d="M3966.80489,19 C3966.80489,19 3960.80489,22 3961.00489,27.1 C3961.10489,29 3961.90489,30.4 3963.00489,31.4 C3964.90489,33 3967.60489,33.3 3968.90489,32.3 C3971.20489,30.7 3970.50489,21.8 3966.80489,19" id="Shape" stroke="#FFFFFF"></path>
                    <path d="M3967.25936,27.2 C3967.25936,27.2 3966.55936,26.7 3967.45936,26.1 C3968.15936,25.6 3970.45936,25 3970.45936,25" id="Shape" stroke="#FFFFFF"></path>
                    <path d="M3963.46343,32 L3963.86343,35.4 C3963.86343,35.4 3967.56343,52 3962.76343,59.2 C3957.66343,62 3958.06343,48.2 3962.06343,38.9 C3963.06343,36.7 3963.76343,34.7 3963.76343,34.7" id="Shape" stroke="#FFFFFF"></path>
                    <path d="M3963.71956,35 C3963.71956,35 3955.31956,37.2 3953.01956,39.6 C3952.81956,41.7 3954.21956,42.8 3954.21956,45.5 C3954.21956,48.2 3954.31956,52.7 3955.01956,53.8 C3955.71956,54.9 3956.31956,55.2 3956.31956,56 C3956.31956,56.8 3955.61956,57.3 3955.21956,57.4 C3954.81956,57.5 3953.71956,56.9 3953.61956,56.7 C3953.51956,56.4 3954.81956,54.4 3954.81956,54.4" id="Shape" stroke="#FFFFFF"></path>
                    <path d="M3964,35.5089665 C3964.2,35.7089665 3969.2,40.2089665 3969.9,41.6089665 C3970.6,43.0089665 3973.5,45.6089665 3974,46.0089665 C3974.4,46.4089665 3979.6,38.1089665 3980.9,36.9089665 C3982.2,35.7089665 3981.9,33.1089665 3982.9,34.3089665 C3984,35.5089665 3984.3,36.9089665 3983.4,37.1089665 C3982.5,37.3089665 3981.8,36.7089665 3981.8,36.7089665" id="Shape" stroke="#FFFFFF"></path>
                    <path d="M3964,58.743212 C3964.4,58.543212 3977.9,54.543212 3982.2,55.043212 C3982.2,56.443212 3975.2,68.543212 3975,74.843212 C3975.5,77.343212 3974.2,78.543212 3976.9,77.943212 C3979.6,77.343212 3983.4,77.743212 3984,80.243212" id="Shape" stroke="#FFFFFF"></path>
                    <path d="M3943.9,54 C3943.9,54 3941.4,61.6 3941,66.3 C3943.9,67.1 3944.7,66.7 3947.8,67.7 C3950.8,68.7 3962.3,72.7 3962.3,72.7 L3963.5,59.8 C3963.5,59.8 3947.7,56.9 3946.6,56.1 C3945.5,55.3 3943.9,54 3943.9,54 Z" id="Shape" stroke="#FFFFFF"></path>
                    <path d="M3958.5925,71 C3958.5925,71 3957.6925,73.2 3956.5925,76 C3955.3925,79.1 3948.5925,89.2 3948.5925,88 C3948.5925,87 3947.5925,94.6 3946.5925,95 C3945.8925,95.3 3945.6925,93.9 3945.0925,92.8 C3944.7925,92.3 3945.2925,89.4 3945.5925,89 L3948.5925,86" id="Shape" stroke="#FFFFFF"></path>
                    <path d="M0,142 L4122,141" id="Shape" stroke="#FFFFFF" opacity="0.56"></path>
                    <g id="Layer_5" stroke="none" fill-rule="evenodd" transform="translate(3909.000000, 0.000000)">
                        <path d="M31,95.4444444 C31,95.4444444 31.8,110.444444 31.8,117.444444 C31.8,124.444444 31,135.444444 31,135.444444 L50,135.444444 C50,135.444444 51.5,96.4444444 50.8,95.4444444 C50.1,94.4444444 31,95.4444444 31,95.4444444 Z" id="Shape" stroke="#FFFFFF"></path>
                        <g id="Layer_6" transform="translate(58.000000, 80.000000)" stroke="#FFFFFF">
                            <path d="M0,55 L21,55 C21,55 18.7,4 19.4,2 C20.2,0 20.2,0 20.2,0 L0,0 L0.8,19 C0.8,19 2.4,51 1.6,53" id="Shape"></path>
                        </g>
                        <g id="Layer_7" transform="translate(86.000000, 63.000000)" stroke="#FFFFFF">
                            <path d="M0,72.25 L17.1,72.25 C17.1,72.25 17.1,3.25 17.1,1.25 C17.1,-0.75 0,0.25 0,0.25 L0.8,69.25 L0,72.25 Z" id="Shape"></path>
                        </g>
                        <g id="Layer_8" transform="translate(113.000000, 48.000000)" stroke="#FFFFFF">
                            <path d="M0.8,88 L20.2,88 C20.2,88 20.2,56 19.4,51 C18.6,46 19.4,0 19.4,0 L0,0 C0,0 1.6,39 0.8,41 C4.54747351e-13,43 1.6,61 0.8,66 C0,71 0.8,88 0.8,88 Z" id="Shape"></path>
                        </g>
                        <g id="Layer_8_copy" transform="translate(141.000000, 0.000000)" stroke="#FFFFFF">
                            <path d="M0.8,135.5 L20.2,135.5 C20.2,135.5 20.2,95.3 19.4,89 C18.6,82.7 19.4,25 19.4,25 L0,25 C0,25 1.6,74 0.8,76.5 C0,79 1.6,101.6 0.8,107.9 C4.54747351e-13,114.2 0.8,135.5 0.8,135.5 Z" id="Shape"></path>
                            <path d="M33.8,134.5 L53.2,134.5 C53.2,134.5 53.2,85.6 52.4,77.9 C51.6,70.3 52.4,0 52.4,0 L33,0 C33,0 34.6,59.6 33.8,62.7 C33,65.8 34.6,93.3 33.8,100.9 C33,108.5 33.8,134.5 33.8,134.5 Z" id="Shape"></path>
                        </g>
                        <path d="M0,114.343 C0,114.343 0.8,122.643 0.8,126.543 C0.8,130.443 0,136.543 0,136.543 L19,136.543 C19,136.543 20.5,114.843 19.8,114.243 C19.1,113.643 0,114.343 0,114.343 Z" id="Shape" stroke="#FFFFFF"></path>
                    </g>
                    <g id="streker" stroke="none" fill-rule="evenodd" transform="translate(172.000000, 140.000000)">
                        <path d="M1,3 L0,20" id="Shape" stroke="#FFFFFF"></path>
                        <path d="M90,2 L90,21" id="Shape" stroke="#FFFFFF"></path>
                        <path d="M181,4 L180,21" id="Shape" stroke="#FFFFFF"></path>
                        <path d="M270,3 L270,22" id="Shape" stroke="#FFFFFF"></path>
                        <path d="M359,3 L358,20" id="Shape" stroke="#FFFFFF"></path>
                        <path d="M448,4 L448,23" id="Shape" stroke="#FFFFFF"></path>
                        <path d="M539,2 L538,22" id="Shape" stroke="#FFFFFF"></path>
                        <path d="M628,0 L628,22" id="Shape" stroke="#FFFFFF"></path>
                        <path d="M736,2 L735,22" id="Shape" stroke="#FFFFFF"></path>
                        <path d="M825,1 L825,23" id="Shape" stroke="#FFFFFF"></path>
                        <path d="M916,3 L915,23" id="Shape" stroke="#FFFFFF"></path>
                        <path d="M1005,2 L1005,24" id="Shape" stroke="#FFFFFF"></path>
                        <path d="M1106,2 L1106,24" id="Shape" stroke="#FFFFFF"></path>
                        <path d="M1197,3 L1196,23" id="Shape" stroke="#FFFFFF"></path>
                        <path d="M1286,3 L1286,25" id="Shape" stroke="#FFFFFF"></path>
                        <path d="M1394,2 L1393,22" id="Shape" stroke="#FFFFFF"></path>
                        <path d="M1483,1 L1483,23" id="Shape" stroke="#FFFFFF"></path>
                        <path d="M1574,3 L1573,23" id="Shape" stroke="#FFFFFF"></path>
                        <path d="M1663,2 L1663,24" id="Shape" stroke="#FFFFFF"></path>
                        <path d="M1771,1 L1771,23" id="Shape" stroke="#FFFFFF"></path>
                        <path d="M1862,2 L1861,22" id="Shape" stroke="#FFFFFF"></path>
                        <path d="M1951,2 L1951,24" id="Shape" stroke="#FFFFFF"></path>
                        <path d="M2059,2 L2058,22" id="Shape" stroke="#FFFFFF"></path>
                        <path d="M2148,1 L2148,23" id="Shape" stroke="#FFFFFF"></path>
                        <path d="M2239,3 L2238,23" id="Shape" stroke="#FFFFFF"></path>
                        <path d="M2328,2 L2328,24" id="Shape" stroke="#FFFFFF"></path>
                        <path d="M2433,3 L2433,25" id="Shape" stroke="#FFFFFF"></path>
                        <path d="M2524,3 L2523,23" id="Shape" stroke="#FFFFFF"></path>
                        <path d="M2613,3 L2613,25" id="Shape" stroke="#FFFFFF"></path>
                        <path d="M2721,3 L2720,23" id="Shape" stroke="#FFFFFF"></path>
                        <path d="M2810,2 L2810,24" id="Shape" stroke="#FFFFFF"></path>
                        <path d="M2901,2 L2900,22" id="Shape" stroke="#FFFFFF"></path>
                        <path d="M2990,3 L2990,25" id="Shape" stroke="#FFFFFF"></path>
                        <path d="M3094,2 L3094,24" id="Shape" stroke="#FFFFFF"></path>
                        <path d="M3185,2 L3184,22" id="Shape" stroke="#FFFFFF"></path>
                        <path d="M3274,3 L3274,25" id="Shape" stroke="#FFFFFF"></path>
                        <path d="M3382,2 L3381,22" id="Shape" stroke="#FFFFFF"></path>
                        <path d="M3471,2 L3471,24" id="Shape" stroke="#FFFFFF"></path>
                        <path d="M3562,2 L3561,22" id="Shape" stroke="#FFFFFF"></path>
                        <path d="M3651,1 L3651,23" id="Shape" stroke="#FFFFFF"></path>
                        <path d="M3746,3 L3746,25" id="Shape" stroke="#FFFFFF"></path>
                        <path d="M3843,3 L3842,23" id="Shape" stroke="#FFFFFF"></path>
                        <path d="M3937,2 L3937,24" id="Shape" stroke="#FFFFFF"></path>
                    </g>
                </g>
            </g>
        </g>
    </g>
</svg>