<?xml version="1.0" encoding="UTF-8"?>
<svg width="4000px" height="320px" viewBox="0 0 4000 320" version="1.1" xmlns="http://www.w3.org/2000/svg" xmlns:xlink="http://www.w3.org/1999/xlink">
    <!-- Generator: Sketch 51.2 (57519) - http://www.bohemiancoding.com/sketch -->
    <title>medieuttrykk-mediesamfunnet</title>
    <desc>Created with Sketch.</desc>
    <defs></defs>
    <g id="medieuttrykk-mediesamfunnet" stroke="none" stroke-width="1" fill="none" fill-rule="evenodd">
        <g id="medieuttrykk-og-mediesamfunnet" transform="translate(0.000000, 112.000000)" stroke="#FFFFFF">
            <path d="M3490.5,51.5 C3488.9,53.6 3488.2,56.4 3488.3,59 C3488.5,63.6 3491.2,67.8 3495.7,67.9 C3505.9,67.9 3502,53.4 3499.4,51.8 C3496.5,50 3491.6,50.3 3487.6,51" id="Shape"></path>
            <path d="M3488.6,58.8 L3493,58.8 C3493,58.8 3493.6,57.3 3494.6,57.6 C3495.6,57.9 3495.4,59.6 3495.4,59.6 C3495.4,59.6 3494.1,59.9 3493.6,59.6 C3492.6,59.1 3492.7,59.1 3492.9,59.3" id="Shape"></path>
            <path d="M3495.5,68.1 C3495.5,68.1 3500,103.5 3506.1,107.7 C3512.2,111.9 3515,96.5 3515,96.5 C3515,96.5 3516.9,70.3 3509.6,59.4 C3505.6,58.5 3502.4,59.6 3502.4,59.6" id="Shape"></path>
            <path d="M3509.7,59.2 C3509.7,59.2 3519,77 3524.5,76.6 C3525.7,76.3 3524.2,63.7 3517.7,49.1 C3516.5,43.5 3518.5,42.9 3518.8,42.9 C3519.1,42.9 3522.1,47.7 3520,50" id="Shape"></path>
            <path d="M3495.4,68.4 C3495.4,68.4 3494.3,90.9 3493.4,92.2 C3492.5,93.4 3483.5,93.3 3483.5,93.3 L3482.7,92.4 C3482.7,92.4 3480.4,92 3479.6,92.8 C3478.8,93.6 3478.6,94 3479.2,94.8 C3479.7,95.6 3480.2,95.8 3481.2,95.2 C3482.2,94.6 3482.8,93.5 3482.8,93.5" id="Shape"></path>
            <path d="M3505.2,107.1 C3505.3,107.4 3504.5,139.8 3504.5,139.8 L3501,141 C3501,141 3495.2,141.5 3493.3,142.2 C3492.4,142.7 3491.5,144.3 3492.5,145 C3493.8,145.8 3495.1,145.3 3495.9,145 C3496.7,144.7 3499.9,142.5 3500.7,142.1 C3501.5,141.7 3504.5,139.9 3504.5,139.9" id="Shape"></path>
            <path d="M3509.1,108.4 C3509.1,108.4 3507.5,142.2 3507.8,142.1 C3508,142 3512.5,137.4 3515.6,137.9 C3518.7,138.3 3522.7,142.1 3522.4,142.8 C3522.1,143.5 3520.5,144.6 3519.3,144.5 C3518.1,144.3 3513.1,143.2 3511.9,141.9" id="Shape"></path>
            <path d="M3520.8,48 C3520.8,48 3537.6,76 3542,103.2 C3546.4,130.4 3550.2,140.2 3564.5,142.2 C3578.8,144.2 3605.3,145.2 3626.3,143.7 C3647.3,142.2 3703.5,150.7 3731.5,125.5 C3733.7,111.7 3683.5,106.7 3678,106.7 C3672.5,106.7 3592.2,101.9 3601.5,79.5 C3610.8,57.1 3761.8,69.6 3776.3,72.7 C3797.2,77.3 3845.3,88.7 3840.5,97.2 C3835.7,105.7 3797.5,105.4 3796,117.7 C3794.5,130 3881.5,126.7 3881.5,126.7 L4188,128" id="Shape"></path>
            <path d="M3478.7,88.3 L3487.7,141.8" id="Shape"></path>
            <path d="M3476.3,88.5 L3476.5,144.5" id="Shape"></path>
            <path d="M3473.7,88.5 C3473.7,88.5 3469,161.7 3451.5,160.8 C3434,160 3372.7,148.6 3344,157 C3315.3,165.4 3359.5,170.7 3361.5,170.7 C3363.5,170.7 3373.7,176.2 3366.5,177.9 C3359.3,179.6 3342,184.2 3303.5,183.4 C3275.7,183.9 3273.5,186 3261,185.1 C3241.3,184.6 3229.2,185.4 3192.3,184.1 C3170,184.1 3134,184.9 3135.2,181.6 C3135.2,181.6 3215.4,176.3 3060.3,176 C2905.1,175.7 2916.6,178.1 2916.6,178.1 C2916.6,178.1 2852.4,181.8 2813.6,176.1 C2774.8,170.4 2766.4,172.9 2744.6,170.1 C2724.8,168.6 2681.9,170.9 2676.4,170.1 C2670.9,169.3 2619.2,165.6 2602.6,165.6 C2586,165.6 2375.6,167.1 2354.1,163.8 C2338.2,161.4 2611.6,155.6 2134.1,159 C1656.6,162.4 -9.65234375,150 0.34765625,150" id="Shape"></path>
            <polygon id="Shape" points="3472.7 74 3472.8 88.2 3480 87.8 3480.2 73.8"></polygon>
            <polygon id="Shape" points="3467.7 83.7 3472.7 84 3472.2 77.2 3467.5 77.2"></polygon>
            <path d="M3743.3,4.3 C3745.6,5.3 3747.6,10.6 3746.1,13.6 C3744.6,16.6 3729.1,21.6 3725.8,9.8 C3725.6,-2.2 3741.8,-0.9 3745.3,2.6 C3748.8,6.1 3750.5,8.8 3750.5,9.8" id="Shape"></path>
            <path d="M3725.8,6.8 C3724.8,6.8 3697.5,8.5 3701.8,36.3 C3703.8,40.6 3705.6,40.3 3705.6,40.3 C3705.6,40.3 3703.6,25.1 3707.3,19.8 C3711,14.5 3720,8.5 3725.5,8.6" id="Shape"></path>
            <path d="M3721.3,9.5 C3721.3,9.5 3728.1,20.2 3744,25.5" id="Shape"></path>
            <path d="M3716.3,9.2 C3716.3,9.9 3709,36.7 3720.5,50.5 C3728.4,56.7 3732,52.7 3732,52.7 C3732,52.7 3733,51.9 3732.4,50.4 C3731.8,49 3729,47.2 3722.8,49.8" id="Shape"></path>
            <path d="M3747.2,24 C3747.2,24 3729.9,28.8 3714.9,50 C3731.4,54.8 3731.4,48.5 3748.9,68.7 C3765.6,59.2 3777.1,49.9 3789.7,45.4 C3787,38.7 3770,25.8 3747.2,24 Z" id="Shape"></path>
            <path d="M3761.9,27.9 C3762.2,28 3763.7,32.4 3767.4,32.4 C3771.1,32.4 3768.4,28.1 3767.7,27.7 C3766.2,26.8 3763.9,26.2 3762.2,26.7" id="Shape"></path>
            <path d="M3705.6,40.7 C3706.1,40.7 3712.9,50.2 3713.3,53 C3713.7,55.8 3708.5,84.5 3712.6,86.7 C3718.4,86.4 3727.4,85.8 3729,87.2 C3730.5,88.7 3726,94.1 3713.2,87.8" id="Shape"></path>
            <path d="M3702.2,37.5 C3702.2,37.5 3703.6,53.3 3703.3,59.8 C3703,66.3 3700.7,86.9 3701.3,89.5 C3703.3,88.6 3718.7,87 3720.2,92 C3721.7,97 3713.1,93.9 3713.1,93.9 L3701.3,89.9" id="Shape"></path>
            <path d="M3741.3,13.8 L3739.5,16.3 C3739.5,16.3 3741.8,17.1 3742.5,16.1 C3743.2,15.1 3742,16.3 3741.3,13.8 Z" id="Shape"></path>
            <path d="M3738.7,8 L3741.3,13.8" id="Shape"></path>
            <path d="M3770.2,51.5 L3784.7,45" id="Shape"></path>
            <path d="M3768.2,48.7 L3782.7,42.2" id="Shape"></path>
            <path d="M3765.9,47.9 L3780.2,38.7" id="Shape"></path>
            <path d="M3763,44.8 L3777.7,36.1" id="Shape"></path>
            <path d="M3760.7,43.2 L3775.4,34.4" id="Shape"></path>
            <path d="M3757.4,41.3 L3772.1,32.6" id="Shape"></path>
            <path d="M3753.3,39.2 L3765,31.9" id="Shape"></path>
            <path d="M3750,38 L3762.8,29.6" id="Shape"></path>
            <path d="M3745.7,36.8 L3758.4,28.4" id="Shape"></path>
            <path d="M3740.1,35.1 L3752.6,27.5" id="Shape"></path>
            <path d="M3750.4,65.2 L3765.1,55.2" id="Shape"></path>
            <path d="M3749.5,62.5 L3764.2,52.6" id="Shape"></path>
            <path d="M3745.6,59.6 L3760.5,50.1" id="Shape"></path>
            <path d="M3742.7,57.3 L3757.7,47.8" id="Shape"></path>
            <path d="M3739.5,56.1 L3753.6,45.3" id="Shape"></path>
            <path d="M3736.5,53.5 L3750.4,43.8" id="Shape"></path>
            <path d="M3733.9,50.8 L3746.7,41.8" id="Shape"></path>
            <path d="M3729.9,48.5 L3742.7,39.4" id="Shape"></path>
            <path d="M3724.5,48.7 L3738.7,38.5" id="Shape"></path>
            <path d="M3722.2,46.7 L3736.4,36.5" id="Shape"></path>
            <path d="M3920.3,41 C3920.3,41 3913.1,49.9 3921.9,53.9 C3929.2,55.7 3938.4,47.4 3938.1,44 C3937.8,40.6 3934.3,38.4 3930.2,37.5 C3927.2,37.2 3922.5,36.3 3917.2,43.7" id="Shape"></path>
            <path d="M3931.2,49.2 C3931.3,46.2 3929.4,46.9 3929,47.8 C3928.6,48.7 3928.7,49.6 3929.7,49.5 C3930.7,49.3 3932.5,51 3932.5,51" id="Shape"></path>
            <path d="M3918.6,51.8 C3918,52 3889.5,63.5 3892.7,86 C3893.5,87.8 3895.7,87.2 3895.9,87.1 C3896.1,87 3898.1,72.9 3922.1,54.2" id="Shape"></path>
            <path d="M3892.8,86.6 C3892.8,86.6 3896.6,118.5 3888,120.3 C3879.3,122.1 3872.2,115.7 3872.2,115.7 C3872.2,115.7 3872.1,112 3869.1,112.4 C3866.1,112.7 3863.9,118.7 3864.5,119.6 C3865.1,120.5 3864.7,123.6 3870.7,122.6 C3872,118.6 3871.7,116.2 3871.7,116.2" id="Shape"></path>
            <path d="M3895.6,87.5 C3895.8,87.4 3919.4,90.5 3920.9,97 C3922.4,103.5 3918,116.2 3917.7,116.3 C3917.4,116.5 3917.2,117.2 3918.8,117.4 C3920.4,117.6 3932,118.2 3932.1,119.4 C3932.3,120.6 3932.3,121.2 3930.7,121.6 C3929.1,122 3916.9,121.3 3916.3,120.8 C3915.7,120.4 3917.1,117.5 3917.4,117.1" id="Shape"></path>
            <path d="M3909.5,58.7 C3910,58.9 3912.5,79.9 3917,80.2 C3921.5,80.5 3930.8,71.5 3932,71.4 C3933.2,71.2 3936.8,75.1 3937.5,75.1 C3938.2,75.1 3937,76.1 3935.5,76.1 C3934,76.1 3931.8,73.9 3931.3,72.6" id="Shape"></path>
            <path d="M3929,67 C3927.5,67 3919.7,76 3918,76.5 C3916.3,77 3912.8,62 3912.8,62" id="Shape"></path>
            <polygon id="Shape" points="3935.5 60 3928.7 67.2 3938.8 75 3942.5 69.5 3944.5 66.5"></polygon>
            <path d="M3943,69.2 C3943,69.2 3953,75.5 3954.8,76 C3956.6,76.5 3949.8,80.7 3949.8,80.7 L3939.8,73.4" id="Shape"></path>
        </g>
    </g>
</svg>