<?xml version="1.0" encoding="UTF-8"?>
<svg width="4000px" height="320px" viewBox="0 0 4000 320" version="1.1" xmlns="http://www.w3.org/2000/svg" xmlns:xlink="http://www.w3.org/1999/xlink">
    <!-- Generator: Sketch 52.5 (67469) - http://www.bohemiancoding.com/sketch -->
    <title>Naturfag</title>
    <desc>Created with Sketch.</desc>
    <g id="Naturfag" stroke="none" stroke-width="1" fill="none" fill-rule="evenodd">
        <g id="naturfag" transform="translate(8.000000, 81.000000)" stroke="#FFFFFF">
            <path d="M3912.3,92 C3912.3,92 3907.6,107.3 3912.3,115.5 C3915.7,121.5 3931.1,139 3932.3,142.6 C3933.5,146.1 3935.8,146.1 3932.3,152 C3928.8,157.9 3929.9,163.8 3932.3,172 C3934.7,180.2 3932.3,182.6 3929.9,188.5 C3927.5,194.4 3920.5,201.4 3924,203.8 C3927.5,206.2 3948.7,206.2 3952.2,206.2 C3955.7,206.2 3958.1,203.8 3953.4,202.7 C3948.7,201.5 3946.3,202.7 3945.2,199.2 C3944,195.7 3940.5,195.7 3940.5,192.1 C3940.5,188.5 3939.3,161.5 3941.7,158 C3944.1,154.5 3948.8,147.4 3946.4,138 C3944,128.6 3933.5,108.6 3934.6,103.9 C3935.8,99.2 3939.3,75.7 3941.7,74.5 C3944.1,73.3 3947.6,65.1 3945.2,55.7 C3943.4,48.4 3935.8,45.1 3938.1,40.4 C3940.4,35.7 3942.8,32.2 3942.8,32.2" id="Path" stroke-linecap="round"></path>
            <path d="M3937,28.4 C3936.1,29.6 3949.1,34.2 3951.1,30.8 C3952.4,28.5 3953.5,23.7 3953.5,22.6 C3953.5,21.4 3950,16.7 3951.1,15.5 C3952.3,14.3 3954.6,8.4 3949.9,4.9 C3945.2,1.4 3945.2,1.4 3939.3,0.2 C3939.3,0.2 3918.7,4.3 3931.7,24.3 C3929.3,31.4 3927,34.9 3927,34.9 C3927,34.9 3920.5,39 3920.5,41.4 C3920.5,43.8 3917,50.8 3918.1,52 C3919.3,53.2 3908.1,67.9 3908.1,70.2 C3908.1,72.5 3906.9,77.3 3906.9,79.6 C3906.9,82 3916.3,98.4 3917.5,100.8 C3918.7,103.2 3923.4,109 3924.6,113.7 C3925.8,118.4 3925.8,121.9 3928.1,121.9 C3930.4,121.9 3929.3,121.9 3930.5,117.2 C3931.7,112.5 3935.2,114.8 3932.9,109 C3930.5,103.1 3927,103.1 3927,103.1 C3924.1,101.3 3921.7,89.6 3920.5,86 C3919.3,82.5 3921.7,78.9 3926.4,73.1 C3931.1,67.2 3929.9,61.3 3929.9,61.3" id="Path" stroke-linecap="round"></path>
            <path d="M3913.5,119 C3913.5,119 3912.3,146.1 3910,148.4 C3907.7,150.7 3894.7,161.3 3892.4,166 C3890,170.7 3887.7,180.1 3886.5,181.3 C3885.3,182.5 3878.3,186 3877.1,188.4 C3875.9,190.8 3874.7,194.3 3878.3,194.3 C3881.9,194.3 3884.2,194.3 3886.5,197.8 C3888.9,201.3 3894.7,201.3 3897.1,201.3 C3899.5,201.3 3903,200.1 3899.5,197.8 C3896,195.4 3888.9,196.6 3892.4,189.6 C3895.9,182.5 3910,163.7 3913.6,161.4 C3917.1,159 3924.3,157.6 3926,135.4" id="Path" stroke-linecap="round"></path>
            <path d="M3833.6,34.3 C3841.8,34.3 3846.5,39 3846.5,40.2 C3846.5,41.4 3848.9,43.7 3848.9,46.1 C3848.9,48.5 3844.2,50.8 3844.2,52 C3844.2,53.2 3850.1,56.7 3848.9,57.9 C3847.7,59.1 3845.4,62.6 3845.4,62.6 C3845.4,62.6 3846.6,68.5 3843,69.7 C3839.5,70.9 3833.6,67.3 3832.4,65" id="Path" stroke-linecap="round"></path>
            <path d="M3828.9,64.9 C3828.9,64.9 3830.1,69.6 3830.1,70.8 C3830.1,72 3828.9,82.6 3828.9,89.6 C3828.9,96.6 3826.5,112 3825.4,113.1" id="Path" stroke-linecap="round"></path>
            <path d="M3833.6,34.3 C3833.6,34.3 3827.7,37.8 3825.4,42.5 C3823,47.2 3811.3,53.1 3807.8,54.3 C3804.3,55.5 3793.7,66.1 3793.7,68.4 C3793.7,70.8 3783.1,100.2 3781.9,102.5 C3780.7,104.9 3786.6,119 3786.6,123.7 C3786.6,128.4 3790.1,146.1 3786.6,149.6 C3783.1,153.1 3779.5,156.7 3773.7,157.8 C3767.8,159 3765.5,167.2 3763.1,171.9 C3760.7,176.6 3752.5,186 3750.2,189.5 C3747.9,193 3746.7,194.2 3751.4,195.4 C3756.1,196.6 3754.9,202.5 3759.6,203.6 C3764.3,204.7 3776.1,207.1 3776.1,203.6 C3776.1,200.1 3763.2,201.2 3763.2,196.5 C3763.2,191.8 3759.7,187.1 3764.4,183.6 C3769.1,180.1 3784.4,168.3 3787.9,166 C3791.4,163.6 3799.7,156.6 3799.7,147.2" id="Path" stroke-linecap="round"></path>
            <path d="M3794.8,128.4 C3794.8,129.6 3793.6,139 3797.2,143.7 C3800.7,148.4 3805.4,155.5 3803.1,157.8 C3800.8,160.1 3794.9,164.9 3797.2,174.3 C3799.6,183.7 3801.9,190.8 3800.7,193.1 C3799.5,195.5 3794.8,196.6 3797.2,199 C3799.6,201.4 3813.7,203.7 3816,204.9 C3818.4,206.1 3827.8,209.6 3828.9,206.1 C3830.1,202.6 3824.2,199 3819.5,195.5 C3814.8,192 3812.4,187.3 3812.4,183.7 C3812.4,180.2 3810,170.8 3812.4,168.4 C3814.8,166 3818.3,148.4 3818.3,143.7 C3818.3,139 3818.3,131.9 3818.3,130.8" id="Path" stroke-linecap="round"></path>
            <path d="M3806.6,76.7 C3806.6,76.7 3798.4,80.2 3799.5,82.6 C3800.7,85 3805.4,95.5 3804.2,103.8 C3803,112 3804.2,119.1 3807.7,121.4 C3811.2,123.8 3826.5,132 3827.7,139 C3828.9,146.1 3828.9,151.9 3826.5,151.9 C3824.1,151.9 3820.6,153.1 3821.8,155.4 C3823,157.8 3823,162.5 3825.3,160.1 C3827.7,157.7 3827.7,154.2 3831.2,153 C3834.7,151.8 3837.1,148.3 3835.9,143.6 C3834.7,138.9 3830,117.7 3826.5,115.4 C3823,113 3819.4,111.9 3819.4,107.2 C3819.4,102.5 3820.6,91.9 3820.6,88.4 C3820.6,84.9 3818.2,81.3 3818.2,79" id="Path" stroke-linecap="round"></path>
            <path d="M3840.7,61.4 L3845.4,62.5" id="Path" stroke-linecap="round"></path>
            <path d="M3684.7,147.8 C3684.7,147.8 3682.3,160.9 3679.9,160.9" id="Path" stroke-linecap="round"></path>
            <path d="M3669.2,149 C3669.2,149 3684.7,162.1 3682.3,172.8 C3678.7,178.7 3676.4,182.3 3675.2,185.9 C3674,189.5 3672.8,196.6 3675.2,199 C3677.6,201.4 3683.5,203.8 3683.5,206.1 C3683.5,208.4 3676.4,206.1 3674,206.1 C3671.6,206.1 3660.9,208.5 3660.9,203.7 C3660.9,198.9 3664.5,195.4 3663.3,190.6 C3662.1,185.8 3657.4,184.7 3659.7,182.3 C3662.1,179.9 3664.5,172.8 3664.5,171.6 C3664.5,170.4 3655,174 3651.4,170.4 C3647.8,166.8 3635.9,159.7 3647.8,139.5 C3656.1,133.6 3656.1,135.9 3657.3,134.7 C3658.5,133.5 3672.8,112.1 3679.9,112.1 C3687,112.1 3690.6,113.3 3690.6,110.9 C3690.6,109.4 3689.2,108 3688.3,106.6 C3687.6,105.4 3688.3,103.8 3689.7,103.6 C3694,102.9 3705,101.2 3708.4,102.6 C3709.5,103 3703.6,109.7 3706,109.7 C3708.4,109.7 3713.1,110.9 3711.9,112.1 C3710.7,113.3 3709.5,115.7 3710.7,118 C3711.9,120.4 3715.5,123.9 3713.1,125.1 C3710.7,126.3 3696.5,127.5 3692.9,123.9 C3689.3,120.3 3702.4,127.5 3702.4,131 C3702.4,134.6 3698.8,140.5 3698.8,142.9 C3698.8,145.3 3705.9,158.4 3705.9,161.9 C3705.9,165.4 3705.9,169 3707.1,173.8 C3708.3,178.6 3713,183.3 3711.9,190.4 C3710.7,197.8 3713.3,202.7 3710.4,202.3 C3709,202.3 3707.6,202.3 3706.2,202.3 C3703.9,202.6 3698.7,198.8 3701.2,196.4 C3703.6,194 3710.7,190.5 3706,183.3 C3701.2,176.2 3696.5,165.5 3694.1,163.1 C3691.7,160.7 3688.2,167.9 3684.6,142.9" id="Path" stroke-linecap="round"></path>
            <path d="M3641.9,157.3 C3641.9,157.3 3632.4,172.8 3631.2,172.8 C3630,172.8 3618.1,172.8 3615.7,174 C3613.3,175.2 3607.4,181.1 3603.8,181.1 C3600.2,181.1 3595.5,178.7 3595.5,183.5 C3595.5,188.3 3601.4,193 3602.6,196.6 C3603.8,200.2 3608.5,210.9 3610.9,209.7 C3613.3,208.5 3615.7,206.1 3612.1,202.6 C3608.5,199 3605,191.9 3610.9,189.5 C3616.8,187.1 3638.2,182.4 3640.6,183.6 C3643,184.8 3653.4,177 3654.1,173.2" id="Path" stroke-linecap="round"></path>
            <path d="M3682.3,172.8 C3682.3,172.8 3687.1,184.7 3687.1,187.1 C3687.1,189.5 3684.7,196.6 3683.5,195.4 C3682.3,194.2 3679.9,193 3681.1,189.5 C3682.3,185.9 3680.1,179.5 3679.4,176.8" id="Path" stroke-linecap="round"></path>
            <path d="M3552.5,133.4 C3552.5,133.4 3555,133 3556.9,133.4 C3560.1,134.1 3559.8,134.9 3561.3,136.3 C3562.8,137.8 3571.5,139.2 3570,142.1 C3568.5,145 3567.1,153.7 3561.3,152.3 C3555.5,150.8 3551.1,152.3 3548.2,147.9" id="Path" stroke-linecap="round"></path>
            <path d="M3552.5,150.8 C3552.5,150.8 3543.8,158.1 3543.8,159.5 C3543.8,160.9 3538,174 3535.1,175.5 C3532.2,177 3536.6,182.8 3538,184.2 C3539.4,185.6 3538,192.9 3540.9,195.8 C3543.8,198.7 3551.1,198.7 3551.1,201.6 C3551.1,204.5 3546.7,210.3 3539.5,203.1 C3532.2,195.8 3533.7,192.9 3532.2,190 C3530.7,187.1 3522,188.5 3522,184.2 C3522,179.8 3524.9,175.5 3529.3,171.1 C3533.7,166.7 3532.2,163.8 3532.2,163.8" id="Path" stroke-linecap="round"></path>
            <path d="M3546,157 C3546,157 3551,168.2 3551,174 C3551,179.8 3559.7,179.8 3561.2,181.3 C3562.7,182.8 3569.9,192.9 3567,197.3 C3564.1,201.7 3559.7,206 3559.7,201.7 C3559.7,197.3 3559.7,191.5 3559.7,188.6 C3559.7,185.7 3551,181.3 3548.1,181.3 C3545.2,181.3 3538.4,178.8 3538.2,172.8" id="Path" stroke-linecap="round"></path>
            <path d="M3552.5,133.4 C3552.5,133.4 3548.1,134.9 3546.7,139.2 C3545.7,142.3 3540.9,145 3539.4,143.6 C3537.9,142.2 3529.2,139.2 3523.4,142.1 C3517.6,145 3509.9,149.3 3507.4,150.8 C3503.9,153 3501.6,156.6 3498.7,158.1 C3495.8,159.6 3491.4,163.9 3488.5,166.8 C3485.6,169.7 3478.3,169.7 3471.1,169.7 C3463.8,169.7 3460.9,177 3462.4,179.9 C3463.9,182.8 3466.8,187.2 3468.2,184.3 C3469.7,181.4 3463.8,178.5 3469.7,178.5 C3475.6,178.5 3481.3,180 3484.2,177 C3487.1,174 3479.8,185.7 3478.4,187.2 C3477,188.7 3475.5,191.6 3472.6,188.7 C3469.7,193.1 3468.2,197.4 3466.8,197.4 C3465.4,197.4 3463.9,198.9 3466.8,201.8 C3469.7,204.7 3477,207.6 3475.5,204.7 C3474,201.8 3474,194.5 3475.5,194.5 C3477,194.5 3490,194.5 3492.9,181.4" id="Path" stroke-linecap="round"></path>
            <path d="M3532.2,163.9 C3532.2,163.9 3517.7,169.7 3516.2,171.2 C3514.7,172.7 3511.8,175.6 3511.8,175.6 C3510.3,180 3503.1,184.3 3501.6,188.7 C3500.1,193.1 3504.5,198.9 3507.4,200.3 C3510.3,201.8 3511.8,201.8 3510.3,204.7 C3508.8,207.6 3505.9,206.2 3504.5,204.7 C3503,203.2 3491.4,204.7 3491.4,201.8 C3491.4,198.9 3494.3,194.5 3495.8,190.2 C3497.3,185.9 3491.9,185.2 3491.9,185.2" id="Path" stroke-linecap="round"></path>
            <path d="M3555.4,139.2 C3555.4,139.2 3556.9,142.1 3556.9,140.7" id="Path" stroke-linecap="round"></path>
            <path d="M3405.7,169.4 C3405.7,169.4 3398.7,164.3 3398.8,165.7 C3398.9,167.1 3401,172.6 3401.1,174.1" id="Path" stroke-linecap="round"></path>
            <path d="M3410.7,170.4 C3410.7,170.4 3419.9,161.2 3420.1,164 C3420.3,166.8 3419,171.2 3419,171.2" id="Path" stroke-linecap="round"></path>
            <path d="M3399.1,169.9 C3397.5,170 3380.6,165.6 3372.5,167.7 C3364.4,169.7 3355.5,183.2 3357.5,187.3 C3359.5,191.4 3366.3,179.7 3367.8,178.2" id="Path" stroke-linecap="round"></path>
            <path d="M3376.2,184.2 C3376.3,185.6 3372.6,190.4 3372.7,191.8 C3372.8,193.2 3377.8,194.2 3381.5,198.2 C3385.1,202.2 3381.8,202.4 3380.2,202.6 C3378.6,202.8 3380.4,205.4 3377.1,205.7 C3373.8,206 3363.7,203.9 3365.1,199.5 C3366.4,195.1 3367.8,192.2 3363.9,184" id="Path" stroke-linecap="round"></path>
            <path d="M3387.1,181.8 C3387.1,181.8 3384.1,186.5 3385.9,187.8 C3387.7,189.1 3389.3,191.9 3389.5,194.8 C3389.7,197.6 3393.3,201.6 3391.9,204.6 C3390.5,207.6 3393.5,204.5 3395.3,205.8 C3397.1,207.1 3402,206.7 3400.1,204 C3398.2,201.3 3394.4,194.5 3395.9,192.9 C3395.9,192.9 3410.4,187.5 3415.3,187.1 C3420.2,186.7 3420.2,186.7 3421.9,186.6 C3423.6,186.5 3425,183.5 3423.1,180.8 C3421.2,178.1 3421,175.3 3420.9,173.9 C3420.8,172.5 3412.4,170.3 3407.4,170.7 C3405.6,169.4 3405.6,169.4 3405.6,169.4" id="Path" stroke-linecap="round"></path>
            <path d="M3396.8,182.9 C3396.8,182.9 3397.5,191.4 3395.9,192.9" id="Path" stroke-linecap="round"></path>
            <path d="M3374.1,190.5 C3374.1,190.5 3386,192.2 3387.6,192.1" id="Path" stroke-linecap="round"></path>
            <path d="M3410.3,188.6 C3410.3,188.6 3409.9,193.9 3411.1,197.5 C3412.3,201.1 3417.1,202.3 3415.9,203.5 C3414.7,204.7 3407.5,207.1 3406.3,204.7 C3405.1,202.3 3407.5,199.9 3406.3,197.5 C3405.1,195.1 3403.3,190.4 3403.3,190.4" id="Path" stroke-linecap="round"></path>
            <path d="M3245.5,186.3 C3244.3,186.3 3231.9,187.5 3227,190 C3222.1,192.5 3213.4,197.4 3212.2,197.4 C3211,197.4 3206,201.1 3204.8,197.4 C3204.8,197.4 3206,193.7 3209.7,193.7 C3213.4,193.7 3220.8,186.3 3222.1,183.8 C3223.3,181.3 3232,178.9 3233.2,177.6 C3234.4,176.3 3246.8,167.7 3255.4,165.2 C3264,162.7 3278.9,162.7 3286.3,165.2 C3286.3,165.2 3301.1,164 3306.1,171.4 C3311,178.8 3320.9,183.8 3320.9,185 C3320.9,186.2 3322.1,189.9 3317.2,189.9 C3312.3,189.9 3307.3,187.4 3306.1,186.2 C3304.9,185 3301.2,186.2 3301.2,186.2" id="Path" stroke-linecap="round"></path>
            <path d="M3248,176.4 C3246.8,176.4 3243.1,182.6 3245.5,185 C3247.9,187.4 3246.7,187.5 3246.7,189.9 C3246.7,192.4 3250.4,198.5 3247.9,199.8 C3245.4,201 3244.2,203.5 3245.4,204.7 C3246.6,205.9 3251.6,199.8 3254,201 C3256.5,202.2 3263.9,205.9 3263.9,204.7 C3263.9,203.5 3260.2,198.5 3260.2,198.5 C3260.2,198.5 3267.6,198.5 3266.4,197.3 C3265.2,196.1 3252.8,192.4 3254,189.9 C3255.2,187.4 3262.6,183.7 3261.4,180" id="Path" stroke-linecap="round"></path>
            <path d="M3282.6,180.1 C3282.6,180.1 3278.9,186.3 3280.1,188.7 C3281.3,191.2 3281.3,194.9 3281.3,197.3 C3281.3,199.8 3276.4,202.2 3277.6,203.5 C3278.8,204.7 3282.5,202.3 3285,203.5 C3287.5,204.7 3289.9,207.2 3291.2,206 C3292.5,204.8 3291.2,201.1 3291.2,201.1 C3291.2,201.1 3294.9,202.3 3294.9,201.1 C3294.9,199.9 3290,198.6 3288.7,196.2 C3287.5,193.7 3289.9,187.6 3293.6,183.8 C3293.6,183.8 3299.8,190 3302.2,191.2 C3304.7,192.4 3313.3,193.7 3314.6,191.2" id="Path" stroke-linecap="round"></path>
            <path d="M3257.1,187.5 C3257.1,187.5 3272.7,190 3280.1,188.8" id="Path" stroke-linecap="round"></path>
            <path d="M3092,200 C3092,200 3104,191 3110.8,184.2 C3117.1,177.8 3141.5,173 3147,173 C3151,173 3156,174.4 3159,176 C3164.9,179 3169.2,182.4 3169.2,185.5 C3169.2,190.1 3169.2,196.3 3166.2,196.3 C3163.2,196.3 3150.8,199.4 3147.8,197.9" id="Path" stroke-linecap="round"></path>
            <path d="M3161.5,196.3 C3160,196.3 3152.2,187.1 3153.8,182.5 C3155.3,177.9 3156.9,176.3 3156.9,176.3" id="Path" stroke-linecap="round"></path>
            <path d="M3147.7,190.2 C3147.7,190.2 3149.3,199.4 3144.7,202.5 C3140.1,205.6 3132.4,210.2 3132.4,208.7 C3132.4,207.2 3140.1,201 3140.1,199.4 C3140.1,197.9 3138.5,187.1 3141.6,185.6" id="Path" stroke-linecap="round"></path>
            <path d="M3126.9,194.8 C3127.7,194.8 3138.5,197.9 3138.5,197.9" id="Path" stroke-linecap="round"></path>
            <path d="M3163.6,185.5 C3163.6,185.5 3162.5,187.8 3163.6,187.8 C3164.8,187.8 3164.8,185.5 3163.6,185.5 Z" id="Path" fill="#000000"></path>
            <path d="M3413.9,175.8 C3413.9,175.8 3412.1,179.3 3413.9,179.3 C3415.7,179.3 3415.7,175.8 3413.9,175.8 Z" id="Path" fill="#000000"></path>
            <path d="M3304,175.5 C3304,175.5 3302.5,178.6 3304,178.6 C3305.5,178.6 3305.5,175.5 3304,175.5 Z" id="Path" fill="#000000"></path>
            <path d="M3844.5,51.5 L3841.5,51.5" id="Path" stroke-linecap="round"></path>
            <path d="M3950.5,16.5 L3947.5,16.5" id="Path" stroke-linecap="round"></path>
            <path d="M3705.7,109.5 L3702.6,109.5" id="Path" stroke-linecap="round"></path>
            <path d="M3092,200 C3087.1,203.2 3073.7,202.3 3070.5,198.5 C3065.5,192.5 3049.5,188.5 3039.5,195.5 C3031.9,200.8 3021.5,205.5 3011.5,200.5 C3001.5,195.5 2993.5,186.5 2972.5,198.5 C2956.6,207.6 2945.5,199.5 2940.5,195.5 C2935.6,191.6 2922.5,185.5 2909.5,199.5 C2894.5,209.5 2887.4,201.4 2881.5,197.5 C2872.5,191.5 2859.5,187.5 2843.5,201.5 C2834.5,206.5 2831.5,206.5 2823.5,200.5 C2818.5,193.5 2798.5,185.5 2781.5,201.5 C2772.5,204.5 2761.5,204.5 2755.5,197.5 C2749.5,190.5 2729.5,189.5 2718.5,201.5 C2707.5,207.5 2697.5,202.5 2690.5,196.5 C2683.5,190.5 2666.5,189.5 2657.5,199.5" id="Path"></path>
            <path d="M2657,200 C2652.1,203.2 2636.7,203.3 2633.5,199.5 C2628.5,193.5 2612.5,189.5 2602.5,196.5 C2594.9,201.8 2584.5,206.5 2574.5,201.5 C2564.5,196.5 2556.5,187.5 2535.5,199.5 C2519.6,208.6 2508.5,200.5 2503.5,196.5 C2498.6,192.6 2485.5,186.5 2472.5,200.5 C2457.5,210.5 2450.4,202.4 2444.5,198.5 C2435.5,192.5 2422.5,188.5 2406.5,202.5 C2397.5,207.5 2394.5,207.5 2386.5,201.5 C2381.5,194.5 2361.5,186.5 2344.5,202.5 C2335.5,205.5 2324.5,205.5 2318.5,198.5 C2312.5,191.5 2292.5,190.5 2281.5,202.5 C2270.5,208.5 2260.5,203.5 2253.5,197.5 C2246.5,191.5 2229.5,190.5 2220.5,200.5" id="Path"></path>
            <path d="M2221,200 C2216.1,203.2 2198.7,203.3 2195.5,199.5 C2190.5,193.5 2174.5,189.5 2164.5,196.5 C2156.9,201.8 2146.5,206.5 2136.5,201.5 C2126.5,196.5 2118.5,187.5 2097.5,199.5 C2081.6,208.6 2070.5,200.5 2065.5,196.5 C2060.6,192.6 2047.5,186.5 2034.5,200.5 C2019.5,210.5 2012.4,202.4 2006.5,198.5 C1997.5,192.5 1984.5,188.5 1968.5,202.5 C1959.5,207.5 1956.5,207.5 1948.5,201.5 C1943.5,194.5 1923.5,186.5 1906.5,202.5 C1897.5,205.5 1886.5,205.5 1880.5,198.5 C1874.5,191.5 1854.5,190.5 1843.5,202.5 C1832.5,208.5 1822.5,203.5 1815.5,197.5 C1808.5,191.5 1789,193 1780,203" id="Path"></path>
            <path d="M1780,203 C1775.1,206.2 1759.7,204.3 1756.5,200.5 C1751.5,194.5 1735.5,190.5 1725.5,197.5 C1717.9,202.8 1707.5,207.5 1697.5,202.5 C1687.5,197.5 1679.5,188.5 1658.5,200.5 C1642.6,209.6 1631.5,201.5 1626.5,197.5 C1621.6,193.6 1608.5,187.5 1595.5,201.5 C1580.5,211.5 1573.4,203.4 1567.5,199.5 C1558.5,193.5 1545.5,189.5 1529.5,203.5 C1520.5,208.5 1517.5,208.5 1509.5,202.5 C1504.5,195.5 1484.5,187.5 1467.5,203.5 C1458.5,206.5 1447.5,206.5 1441.5,199.5 C1435.5,192.5 1415.5,191.5 1404.5,203.5 C1393.5,209.5 1383.5,204.5 1376.5,198.5 C1369.5,192.5 1351,193 1342,203" id="Path"></path>
            <path d="M1342,203 C1335.5,206.5 1321.7,204.3 1318.5,200.5 C1313.5,194.5 1297.5,190.5 1287.5,197.5 C1279.9,202.8 1269.5,207.5 1259.5,202.5 C1249.5,197.5 1241.5,188.5 1220.5,200.5 C1204.6,209.6 1193.5,201.5 1188.5,197.5 C1183.6,193.6 1170.5,187.5 1157.5,201.5 C1142.5,211.5 1135.4,203.4 1129.5,199.5 C1120.5,193.5 1107.5,189.5 1091.5,203.5 C1082.5,208.5 1079.5,208.5 1071.5,202.5 C1066.5,195.5 1046.5,187.5 1029.5,203.5 C1020.5,206.5 1009.5,206.5 1003.5,199.5 C997.5,192.5 977.5,191.5 966.5,203.5 C955.5,209.5 945.5,204.5 938.5,198.5 C931.5,192.5 911,193 902,203" id="Path"></path>
            <path d="M902,203 C897.1,206.2 880.7,204.3 877.5,200.5 C872.5,194.5 856.5,190.5 846.5,197.5 C838.9,202.8 828.5,207.5 818.5,202.5 C808.5,197.5 800.5,188.5 779.5,200.5 C763.6,209.6 752.5,201.5 747.5,197.5 C742.6,193.6 729.5,187.5 716.5,201.5 C701.5,211.5 694.4,203.4 688.5,199.5 C679.5,193.5 666.5,189.5 650.5,203.5 C641.5,208.5 638.5,208.5 630.5,202.5 C625.5,195.5 605.5,187.5 588.5,203.5 C579.5,206.5 568.5,206.5 562.5,199.5 C556.5,192.5 536.5,191.5 525.5,203.5 C514.5,209.5 504.5,204.5 497.5,198.5 C490.5,192.5 471,194 462,204" id="Path"></path>
            <path d="M462,204 C457.1,207.2 442.7,205.3 439.5,201.5 C434.5,195.5 418.5,191.5 408.5,198.5 C400.9,203.8 390.5,208.5 380.5,203.5 C370.5,198.5 362.5,189.5 341.5,201.5 C325.6,210.6 314.5,202.5 309.5,198.5 C304.6,194.6 291.5,188.5 278.5,202.5 C263.5,212.5 256.4,204.4 250.5,200.5 C241.5,194.5 228.5,190.5 212.5,204.5 C203.5,209.5 200.5,209.5 192.5,203.5 C187.5,196.5 167.5,188.5 150.5,204.5 C141.5,207.5 130.5,207.5 124.5,200.5 C118.5,193.5 98.5,192.5 87.5,204.5 C76.5,210.5 66.5,205.5 59.5,199.5 C54,194.8 33,190 20,203 C16,207 7.7,207.8 0,206.8" id="Path"></path>
        </g>
    </g>
</svg>