<?xml version="1.0" encoding="UTF-8"?>
<svg width="4000px" height="320px" viewBox="0 0 4000 320" version="1.1" xmlns="http://www.w3.org/2000/svg" xmlns:xlink="http://www.w3.org/1999/xlink">
    <!-- Generator: Sketch 52.5 (67469) - http://www.bohemiancoding.com/sketch -->
    <title>Reiseliv</title>
    <desc>Created with Sketch.</desc>
    <g id="Reiseliv" stroke="none" stroke-width="1" fill="none" fill-rule="evenodd">
        <g id="reiseliv" transform="translate(-5.000000, 9.000000)" stroke="#FFFFFF">
            <path d="M3946.1,46.3 C3946.1,46.3 3950.1,43.3 3952.4,45.4 C3954.7,47.5 3957.8,47 3956.1,50.2 C3954.4,53.4 3953.3,59.7 3951.9,59.3 C3950.5,58.9 3949.1,56.3 3946.5,57.7 C3943.9,59.1 3942.2,62.3 3939.9,62.4 C3937.7,62.5 3938.9,60.6 3936.3,62.1 C3933.7,63.5 3933.4,69.4 3930.8,70.8 C3928.2,72.2 3929.6,74.9 3931.9,77 C3934.2,79.1 3938.7,79 3939,75.4 C3939.3,71.8 3937.5,70.5 3940.1,69.1 C3942.7,67.7 3944.5,66.7 3946.6,62.2 C3948.7,57.7 3955.6,64.1 3955.6,64.1 C3955.6,64.1 3953.6,70.9 3955.8,70.8 C3958,70.7 3957.9,66.3 3959.3,68.9 C3960.7,71.5 3964.5,78.6 3960.5,79.6 C3956.5,80.6 3952.4,79.4 3952,80.8 C3951.6,82.2 3950.8,84.9 3950.4,86.2 C3950,87.6 3943.4,90 3941.2,92.3 C3939,94.6 3936.1,99.6 3934.3,100.6 C3932.5,101.6 3933.8,99.7 3932.1,102.9 C3930.4,106.1 3927.4,111.1 3924.8,112.5 C3922.2,113.9 3928.8,124 3927.5,125.8 C3926.2,127.6 3927.2,131.6 3924,127.7 C3920.7,123.8 3917.4,117.6 3912.6,121.4 C3907.8,125.1 3903.3,125.3 3901.3,132.1 C3899.3,138.9 3899.9,144.2 3903.1,145.9 C3906.3,147.6 3909.3,142.6 3912,143.4 C3914.7,144.2 3915.7,146 3914.4,147.8 C3913.1,149.6 3910,150.2 3912.3,152.3 C3914.6,154.5 3914.5,152.2 3916.8,154.4 C3919.1,156.6 3915.1,157.6 3920.6,161.4 C3926.1,165.2 3931.5,166.9 3933.2,163.7 C3934.9,160.5 3932.5,156.1 3935.6,155.6 C3938.7,155.1 3952.9,151.9 3956.1,153.6 C3959.3,155.3 3961,154.3 3964.6,154.7 C3968.2,155 3978.6,157.4 3981.3,160.4 C3984.1,163.4 3990.5,166.8 3992.7,166.7 C3994.1,166.7 4000.6,164.8 4005.6,164.4 C4008.4,164.2 4006.8,228.5 4004.7,230.8 C4002.6,233.1 3994.8,244.1 3995.9,248.1 C3997,252.1 3995.2,255.3 3997.5,257.4 C3999.8,259.6 4005.4,260.5 4004.1,262.3 C4002.8,264.1 3996.5,270.4 3991.9,266.1 C3987.3,261.8 3983.1,256.1 3980.8,253.9 C3978.5,251.7 3979.1,257.1 3975.7,248.7 C3972.3,240.3 3974.5,240.2 3971.3,236.3 C3968,232.4 3967.3,222.6 3964.5,219.5 C3961.7,216.4 3957.7,217.5 3956.7,213.5 C3955.7,209.5 3940,207.8 3937.6,203.4 C3935.2,199 3930.6,194.7 3930,189.3 C3929.4,183.9 3932.4,181.2 3930.4,175.4 C3928.4,169.6 3920.4,169.5 3919.4,167.7 C3918.4,165.9 3918.7,160.1 3914.2,160.3 C3909.7,160.4 3911.3,155 3907.8,154.7 C3904.3,154.4 3898.5,158.6 3894.3,152.9 C3890.1,147.2 3889.9,142.2 3887.8,139.9" id="Path"></path>
            <path d="M3925.6,133.3 C3922.7,132.4 3919,135.8 3921.3,137.9 C3923.6,140.1 3924.1,140.9 3928.5,138.6 C3932.9,136.2 3936.9,135.2 3938.2,133.4 C3939.5,131.6 3937.7,130.3 3935,131.7 C3932.3,133.1 3929.6,134.5 3925.6,133.3 Z" id="Path"></path>
            <path d="M3948.5,137.9 C3946.3,138 3944.5,138.9 3941,140.8 C3937.5,142.7 3941.7,135.9 3941.7,135.9 C3944.7,133.1 3946.6,134.4 3947.9,134.8 C3949.4,135.2 3948.5,137.9 3948.5,137.9 Z" id="Path"></path>
            <path d="M3955.9,40.1 C3958.9,43.6 3957.6,45.4 3958.2,48.5 C3958.7,51.6 3963.6,62.6 3967.6,61.6 C3971.6,60.6 3970.8,48.5 3972.9,46.2 C3975,43.9 3977.3,43.8 3978.1,41.1 C3978.9,38.4 3978.6,34.6 3979.1,32.9" id="Path"></path>
            <path d="M3984.9,45.5 C3980.9,44.3 3973.9,50.3 3975.3,53 C3976.7,55.6 3983,56.8 3985.2,54.5 C3987.4,52.2 3985.1,52.3 3985.9,49.6 C3986.7,46.7 3986.3,45.9 3984.9,45.5 Z" id="Path"></path>
            <path d="M4008,26 C3916,32 3856.5,127.5 3904.4,211.9 C3931.5,249.5 3974,279 4006,277" id="Path"></path>
            <path d="M3844.5,72.6 C3843.8,71.5 3842.2,71.3 3841.2,72 C3835.8,76.5 3822.8,87.7 3810.4,108.6 C3802.2,124.4 3805.7,127.1 3807.9,128 C3810,128.9 3816.6,126.9 3826.1,112.3 C3835.5,97.8 3845.4,74.1 3844.5,72.6 C3844.5,72.7 3844.5,72.7 3844.5,72.6 Z" id="Path"></path>
            <path d="M3818.3,95.9 C3817.5,95.2 3796.8,89.9 3796.7,91.1 C3796.6,92.3 3813.3,102.6 3813.3,102.6" id="Path"></path>
            <path d="M3832.1,97.6 C3831.6,98 3826,105 3826.8,106.5 C3827.6,108 3868.6,95.3 3869.4,94.3 C3870.2,93.3 3869.4,92.1 3869.4,92.1 L3832.1,97.6 Z" id="Path"></path>
            <path d="M3843.3,72.2 L3845.8,56.1 C3845.8,56.1 3839.7,56.9 3839,58.7 C3838.3,60.4 3837.9,72.7 3838,73.8" id="Path"></path>
            <path d="M3805.9,123 C3807.1,123.4 3811.7,119 3812.6,116.9 C3813.4,114.8 3815.7,117.7 3815.7,117.7 C3815.7,117.7 3812.5,128 3807.5,128.4" id="Path"></path>
            <path d="M3952.6,333.1 C3938.8,323.1 3917.8,304.9 3898.8,278.1 C3867.8,234.4 3824.5,226.3 3767.7,245.9 C3710.9,265.5 3654.1,274.7 3654.1,274.7 C3499.3,310.5 3392.9,264.5 3399.1,232.1 C3402.2,212.5 3421.8,212 3428,216 C3434.2,220 3434.2,244.8 3419.7,261.4 C3337.6,305.2 3231.3,279.3 3196.8,268.7" id="Path" stroke-dasharray="12.0642,12.0642"></path>
            <path d="M3191.1,266.8 C3187.6,265.6 3185.6,264.9 3185.5,264.8" id="Path"></path>
            <path d="M3996,2 C3996,2 3915,-13 3868,48" id="Path" stroke-dasharray="12"></path>
            <path d="M0,271 C0,271 614,199.3 1073,253.2 C1073,253.2 1387.5,303.1 1558.5,272.2 C1729.5,241.3 1923.4,229.7 1921,267 C1918,313 1872.4,286.1 1882,268 C1901,232 1933,217.2 2152,253.2 C2371,289.2 2646,293.4 2678,274 C2710,254.6 2700,236.6 2676,233 C2613.6,223.7 2599.5,280.1 2708.5,285.8 C2817.5,291.5 3055.5,236.2 3184.5,270" id="Path" stroke-dasharray="12"></path>
        </g>
    </g>
</svg>