<?xml version="1.0" encoding="UTF-8"?>
<svg width="4000px" height="320px" viewBox="0 0 4000 320" version="1.1" xmlns="http://www.w3.org/2000/svg" xmlns:xlink="http://www.w3.org/1999/xlink">
    <!-- Generator: Sketch 52.5 (67469) - http://www.bohemiancoding.com/sketch -->
    <title>Restaurant og matfag</title>
    <desc>Created with Sketch.</desc>
    <g id="Restaurant-og-matfag" stroke="none" stroke-width="1" fill="none" fill-rule="evenodd">
        <g id="restaurant-og-matfag" transform="translate(3495.000000, 19.000000)">
            <path d="M522.5,115.5 C522.5,115.5 488.5,91.5 483.5,86.5 C478.5,81.5 448.5,41.5 444.5,37.5 C440.5,33.5 435.5,31.5 435.5,31.5 C435.5,31.5 428.5,47.5 427.5,68.5 C426.5,89.5 426.5,89.5 426.5,89.5 C426.5,89.5 473.5,136.5 479.5,140.5 C485.5,144.5 509.5,162.5 509.5,162.5" id="Path" stroke="#FFFFFF"></path>
            <path d="M433,36 C433,36 422,28 420,27 C418,26 406,9 392,8 C378,7 352,5 349,4 C346,3 340,0 340,0 C340,0 334,6 338,10 C342,14 358,18 362,18" id="Path" stroke="#FFFFFF"></path>
            <path d="M374,17 C373,17 351,19 348,22 C345,25 332,43 333,45 C334,47 337,50 344,44 C351,38 354,31 357,31" id="Path" stroke="#FFFFFF"></path>
            <path d="M375,28 C374,28 358,32 356,35 C354,38 351,51 354,61 C357,71 359,74 359,74 C359,74 363,76 363,66 C363,56 364,45 365,44 C366,43 372,40 372,40" id="Path" stroke="#FFFFFF"></path>
            <path d="M379,37 C379,37 367,44 367,49 C367,54 373,55 376,63 C379,71 382,80 382,80 C382,80 392,81 389,71 C386,61 380,51 381,48 C382,45 394,38 394,38 L398,54 C398,54 387,77 393,82 C399,87 399,84 399,84 C399,84 397,69 403,65 C409,61 424,62 428,69" id="Path" stroke="#FFFFFF"></path>
            <path d="M431,178 C431,178 367,174 350,176 C333,178 322,183 325,189 C328,195 387,201 416,194 C445,187 437,180 431,178 Z" id="Path" stroke="#FFFFFF"></path>
            <path d="M325,203 C325,203 325,190 325,189" id="Path" stroke="#FFFFFF"></path>
            <path d="M438,201 C437.6,200.6 437.2,198.2 436.7,195.4 C436.1,191.1 435.5,185.8 435.5,185.8" id="Path" stroke="#FFFFFF"></path>
            <path d="M453,203 C453,203 455,209 454,210 C453,211 434,213 434,212 C434,211 434,205 434,203 C434,203 450,205 451,202 C452,199 449,197 447,196 C445,195 437,195 437,195" id="Path" stroke="#FFFFFF"></path>
            <path d="M335,204 C335,204 314,205 313,203 C312,201 312,197 323,197" id="Path" stroke="#FFFFFF"></path>
            <path d="M335,207 L335,214 C335,214 330.7,214 325.9,213.8 C320.7,213.6 315,213.1 314,212 C312,210 311,213 313,203" id="Path" stroke="#FFFFFF"></path>
            <path d="M436,215 C436,215 437,228 438,236 C439,244 438,264 438,264 C438,264 382,278 346,270 C327,267 328,270 327,260 C326.9,259 327,217 326,214" id="Path" stroke="#FFFFFF"></path>
            <path d="M388.7,107.2 C390.6,107.2 390.6,104.2 388.7,104.2 C386.8,104.2 386.8,107.2 388.7,107.2 Z" id="Path" fill="#FFFFFF"></path>
            <path d="M395.8,91.8 C395.8,91.7 395.8,91.6 395.8,91.5 C395.8,90.7 395.1,90 394.3,90 C393.5,90 392.8,90.7 392.8,91.5 C392.8,91.6 392.8,91.7 392.8,91.8 C392.8,92.6 393.5,93.3 394.3,93.3 C395.1,93.2 395.8,92.6 395.8,91.8 Z" id="Path" fill="#FFFFFF"></path>
            <path d="M397.6,136.5 C399.5,136.5 399.5,133.5 397.6,133.5 C395.7,133.5 395.7,136.5 397.6,136.5 Z" id="Path" fill="#FFFFFF"></path>
            <path d="M381.7,127.3 C383.6,127.3 383.6,124.3 381.7,124.3 C379.8,124.3 379.8,127.3 381.7,127.3 Z" id="Path" fill="#FFFFFF"></path>
            <path d="M378.4,143.8 C380.3,143.8 380.3,140.8 378.4,140.8 C376.4,140.8 376.4,143.8 378.4,143.8 Z" id="Path" fill="#FFFFFF"></path>
            <path d="M387.6,144.9 C389.5,144.9 389.5,141.9 387.6,141.9 C385.7,141.9 385.7,144.9 387.6,144.9 Z" id="Path" fill="#FFFFFF"></path>
            <path d="M402.9,147.4 C404.8,147.4 404.8,144.4 402.9,144.4 C401,144.4 401,147.4 402.9,147.4 Z" id="Path" fill="#FFFFFF"></path>
            <path d="M396.7,158.8 C396.5,158.7 396.3,158.6 396.1,158.5 C395.4,158.1 394.5,158.3 394,159 C393.6,159.7 393.8,160.7 394.5,161.1 C394.7,161.2 394.9,161.3 395.1,161.4 C395.8,161.8 396.7,161.6 397.2,160.9 C397.7,160.2 397.5,159.2 396.7,158.8 Z" id="Path" fill="#FFFFFF"></path>
            <path d="M387.8,155.5 C387.7,155.4 387.6,155.3 387.5,155.2 C386.9,154.6 386,154.6 385.4,155.2 C384.8,155.8 384.8,156.7 385.4,157.3 C385.5,157.4 385.6,157.5 385.7,157.6 C386.3,158.2 387.2,158.2 387.8,157.6 C388.4,157 388.4,156 387.8,155.5 Z" id="Path" fill="#FFFFFF"></path>
            <path d="M377.3,160.8 C379.2,160.8 379.2,157.8 377.3,157.8 C375.3,157.8 375.3,160.8 377.3,160.8 Z" id="Path" fill="#FFFFFF"></path>
            <path d="M383.1,168.6 C385,168.6 385,165.6 383.1,165.6 C381.2,165.6 381.2,168.6 383.1,168.6 Z" id="Path" fill="#FFFFFF"></path>
            <path d="M404.9,164.2 C406.8,164.2 406.8,161.2 404.9,161.2 C403,161.2 403,164.2 404.9,164.2 Z" id="Path" fill="#FFFFFF"></path>
            <path d="M16.5,241.6 C17.5,240.6 27.5,234.5 28.5,234.5 C29.5,234.5 34.5,231.5 35.5,231.5 C36.5,231.5 65.5,215.5 80.5,221.5 C95.5,227.5 97.5,234.5 97.5,236.5 C97.5,238.5 98.5,247.5 92.5,250.5 C86.5,253.5 77.5,255.5 75.5,255.5 C73.5,255.5 54.5,254.5 48.5,256.5 C42.5,258.5 27.5,263.5 25.5,262.5" id="Path" stroke="#FFFFFF" stroke-linejoin="round"></path>
            <path d="M11.5,254.5 L6.5,257.5 C6.5,257.5 3.5,262.5 0.5,259.5 C0.5,254.5 11.5,252.5 11.5,252.5" id="Path" stroke="#FFFFFF" stroke-linejoin="round"></path>
            <path d="M9.5,251.5 C11.1,254.1 7.5,245.5 11.5,242.5 C14.4,240.3 13.4,234.1 15.4,232.7 C16.6,231.9 17.5,239.5 15.5,242.5 C13.5,245.5 13.5,245.5 13.5,245.5 C13.5,245.5 16.4,243.7 19.4,243.7 C22.4,243.7 25,239.3 26,239.5 C27.8,239.8 26,241.8 25,243.8 C24,245.8 18.5,248.4 18.5,248.4 C18.5,248.4 24.5,248.4 27.5,250.4 C30.5,252.4 33.5,251.4 33.5,251.4 C33.5,251.4 32.5,253.4 29.5,254.4 C26.5,255.4 20.5,254.4 20.5,255.4 C20.5,256.4 18.5,258.4 18.5,258.4 C18.5,258.4 21.5,258.4 23.5,260.4 C25.5,262.4 27.5,264.4 28.5,264.4 C29.5,264.4 25.5,266.4 23.5,265.4 C21.5,264.4 19.5,261.4 19.5,261.4 C19.5,261.4 16.5,261.4 15.5,258.4" id="Path" stroke="#FFFFFF" stroke-linejoin="round"></path>
            <path d="M10.4,255.4 C10.4,255.4 10.5,264.5 20.5,264.5" id="Path" stroke="#FFFFFF" stroke-linejoin="round"></path>
            <path d="M13.5,247.5 C13.5,247.5 12.5,250.5 13.5,255.5" id="Path" stroke="#FFFFFF" stroke-linejoin="round"></path>
            <path d="M15.5,252.5 C15.5,252.5 15.5,254.5 16.5,254.5" id="Path" stroke="#FFFFFF" stroke-linejoin="round"></path>
            <path d="M41.5,254.5 C41.5,254.5 50.5,251.5 52.5,253.5" id="Path" stroke="#FFFFFF" stroke-linejoin="round"></path>
            <path d="M114.5,248.5 C114.5,248.5 117.5,247.5 118.5,247.5 C119.5,247.5 129.5,242.5 131.5,242.5 C133.5,242.5 144.5,238.5 145.5,238.5 C146.5,238.5 160.5,234.5 161.5,233.5 C162.5,232.5 176.5,226.5 184.5,225.5 C192.5,224.5 209.5,221.5 211.5,222.5 C213.5,223.5 221.5,226.5 218.5,232.5 C215.5,238.5 213.5,240.5 210.5,241.5 C207.5,242.5 175.5,248.5 166.5,248.5 C157.5,248.5 139.5,249.5 137.5,249.5 C135.5,249.5 121.5,248.5 120.5,248.5 C119.5,248.5 114.5,250.5 114.5,248.5 Z" id="Path" stroke="#FFFFFF" stroke-linecap="round"></path>
            <path d="M200.9,223.4 C200.9,223.4 203.5,227.5 203.5,229.5" id="Path" stroke="#FFFFFF" stroke-linecap="round"></path>
            <path d="M201.5,233.5 C201.5,233.5 203.5,238.5 203.5,240.5" id="Path" stroke="#FFFFFF" stroke-linecap="round"></path>
            <path d="M211.5,222.5 C211.5,222.5 213.5,227.5 213.5,228.5" id="Path" stroke="#FFFFFF" stroke-linecap="round"></path>
            <path d="M211.5,233.5 C211.5,233.5 213.5,238.5 213.5,239.5" id="Path" stroke="#FFFFFF" stroke-linecap="round"></path>
            <path d="M192.9,224.5 C192.9,224.5 195.5,228.5 195.5,230.5" id="Path" stroke="#FFFFFF" stroke-linecap="round"></path>
            <path d="M190.5,238.5 L192.5,244.5" id="Path" stroke="#FFFFFF" stroke-linecap="round"></path>
            <path d="M179.3,226.9 C179.3,226.9 181.3,230.7 181.3,231.7" id="Path" stroke="#FFFFFF" stroke-linecap="round"></path>
            <path d="M174.1,228.4 C174.1,228.4 175,231.9 175.5,233.5" id="Path" stroke="#FFFFFF" stroke-linecap="round"></path>
            <path d="M177.5,240.5 C177.5,240.5 179.2,245.4 179.2,246.4" id="Path" stroke="#FFFFFF" stroke-linecap="round"></path>
            <path d="M169.5,234.5 C169.5,234.5 171.6,238.9 171.6,240.9" id="Path" stroke="#FFFFFF" stroke-linecap="round"></path>
            <path d="M161.5,233.5 C161.5,233.5 163.5,237.5 163.5,239.5" id="Path" stroke="#FFFFFF" stroke-linecap="round"></path>
            <path d="M166.5,242.5 C166.5,242.5 167.6,247 167.6,248" id="Path" stroke="#FFFFFF" stroke-linecap="round"></path>
            <path d="M156.5,239.5 C156.5,239.5 158.2,246.1 158.2,248.1" id="Path" stroke="#FFFFFF" stroke-linecap="round"></path>
            <path d="M144.1,240 C144.1,240 144.5,242.5 144.5,243.5" id="Path" stroke="#FFFFFF" stroke-linecap="round"></path>
            <path d="M139.1,244.3 C139.1,244.3 139.5,247.5 139.5,248.5" id="Path" stroke="#FFFFFF" stroke-linecap="round"></path>
            <path d="M134.1,241.8 C134.1,241.8 134.5,243.5 134.5,244.5" id="Path" stroke="#FFFFFF" stroke-linecap="round"></path>
            <path d="M215.4,252.7 C215,252.9 214.6,253.2 214.4,253.7 C213.9,255.3 213.9,259 223.3,260.8 C235.5,263.1 238.6,257.3 238.7,256.3 C238.7,255.3 228.6,245.4 215.4,252.7 Z" id="Path" stroke="#FFFFFF" stroke-linecap="round"></path>
            <path d="M219.7,254.2 C219.4,254.4 221.6,260.4 231.4,258 C232.2,257.8 232.9,256.9 232.5,256.2 C230,252.1 223.4,252.4 219.7,254.2 Z" id="Path" stroke="#FFFFFF" stroke-linecap="round"></path>
            <path d="M214.2,254.3 C214.2,254.3 214.2,261.9 214.6,263 C215,264 223.1,270.3 237.6,264.9 C240.2,260.1 238.6,256.3 238.6,256.3" id="Path" stroke="#FFFFFF" stroke-linecap="round"></path>
            <path d="M249.4,238.6 C249.4,238.6 243.5,241.1 248.1,242.7 C252.6,244.3 262,244.5 261.2,242.2 C260.4,240 257.4,238.1 249.4,238.6 Z" id="Path" stroke="#FFFFFF" stroke-linecap="round"></path>
            <path d="M244.4,238 C244.1,238.2 235.3,241.6 247.5,245.3 C258.2,248.6 265.9,244.7 266.7,241.7 C266.8,241.3 266.8,240.9 266.6,240.5 C265.2,237.7 253,233.6 244.4,238 Z" id="Path" stroke="#FFFFFF" stroke-linecap="round"></path>
            <path d="M267.3,241.5 L267.1,246.4 C267.1,246.4 254,255.7 241.4,246.6 C240.7,243.9 240.8,241.2 240.8,241.2" id="Path" stroke="#FFFFFF" stroke-linecap="round"></path>
            <path d="M216.3,224.9 C216.5,224.6 222.1,222.3 247.4,215.2" id="Path" stroke="#FFFFFF" stroke-linecap="round"></path>
            <path d="M217.9,226.6 C218.6,226.2 228.8,226 243.7,221.6" id="Path" stroke="#FFFFFF" stroke-linecap="round"></path>
            <path d="M219.4,232.1 C220.1,231.7 252.2,225.6 256,225.2" id="Path" stroke="#FFFFFF" stroke-linecap="round"></path>
            <path d="M67.3,248.9 C67.3,248.9 69,251.1 69.5,249.2" id="Path" stroke="#FFFFFF" stroke-linecap="round" stroke-linejoin="round"></path>
            <path d="M88.2,239.7 C88.2,239.7 85.1,240.8 85.4,241.4" id="Path" stroke="#FFFFFF" stroke-linecap="round" stroke-linejoin="round"></path>
        </g>
    </g>
</svg>