<?xml version="1.0" encoding="UTF-8"?>
<svg width="4000px" height="320px" viewBox="0 0 4000 320" version="1.1" xmlns="http://www.w3.org/2000/svg" xmlns:xlink="http://www.w3.org/1999/xlink">
    <!-- Generator: Sketch 51.2 (57519) - http://www.bohemiancoding.com/sketch -->
    <title>Salg-service-sikkerhet</title>
    <desc>Created with Sketch.</desc>
    <defs></defs>
    <g id="Salg-service-sikkerhet" stroke="none" stroke-width="1" fill="none" fill-rule="evenodd">
        <g id="Group" transform="translate(3570.000000, 68.000000)" stroke="#FFFFFF">
            <path d="M160.942836,176.2832 C160.942836,176.2832 161.250164,181.9152 161.250164,184.68 C161.250164,187.4448 160.533065,217.96 160.533065,217.96 L356.505968,217.96 L356.505968,177 L271.171191,177 L168.113825,176.7952 L160.942836,176.2832 Z" id="Shape"></path>
            <path d="M370.643062,142.3888 C370.643062,142.3888 364.90627,144.6416 364.90627,149.2496 C364.90627,153.7552 368.389323,156.1104 369.618635,154.984 C370.745505,153.8576 376.379854,150.4784 374.023672,146.9968 C371.769932,143.5152 374.023672,143.5152 370.643062,142.3888 Z" id="Shape"></path>
            <path d="M370.438177,156.2128 C370.438177,156.2128 367.774666,160.104 367.774666,161.4352 C367.774666,162.7664 367.774666,182.4272 370.438177,184.9872 C373.101687,187.5472 374.331,184.9872 374.331,184.9872 C374.331,184.9872 377.096953,161.7424 373.20413,155.1888" id="Shape"></path>
            <path d="M385.907026,183.8608 C385.907026,183.3488 386.521682,172.5968 383.448401,167.9888 C380.37512,163.3808 375.252984,160.0016 375.252984,160.0016" id="Shape"></path>
            <path d="M379.965349,189.0832 C379.453135,189.288 376.174969,194.6128 376.379854,195.944 C376.584739,197.2752 375.86764,202.7024 377.814052,204.648 C379.760463,206.5936 393.487786,211.816 393.487786,202.1904 C393.487786,192.5648 390.20962,186.1136 386.726568,183.8608 C383.243515,181.608 381.194661,186.1136 380.78489,186.9328 C380.37512,187.752 378.838479,190.0048 380.170234,190.7216 C381.501989,191.4384 390.107177,192.0528 390.312062,191.2336 C390.516948,190.4144 390.107177,188.1616 390.107177,188.1616" id="Shape"></path>
            <path d="M368.081994,160.5136 C366.955125,161.0256 355.686427,159.6944 352.40826,157.3392 C349.130093,154.984 348.105666,156.2128 347.695895,153.7552 C347.183682,151.2976 345.851926,157.8512 345.749484,160.104 C345.544598,162.3568 342.471317,159.8992 342.778645,166.8624 C343.085973,173.7232 342.368874,176.3856 345.134827,176.7952 C349.02765,177.4096 352.818031,174.5424 353.637572,172.904 C354.457114,171.2656 355.891312,167.9888 354.559557,166.1456 C353.227802,164.3024 350.974062,162.5616 350.974062,161.8448 C350.974062,161.2304 350.974062,157.1344 350.359406,155.9056" id="Shape"></path>
            <path d="M370.95039,186.5232 C370.95039,186.5232 371.462604,211.2016 370.335734,212.7376 C369.208864,214.2736 363.984286,212.7376 362.652531,213.2496 C361.320776,213.7616 359.57925,214.0688 361.013447,214.6832 C362.447645,215.2976 366.442911,215.1952 367.569781,214.1712" id="Shape"></path>
            <path d="M373.306573,186.5232 C373.306573,186.5232 374.740771,196.456 374.433442,200.1424 C374.126114,203.7264 373.921229,215.4 373.921229,215.4 C373.921229,215.4 379.043364,211.304 379.965349,212.7376 C380.887333,214.1712 382.423974,216.2192 379.658021,215.4 C376.892067,214.5808 375.355427,214.7856 375.355427,214.7856" id="Shape"></path>
            <path d="M258.673181,137.4736 C258.673181,137.4736 253.34616,136.1424 250.272878,141.5696 C247.199597,147.0992 255.395014,151.0928 256.829212,151.2976 C258.160967,151.4 263.078217,145.3584 258.673181,137.4736 Z" id="Shape"></path>
            <path d="M258.673181,137.4736 C259.185394,136.2448 262.463561,134.4016 263.692873,135.6304 C264.922186,136.8592 267.688139,145.5632 269.839436,145.4608 C272.093176,145.256 272.093176,145.256 272.093176,145.256" id="Shape"></path>
            <path d="M249.863108,143.9248 C249.863108,143.9248 252.629061,144.9488 254.473029,144.4368" id="Shape"></path>
            <path d="M256.00967,151.6048 C256.00967,151.6048 248.121581,161.8448 252.21929,172.0848 C256.316998,182.4272 262.873332,171.5728 262.668446,171.0608 C262.463561,170.5488 260.824477,153.1408 258.468295,151.6048" id="Shape"></path>
            <path d="M234.08693,164.712 C234.08693,164.712 234.906472,161.7424 236.443113,162.8688 C237.979753,163.8928 239.00418,167.8864 242.077462,167.3744 C245.150743,166.8624 257.341425,159.2848 258.878066,157.4416" id="Shape"></path>
            <path d="M267.278368,152.936 C267.073483,153.448 267.073483,176.7952 267.073483,176.7952 L270.863863,176.0784 C270.863863,176.0784 270.658978,152.936 270.146764,151.7072 C269.63455,150.4784 267.893024,150.9904 267.278368,152.936 Z" id="Shape"></path>
            <path d="M216.364341,162.8688 L216.569227,176.7952 L241.975019,176.7952 C241.975019,176.7952 241.25792,169.6272 239.926165,168.7056 C238.594409,167.784 229.067237,168.9104 228.247696,166.9648 C227.428154,165.0192 225.891513,161.64 225.891513,161.64 L215.749685,161.4352 L216.261899,163.9952" id="Shape"></path>
            <path d="M210.729992,160.4112 C210.934878,159.8992 212.573961,156.8272 215.339914,156.8272 C218.105868,156.8272 218.105868,156.8272 218.105868,156.8272 L219.130295,160.8208" id="Shape"></path>
            <path d="M165.962528,163.9952 L166.372299,174.8496 L172.416419,174.7472 C172.416419,174.7472 173.133518,163.688 171.187107,161.5376 C169.343138,159.3872 169.343138,159.3872 169.343138,159.3872 L170.060237,157.2368 C170.060237,157.2368 170.060237,156.3152 168.728481,157.1344 C168.728481,157.1344 167.396726,159.2848 167.396726,160.3088 C167.396726,161.3328 165.6552,161.0256 166.064971,162.664" id="Shape"></path>
            <path d="M181.943591,165.1216 L182.763133,174.0304 L188.909695,174.0304 C188.909695,174.0304 189.217023,166.4528 187.885268,165.224 C186.553513,163.9952 182.250919,165.1216 181.943591,165.1216 Z" id="Shape"></path>
            <path d="M197.822211,164.9168 C197.617326,165.736 197.002669,174.2352 198.027096,174.2352 C199.051524,174.2352 201.817477,174.7472 202.022362,174.0304 C202.227248,173.3136 201.817477,166.9648 201.715034,166.3504 C201.510149,165.6336 199.871065,163.3808 198.744195,164.0976" id="Shape"></path>
            <path d="M166.577185,164.8144 C166.474742,162.8688 163.094132,160.8208 160.328179,160.0016 C158.381768,159.3872 144.961773,158.056 141.478721,157.7488 C140.966507,157.7488 140.556736,157.4416 140.351851,157.032 C139.429867,155.2912 136.971242,150.5808 135.434601,150.2736 C133.488189,149.9664 132.36132,148.84 130.10758,152.5264 C127.85384,156.2128 124.985444,154.3696 124.678116,155.0864 C124.370788,155.7008 116.277814,165.6336 116.4827,169.32 C116.687585,173.0064 120.682851,178.2288 122.526819,178.8432" id="Shape"></path>
            <path d="M141.06895,157.9536 C141.06895,157.9536 138.507882,159.7968 138.507882,160.5136 C138.507882,161.128 138.610325,182.9392 138.917653,184.3728 C139.224981,185.8064 141.06895,195.3296 141.171393,197.6848 C141.273835,200.1424 141.888492,218.2672 141.888492,218.2672 L139.839637,217.6528 C139.839637,217.6528 137.790783,200.552 137.381012,198.7088 C137.073684,196.8656 135.434601,185.4992 134.615059,184.7824 C133.795518,184.0656 130.210023,195.8416 130.10758,199.1184 C130.005137,202.3952 128.366054,215.912 129.185596,217.5504 C130.005137,219.1888 125.702543,217.8576 125.702543,217.8576 C125.702543,217.8576 127.136741,213.5568 127.136741,213.2496 C127.136741,212.9424 127.034299,183.0416 127.341627,179.6624 C127.648955,176.2832 127.648955,170.5488 128.366054,167.5792 C128.98071,164.6096 129.390481,157.544 129.288038,156.8272" id="Shape"></path>
            <path d="M104.599345,176.2832 C105.111559,176.1808 112.897205,175.6688 114.22896,178.2288 C115.560715,180.8912 116.687585,182.7344 116.687585,182.7344 L126.624528,183.4512" id="Shape"></path>
            <path d="M139.839637,183.3488 L151.210778,183.5536 C151.210778,183.5536 149.264367,193.4864 146.805742,195.2272 C144.347117,196.968 141.786049,197.3776 141.786049,197.3776" id="Shape"></path>
            <path d="M126.3172,197.48 C126.3172,197.48 121.912163,198.0944 120.887736,197.2752 C119.760866,196.3536 116.687585,195.3296 116.687585,182.7344" id="Shape"></path>
            <path d="M121.502392,198.2992 L121.297507,211.9184 C121.297507,211.9184 119.043767,212.1232 118.736439,213.2496 C118.429111,214.376 120.375523,214.888 121.297507,214.4784 C122.219491,214.0688 122.526819,212.84 121.297507,211.9184" id="Shape"></path>
            <path d="M144.961773,196.7632 C144.85933,197.3776 144.756887,210.4848 145.064216,211.2016 C145.371544,211.9184 149.264367,210.5872 149.161924,212.4304 C149.059481,214.2736 147.317955,215.1952 146.088643,213.9664 C144.85933,212.7376 145.064216,211.2016 145.064216,211.2016" id="Shape"></path>
            <path d="M8.4056409,150.376 C8.4056409,150.376 9.63495341,150.376 9.63495341,153.7552 C9.63495341,157.1344 8.4056409,159.3872 6.04945857,158.2608 C3.59083354,157.1344 2.46396374,154.8816 3.59083354,152.6288 C4.71770335,150.376 5.94701587,150.376 8.4056409,150.376 Z" id="Shape"></path>
            <path d="M7.17632838,159.3872 C7.17632838,159.3872 11.9911357,168.3984 9.63495341,176.2832 C7.17632838,184.168 7.17632838,186.4208 7.17632838,189.8 C7.17632838,193.1792 7.17632838,212.9424 8.4056409,216.3216 C8.4056409,216.3216 11.6838076,215.8096 12.1960212,217.0384 C12.7082347,218.2672 13.9375472,220.6224 11.6838076,219.9056 C9.43006799,219.1888 6.3567867,217.96 6.3567867,217.96" id="Shape"></path>
            <path d="M7.17632838,159.3872 C7.17632838,159.3872 2.36152103,161.64 2.36152103,169.5248 C2.36152103,177.4096 1.33709393,187.1376 2.36152103,188.6736 C5.12747419,192.6672 6.45922941,192.7696 7.58609922,190.5168" id="Shape"></path>
            <path d="M3.59083354,190.824 C3.59083354,190.824 3.69327625,208.232 3.07861999,214.7856 C3.07861999,214.7856 3.28350541,214.9904 4.30793251,216.2192 C5.33235961,217.448 6.56167212,219.8032 4.82014606,219.2912 C3.07861999,218.7792 0.824880383,218.3696 0.824880383,218.3696 L3.07861999,214.7856" id="Shape"></path>
            <path d="M5.94701587,168.3984 C7.17632838,168.3984 8.09831277,175.6688 12.9131201,180.1744 C17.7279275,184.68 19.5718962,182.2224 20.6987661,181.096" id="Shape"></path>
            <path d="M20.1865525,180.8912 C20.8012088,180.7888 26.1282297,180.1744 27.4599849,182.7344 C28.7917401,185.2944 29.9186099,187.1376 29.9186099,187.1376" id="Shape"></path>
            <path d="M30.0210526,187.1376 L65.5686729,187.9568 C65.5686729,187.9568 63.5198187,197.6848 61.0611937,199.4256 C58.6025686,201.1664 38.9335684,202.088 38.9335684,202.088" id="Shape"></path>
            <path d="M34.9383027,203.2144 L34.7334173,216.424 C34.7334173,216.424 32.377235,216.6288 32.1723495,217.7552 C31.9674641,218.7792 33.9138756,219.3936 34.7334173,218.8816 C35.6554017,218.472 35.9627298,217.2432 34.7334173,216.424" id="Shape"></path>
            <path d="M30.8405943,195.0224 L64.6466885,193.5888" id="Shape"></path>
            <path d="M38.2164694,187.5472 L39.0360111,202.088 C39.0360111,202.088 35.4505162,202.1904 34.3236464,201.3712 C33.1967766,200.552 30.0210526,199.4256 30.0210526,187.1376" id="Shape"></path>
            <path d="M52.9682196,188.0592 L52.7633342,201.064" id="Shape"></path>
            <path d="M58.6025686,201.576 C58.5001259,202.1904 58.3976832,214.888 58.7050113,215.7072 C59.0123395,216.5264 63.0076051,215.0928 62.9051624,216.8336 C62.8027197,218.5744 60.9587509,219.496 59.7294384,218.3696 C58.5001259,217.2432 58.7050113,215.7072 58.7050113,215.7072" id="Shape"></path>
            <path d="M161.250164,184.68 L354.764442,184.0656" id="Shape"></path>
            <path d="M375.806818,0.723333333 C375.806818,0.723333333 366.5,5.27 364.761364,6.71666667 C363.022727,8.16333333 344.306818,20.3566667 344.613636,21.08 C344.920455,21.8033333 346.863636,24.9033333 347.681818,25.11 C348.5,25.2133333 352.181818,25.73 352.590909,26.97 C353,28.21 356.784091,31 356.784091,31 C356.784091,31 357.397727,31 358.215909,31 C359.034091,31 363.738636,29.8633333 364.454545,29.8633333 C365.170455,29.8633333 366.295455,29.14 366.295455,29.14 C366.295455,29.14 381.125,10.9533333 381.329545,9.3 C381.431818,8.57666667 381.329545,7.02666667 380.715909,5.47666667 C380,3.30666667 378.465909,1.24 375.806818,0.723333333 Z" id="Shape"></path>
            <path d="M379.284091,6.09666667 C379.284091,6.09666667 367.113636,20.15 366.295455,20.6666667 C365.477273,21.1833333 363.022727,20.9766667 363.022727,19.9433333 C363.022727,18.91 359.647727,15.2933333 357.806818,15.7066667 C355.965909,16.12 345.534091,21.2866667 345.534091,21.2866667" id="Shape"></path>
            <path d="M350.034091,22.32 C350.647727,22.01 352.181818,23.1466667 352.181818,23.1466667 L357.397727,29.0366667 C357.397727,29.0366667 364.147727,27.0733333 364.352273,26.35 C364.454545,25.6266667 362.102273,22.1133333 361.693182,21.39 C361.284091,20.6666667 359.954545,19.0133333 359.545455,19.0133333 C359.136364,19.0133333 351.977273,21.1833333 351.056818,21.7" id="Shape"></path>
            <path d="M376.931818,16.9466667 C376.931818,16.9466667 380.204545,25.11 370.897727,24.8" id="Shape"></path>
            <path d="M377.75,20.77 C378.363636,20.6666667 384.193182,24.8 384.193182,24.8 C384.193182,24.8 384.090909,27.1766667 383.170455,27.4866667 C382.25,27.7966667 376.931818,24.49 375.806818,24.0766667" id="Shape"></path>
            <path d="M382.863636,22.7333333 C383.477273,22.4233333 388.693182,23.0433333 387.977273,27.28 C384.704545,32.86 381.534091,28.3133333 380.818182,27.3833333" id="Shape"></path>
        </g>
    </g>
</svg>