<?xml version="1.0" encoding="UTF-8"?>
<svg width="4000px" height="320px" viewBox="0 0 4000 320" version="1.1" xmlns="http://www.w3.org/2000/svg" xmlns:xlink="http://www.w3.org/1999/xlink">
    <!-- Generator: Sketch 52.3 (67297) - http://www.bohemiancoding.com/sketch -->
    <title>Samfunnsfaglig engelsk</title>
    <desc>Created with Sketch.</desc>
    <g id="Samfunnsfaglig-engelsk" stroke="none" stroke-width="1" fill="none" fill-rule="evenodd">
        <g id="samf.engelsk-01-(2)" transform="translate(3770.000000, 76.000000)" stroke="#FFFFFF">
            <path d="M176.4,11.4 C176.4,11.4 160.7,-5.8 144.3,3.3 C142.4,22.6 145,19.4 144.3,27.5 C143.6,35.6 144.3,54.5 143.6,58" id="Path"></path>
            <path d="M183.5,2.6 C184.6,4 183.9,28.5 184.2,31.7 C184.6,34.9 183.8,60.8 189,66 C194.2,71.3 194.2,71.3 194.2,71.3 C194.2,71.3 185.6,64.3 161,60.1 C134.5,60.1 127.1,58.3 121.9,63.3 C116.7,68.2 121.2,72.4 121.2,72.4 C121.2,72.4 120.8,63.3 191.7,64.3" id="Path"></path>
            <path d="M156.6,70.8 C156.6,70.8 145.1,110.7 145.1,112.6 C145.1,114.4 147.1,118.6 150.4,117.9 C153.8,117.1 159.9,110.8 162.1,105.5" id="Path"></path>
            <path d="M151,73.9 C151,73.9 144.3,83.4 134.8,80.7 C130.3,75.4 139.8,72 146,72.3" id="Path"></path>
            <path d="M181.5,78.4 C180.7,78.4 171.4,82.9 159.4,76.8 C160.5,72.1 173.9,76.5 175.9,77.6" id="Path"></path>
            <path d="M133.7,83.4 C134,82.6 131.7,79.5 129.2,83.1 C126.7,86.8 130,97.6 133.1,97 C136.2,96.5 137.3,90.7 137.3,87.5 C137.3,84.3 138.4,82.2 139,83.3 C139.6,84.4 146,99.9 145.4,110.6" id="Path"></path>
            <path d="M167.8,109.2 C167.8,109.2 174.8,104.2 175.1,102.4 C175.4,100.6 179.6,90 180.1,86.4 C180.7,82.7 184,73.3 185.7,73.3 C187.4,73.3 188.8,93.3 182.3,104.6 C175.8,115.9 168.3,126.4 164.4,127.5 C160.5,128.6 147.1,131.2 144.8,128.3 C142.6,125.4 146.2,124.6 146.8,116.5" id="Path"></path>
            <path d="M136.8,133.3 C136.5,132.5 150.2,120.2 157.5,122 C164.8,123.8 165.1,132.2 161.4,135.7 C157.8,139.1 144.3,139.4 139.3,136 C134.3,132.5 136.8,133.3 136.8,133.3 Z" id="Path"></path>
            <path d="M150.3,79.9 C150.3,79.9 148.5,78.9 148,81 C147.5,83.1 149.6,82.1 149.8,81.2" id="Path"></path>
            <path d="M165.7,80.2 C165.7,80.2 163.9,79.7 163.7,81.1 C164.8,82.3 164.7,81.4 165.1,81.5" id="Path"></path>
            <path d="M71.2,52.6 C71.2,52.6 72,61.6 57,66.1 C46.5,72.9 51.2,78.1 51.8,80.6 C52.4,83.1 55.6,97.3 52.6,102.6 C49.6,107.9 38.4,115.1 26.8,98.1" id="Path"></path>
            <path d="M79.4,66.3 C79.4,66.3 70.9,46.3 49.6,46.5 C28.3,46.7 26.4,54.5 25.6,65.5 C24.8,76.5 25.1,80.7 26.8,84 C28.5,87.3 28.3,102 41.8,108.5 C46.1,111.6 60.3,121.3 67.8,120.5 C75.3,119.7 88,118 84.3,80.3 C81.5,68.8 78.9,65.7 78.9,65.7" id="Path"></path>
            <path d="M76.7,81.3 C76.7,81.3 79.9,81.1 80.5,82.3 C81.1,83.5 76.3,84.3 75.5,83.3 C74.7,82.3 76.7,81.3 76.7,81.3 Z" id="Path"></path>
            <path d="M73.9,80.8 C73.9,80.8 57.4,80 56.9,82.6 C56.4,85.2 60,85.5 61.1,82.4" id="Path"></path>
            <path d="M75.4,86.3 C75.4,86.3 80.4,101.3 78.4,102.8 C76.4,104.3 73.4,101 73.4,101" id="Path"></path>
            <path d="M86.2,88.1 C86.2,88.1 94.2,101.3 91.2,105.8 C88.2,110.3 83.2,107 83.2,107" id="Path"></path>
            <path d="M15.2,70 C15.2,70 8,71.8 9.2,78 C10,81.8 15.4,82 15.4,82 C15.4,82 8.4,87.8 9.9,90.2 C11.4,92.6 15.1,92.2 15.1,92.2 C15.1,92.2 10.6,97.7 13.9,100.2 C17.2,102.7 19.7,100.7 19.7,100.7" id="Path"></path>
            <path d="M15.4,67.3 C15.4,67.3 9.2,65 4,73.7 C-1.2,82.4 2.7,95.3 10.7,99.5 C18.7,103.7 23.7,105.7 26.7,98 C29.7,90.3 29.2,94.9 28.5,91" id="Path"></path>
            <path d="M14.4,78.3 C14.4,78.3 13.7,82.5 15.2,70.2 C16.2,62 25.6,57.5 26.4,57.3" id="Path"></path>
            <path d="M28.9,102.1 C28.9,102.1 30.1,111.9 24.9,117.9 C19.7,123.9 -1.6,139.1 0.1,165.7" id="Path"></path>
            <path d="M62.7,120.6 C61.9,120.4 50.9,130.8 51.2,143.1 C51.5,155.4 57,161.3 58.4,162.6 C59.8,163.9 67.2,173.1 70.2,188.6" id="Path"></path>
            <path d="M47.4,159.8 C47.4,159.8 41.2,162 37.2,150.3 C33.2,138.6 36.2,129.1 22.2,122.5 C20.8,121.9 29,121.5 32,125.5 C35,129.5 42,146 49.8,151.3 C57.6,156.6 64.3,161.3 64.6,163.8 C64.9,166.3 68.6,174.6 62.6,173.6 C56.6,172.6 49.1,167.4 51.1,163.1 C53.1,158.8 54.9,158.1 57.3,159.3" id="Path"></path>
            <path d="M78,106.8 C78,106.8 73.8,104.3 71.2,106.3 C68.6,108.3 68.7,108.3 68.7,108.3 C68.7,108.3 72.2,114.1 81.5,111.3 C84.5,107.8 82.3,105.3 80.5,105.8 C78.7,106.3 78,106.8 78,106.8 Z" id="Path"></path>
            <path d="M52,45.2 C52.3,44 53.5,31.6 51.2,34 C49,36.4 47.9,40.9 46.3,41 C44.8,41.1 41.2,34.1 38.6,35.9 C36,37.7 37.7,43.3 36.6,43.5 C35.5,43.7 25.3,36.8 25.4,40.7 C25.5,44.6 30.4,51.4 30.4,51.4" id="Path"></path>
            <path d="M40.3,31.3 C40,30.5 35.6,21.3 32.8,23 C30,24.7 35.5,31.2 36.4,32.2" id="Path"></path>
        </g>
    </g>
</svg>