<?xml version="1.0" encoding="UTF-8"?>
<svg width="4000px" height="320px" viewBox="0 0 4000 320" version="1.1" xmlns="http://www.w3.org/2000/svg" xmlns:xlink="http://www.w3.org/1999/xlink">
    <!-- Generator: Sketch 51.2 (57519) - http://www.bohemiancoding.com/sketch -->
    <title>Sør-samisk</title>
    <desc>Created with Sketch.</desc>
    <defs></defs>
    <g id="Sør-samisk" stroke="none" stroke-width="1" fill="none" fill-rule="evenodd">
        <g id="sør-samisk-01" transform="translate(97.000000, 36.000000)">
            <path d="M3707.45034,41.7023674 C3707.45034,41.7023674 3703.76615,51.6601028 3705.43281,55.6088599 C3707.09946,59.557617 3714.731,58.7850341 3717.18713,58.7850341 C3719.64326,58.7850341 3726.92392,58.3558213 3730.95899,59.557617 C3734.99406,60.7594126 3752.45011,63.9355868 3764.20443,60.3301999 C3766.22196,56.3814428 3763.76584,54.7504344 3763.76584,54.7504344 C3763.76584,54.7504344 3742.71331,47.6255031 3740.25719,45.6511245 C3737.80106,43.676746 3708.6784,39.2987761 3707.45034,41.7023674 Z" id="Shape" stroke="#FFFFFF"></path>
            <path d="M3769,51 C3766.45455,51.4347826 3764,55 3764,55" id="Shape" stroke="#FFFFFF"></path>
            <path d="M3746,63 C3746,63 3740,75.1058201 3740,77.0529101 C3740,79 3740,79 3740,79" id="Shape" stroke="#FFFFFF"></path>
            <path d="M3708,58 C3708,58 3710,71.2910053 3710,74" id="Shape" stroke="#FFFFFF"></path>
            <path d="M3740,117 C3739.8092,118.36 3736.66092,130.77 3738.66437,134" id="Shape" stroke="#FFFFFF"></path>
            <path d="M3717,112 C3716.29927,112.786408 3705,130 3705,130" id="Shape" stroke="#FFFFFF"></path>
            <path d="M3793,189 C3793,189 3794.86441,192.158537 3796.38983,194.54878 C3798,196.939024 3798,203 3798,203" id="Shape" stroke="#FFFFFF"></path>
            <path d="M3817.05612,188 C3816.57873,190.348387 3819.28392,199.154839 3820,201" id="Shape" stroke="#FFFFFF"></path>
            <path d="M3794,175.021862 C3794.26,174.50482 3796.9467,183.294533 3795.64669,187" id="Shape" stroke="#FFFFFF"></path>
            <path d="M3767,164 C3767,164 3772.7102,174.803571 3777.8933,174 L3813.56006,173.196429 C3813.56006,173.196429 3817.95252,186.5 3816.81048,187.035714 C3815.75629,187.571429 3808.64051,188.375 3805.65364,187.303571 C3802.66676,186.232143 3792.82766,189 3792.82766,189 C3792.82766,189 3786.06327,183.732143 3778.42039,180.428571 C3776.75126,188.464286 3768.05419,184.267857 3768.05419,184.267857 L3778.42039,174.267857" id="Shape" stroke="#FFFFFF"></path>
            <path d="M3770,41 C3770,41 3777.07067,40.4262295 3779.30823,38.9508197 C3781.54578,37.4754098 3780.91927,36 3780.91927,36" id="Shape" stroke="#FFFFFF"></path>
            <path d="M3774.56677,34 C3774.56677,34 3772.2089,35.9659767 3770.89897,36.2340644 C3770.89897,36.2340644 3771.42294,34.7149006 3769.67637,39.0936668 C3768.54109,42.0426318 3767.14383,48.3873747 3771.24828,49.8171759 C3773.16952,50.442714 3782.16437,55.6257434 3783.38697,56.8768194 C3784.60958,58.1278955 3783.82362,60.6300476 3782.60102,61.7917611 C3781.37841,62.9534746 3772.90753,58.9321587 3770.89897,57.6810826 C3768.89041,56.4300066 3764,60.1832348 3764,60.1832348" id="Shape" stroke="#FFFFFF"></path>
            <path d="M3768.01916,34.674297 C3767.72107,32.5910494 3771,36 3771,36" id="Shape" stroke="#FFFFFF"></path>
            <path d="M3806,57 L3813,51.1964286 C3813,51.1964286 3810.96512,48.6071429 3811.86047,47" id="Shape" stroke="#FFFFFF"></path>
            <path d="M3814,51 C3814,51 3816.97674,49.88 3818,49" id="Shape" stroke="#FFFFFF"></path>
            <path d="M3812,53 C3812,53 3816.86486,56.2129529 3818.75676,55.9887934 C3820.73874,55.6899141 3822,53.8219182 3822,53.8219182" id="Shape" stroke="#FFFFFF"></path>
            <path d="M3816.93312,56 C3816.93312,56 3815.13312,59.7209302 3816.53312,60" id="Shape" stroke="#FFFFFF"></path>
            <path d="M3774,92 C3774,92 3770.81416,93.6263989 3768.86726,93.9878208 L3761.61062,103.294437 C3761.61062,103.294437 3768.69027,109.800032 3769.9292,111.426431 C3771.16814,113.05283 3769.39823,115.402073 3767.9823,115.221362 C3766.56637,115.040651 3760.99115,110.432521 3760.99115,110.432521 C3760.99115,110.432521 3744.53097,118.835581 3737.53982,117.932026 C3730.54867,116.938116 3714,111.155364 3714,111.155364 L3716.92035,95.3431532 C3716.92035,95.3431532 3727.89381,98.3248845 3732.23009,99.7705724 C3736.56637,101.21626 3760.10619,103.384792 3761.61062,103.294437" id="Shape" stroke="#FFFFFF"></path>
            <path d="M3766,87.5973897 C3767.4,84.34264 3765.3,95.3726251 3766.7,97" id="Shape" stroke="#FFFFFF"></path>
            <path d="M3766,90 C3766,90 3767.83333,89.34375 3769,87" id="Shape" stroke="#FFFFFF"></path>
            <path d="M3771,94 C3771,94 3772.65,96.6666667 3774,97" id="Shape" stroke="#FFFFFF"></path>
            <path d="M3790,126 C3790,126 3789.06383,128 3786,128" id="Shape" stroke="#FFFFFF"></path>
            <path d="M3785.78735,128 C3785.78735,128 3787.51743,125.030928 3786.84462,122.639175 C3786.84462,122.639175 3783.38446,121.731959 3783,120" id="Shape" stroke="#FFFFFF"></path>
            <path d="M3791,119 C3791,119 3788.825,122.703704 3788,124" id="Shape" stroke="#FFFFFF"></path>
            <path d="M3768,168.539568 C3768,168.539568 3762.44211,169.57554 3761.43158,168.539568 C3760.42105,167.503597 3761.09474,166.035971 3760,165" id="Shape" stroke="#FFFFFF"></path>
            <path d="M3772,170 C3772,170 3773,165.108434 3773,163" id="Shape" stroke="#FFFFFF"></path>
            <path d="M3778,161 C3778,161 3775.42222,163.96 3774,165" id="Shape" stroke="#FFFFFF"></path>
            <path d="M3799,53 C3799,53 3805.65847,54.69884 3806.45749,59.2588843 C3807.16773,63.8189285 3809.83112,75.1743328 3811.25159,78.035537 C3812.67207,80.8967412 3817.02227,96.8121898 3815.77936,99.4945687 C3814.53644,102.176948 3808.14431,102.355773 3806.45749,101.640472 C3804.77068,100.925171 3799.79902,85.7250234 3801.66339,77.3202359 C3803.52776,68.9154485 3804.77068,63.1036274 3803.7941,61.1365495 C3802.81753,59.1694716 3800.42047,55.3247284 3800.42047,55.3247284 C3800.42047,55.3247284 3799.4439,53.6258884 3801.13071,53.8941263" id="Shape" stroke="#FFFFFF"></path>
            <path d="M3802,74 C3801.56522,73.7333333 3791.56522,73.7333333 3791.56522,73.7333333 C3791.56522,73.7333333 3790.6087,73.5333333 3790,73" id="Shape" stroke="#FFFFFF"></path>
            <path d="M3806,102 C3806,102 3803.61062,104.086957 3802.10619,104.434783 C3800.51327,104.782609 3797.32743,104.173913 3796,106" id="Shape" stroke="#FFFFFF"></path>
            <path d="M3788,124.579694 L3798.46378,131.768091 C3798.46378,131.768091 3797.03284,144.07822 3797.12227,144.886915 C3797.21171,145.605754 3803.29322,142.910106 3803.47209,136.440549 C3807.31775,136.170984 3827.70871,133.56519 3831.1072,128.353602 C3834.5057,123.142015 3833.96909,121.704336 3833.96909,121.704336 L3827.79814,112 C3827.79814,112 3825.02569,117.121733 3822.7004,119.008687 C3820.37512,120.895641 3806.51284,130.150702 3804.36643,130.959396 C3802.22001,131.768091 3798.37435,131.768091 3798.37435,131.768091" id="Shape" stroke="#FFFFFF"></path>
            <path d="M3810.0442,134 C3810.0442,134 3809.67885,138.676471 3811.04891,141.147059 C3812.41898,143.617647 3820,149 3820,149" id="Shape" stroke="#FFFFFF"></path>
            <path d="M3835,123 C3835,123 3840.87671,128.272727 3842.47945,129.454545 C3844.08219,130.636364 3848,133 3848,133" id="Shape" stroke="#FFFFFF"></path>
            <path d="M3574.03406,180.812872 C3574.03406,180.812872 3571.60681,180.812872 3571.34675,181.851373 C3571.08669,182.889875 3572.387,188.168923 3574.81424,187.995839 C3577.24149,187.909298 3578.28173,186.178462 3577.93498,185.053419 C3577.58824,183.928376 3577.8483,180.812872 3575.59443,180.293622 C3573.42724,179.774371 3571.34675,180.033996 3571,180.380163" id="Shape" stroke="#FFFFFF"></path>
            <path d="M3577,188.084831 C3577,188.084831 3584.80352,197.486701 3583.27674,204.809311 C3581.74997,212.131921 3579.12052,213.668765 3579.62945,215.476817 C3580.13837,217.375272 3580.90176,217.194467 3582.51335,216.561648 C3584.12495,215.92883 3585.5669,217.104064 3586.66957,216.561648 C3587.77225,216.019233 3591.33472,208.515817 3589.46866,202.368441 C3587.6026,196.221065 3582.42853,188.084831 3578.52677,187" id="Shape" stroke="#FFFFFF"></path>
            <path d="M3581,189.003126 C3581.52174,188.916685 3591.26087,190.645503 3592.56522,191.423471 C3593.86957,192.20144 3595,193.065849 3595,193.065849 C3595,193.065849 3594.47826,200.067563 3594.13043,201.277736 C3593.78261,202.401468 3593.08696,203.179437 3592.73913,203.611641 C3592.3913,203.957405 3590.3913,204.908255 3588.73913,205.513342 C3587.08696,206.118428 3585.6087,206.29131 3586.82609,205.254019 C3588.04348,204.216728 3587.43478,203.870964 3588.73913,204.130287" id="Shape" stroke="#FFFFFF"></path>
            <path d="M3578,189 C3578,189.819898 3576.09003,198.474382 3574.70097,200.296379 C3573.3119,202.209476 3566.62702,209.861861 3565.32477,210.955059 C3564.02252,212.048257 3563.24117,212.048257 3563.15435,214.234653 C3563.06753,216.421049 3562.63345,217.878647 3563.76207,217.969746 C3564.89068,218.060846 3565.67203,218.060846 3565.32477,216.23885 C3564.9775,214.325753 3564.9775,212.048257 3565.32477,210.955059" id="Shape" stroke="#FFFFFF"></path>
            <path d="M3579,191 C3578.91525,191.636364 3575.35593,198.363636 3574,200" id="Shape" stroke="#FFFFFF"></path>
            <path d="M3581,217 C3580.46501,217.370431 3575.56089,223.019509 3573.86675,225.612528 C3572.1726,228.205547 3570.83511,227.557292 3570.83511,229.965096 C3570.83511,232.465507 3573.59925,236.540251 3573.24259,237.373722 C3572.88592,238.207192 3566.91182,238.207192 3567.00099,239.411094 C3567.09015,240.614996 3570.21095,241.633682 3572.44009,240.522388 C3574.66924,239.411094 3575.73922,240.244564 3575.65006,239.040663 C3575.56089,237.836761 3576.27422,237.651545 3574.84757,235.706781 C3573.42092,233.762016 3571.9051,230.520743 3572.08343,228.761194" id="Shape" stroke="#FFFFFF"></path>
            <path d="M3585.69549,216.617765 C3585.69549,216.977269 3584.15916,225.695226 3583.81775,227.402867 C3583.47634,229.110508 3581.68394,239.895609 3581.00113,242.591885 C3580.40366,245.28816 3576.47747,246.726174 3576.0507,248.433815 C3575.7093,250.141456 3577.16028,250.321208 3578.35521,249.602201 C3579.46479,248.97307 3582.87887,245.467912 3582.87887,245.467912 C3582.87887,245.467912 3582.87887,237.379086 3583.98845,233.065045 C3585.09803,228.84088 3588,215 3588,215" id="Shape" stroke="#FFFFFF"></path>
            <circle id="Oval" cx="3495.5" cy="213.5" r="1"></circle>
            <path d="M3591.06431,205 C3591.06431,205 3594.08883,215.298507 3592.57657,220.402985 C3591.06431,225.41791 3586.19148,232.761194 3587.11564,235" id="Shape" stroke="#FFFFFF"></path>
            <path d="M3587,235 C3589.21133,237.93509 3596.28759,241.388137 3596.90676,243.200986 C3597.9682,246.04975 3591.1573,248.29423 3599.56036,250.884015 C3607.96341,253.4738 3609.73248,250.884015 3608.75949,249.848101" id="Shape" stroke="#FFFFFF"></path>
            <path d="M3587,205 L3565,215" id="Shape" stroke="#FFFFFF"></path>
            <path d="M3563,217 L3537,227" id="Shape" stroke="#FFFFFF"></path>
            <path d="M3530.76197,239.845833 C3530.76197,239.845833 3529.51972,239.577083 3529.07606,238.860417 C3528.63239,238.14375 3529.34225,232.947917 3529.34225,232.947917 C3529.34225,232.947917 3532.18169,237.06875 3532.98028,236.889583 C3533.77887,236.710417 3535.81972,235.366667 3535.81972,235.366667" id="Shape" stroke="#FFFFFF"></path>
            <path d="M3532.98028,236.889583 L3535.10986,237.964583" id="Shape" stroke="#FFFFFF"></path>
            <path d="M3536.88451,224.258333 C3536.61831,223.452083 3536.44085,216.195833 3536.08592,215.3 C3535.64225,214.49375 3537.50563,213.41875 3537.50563,213.41875" id="Shape" stroke="#FFFFFF"></path>
            <path d="M3536.08592,226.677083 C3537.23944,226.229167 3545.04789,228.110417 3545.04789,228.110417 C3545.04789,228.110417 3545.84648,230.260417 3546.7338,230.529167" id="Shape" stroke="#FFFFFF"></path>
            <path d="M3529.34225,232.858333 C3529.34225,232.858333 3525.43803,239.4875 3524.10704,242.891667 C3522.86479,246.295833 3522.68732,247.0125 3522.15493,244.325 C3521.62254,241.6375 3521.44507,234.65 3521.44507,234.65 C3521.44507,234.65 3500.85915,230.8875 3494.29296,226.85625 C3491.18732,224.975 3486.12958,222.825 3486.21831,221.033333 C3486.39577,219.152083 3487.90423,217.9875 3489.14648,216.64375 C3491.36479,214.225 3493.13944,211.80625 3494.47042,211.80625 C3495.80141,211.80625 3501.39155,213.6875 3502.19014,214.404167 C3502.98873,215.120833 3509.4662,214.672917 3510.08732,214.941667 C3510.70845,215.210417 3520.29155,222.2875 3521.44507,223.541667 C3522.59859,224.795833 3524.99437,226.408333 3525.61549,227.125 C3526.32535,227.841667 3528.80986,232.052083 3528.80986,232.052083 C3528.80986,232.052083 3534.84366,229.185417 3535.99718,226.497917 C3537.1507,223.810417 3538.92535,217.002083 3539.90141,217.002083 C3540.87746,217.002083 3542.03099,217.539583 3542.56338,217.18125" id="Shape" stroke="#FFFFFF"></path>
            <path d="M3488.61408,223.810417 C3488.61408,224.258333 3488.17042,229.185417 3487.46056,233.84375 C3486.7507,238.502083 3484.35493,244.59375 3484.97606,245.579167 C3485.59718,246.564583 3487.10563,247.81875 3486.92817,247.0125 C3486.7507,246.20625 3486.66197,244.59375 3486.48451,243.877083 C3486.30704,243.160417 3487.2831,241.6375 3487.63803,239.75625 C3487.90423,237.875 3491.45352,227.752083 3492.42958,226.85625" id="Shape" stroke="#FFFFFF"></path>
            <path d="M3509.55493,232.858333 C3509.55493,233.30625 3512.2169,238.4125 3512.7493,239.75625 C3513.28169,241.1 3514.87887,243.339583 3514.96761,245.4 C3515.14507,247.55 3515.41127,249.072917 3516.20986,249.072917 C3517.00845,249.072917 3516.74225,246.922917 3516.20986,246.116667 C3515.67746,245.310417 3515.2338,244.59375 3515.2338,244.59375" id="Shape" stroke="#FFFFFF"></path>
            <path d="M3504.67465,231.604167 C3504.67465,231.604167 3507.07042,239.845833 3507.15915,242.085417 C3507.33662,244.325 3505.73944,250.147917 3506.1831,251.85 C3506.62676,253.552083 3507.60282,254.80625 3508.04648,253.372917 C3508.49014,251.939583 3507.78028,250.416667 3507.33662,249.1625 C3506.89296,247.908333 3506.89296,246.475 3506.89296,246.475" id="Shape" stroke="#FFFFFF"></path>
            <path d="M3498.72958,230.08125 C3498.72958,230.08125 3500.23803,237.427083 3500.59296,239.397917 C3500.85915,241.36875 3502.81127,241.816667 3502.27887,241.1 C3501.74648,240.383333 3500.59296,239.397917 3500.59296,239.397917" id="Shape" stroke="#FFFFFF"></path>
            <path d="M3511.9507,233.0375 C3511.9507,233.0375 3512.7493,238.95 3513.81408,241.36875" id="Shape" stroke="#FFFFFF"></path>
            <path d="M3497.13239,213.15 L3490.74366,225.333333" id="Shape" stroke="#FFFFFF"></path>
            <path d="M3683.78969,176.594418 C3683.87856,177.478559 3677.21326,182.960237 3678.01309,183.402308 C3678.81293,183.844379 3685.83372,182.429752 3687.78887,181.722439 C3689.74403,181.015126 3701.83044,194.542492 3706.18511,195.515048 C3710.53977,196.487603 3741.20016,201.615625 3741.20016,201.615625 C3741.20016,201.615625 3738.80065,190.829097 3738.08969,188.530329 C3737.37872,186.231561 3739.51162,184.905349 3740.13372,185.082177 C3740.66694,185.170591 3737.46759,186.319975 3737.46759,186.319975 L3687.7,178.097458 C3687.7,178.097458 3684.6784,176.771246 3685.83372,175.533448 C3686.98903,174.295649 3681.9234,174.030407 3681.0347,173.853579 C3680.14599,173.67675 3686.98903,174.295649 3686.98903,174.295649 L3689.65516,171.908467 C3689.65516,171.908467 3696.4982,172.527366 3695.60949,172.350538 C3694.72079,172.17371 3689.65516,171.908467 3689.65516,171.908467 L3691.61031,165.984719 L3698.45336,165.454234 L3691.61031,165.984719 C3691.61031,165.984719 3687.52226,163.862779 3688.49984,159.795727" id="Shape" stroke="#FFFFFF"></path>
            <path d="M3708.05139,196.929674 C3708.67349,197.018088 3706.27398,206.213161 3706.18511,207.716201" id="Shape" stroke="#FFFFFF"></path>
            <path d="M3739.33388,202.146109 C3739.42275,203.030251 3739.24501,209.042414 3741.64452,210.810697" id="Shape" stroke="#FFFFFF"></path>
            <path d="M3707.96252,182.341338 C3708.49574,182.783409 3704.31882,195.691876 3706.18511,195.515048" id="Shape" stroke="#FFFFFF"></path>
            <path d="M3712.40606,182.783409 C3713.20589,183.225479 3711.51735,195.868704 3711.51735,195.868704" id="Shape" stroke="#FFFFFF"></path>
            <path d="M3655.37669,38.0121129 C3655.55444,35.6144476 3660.70924,27.9774397 3664.53089,24.6917502 C3668.97468,20.9620487 3682.30605,14.9234843 3687.6386,13.7690529 C3692.97114,12.6146214 3711.36843,6.04324251 3716.70097,5.51042801 C3722.03352,4.9776135 3735.09826,1.33671437 3741.58619,0.182282938 C3748.07412,-0.972148494 3767.09354,3.73437965 3772.42608,3.73437965 C3777.75863,3.73437965 3797.3113,12.6146214 3801.48846,12.6146214 C3805.66562,12.6146214 3844.77096,24.425343 3848.85925,29.7534881 C3853.03641,35.0816331 3873.12234,63.4984068 3875.52198,78.8612251 C3877.92163,94.2240434 3879.07701,125.660099 3876.67737,140.401301 C3874.27772,155.231304 3873.12234,165.887595 3871.96695,169.972506 C3870.81157,174.146219 3869.56731,186.578558 3866.01228,191.906703 C3862.45724,197.234848 3853.56967,209.667187 3851.17002,215.616949 C3848.77037,221.566711 3841.66031,240.481625 3836.9499,246.964202 C3832.23948,253.446778 3819.79687,263.570254 3805.57675,261.794206 C3791.35662,260.018157 3774.73685,261.172589 3769.40431,261.172589 C3764.07176,261.172589 3752.25128,258.242109 3746.29661,256.466061 C3740.34193,254.690012 3719.63387,248.74025 3710.7463,249.361867 C3704.52499,249.805879 3689.68274,249.184262 3681.41729,248.74025 C3680.97291,248.74025 3680.61741,248.74025 3680.26191,248.651448 C3677.41788,248.473843 3651.82166,234.798271 3648,228.582102" id="Shape" stroke="#FFFFFF"></path>
            <path d="M3663.0932,43.2922263 C3663.0932,43.2922263 3665.48716,40.0099391 3669.03376,37.703467 C3674.88566,33.8002065 3684.72748,26.7920797 3688.27408,27.3243425 C3691.82068,27.8566053 3712.47964,20.8484785 3718.4202,20.2275052 C3724.36076,19.6065319 3762.13208,12.5096947 3767.45198,14.283904 C3772.77189,16.0581133 3800.52405,24.3081866 3805.31196,25.5501332 C3810.01121,26.7033692 3836.61073,36.1953891 3842.55129,43.9131996 C3848.49185,51.6310101 3865.6042,67.598894 3864.98355,106.631499 C3864.36289,145.664104 3858.511,156.930333 3858.511,162.252961 C3858.511,167.575589 3855.58505,175.825662 3853.1911,181.769264 C3850.79714,187.712865 3838.38403,211.309849 3837.23139,215.479241 C3836.07874,219.648633 3828.98553,230.826151 3821.89233,241.471407 C3814.79912,252.116663 3795.29281,250.963427 3795.29281,250.963427 C3795.29281,250.963427 3801.76536,246.794035 3785.80565,248.035982 C3769.84594,249.189218 3755.03887,246.882746 3750.96028,245.108536 C3746.79302,243.334327 3736.15322,236.858463 3723.20812,238.632672 C3710.26302,240.406882 3696.6086,239.253646 3691.28869,238.011699 C3685.96879,236.858463 3677.10228,237.390726 3671.78238,234.46328 C3666.46248,231.535835 3659.98993,227.366443 3659.98993,227.366443 L3656,235.084254" id="Shape" stroke="#FFFFFF"></path>
            <path d="M3659,29 L3666,39" id="Shape" stroke="#FFFFFF"></path>
            <path d="M3657,34 L3664,41" id="Shape" stroke="#FFFFFF"></path>
            <polyline id="Shape" stroke="#FFFFFF" points="3665.38776 23 3668 29.9565217 3664 35"></polyline>
            <path d="M3672,34 L3668,30" id="Shape" stroke="#FFFFFF"></path>
            <path d="M3669,21 L3674,33" id="Shape" stroke="#FFFFFF"></path>
            <path d="M3678,17 C3678,17 3680.74286,27.4888889 3681,29" id="Shape" stroke="#FFFFFF"></path>
            <path d="M3685,15 L3688,27" id="Shape" stroke="#FFFFFF"></path>
            <path d="M3689,14 L3692,27" id="Shape" stroke="#FFFFFF"></path>
            <path d="M3695.72541,12.2219845 C3693.98636,9.74568419 3695.90847,28.8729694 3696,25.6281621" id="Shape" stroke="#FFFFFF"></path>
            <path d="M3699,11 L3700,25" id="Shape" stroke="#FFFFFF"></path>
            <path d="M3703.4,9 L3703,23" id="Shape" stroke="#FFFFFF"></path>
            <path d="M3706,9 L3706.6,23" id="Shape" stroke="#FFFFFF"></path>
            <path d="M3711,20 C3710.25,16.6448205 3708,7.75359481 3708,8.00523328" id="Shape" stroke="#FFFFFF"></path>
            <path d="M3714,6 C3714.26087,7.10457516 3716,19 3716,19" id="Shape" stroke="#FFFFFF"></path>
            <path d="M3719,5 L3722,18" id="Shape" stroke="#FFFFFF"></path>
            <path d="M3723,5 L3729,18" id="Shape" stroke="#FFFFFF"></path>
            <path d="M3735,17 C3735,15.8407643 3728,3 3728,3" id="Shape" stroke="#FFFFFF"></path>
            <path d="M3748,1 C3748,1 3753,12.9 3753,15" id="Shape" stroke="#FFFFFF"></path>
            <path d="M3749,5 C3747.91667,7.07518797 3744,17 3744,17" id="Shape" stroke="#FFFFFF"></path>
            <path d="M3746,0 C3746,0.842696629 3740.16667,15 3740.16667,15 L3736,1.51685393" id="Shape" stroke="#FFFFFF"></path>
            <path d="M3750,5 L3760,6" id="Shape" stroke="#FFFFFF"></path>
            <path d="M3760,2 L3760,14" id="Shape" stroke="#FFFFFF"></path>
            <path d="M3760,9.99186992 C3760,9.99186992 3764.9875,7.93495935 3764.9875,4 L3767,15" id="Shape" stroke="#FFFFFF"></path>
            <path d="M3771.3,4 L3771,16" id="Shape" stroke="#FFFFFF"></path>
            <polyline id="Shape" stroke="#FFFFFF" points="3779 5 3774.9434 7.75 3774 15"></polyline>
            <path d="M3783,7 L3777,17" id="Shape" stroke="#FFFFFF"></path>
            <path d="M3791,10 L3788,20" id="Shape" stroke="#FFFFFF"></path>
            <path d="M3799,12 C3799,12 3795.42857,15.8053097 3795.16071,17.3097345 C3794.89286,18.8141593 3794,22 3794,22" id="Shape" stroke="#FFFFFF"></path>
            <path d="M3806,14 L3800,24" id="Shape" stroke="#FFFFFF"></path>
            <path d="M3809,15 L3814,28" id="Shape" stroke="#FFFFFF"></path>
            <path d="M3817,18 C3817,18 3812.77,19.4166667 3810.97,21.5833333 C3809.17,23.75 3808,26 3808,26" id="Shape" stroke="#FFFFFF"></path>
            <path d="M3824,19 L3816,28" id="Shape" stroke="#FFFFFF"></path>
            <path d="M3832,22 C3832,22 3825.05085,23.9345794 3824.54237,25.1121495 C3823.94915,26.2056075 3822,31 3822,31" id="Shape" stroke="#FFFFFF"></path>
            <path d="M3843,27 C3841.85034,27 3832.38776,31.6315789 3830,35" id="Shape" stroke="#FFFFFF"></path>
            <path d="M3851,34 C3850.13333,34.2571429 3843.46,35.7142857 3842.07333,36.5714286 C3840.6,37.4285714 3838,40 3838,40" id="Shape" stroke="#FFFFFF"></path>
            <path d="M3842,44 C3843.74419,44 3857,43 3857,43" id="Shape" stroke="#FFFFFF"></path>
            <path d="M3862,50 L3849,53" id="Shape" stroke="#FFFFFF"></path>
            <path d="M3854,59 L3867,58" id="Shape" stroke="#FFFFFF"></path>
            <path d="M3868,61 C3868,61 3861.81818,68.1923077 3860,72" id="Shape" stroke="#FFFFFF"></path>
            <path d="M3870.98737,68 C3871.40996,68.56 3861.09874,70.96 3860,72" id="Shape" stroke="#FFFFFF"></path>
            <path d="M3862,78 C3863.67742,78.8715596 3871.64516,87.412844 3873.32258,90.0275229 C3875,92.6422018 3875,92.6422018 3875,92.6422018 C3873.90968,91.5091743 3864.34839,97 3864.34839,97" id="Shape" stroke="#FFFFFF"></path>
            <path d="M3875,84 L3864,90" id="Shape" stroke="#FFFFFF"></path>
            <path d="M3864.35036,106.57754 C3865.83942,107.433155 3876,110 3876,110 C3875.73723,107.176471 3865.48905,95.197861 3864,94" id="Shape" stroke="#FFFFFF"></path>
            <path d="M3864,123 C3864.61314,124.213333 3876,130 3876,130" id="Shape" stroke="#FFFFFF"></path>
            <path d="M3876,141 L3863,136" id="Shape" stroke="#FFFFFF"></path>
            <path d="M3862,147 L3873,153" id="Shape" stroke="#FFFFFF"></path>
            <path d="M3871,166 C3870.39333,164.833333 3858,159 3858,159" id="Shape" stroke="#FFFFFF"></path>
            <path d="M3856,172 C3856,172 3867.14286,179.652174 3868,182" id="Shape" stroke="#FFFFFF"></path>
            <path d="M3865,192 L3853,182" id="Shape" stroke="#FFFFFF"></path>
            <path d="M3848,192 C3849.1,192.63 3859,201 3859,201" id="Shape" stroke="#FFFFFF"></path>
            <path d="M3853,209 C3852.17526,208.160839 3845,197 3845,197" id="Shape" stroke="#FFFFFF"></path>
            <path d="M3843,204 L3851,214" id="Shape" stroke="#FFFFFF"></path>
            <path d="M3849,218 C3848.12621,217.411215 3840,209 3840,209" id="Shape" stroke="#FFFFFF"></path>
            <path d="M3837,216.005066 C3838.8,215.752872 3846,225 3846,225" id="Shape" stroke="#FFFFFF"></path>
            <path d="M3845,232 L3835,222" id="Shape" stroke="#FFFFFF"></path>
            <path d="M3832,227 C3832.87379,227.626016 3841,238 3841,238" id="Shape" stroke="#FFFFFF"></path>
            <path d="M3830,232 L3839,244" id="Shape" stroke="#FFFFFF"></path>
            <path d="M3824,238 C3825.7094,238.598291 3834,248 3834,248" id="Shape" stroke="#FFFFFF"></path>
            <path d="M3821,242 C3821.26549,242.265487 3831,252 3831,252" id="Shape" stroke="#FFFFFF"></path>
            <path d="M3819,245 L3826,255" id="Shape" stroke="#FFFFFF"></path>
            <path d="M3815,247 L3821,258" id="Shape" stroke="#FFFFFF"></path>
            <path d="M3812,249 C3812,249 3813.84,258.333333 3816,260" id="Shape" stroke="#FFFFFF"></path>
            <path d="M3804,249 C3804.80645,250.457143 3809,261 3809,261" id="Shape" stroke="#FFFFFF"></path>
            <path d="M3801,250 C3801.17647,250.854701 3802,260 3802,260" id="Shape" stroke="#FFFFFF"></path>
            <polyline id="Shape" stroke="#FFFFFF" points="3794 247 3792 248.213333 3793.3 260"></polyline>
            <path d="M3786,248 L3788,260" id="Shape" stroke="#FFFFFF"></path>
            <path d="M3780,249 C3780.51852,250.692308 3782,260 3782,260" id="Shape" stroke="#FFFFFF"></path>
            <path d="M3774,249 C3774.25532,249.895522 3775.44681,255 3775.44681,255 L3777.74468,256.522388 L3778,261" id="Shape" stroke="#FFFFFF"></path>
            <path d="M3769.95699,248 C3770.24408,248.839161 3769,260 3769,260" id="Shape" stroke="#FFFFFF"></path>
            <path d="M3766,248 L3764,260" id="Shape" stroke="#FFFFFF"></path>
            <path d="M3760.02074,247 C3759.76257,248.14966 3762,260 3762,260" id="Shape" stroke="#FFFFFF"></path>
            <path d="M3755,247 C3755,247.833333 3755.5,258 3755.5,258" id="Shape" stroke="#FFFFFF"></path>
            <path d="M3751,245 L3751.9,257" id="Shape" stroke="#FFFFFF"></path>
            <path d="M3746.05184,244 C3745.75184,245.098592 3746.85184,256 3746.85184,256" id="Shape" stroke="#FFFFFF"></path>
            <path d="M3736,240 L3738,253" id="Shape" stroke="#FFFFFF"></path>
            <path d="M3742,242 L3744,256" id="Shape" stroke="#FFFFFF"></path>
            <path d="M3733,239 C3733.3,240.444444 3733.7,252 3733.7,252" id="Shape" stroke="#FFFFFF"></path>
            <path d="M3728,239 C3728,239 3727,250.858108 3727,252" id="Shape" stroke="#FFFFFF"></path>
            <path d="M3725,238 C3725,238 3721.20312,247.654135 3722.15234,250" id="Shape" stroke="#FFFFFF"></path>
            <path d="M3721,239 L3718,249" id="Shape" stroke="#FFFFFF"></path>
            <path d="M3715,240 L3712,249" id="Shape" stroke="#FFFFFF"></path>
            <path d="M3710,240 L3710,249" id="Shape" stroke="#FFFFFF"></path>
            <path d="M3703.7,241 L3703,250" id="Shape" stroke="#FFFFFF"></path>
            <path d="M3702,240 C3701.75,240.873786 3698,249 3698,249" id="Shape" stroke="#FFFFFF"></path>
            <path d="M3696.3,239 C3696.3,239.854701 3696,249 3696,249" id="Shape" stroke="#FFFFFF"></path>
            <path d="M3691,238 L3692,249" id="Shape" stroke="#FFFFFF"></path>
            <path d="M3686,238 C3686,239.172932 3686,250 3686,250" id="Shape" stroke="#FFFFFF"></path>
            <path d="M3679,237 C3679,238.751825 3678,249 3678,249" id="Shape" stroke="#FFFFFF"></path>
            <path d="M3672,236 L3672,246" id="Shape" stroke="#FFFFFF"></path>
            <path d="M3667.3,233 L3667,243" id="Shape" stroke="#FFFFFF"></path>
            <path d="M3659,228 L3652,221" id="Shape" stroke="#FFFFFF"></path>
            <path d="M3417,249.181818 C3417,249.181818 3411.68672,247.181818 3410.80117,248.090909 C3409.91562,249 3407.25898,249.909091 3406.19632,249.909091 C3405.13367,249.909091 3394.68421,250.363636 3393.79866,250.090909 C3392.91312,249.818182 3389.19382,249.181818 3388.30827,249.181818 C3387.42272,249.181818 3379.27569,250.090909 3379.27569,250.090909 C3379.27569,250.090909 3374.40518,251.454545 3373.25397,250.818182 C3372.10276,250.181818 3367.23225,249.454545 3364.57561,250.363636 C3361.91896,251.272727 3359.43943,249.454545 3359.08521,248.727273 C3358.73099,248 3361.74185,244 3361.74185,244 L3358.64244,248.090909 C3358.64244,248.090909 3354.03759,249.909091 3352.44361,249.454545 C3350.84962,249 3344.91646,248.727273 3344.29657,248.727273 C3343.67669,248.727273 3340.75439,251 3339.86884,250.090909 C3338.98329,249.181818 3332.34169,249.181818 3331.19048,249.909091 C3330.03926,250.636364 3328.35673,251 3328.35673,251 C3328.35673,251 3319.50125,247.181818 3318.61571,247.181818 C3317.73016,247.181818 3321.44946,249.909091 3321.44946,249.909091 C3321.44946,249.909091 3318.08438,249.727273 3317.02172,249.181818 C3315.95906,248.636364 3311,247.363636 3311,247.363636" id="Shape" stroke="#FFFFFF"></path>
            <path d="M3297,248.558511 C3297,248.558511 3273.0543,250.229492 3270.8371,250.647237 C3268.61991,251.064983 3232.70136,250.814335 3231.6371,250.814335 C3230.57285,250.814335 3213.19005,251.232081 3212.56923,250.814335 C3211.94842,250.39659 3217.8905,250.39659 3217.8905,249.5611 C3217.8905,248.725609 3209.73122,246.636883 3205.91765,247.054628 C3202.10407,247.472373 3199,248.057217 3199,248.725609 C3199,249.394001 3202.72489,250.39659 3206.2724,250.563688" id="Shape" stroke="#FFFFFF"></path>
            <path d="M3198,252 C3198,252 3190.5,252.2 3189,252.2" id="Shape" stroke="#FFFFFF"></path>
            <path d="M3205,250.579326 C3204.29261,250.405089 3182.89412,249.272546 3181.56777,249.708139 C3180.24142,250.143733 3174.49389,251.01492 3172.72542,250.579326 C3170.95695,250.143733 3162.99884,247.965765 3160.34613,248.401359 C3157.69343,248.836952 3154.5986,248.227122 3153.4491,247.530172 C3152.29959,246.833222 3143.72251,243 3142.83828,243 C3141.95404,243 3147.70157,246.31051 3147.70157,247.181697 C3147.70157,248.052884 3142.39616,247.878647 3142.39616,247.878647 C3142.39616,247.878647 3132.49273,245.090849 3128.95579,245.439323 C3125.41885,245.787798 3140.62769,248.924071 3140.62769,248.924071 C3140.62769,248.924071 3135.32228,250.840682 3132.66958,250.666445 C3130.01687,250.492208 3116.75334,252.234581 3112.77429,251.973225 C3108.79523,251.711869 3097.30017,251.798988 3093.76323,251.798988 C3090.22629,251.798988 3075.01745,250.492208 3073.60268,250.753564 C3072.1879,251.01492 3068.47411,252.3217 3066.70564,251.798988 C3064.93717,251.276276 3055.91798,250.056614 3053,250.753564" id="Shape" stroke="#FFFFFF"></path>
            <path d="M3468,249.070781 C3468,249.070781 3461.65439,248.787656 3460.11331,249.353907 C3458.57224,250.014533 3452.86119,251.24141 3451.68272,250.958284 C3450.50425,250.675159 3439.89802,250.297658 3436,250.014533" id="Shape" stroke="#FFFFFF"></path>
            <path d="M3480,251.756144 C3476.96552,251.756144 3473.83908,250.756144 3472,251.056144" id="Shape" stroke="#FFFFFF"></path>
            <path d="M2981,251.181818 C2981,251.181818 2975.68672,249.181818 2974.80117,250.090909 C2973.91562,251 2971.25898,251.909091 2970.19632,251.909091 C2969.13367,251.909091 2958.68421,252.363636 2957.79866,252.090909 C2956.91312,251.818182 2953.19382,251.181818 2952.30827,251.181818 C2951.42272,251.181818 2943.27569,252.090909 2943.27569,252.090909 C2943.27569,252.090909 2938.40518,253.454545 2937.25397,252.818182 C2936.10276,252.181818 2931.23225,251.454545 2928.57561,252.363636 C2925.91896,253.272727 2923.43943,251.454545 2923.08521,250.727273 C2922.73099,250 2925.74185,246 2925.74185,246 L2922.64244,250.090909 C2922.64244,250.090909 2918.03759,251.909091 2916.44361,251.454545 C2914.84962,251 2908.91646,250.727273 2908.29657,250.727273 C2907.67669,250.727273 2904.75439,253 2903.86884,252.090909 C2902.98329,251.181818 2896.34169,251.181818 2895.19048,251.909091 C2894.03926,252.636364 2892.35673,253 2892.35673,253 C2892.35673,253 2883.50125,249.181818 2882.61571,249.181818 C2881.73016,249.181818 2885.44946,251.909091 2885.44946,251.909091 C2885.44946,251.909091 2882.08438,251.727273 2881.02172,251.181818 C2879.95906,250.636364 2875,249.363636 2875,249.363636" id="Shape" stroke="#FFFFFF"></path>
            <path d="M2862,249.558511 C2862,249.558511 2838.0543,251.229492 2835.8371,251.647237 C2833.61991,252.064983 2797.70136,251.814335 2796.6371,251.814335 C2795.57285,251.814335 2778.19005,252.232081 2777.56923,251.814335 C2776.94842,251.39659 2782.8905,251.39659 2782.8905,250.5611 C2782.8905,249.725609 2774.73122,247.636883 2770.91765,248.054628 C2767.10407,248.472373 2764,249.057217 2764,249.725609 C2764,250.394001 2767.72489,251.39659 2771.2724,251.563688" id="Shape" stroke="#FFFFFF"></path>
            <path d="M2763,254 C2763,254 2755.5,254.2 2754,254.2" id="Shape" stroke="#FFFFFF"></path>
            <path d="M2770,251.579326 C2769.29261,251.405089 2747.89412,250.272546 2746.56777,250.708139 C2745.24142,251.143733 2739.49389,252.01492 2737.72542,251.579326 C2735.95695,251.143733 2727.99884,248.965765 2725.34613,249.401359 C2722.69343,249.836952 2719.5986,249.227122 2718.4491,248.530172 C2717.29959,247.833222 2708.72251,244 2707.83828,244 C2706.95404,244 2712.70157,247.31051 2712.70157,248.181697 C2712.70157,249.052884 2707.39616,248.878647 2707.39616,248.878647 C2707.39616,248.878647 2697.49273,246.090849 2693.95579,246.439323 C2690.41885,246.787798 2705.62769,249.924071 2705.62769,249.924071 C2705.62769,249.924071 2700.32228,251.840682 2697.66958,251.666445 C2695.01687,251.492208 2681.75334,253.234581 2677.77429,252.973225 C2673.79523,252.711869 2662.30017,252.798988 2658.76323,252.798988 C2655.22629,252.798988 2640.01745,251.492208 2638.60268,251.753564 C2637.1879,252.01492 2633.47411,253.3217 2631.70564,252.798988 C2629.93717,252.276276 2620.91798,251.056614 2618,251.753564" id="Shape" stroke="#FFFFFF"></path>
            <path d="M3033,250.070781 C3033,250.070781 3026.65439,249.787656 3025.11331,250.353907 C3023.57224,251.014533 3017.86119,252.24141 3016.68272,251.958284 C3015.50425,251.675159 3004.89802,251.297658 3001,251.014533" id="Shape" stroke="#FFFFFF"></path>
            <path d="M3045,252.756144 C3041.96552,252.756144 3038.83908,251.756144 3037,252.056144" id="Shape" stroke="#FFFFFF"></path>
            <path d="M2544,251.181818 C2544,251.181818 2538.68672,249.181818 2537.80117,250.090909 C2536.91562,251 2534.25898,251.909091 2533.19632,251.909091 C2532.13367,251.909091 2521.68421,252.363636 2520.79866,252.090909 C2519.91312,251.818182 2516.19382,251.181818 2515.30827,251.181818 C2514.42272,251.181818 2506.27569,252.090909 2506.27569,252.090909 C2506.27569,252.090909 2501.40518,253.454545 2500.25397,252.818182 C2499.10276,252.181818 2494.23225,251.454545 2491.57561,252.363636 C2488.91896,253.272727 2486.43943,251.454545 2486.08521,250.727273 C2485.73099,250 2488.74185,246 2488.74185,246 L2485.64244,250.090909 C2485.64244,250.090909 2481.03759,251.909091 2479.44361,251.454545 C2477.84962,251 2471.91646,250.727273 2471.29657,250.727273 C2470.67669,250.727273 2467.75439,253 2466.86884,252.090909 C2465.98329,251.181818 2459.34169,251.181818 2458.19048,251.909091 C2457.03926,252.636364 2455.35673,253 2455.35673,253 C2455.35673,253 2446.50125,249.181818 2445.61571,249.181818 C2444.73016,249.181818 2448.44946,251.909091 2448.44946,251.909091 C2448.44946,251.909091 2445.08438,251.727273 2444.02172,251.181818 C2442.95906,250.636364 2438,249.363636 2438,249.363636" id="Shape" stroke="#FFFFFF"></path>
            <path d="M2425,249.558511 C2425,249.558511 2401.0543,251.229492 2398.8371,251.647237 C2396.61991,252.064983 2360.70136,251.814335 2359.6371,251.814335 C2358.57285,251.814335 2341.19005,252.232081 2340.56923,251.814335 C2339.94842,251.39659 2345.8905,251.39659 2345.8905,250.5611 C2345.8905,249.725609 2337.73122,247.636883 2333.91765,248.054628 C2330.10407,248.472373 2327,249.057217 2327,249.725609 C2327,250.394001 2330.72489,251.39659 2334.2724,251.563688" id="Shape" stroke="#FFFFFF"></path>
            <path d="M2325,254 C2325,254 2317.5,254.2 2316,254.2" id="Shape" stroke="#FFFFFF"></path>
            <path d="M2332,251.579326 C2331.29261,251.405089 2309.89412,250.272546 2308.56777,250.708139 C2307.24142,251.143733 2301.49389,252.01492 2299.72542,251.579326 C2297.95695,251.143733 2289.99884,248.965765 2287.34613,249.401359 C2284.69343,249.836952 2281.5986,249.227122 2280.4491,248.530172 C2279.29959,247.833222 2270.72251,244 2269.83828,244 C2268.95404,244 2274.70157,247.31051 2274.70157,248.181697 C2274.70157,249.052884 2269.39616,248.878647 2269.39616,248.878647 C2269.39616,248.878647 2259.49273,246.090849 2255.95579,246.439323 C2252.41885,246.787798 2267.62769,249.924071 2267.62769,249.924071 C2267.62769,249.924071 2262.32228,251.840682 2259.66958,251.666445 C2257.01687,251.492208 2243.75334,253.234581 2239.77429,252.973225 C2235.79523,252.711869 2224.30017,252.798988 2220.76323,252.798988 C2217.22629,252.798988 2202.01745,251.492208 2200.60268,251.753564 C2199.1879,252.01492 2195.47411,253.3217 2193.70564,252.798988 C2191.93717,252.276276 2182.91798,251.056614 2180,251.753564" id="Shape" stroke="#FFFFFF"></path>
            <path d="M2596,250.070781 C2596,250.070781 2589.65439,249.787656 2588.11331,250.353907 C2586.57224,251.014533 2580.86119,252.24141 2579.68272,251.958284 C2578.50425,251.675159 2567.89802,251.297658 2564,251.014533" id="Shape" stroke="#FFFFFF"></path>
            <path d="M2608,252.756144 C2604.96552,252.756144 2601.83908,251.756144 2600,252.056144" id="Shape" stroke="#FFFFFF"></path>
            <path d="M2104,249.181818 C2104,249.181818 2098.68672,247.181818 2097.80117,248.090909 C2096.91562,249 2094.25898,249.909091 2093.19632,249.909091 C2092.13367,249.909091 2081.68421,250.363636 2080.79866,250.090909 C2079.91312,249.818182 2076.19382,249.181818 2075.30827,249.181818 C2074.42272,249.181818 2066.27569,250.090909 2066.27569,250.090909 C2066.27569,250.090909 2061.40518,251.454545 2060.25397,250.818182 C2059.10276,250.181818 2054.23225,249.454545 2051.57561,250.363636 C2048.91896,251.272727 2046.43943,249.454545 2046.08521,248.727273 C2045.73099,248 2048.74185,244 2048.74185,244 L2045.64244,248.090909 C2045.64244,248.090909 2041.03759,249.909091 2039.44361,249.454545 C2037.84962,249 2031.91646,248.727273 2031.29657,248.727273 C2030.67669,248.727273 2027.75439,251 2026.86884,250.090909 C2025.98329,249.181818 2019.34169,249.181818 2018.19048,249.909091 C2017.03926,250.636364 2015.35673,251 2015.35673,251 C2015.35673,251 2006.50125,247.181818 2005.61571,247.181818 C2004.73016,247.181818 2008.44946,249.909091 2008.44946,249.909091 C2008.44946,249.909091 2005.08438,249.727273 2004.02172,249.181818 C2002.95906,248.636364 1998,247.363636 1998,247.363636" id="Shape" stroke="#FFFFFF"></path>
            <path d="M1986,248.558511 C1986,248.558511 1962.0543,250.229492 1959.8371,250.647237 C1957.61991,251.064983 1921.70136,250.814335 1920.6371,250.814335 C1919.57285,250.814335 1902.19005,251.232081 1901.56923,250.814335 C1900.94842,250.39659 1906.8905,250.39659 1906.8905,249.5611 C1906.8905,248.725609 1898.73122,246.636883 1894.91765,247.054628 C1891.10407,247.472373 1888,248.057217 1888,248.725609 C1888,249.394001 1891.72489,250.39659 1895.2724,250.563688" id="Shape" stroke="#FFFFFF"></path>
            <path d="M1887,252 C1887,252 1879.5,252.2 1878,252.2" id="Shape" stroke="#FFFFFF"></path>
            <path d="M1893,250.579326 C1892.29261,250.405089 1870.89412,249.272546 1869.56777,249.708139 C1868.24142,250.143733 1862.49389,251.01492 1860.72542,250.579326 C1858.95695,250.143733 1850.99884,247.965765 1848.34613,248.401359 C1845.69343,248.836952 1842.5986,248.227122 1841.4491,247.530172 C1840.29959,246.833222 1831.72251,243 1830.83828,243 C1829.95404,243 1835.70157,246.31051 1835.70157,247.181697 C1835.70157,248.052884 1830.39616,247.878647 1830.39616,247.878647 C1830.39616,247.878647 1820.49273,245.090849 1816.95579,245.439323 C1813.41885,245.787798 1828.62769,248.924071 1828.62769,248.924071 C1828.62769,248.924071 1823.32228,250.840682 1820.66958,250.666445 C1818.01687,250.492208 1804.75334,252.234581 1800.77429,251.973225 C1796.79523,251.711869 1785.30017,251.798988 1781.76323,251.798988 C1778.22629,251.798988 1763.01745,250.492208 1761.60268,250.753564 C1760.1879,251.01492 1756.47411,252.3217 1754.70564,251.798988 C1752.93717,251.276276 1743.91798,250.056614 1741,250.753564" id="Shape" stroke="#FFFFFF"></path>
            <path d="M2157,249.070781 C2157,249.070781 2150.65439,248.787656 2149.11331,249.353907 C2147.57224,250.014533 2141.86119,251.24141 2140.68272,250.958284 C2139.50425,250.675159 2128.89802,250.297658 2125,250.014533" id="Shape" stroke="#FFFFFF"></path>
            <path d="M2169,251.756144 C2165.96552,251.756144 2162.83908,250.756144 2161,251.056144" id="Shape" stroke="#FFFFFF"></path>
            <path d="M1668,249.181818 C1668,249.181818 1662.68672,247.181818 1661.80117,248.090909 C1660.91562,249 1658.25898,249.909091 1657.19632,249.909091 C1656.13367,249.909091 1645.68421,250.363636 1644.79866,250.090909 C1643.91312,249.818182 1640.19382,249.181818 1639.30827,249.181818 C1638.42272,249.181818 1630.27569,250.090909 1630.27569,250.090909 C1630.27569,250.090909 1625.40518,251.454545 1624.25397,250.818182 C1623.10276,250.181818 1618.23225,249.454545 1615.57561,250.363636 C1612.91896,251.272727 1610.43943,249.454545 1610.08521,248.727273 C1609.73099,248 1612.74185,244 1612.74185,244 L1609.64244,248.090909 C1609.64244,248.090909 1605.03759,249.909091 1603.44361,249.454545 C1601.84962,249 1595.91646,248.727273 1595.29657,248.727273 C1594.67669,248.727273 1591.75439,251 1590.86884,250.090909 C1589.98329,249.181818 1583.34169,249.181818 1582.19048,249.909091 C1581.03926,250.636364 1579.35673,251 1579.35673,251 C1579.35673,251 1570.50125,247.181818 1569.61571,247.181818 C1568.73016,247.181818 1572.44946,249.909091 1572.44946,249.909091 C1572.44946,249.909091 1569.08438,249.727273 1568.02172,249.181818 C1566.95906,248.636364 1562,247.363636 1562,247.363636" id="Shape" stroke="#FFFFFF"></path>
            <path d="M1549,248.558511 C1549,248.558511 1525.0543,250.229492 1522.8371,250.647237 C1520.61991,251.064983 1484.70136,250.814335 1483.6371,250.814335 C1482.57285,250.814335 1465.19005,251.232081 1464.56923,250.814335 C1463.94842,250.39659 1469.8905,250.39659 1469.8905,249.5611 C1469.8905,248.725609 1461.73122,246.636883 1457.91765,247.054628 C1454.10407,247.472373 1451,248.057217 1451,248.725609 C1451,249.394001 1454.72489,250.39659 1458.2724,250.563688" id="Shape" stroke="#FFFFFF"></path>
            <path d="M1450,252 C1450,252 1442.5,252.2 1441,252.2" id="Shape" stroke="#FFFFFF"></path>
            <path d="M1457,250.579326 C1456.29261,250.405089 1434.89412,249.272546 1433.56777,249.708139 C1432.24142,250.143733 1426.49389,251.01492 1424.72542,250.579326 C1422.95695,250.143733 1414.99884,247.965765 1412.34613,248.401359 C1409.69343,248.836952 1406.5986,248.227122 1405.4491,247.530172 C1404.29959,246.833222 1395.72251,243 1394.83828,243 C1393.95404,243 1399.70157,246.31051 1399.70157,247.181697 C1399.70157,248.052884 1394.39616,247.878647 1394.39616,247.878647 C1394.39616,247.878647 1384.49273,245.090849 1380.95579,245.439323 C1377.41885,245.787798 1392.62769,248.924071 1392.62769,248.924071 C1392.62769,248.924071 1387.32228,250.840682 1384.66958,250.666445 C1382.01687,250.492208 1368.75334,252.234581 1364.77429,251.973225 C1360.79523,251.711869 1349.30017,251.798988 1345.76323,251.798988 C1342.22629,251.798988 1327.01745,250.492208 1325.60268,250.753564 C1324.1879,251.01492 1320.47411,252.3217 1318.70564,251.798988 C1316.93717,251.276276 1307.91798,250.056614 1305,250.753564" id="Shape" stroke="#FFFFFF"></path>
            <path d="M1720,249.070781 C1720,249.070781 1713.65439,248.787656 1712.11331,249.353907 C1710.57224,250.014533 1704.86119,251.24141 1703.68272,250.958284 C1702.50425,250.675159 1691.89802,250.297658 1688,250.014533" id="Shape" stroke="#FFFFFF"></path>
            <path d="M1732,251.756144 C1728.96552,251.756144 1725.83908,250.756144 1724,251.056144" id="Shape" stroke="#FFFFFF"></path>
            <path d="M1234,249.181818 C1234,249.181818 1228.68672,247.181818 1227.80117,248.090909 C1226.91562,249 1224.25898,249.909091 1223.19632,249.909091 C1222.13367,249.909091 1211.68421,250.363636 1210.79866,250.090909 C1209.91312,249.818182 1206.19382,249.181818 1205.30827,249.181818 C1204.42272,249.181818 1196.27569,250.090909 1196.27569,250.090909 C1196.27569,250.090909 1191.40518,251.454545 1190.25397,250.818182 C1189.10276,250.181818 1184.23225,249.454545 1181.57561,250.363636 C1178.91896,251.272727 1176.43943,249.454545 1176.08521,248.727273 C1175.73099,248 1178.74185,244 1178.74185,244 L1175.64244,248.090909 C1175.64244,248.090909 1171.03759,249.909091 1169.44361,249.454545 C1167.84962,249 1161.91646,248.727273 1161.29657,248.727273 C1160.67669,248.727273 1157.75439,251 1156.86884,250.090909 C1155.98329,249.181818 1149.34169,249.181818 1148.19048,249.909091 C1147.03926,250.636364 1145.35673,251 1145.35673,251 C1145.35673,251 1136.50125,247.181818 1135.61571,247.181818 C1134.73016,247.181818 1138.44946,249.909091 1138.44946,249.909091 C1138.44946,249.909091 1135.08438,249.727273 1134.02172,249.181818 C1132.95906,248.636364 1128,247.363636 1128,247.363636" id="Shape" stroke="#FFFFFF"></path>
            <path d="M1115,247.558511 C1115,247.558511 1091.0543,249.229492 1088.8371,249.647237 C1086.61991,250.064983 1050.70136,249.814335 1049.6371,249.814335 C1048.57285,249.814335 1031.19005,250.232081 1030.56923,249.814335 C1029.94842,249.39659 1035.8905,249.39659 1035.8905,248.5611 C1035.8905,247.725609 1027.73122,245.636883 1023.91765,246.054628 C1020.10407,246.472373 1017,247.057217 1017,247.725609 C1017,248.394001 1020.72489,249.39659 1024.2724,249.563688" id="Shape" stroke="#FFFFFF"></path>
            <path d="M1015,252 C1015,252 1007.5,252.2 1006,252.2" id="Shape" stroke="#FFFFFF"></path>
            <path d="M1021,250.579326 C1020.29261,250.405089 998.894124,249.272546 997.567772,249.708139 C996.241419,250.143733 990.493892,251.01492 988.725422,250.579326 C986.956952,250.143733 978.998837,247.965765 976.346131,248.401359 C973.693426,248.836952 970.598604,248.227122 969.449098,247.530172 C968.299593,246.833222 959.722513,243 958.838278,243 C957.954043,243 963.701571,246.31051 963.701571,247.181697 C963.701571,248.052884 958.396161,247.878647 958.396161,247.878647 C958.396161,247.878647 948.492728,245.090849 944.955788,245.439323 C941.418848,245.787798 956.627691,248.924071 956.627691,248.924071 C956.627691,248.924071 951.32228,250.840682 948.669575,250.666445 C946.01687,250.492208 932.753345,252.234581 928.774287,251.973225 C924.79523,251.711869 913.300175,251.798988 909.763234,251.798988 C906.226294,251.798988 891.017452,250.492208 889.602676,250.753564 C888.1879,251.01492 884.474113,252.3217 882.705643,251.798988 C880.937173,251.276276 871.917976,250.056614 869,250.753564" id="Shape" stroke="#FFFFFF"></path>
            <path d="M1286,249.070781 C1286,249.070781 1279.65439,248.787656 1278.11331,249.353907 C1276.57224,250.014533 1270.86119,251.24141 1269.68272,250.958284 C1268.50425,250.675159 1257.89802,250.297658 1254,250.014533" id="Shape" stroke="#FFFFFF"></path>
            <path d="M1297,251.756144 C1293.96552,251.756144 1290.83908,250.756144 1289,251.056144" id="Shape" stroke="#FFFFFF"></path>
            <path d="M792,248.181818 C792,248.181818 786.691152,246.181818 785.806344,247.090909 C784.921536,248 782.267112,248.909091 781.205342,248.909091 C780.143573,248.909091 769.702838,249.363636 768.81803,249.090909 C767.933222,248.818182 764.217028,248.181818 763.33222,248.181818 C762.447412,248.181818 754.307179,249.090909 754.307179,249.090909 C754.307179,249.090909 749.440735,250.454545 748.290484,249.818182 C747.140234,249.181818 742.27379,248.454545 739.619366,249.363636 C736.964942,250.272727 734.487479,248.454545 734.133556,247.727273 C733.779633,247 736.78798,243 736.78798,243 L733.691152,247.090909 C733.691152,247.090909 729.09015,248.909091 727.497496,248.454545 C725.904841,248 719.976628,247.727273 719.357262,247.727273 C718.737896,247.727273 715.81803,250 714.933222,249.090909 C714.048414,248.181818 707.412354,248.181818 706.262104,248.909091 C705.111853,249.636364 703.342237,250 703.342237,250 C703.342237,250 694.494157,246.181818 693.609349,246.181818 C692.724541,246.181818 696.440735,248.909091 696.440735,248.909091 C696.440735,248.909091 693.078464,248.727273 692.016694,248.181818 C690.954925,247.636364 686,246.363636 686,246.363636" id="Shape" stroke="#FFFFFF"></path>
            <path d="M674,246.558511 C674,246.558511 650.054299,248.229492 647.837104,248.647237 C645.61991,249.064983 609.701357,248.814335 608.637104,248.814335 C607.572851,248.814335 590.190045,249.232081 589.569231,248.814335 C588.948416,248.39659 594.890498,248.39659 594.890498,247.5611 C594.890498,246.725609 586.731222,244.636883 582.917647,245.054628 C579.104072,245.472373 576,246.057217 576,246.725609 C576,247.394001 579.724887,248.39659 583.272398,248.563688" id="Shape" stroke="#FFFFFF"></path>
            <path d="M575,251 C575,251 567.5,251.2 566,251.2" id="Shape" stroke="#FFFFFF"></path>
            <path d="M582,249.579326 C581.292612,249.405089 559.894124,248.272546 558.567772,248.708139 C557.241419,249.143733 551.493892,250.01492 549.725422,249.579326 C547.956952,249.143733 539.998837,246.965765 537.346131,247.401359 C534.693426,247.836952 531.598604,247.227122 530.449098,246.530172 C529.299593,245.833222 520.722513,242 519.838278,242 C518.954043,242 524.701571,245.31051 524.701571,246.181697 C524.701571,247.052884 519.396161,246.878647 519.396161,246.878647 C519.396161,246.878647 509.492728,244.090849 505.955788,244.439323 C502.418848,244.787798 517.627691,247.924071 517.627691,247.924071 C517.627691,247.924071 512.32228,249.840682 509.669575,249.666445 C507.01687,249.492208 493.753345,251.234581 489.774287,250.973225 C485.79523,250.711869 474.300175,250.798988 470.763234,250.798988 C467.226294,250.798988 452.017452,249.492208 450.602676,249.753564 C449.1879,250.01492 445.474113,251.3217 443.705643,250.798988 C441.937173,250.276276 432.917976,249.056614 430,249.753564" id="Shape" stroke="#FFFFFF"></path>
            <path d="M845,248.070781 C845,248.070781 838.654391,247.787656 837.113314,248.353907 C835.572238,249.014533 829.86119,250.24141 828.68272,249.958284 C827.504249,249.675159 816.898017,249.297658 813,249.014533" id="Shape" stroke="#FFFFFF"></path>
            <path d="M857,250.756144 C853.965517,250.756144 850.83908,249.756144 849,250.056144" id="Shape" stroke="#FFFFFF"></path>
            <path d="M421,249.181818 C421,249.181818 415.686717,247.181818 414.80117,248.090909 C413.915622,249 411.258981,249.909091 410.196324,249.909091 C409.133668,249.909091 398.684211,250.363636 397.798663,250.090909 C396.913116,249.818182 393.193818,249.181818 392.308271,249.181818 C391.422723,249.181818 383.275689,250.090909 383.275689,250.090909 C383.275689,250.090909 378.40518,251.454545 377.253968,250.818182 C376.102757,250.181818 371.232247,249.454545 368.575606,250.363636 C365.918964,251.272727 363.439432,249.454545 363.085213,248.727273 C362.730994,248 365.741855,244 365.741855,244 L362.642439,248.090909 C362.642439,248.090909 358.037594,249.909091 356.443609,249.454545 C354.849624,249 348.916458,248.727273 348.296575,248.727273 C347.676692,248.727273 344.754386,251 343.868839,250.090909 C342.983292,249.181818 336.341688,249.181818 335.190476,249.909091 C334.039265,250.636364 332.356725,251 332.356725,251 C332.356725,251 323.501253,247.181818 322.615706,247.181818 C321.730159,247.181818 325.449457,249.909091 325.449457,249.909091 C325.449457,249.909091 322.084378,249.727273 321.021721,249.181818 C319.959064,248.636364 315,247.363636 315,247.363636" id="Shape" stroke="#FFFFFF"></path>
            <path d="M302,247.558511 C302,247.558511 278.054299,249.229492 275.837104,249.647237 C273.61991,250.064983 237.701357,249.814335 236.637104,249.814335 C235.572851,249.814335 218.190045,250.232081 217.569231,249.814335 C216.948416,249.39659 222.890498,249.39659 222.890498,248.5611 C222.890498,247.725609 214.731222,245.636883 210.917647,246.054628 C207.104072,246.472373 204,247.057217 204,247.725609 C204,248.394001 207.724887,249.39659 211.272398,249.563688" id="Shape" stroke="#FFFFFF"></path>
            <path d="M208,250.579326 C207.292612,250.405089 185.894124,249.272546 184.567772,249.708139 C183.241419,250.143733 177.493892,251.01492 175.725422,250.579326 C173.956952,250.143733 165.998837,247.965765 163.346131,248.401359 C160.693426,248.836952 157.598604,248.227122 156.449098,247.530172 C155.299593,246.833222 146.722513,243 145.838278,243 C144.954043,243 150.701571,246.31051 150.701571,247.181697 C150.701571,248.052884 145.396161,247.878647 145.396161,247.878647 C145.396161,247.878647 135.492728,245.090849 131.955788,245.439323 C128.418848,245.787798 143.627691,248.924071 143.627691,248.924071 C143.627691,248.924071 138.32228,250.840682 135.669575,250.666445 C133.01687,250.492208 119.753345,252.234581 115.774287,251.973225 C111.79523,251.711869 100.300175,251.798988 96.7632344,251.798988 C93.2262944,251.798988 78.017452,250.492208 76.602676,250.753564 C75.1878999,251.01492 71.4741129,252.3217 69.7056428,251.798988 C67.9371728,251.276276 58.9179756,250.056614 56,250.753564" id="Shape" stroke="#FFFFFF"></path>
            <path d="M32,248.070781 C32,248.070781 25.6543909,247.787656 24.1133144,248.353907 C22.572238,249.014533 16.8611898,250.24141 15.6827195,249.958284 C14.5042493,249.675159 3.898017,249.297658 0,249.014533" id="Shape" stroke="#FFFFFF"></path>
            <path d="M44,250.756144 C40.9655172,250.756144 37.8390805,249.756144 36,250.056144" id="Shape" stroke="#FFFFFF"></path>
            <path d="M3645,250.629243 C3645,250.629243 3634.5,248.083551 3632.75,249.356397 C3631,250.629243 3624,252 3624,252" id="Shape" stroke="#FFFFFF"></path>
            <path d="M3543,251 C3543,251 3550.53543,252.3 3554,251.7" id="Shape" stroke="#FFFFFF"></path>
        </g>
    </g>
</svg>