<?xml version="1.0" encoding="UTF-8"?>
<svg width="4000px" height="320px" viewBox="0 0 4000 320" version="1.1" xmlns="http://www.w3.org/2000/svg" xmlns:xlink="http://www.w3.org/1999/xlink">
    <!-- Generator: Sketch 54.1 (76490) - https://sketchapp.com -->
    <title>Sosiologi og Sosialantropologi</title>
    <desc>Created with Sketch.</desc>
    <g id="Sosiologi-og-Sosialantropologi" stroke="none" stroke-width="1" fill="none" fill-rule="evenodd">
        <path d="M3959.2,222.772832 C3953.2,228.172832 3955.2,235.172832 3951.7,229.772832 C3948.2,224.372832 3952.5,217.472832 3945.6,216.272832 C3938.6,215.072832 3934.2,218.872832 3931,215.772832 C3927.8,212.672832 3921.7,205.472832 3921.2,213.672832 C3920.6,221.872832 3925.4,223.472832 3917.5,228.272832 C3909.6,233.072832 3913.8,233.372832 3911.6,240.072832 C3909.5,246.772832 3899.3,242.372832 3906,250.872832 C3912.7,259.372832 3908.7,268.572832 3922.9,266.872832 C3937.1,265.172832 3936.5,263.872832 3939.4,271.172832 C3942.3,278.372832 3935.4,280.372832 3938.6,289.872832 C3941.9,299.372832 3946,299.572832 3946,299.572832" id="Path" stroke="#FFFFFF"></path>
        <path d="M3864,316.072832 C3864.6,314.172832 3863.4,314.772832 3869,310.372832 C3874.6,305.872832 3879.7,300.172832 3869.5,298.972832 C3859.3,297.772832 3847.1,303.272832 3847.6,295.072832 C3848.2,286.872832 3859.2,285.172832 3846.8,281.172832 C3834.4,277.172832 3831.3,283.572832 3829.1,277.572832 C3826.8,271.572832 3834.1,271.872832 3823.9,267.472832 C3813.7,263.172832 3793.7,250.372832 3791.7,243.472832 C3789.7,236.572832 3798.8,227.872832 3790.6,230.472832 C3782.4,233.072832 3771.1,238.872832 3773.8,227.172832 C3776.5,215.472832 3776.7,204.972832 3791.7,214.072832 C3806.7,223.172832 3808.7,233.172832 3810.1,218.972832 C3811.5,204.772832 3823.9,202.372832 3831.3,192.172832 C3838.7,181.972832 3828.9,176.672832 3842.9,179.072832 C3844.7,179.372832 3845.7,177.972832 3847.3,178.372832" id="Path" stroke="#FFFFFF"></path>
        <path d="M3741.4,168.272832 C3741.4,168.272832 3752.9,175.072832 3747.6,184.972832 C3742.3,194.872832 3731.7,203.872832 3739,210.472832 C3746.3,217.072832 3758.4,219.972832 3758.5,229.472832 C3758.6,238.972832 3765.2,237.972832 3776,243.572832 C3786.8,249.172832 3802.1,257.272832 3797.1,266.172832 C3792.1,275.072832 3773.9,272.172832 3780,282.572832 C3786.1,292.972832 3789,314.572832 3789,314.572832" id="Path" stroke="#FFFFFF"></path>
        <path d="M3917.4,274.372832 C3913.5,275.172832 3914.9,281.972832 3914.4,287.072832 C3913.9,292.172832 3921.1,292.372832 3922.9,286.672832 C3924.7,280.972832 3925.3,272.672832 3917.4,274.372832 Z" id="Path" stroke="#FFFFFF"></path>
        <path d="M3816.3,122.272832 C3773,129.472832 3735.3,159.572832 3721,203.772832 C3715.3,221.472832 3715.1,239.472832 3716.4,256.872832 C3717.4,270.072832 3724.9,300.472832 3739.9,313.472832" id="Path" stroke="#FFFFFF"></path>
        <path d="M3935.6,314.572832 C3943.6,304.072832 3950,292.172832 3954.2,278.872832 C3966.7,240.172832 3958.2,199.572832 3935,169.172832" id="Path" stroke="#FFFFFF"></path>
        <rect id="Rectangle" transform="translate(3704.160940, 298.585212) rotate(-72.133968) translate(-3704.160940, -298.585212) " x="3671.66014" y="298.085199" width="65.0016081" height="1.00002474"></rect>
        <path d="M3714.6,267.872832 L3694.7,329.772832 L3915.5,400.972832 L3935.4,339.072832 L3917.7,333.372832 C3886.6,359.572832 3843.8,346.372832 3800.7,356.072832" id="Path"></path>
        <path d="M3957.7,135.572832 L3985.3,146.172832 C3985.3,146.172832 3981.7,159.072832 3979.9,160.572832 C3978.1,162.072832 3951,152.172832 3951,152.172832" id="Path" stroke="#FFFFFF"></path>
        <path d="M3979.9,160.572832 C3979.9,160.572832 3984.5,166.072832 3989.6,169.272832 C3994.7,172.472832 3993,172.472832 3993,172.472832" id="Path" stroke="#FFFFFF"></path>
        <path d="M3985.3,146.272832 C3985.3,146.272832 3992,146.872832 3994.3,147.472832 C3996.6,148.072832 3996,148.572832 3996,148.572832" id="Path" stroke="#FFFFFF"></path>
        <path d="M3869.9,59.4728317 C3868.9,59.6728317 3814,82.3728317 3826.7,131.872832 C3839.4,181.372832 3887.9,183.172832 3904.2,178.272832 C3920.6,173.372832 3958.1,151.472832 3947.2,104.772832 C3936.3,58.1728317 3892.7,54.1728317 3869.9,59.4728317 Z" id="Path" stroke="#FFFFFF"></path>
        <path d="M3874.1,49.6728317 C3862.7,52.3728317 3801.4,75.3728317 3818.3,133.772832 C3835.2,192.172832 3881.2,192.372832 3904.8,185.772832 C3928.4,179.172832 3969.4,153.172832 3956.8,99.2728317 C3944.2,45.3728317 3881.4,47.9728317 3874.1,49.6728317 Z" id="Path" stroke="#FFFFFF"></path>
        <path d="M3836.5,123.172832 C3836.5,123.172832 3838.2,121.072832 3839.9,118.972832 C3841.6,116.872832 3845.5,114.772832 3845.6,113.072832 C3845.7,111.372832 3847.7,110.372832 3847.3,108.772832 C3846.9,107.172832 3848.8,106.172832 3846.8,104.472832 C3844.8,102.772832 3843.6,102.572832 3843.9,99.6728317 C3844.3,96.7728317 3845.6,95.3728317 3846.7,95.6728317 C3847.8,95.9728317 3849.6,96.0728317 3849.6,96.0728317" id="Path" stroke="#FFFFFF"></path>
        <path d="M3847.7,96.0728317 C3847.6,95.5728317 3850.7,99.1728317 3850.4,100.372832 C3850.1,101.572832 3849.1,103.972832 3849.1,103.972832 C3849.1,103.972832 3853.5,108.372832 3855,109.672832 C3856.4,110.972832 3861.9,112.872832 3863.1,113.172832 C3864.3,113.472832 3865,114.372832 3865.6,114.172832" id="Path" stroke="#FFFFFF"></path>
        <path d="M3845.8,111.572832 C3845.8,111.572832 3849.1,114.472832 3849,116.172832 C3848.9,117.872832 3850.7,122.872832 3850.6,124.572832 C3850.5,126.272832 3849.3,130.372832 3849.3,132.572832 C3849.3,134.772832 3850.2,138.372832 3850.4,141.172832 C3850.5,143.872832 3849.6,144.672832 3848.3,146.072832 C3847,147.472832 3848.8,148.172832 3849.2,147.472832 C3849.6,146.872832 3849.8,145.672832 3850.1,144.472832" id="Path" stroke="#FFFFFF"></path>
        <path d="M3851.4,106.172832 C3851.4,106.172832 3854.3,110.972832 3854.4,113.672832 C3854.5,116.372832 3856,119.872832 3857.2,122.372832 C3858.4,124.872832 3857.2,126.772832 3858.8,128.572832 C3860.4,130.372832 3863,136.372832 3864.4,137.672832 C3865.8,138.972832 3868.6,138.772832 3869.7,139.072832 C3870.9,139.372832 3872.8,140.472832 3870.6,140.472832 C3868.4,140.472832 3867.1,141.872832 3866.2,140.472832" id="Path" stroke="#FFFFFF"></path>
        <path d="M3857.6,126.072832 C3857.5,125.572832 3857.1,126.172832 3855.5,124.372832 C3853.9,122.572832 3853,121.172832 3852.3,122.472832 C3851.5,123.772832 3850.1,126.872832 3850.1,126.872832" id="Path" stroke="#FFFFFF"></path>
        <path d="M3870.2,113.472832 C3870.2,113.472832 3872.3,111.772832 3874.5,110.172832 C3876.7,108.572832 3881,107.372832 3881.5,105.672832 C3882,104.072832 3884.2,103.472832 3884.1,101.872832 C3884.1,100.272832 3886.2,99.6728317 3884.6,97.5728317 C3882.9,95.4728317 3881.8,94.9728317 3882.9,92.1728317 C3884,89.3728317 3885.5,88.3728317 3886.6,88.8728317 C3887.7,89.3728317 3889.3,89.8728317 3889.3,89.8728317" id="Path" stroke="#FFFFFF"></path>
        <path d="M3887.7,89.2728317 C3887.7,88.7728317 3890,92.9728317 3889.4,94.0728317 C3888.9,95.1728317 3887.3,97.3728317 3887.3,97.3728317 C3887.3,97.3728317 3890.7,102.672832 3891.8,104.272832 C3892.9,105.872832 3897.9,108.972832 3899,109.572832 C3900.1,110.072832 3900.7,111.172832 3901.2,111.172832" id="Path" stroke="#FFFFFF"></path>
        <path d="M3882.1,104.172832 C3882.1,104.172832 3884.8,107.772832 3884.3,109.372832 C3883.8,110.972832 3884.5,116.372832 3883.9,118.072832 C3883.4,119.672832 3881.3,123.572832 3880.8,125.672832 C3880.3,127.872832 3880.4,131.672832 3879.9,134.372832 C3879.4,137.072832 3878.3,137.672832 3876.7,138.772832 C3875.1,139.872832 3876.7,140.972832 3877.3,140.372832 C3877.9,139.772832 3878.4,138.772832 3878.9,137.672832" id="Path" stroke="#FFFFFF"></path>
        <path d="M3889,100.072832 C3889,100.072832 3890.7,105.472832 3890.3,108.172832 C3889.8,110.872832 3890.4,114.672832 3891,117.372832 C3891.6,120.072832 3890,121.772832 3891.1,123.872832 C3892.2,125.972832 3893.5,132.472832 3894.6,134.072832 C3895.7,135.672832 3898.5,136.172832 3899.6,136.672832 C3900.7,137.172832 3902.4,138.772832 3900.2,138.272832 C3898,137.772832 3896.4,138.872832 3895.8,137.272832" id="Path" stroke="#FFFFFF"></path>
        <path d="M3890.5,121.172832 C3890.5,120.672832 3890,121.172832 3888.8,119.072832 C3887.7,116.972832 3887.1,115.272832 3886,116.472832 C3884.9,117.572832 3882.8,120.372832 3882.8,120.372832" id="Path" stroke="#FFFFFF"></path>
        <path d="M3904,112.472832 C3904,112.472832 3906.4,111.172832 3908.7,109.772832 C3911.1,108.472832 3915.5,107.872832 3916.3,106.372832 C3917,104.872832 3919.3,104.572832 3919.5,102.972832 C3919.7,101.372832 3921.9,101.072832 3920.6,98.7728317 C3919.2,96.3728317 3918.2,95.7728317 3919.7,93.1728317 C3921.1,90.5728317 3922.9,89.7728317 3923.9,90.4728317 C3924.9,91.1728317 3926.5,91.8728317 3926.5,91.8728317" id="Path" stroke="#FFFFFF"></path>
        <path d="M3924.8,91.0728317 C3924.9,90.5728317 3926.5,95.0728317 3925.8,96.0728317 C3925.1,97.0728317 3923.2,99.0728317 3923.2,99.0728317 C3923.2,99.0728317 3925.8,104.872832 3926.6,106.572832 C3927.5,108.272832 3931.9,112.172832 3932.9,112.872832 C3933.9,113.572832 3934.3,114.672832 3934.9,114.772832" id="Path" stroke="#FFFFFF"></path>
        <path d="M3917.2,104.972832 C3917.2,104.972832 3919.3,108.872832 3918.6,110.472832 C3917.9,111.972832 3917.7,117.472832 3917,118.972832 C3916.3,120.472832 3913.6,123.972832 3912.8,126.072832 C3912,128.172832 3911.5,131.872832 3910.6,134.572832 C3909.7,137.172832 3908.6,137.572832 3906.8,138.472832 C3905,139.372832 3906.5,140.572832 3907.1,140.172832 C3907.7,139.672832 3908.4,138.672832 3909.1,137.672832" id="Path" stroke="#FFFFFF"></path>
        <path d="M3924.5,101.972832 C3924.5,101.972832 3925.4,107.572832 3924.6,110.172832 C3923.7,112.772832 3923.8,116.572832 3924,119.372832 C3924.2,122.172832 3922.4,123.572832 3923.2,125.772832 C3924,128.072832 3924.3,134.672832 3925.2,136.372832 C3926.1,138.072832 3928.7,138.972832 3929.7,139.672832 C3930.7,140.372832 3932.1,142.172832 3930,141.372832 C3927.9,140.572832 3926.2,141.472832 3925.8,139.772832" id="Path" stroke="#FFFFFF"></path>
        <path d="M3923,122.972832 C3923.1,122.472832 3922.5,122.872832 3921.6,120.572832 C3920.8,118.272832 3920.5,116.572832 3919.2,117.572832 C3918,118.472832 3915.5,120.972832 3915.5,120.972832" id="Path" stroke="#FFFFFF"></path>
    </g>
</svg>