<?xml version="1.0" encoding="UTF-8"?>
<svg width="4000px" height="320px" viewBox="0 0 4000 320" version="1.1" xmlns="http://www.w3.org/2000/svg" xmlns:xlink="http://www.w3.org/1999/xlink">
    <!-- Generator: Sketch 52.5 (67469) - http://www.bohemiancoding.com/sketch -->
    <title>Tip</title>
    <desc>Created with Sketch.</desc>
    <g id="Tip" stroke="none" stroke-width="1" fill="none" fill-rule="evenodd">
        <g id="tip" transform="translate(30.000000, 26.000000)" stroke="#FFFFFF">
            <path d="M0.5,229.2 L24.5,229.8 L24.2,223.4 L3683.7,224.6 C3683.7,224.6 3690.5,206.5 3699.8,209.6 C3709.1,212.7 3713.2,216.3 3716.7,215.8 C3720.2,215.3 3726.8,211.3 3730.2,213.1 C3733.6,214.9 3746,215.1 3746,215.1 L3765.7,162.6 L3776.3,158.7 L3776.3,225 L3787.5,224.6 L3787.4,158.9 L3803.1,169.1 L3811.9,204.5 L3809.9,254.9 L3788.8,254 L3787.7,282.2 C3787.7,282.2 3776.7,272 3775.8,255.6 C3772,272 3766,280.7 3766,280.7 L3764.1,252.5 L3758.2,252.4 L3758.6,261.8 L3685.2,261.7 L3684.2,252.9 L23.1,251.6 L22.8,243.8 L14.7,243.5 L14.1,237.9 L0.4,238.2 L0.4,229.2 L0.5,229.2 Z" id="Path"></path>
            <path d="M3499.5,223.8 L3499.3,231.4" id="Path"></path>
            <path d="M3516.5,224.1 L3517.5,231.8" id="Path"></path>
            <path d="M3531.7,224.4 L3532.2,232" id="Path"></path>
            <path d="M3547.6,224 L3548,233.4" id="Path"></path>
            <path d="M3564,224.3 L3563.9,233.1" id="Path"></path>
            <path d="M3578.5,224.4 L3578.2,232.1" id="Path"></path>
            <path d="M3595.6,224.4 L3595.9,232.4" id="Path"></path>
            <path d="M3614.7,224.8 L3614.7,232.4" id="Path"></path>
            <path d="M3632.4,225.1 L3633.1,232.8" id="Path"></path>
            <path d="M3652.2,224.8 L3652.6,232.8" id="Path"></path>
            <path d="M3671,225.5 L3670.7,233.5" id="Path"></path>
            <path d="M3314.4,223.8 L3314.2,231.4" id="Path"></path>
            <path d="M3331.4,224.1 L3332.4,231.7" id="Path"></path>
            <path d="M3346.6,224.3 L3347.1,232" id="Path"></path>
            <path d="M3362.5,224 L3362.9,233.4" id="Path"></path>
            <path d="M3378.9,224.3 L3378.7,233.1" id="Path"></path>
            <path d="M3393.4,224.4 L3393.1,232.1" id="Path"></path>
            <path d="M3410.5,224.4 L3410.8,232.4" id="Path"></path>
            <path d="M3429.6,224.8 L3429.6,232.4" id="Path"></path>
            <path d="M3447.3,225.1 L3448,232.8" id="Path"></path>
            <path d="M3467.1,224.8 L3467.5,232.8" id="Path"></path>
            <path d="M3485.9,225.5 L3485.5,233.5" id="Path"></path>
            <path d="M3127.2,224.9 L3127.1,232.5" id="Path"></path>
            <path d="M3144.2,225.2 L3145.3,232.8" id="Path"></path>
            <path d="M3159.5,225.4 L3159.9,233" id="Path"></path>
            <path d="M3175.3,225.1 L3175.8,234.5" id="Path"></path>
            <path d="M3191.8,225.4 L3191.6,234.2" id="Path"></path>
            <path d="M3206.3,225.5 L3205.9,233.1" id="Path"></path>
            <path d="M3223.3,225.5 L3223.7,233.5" id="Path"></path>
            <path d="M3242.4,225.8 L3242.4,233.5" id="Path"></path>
            <path d="M3260.2,226.2 L3260.9,233.8" id="Path"></path>
            <path d="M3280,225.8 L3280.3,233.8" id="Path"></path>
            <path d="M3298.7,226.5 L3298.4,234.5" id="Path"></path>
            <path d="M2941.3,224.1 L2941.2,231.8" id="Path"></path>
            <path d="M2958.3,224.4 L2959.4,232.1" id="Path"></path>
            <path d="M2973.6,224.7 L2974,232.3" id="Path"></path>
            <path d="M2989.4,224.4 L2989.9,233.8" id="Path"></path>
            <path d="M3005.9,224.7 L3005.7,233.5" id="Path"></path>
            <path d="M3020.4,224.8 L3020,232.4" id="Path"></path>
            <path d="M3037.4,224.8 L3037.8,232.8" id="Path"></path>
            <path d="M3056.5,225.1 L3056.5,232.8" id="Path"></path>
            <path d="M3074.3,225.5 L3075,233.1" id="Path"></path>
            <path d="M3094.1,225.1 L3094.4,233.1" id="Path"></path>
            <path d="M3112.8,225.8 L3112.5,233.8" id="Path"></path>
            <path d="M2756.2,224.1 L2756.1,231.8" id="Path"></path>
            <path d="M2773.2,224.4 L2774.3,232.1" id="Path"></path>
            <path d="M2788.5,224.7 L2788.9,232.3" id="Path"></path>
            <path d="M2804.3,224.4 L2804.7,233.8" id="Path"></path>
            <path d="M2820.7,224.6 L2820.6,233.4" id="Path"></path>
            <path d="M2835.3,224.8 L2834.9,232.4" id="Path"></path>
            <path d="M2852.3,224.8 L2852.7,232.8" id="Path"></path>
            <path d="M2871.4,225.1 L2871.4,232.8" id="Path"></path>
            <path d="M2889.2,225.5 L2889.8,233.1" id="Path"></path>
            <path d="M2909,225.1 L2909.3,233.1" id="Path"></path>
            <path d="M2927.7,225.8 L2927.4,233.8" id="Path"></path>
            <path d="M2569.1,225.2 L2568.9,232.8" id="Path"></path>
            <path d="M2586.1,225.5 L2587.1,233.1" id="Path"></path>
            <path d="M2601.3,225.7 L2601.8,233.4" id="Path"></path>
            <path d="M2617.2,225.4 L2617.6,234.8" id="Path"></path>
            <path d="M2633.6,225.7 L2633.4,234.5" id="Path"></path>
            <path d="M2648.1,225.8 L2647.8,233.5" id="Path"></path>
            <path d="M2665.2,225.8 L2665.5,233.8" id="Path"></path>
            <path d="M2684.3,226.2 L2684.3,233.8" id="Path"></path>
            <path d="M2702,226.5 L2702.7,234.2" id="Path"></path>
            <path d="M2721.8,226.2 L2722.2,234.2" id="Path"></path>
            <path d="M2740.6,226.9 L2740.2,234.9" id="Path"></path>
            <path d="M2384.7,225.2 L2384.6,232.8" id="Path"></path>
            <path d="M2401.7,225.5 L2402.8,233.1" id="Path"></path>
            <path d="M2417,225.7 L2417.4,233.4" id="Path"></path>
            <path d="M2432.8,225.4 L2433.3,234.8" id="Path"></path>
            <path d="M2449.3,225.7 L2449.1,234.5" id="Path"></path>
            <path d="M2463.8,225.8 L2463.4,233.5" id="Path"></path>
            <path d="M2480.8,224.8 L2481.2,232.8" id="Path"></path>
            <path d="M2499.9,225.2 L2499.9,232.8" id="Path"></path>
            <path d="M2517.7,225.5 L2518.4,233.1" id="Path"></path>
            <path d="M2537.5,225.2 L2537.8,233.1" id="Path"></path>
            <path d="M2556.2,225.8 L2555.9,233.8" id="Path"></path>
            <path d="M2199.6,225.2 L2199.5,232.8" id="Path"></path>
            <path d="M2216.6,225.5 L2217.7,233.1" id="Path"></path>
            <path d="M2231.9,225.7 L2232.3,233.3" id="Path"></path>
            <path d="M2247.7,225.4 L2248.1,234.8" id="Path"></path>
            <path d="M2264.1,225.7 L2264,234.5" id="Path"></path>
            <path d="M2278.7,225.8 L2278.3,233.4" id="Path"></path>
            <path d="M2295.7,225.8 L2296.1,233.8" id="Path"></path>
            <path d="M2314.8,226.1 L2314.8,233.8" id="Path"></path>
            <path d="M2332.6,226.5 L2333.2,234.1" id="Path"></path>
            <path d="M2352.4,226.1 L2352.7,234.1" id="Path"></path>
            <path d="M2371.1,226.8 L2370.8,234.8" id="Path"></path>
            <path d="M2012.4,224.2 L2012.3,231.9" id="Path"></path>
            <path d="M2029.5,224.5 L2030.5,232.2" id="Path"></path>
            <path d="M2044.7,224.8 L2045.2,232.4" id="Path"></path>
            <path d="M2060.6,224.5 L2061,233.9" id="Path"></path>
            <path d="M2077,224.7 L2076.8,233.5" id="Path"></path>
            <path d="M2091.5,224.9 L2091.2,232.5" id="Path"></path>
            <path d="M2108.6,224.9 L2108.9,232.8" id="Path"></path>
            <path d="M2127.7,225.2 L2127.7,232.8" id="Path"></path>
            <path d="M2145.4,225.5 L2146.1,233.2" id="Path"></path>
            <path d="M2165.2,225.2 L2165.6,233.2" id="Path"></path>
            <path d="M2184,225.9 L2183.6,233.9" id="Path"></path>
            <path d="M1998.4,224.8 L1998.3,232.4" id="Path"></path>
            <path d="M1814.1,224.8 L1813.9,232.4" id="Path"></path>
            <path d="M1831.1,225.1 L1832.1,232.7" id="Path"></path>
            <path d="M1846.3,225.3 L1846.8,233" id="Path"></path>
            <path d="M1862.2,225 L1862.6,234.4" id="Path"></path>
            <path d="M1878.6,225.3 L1878.5,234.1" id="Path"></path>
            <path d="M1893.2,225.4 L1892.8,233.1" id="Path"></path>
            <path d="M1910.2,224.4 L1910.5,232.4" id="Path"></path>
            <path d="M1929.3,224.8 L1929.3,232.4" id="Path"></path>
            <path d="M1947,225.1 L1947.7,232.8" id="Path"></path>
            <path d="M1966.8,224.8 L1967.2,232.8" id="Path"></path>
            <path d="M1985.6,225.5 L1985.3,233.5" id="Path"></path>
            <path d="M1632,224.8 L1631.8,232.4" id="Path"></path>
            <path d="M1649,225.1 L1650,232.7" id="Path"></path>
            <path d="M1664.2,225.3 L1664.7,233" id="Path"></path>
            <path d="M1680.1,225 L1680.5,234.4" id="Path"></path>
            <path d="M1696.5,225.3 L1696.4,234.1" id="Path"></path>
            <path d="M1711.1,225.4 L1710.7,233.1" id="Path"></path>
            <path d="M1728.1,225.4 L1728.4,233.4" id="Path"></path>
            <path d="M1744.2,225.8 L1744.2,233.4" id="Path"></path>
            <path d="M1761.9,225.1 L1762.6,232.8" id="Path"></path>
            <path d="M1781.7,224.8 L1782.1,232.8" id="Path"></path>
            <path d="M1800.5,225.5 L1800.2,233.4" id="Path"></path>
            <path d="M1444.8,224.8 L1444.7,232.5" id="Path"></path>
            <path d="M1461.8,225.1 L1462.9,232.8" id="Path"></path>
            <path d="M1477.1,225.4 L1477.5,233" id="Path"></path>
            <path d="M1492.9,224.1 L1493.4,233.5" id="Path"></path>
            <path d="M1509.4,224.4 L1509.2,233.2" id="Path"></path>
            <path d="M1523.9,224.5 L1523.6,232.1" id="Path"></path>
            <path d="M1540.9,224.5 L1541.3,232.5" id="Path"></path>
            <path d="M1560.1,224.8 L1560.1,232.5" id="Path"></path>
            <path d="M1577.8,225.2 L1578.5,232.8" id="Path"></path>
            <path d="M1597.6,224.8 L1597.9,232.8" id="Path"></path>
            <path d="M1616.4,225.5 L1616,233.5" id="Path"></path>
            <path d="M1275.6,224.7 L1275.5,232.3" id="Path"></path>
            <path d="M1292.6,225 L1293.7,232.6" id="Path"></path>
            <path d="M1307.9,225.2 L1308.3,232.9" id="Path"></path>
            <path d="M1323.7,224.9 L1324.2,234.3" id="Path"></path>
            <path d="M1340.2,225.2 L1340,234" id="Path"></path>
            <path d="M1354.7,225.3 L1354.4,233" id="Path"></path>
            <path d="M1371.7,225.3 L1372.1,233.3" id="Path"></path>
            <path d="M1390.8,225.7 L1390.8,233.3" id="Path"></path>
            <path d="M1408.6,226 L1409.3,233.7" id="Path"></path>
            <path d="M1428.4,225.7 L1428.7,233.7" id="Path"></path>
            <path d="M1091.3,224.7 L1091.1,232.3" id="Path"></path>
            <path d="M1108.3,225 L1109.3,232.6" id="Path"></path>
            <path d="M1123.5,225.2 L1124,232.9" id="Path"></path>
            <path d="M1139.4,224.9 L1139.8,234.3" id="Path"></path>
            <path d="M1155.8,225.2 L1155.7,234" id="Path"></path>
            <path d="M1170.4,225.3 L1170,232.9" id="Path"></path>
            <path d="M1187.4,224.3 L1187.7,232.3" id="Path"></path>
            <path d="M1206.5,224.6 L1206.5,232.3" id="Path"></path>
            <path d="M1224.2,225 L1224.9,232.6" id="Path"></path>
            <path d="M1244,224.6 L1244.4,232.6" id="Path"></path>
            <path d="M1262.8,225.3 L1262.5,233.3" id="Path"></path>
            <path d="M906.2,224.7 L906,232.3" id="Path"></path>
            <path d="M923.2,224.9 L924.2,232.6" id="Path"></path>
            <path d="M938.4,225.2 L938.9,232.8" id="Path"></path>
            <path d="M954.3,224.9 L954.7,234.3" id="Path"></path>
            <path d="M970.7,225.2 L970.6,234" id="Path"></path>
            <path d="M985.2,225.3 L984.9,232.9" id="Path"></path>
            <path d="M1002.3,225.3 L1002.6,233.3" id="Path"></path>
            <path d="M1021.4,225.6 L1021.4,233.3" id="Path"></path>
            <path d="M1039.1,226 L1039.8,233.6" id="Path"></path>
            <path d="M1058.9,225.6 L1059.3,233.6" id="Path"></path>
            <path d="M1077.7,226.3 L1077.3,234.3" id="Path"></path>
            <path d="M719,223.7 L718.9,231.3" id="Path"></path>
            <path d="M736,224 L737.1,231.7" id="Path"></path>
            <path d="M751.3,224.3 L751.7,231.9" id="Path"></path>
            <path d="M767.1,223.9 L767.6,233.3" id="Path"></path>
            <path d="M783.6,224.2 L783.4,233" id="Path"></path>
            <path d="M798.1,224.3 L797.7,232" id="Path"></path>
            <path d="M815.1,224.3 L815.5,232.3" id="Path"></path>
            <path d="M834.2,224.7 L834.2,232.3" id="Path"></path>
            <path d="M852,225 L852.7,232.7" id="Path"></path>
            <path d="M871.8,224.7 L872.1,232.7" id="Path"></path>
            <path d="M890.5,225.4 L890.2,233.4" id="Path"></path>
            <path d="M705,224.3 L704.9,231.9" id="Path"></path>
            <path d="M520.6,224.3 L520.5,231.9" id="Path"></path>
            <path d="M537.7,224.6 L538.7,232.2" id="Path"></path>
            <path d="M552.9,224.8 L553.4,232.5" id="Path"></path>
            <path d="M568.8,224.5 L569.2,233.9" id="Path"></path>
            <path d="M585.2,224.8 L585,233.6" id="Path"></path>
            <path d="M599.7,224.9 L599.4,232.6" id="Path"></path>
            <path d="M616.8,223.9 L617.1,231.9" id="Path"></path>
            <path d="M635.9,224.3 L635.9,231.9" id="Path"></path>
            <path d="M653.6,224.6 L654.3,232.3" id="Path"></path>
            <path d="M673.4,224.3 L673.8,232.3" id="Path"></path>
            <path d="M692.2,225 L691.8,233" id="Path"></path>
            <path d="M338.5,224.3 L338.4,231.9" id="Path"></path>
            <path d="M355.5,224.6 L356.6,232.2" id="Path"></path>
            <path d="M370.8,224.8 L371.3,232.5" id="Path"></path>
            <path d="M386.6,224.5 L387.1,233.9" id="Path"></path>
            <path d="M403.1,224.8 L402.9,233.6" id="Path"></path>
            <path d="M417.6,224.9 L417.3,232.6" id="Path"></path>
            <path d="M434.6,224.9 L435,232.9" id="Path"></path>
            <path d="M450.8,225.3 L450.8,232.9" id="Path"></path>
            <path d="M468.5,224.6 L469.2,232.2" id="Path"></path>
            <path d="M488.3,224.3 L488.6,232.2" id="Path"></path>
            <path d="M507.1,224.9 L506.7,232.9" id="Path"></path>
            <path d="M151.4,224.3 L151.3,232" id="Path"></path>
            <path d="M168.4,224.6 L169.4,232.3" id="Path"></path>
            <path d="M183.7,224.9 L184.1,232.5" id="Path"></path>
            <path d="M199.5,223.6 L199.9,233" id="Path"></path>
            <path d="M215.9,223.8 L215.8,232.6" id="Path"></path>
            <path d="M230.5,224 L230.1,231.6" id="Path"></path>
            <path d="M247.5,224 L247.8,232" id="Path"></path>
            <path d="M266.6,224.3 L266.6,232" id="Path"></path>
            <path d="M284.3,224.7 L285,232.3" id="Path"></path>
            <path d="M304.2,224.3 L304.5,232.3" id="Path"></path>
            <path d="M322.9,225 L322.6,233" id="Path"></path>
            <path d="M35.2,224.3 L35.6,231.9" id="Path"></path>
            <path d="M51,224 L51.4,233.4" id="Path"></path>
            <path d="M67.4,224.2 L67.3,233" id="Path"></path>
            <path d="M82,224.4 L81.6,232" id="Path"></path>
            <path d="M99,224.4 L99.4,232.4" id="Path"></path>
            <path d="M118.1,224.7 L118.1,232.4" id="Path"></path>
            <path d="M135.9,224.1 L136.5,231.7" id="Path"></path>
            <path d="M3904.2,95.8 C3904.2,95.8 3884.1,126.5 3888.6,141 C3893.1,155.5 3912,171.7 3912,171.7 C3912,171.7 3907,263.2 3915.9,268.3 C3924.8,273.3 3929.9,268.3 3932.6,263.8 C3935.4,259.3 3936.5,252.1 3934.3,217.5 C3932.1,182.9 3930.4,169.5 3930.4,169.5 C3930.4,169.5 3948.3,153.3 3949.4,139.4 C3950.5,125.4 3941,97 3935.4,96.4 C3929.8,95.8 3930.4,100.9 3930.4,100.9 L3932.6,130.5 L3918.6,150 C3918.6,150 3904.1,133.8 3905.8,128.2 C3907.5,122.6 3904.7,100.8 3904.2,95.8 Z" id="Path"></path>
            <path d="M3918.1,172.3 L3925.4,171.2 L3931.5,245.4 C3931.5,245.4 3915.9,247.6 3915.9,244.3 C3915.9,241 3918.1,172.3 3918.1,172.3 Z" id="Path"></path>
            <path d="M3924.3,251.5 C3924.3,251.5 3918.7,252.1 3920.4,256.5 C3922.1,261 3924.9,262.1 3927.1,258.2 C3929.3,254.3 3926.5,253.2 3924.3,251.5 Z" id="Path"></path>
            <path d="M3881.8,5.2 C3880.9,3.4 3858.7,-4.1 3852.8,5.6 C3846.8,15.3 3846.5,70.7 3846.5,70.7 C3846.5,70.7 3855.4,80 3851.3,88.2 C3847.2,96.4 3846.1,100.9 3846.1,100.9 L3855.8,101.6 L3861.4,102 L3872.1,102.8 C3872.1,102.8 3866.5,89.4 3869.1,82.7 C3871.7,76 3876.2,73 3876.2,73 C3876.2,73 3884.8,11.5 3881.8,5.2 Z" id="Path"></path>
            <path d="M3861.4,101.9 L3853.6,195.7 C3853.6,195.7 3855.8,200.9 3855.5,204.3 C3855.2,207.7 3852.9,215.5 3851.4,215.8 C3849.9,216.2 3845.8,214.3 3845.8,213.2 C3845.8,212.1 3844.7,202 3845.1,199.1 C3845.5,196.1 3848.8,195 3849.6,192 C3850.3,189 3856,101.5 3856,101.5" id="Path"></path>
        </g>
    </g>
</svg>