<svg width="4000" height="320" viewBox="-2542 0 4000 174" fill="none" xmlns="http://www.w3.org/2000/svg">
    <g clip-path="url(#clip0)">
        <path d="M1231.2 47.1386C1230.49 47.0331 1227.96 48.0876 1225.93 50.0913C1224.42 51.5676 1223.1 53.6767 1223.2 56.3131C1223.5 62.324 1230.79 62.324 1232.62 57.684C1234.54 52.8331 1235.35 47.7713 1231.2 47.1386Z" stroke="black" stroke-width="0.75" stroke-miterlimit="10" stroke-linecap="round" stroke-linejoin="round"/>
        <path d="M1228.06 51.6731C1227.96 51.4622 1227.76 50.1967 1225.94 49.9858" stroke="black" stroke-width="0.75" stroke-miterlimit="10" stroke-linecap="round" stroke-linejoin="round"/>
        <path d="M1226.64 62.9567C1226.64 62.9567 1225.63 64.0112 1224.92 65.0658C1224.21 66.1203 1214.8 90.6912 1220.16 99.1276C1227.25 104.717 1228.67 100.604 1229.17 99.1276C1229.58 97.6512 1228.87 95.9639 1228.06 88.6876C1227.25 81.4112 1227.35 70.1276 1227.76 67.7021C1228.16 64.8548 1227.55 62.5348 1226.95 62.8512" stroke="black" stroke-width="0.75" stroke-miterlimit="10" stroke-linecap="round" stroke-linejoin="round"/>
        <path d="M1224.92 65.0658C1223.3 64.6439 1212.77 60.3203 1212.37 48.6149C1211.96 37.0149 1212.37 35.7494 1212.67 35.0112C1212.98 34.1676 1216.11 31.3203 1213.79 31.3203" stroke="black" stroke-width="0.75" stroke-miterlimit="10" stroke-linecap="round" stroke-linejoin="round"/>
        <path d="M1206.19 25.0984L1206.9 33.8511C1206.9 33.8511 1215.81 32.902 1214.7 32.4802C1213.58 32.0584 1212.47 23.4111 1212.47 23.4111L1206.19 25.0984Z" fill="#FDF0EC"/>
        <path d="M1206.19 25.0984L1206.9 33.8511C1206.9 33.8511 1215.81 32.902 1214.7 32.4802C1213.58 32.0584 1212.47 23.4111 1212.47 23.4111L1206.19 25.0984Z" fill="url(#paint0_linear)"/>
        <path d="M1206.19 25.0984L1206.9 33.8511C1206.9 33.8511 1215.81 32.902 1214.7 32.4802C1213.58 32.0584 1212.47 23.4111 1212.47 23.4111L1206.19 25.0984Z" stroke="black" stroke-width="0.75" stroke-miterlimit="10" stroke-linecap="round" stroke-linejoin="round"/>
        <path d="M1227.96 65.1709C1227.96 65.1709 1229.38 74.24 1237.38 98.8109C1238.49 102.291 1234.44 101.342 1235.05 103.345C1235.66 105.349 1237.38 101.975 1237.38 101.975" stroke="black" stroke-width="0.75" stroke-miterlimit="10" stroke-linecap="round" stroke-linejoin="round"/>
        <path d="M1220.87 100.393C1220.87 100.393 1218.54 120.429 1218.85 126.335C1219.15 132.24 1219.96 146.477 1219.96 146.477C1219.96 146.477 1213.28 142.575 1211.86 145.739C1210.44 148.902 1219.86 147.109 1219.86 147.109" stroke="black" stroke-width="0.75" stroke-miterlimit="10" stroke-linecap="round" stroke-linejoin="round"/>
        <path d="M1226.85 101.975C1226.85 102.396 1225.43 122.644 1225.43 125.069C1225.43 127.495 1228.16 148.164 1228.06 147.636C1227.96 147.109 1223.3 144.473 1221.38 147.004C1219.45 149.535 1227.45 148.058 1227.45 148.058" stroke="black" stroke-width="0.75" stroke-miterlimit="10" stroke-linecap="round" stroke-linejoin="round"/>
        <path d="M1169.44 24.0437C1169.44 24.571 1169.44 36.171 1169.44 35.6437C1169.44 35.1165 1182.5 34.2728 1182.5 34.2728C1182.5 34.2728 1181.49 29.3165 1181.39 27.9455C1181.18 26.5746 1181.18 22.3564 1180.58 22.4619C1179.97 22.6728 1169.44 24.0437 1169.44 24.0437Z" stroke="black" stroke-width="0.75" stroke-miterlimit="10" stroke-linecap="round" stroke-linejoin="round"/>
        <path d="M1150 21.302L1150.5 30.1602L1162.76 30.2657L1161.44 19.6147L1149.9 19.7202L1150 21.302Z" stroke="black" stroke-width="0.75" stroke-miterlimit="10" stroke-linecap="round" stroke-linejoin="round"/>
        <path d="M1117.19 17.0838C1117.19 17.0838 1117.5 28.262 1117.5 27.8402C1117.5 27.3129 1128.94 26.7856 1128.94 26.7856L1128.33 15.7129L1117.6 15.9238L1117.19 17.0838Z" stroke="black" stroke-width="0.75" stroke-miterlimit="10" stroke-linecap="round" stroke-linejoin="round"/>
        <path d="M1131.77 26.0474C1131.67 25.4146 1143.42 25.8365 1143.42 25.8365L1143.62 35.7492L1129.95 36.2765C1129.75 36.2765 1132.58 30.6874 1131.77 26.0474Z" stroke="black" stroke-width="0.75" stroke-miterlimit="10" stroke-linecap="round" stroke-linejoin="round"/>
        <path d="M1099.37 22.3567C1099.17 21.513 1110.31 22.5676 1110.61 22.3567C1110.91 22.1458 1110.61 32.3749 1110.61 32.3749C1110.61 32.3749 1101.09 34.0621 1099.88 32.6912C1098.56 31.3203 1100.69 28.473 1099.37 22.3567Z" stroke="black" stroke-width="0.75" stroke-miterlimit="10" stroke-linecap="round" stroke-linejoin="round"/>
        <path d="M1100.69 39.651C1100.69 38.9129 1111.02 41.3383 1111.02 41.3383C1111.02 41.3383 1109.7 53.2547 1108.89 52.9383C1108.08 52.6219 1097.25 51.251 1097.25 51.251C1097.25 51.251 1100.08 49.9856 1100.69 39.651Z" stroke="black" stroke-width="0.75" stroke-miterlimit="10" stroke-linecap="round" stroke-linejoin="round"/>
        <path d="M1114.96 34.3784C1114.86 33.5348 1127.01 34.9057 1127.01 34.9057L1125.5 44.8184L1113.75 45.4511C1113.75 45.4511 1115.77 43.8693 1114.96 34.3784Z" stroke="black" stroke-width="0.75" stroke-miterlimit="10" stroke-linecap="round" stroke-linejoin="round"/>
        <path d="M1150.2 34.3782C1150.2 33.5346 1162.25 35.7491 1162.25 35.7491C1162.25 35.7491 1161.44 46.5055 1161.24 45.9782C1161.03 45.4509 1149.49 45.3455 1149.49 45.3455C1149.49 45.3455 1150.5 43.5527 1150.2 34.3782Z" stroke="black" stroke-width="0.75" stroke-miterlimit="10" stroke-linecap="round" stroke-linejoin="round"/>
        <path d="M1133.09 40.4946C1133.09 40.4946 1140.89 43.0255 1143.42 41.6546C1143.21 46.4001 1142.81 51.3564 1142.81 51.3564C1142.81 51.3564 1130.56 52.9383 1131.06 52.5164C1131.57 52.0946 1133.49 46.9274 1133.19 43.9746C1132.68 41.2328 1133.09 40.4946 1133.09 40.4946Z" stroke="black" stroke-width="0.75" stroke-miterlimit="10" stroke-linecap="round" stroke-linejoin="round"/>
        <path d="M1169.34 41.6548C1169.84 41.3384 1180.07 41.8657 1180.07 41.8657L1179.46 54.3093L1167.21 53.7821L1169.34 41.6548Z" stroke="black" stroke-width="0.75" stroke-miterlimit="10" stroke-linecap="round" stroke-linejoin="round"/>
        <path d="M1185.33 35.9602C1185.64 36.5929 1184.83 47.3493 1184.83 47.3493C1184.83 47.3493 1194.45 47.8766 1194.35 46.822C1194.14 45.7675 1194.65 35.1166 1194.04 35.1166C1193.33 35.0111 1185.33 35.9602 1185.33 35.9602Z" stroke="black" stroke-width="0.75" stroke-miterlimit="10" stroke-linecap="round" stroke-linejoin="round"/>
        <path d="M1151.01 53.4658C1151.21 53.9931 1150.71 63.6949 1150.71 63.6949C1150.71 63.6949 1162.15 63.9058 1161.84 63.3786C1161.54 62.8513 1162.65 51.9895 1161.84 51.7786C1161.03 51.5677 1151.01 53.4658 1151.01 53.4658Z" stroke="black" stroke-width="0.75" stroke-miterlimit="10" stroke-linecap="round" stroke-linejoin="round"/>
        <path d="M1134.2 56.313C1133.9 57.1566 1133.09 67.4911 1133.39 67.0693C1133.7 66.542 1145.14 67.913 1145.14 67.0693C1145.14 66.2257 1146.45 54.8366 1145.75 54.5202C1145.14 54.0984 1134.2 56.313 1134.2 56.313Z" stroke="black" stroke-width="0.75" stroke-miterlimit="10" stroke-linecap="round" stroke-linejoin="round"/>
        <path d="M1116.58 52.0947C1116.58 52.0947 1118.1 59.7929 1115.98 62.4292C1113.85 65.171 1127.11 63.2729 1127.11 63.2729L1127.92 51.6729L1116.58 52.0947Z" stroke="black" stroke-width="0.75" stroke-miterlimit="10" stroke-linecap="round" stroke-linejoin="round"/>
        <path d="M1099.78 61.48C1099.78 62.0072 1098.26 73.6072 1098.26 73.6072H1109.7L1110.51 61.3745L1099.78 61.48Z" stroke="black" stroke-width="0.75" stroke-miterlimit="10" stroke-linecap="round" stroke-linejoin="round"/>
        <path d="M1117.5 72.4475C1117.39 71.4984 1116.69 83.2039 1116.69 83.2039C1116.69 83.2039 1128.33 83.5202 1128.43 82.993C1128.63 82.4657 1129.04 70.5493 1129.04 70.5493C1129.04 70.5493 1117.7 73.7129 1117.5 72.4475Z" stroke="black" stroke-width="0.75" stroke-miterlimit="10" stroke-linecap="round" stroke-linejoin="round"/>
        <path d="M1135.21 72.3418C1135.21 72.8691 1135.21 82.36 1135.21 82.36C1135.21 82.36 1145.14 83.4146 1145.34 82.6764C1145.54 82.0437 1146.66 70.9709 1146.15 70.4437C1145.64 69.9164 1135.21 72.3418 1135.21 72.3418Z" stroke="black" stroke-width="0.75" stroke-miterlimit="10" stroke-linecap="round" stroke-linejoin="round"/>
        <path d="M1152.33 71.8146C1152.33 72.3418 1151.72 82.36 1151.72 82.36C1151.72 82.36 1163.97 82.1491 1163.77 81.7273C1163.57 81.2 1163.26 68.9673 1163.26 68.9673L1152.53 69.6L1152.33 71.8146Z" stroke="black" stroke-width="0.75" stroke-miterlimit="10" stroke-linecap="round" stroke-linejoin="round"/>
        <path d="M1169.84 62.7456C1169.54 63.5892 1170.15 73.6074 1170.15 73.6074L1180.27 73.0801C1180.27 73.0801 1180.88 60.8474 1179.77 60.6365C1178.65 60.531 1169.84 62.7456 1169.84 62.7456Z" stroke="black" stroke-width="0.75" stroke-miterlimit="10" stroke-linecap="round" stroke-linejoin="round"/>
        <path d="M1187.76 56.5237C1187.76 57.5783 1186.65 68.2292 1186.75 67.7019C1186.95 67.1746 1197.18 68.2292 1197.18 68.2292L1198.8 54.9419L1187.76 56.5237Z" stroke="black" stroke-width="0.75" stroke-miterlimit="10" stroke-linecap="round" stroke-linejoin="round"/>
        <path d="M1183.81 75.9275L1183.31 85.102L1194.95 84.7857C1194.95 84.7857 1195.46 72.342 1194.95 72.5529C1194.45 72.7639 1184.02 73.0802 1184.02 73.0802L1183.81 75.9275Z" stroke="black" stroke-width="0.75" stroke-miterlimit="10" stroke-linecap="round" stroke-linejoin="round"/>
        <path d="M1168.32 84.5747L1167.82 95.6474L1178.95 94.8038C1178.95 94.8038 1178.95 82.2547 1178.14 82.0438C1177.33 81.8329 1168.32 84.5747 1168.32 84.5747Z" stroke="black" stroke-width="0.75" stroke-miterlimit="10" stroke-linecap="round" stroke-linejoin="round"/>
        <path d="M1186.45 91.5347L1185.94 102.397L1197.89 101.342C1197.89 101.342 1199.41 90.4802 1198.5 89.9529C1197.69 89.5311 1186.45 91.5347 1186.45 91.5347Z" stroke="black" stroke-width="0.75" stroke-miterlimit="10" stroke-linecap="round" stroke-linejoin="round"/>
        <path d="M1122.15 89.004C1123.07 88.6876 1121.65 100.393 1121.85 99.8658C1122.05 99.3385 1134.61 100.92 1134.3 100.182C1134 99.4439 1134.61 85.7349 1134 85.7349C1133.19 85.7349 1121.65 89.1094 1122.15 89.004Z" stroke="black" stroke-width="0.75" stroke-miterlimit="10" stroke-linecap="round" stroke-linejoin="round"/>
        <path d="M1141.7 89.8474C1141.39 89.0038 1141.19 101.447 1141.19 101.447L1152.12 100.92L1152.63 86.6838C1152.63 86.5783 1141.9 90.3747 1141.7 89.8474Z" stroke="black" stroke-width="0.75" stroke-miterlimit="10" stroke-linecap="round" stroke-linejoin="round"/>
        <path d="M1099.88 82.3604C1099.58 82.9931 1098.06 94.5931 1098.36 94.0658C1098.66 93.5386 1112.43 93.2222 1112.43 93.2222C1112.43 93.2222 1113.95 81.8331 1111.62 81.3058C1109.3 80.7786 1099.88 82.3604 1099.88 82.3604Z" stroke="black" stroke-width="0.75" stroke-miterlimit="10" stroke-linecap="round" stroke-linejoin="round"/>
        <path d="M1102.41 25.52L1106.46 25.9418" stroke="black" stroke-width="0.75" stroke-miterlimit="10" stroke-linecap="round" stroke-linejoin="round"/>
        <path d="M1102.51 28.1567L1106.36 28.8949" stroke="black" stroke-width="0.75" stroke-miterlimit="10" stroke-linecap="round" stroke-linejoin="round"/>
        <path d="M1121.04 19.8256C1121.55 19.7202 1125.19 19.5093 1125.19 19.5093" stroke="black" stroke-width="0.75" stroke-miterlimit="10" stroke-linecap="round" stroke-linejoin="round"/>
        <path d="M1134.71 30.3711C1134.71 30.3711 1138.96 30.0547 1139.27 30.0547" stroke="black" stroke-width="0.75" stroke-miterlimit="10" stroke-linecap="round" stroke-linejoin="round"/>
        <path d="M1152.93 24.0438C1153.14 25.8366 1153.14 26.8911 1154.76 24.9929C1156.38 23.0947 1157.69 21.6184 1157.79 24.4657C1157.89 27.3129 1159.51 26.8911 1159.51 26.8911" stroke="black" stroke-width="0.75" stroke-miterlimit="10" stroke-linecap="round" stroke-linejoin="round"/>
        <path d="M1174.3 26.8911C1173.99 27.102 1171.77 29.6329 1173.49 29.9493C1175.21 30.2657 1176.93 28.262 1176.83 27.9457C1176.73 27.6293 1174.3 26.8911 1174.3 26.8911Z" stroke="black" stroke-width="0.75" stroke-miterlimit="10" stroke-linecap="round" stroke-linejoin="round"/>
        <path d="M1153.95 37.8584C1154.76 37.8584 1159.21 39.0184 1159.21 39.0184" stroke="black" stroke-width="0.75" stroke-miterlimit="10" stroke-linecap="round" stroke-linejoin="round"/>
        <path d="M1152.33 42.7095C1152.83 42.604 1158.91 42.604 1158.91 42.604" stroke="black" stroke-width="0.75" stroke-miterlimit="10" stroke-linecap="round" stroke-linejoin="round"/>
        <path d="M1135.72 45.4509C1135.72 45.4509 1134.81 49.4582 1136.73 47.8763C1138.56 46.2945 1138.76 44.6073 1140.08 44.7127C1141.39 44.8182 1140.48 47.56 1140.48 47.56" stroke="black" stroke-width="0.75" stroke-miterlimit="10" stroke-linecap="round" stroke-linejoin="round"/>
        <path d="M1118.21 39.4399L1123.57 39.3345" stroke="black" stroke-width="0.75" stroke-miterlimit="10" stroke-linecap="round" stroke-linejoin="round"/>
        <path d="M1102.81 45.3457L1108.18 46.0839" stroke="black" stroke-width="0.75" stroke-miterlimit="10" stroke-linecap="round" stroke-linejoin="round"/>
        <path d="M1120.53 55.4692C1120.94 55.3638 1125.49 55.4692 1125.49 55.4692" stroke="black" stroke-width="0.75" stroke-miterlimit="10" stroke-linecap="round" stroke-linejoin="round"/>
        <path d="M1119.12 60.109C1119.42 60.0036 1123.77 60.6363 1123.77 60.6363" stroke="black" stroke-width="0.75" stroke-miterlimit="10" stroke-linecap="round" stroke-linejoin="round"/>
        <path d="M1137.34 59.7929C1137.54 59.3711 1142.51 59.4766 1142.51 59.4766" stroke="black" stroke-width="0.75" stroke-miterlimit="10" stroke-linecap="round" stroke-linejoin="round"/>
        <path d="M1154.35 56.4184L1159.21 55.8911" stroke="black" stroke-width="0.75" stroke-miterlimit="10" stroke-linecap="round" stroke-linejoin="round"/>
        <path d="M1154.86 60.1094L1158.6 60.5312" stroke="black" stroke-width="0.75" stroke-miterlimit="10" stroke-linecap="round" stroke-linejoin="round"/>
        <path d="M1172.27 46.4004L1177.44 47.7713" stroke="black" stroke-width="0.75" stroke-miterlimit="10" stroke-linecap="round" stroke-linejoin="round"/>
        <path d="M1187.97 41.2331C1187.97 41.2331 1188.88 38.4913 1190.4 40.0731C1191.92 41.6549 1191.92 43.0258 1191.92 43.0258" stroke="black" stroke-width="0.75" stroke-miterlimit="10" stroke-linecap="round" stroke-linejoin="round"/>
        <path d="M1100.89 68.124L1106.86 68.7568" stroke="black" stroke-width="0.75" stroke-miterlimit="10" stroke-linecap="round" stroke-linejoin="round"/>
        <path d="M1126.3 76.6656C1125.7 76.5601 1123.47 73.8183 1122.15 76.2438C1120.84 78.6692 1125.49 79.6183 1124.08 80.3565C1122.66 80.9892 1120.03 80.4619 1120.03 80.4619" stroke="black" stroke-width="0.75" stroke-miterlimit="10" stroke-linecap="round" stroke-linejoin="round"/>
        <path d="M1102.61 88.3709C1103.63 90.0582 1104.03 84.68 1107.17 84.9964C1110.31 85.3127 1109.4 89.1091 1109.4 89.1091" stroke="black" stroke-width="0.75" stroke-miterlimit="10" stroke-linecap="round" stroke-linejoin="round"/>
        <path d="M1126.1 92.4837C1126.91 92.3782 1130.46 92.9055 1130.46 92.9055" stroke="black" stroke-width="0.75" stroke-miterlimit="10" stroke-linecap="round" stroke-linejoin="round"/>
        <path d="M1144.94 94.8036C1145.75 94.3818 1148.68 94.6981 1148.99 94.5927" stroke="black" stroke-width="0.75" stroke-miterlimit="10" stroke-linecap="round" stroke-linejoin="round"/>
        <path d="M1138.15 75.9275C1138.45 75.8221 1142 76.3493 1142 76.3493" stroke="black" stroke-width="0.75" stroke-miterlimit="10" stroke-linecap="round" stroke-linejoin="round"/>
        <path d="M1139.06 79.6182L1142.51 80.1454" stroke="black" stroke-width="0.75" stroke-miterlimit="10" stroke-linecap="round" stroke-linejoin="round"/>
        <path d="M1155.77 73.7127C1156.17 73.6073 1160.53 74.0291 1160.53 74.0291" stroke="black" stroke-width="0.75" stroke-miterlimit="10" stroke-linecap="round" stroke-linejoin="round"/>
        <path d="M1172.88 68.0185C1173.49 67.8076 1176.42 67.3857 1176.42 67.3857" stroke="black" stroke-width="0.75" stroke-miterlimit="10" stroke-linecap="round" stroke-linejoin="round"/>
        <path d="M1171.26 90.2694C1171.66 89.8476 1175.11 89.3203 1175.11 89.3203" stroke="black" stroke-width="0.75" stroke-miterlimit="10" stroke-linecap="round" stroke-linejoin="round"/>
        <path d="M1190.09 96.1747C1190.4 95.6474 1194.14 95.2256 1194.14 95.2256" stroke="black" stroke-width="0.75" stroke-miterlimit="10" stroke-linecap="round" stroke-linejoin="round"/>
        <path d="M1186.35 76.6655C1187.16 76.6655 1191.91 77.1928 1191.91 77.1928" stroke="black" stroke-width="0.75" stroke-miterlimit="10" stroke-linecap="round" stroke-linejoin="round"/>
        <path d="M1186.65 81.833C1187.06 81.5167 1190.9 82.0439 1190.9 82.0439" stroke="black" stroke-width="0.75" stroke-miterlimit="10" stroke-linecap="round" stroke-linejoin="round"/>
        <path d="M1190.09 61.0585C1190.6 60.8476 1195.66 60.2148 1195.66 60.2148" stroke="black" stroke-width="0.75" stroke-miterlimit="10" stroke-linecap="round" stroke-linejoin="round"/>
        <path d="M1207.91 28.789L1211.66 28.4727" stroke="black" stroke-width="0.75" stroke-miterlimit="10" stroke-linecap="round" stroke-linejoin="round"/>
        <path d="M1458 127.389C1445.34 127.6 5.8725 128.338 -2542 128.022" stroke="black" stroke-width="0.75" stroke-miterlimit="10" stroke-linecap="round" stroke-linejoin="round"/>
        <path d="M919.653 56.6292C919.146 57.1565 916.109 64.0111 920.564 69.0729C925.019 74.1347 929.474 67.8074 928.765 65.1711C928.056 62.5347 926.436 55.7856 923.804 55.4692C921.273 55.1529 919.653 56.6292 919.653 56.6292Z" stroke="black" stroke-width="0.75" stroke-miterlimit="10" stroke-linecap="round" stroke-linejoin="round"/>
        <path d="M926.134 58.5273C925.628 58.7383 920.565 61.9019 921.679 62.7455C922.793 63.5892 925.83 62.2183 925.83 62.2183" stroke="black" stroke-width="0.75" stroke-miterlimit="10" stroke-linecap="round" stroke-linejoin="round"/>
        <path d="M925.729 71.3931C925.729 71.3931 925.729 73.5022 926.539 73.2913C927.349 73.0803 928.463 74.2403 928.564 74.9785C928.665 75.7167 935.044 101.026 930.589 103.979C926.843 106.509 924.717 104.189 924.109 101.975C923.502 99.7603 921.173 81.6222 922.894 76.6658C924.109 73.1858 925.425 73.2913 925.425 73.2913" stroke="black" stroke-width="0.75" stroke-miterlimit="10" stroke-linecap="round" stroke-linejoin="round"/>
        <path d="M928.562 74.9785C928.562 74.9785 937.371 89.5312 937.574 101.237C937.675 105.56 937.878 107.037 937.878 107.037C937.878 107.037 935.954 110.306 935.751 108.302C935.549 106.404 936.561 105.666 936.561 105.666" stroke="black" stroke-width="0.75" stroke-miterlimit="10" stroke-linecap="round" stroke-linejoin="round"/>
        <path d="M931.195 74.9785C931.195 74.9785 940.206 74.8731 941.219 75.9276C942.231 76.9822 937.776 103.451 941.219 106.509" stroke="black" stroke-width="0.75" stroke-miterlimit="10" stroke-linecap="round" stroke-linejoin="round"/>
        <path d="M917.932 114.524C916.92 114.208 913.781 115.262 913.173 117.371C912.465 119.48 915.907 140.571 915.603 141.309C915.3 142.048 908.01 139.833 908.415 143.102C908.718 146.371 914.591 144.579 914.591 144.579" stroke="black" stroke-width="0.75" stroke-miterlimit="10" stroke-linecap="round" stroke-linejoin="round"/>
        <path d="M925.122 114.524C924.109 114.84 918.945 120.64 919.249 122.433C919.553 124.226 925.729 139.622 925.729 141.415C925.729 143.208 920.262 149.324 920.262 145.317C920.262 141.415 922.995 139.2 922.995 139.2" stroke="black" stroke-width="0.75" stroke-miterlimit="10" stroke-linecap="round" stroke-linejoin="round"/>
        <path d="M797.242 61.1637C797.242 61.1637 792.179 68.5456 794.711 73.6074C797.242 78.5638 801.798 77.931 802.912 75.7165C804.026 73.5019 805.443 67.5965 803.114 64.7492C800.887 61.9019 800.887 60.4256 797.242 61.1637Z" stroke="black" stroke-width="0.75" stroke-miterlimit="10" stroke-linecap="round" stroke-linejoin="round"/>
        <path d="M796.838 79.5126C796.635 80.6726 785.599 107.88 786.51 113.153C787.422 118.425 791.573 117.687 791.776 116.949C791.978 116.211 798.458 113.153 799.369 99.7599C800.28 86.3672 800.281 81.1999 799.572 80.2508C798.863 79.3017 796.838 79.5126 796.838 79.5126Z" stroke="black" stroke-width="0.75" stroke-miterlimit="10" stroke-linecap="round" stroke-linejoin="round"/>
        <path d="M788.13 97.1236C787.016 95.2254 789.244 87.8436 783.574 88.2654C777.904 88.6872 771.626 86.1563 775.373 99.9709C779.018 113.785 776.284 118.847 783.878 121.378C791.471 124.014 804.431 122.116 804.431 122.116" stroke="black" stroke-width="0.75" stroke-miterlimit="10" stroke-linecap="round" stroke-linejoin="round"/>
        <path d="M786.51 116.211L781.447 117.898" stroke="black" stroke-width="0.75" stroke-miterlimit="10" stroke-linecap="round" stroke-linejoin="round"/>
        <path d="M789.953 124.12C790.155 124.858 790.661 141.942 790.661 141.942C790.661 141.942 776.689 151.433 775.98 153.12C775.271 154.807 776.891 155.967 777.6 154.807" stroke="black" stroke-width="0.75" stroke-miterlimit="10" stroke-linecap="round" stroke-linejoin="round"/>
        <path d="M790.155 146.266C790.155 147.004 790.358 152.487 790.661 153.437C790.864 154.386 782.46 151.96 786.105 154.913C789.75 157.866 797.04 156.389 794.306 154.913" stroke="black" stroke-width="0.75" stroke-miterlimit="10" stroke-linecap="round" stroke-linejoin="round"/>
        <path d="M793.395 143.418C795.015 143.946 800.482 151.749 802.507 151.749C804.532 151.749 809.392 151.538 806.658 152.909C803.925 154.28 803.925 154.386 803.925 154.386" stroke="black" stroke-width="0.75" stroke-miterlimit="10" stroke-linecap="round" stroke-linejoin="round"/>
        <path d="M789.749 117.582C789.749 117.582 787.927 118.531 799.773 118.531C811.721 118.531 813.037 118.32 812.834 121.589C812.632 124.964 808.481 148.269 811.417 150.378C814.353 152.488 822.352 153.226 819.416 150.589C816.479 147.953 813.442 148.902 813.442 148.902" stroke="black" stroke-width="0.75" stroke-miterlimit="10" stroke-linecap="round" stroke-linejoin="round"/>
        <path d="M793.193 116C793.193 116 812.836 115.051 814.962 119.586C815.468 120.64 818.202 145.316 820.227 147.004C822.252 148.691 826.91 144.895 827.517 147.531C828.226 150.167 825.492 150.167 823.872 149.956" stroke="black" stroke-width="0.75" stroke-miterlimit="10" stroke-linecap="round" stroke-linejoin="round"/>
        <path d="M803.419 69.4944C803.419 69.4944 799.976 70.6544 799.268 68.0181" stroke="black" stroke-width="0.75" stroke-miterlimit="10" stroke-linecap="round" stroke-linejoin="round"/>
        <path d="M816.277 63.062C816.075 63.8002 820.428 72.342 825.896 69.4947C828.63 68.0183 828.832 63.2729 825.896 58.1056C822.656 52.3056 816.783 55.0474 816.075 57.5783C815.366 60.2147 816.277 63.062 816.277 63.062Z" stroke="black" stroke-width="0.75" stroke-miterlimit="10" stroke-linecap="round" stroke-linejoin="round"/>
        <path d="M824.479 99.5494C824.479 98.073 822.859 90.0584 822.454 85.5239C822.049 80.9893 824.276 74.3457 824.276 74.3457C824.479 73.1857 822.656 70.5493 821.036 72.2366C821.036 72.2366 814.86 80.3566 814.354 83.6257C813.848 87.0003 813.848 99.8657 815.974 101.975C817.999 104.084 822.859 102.502 822.859 102.502" stroke="black" stroke-width="0.75" stroke-miterlimit="10" stroke-linecap="round" stroke-linejoin="round"/>
        <path d="M823.973 75.7166C823.973 75.7166 824.681 80.9893 827.921 82.8875C831.161 84.7857 843.716 75.7166 844.628 74.0293" stroke="black" stroke-width="0.75" stroke-miterlimit="10" stroke-linecap="round" stroke-linejoin="round"/>
        <path d="M845.437 71.7093C845.032 71.7093 843.311 71.1821 843.311 71.1821L844.424 63.4839L851.006 64.5384L849.689 72.2366L845.437 71.7093Z" fill="#FDF0EC"/>
        <path d="M845.437 71.7093C845.032 71.7093 843.311 71.1821 843.311 71.1821L844.424 63.4839L851.006 64.5384L849.689 72.2366L845.437 71.7093Z" fill="url(#paint1_linear)"/>
        <path d="M845.437 71.7093C845.032 71.7093 843.311 71.1821 843.311 71.1821L844.424 63.4839L851.006 64.5384L849.689 72.2366L845.437 71.7093Z" stroke="black" stroke-width="0.75" stroke-miterlimit="10" stroke-linecap="round" stroke-linejoin="round"/>
        <path d="M844.526 74.2404C844.526 74.2404 847.463 71.3931 846.349 70.8658C844.729 70.1276 844.324 72.2367 844.121 73.2913C843.919 74.3458 844.526 74.2404 844.526 74.2404Z" fill="white" stroke="black" stroke-width="0.75" stroke-miterlimit="10" stroke-linecap="round" stroke-linejoin="round"/>
        <path d="M825.897 59.6872C824.986 59.16 820.632 61.5854 819.721 62.7454" stroke="black" stroke-width="0.75" stroke-miterlimit="10" stroke-linecap="round" stroke-linejoin="round"/>
        <path d="M819.518 77.4038C819.417 77.6147 817.594 84.8911 818.1 90.4802C818.607 96.0693 825.289 97.0184 828.732 96.3856C832.174 95.7529 833.288 96.1747 832.377 96.3856" stroke="black" stroke-width="0.75" stroke-miterlimit="10" stroke-linecap="round" stroke-linejoin="round"/>
        <path d="M833.186 89.8475C830.756 90.5856 799.875 114.207 799.875 114.207C799.875 114.207 885.026 113.153 898.391 113.153C911.756 113.153 945.776 113.891 944.764 113.153C943.751 112.415 915.199 98.1784 911.149 94.9093C906.998 91.6402 902.543 88.4766 902.543 88.4766L833.186 89.8475Z" fill="white" stroke="black" stroke-width="0.75" stroke-miterlimit="10" stroke-linecap="round" stroke-linejoin="round"/>
        <path d="M833.894 100.92C832.477 101.237 827.414 105.877 827.414 105.877L837.337 107.353L842.5 101.659L833.894 100.92Z" stroke="black" stroke-width="0.75" stroke-miterlimit="10" stroke-linecap="round" stroke-linejoin="round"/>
        <path d="M853.133 100.92C853.133 102.713 853.133 105.877 853.133 105.877C853.133 105.877 863.764 106.193 862.752 105.138C861.739 104.084 862.043 99.4438 861.03 99.4438C859.917 99.5493 853.133 100.92 853.133 100.92Z" stroke="black" stroke-width="0.75" stroke-miterlimit="10" stroke-linecap="round" stroke-linejoin="round"/>
        <path d="M876.825 92.3783C876.117 93.4329 873.383 97.3347 873.383 97.3347L882.698 98.3892C882.698 98.3892 887.862 93.011 886.14 92.2729C884.318 91.6401 876.825 92.3783 876.825 92.3783Z" stroke="black" stroke-width="0.75" stroke-miterlimit="10" stroke-linecap="round" stroke-linejoin="round"/>
        <path d="M892.214 100.604C892.214 100.604 887.051 104.928 888.063 105.244C889.076 105.56 893.936 108.829 893.936 108.829L901.529 103.873L892.214 100.604Z" stroke="black" stroke-width="0.75" stroke-miterlimit="10" stroke-linecap="round" stroke-linejoin="round"/>
        <path d="M841.792 93.1167C841.488 94.1713 840.07 97.4404 840.07 97.4404C840.07 97.4404 846.55 100.709 846.55 99.2331C846.55 97.7567 851.005 93.5385 849.689 92.8003C848.272 92.0622 841.792 93.1167 841.792 93.1167Z" stroke="black" stroke-width="0.75" stroke-miterlimit="10" stroke-linecap="round" stroke-linejoin="round"/>
        <path d="M857.183 92.062C856.474 93.1166 857.892 95.6475 857.892 95.6475L866.093 95.3311C866.093 95.3311 869.232 92.062 867.814 92.062C866.498 92.062 857.183 92.062 857.183 92.062Z" stroke="black" stroke-width="0.75" stroke-miterlimit="10" stroke-linecap="round" stroke-linejoin="round"/>
        <path d="M872.27 103.767L877.433 110.2L884.014 108.091L880.572 101.342L872.27 103.767Z" stroke="black" stroke-width="0.75" stroke-miterlimit="10" stroke-linecap="round" stroke-linejoin="round"/>
        <path d="M928.564 115.262L930.893 152.909C930.893 152.909 933.627 153.12 933.425 152.171C933.222 151.222 932.918 113.575 932.918 113.575" stroke="black" stroke-width="0.75" stroke-miterlimit="10" stroke-linecap="round" stroke-linejoin="round"/>
        <path d="M898.898 114.735L899.607 141.204C899.607 141.204 903.961 141.415 903.758 140.677C903.556 139.938 902.645 113.469 902.645 113.469" stroke="black" stroke-width="0.75" stroke-miterlimit="10" stroke-linecap="round" stroke-linejoin="round"/>
        <path d="M836.832 115.262C836.933 116.738 838.047 139.095 838.047 139.095C838.047 139.095 841.895 137.724 841.692 137.935C841.49 138.146 841.388 114.524 841.388 114.524" stroke="black" stroke-width="0.75" stroke-miterlimit="10" stroke-linecap="round" stroke-linejoin="round"/>
        <path d="M827.516 113.68C828.933 113.68 830.452 114.84 831.464 117.687C832.477 120.535 827.718 133.4 827.718 135.931C827.718 138.462 837.337 136.669 834.603 139.517C831.869 142.364 829.439 139.833 829.439 139.833" stroke="black" stroke-width="0.75" stroke-miterlimit="10" stroke-linecap="round" stroke-linejoin="round"/>
        <path d="M922.589 78.0361C922.589 78.3525 922.286 89.9525 916.717 93.8543C911.148 97.7561 905.984 96.3852 905.984 96.3852C905.984 96.3852 903.453 97.018 904.871 98.0725C906.288 99.127 907.199 98.3889 907.199 98.3889" stroke="black" stroke-width="0.75" stroke-miterlimit="10" stroke-linecap="round" stroke-linejoin="round"/>
        <path d="M795.825 88.2651C795.825 88.2651 795.015 104.083 805.646 106.298C811.316 107.458 816.48 107.985 819.112 108.196C820.429 108.302 821.745 107.774 822.454 106.614C822.859 105.982 822.859 105.56 821.644 105.982C818.91 106.931 819.517 106.403 819.517 106.403" stroke="black" stroke-width="0.75" stroke-miterlimit="10" stroke-linecap="round" stroke-linejoin="round"/>
        <path d="M800.178 88.0542C800.38 88.7924 804.025 101.763 808.885 102.712C814.758 103.872 819.922 103.134 819.922 103.134" stroke="black" stroke-width="0.75" stroke-miterlimit="10" stroke-linecap="round" stroke-linejoin="round"/>
    </g>
</svg>
