<?xml version="1.0" encoding="UTF-8"?>
<svg width="4000px" height="320px" viewBox="0 0 4000 320" version="1.1" xmlns="http://www.w3.org/2000/svg" xmlns:xlink="http://www.w3.org/1999/xlink">
    <!-- Generator: Sketch 52.3 (67297) - http://www.bohemiancoding.com/sketch -->
    <title>Yrkesfaglig matte</title>
    <desc>Created with Sketch.</desc>
    <g id="Yrkesfaglig-matte" stroke="none" stroke-width="1" fill="none" fill-rule="evenodd">
        <path d="M3635.3,247.5 L3840.7,248.6 C3840.7,248.6 3847.5,230.5 3856.8,233.6 C3866.1,236.7 3870.2,240.3 3873.7,239.8 C3877.2,239.3 3883.8,235.3 3887.2,237.1 C3890.6,238.9 3903,239.1 3903,239.1 L3922.7,186.6 L3933.3,182.7 L3933.3,249 L3944.5,248.6 L3944.4,182.9 L3960.1,193.1 L3968.9,228.5 L3966.9,278.9 L3945.8,278 L3944.7,306.2 C3944.7,306.2 3933.7,296 3932.8,279.6 C3929,296 3923,304.7 3923,304.7 L3921.1,276.5 L3915.2,276.4 L3915.6,285.8 L3842.2,285.7 L3841.2,276.9 L3634.6,275.7 L3633.6,267.5 L3627.7,267.4 L3625.5,261.5 L3612.6,261.9 L3611.6,251.9 L3635.6,253.5 L3635.3,247.5 Z" id="Path" stroke="#FFFFFF"></path>
        <path d="M3656.5,247.8 L3656.3,255.4" id="Path" stroke="#FFFFFF"></path>
        <path d="M3673.5,248.1 L3674.5,255.8" id="Path" stroke="#FFFFFF"></path>
        <path d="M3688.7,248.4 L3689.2,256" id="Path" stroke="#FFFFFF"></path>
        <path d="M3704.6,248 L3705,257.4" id="Path" stroke="#FFFFFF"></path>
        <path d="M3721,248.3 L3720.9,257.1" id="Path" stroke="#FFFFFF"></path>
        <path d="M3735.5,248.4 L3735.2,256.1" id="Path" stroke="#FFFFFF"></path>
        <path d="M3752.6,248.4 L3752.9,256.4" id="Path" stroke="#FFFFFF"></path>
        <path d="M3771.7,248.8 L3771.7,256.4" id="Path" stroke="#FFFFFF"></path>
        <path d="M3789.4,249.1 L3790.1,256.8" id="Path" stroke="#FFFFFF"></path>
        <path d="M3809.2,248.8 L3809.6,256.8" id="Path" stroke="#FFFFFF"></path>
        <path d="M3828,249.5 L3827.7,257.5" id="Path" stroke="#FFFFFF"></path>
        <path d="M3908.5,94.5 C3886.5,102.5 3880.5,84.5 3880.5,84.5 C3880.5,84.5 3871.5,86.5 3868.5,87.5 C3866.5,92.5 3862.5,89.5 3862.5,89.5 C3862.5,89.5 3862.5,89.5 3855.5,92.5 C3846.5,84.5 3848.5,68.5 3848.5,67.5 L3855.5,66.5 C3855.5,66.5 3856.5,64.5 3857.5,63.5 C3858.5,62.5 3863.5,65.5 3863.5,65.5 L3872.5,61.5 C3872.5,61.5 3872.5,61.5 3874.5,51.5 C3869.5,35.5 3947.5,18.5 3947.5,18.5 C3947.5,18.5 3981.5,37.5 3967.5,79.5 C3924.5,91.5 3908.5,94.5 3908.5,94.5 Z" id="Path" stroke="#FFFFFF"></path>
        <path d="M3858.5,66.5 C3859.5,67.5 3865.5,75.5 3865.5,86.5" id="Path" stroke="#FFFFFF"></path>
        <path d="M3849.5,70.6 C3850.5,70.5 3858.8,82.3 3855.6,90.4" id="Path" stroke="#FFFFFF"></path>
        <path d="M3847.5,83.5 C3846.5,83.5 3834.5,94.5 3833.5,111.5" id="Path" stroke="#FFFFFF"></path>
        <path d="M3850.5,89.5 C3849.5,90.5 3842.5,101.5 3840.5,113.5" id="Path" stroke="#FFFFFF"></path>
        <path d="M3831.5,108.5 C3830.5,107.5 3796.5,112.5 3819.5,121.5" id="Path" stroke="#FFFFFF"></path>
        <path d="M3843.1,107.4 C3844.5,107.5 3884.5,112.5 3849.5,122.5" id="Path" stroke="#FFFFFF"></path>
        <path d="M3814.6,120.8 L3821.5,157.5 C3821.5,157.5 3842.5,161.5 3852.5,156.5 C3855.5,142.5 3860.9,120 3860.9,120" id="Path" stroke="#FFFFFF"></path>
        <path d="M3857.5,127.5 C3856.5,127.5 3846.5,130.5 3837.5,129.5" id="Path" stroke="#FFFFFF"></path>
        <path d="M3855.5,134.5 C3855.5,134.5 3851.5,139.5 3837.5,137.5" id="Path" stroke="#FFFFFF"></path>
        <path d="M3853.5,141.5 C3853.5,141.5 3847.5,144.5 3836.5,142.5" id="Path" stroke="#FFFFFF"></path>
        <path d="M3850.5,149.5 C3850.5,149.5 3845.5,150.5 3837.5,150.5" id="Path" stroke="#FFFFFF"></path>
        <path d="M3830.5,111.5 C3830.5,111.5 3818.5,114.5 3819.5,116.5 C3820.5,118.5 3848.5,123.5 3857.5,114.5 C3847.5,111.5 3843.5,112.5 3843.5,112.5" id="Path" stroke="#FFFFFF"></path>
        <path d="M3910.5,93.5 C3911.7,95.2 3908.8,66.4 3901.5,51.5 C3898.8,46 3931.5,34.5 3937.5,34.5 C3943.5,34.5 3952.4,60.8 3950.9,83.7" id="Path" stroke="#FFFFFF"></path>
        <path d="M3921.5,90.5 C3921.5,89.5 3916.5,60.5 3916.5,57.5 C3916.5,54.5 3934.5,50.5 3935.5,50.5 C3936.5,50.5 3942.6,68.3 3942.6,85.9" id="Path" stroke="#FFFFFF"></path>
    </g>
</svg>