<?xml version="1.0" encoding="UTF-8"?>
<svg width="86px" height="87px" viewBox="0 0 86 87" version="1.1" xmlns="http://www.w3.org/2000/svg" xmlns:xlink="http://www.w3.org/1999/xlink">
    <!-- Generator: Sketch 55.1 (78136) - https://sketchapp.com -->
    <title>mob illustrasjon studiespesialiserende</title>
    <desc>Created with Sketch.</desc>
    <g id="mob-illustrasjon-studiespesialiserende" stroke="none" stroke-width="1" fill="none" fill-rule="evenodd">
        <g id="Group" transform="translate(4.000000, 6.000000)">
            <circle id="Oval" fill="#DEEBF6" cx="37.5" cy="37.5" r="37.5"></circle>
            <g id="Group-24" transform="translate(0.000000, 13.000000)" stroke="#000000" stroke-width="0.5">
                <path d="M40,40.0697056 C40,40.0697056 37.634042,30.2742526 36.7199219,25.4586109 C36.6123784,24.8019325 16.7705945,24.9661021 15.1036696,25.2397181 C14.4046366,26.7719677 17.4696276,41 17.4696276,41" id="Path" stroke-linecap="round"></path>
                <path d="M0,47 C1.97368266,46.8880303 3.59435434,46.7604131 4.75270513,46.6209555 C15.5914009,45.3397747 -10.4105208,40.6954945 18,41.0157897" id="Path"></path>
                <path d="M44.0752486,1 C44.0752486,1 39.7332955,1.10607107 41.3679132,6.56873136 C42.5938764,10.7055032 45.1990483,12.7208536 46.7315023,11.766214 C47.2423203,11.4480007 47.6509748,10.8115743 47.8042202,9.85693464 C48.5704472,5.93230492 47.0379931,1.47731983 44.0752486,1 Z" id="Path" stroke-linecap="round"></path>
                <path d="M48.5402715,12 C48.5402715,12 48.6454503,15.2398088 51.1697425,15.8771483 C53.6940347,16.5144877 57.8485989,12.7435627 60.6884276,22.7285472 C63.5808458,32.7135318 65.8421909,37.3342427 61.8453949,39.0869262 C57.8485989,40.8396096 49.6446493,39.7242656 47.9617879,38.6089216 C46.226337,37.4935776 45.5426745,34.2537688 43.22874,35.7408941 C40.9148055,37.2280195 38.8638181,40.3616051 45.4374957,38.8744797" id="Path" stroke-linecap="round"></path>
                <path d="M45.8588081,12 C46.2567222,12.4904632 45.9724978,17.013624 42.9028742,19.1934605 C39.7764056,21.373297 38.2984386,26.986376 39.3216465,32" id="Path" stroke-linecap="round"></path>
                <path d="M57,23 C57,23 57.3528496,34.1818182 58.7642479,35.4909091 C60.1756463,36.8 62.393558,36.8 61.9398943,38" id="Path" stroke-linecap="round"></path>
                <path d="M59,35 C55.7818182,36.040833 48.3090909,37.081666 47,36.9949299" id="Path" stroke-linecap="round"></path>
                <path d="M43,8.40660574 C43.6556747,8.01100957 46.0910379,7.93189033 45.9973701,8.05056919 C45.9037023,8.16924804 43.8898442,8.88132115 43.7961764,9" id="Path" stroke-linecap="round"></path>
                <path d="M42,1.69165571 C42.270895,1.53630539 46.6593942,-1.93318515 48.1222272,1.53630539 C49.5850603,5.00579592 49.2599863,9.51095527 51.5896833,11.8412101 C53.9193804,14.1714649 53.2150534,15 50.5602823,15" id="Path" stroke-linecap="round"></path>
                <path d="M62,39.6333945 L78,39.3666055" id="Path" stroke-linecap="round"></path>
            </g>
        </g>
    </g>
</svg>
