<?xml version="1.0" encoding="UTF-8"?>
<svg width="86px" height="87px" viewBox="0 0 86 87" version="1.1" xmlns="http://www.w3.org/2000/svg" xmlns:xlink="http://www.w3.org/1999/xlink">
    <!-- Generator: Sketch 55.1 (78136) - https://sketchapp.com -->
    <title>mob illustrasjon fellesfag</title>
    <desc>Created with Sketch.</desc>
    <g id="mob-illustrasjon-fellesfag" stroke="none" stroke-width="1" fill="none" fill-rule="evenodd">
        <g id="Group" transform="translate(4.000000, 6.000000)" fill="#DEEBF6">
            <circle id="Oval" cx="37.5" cy="37.5" r="37.5"></circle>
        </g>
        <g id="Group-25" transform="translate(11.000000, 22.000000)" stroke="#000000" stroke-width="0.5">
            <path d="M19.7841445,0.0381716937 C19.7841445,0.0381716937 19.1003196,-0.155072506 18.4164946,0.328037993 C17.7326696,0.811148491 17,1.92230264 17,4.53109933 C17,9.79700376 19.3445428,12.4058004 21.493707,10.2318032 C23.6428712,8.05780596 23.5451819,4.33785513 20.8587266,1.34257004 C19.8818338,0.376349042 19.3445428,0.907770591 19.3445428,0.907770591" id="Path" stroke-linecap="round"></path>
            <path d="M18.851861,11 C18.851861,11 15.8347085,17.2659855 16.0071172,23.4398241 C16.1795259,29.6136627 17.6018978,33.8063442 19.6708024,34.4974455 C18.7225544,34.1749316 27.041275,39.012641 22.7741593,24.1309255 C19.6708024,13.2575977 20.1449263,13.9947725 20.2311307,11.5068076" id="Path" stroke-linecap="round"></path>
            <path d="M17,14 C17,14 13.1912182,16.8140405 10.6679003,18.314862 C8.47785072,19.6280809 6.4306305,22.7235254 7.14477708,23.8960423 C7.85892367,25.0685591 13.4768768,25.3968638 14.0958039,27.4135928 C14.7147309,29.4303218 16.381073,34.2141906 14.90517,32.713369 C13.4292671,31.2125474 13.7625355,30.7904414 13.4292671,29.1020171" id="Path" stroke-linecap="round"></path>
            <path d="M0,36 C0.431386954,36 11.551584,35.907496 11.9829709,35.907496 C12.4143579,35.907496 4.45766519,23.8819817 9.87396805,25.0845331" id="Path" stroke-linecap="round"></path>
            <path d="M21,15 C21,15 23.826087,28.091068 27,27.9995221" id="Path" stroke-linecap="round"></path>
            <path d="M36,33.139632 C34.4285714,31.5893253 33.5714286,28.1786507 31.7619048,26.1411048 C31.047619,25.3438042 30.4285714,24.5907981 29.5714286,25.2552153 C28.8095238,25.8310435 26.3809524,28.1343562 23,35" id="Path" stroke-linecap="round"></path>
            <path d="M30.3246481,24.7884615 C30.3246481,24.5 30.2757303,24.1634615 30.2757303,23.875 C30.0800589,21.4230769 29.9333054,19.1153846 30.0311411,18.1538462 L44.8043286,17 L45,24.5480769 C45,24.5480769 43.5813827,25.3653846 42.0160118,27.1923077 C40.4017231,28.9711538 39.0320236,31.2788462 37.8579954,32" id="Path" stroke-linecap="round"></path>
            <path d="M34.4774411,35.9677411 C34.4774411,35.9677411 34.1072372,37.815321 32.2562177,37.9611826 C26.7494348,38.4473879 29.3871376,34.2174022 31.7471874,33.5853354 C33.9684108,33.0018891 33.8758598,36.3567053 37.1614193,35.0925716 C40.4469789,33.828438 49.6095253,27.5563903 49.9797291,24.9795025 C50.349933,22.4512352 45.5372824,22.9374404 44.7043237,23.2777841" id="Path" stroke-linecap="round"></path>
            <path d="M41.7531223,32.742484 C41.7531223,32.742484 39.8365883,35.6249658 42.1181764,35.9669552 C44.3997644,36.3089446 50.1949981,33.915019 48.7804135,32.5470614 C47.3658289,31.1791039 45.5405584,32.742484 42.8939163,33.2798958" id="Path" stroke-linecap="round"></path>
            <path d="M34,29 L40,28" id="Path" stroke-linecap="round"></path>
            <path d="M47.3903104,29 C49.0965924,31.5239232 49.7127498,32.1315343 55.7795302,33.3000173 C57.2014318,33.5804532 62.272881,33.3467566 61.9885007,34.4217609 C61.5145335,36.2445943 55.9217203,34.8424148 53.4570908,35.2630687 C50.9450646,35.6837225 48.7174186,36.6652482 46.5371694,37.6000346 C45.6840285,37.9739491 44.736094,38.5815603 45.0678711,39.2359107 C45.3522514,39.7967825 46.3949793,39.9837398 47.2481203,39.9837398 C51.4664285,40.1239578 55.63734,39.3293894 59.8082515,38.6750389" id="Path"></path>
            <path d="M22,5.89010989 C22,5.89010989 20,4.30769231 20,5.36263736 C20,6.41758242 22,8 22,8" id="Path" stroke-linecap="round"></path>
        </g>
    </g>
</svg>
