<?xml version="1.0" encoding="UTF-8"?>
<svg width="86px" height="87px" viewBox="0 0 86 87" version="1.1" xmlns="http://www.w3.org/2000/svg" xmlns:xlink="http://www.w3.org/1999/xlink">
    <!-- Generator: Sketch 55.1 (78136) - https://sketchapp.com -->
    <title>mob illustrasjonyrkesfag</title>
    <desc>Created with Sketch.</desc>
    <g id="mob-illustrasjonyrkesfag" stroke="none" stroke-width="1" fill="none" fill-rule="evenodd">
        <g id="Group" transform="translate(4.000000, 6.000000)" fill="#DEEBF6">
            <circle id="Oval" cx="37.5" cy="37.5" r="37.5"></circle>
        </g>
        <g id="Group-18" transform="translate(6.000000, 14.000000)" stroke="#000000" stroke-width="0.5">
            <path d="M33.6986729,10.0296965 C33.6986729,10.0296965 28.5473666,13.9947187 29.0321954,16.7935579 C29.5776279,19.5923972 32.7896189,21.6332174 34.7289342,18.1929776 C35.213763,17.3183403 35.5773846,16.3270847 35.7591954,15.3941383 C36.4258351,12.4786808 35.6985918,9.67984163 33.6986729,10.0296965 Z" id="Path"></path>
            <path d="M33.0951874,15.1731805 C32.424846,14.3070968 35.497244,17.0496952 36,15.5340488" id="Path"></path>
            <path d="M23.8368201,40.6934294 C23.8368201,40.6934294 25.5820635,43.636759 25.9198526,42.8736736 C26.2013434,42.2196003 25.6946599,40.4208989 25.5820635,39.8758378 C25.5820635,39.8213317 25.6383617,39.8213317 25.6383617,39.8213317 C26.370238,40.6934294 27.327307,42.5466369 29.9733212,42.5466369 C32.78823,42.5466369 29.1851467,39.8213317 26.708027,38.2951608 C24.2309073,36.7689899 16.74325,38.7312097 14.6039193,39.3852829 C12.4082904,39.9848501 11.6764142,37.6955937 12.1267996,36.4964594 C12.577185,35.2973251 13.3653594,33.1715871 16.4617591,29.0291231 C19.5581587,24.9411653 23.8931182,22.651909 27.327307,22.0523418 C30.7614957,21.4527747 30.5926011,19 30.5926011,19" id="Path" stroke-linecap="round"></path>
            <path d="M34,20 C34,20 34.3365676,22.7070064 37.2534865,24.0605096 C40.1704054,25.4140127 43.3117028,28.1210191 42.9751352,30.8280255 C42.6385676,33.5350318 41.1240136,36.4044586 40.787446,37" id="Path"></path>
            <path d="M32,37 C32.3461538,32.4876033 35,24 35,24" id="Path" stroke-linecap="round"></path>
            <path d="M38,25 C37.5862069,25.4660194 34.9655172,33.4466019 34,37" id="Path" stroke-linecap="round"></path>
            <path d="M25.9,23 C25.9,23 25.9,33.2338308 25.1,34" id="Path" stroke-linecap="round"></path>
            <path d="M23.45,23 L23.55,37" id="Path" stroke-linecap="round"></path>
            <path d="M26.8263989,43.326087 L24.8120516,43.7608696 L20,45.1195652 L36.954089,53 L59,43.4347826 L41.2625538,38 C40.4791966,38.1630435 29.5121951,42.2391304 29.5121951,42.2391304" id="Path"></path>
            <path d="M44.3406882,0.47658754 C43.6771715,0.75826651 43.5665854,9.88466511 47.9900299,9.9973367 C52.4134744,10.1100083 52.3028883,6.61718907 51.6946647,5.32146581 C51.031148,4.02574255 49.7041146,-1.66417262 44.3406882,0.47658754 Z" id="Path"></path>
            <path d="M44,7.86217925 C44.0638298,8.62084488 47,6 47,6" id="Path" stroke-linecap="round"></path>
            <path d="M50.2078886,9 C50.2078886,9 50.265991,10.7208154 51.9509586,11.2759171 C54.3912566,12.1085698 58.3422152,12.497141 59.9690805,17.604077 C61.5959458,22.711013 64.2686531,31.9812122 63.9781414,32.7583546 C63.6876298,33.535497 59.7947735,39.253045 58.0517035,40.6407993 C56.3086335,42.0285537 48.4067163,41.5844723 48.9296373,42.4726351 C49.394456,43.4163081 51.6604469,42.8056961 51.6604469,42.8056961 C51.6604469,42.8056961 56.1343266,41.4179418 57.9354989,38.0318212 C57.9354989,38.0318212 54.5655636,39.8636569 52.0090609,35.2563124 C49.4525583,30.648968 48.6391257,15.7722413 49.4525583,13.2742834 C50.265991,10.7763256 48,10.2212238 48,10.2212238" id="Path" stroke-linecap="round"></path>
            <path d="M51,29 C51,29.4311377 50.6065574,34.8742515 47,38" id="Path" stroke-linecap="round"></path>
            <path d="M62,36 C62.1363636,36.4179104 63,43 63,43" id="Path" stroke-linecap="round"></path>
            <path d="M58.1969834,38 C58.1969834,38 62.3367588,34.8888889 60.5543555,28.1111111 C58.7144553,20.8888889 55.9546051,18.5 54.9771581,16.1666667 C53.9997111,13.8333333 53.5397361,13.5555556 54.6321768,12" id="Path"></path>
            <path d="M0,44.5 L20,44.5" id="Path" stroke-linecap="round"></path>
        </g>
    </g>
</svg>
