<?xml version="1.0" encoding="UTF-8"?>
<svg width="940px" height="105px" viewBox="0 0 940 105" version="1.1" xmlns="http://www.w3.org/2000/svg" xmlns:xlink="http://www.w3.org/1999/xlink">
    <!-- Generator: Sketch 55.2 (78181) - https://sketchapp.com -->
    <title>MenuOpen2</title>
    <desc>Created with Sketch.</desc>
    <g id="MenuOpen2" stroke="none" stroke-width="1" fill="none" fill-rule="evenodd">
        <path d="M461.054868,24.0504841 C461.054868,24.0504841 452.224057,30.7910219 453.055192,35.5490485 C453.990219,40.3070752 459.496489,43.7764696 462.82103,37.9280618 C463.652165,36.4411785 464.275517,34.7560441 464.587192,33.1700352 C465.730003,28.2137574 464.4833,23.4557308 461.054868,24.0504841 Z" id="Path" stroke="#000000"></path>
        <path d="M458.190375,33.1731805 C456.849692,32.3070968 462.994488,35.0496952 464,33.5340488" id="Path" stroke="#000000"></path>
        <path d="M443.181678,79.7712873 C443.181678,79.7712873 446.304745,85.1673916 446.90921,83.7684015 C447.41293,82.5692673 446.506233,79.271648 446.304745,78.2723694 C446.304745,78.1724415 446.405489,78.1724415 446.405489,78.1724415 C447.715163,79.7712873 449.427812,83.1688344 454.162785,83.1688344 C459.19999,83.1688344 452.752368,78.1724415 448.319627,75.3744615 C443.886887,72.5764815 430.487921,76.1738844 426.659645,77.3730187 C422.730625,78.4722251 421.420952,74.2752551 422.226904,72.0768422 C423.032857,69.8784294 424.443275,65.9812429 429.9842,58.3867258 C435.525126,50.8921365 443.282422,46.6951664 449.427812,45.59596 C455.573203,44.4967536 455.27097,40 455.27097,40" id="Path" stroke="#000000" stroke-linecap="round"></path>
        <path d="M460,42 C460,42 460.635739,46.9363057 466.145475,49.4044586 C471.65521,51.8726115 477.588772,56.8089172 476.953033,61.7452229 C476.317294,66.6815287 473.45647,71.9140127 472.820731,73" id="Path" stroke="#000000"></path>
        <path d="M458,74 C458.692308,65.6694215 464,50 464,50" id="Path" stroke="#000000" stroke-linecap="round"></path>
        <path d="M468,52 C467.37931,52.776699 463.448276,66.0776699 462,72" id="Path" stroke="#000000" stroke-linecap="round"></path>
        <path d="M445.9,48 C445.9,48 445.9,66.6069652 445.1,68" id="Path" stroke="#000000" stroke-linecap="round"></path>
        <path d="M442.45,48 L442.55,74" id="Path" stroke="#000000" stroke-linecap="round"></path>
        <path d="M449.252511,82.942029 L445.637016,83.7536232 L437,86.2898551 L467.430416,101 L507,83.1449275 L475.163558,73 C473.757532,73.3043478 454.073171,80.9130435 454.073171,80.9130435" id="Path" stroke="#000000"></path>
        <path d="M478.63879,5.85785757 C477.394697,6.36487972 477.187348,22.7923972 485.481306,22.9952061 C493.775265,23.1980149 493.567916,16.9109403 492.427496,14.5786385 C491.183403,12.2463366 488.695215,2.00448928 478.63879,5.85785757 Z" id="Path" stroke="#000000"></path>
        <path d="M480,18.7932689 C480.106383,19.9312673 485,16 485,16" id="Path" stroke="#000000" stroke-linecap="round"></path>
        <path d="M491.863805,21 C491.863805,21 491.965484,24.0873453 494.914178,25.0832631 C499.184699,26.5771399 506.098877,27.2742823 508.945891,36.4367264 C511.792905,45.5991705 516.470143,62.2309983 515.961748,63.6252832 C515.453352,65.0195682 508.640854,75.2775219 505.590481,77.7673165 C502.540109,80.2571111 488.711754,79.4603768 489.626865,81.0538453 C490.440298,82.7469056 494.405782,81.651396 494.405782,81.651396 C494.405782,81.651396 502.235071,79.1616014 505.387123,73.0865027 C505.387123,73.0865027 499.489736,76.3730315 495.015857,68.1069135 C490.541977,59.8407955 489.11847,33.1501976 490.541977,28.6685673 C491.965484,24.1869371 488,23.1910192 488,23.1910192" id="Path" stroke="#000000" stroke-linecap="round"></path>
        <path d="M491,57 C491,57.8143713 490.409836,68.0958084 485,74" id="Path" stroke="#000000" stroke-linecap="round"></path>
        <path d="M512,69 C512.409091,69.7761194 515,82 515,82" id="Path" stroke="#000000" stroke-linecap="round"></path>
        <path d="M505.194829,73 C505.194829,73 512.291587,67.3760684 509.236038,55.1239316 C506.081923,42.0683761 501.350752,37.75 499.675128,33.5320513 C497.999505,29.3141026 497.210976,28.8119658 499.083732,26" id="Path" stroke="#000000"></path>
        <path d="M0,86.5 C29.2606725,84.739141 77.9156204,84.0724744 145.964844,84.5 C248.038679,85.1412885 267.976258,88.1539003 318.339844,88.5 C351.915568,88.7307331 391.468953,88.0640664 437,86.5" id="Path" stroke="#000000" stroke-linecap="round"></path>
        <path d="M504,86.5 C514.567688,87.6600567 560.563782,87.6600567 641.988281,86.5 C764.12503,84.759915 746.856449,82 819.855469,82 C868.521482,82 908.569659,83.5 940,86.5" id="Path" stroke="#000000" stroke-linecap="round"></path>
    </g>
</svg>