<?xml version="1.0" encoding="UTF-8"?>
<svg width="940px" height="105px" viewBox="0 0 940 105" version="1.1" xmlns="http://www.w3.org/2000/svg" xmlns:xlink="http://www.w3.org/1999/xlink">
    <!-- Generator: Sketch 55.2 (78181) - https://sketchapp.com -->
    <title>MenuOpen3</title>
    <desc>Created with Sketch.</desc>
    <g id="MenuOpen3" stroke="none" stroke-width="1" fill="none" fill-rule="evenodd">
        <path d="M452.8,9.07901235 C452.8,9.07901235 451.4,8.67901235 450,9.67901235 C448.6,10.6790123 447.1,12.9790123 447.1,18.3790123 C447.1,29.2790123 451.9,34.6790123 456.3,30.1790123 C460.7,25.6790123 460.5,17.9790123 455,11.7790123 C453,9.77901235 451.9,10.8790123 451.9,10.8790123" id="Path" stroke="#000000" stroke-linecap="round"></path>
        <path d="M450.4,32.3790123 C450.4,32.3790123 443.4,45.9790123 443.8,59.3790123 C444.2,72.7790123 447.5,81.8790123 452.3,83.3790123 C450.1,82.6790123 469.4,93.1790123 459.5,60.8790123 C452.3,37.2790123 453.4,38.8790123 453.6,33.4790123" id="Path" stroke="#000000" stroke-linecap="round"></path>
        <path d="M447.9,37.5790123 C447.9,37.5790123 439.9,43.5790123 434.6,46.7790123 C430,49.5790123 425.7,56.1790123 427.2,58.6790123 C428.7,61.1790123 440.5,61.8790123 441.8,66.1790123 C443.1,70.4790123 446.6,80.6790123 443.5,77.4790123 C440.4,74.2790123 441.1,73.3790123 440.4,69.7790123" id="Path" stroke="#000000" stroke-linecap="round"></path>
        <path d="M0.0355276358,85.2790123 C1.05231692,85.2790123 433.9786,85.0790123 434.99539,85.0790123 C436.012179,85.0790123 417.258065,59.0790123 430.02442,61.6790123" id="Path" stroke="#000000" stroke-linecap="round"></path>
        <path d="M453.6,39.9790123 C453.6,39.9790123 460.1,68.5790123 467.4,68.3790123" id="Path" stroke="#000000" stroke-linecap="round"></path>
        <path d="M485.9,79.5790123 C482.6,76.0790123 480.8,68.3790123 477,63.7790123 C475.5,61.9790123 474.2,60.2790123 472.4,61.7790123 C470.8,63.0790123 465.7,68.2790123 458.6,83.7790123" id="Path" stroke="#000000" stroke-linecap="round"></path>
        <path d="M474.2,60.0790123 C474.2,59.4790123 474.1,58.7790123 474.1,58.1790123 C473.7,53.0790123 473.4,48.2790123 473.6,46.2790123 L503.8,43.8790123 L504.2,59.5790123 C504.2,59.5790123 501.3,61.2790123 498.1,65.0790123 C494.8,68.7790123 492,73.5790123 489.6,75.0790123" id="Path" stroke="#000000" stroke-linecap="round"></path>
        <path d="M482,85.6790123 C482,85.6790123 481.2,89.4790123 477.2,89.7790123 C465.3,90.7790123 471,82.0790123 476.1,80.7790123 C480.9,79.5790123 480.7,86.4790123 487.8,83.8790123 C494.9,81.2790123 514.7,68.3790123 515.5,63.0790123 C516.3,57.8790123 505.9,58.8790123 504.1,59.5790123" id="Path" stroke="#000000" stroke-linecap="round"></path>
        <path d="M498.4,79.7790123 C498.4,79.7790123 494.2,85.6790123 499.2,86.3790123 C504.2,87.0790123 516.9,82.1790123 513.8,79.3790123 C510.7,76.5790123 506.7,79.7790123 500.9,80.8790123" id="Path" stroke="#000000" stroke-linecap="round"></path>
        <path d="M480.8,69.9790123 L495.3,68.3790123" id="Path" stroke="#000000" stroke-linecap="round"></path>
        <path d="M511,70.1790123 C514.6,75.5790123 515.9,76.8790123 528.7,79.3790123 C531.7,79.9790123 542.4,79.4790123 541.8,81.7790123 C540.8,85.6790123 529,82.6790123 523.8,83.5790123 C518.5,84.4790123 513.8,86.5790123 509.2,88.5790123 C507.4,89.3790123 505.4,90.6790123 506.1,92.0790123 C506.7,93.2790123 508.9,93.6790123 510.7,93.6790123 C519.6,93.9790123 528.4,92.2790123 537.2,90.8790123 C573.3,84.8790123 586.6,87.9790123 622.9,93.3790123 C648.5,97.1790123 714.2,96.4790123 730.4,94.4790123 C749.52916,92.1603262 713.308511,83.9613062 757.633657,83.9494468 C759.188093,83.9490309 760.841587,83.9586839 762.6,83.9790123 L940,84" id="Path" stroke="#000000"></path>
        <path d="M457.8,21.7790123 C457.8,21.7790123 453.9,19.0790123 453.9,20.8790123 C453.9,22.6790123 457.8,25.3790123 457.8,25.3790123" id="Path" stroke="#000000" stroke-linecap="round"></path>
    </g>
</svg>