<?xml version="1.0" encoding="UTF-8"?>
<svg width="940px" height="105px" viewBox="0 0 940 105" version="1.1" xmlns="http://www.w3.org/2000/svg" xmlns:xlink="http://www.w3.org/1999/xlink">
    <!-- Generator: Sketch 55.2 (78181) - https://sketchapp.com -->
    <title>MenuOpen1</title>
    <desc>Created with Sketch.</desc>
    <g id="MenuOpen1" stroke="none" stroke-width="1" fill="none" fill-rule="evenodd">
        <path d="M479,81.7592017 C479,81.7592017 474.835914,65.2293747 473.227063,57.1029794 C473.037786,55.9948345 438.116246,56.2718707 435.182459,56.7335978 C433.95216,59.319269 439.346545,83.3290735 439.346545,83.3290735" id="Path" stroke="#000000" stroke-linecap="round"></path>
        <path d="M0,88.8100729 C0.56368574,89.8958509 208.17069,91.132542 209.861747,91.132542 C218.223085,91.4039865 226.490476,89.865801 234.757867,88.59906 C268.672959,83.17017 281.167993,85.9750965 315.27098,90.8610975 C339.321572,94.2993945 401.04516,93.666024 416.264675,91.856394 C434.866305,89.684838 390.241184,81.8129474 439,82.3558364" id="Path" stroke="#000000"></path>
        <path d="M486.711176,13.3290735 C486.711176,13.3290735 478.647549,13.5122872 481.683267,22.9477913 C483.960056,30.0931245 488.798233,33.5741843 491.644219,31.9252612 C492.592881,31.3756202 493.35181,30.2763382 493.636409,28.6274151 C495.059402,21.8485092 492.213416,14.153535 486.711176,13.3290735 Z" id="Path" stroke="#000000" stroke-linecap="round"></path>
        <path d="M492.441354,32.3290735 C492.441354,32.3290735 492.628846,38.1144464 497.128671,39.2525525 C501.628497,40.3906587 509.034459,33.656864 514.096762,51.4871935 C519.252812,69.3175231 523.283905,77.5687926 516.159182,80.6985845 C509.034459,83.8283764 494.410027,81.8366907 491.410144,79.8450049 C488.316514,77.8533192 487.097811,72.0679463 482.972971,74.7235273 C478.848132,77.3791083 475.192024,82.9747968 486.910318,80.3192158" id="Path" stroke="#000000" stroke-linecap="round"></path>
        <path d="M488.757957,33.3290735 C489.440095,34.1628609 488.952853,41.8522342 483.690641,45.5579563 C478.330981,49.2636784 475.797323,58.8059127 477.551394,67.3290735" id="Path" stroke="#000000" stroke-linecap="round"></path>
        <path d="M508,51.3290735 C508,51.3290735 508.635129,70.7108917 511.175646,72.9799826 C513.716163,75.2490735 517.708404,75.2490735 516.89181,77.3290735" id="Path" stroke="#000000" stroke-linecap="round"></path>
        <path d="M511,73.3290735 C505.368182,75.4107395 492.290909,77.4924055 490,77.3189333" id="Path" stroke="#000000" stroke-linecap="round"></path>
        <path d="M483,25.142285 C484.311349,24.3510926 489.182076,24.1928541 488.99474,24.4302119 C488.807405,24.6675696 484.779688,26.0917158 484.592353,26.3290735" id="Path" stroke="#000000" stroke-linecap="round"></path>
        <path d="M483,14.3740538 C483.46791,14.0944232 491.048044,7.84934022 493.574756,14.0944232 C496.101468,20.3395061 495.539976,28.448793 499.563998,32.6432517 C503.588021,36.8377104 502.371456,38.3290735 497.785942,38.3290735" id="Path" stroke="#000000" stroke-linecap="round"></path>
        <path d="M517,80.8290735 L940,80.8290735" id="Path" stroke="#000000" stroke-linecap="round"></path>
    </g>
</svg>